<svg height="512" viewBox="0 0 48 48" width="512" xmlns="http://www.w3.org/2000/svg"><g id="_1._Holding_wrench" data-name="1. Holding wrench"><path d="m39 33c0 3 .3 4.35-1.15 5.53a5 5 0 0 0 1.15 8.47v-3.59l2-1 2 1v3.59a5 5 0 0 0 1.07-8.54c-1.38-1.06-1.07-2.58-1.07-5.46v-21.17a2.87 2.87 0 0 1 1.07-2.29 5 5 0 0 0 -1.07-8.54v3.59l-2 1-2-1v-3.59a5 5 0 0 0 -1.15 8.47 3.07 3.07 0 0 1 1.15 2.36z" fill="#dad7e5"/><path d="m44.07 9.54a2.87 2.87 0 0 0 -1.07 2.29c0 5.4.07 5.17 0 5.17a2 2 0 0 0 -1.23-1.5l-.77-.3c0-3 .33-4.52-1.15-5.73a5 5 0 0 1 -.85-6.88v2l2 1 2-1v-3.59a5 5 0 0 1 1.07 8.54z" fill="#edebf2"/><path d="m43 47v-3.59l-2-1-2 1v2a5 5 0 0 1 .85-6.88c1.52-1.24 1.15-2.76 1.15-5.53h2c0 3-.28 4.42 1.07 5.46a5 5 0 0 1 -1.07 8.54z" fill="#edebf2"/><path d="m44 25a2 2 0 0 1 0 4h-1a2 2 0 0 1 0 4c-9.16 0-8.83.14-9.53-.4-4.14-3.1-2.65-2.6-7.47-2.6v-11c3.41 0 3.84.14 4.57-.47l4.51-3.77a2 2 0 0 1 2-.32c2.66 1.07 2.94 1.12 3.3 1.5 1.31 1.3-1 1.06 3.59 1.06a2 2 0 0 1 1.41 3.41 2 2 0 0 1 -1.38.59h1a2 2 0 0 1 1.41 3.41c-.72.74-1.58.59-2.41.59z" fill="#f6ccaf"/><path d="m46.69 24.05a4.66 4.66 0 0 0 -3.69-1.05c0-6.23 0-5.69 0-6h.91a2.08 2.08 0 0 1 2.09 1.82 2 2 0 0 1 -2 2.18h1a2 2 0 0 1 1.69 3.05z" fill="#ffdec7"/><path d="m21 17h5v15h-5z" fill="#6fabe6"/><path d="m26 17c0 13.72-.1 13 0 13a3 3 0 0 1 -3-3v-10z" fill="#82bcf4"/><path d="m1 17h20v15h-20z" fill="#db5669"/><path d="m21 17v13h-5a13 13 0 0 1 -13-13z" fill="#f26674"/><g fill="#ffdec7"><path d="m46.69 24.05c-.67 1.24-2.21.95-4.23.95.68-1.14.54-2.08.54-4h2a2 2 0 0 1 1.69 3.05z"/><path d="m46 27a2 2 0 0 1 -2 2h-5a2 2 0 0 1 -2-2c0-1 .15 0 2 0a3.94 3.94 0 0 0 3.46-2h1.54a2 2 0 0 1 2 2z"/><path d="m45 31a2 2 0 0 1 -2 2h-4a2 2 0 0 1 0-4h4a2 2 0 0 1 2 2z"/><path d="m41 17.35c0 5.79.2 6.29-.59 7.06a2 2 0 0 1 -3.41-1.41v-3a1 1 0 0 0 -2 0c0 3-.16 3.79.54 5a3.9 3.9 0 0 0 0 4 3.72 3.72 0 0 0 -.49 1.3l-2.54-1.9c-1.13-.86-2 .15-3.55-1.38-1.31-1.29-1-2.34-1-8 1.41 0 1.91.08 2.57-.47l4.51-3.77a2 2 0 0 1 2-.32l2.63 1.06a2 2 0 0 1 1.33 1.83z"/><path d="m39 25h5a2 2 0 0 1 0 4h-5a2 2 0 0 1 0-4z"/><path d="m39 29h4a2 2 0 0 1 0 4h-4a2 2 0 0 1 0-4z"/></g><path d="m46.6 20.47a3 3 0 0 0 -2.6-4.47c0-4.07-.23-5 .69-5.67a6 6 0 0 0 2.31-4.74c0-3.67-3.44-6.15-4.55-5.43-.6.39-.45.75-.45 3.84l-1 .5-1-.5c0-3.14.14-3.42-.45-3.81a1 1 0 0 0 -.95-.11 6 6 0 0 0 -1.38 10.16c1 .83.78 1.78.78 3.48l-.52-.21a3 3 0 0 0 -3 .49l-4.52 3.77c-.36.29-.39.23-2.92.23v-1a1 1 0 0 0 -1-1h-25.04a1 1 0 0 0 0 2h19v13h-19a1 1 0 0 0 0 2h25a1 1 0 0 0 1-1v-1c3.33 0 2-.5 5.87 2.4 1 .75 1.6.6 5.13.6 0 1.91.23 2.93-.78 3.75a6 6 0 0 0 1.38 10.17 1 1 0 0 0 1.4-.92v-3l1-.5 1 .5v3c0 2.53 5-.14 5-4.59a6 6 0 0 0 -2.32-4.74c-.8-.62-.68-1.3-.68-3.85a3 3 0 0 0 1.6-4.29 3 3 0 0 0 1-4 3 3 0 0 0 0-5.06zm-2.6 7.53h-5a1 1 0 0 1 0-2h5a1 1 0 0 1 0 2zm-2.18-4a5.11 5.11 0 0 0 .18-2h3a1 1 0 0 1 .69 1.71c-.36.37-.38.29-3.87.29zm2.18-4h-2v-2h2a1 1 0 0 1 0 2zm-5.52-11.31a4 4 0 0 1 -.48-5.76c0 1.64-.14 2.21.55 2.55 2.07 1 2.32 1.29 2.9 1 2.93-1.48 2.55-.91 2.55-3.48a4 4 0 0 1 1 2.64c0 3.33-3 2.91-3 6.24v4.12h-.32a3 3 0 0 0 -1.68-1.48c0-2.44.34-4.3-1.52-5.83zm-13.48 22.31h-3v-13h3zm9.07.8c-4.21-3.15-3.07-2.8-7.07-2.8v-9c2.1 0 3.15.18 4.2-.7 4.86-4.05 4.79-4.23 5.54-3.93 2.52 1 3.26 1.08 3.26 2v5.63a1 1 0 0 1 -2 0v-3a1 1 0 0 0 -2 0c0 2.94-.21 3.9.78 5a3 3 0 0 0 0 4 2.93 2.93 0 0 0 -.6 3c-1.58 0-1.77.06-2.11-.2zm10.93 10.61a4 4 0 0 1 -1 2.64c0-2.66.35-2.08-2.55-3.53-.58-.29-.83 0-2.9 1-.69.34-.55.91-.55 2.55a4 4 0 0 1 .48-5.77c1.8-1.46 1.52-3.16 1.52-5.3h2v2.17c0 3.33 3 2.92 3 6.24zm-2-10.41h-4a1 1 0 0 1 0-2h4a1 1 0 0 1 0 2z"/></g></svg>