<svg height="512" viewBox="0 0 48 48" width="512" xmlns="http://www.w3.org/2000/svg"><g id="_15._Brickwall" data-name="15. Brickwall"><g fill="#f16f39"><path d="m1 30h8v6h-8z"/><path d="m43 30h4v6h-4z"/><path d="m22 30h8v6h-8z"/><path d="m9 30h13v6h-13z"/><path d="m30 30h13v6h-13z"/><path d="m39 24h8v6h-8z"/><path d="m1 24h4v6h-4z"/><path d="m18 24h8v6h-8z"/><path d="m26 24h13v6h-13z"/><path d="m5 24h13v6h-13z"/><path d="m1 18h8v6h-8z"/></g><path d="m9 18v4h-2a4 4 0 0 1 -4-4z" fill="#f8834b"/><path d="m43 18h4v6h-4z" fill="#f16f39"/><path d="m47 18v4a2 2 0 0 1 -2-2v-2z" fill="#f8834b"/><path d="m22 18h8v6h-8z" fill="#f16f39"/><path d="m30 18v4h-2a4 4 0 0 1 -4-4z" fill="#f8834b"/><path d="m9 18h13v6h-13z" fill="#f16f39"/><path d="m22 18v4h-7a4 4 0 0 1 -4-4z" fill="#f8834b"/><path d="m30 18h13v6h-13z" fill="#f16f39"/><path d="m43 18v4h-7a4 4 0 0 1 -4-4z" fill="#f8834b"/><path d="m39 12h8v6h-8z" fill="#f16f39"/><path d="m47 12v4h-2a4 4 0 0 1 -4-4z" fill="#f8834b"/><path d="m1 12h4v6h-4z" fill="#f16f39"/><path d="m5 12v4a2 2 0 0 1 -2-2v-2z" fill="#f8834b"/><path d="m18 12h8v6h-8z" fill="#f16f39"/><path d="m26 12v4h-2a4 4 0 0 1 -4-4z" fill="#f8834b"/><path d="m26 12h13v6h-13z" fill="#f16f39"/><path d="m39 12v4h-7a4 4 0 0 1 -4-4z" fill="#f8834b"/><path d="m5 12h13v6h-13z" fill="#f16f39"/><path d="m18 12v4h-7a4 4 0 0 1 -4-4z" fill="#f8834b"/><path d="m9 30v4h-2a4 4 0 0 1 -4-4z" fill="#f8834b"/><path d="m47 30v4a2 2 0 0 1 -2-2v-2z" fill="#f8834b"/><path d="m30 30v4h-2a4 4 0 0 1 -4-4z" fill="#f8834b"/><path d="m22 30v4h-7a4 4 0 0 1 -4-4z" fill="#f8834b"/><path d="m43 30v4h-7a4 4 0 0 1 -4-4z" fill="#f8834b"/><path d="m47 24v4h-2a4 4 0 0 1 -4-4z" fill="#f8834b"/><path d="m5 24v4a2 2 0 0 1 -2-2v-2z" fill="#f8834b"/><path d="m26 24v4h-2a4 4 0 0 1 -4-4z" fill="#f8834b"/><path d="m39 24v4h-7a4 4 0 0 1 -4-4z" fill="#f8834b"/><path d="m18 24v4h-7a4 4 0 0 1 -4-4z" fill="#f8834b"/><path d="m47 11h-46a1 1 0 0 0 -1 1v24a1 1 0 0 0 1 1h46a1 1 0 0 0 1-1v-24a1 1 0 0 0 -1-1zm-7 18v-4h6v4zm-13 0v-4h11v4zm-8 0v-4h6v4zm-13 0v-4h11v4zm-4 0v-4h2v4zm6-10v4h-6v-4zm13 0v4h-11v-4zm8 0v4h-6v-4zm13 0v4h-11v-4zm4 0v4h-2v-4zm0-2h-6v-4h6zm-8 0h-11v-4h11zm-13 0h-6v-4h6zm-8 0h-11v-4h11zm-15-4h2v4h-2zm0 18h6v4h-6zm8 0h11v4h-11zm13 0h6v4h-6zm8 0h11v4h-11zm15 4h-2v-4h2z"/></g></svg>