<svg height="512" viewBox="0 0 48 48" width="512" xmlns="http://www.w3.org/2000/svg"><g id="_16._Helm_construction_with_Ribbon" data-name="16. Helm construction with Ribbon"><path d="m38 28h-28v-4a14 14 0 0 1 28 0z" fill="#fc6"/><path d="m11 35v4h-10l3-4-3-4h7v4z" fill="#db5669"/><path d="m44 35 3 4h-10v-4h3v-4h7z" fill="#db5669"/><path d="m26.89 11.11c-.89 17.29-.74 14.24-.89 16.89h-4l-.89-16.89a2 2 0 0 1 2-2.11h1.78a2 2 0 0 1 2 2.11z" fill="#f16f39"/><path d="m26.89 11.11c-.82 15.64-.89 14.89-.78 14.89a2.23 2.23 0 0 1 -2.22-2.11c-1.02-19.34-.78-13.89-.78-14.89h1.78a2 2 0 0 1 2 2.11z" fill="#f8834b"/><path d="m18.13 18.75a1.26 1.26 0 0 1 -2.3.69l-2.9-4.35a1 1 0 0 1 .18-1.3l1.27-1.11a1 1 0 0 1 1.58.39c2.27 5.7 2.17 5.34 2.17 5.68z" fill="#f16f39"/><path d="m18.11 19a1.24 1.24 0 0 1 -1.28-.53c-3.56-5.34-3.54-4.81-2.45-5.76a1 1 0 0 1 1.58.39c2.22 5.54 2.22 5.36 2.15 5.9z" fill="#f8834b"/><path d="m30 18.31 2-5.24a1 1 0 0 1 1.58-.39l1.27 1.11a1 1 0 0 1 .18 1.3l-2.9 4.35a1.25 1.25 0 0 1 -2.13-1.13z" fill="#f16f39"/><path d="m11 31v6h-1a6 6 0 0 1 -6-6z" fill="#f26674"/><path d="m37 31v6h1a6 6 0 0 0 6-6z" fill="#f26674"/><path d="m8 28h32v7h-32z" fill="#db5669"/><path d="m40 28v5h-24a5 5 0 0 1 -5-5z" fill="#f26674"/><path d="m29.89 19a1.24 1.24 0 0 0 1.28-.53c3.56-5.34 3.54-4.81 2.45-5.76a1 1 0 0 0 -1.58.39c-2.22 5.54-2.22 5.36-2.15 5.9z" fill="#f8834b"/><path d="m45.25 35c2.66-3.55 3-3.71 2.64-4.45s-.49-.55-6.89-.55v-2a1 1 0 0 0 -1-1h-1c0-3.88.29-7.47-2.88-11.8a2 2 0 0 0 -.57-2.2c-1.11-1-1.86-1.94-3.22-1.48a15.23 15.23 0 0 0 -4.89-2.13 3 3 0 0 0 -2.55-1.39c-1.76 0-3.3-.24-4.33 1.42a15.23 15.23 0 0 0 -4.89 2.13 2 2 0 0 0 -1.95.38c-1.13 1-2.37 1.73-1.84 3.27-3.17 4.33-2.88 8.06-2.88 11.8h-1a1 1 0 0 0 -1 1v2h-6a1 1 0 0 0 -.8 1.6l2.55 3.4-2.55 3.4a1 1 0 0 0 .8 1.6h10a1 1 0 0 0 1-1v-3h24v3a1 1 0 0 0 1 1c10.48 0 10.5.24 10.89-.55s.02-.9-2.64-4.45zm-8.25-8h-9.95l.81-15.41a13 13 0 0 1 3.14 1.46l-2 4.89a2.26 2.26 0 0 0 4 2.06l2-2.95c2.23 3.53 2 6.3 2 9.95zm-5.66-8.11a.26.26 0 0 1 -.45-.23l2.11-5.22 1.28 1.1zm-8.23-8.89c1.82 0 2.11-.1 2.51.31s.38-.63-.57 16.69h-2.05l-.84-15.95a1 1 0 0 1 .95-1.05zm-8.11 3.44c2.2 5.52 2.25 5.39 2 5.53s-.16.17-3-4.16c-.27-.38-.53-.01 1-1.37zm-2 3.61 2 2.95a2.26 2.26 0 0 0 4-2.06l-2-4.89a13 13 0 0 1 3.11-1.46l.89 15.41h-10c0-3.68-.24-6.41 2-9.95zm-4 11.95h30v5h-30zm1 9h-7c2.67-3.56 2.64-2.48 0-6h4v3a1 1 0 0 0 1 1h2zm35 0h-7v-2h2a1 1 0 0 0 1-1v-3h4c-2.64 3.53-2.66 2.45 0 6z"/></g></svg>