<svg height="512" viewBox="0 0 48 48" width="512" xmlns="http://www.w3.org/2000/svg"><g id="_17._Holding_hammer" data-name="17. Holding hammer"><path d="m38 13v31a1 1 0 0 1 -1 1h-2a1 1 0 0 1 -1-1v-31z" fill="#a87e6b"/><path d="m38 13v6h-.77c-1.52-2-1.23.8-1.23-6z" fill="#be927c"/><path d="m38 36v7a2 2 0 0 1 -1.41-.59c-.77-.75-.59-1.06-.59-6.41z" fill="#be927c"/><path d="m39 29a2 2 0 0 1 0 4h-1a2 2 0 0 1 0 4c-9.16 0-8.83.14-9.53-.4-4.14-3.1-2.65-2.6-7.47-2.6v-11c3.41 0 3.84.14 4.57-.47l4.51-3.77a2 2 0 0 1 2-.32c2.66 1.07 2.94 1.12 3.3 1.5 1.31 1.3-1 1.06 3.59 1.06a2 2 0 0 1 1.41 3.41 2 2 0 0 1 -1.38.59h1a2 2 0 0 1 1.41 3.41c-.72.74-1.58.59-2.41.59z" fill="#f6ccaf"/><path d="m41.69 28.05a4.66 4.66 0 0 0 -3.69-1.05c0-6.23 0-5.69 0-6h.91a2.08 2.08 0 0 1 2.09 1.82 2 2 0 0 1 -2 2.18h1a2 2 0 0 1 1.69 3.05z" fill="#ffdec7"/><path d="m16 21h5v15h-5z" fill="#6fabe6"/><path d="m21 21c0 13.72-.1 13 0 13a3 3 0 0 1 -3-3v-10z" fill="#82bcf4"/><path d="m1 21h15v15h-15z" fill="#db5669"/><path d="m16 21c0 13.72-.1 13 0 13a13 13 0 0 1 -13-13z" fill="#f26674"/><g fill="#ffdec7"><path d="m41.69 28.05c-.67 1.24-2.21.95-4.23.95.68-1.14.54-2.08.54-4h2a2 2 0 0 1 1.69 3.05z"/><path d="m41 31a2 2 0 0 1 -2 2h-5a2 2 0 0 1 -2-2c0-1 .15 0 2 0a3.94 3.94 0 0 0 3.46-2h1.54a2 2 0 0 1 2 2z"/><path d="m40 35a2 2 0 0 1 -2 2h-4a2 2 0 0 1 0-4h4a2 2 0 0 1 2 2z"/><path d="m36 21.35c0 5.79.2 6.29-.59 7.06a2 2 0 0 1 -3.41-1.41v-3a1 1 0 0 0 -2 0c0 3-.16 3.79.54 5a3.9 3.9 0 0 0 0 4 3.72 3.72 0 0 0 -.49 1.3l-2.54-1.9c-1.13-.86-2 .15-3.55-1.38-1.31-1.29-1-2.34-1-8 1.41 0 1.91.08 2.57-.47l4.51-3.77a2 2 0 0 1 2-.32l2.63 1.06a2 2 0 0 1 1.33 1.83z"/><path d="m34 29h5a2 2 0 0 1 0 4h-5a2 2 0 0 1 0-4z"/><path d="m34 33h4a2 2 0 0 1 0 4h-4a2 2 0 0 1 0-4z"/></g><path d="m47 5v6a1 1 0 0 1 -1 1c-2.31 0-1.9.22-3-2h-1l-3 3h-6l-.81-3.24a1 1 0 0 0 -1-.76 14.56 14.56 0 0 0 -7.19 2 12.32 12.32 0 0 1 11.54-8c4.09 0 3-.51 6.46 3h1c1.13-2.27.74-2 3-2a1 1 0 0 1 1 1z" fill="#dad7e5"/><path d="m47 5v5c-2.23 0-1.86.3-3-2h-2l-3 3h-2.66a3 3 0 0 1 -2.91-2.27l-.24-1a1 1 0 0 0 -.94-.73 14.6 14.6 0 0 0 -7.25 2l.06-.15a12.3 12.3 0 0 1 10.48-5.85c4.14 0 3-.48 6.46 3h1c.75-1.52.87-2 1.62-2h1.38a1 1 0 0 1 1 1z" fill="#edebf2"/><path d="m46 3c-2.74 0-2.69.15-3.61 2-3.34-3.34-2.47-3-6.85-3a13.4 13.4 0 0 0 -12.48 8.65 1 1 0 0 0 .27 1.09c.6.54 1.08.18 2.24-.41a12.72 12.72 0 0 1 5.65-1.33l.78 3.24a1 1 0 0 0 1 .76v3.72l-.52-.21a3 3 0 0 0 -3 .49c-4.8 4-4.65 4-5.16 4h-2.32v-1a1 1 0 0 0 -1-1h-20a1 1 0 0 0 0 2h14v13h-14a1 1 0 0 0 0 2h20a1 1 0 0 0 1-1v-1c2.52 0 2.59-.06 2.93.2 4.33 3.24 2.94 2.8 8.07 2.8v6a2 2 0 0 0 2 2h2a2 2 0 0 0 2-2v-6.18a3 3 0 0 0 1.6-4.29 3 3 0 0 0 1-4 3 3 0 0 0 0-5.06 3 3 0 0 0 -2.6-4.47v-6c.55 0 .49-.08 3.39-3 1.08 2.15 1.28 2 3.61 2a2 2 0 0 0 2-2v-6a2 2 0 0 0 -2-2zm-6 23a1 1 0 0 1 .69 1.71c-.36.37-.38.29-3.87.29a5.11 5.11 0 0 0 .18-2zm-1 6h-5a1 1 0 0 1 0-2h5a1 1 0 0 1 0 2zm-19 3h-3v-13h3zm9.07.8c-4.21-3.15-3.07-2.8-7.07-2.8v-9c2.1 0 3.15.18 4.2-.7 4.86-4.05 4.8-4.23 5.54-3.93 2.52 1 3.26 1.08 3.26 2v5.63a1 1 0 0 1 -2 0v-3a1 1 0 0 0 -2 0c0 2.94-.21 3.9.78 5a3 3 0 0 0 0 4 2.93 2.93 0 0 0 -.6 3c-1.58 0-1.77.06-2.11-.2zm5.93 8.2v-6h2v6zm3-8h-4a1 1 0 0 1 0-2h4a1 1 0 0 1 0 2zm1-12h-2v-2h2a1 1 0 0 1 0 2zm-3.89-5.43c-.11-.07-.11.43-.11-4.57h2c0 9.1.38 5.48-1.89 4.57zm10.89-7.57h-1.38c-1.08-2.15-.76-2-2.62-2-.55 0-.47.06-3.41 3h-4.81l-.62-2.49a2 2 0 0 0 -1.94-1.51 14.83 14.83 0 0 0 -5 .87 11.4 11.4 0 0 1 9.32-4.87c2.87 0 3-.09 3.34.29 2.6 2.61 2.57 2.71 3.12 2.71 1.85 0 1.56.11 2.62-2h1.38z"/></g></svg>