<svg height="512" viewBox="0 0 48 48" width="512" xmlns="http://www.w3.org/2000/svg"><g id="_18._Hammer_and_Wrench_Cross" data-name="18. Hammer and Wrench Cross"><path d="m44.93 44.86-1.78 1.77a1.25 1.25 0 0 1 -1.77 0l-26.65-26.63 3.54-3.55 26.66 26.64a1.25 1.25 0 0 1 0 1.77z" fill="#a87e6b"/><path d="m44.31 42.47a2.89 2.89 0 0 1 -4.09 0l-24-24 2-2.05z" fill="#be927c"/><path d="m24.47 8.46c-2 2-1.48 1.86-4.43.88l-.88.89v5.32l-5.32 5.31c-3.91-2.34-3.77-2.33-4.23-2.33a1.26 1.26 0 0 0 -.89.37 18.26 18.26 0 0 0 -4.63 8.17 15.47 15.47 0 0 1 3.14-17.32c3.68-3.68 2.27-3.07 8.38-3.07l.89-.88c-1-3-1.12-2.44.89-4.43a1.25 1.25 0 0 1 1.77 0l5.31 5.31a1.26 1.26 0 0 1 0 1.78z" fill="#dad7e5"/><path d="m23.77 6a1.22 1.22 0 0 1 -.3.48c-2 2-1.43 1.87-4.43.88l-.88.89v5.32l-4.22 4.21c-2.2 2.2-4.58-2.5-6.22-.86a17.81 17.81 0 0 0 -4.49 7.76 15.47 15.47 0 0 1 4-14.91c3.67-3.67 2.26-3.07 8.38-3.07l.89-.88c-1-3-1.12-2.44.89-4.43a1.25 1.25 0 0 1 1.77 0z" fill="#edebf2"/><path d="m36.78 14.82a4 4 0 0 1 3.22-1.1 6.39 6.39 0 0 0 6.56-8.72l-3.24 3.28-2.71-.9-.9-2.71 3.29-3.24a6.4 6.4 0 0 0 -8.68 6.74 3.64 3.64 0 0 1 -1.1 3l-22 22a3.64 3.64 0 0 1 -3 1.1 6.4 6.4 0 0 0 -6.79 8.73l3.24-3.24 2.71.9.9 2.71-3.28 3.19a6.39 6.39 0 0 0 8.72-6.56 4 4 0 0 1 1.1-3.17z" fill="#dad7e5"/><path d="m44.85 6.75a6.37 6.37 0 0 1 -6.9 5 4 4 0 0 0 -3.17 1.1l-22 22a4 4 0 0 0 -1.06 3.15 6.37 6.37 0 0 1 -5 6.9l1.53-1.53-.9-2.71-2.71-.9-3.21 3.24a6.41 6.41 0 0 1 6.74-8.68 3.64 3.64 0 0 0 3-1.1l22-22a3.64 3.64 0 0 0 1.1-3 6.42 6.42 0 0 1 8.73-6.79l-3.29 3.24c.5 1.52.3.91.9 2.71l2.71.9z" fill="#edebf2"/><path d="m39.85 14.72a7.39 7.39 0 0 0 7.63-10 1 1 0 0 0 -1.63-.33l-2.85 2.75-1.6-.55-.55-1.65 2.8-2.8a1 1 0 0 0 -.34-1.64 7.4 7.4 0 0 0 -10 7.8c.21 1.64-.1 1.48-10.17 11.55-3.93-3.92-3.5-3.35-3.25-3.6.4-.39.3-.26.3-5.61.21-.21-.06-.23 1.49.29s2.38-.61 3.53-1.77a2.25 2.25 0 0 0 0-3.18l-5.35-5.32a2.3 2.3 0 0 0 -3.18 0c-2 2.05-2.3 1.95-1.33 4.87-.22.22.4.15-4 .15-1.89 0-2.64 1.17-4.82 3.32a16.52 16.52 0 0 0 -3.35 18.48 1 1 0 0 0 .91.59c1.74 0 .74-3.87 5.33-8.47.2-.19.12-.15 3.91 2.12a1 1 0 0 0 1.22-.15c.25-.26-.32-.67 3.6 3.24l-7.65 7.65a2.66 2.66 0 0 1 -2.21.82 7.4 7.4 0 0 0 -7.79 10 1 1 0 0 0 .73.61c.71.15.75-.11 3.71-3.07l1.65.55.55 1.65c-3 3-3.22 3-3.08 3.71a1 1 0 0 0 .61.72 7.38 7.38 0 0 0 10.05-7.63 2.9 2.9 0 0 1 .8-2.36l7.65-7.65c18.97 18.99 17.83 18.19 19.1 18.19s1.76-.84 3.37-2.43a2.26 2.26 0 0 0 0-3.19l-17.51-17.5 9.36-9.36a2.91 2.91 0 0 1 2.36-.8zm-29.09 3.13a2.25 2.25 0 0 0 -2.76.34 18.28 18.28 0 0 0 -3.9 5.81 14.57 14.57 0 0 1 3.84-13.55c3.39-3.39 1.84-2.77 7.67-2.77.54 0 .7-.28 1.6-1.17.54-.55.26-1-.4-2.95-.07-.2-.06-.15 1.28-1.49.27-.27-.05-.41 5.68 5.32.24.24 0 .36-1.23 1.58-.16.16-.16.1-2.18-.58-.69-.23-1 .23-1.91 1.13-.39.4-.29.26-.29 5.61l-4.47 4.47zm5.38 2.15 2.13-2.13 3.42 3.42-2.13 2.11zm28.08 24.15c-1.85 1.84-1.89 2-2.13 1.77l-17.5-17.5 2.13-2.13c18.53 18.54 17.78 17.59 17.5 17.86zm-30.11-8.08a4.9 4.9 0 0 0 -1.38 4 5.4 5.4 0 0 1 -5.73 5.93c2.85-2.84 2.61-1.79 1.31-5.7-.21-.63-.54-.6-3.34-1.53-.75-.25-.93.14-3 2.19a5.4 5.4 0 0 1 6-5.69 4.62 4.62 0 0 0 3.86-1.38l22-22a4.65 4.65 0 0 0 1.39-3.85 5.38 5.38 0 0 1 5.78-6.04c-2.81 2.81-2.59 1.77-1.29 5.69.21.63.53.6 3.34 1.53.75.25 1-.19 3-2.21a5.39 5.39 0 0 1 -5.94 5.71 4.87 4.87 0 0 0 -4 1.38z"/></g></svg>