<svg height="512" viewBox="0 0 48 48" width="512" xmlns="http://www.w3.org/2000/svg"><g id="_19._Hand_fist_up" data-name="19. Hand fist up"><path d="m33 5c0 9.16.14 8.83-.4 9.53-3.1 4.14-2.6 2.65-2.6 7.47h-11c0-3.41.14-3.84-.47-4.57-3-3.64-3.66-4.39-3.77-4.51a2 2 0 0 1 -.32-2 19 19 0 0 1 1.25-3 1.92 1.92 0 0 1 1.31-.92v-3a2 2 0 0 1 3.41-1.41 2 2 0 0 1 .59 1.41v-1a2 2 0 0 1 3.41-1.41c.74.72.59 1.58.59 2.41a2 2 0 0 1 3.41-1.41c.74.72.59 1.58.59 2.41a2 2 0 0 1 3.41-1.41 2 2 0 0 1 .59 1.41z" fill="#f6ccaf"/><path d="m33 12.46c0 1 .07 1.46-.4 2.07-2.91 3.89-2.6 3-2.6 5.47h-9c0-2.12.15-2.82-.47-3.57-3-3.64-3.66-4.39-3.77-4.51a2 2 0 0 1 -.32-2c1.09-2.7 1.09-2.73 1.19-2.89 5.55 0 6-.2 6.78.59a2 2 0 0 1 -.91 3.34c-.32.1-.32.07-3.5.07a1 1 0 0 0 0 2c7.35 0 7.74.19 9-.56a3.9 3.9 0 0 0 4-.01z" fill="#f6ccaf"/><path d="m24.05 1.31a4.66 4.66 0 0 0 -1.05 3.69c-6.23 0-5.69 0-6 0v-.89a2.08 2.08 0 0 1 1.82-2.11 2 2 0 0 1 2.18 2v-1a2 2 0 0 1 3.05-1.69z" fill="#ffdec7"/><path d="m17 22h15v5h-15z" fill="#6fabe6"/><path d="m32 22v3h-9a3 3 0 0 1 -3-3z" fill="#82bcf4"/><path d="m17 27h15v20h-15z" fill="#db5669"/><path d="m32 27c0 18.76-.1 18 0 18a12 12 0 0 1 -12-12v-6z" fill="#f26674"/><g fill="#ffdec7"><path d="m24.05 1.31c1.24.69.95 2.21.95 4.23-1.14-.68-2.08-.54-4-.54v-2a2 2 0 0 1 3.05-1.69z"/><path d="m27 2a2 2 0 0 1 2 2v5a2 2 0 0 1 -2 2c-1 0 0-.15 0-2a3.94 3.94 0 0 0 -2-3.46v-1.54a2 2 0 0 1 2-2z"/><path d="m31 3a2 2 0 0 1 2 2v4a2 2 0 0 1 -4 0v-4a2 2 0 0 1 2-2z"/><path d="m25 9v-5a2 2 0 0 1 4 0v5a2 2 0 0 1 -4 0z"/><path d="m23.5 10.93c-.63-1.13-.5-2-.5-3.93a2 2 0 0 1 .5 3.93z"/><path d="m29 9v-4a2 2 0 0 1 4 0v4a2 2 0 0 1 -4 0z"/><path d="m29 12.44c-1.26.75-1.52.56-9 .56a1 1 0 0 1 0-2h3a2 2 0 0 0 0-4c-5.72 0-5-.09-5.5.26-.88 2.17-1.8 3.44-.67 4.74 4 4.74 4.17 4.75 4.17 5.72v1.28a1 1 0 0 0 1 1h8c0-2.44-.35-1.53 2.6-5.47a3 3 0 0 0 .4-2.07 3.9 3.9 0 0 1 -4-.02z"/></g><path d="m29.53 2.4a3 3 0 0 0 -4-1 3 3 0 0 0 -5.06 0 3 3 0 0 0 -4.47 2.6v2.32a3 3 0 0 0 -1.43 1.57c-.89 2.2-2 3.94-.57 5.67 4 4.8 4 4.65 4 5.16v2.28h-1a1 1 0 0 0 -1 1v25a1 1 0 0 0 2 0v-19h13v19a1 1 0 0 0 2 0v-25a1 1 0 0 0 -1-1h-1c0-2.5-.07-2.58.2-2.93 3.53-4.7 2.8-2.17 2.8-13.07a3 3 0 0 0 -4.47-2.6zm2.47 2.6v4a1 1 0 0 1 -2 0v-4a1 1 0 0 1 2 0zm-4-1v5a1 1 0 0 1 -2 0v-5a1 1 0 0 1 2 0zm-6-1a1 1 0 0 1 1.71-.69c.37.36.29.37.29 3.87a5.11 5.11 0 0 0 -2-.18zm-2 1v2h-2v-2a1 1 0 0 1 2 0zm-2 22v-3h13v3zm13.8-12.07c-3.15 4.21-2.8 3.12-2.8 7.07h-9c0-2.1.18-3.15-.7-4.2-4.05-4.86-4.23-4.79-3.93-5.54 1-2.52 1.08-3.26 2-3.26h5.63a1 1 0 0 1 0 2h-3a1 1 0 0 0 0 2c2.94 0 3.9.21 5-.78a3 3 0 0 0 4 0 2.93 2.93 0 0 0 3 .6c0 1.58.06 1.77-.2 2.11z"/></g></svg>