<svg height="512" viewBox="0 0 48 48" width="512" xmlns="http://www.w3.org/2000/svg"><g id="_2._Safety_Vest" data-name="2. Safety Vest"><path d="m43 23v24c-18.21 0-15.32.22-18-.67-1.2-.4-.74-.42-2 0-2.68.89.18.67-18 .67v-24c6.91-6.91 6-14.49 6-21l7-1a36.34 36.34 0 0 0 12 0l7 1c0 7.11-.84 14.16 6 21z" fill="#f16f39"/><path d="m43 23v22c-17.27 0-14 .33-18-1-2.47.82-2.81 1-3.65 1a13.35 13.35 0 0 1 -13.35-13.35v-8.65c6.91-6.91 6-14.4 6-21.43l4-.57a36.34 36.34 0 0 0 12 0l7 1c0 7.11-.84 14.16 6 21z" fill="#f8834b"/><path d="m5 38h15v4h-15z" fill="#fc6"/><path d="m20 38v2h-10a2 2 0 0 1 -2-2z" fill="#ffde76"/><path d="m28 42h15v-4h-15z" fill="#fc6"/><path d="m20 32h-15v-4h15z" fill="#fc6"/><path d="m28 32h15v-4h-15z" fill="#fc6"/><g fill="#f16f39"><path d="m23 27v-10a1 1 0 0 1 2 0v10a1 1 0 0 1 -2 0z"/><path d="m23 37v-4a1 1 0 0 1 2 0v4a1 1 0 0 1 -2 0z"/><path d="m25 43v3.33c-1.2-.4-.74-.42-2 0v-3.33a1 1 0 0 1 2 0z"/></g><path d="m20 28v2h-10a2 2 0 0 1 -2-2z" fill="#ffde76"/><path d="m43 38v2h-10a2 2 0 0 1 -2-2z" fill="#ffde76"/><path d="m43 28v2h-10a2 2 0 0 1 -2-2z" fill="#ffde76"/><path d="m30 1-.62 8.63a8.6 8.6 0 0 1 -5.38 7.37 8.59 8.59 0 0 1 -5.38-7.37l-.62-8.63a36.61 36.61 0 0 0 12 0z" fill="#f16f39"/><path d="m28 43h-8v-6h8z" fill="#374f68"/><path d="m20 27h8v6h-8z" fill="#374f68"/><path d="m28 27v4h-2a4 4 0 0 1 -4-4z" fill="#425b72"/><path d="m28 37v4h-2a4 4 0 0 1 -4-4z" fill="#425b72"/><path d="m43.71 22.29c-9.54-9.53-3.55-20.85-6.57-21.29-5.09-.73-7.07-1-7.3-1a35.56 35.56 0 0 1 -11.84 0c-.29 0 .8-.15-7.18 1-3 .43 2.9 11.82-6.57 21.28-.39.44-.25-1.42-.25 24.72a1 1 0 0 0 1 1c18.1 0 15.32.28 19-1 3.76 1.26 1 1 19 1a1 1 0 0 0 1-1c0-26.28.13-24.29-.29-24.71zm-22.71 19.71v-4h6v4zm-15-9h13a1 1 0 0 0 1 1h3v2h-3a1 1 0 0 0 -1 1h-13zm0-4h13v2h-13zm21-1v4h-6v-4zm2 1h13v2h-13zm-23 10h13v2h-13zm23 0h13v2h-13zm0-2a1 1 0 0 0 -1-1h-3v-2h3a1 1 0 0 0 1-1h13v4zm13-13.59v3.59h-13a1 1 0 0 0 -1-1h-3v-8.38a9.64 9.64 0 0 0 5.38-7.92l.54-7.56 5.08.73v5.64a21.36 21.36 0 0 0 6 14.9zm-13.09-21.24-.52 7.39a7.65 7.65 0 0 1 -4.39 6.35 7.65 7.65 0 0 1 -4.39-6.35l-.52-7.39a36.69 36.69 0 0 0 9.82 0zm-16.91.7 5.08-.73.54 7.56a9.64 9.64 0 0 0 5.38 7.92v8.38h-3a1 1 0 0 0 -1 1h-13v-3.59c6.72-6.98 6-14.16 6-20.54zm-6 43.13v-3h13a1 1 0 0 0 1 1h3v1.28c-2.81.94 0 .72-17 .72zm19-.72v-1.28h3a1 1 0 0 0 1-1h13v3c-17.06 0-14.11.24-17-.72z"/></g></svg>