<svg height="512" viewBox="0 0 48 48" width="512" xmlns="http://www.w3.org/2000/svg"><g id="_20._Brush_paint" data-name="20. Brush paint"><path d="m12 33h24v14h-24z" fill="#fc6"/><path d="m36 33v12h-9a12 12 0 0 1 -12-12z" fill="#ffde76"/><path d="m11 27h26v6h-26z" fill="#dad7e5"/><path d="m37 27v4h-19a4 4 0 0 1 -4-4z" fill="#edebf2"/><path d="m36 27v-3.61a2 2 0 0 0 -1.3-1.88l-4.64-1.74a3 3 0 0 1 -1.94-3l.6-10.77a4.73 4.73 0 1 0 -9.44 0l.6 10.81a3 3 0 0 1 -1.94 3l-4.64 1.7a2 2 0 0 0 -1.3 1.88v3.61z" fill="#a87e6b"/><path d="m36 25h-21.39c-1 0-.73-1.94.69-2.49l4.64-1.74a3 3 0 0 0 1.94-3c-.4-7.18-.61-10.94-.61-11.08a4.72 4.72 0 0 1 5.8-4.59 4.7 4.7 0 0 1 1.65 3.9l-.6 10.81a3 3 0 0 0 1.94 3c6.34 2.35 5.94 1.74 5.94 5.19z" fill="#be927c"/><path d="m37 26v-2.61a3 3 0 0 0 -2-2.81l-4.63-1.74a2 2 0 0 1 -1.3-2l.6-10.8a5.66 5.66 0 0 0 -1.56-4.26 5.74 5.74 0 0 0 -9.88 4.26l.6 10.8a2 2 0 0 1 -1.3 2l-4.53 1.74a3 3 0 0 0 -2 2.81v2.61a1 1 0 0 0 -1 1v6a1 1 0 0 0 1 1v13a1 1 0 0 0 1 1h24a1 1 0 0 0 1-1v-13a1 1 0 0 0 1-1v-6a1 1 0 0 0 -1-1zm-25 2h24v4h-24zm1-4.61a1 1 0 0 1 .65-.94l4.64-1.74a4 4 0 0 0 2.59-4l-.6-10.8a3.73 3.73 0 1 1 7.44 0l-.6 10.8a4 4 0 0 0 2.59 4l4.64 1.74a1 1 0 0 1 .65.94v2.61h-22zm22 22.61h-2v-4a1 1 0 0 0 -2 0v4h-2v-7a1 1 0 0 0 -2 0v7h-2v-4a1 1 0 0 0 -2 0v4h-2v-7a1 1 0 0 0 -2 0v7h-2v-4a1 1 0 0 0 -2 0v4h-2v-12h22z"/><path d="m24.71 5.29a1 1 0 1 0 .21 1.09 1 1 0 0 0 -.21-1.09z"/></g></svg>