<svg height="512" viewBox="0 0 48 48" width="512" xmlns="http://www.w3.org/2000/svg"><g id="_22._Gear" data-name="22. Gear"><g fill="#7c7d7d"><path d="m14 7.68c-.75 0-.81-.41-2.37-3.1a1 1 0 0 1 1.74-1l1.5 2.6a1 1 0 0 1 -.87 1.5z"/><path d="m11.14 9.68c-.6 0-.63-.2-2.69-2.66a1 1 0 0 1 1.55-1.28l1.91 2.26a1 1 0 0 1 -.77 1.68z"/><path d="m8.68 12.14c-.49 0-.44-.06-2.94-2.16a1 1 0 0 1 1.26-1.53l2.3 1.93a1 1 0 0 1 -.62 1.76z"/><path d="m6.68 15c-.36 0-.24 0-3.1-1.63a1 1 0 0 1 1-1.74l2.6 1.5a1 1 0 0 1 -.5 1.87z"/><path d="m5.21 18.16c-.26 0-.17 0-3.17-1.09a1 1 0 0 1 .69-1.88l2.82 1a1 1 0 0 1 -.34 1.97z"/><path d="m4.3 21.53c-.13 0 0 0-3.12-.54a1 1 0 0 1 .34-2l3 .52a1 1 0 0 1 -.22 2.02z"/><path d="m4 25h-3a1 1 0 0 1 0-2h3a1 1 0 0 1 0 2z"/><path d="m1.35 29a1 1 0 0 1 -.17-2l3-.52a1 1 0 0 1 .35 2c-3.25.52-3.06.52-3.18.52z"/><path d="m2.39 32.87a1 1 0 0 1 -.39-1.94l2.82-1a1 1 0 0 1 .69 1.88c-3.13 1.12-2.89 1.06-3.12 1.06z"/><path d="m4.08 36.5a1 1 0 0 1 -.5-1.87l2.6-1.5a1 1 0 0 1 1 1.74c-2.86 1.64-2.74 1.63-3.1 1.63z"/><path d="m6.38 39.78a1 1 0 0 1 -.64-1.78l2.26-1.91a1 1 0 0 1 1.28 1.53c-2.45 2.09-2.42 2.16-2.9 2.16z"/><path d="m9.22 42.62a1 1 0 0 1 -.77-1.62l1.93-2.3a1 1 0 0 1 1.53 1.3c-2.05 2.41-2.08 2.62-2.69 2.62z"/><path d="m12.5 44.92a1 1 0 0 1 -.87-1.5l1.5-2.6a1 1 0 0 1 1.74 1c-1.56 2.7-1.62 3.1-2.37 3.1z"/><path d="m16.13 46.61a1 1 0 0 1 -.94-1.34l1-2.82a1 1 0 0 1 1.88.69c-.98 2.76-1 3.47-1.94 3.47z"/><path d="m19 46.48.52-3a1 1 0 0 1 2 .35l-.52 3a1 1 0 0 1 -2-.35z"/><path d="m23 47v-3a1 1 0 0 1 2 0v3a1 1 0 0 1 -2 0z"/><path d="m27 46.82-.52-3a1 1 0 0 1 2-.35l.52 3a1 1 0 0 1 -2 .35z"/><path d="m31.87 46.61c-.91 0-.94-.65-2-3.47a1 1 0 0 1 1.88-.69l1 2.82a1 1 0 0 1 -.88 1.34z"/><path d="m35.5 44.92c-.75 0-.81-.41-2.37-3.1a1 1 0 0 1 1.74-1l1.5 2.6a1 1 0 0 1 -.87 1.5z"/><path d="m38.78 42.62c-.6 0-.63-.2-2.69-2.66a1 1 0 0 1 1.53-1.28l1.93 2.32a1 1 0 0 1 -.77 1.62z"/></g><path d="m23 4v-3a1 1 0 0 1 2 0v3a1 1 0 0 1 -2 0z" fill="#919191"/><path d="m19.54 4.48-.52-3a1 1 0 0 1 2-.34l.52 3a1 1 0 0 1 -2 .34z" fill="#919191"/><path d="m17.16 6.21c-.91 0-.94-.66-2-3.48a1 1 0 0 1 1.91-.73l1 2.82a1 1 0 0 1 -.91 1.39z" fill="#919191"/><path d="m41.62 39.78c-.49 0-.44-.06-2.94-2.16a1 1 0 0 1 1.32-1.53l2.26 1.91a1 1 0 0 1 -.64 1.78z" fill="#919191"/><path d="m43.92 36.5c-.36 0-.24 0-3.1-1.63a1 1 0 0 1 1-1.74l2.6 1.5a1 1 0 0 1 -.5 1.87z" fill="#919191"/><path d="m45.61 32.87c-.25 0-.16 0-3.16-1.09a1 1 0 0 1 .69-1.88l2.82 1a1 1 0 0 1 -.35 1.97z" fill="#919191"/><path d="m46.65 29c-.14 0 0 0-3.13-.53a1 1 0 0 1 .35-2l3 .52a1 1 0 0 1 -.22 2.01z" fill="#919191"/><path d="m47 25h-3a1 1 0 0 1 0-2h3a1 1 0 0 1 0 2z" fill="#919191"/><path d="m43.7 21.53a1 1 0 0 1 -.18-2l3-.52a1 1 0 0 1 .34 2c-3.23.54-3.04.52-3.16.52z" fill="#919191"/><path d="m42.79 18.16a1 1 0 0 1 -.34-1.94l2.82-1a1 1 0 0 1 .73 1.85c-3.21 1.16-3 1.09-3.21 1.09z" fill="#919191"/><path d="m41.32 15a1 1 0 0 1 -.5-1.87l2.6-1.5a1 1 0 0 1 1 1.74c-2.86 1.63-2.74 1.63-3.1 1.63z" fill="#919191"/><path d="m39.32 12.14a1 1 0 0 1 -.64-1.76l2.32-1.93a1 1 0 0 1 1.26 1.55c-2.49 2.07-2.46 2.14-2.94 2.14z" fill="#919191"/><path d="m36.86 9.68a1 1 0 0 1 -.77-1.68l1.91-2.26a1 1 0 0 1 1.55 1.26c-2.05 2.47-2.08 2.68-2.69 2.68z" fill="#919191"/><path d="m34 7.68a1 1 0 0 1 -.87-1.5l1.5-2.6a1 1 0 0 1 1.74 1c-1.56 2.7-1.62 3.1-2.37 3.1z" fill="#919191"/><path d="m30.84 6.21a1 1 0 0 1 -.94-1.35l1-2.82a1 1 0 0 1 1.88.69c-.98 2.77-1.01 3.48-1.94 3.48z" fill="#919191"/><path d="m26.49 4.13.51-2.95a1 1 0 0 1 2 .34l-.52 3a1 1 0 0 1 -1.99-.39z" fill="#919191"/><path d="m44 24a20 20 0 1 1 -29.53-17.58 20 20 0 0 1 29.53 17.58z" fill="#7c7d7d"/><path d="m44 24a19.92 19.92 0 0 1 -7.47 15.58 19.89 19.89 0 0 1 -9.53 2.42c-18.9 0-27.15-23.85-12.53-35.58a20 20 0 0 1 29.53 17.58z" fill="#919191"/><path d="m28.46 8.63-1.61 4.83a3 3 0 0 1 -5.7 0l-1.61-4.83a16.1 16.1 0 0 1 8.92 0z" fill="#dad7e5"/><path d="m16.08 20.71a3 3 0 0 1 -3 2.74h-5.1a16 16 0 0 1 2.78-8.45c4 3 5.5 3.54 5.32 5.71z" fill="#dad7e5"/><path d="m16.08 20.71a2.92 2.92 0 0 1 -2 .74h-1c-2.83 0-4.71-3-2.29-6.45 3.97 3 5.47 3.54 5.29 5.71z" fill="#edebf2"/><path d="m11.36 33.81 4.14-3a3 3 0 0 1 4.61 3.35l-1.54 4.86a16.14 16.14 0 0 1 -7.21-5.21z" fill="#dad7e5"/><path d="m29.43 39.06-1.54-4.86a3 3 0 0 1 4.61-3.35l4.14 3a16.14 16.14 0 0 1 -7.21 5.21z" fill="#dad7e5"/><path d="m40 23.49h-5.1a3 3 0 0 1 -1.76-5.49l4.1-3a16.19 16.19 0 0 1 2.76 8.49z" fill="#dad7e5"/><path d="m29 24a5 5 0 1 1 -7.39-4.39 5 5 0 0 1 7.39 4.39z" fill="#dad7e5"/><path d="m28.39 26.39a5 5 0 0 1 -6.78-6.78 5 5 0 0 1 6.78 6.78z" fill="#edebf2"/><path d="m18.42 30.52a2.92 2.92 0 0 1 .1 2.11l-.32 1c-.85 2.69-4.31 3.55-6.84.18 4.04-2.89 5.06-4.13 7.06-3.29z" fill="#edebf2"/><path d="m28.47 31.32a2.93 2.93 0 0 1 2 .56l.86.61c2.29 1.65 2 5.2-1.94 6.57-1.47-4.74-2.34-6.06-.92-7.74z" fill="#edebf2"/><path d="m32.34 22a2.92 2.92 0 0 1 1.17-1.77l.84-.62c2.28-1.68 5.58-.34 5.65 3.87-5-.02-6.53.39-7.66-1.48z" fill="#edebf2"/><path d="m24.68 15.45a2.9 2.9 0 0 1 -1.31-1.65l-.34-1c-.89-2.68 1.4-5.41 5.43-4.17-1.57 4.72-1.66 6.37-3.78 6.82z" fill="#edebf2"/><path d="m30 24a6 6 0 1 0 -6 6 6 6 0 0 0 6-6zm-6 4a4 4 0 1 1 4-4 4 4 0 0 1 -4 4z"/><path d="m20.2 13.78a4 4 0 0 0 7.6 0c1.72-5.17 1.82-5.1 1.55-5.61a1 1 0 0 0 -.61-.5 17.16 17.16 0 0 0 -9.48 0 1 1 0 0 0 -.67 1.33zm7-4.45-1.3 3.81a2 2 0 0 1 -3.8 0l-1.27-3.81a15.39 15.39 0 0 1 6.34 0z"/><path d="m15.45 17.23-4.1-3a1 1 0 0 0 -1.42.25 17.18 17.18 0 0 0 -2.93 9 1 1 0 0 0 1 1h5.1a4 4 0 0 0 2.35-7.25zm-6.38 5.25a15.4 15.4 0 0 1 2-6l3.23 2.39a2 2 0 0 1 -1.17 3.61z"/><path d="m14.92 30-4.14 3a1 1 0 0 0 -.21 1.43 17.14 17.14 0 0 0 7.67 5.57 1 1 0 0 0 .76 0c.51-.25.36-.12 2-5.45a4 4 0 0 0 -6.08-4.55zm4.24 3.86-1.16 3.87a15.22 15.22 0 0 1 -5.19-3.73l3.27-2.33a2 2 0 0 1 3.08 2.23z"/><path d="m33.08 30a4 4 0 0 0 -6.14 4.46c1.64 5.19 1.52 5.19 2 5.45a1 1 0 0 0 .78 0 17.12 17.12 0 0 0 7.67-5.57 1 1 0 0 0 -.17-1.34zm-3 7.69-1.24-3.79a2 2 0 0 1 1.92-2.62c.82 0 .95.24 4.43 2.72a15.39 15.39 0 0 1 -5.14 3.73z"/><path d="m38.07 14.45a1 1 0 0 0 -.66-.43c-.57-.09-.38-.1-4.86 3.21a4 4 0 0 0 2.35 7.22h5.1a1 1 0 0 0 1-1 17.08 17.08 0 0 0 -2.93-9zm-3.16 8a2 2 0 0 1 -1.17-3.61l3.26-2.39a15.31 15.31 0 0 1 2 6z"/><path d="m47 25a1 1 0 0 0 0-2h-2c0-.56-.07-1.11-.14-1.65l2-.36a1 1 0 0 0 -.34-2l-2 .35c-.12-.54-.25-1.08-.42-1.61l1.9-.66a1 1 0 0 0 -.69-1.88l-1.9.7c-.22-.52-.47-1-.72-1.5l1.77-1a1 1 0 0 0 -1-1.74l-1.77 1c-.3-.47-.63-.92-1-1.36l1.57-1.29a1 1 0 0 0 -1.26-1.55l-1.6 1.32q-.57-.6-1.17-1.17l1.32-1.6a1 1 0 0 0 -1.55-1.26l-1.3 1.57c-.44-.33-.89-.66-1.36-1l1-1.77a1 1 0 0 0 -1.74-1l-1 1.77c-.49-.25-1-.5-1.5-.72l.7-1.9a1 1 0 0 0 -1.87-.69l-.69 2c-.53-.17-1.07-.3-1.61-.42l.35-2a1 1 0 0 0 -2-.34l-.36 2c-.54-.07-1.09-.11-1.65-.14v-2.1a1 1 0 0 0 -2 0v2.05c-.56 0-1.11.07-1.65.14l-.36-2a1 1 0 0 0 -2 .34l.35 2c-.54.12-1.08.25-1.61.42l-.63-1.95a1 1 0 0 0 -1.88.69l.7 1.9c-.52.22-1 .47-1.5.72l-1-1.77a1 1 0 0 0 -1.74 1l1 1.77c-.47.3-.92.63-1.36 1l-1.29-1.57a1 1 0 0 0 -1.55 1.26l1.32 1.6q-.6.57-1.17 1.17l-1.6-1.32a1 1 0 0 0 -1.26 1.55l1.57 1.3c-.33.44-.66.89-1 1.36l-1.77-1a1 1 0 0 0 -1 1.74l1.77 1c-.25.49-.5 1-.72 1.5l-1.9-.7a1 1 0 0 0 -.69 1.87l2 .69c-.17.53-.3 1.07-.42 1.61l-2-.35a1 1 0 0 0 -.34 2l2 .36c-.07.54-.11 1.09-.14 1.65h-2.1a1 1 0 0 0 0 2h2.05c0 .56.07 1.11.14 1.65l-2 .36a1 1 0 0 0 .34 2l2-.35c.12.54.25 1.08.42 1.61l-1.95.63a1 1 0 0 0 .69 1.88l1.9-.7c.22.52.47 1 .72 1.5l-1.77 1a1 1 0 0 0 1 1.74l1.77-1c.3.47.63.92 1 1.36l-1.57 1.29a1 1 0 0 0 1.26 1.55l1.6-1.32q.57.6 1.17 1.17l-1.32 1.6a1 1 0 0 0 1.55 1.26l1.32-1.57c.44.33.89.66 1.36 1l-1 1.77a1 1 0 0 0 1.74 1l1-1.77c.49.25 1 .5 1.5.72l-.7 1.9a1 1 0 0 0 1.88.69l.69-1.91c.53.17 1.07.3 1.61.42l-.35 2a1 1 0 0 0 2 .34l.36-2c.54.07 1.09.11 1.65.14v2a1 1 0 0 0 2 0v-1.99c.56 0 1.11-.07 1.65-.14l.36 2a1 1 0 0 0 2-.34l-.35-2c.54-.12 1.08-.25 1.61-.42l.6 1.9a1 1 0 0 0 1.88-.69l-.7-1.9c.52-.22 1-.47 1.5-.72l1 1.77a1 1 0 0 0 1.74-1l-1-1.77c.47-.3.92-.63 1.36-1l1.29 1.57a1 1 0 0 0 1.55-1.26l-1.32-1.6q.6-.57 1.17-1.17l1.6 1.32a1 1 0 0 0 1.26-1.55l-1.57-1.3c.33-.44.66-.89 1-1.36l1.77 1a1 1 0 0 0 1-1.74l-1.77-1c.25-.49.5-1 .72-1.5l1.9.7a1 1 0 0 0 .69-1.87l-1.91-.69c.17-.53.3-1.07.42-1.61l2 .35a1 1 0 0 0 .34-2l-2-.36c.07-.54.11-1.09.14-1.65zm-23 18a19 19 0 1 1 19-19 19 19 0 0 1 -19 19z"/></g></svg>