<svg height="512" viewBox="0 0 48 48" width="512" xmlns="http://www.w3.org/2000/svg"><g id="_23._Wrench" data-name="23. Wrench"><path d="m46.54 6.06-4.1 4.09-3.07-1.54c-.84-1.67-.5-1-1.54-3.07l4.09-4.09a7.61 7.61 0 0 0 -10.14 7.82 4.43 4.43 0 0 1 -1.24 3.56l-17.73 17.72a4.5 4.5 0 0 1 -3.61 1.24 7.61 7.61 0 0 0 -7.11 11.51c4 6.91 14.79 3.41 14.09-4.57a4.46 4.46 0 0 1 1.25-3.56l17.72-17.73a4.51 4.51 0 0 1 3.57-1.24 7.62 7.62 0 0 0 7.82-10.14zm-40.25 31 3.15-.85 2.31 2.31-.84 3.15-3.16.85-2.3-2.31z" fill="#dad7e5"/><path d="m42.44 10.15-3.07-1.54c-.84-1.67-.5-1-1.54-3.07l4.09-4.09a7.62 7.62 0 0 0 -10.14 7.82 4.43 4.43 0 0 1 -1.24 3.56l-17.73 17.72a4.5 4.5 0 0 1 -3.61 1.24c-5.37-.44-9.1 4.74-8.07 8.86a7.57 7.57 0 0 0 1.21 3.05 7.62 7.62 0 0 0 11.84-7 4.46 4.46 0 0 1 1.25-3.56l17.72-17.7a4.51 4.51 0 0 1 3.57-1.24 7.6 7.6 0 0 0 8.18-6.5zm-31.53 31.54-3.16.85-2.3-2.31.84-3.15 3.15-.85 2.31 2.31z" fill="#edebf2"/><path d="m47.48 5.72a1 1 0 0 0 -1.65-.37l-3.58 3.59-2.14-1.07-1.11-2.13 3.59-3.59a1 1 0 0 0 -.33-1.65 8.61 8.61 0 0 0 -11.47 8.85 3.48 3.48 0 0 1 -1 2.77l-17.68 17.72a3.51 3.51 0 0 1 -2.83 1 8.53 8.53 0 0 0 -7 2.68 8.62 8.62 0 1 0 14.86 5.17 3.49 3.49 0 0 1 .95-2.77l17.77-17.77a3.43 3.43 0 0 1 2.77-.95 8.61 8.61 0 0 0 8.85-11.48zm-3.48 7.57c-3.61 3.61-6.48.33-9.59 3.45l-17.69 17.72a5.44 5.44 0 0 0 -1.53 4.36 6.61 6.61 0 1 1 -6.07-6 5.57 5.57 0 0 0 4.4-1.53l17.73-17.76c3.06-3.06-.12-6 3.44-9.59a6.5 6.5 0 0 1 5.24-1.94l-2.81 2.83c-.63.64-.26 1 1.35 4.23.21.42.3.37 3.53 2 .84.42 1.1-.14 4-3a6.5 6.5 0 0 1 -2 5.23z"/><path d="m10.15 35.52c-.55-.55-.94-.26-4.12.59-.75.2-.69.63-1.55 3.86-.2.75.21.92 2.57 3.27a1 1 0 0 0 1 .26c3.22-.86 3.66-.81 3.86-1.55.87-3.23 1.13-3.57.59-4.12zm-.06 5.35-2 .55-1.53-1.49.55-2 2-.54 1.5 1.49z"/></g></svg>