<svg height="512" viewBox="0 0 48 48" width="512" xmlns="http://www.w3.org/2000/svg"><g id="_25._Wrenches" data-name="25. Wrenches"><path d="m38.73 31.82a4.46 4.46 0 0 1 -3.56-1.25l-17.73-17.72a4.51 4.51 0 0 1 -1.24-3.57 7.62 7.62 0 0 0 -10.14-7.82l4.09 4.1c-1 2.09-.7 1.4-1.54 3.07l-3.07 1.54-4.09-4.09a7.6 7.6 0 0 0 7.82 10.14 4.43 4.43 0 0 1 3.56 1.24l17.72 17.73a4.5 4.5 0 0 1 1.24 3.61c-.71 8.81 12.08 11.62 14.88 2.82a7.61 7.61 0 0 0 -7.94-9.8zm-.19 4.43 3.15.84.85 3.16-2.31 2.3-3.15-.84-.85-3.15z" fill="#dad7e5"/><path d="m38.73 31.82a4.46 4.46 0 0 1 -3.56-1.25l-17.73-17.72a4.51 4.51 0 0 1 -1.24-3.57 7.62 7.62 0 0 0 -10.14-7.82l4.09 4.1c-1 2.09-.7 1.4-1.54 3.07l-3.07 1.54-2.45-2.45a7.59 7.59 0 0 0 8.18 6.5 4.43 4.43 0 0 1 3.56 1.24l17.72 17.73a4.5 4.5 0 0 1 1.24 3.61 7.62 7.62 0 0 0 11.91 6.86 7.62 7.62 0 0 0 -6.97-11.84zm1.5 10.73-3.15-.84-.85-3.15 2.31-2.31 3.15.84.85 3.16z" fill="#edebf2"/><path d="m44.79 13.85c-3.88 3.88-6.86.76-9.48 3.41-10.84 10.83-6.69 6.68-18 18.05a4.38 4.38 0 0 0 -1.31 3.52 7.53 7.53 0 0 1 -10 7.73l4.05-4.05-1.52-3-1.33-.7-1.71-.81-4.05 4a7.52 7.52 0 0 1 7.73-10 4.38 4.38 0 0 0 3.52-1.23c10.84-10.83 6.69-6.68 18-18a4.38 4.38 0 0 0 1.31-3.6 7.53 7.53 0 0 1 10-7.73l-4 4.05.8 1.71.66 1.33 3 1.52c2.22-2.18 1.96-1.91 4.1-4.05a7.5 7.5 0 0 1 -1.77 7.85z" fill="#dad7e5"/><path d="m44.91 7.65a7.53 7.53 0 0 1 -8.08 6.35 4.38 4.38 0 0 0 -3.52 1.23c-10.84 10.83-6.69 6.68-18.05 18.05a4.38 4.38 0 0 0 -1.26 3.55 7.53 7.53 0 0 1 -6.38 8.08l2.4-2.4-1.52-3-1.3-.7-1.71-.81-4.05 4a7.49 7.49 0 0 1 1.77-7.85c3.88-3.88 6.86-.76 9.48-3.41 10.84-10.83 6.69-6.68 18-18a4.38 4.38 0 0 0 1.31-3.57 7.54 7.54 0 0 1 10-7.73l-4 4.05.8 1.71.66 1.33 3 1.52z" fill="#edebf2"/><path d="m45.48 33.31a8.63 8.63 0 0 0 -6.83-2.49 3.43 3.43 0 0 1 -2.77-1l-5.88-5.82 6-6a3.44 3.44 0 0 1 2.74-1 8.52 8.52 0 0 0 8.76-11.33 1 1 0 0 0 -.72-.67c-.71-.17-.67 0-4.46 3.8l-2.1-1-1-2.1c3.79-3.79 4-3.74 3.8-4.46a1 1 0 0 0 -.69-.74 8.52 8.52 0 0 0 -11.33 8.76 3.4 3.4 0 0 1 -1 2.74l-6 6-5.87-5.85a3.54 3.54 0 0 1 -.95-2.78 8.62 8.62 0 0 0 -11.46-8.85 1 1 0 0 0 -.64.72c-.17.77.18.84 3.85 4.52l-1.06 2.12-2.13 1.12c-3.84-3.89-3.74-4.06-4.51-3.9a1 1 0 0 0 -.72.64 8.62 8.62 0 0 0 8.85 11.48 3.41 3.41 0 0 1 2.76 1l5.88 5.78-6 6a3.4 3.4 0 0 1 -2.74 1 8.52 8.52 0 0 0 -8.76 11.33 1 1 0 0 0 .72.64c.71.17.67 0 4.46-3.8l2.1 1 1 2.1c-3.78 3.84-3.91 3.79-3.78 4.51a1 1 0 0 0 .64.72 8.52 8.52 0 0 0 11.36-8.76 3.4 3.4 0 0 1 1-2.74l6-6 5.89 5.88a3.53 3.53 0 0 1 .94 2.82 8.61 8.61 0 1 0 14.69-5.41zm-31.94-16.56c-3.08-3.07-6 .14-9.6-3.44a6.53 6.53 0 0 1 -1.94-5.24l2.81 2.81c.68.67 1.19.17 4.23-1.36.41-.2.32-.2 2-3.51.43-.85-.13-1.11-3-4a6.61 6.61 0 0 1 7.16 7.19 5.54 5.54 0 0 0 1.53 4.36l5.87 5.86-3.2 3.2zm3 17.85c-3.08 3.08.17 5.92-3.4 9.49a6.46 6.46 0 0 1 -5.14 1.91c2.82-2.82 3.37-3.06 2.95-3.91l-1.53-3.09c-.2-.4-.2-.32-3.49-2-.84-.42-1.11.15-3.91 3a6.53 6.53 0 0 1 7.07-7 5.36 5.36 0 0 0 4.31-1.52l18-18c3.08-3.08-.17-5.92 3.4-9.49a6.46 6.46 0 0 1 5.2-1.99c-2.82 2.82-3.37 3.06-3 3.91l1.58 3.09c.2.4.2.32 3.49 2 .84.42 1.11-.15 3.91-2.95a6.53 6.53 0 0 1 -7.07 7 5.4 5.4 0 0 0 -4.31 1.52zm27.46 9.58a6.63 6.63 0 0 1 -11.17-5.3 5.52 5.52 0 0 0 -1.53-4.4l-5.92-5.88 3.2-3.2 5.88 5.88a5.55 5.55 0 0 0 4.36 1.54 6.62 6.62 0 0 1 5.18 11.36z"/><path d="m42.66 36.83c-.21-.75-.64-.68-3.86-1.55-.76-.2-.92.21-3.28 2.57-.55.55-.27.89.59 4.12.2.75.64.69 3.86 1.55a1 1 0 0 0 1-.26c2.33-2.36 2.73-2.53 2.53-3.26zm-2.73 4.61-2-.55-.54-2 1.49-1.5 2 .55.55 2z"/></g></svg>