<svg height="512" viewBox="0 0 48 48" width="512" xmlns="http://www.w3.org/2000/svg"><g id="_28._Apron_worker" data-name="28. Apron worker"><path d="m40 18v29h-32v-29a8 8 0 0 0 5-7.39v-9.61h5v7h12v-7h5v9.61a8 8 0 0 0 5 7.39z" fill="#6fabe6"/><path d="m40 18v27h-23a6 6 0 0 1 -6-6v-21a8 8 0 0 0 5-7.39v-9.61h2v7h12v-7h5v9.61a8 8 0 0 0 5 7.39z" fill="#82bcf4"/><path d="m17 22h14v4h-14z" fill="#374f68"/><path d="m31 22v2h-10a2 2 0 0 1 -2-2z" fill="#425b72"/><path d="m17 26h14v8h-14z" fill="#374f68"/><path d="m31 26v6h-6a6 6 0 0 1 -6-6z" fill="#425b72"/><path d="m47 31h-1a1 1 0 0 1 -1-1v-4a3 3 0 0 0 -3-3h-1v-5a1 1 0 0 0 -.63-.93 6.93 6.93 0 0 1 -4.37-6.45v-9.62a1 1 0 0 0 -1-1h-5a1 1 0 0 0 -1 1v6h-10v-6a1 1 0 0 0 -1-1h-5a1 1 0 0 0 -1 1v9.62a6.93 6.93 0 0 1 -4.37 6.45 1 1 0 0 0 -.63.93v5h-1a3 3 0 0 0 -3 3v4a1 1 0 0 1 -1 1h-1a1 1 0 0 0 0 2h1a3 3 0 0 0 3-3v-4a1 1 0 0 1 1-1h1v22a1 1 0 0 0 1 1h32a1 1 0 0 0 1-1v-22h1a1 1 0 0 1 1 1v4a3 3 0 0 0 3 3h1a1 1 0 0 0 0-2zm-8 15h-30v-27.35a8.9 8.9 0 0 0 5-8v-8.65h3v6a1 1 0 0 0 1 1h12a1 1 0 0 0 1-1v-6h3v8.62a8.9 8.9 0 0 0 5 8z"/><path d="m31 21h-14a1 1 0 0 0 -1 1v12a1 1 0 0 0 1 1h14a1 1 0 0 0 1-1v-12a1 1 0 0 0 -1-1zm-1 2v2h-12v-2zm-12 10v-6h12v6z"/><path d="m16.29 12.71a1 1 0 1 0 0-1.42 1 1 0 0 0 0 1.42z"/><path d="m31.71 11.29a1 1 0 0 0 -1.63.33 1 1 0 1 0 1.63-.33z"/></g></svg>