<svg height="512" viewBox="0 0 48 48" width="512" xmlns="http://www.w3.org/2000/svg"><g id="_3._Helm_construction" data-name="3. Helm construction"><path d="m44 30v4h-40v-4a20 20 0 0 1 40 0z" fill="#fc6"/><path d="m44 30v2h-33a4 4 0 0 1 -4-4 19.92 19.92 0 0 1 7.47-15.58 20 20 0 0 1 29.53 17.58z" fill="#ffde76"/><path d="m46.12 39.12c-1.26 1.26 1.25.88-42.12.88a3 3 0 0 1 -2.12-5.12c1.26-1.26-1.25-.88 42.12-.88a3 3 0 0 1 2.12 5.12z" fill="#f16f39"/><path d="m46.82 38h-39.82a3 3 0 0 1 -2.82-4h39.82a3 3 0 0 1 2.82 4z" fill="#f8834b"/><path d="m27.92 10.08c-1 25.79-.81 21.25-.92 23.92h-6l-.92-23.92a2 2 0 0 1 2-2.08h3.84a2 2 0 0 1 2 2.08z" fill="#f16f39"/><path d="m27.92 10.08c-.92 23.12-.92 21.92-.84 21.92a4.24 4.24 0 0 1 -4.24-4.08l-.76-19.84c0-.12-.43-.08 3.84-.08a2 2 0 0 1 2 2.08z" fill="#f8834b"/><path d="m13.86 25.78-6.75-7.26a1 1 0 0 1 0-1.37c1-1.12.41-.45 2.91-3.1a1 1 0 0 1 1.62.23c5.25 10.5 4.89 9.75 4.93 9.91a1.61 1.61 0 0 1 -2.71 1.59z" fill="#f16f39"/><path d="m16.57 24.19a1.6 1.6 0 0 1 -1.71-.41c-7.37-7.93-6.86-7.31-6.92-7.52l2.06-2.21a1 1 0 0 1 1.62.23c5.27 10.5 4.91 9.72 4.95 9.91z" fill="#f8834b"/><path d="m40.89 18.52c-7.2 7.74-6.8 7.34-6.93 7.41a1.61 1.61 0 0 1 -2.44-2l4.84-9.68a1 1 0 0 1 1.64-.2l2.91 3.1a1 1 0 0 1 -.02 1.37z" fill="#f16f39"/><path d="m31.43 24.19a1.6 1.6 0 0 0 1.71-.41c7.37-7.93 6.83-7.31 6.92-7.52l-2.06-2.21a1 1 0 0 0 -1.62.23c-5.27 10.5-4.91 9.72-4.95 9.91z" fill="#f8834b"/><path d="m45 33.14c0-4.16.28-8.68-3.17-14.21a2 2 0 0 0 -.21-2.46l-2.91-3.11a2 2 0 0 0 -2.41-.36 20.83 20.83 0 0 0 -7.41-3.4 3 3 0 0 0 -.81-1.67c-1.08-1.19-2.08-.93-6-.93a3 3 0 0 0 -3 2.59 21.07 21.07 0 0 0 -7.38 3.41c-1.82-1-2.89.88-5.32 3.48a2 2 0 0 0 -.21 2.46c-3.44 5.51-3.17 10.06-3.17 14.2a4 4 0 0 0 1 7.86h40a4 4 0 0 0 1-7.86zm-2-.14h-15l.82-21.37a19.09 19.09 0 0 1 6.23 2.95l-4.47 8.94a2.61 2.61 0 0 0 2.42 3.77c1.47 0 1.47-.42 7.42-6.81 2.86 4.89 2.58 8.87 2.58 12.52zm-2.84-15.17c-7.34 7.89-6.82 7.46-7.19 7.46a.61.61 0 0 1 -.56-.88l4.84-9.68zm-18.8-8.52c.39-.41.4-.31 4.56-.31a1 1 0 0 1 1 1l-.92 23h-4c-1-24.95-1.07-23.25-.64-23.69zm-10.61 5.42c5.17 10.34 5.16 9.94 4.72 10.38a.6.6 0 0 1 -.87 0l-6.76-7.28zm-3.18 5.75 5.56 6a2.61 2.61 0 0 0 4.25-2.94l-4.47-8.94a19.28 19.28 0 0 1 6.23-2.95l.86 21.35h-15c0-4.13-.21-7.75 2.57-12.52zm36.43 18.52h-40a2 2 0 0 1 0-4h40a2 2 0 0 1 0 4z"/></g></svg>