<svg height="512" viewBox="0 0 48 48" width="512" xmlns="http://www.w3.org/2000/svg"><g id="_30._Cone" data-name="30. Cone"><path d="m41 41h-34l13.53-38.66a2 2 0 0 1 1.89-1.34h3.16a2 2 0 0 1 1.89 1.34c3.32 9.48 4.17 11.93 13.53 38.66z" fill="#f16f39"/><path d="m40.3 39h-25.07a3 3 0 0 1 -2.83-4c1.36-3.9-.85 2.43 11.9-34 1.16 0 2.63-.21 3.17 1.34 2.66 7.59.85 2.42 12.83 36.66z" fill="#f8834b"/><path d="m37.85 32h-27.7l2.1-6h23.5z" fill="#dad7e5"/><path d="m32.25 16h-16.5l2.1-6h12.3z" fill="#dad7e5"/><rect fill="#f16f39" height="6" rx="2" width="46" x="1" y="41"/><path d="m47 43v2h-39a4 4 0 0 1 -4-4h41a2 2 0 0 1 2 2z" fill="#f8834b"/><path d="m37.85 32h-24.4c1.05-3 1-2.84 2.1-6h20.2z" fill="#edebf2"/><path d="m32.25 16h-13.2l2.1-6h9z" fill="#edebf2"/><path d="m45 40h-3.29l-13.3-38a3 3 0 0 0 -2.83-2h-3.16a3 3 0 0 0 -2.83 2l-13.3 38h-3.29a3 3 0 0 0 -3 3v2a3 3 0 0 0 3 3h42a3 3 0 0 0 3-3v-2a3 3 0 0 0 -3-3zm-32-13h22l1.4 4h-24.84zm3.5-10h15.04l2.8 8h-20.68zm2.1-6h10.84l1.4 4h-13.68zm2.92-8.33c.29-.85.81-.67 4.1-.67a1 1 0 0 1 .94.67l2.18 6.33h-9.48zm-10.66 30.33h26.28l2.45 7h-31.18zm35.14 12a1 1 0 0 1 -1 1h-42a1 1 0 0 1 -1-1v-2a1 1 0 0 1 1-1h42a1 1 0 0 1 1 1z"/></g></svg>