<svg height="512" viewBox="0 0 48 48" width="512" xmlns="http://www.w3.org/2000/svg"><g id="_32._Safety_Boot" data-name="32. Safety Boot"><path d="m45 43v3a1 1 0 0 1 -1 1h-23.5l-1.71-1a1.57 1.57 0 0 0 -2.29 1h-12.5a1 1 0 0 1 -1-1v-3z" fill="#374f68"/><path d="m45 43v2h-24.5c-1.78-1-1.92-1.18-2.48-1.18a1.55 1.55 0 0 0 -1.52 1.18h-8.5a2 2 0 0 1 -2-2z" fill="#425b72"/><path d="m45 41v2h-42c0-7.66-.31-9.45 1-11.94 1.44-2.9 1-3.61 1-23.06h19v18.36a4 4 0 0 0 3.52 4 12.79 12.79 0 0 1 1.49.14l6.94.67a10 10 0 0 1 9.05 9.83z" fill="#fc6"/><path d="m45 41h-33.24a5.76 5.76 0 0 1 -5.76-5.76c0-4 2-4.5 2-8.48v-18.76h16v18.77a4 4 0 0 0 3.6 3.57l8.33.8a10 10 0 0 1 9.07 9.86z" fill="#ffde76"/><path d="m45 41v2h-10v-11.95l1 .09a10 10 0 0 1 9 9.86z" fill="#f16f39"/><path d="m45 41a8 8 0 0 1 -8-8v-1.71a10 10 0 0 1 8 9.71z" fill="#f8834b"/><path d="m4 1h21v7h-21z" fill="#f16f39"/><path d="m25 1v5h-13a5 5 0 0 1 -5-5z" fill="#f8834b"/><g fill="#edebf2"><path d="m31 30.66v3.34a1 1 0 0 1 -2 0v-3.43c0-.14-.19-.12 2 .09z"/><path d="m27.52 30.33a25.8 25.8 0 0 1 -1.67 3.15 1 1 0 0 1 -1.76-.95l1.58-2.92a4 4 0 0 0 1.85.72z"/><path d="m24.71 28.64-2.93 1.23a1 1 0 0 1 -.78-1.87c3.07-1.29 2.91-1.23 3-1.25a3.93 3.93 0 0 0 .71 1.89z"/><path d="m24 23v2h-3a1 1 0 0 1 0-2z"/></g><path d="m11 43h-8v-8a8 8 0 0 1 8 8z" fill="#f16f39"/><path d="m10.75 41a5.75 5.75 0 0 1 -5.75-5.75 8.12 8.12 0 0 1 5.75 5.75z" fill="#f8834b"/><path d="m15 14-2 2h-8v-4h8z" fill="#f16f39"/><path d="m15 14h-6a2 2 0 0 1 -2-2h6z" fill="#f8834b"/><path d="m13 24h-8v-4h8l2 2z" fill="#f16f39"/><path d="m15 22h-6a2 2 0 0 1 -2-2h6z" fill="#f8834b"/><path d="m36 30.14-8.32-.79a3 3 0 0 1 -2.72-3v-17.35a1 1 0 0 0 1-1v-7a1 1 0 0 0 -1-1h-20.96a1 1 0 0 0 -1 1v7a1 1 0 0 0 1 1c0 19.27.26 19.28-.92 21.61-1.47 2.88-1.08 5.02-1.08 15.39a2 2 0 0 0 2 2h12.5a1 1 0 0 0 1-.76.57.57 0 0 1 .32-.38c.34-.14.38 0 2.21 1 .35.19-1.3.13 24 .13a2 2 0 0 0 2-2v-4.9a11 11 0 0 0 -10.03-10.95zm8 11v.86h-8v-9.85a9 9 0 0 1 8 8.94zm-39-39.14h19v5h-19zm18 7v14h-2a1 1 0 0 0 0 2h2a11.91 11.91 0 0 0 .07 2.15l-2.07.85a1 1 0 0 0 .39 2c.28 0 .24 0 2.38-.92a4.85 4.85 0 0 0 1.43 1.46l-1.11 2a1 1 0 0 0 .91 1.46c.76 0 .82-.41 2.09-2.76a10.18 10.18 0 0 0 1.94.23v2.53a1 1 0 0 0 2 0v-2.33l2.97.33v10h-22.06a9 9 0 0 0 -7.85-7.93c.37-2.78 1.91-3.58 1.91-7.31v-1.76h7c.54 0 .57-.15 2.71-2.29a1 1 0 0 0 0-1.42l-2-2c-.42-.41-.29-.29-7.71-.29v-2h7c.54 0 .57-.15 2.71-2.29a1 1 0 0 0 0-1.42l-2-2c-.42-.41-.29-.29-7.71-.29v-2zm-19 27.08a7 7 0 0 1 5.92 5.92h-5.92zm2-23.08h6.59l1 1-1 1h-6.59zm0 8h6.59l1 1-1 1h-6.59zm38 25h-23.23l-1.48-.85a2.58 2.58 0 0 0 -3.44.85h-11.85v-2h40z"/></g></svg>