<svg height="512" viewBox="0 0 48 48" width="512" xmlns="http://www.w3.org/2000/svg"><g id="_36._Circular_Saw" data-name="36. Circular Saw"><path d="m44.86 23h-27.72a14 14 0 0 1 27.72 0z" fill="#db5669"/><path d="m44.86 23h-24.86a14 14 0 0 1 4.82-10.56 14 14 0 0 1 20.04 10.56z" fill="#f26674"/><g fill="#919191"><path d="m33.22 39.86c-.75 0-.88-.51-2-2.38a1 1 0 0 1 1.71-1l1.17 1.91a1 1 0 0 1 -.88 1.47z"/><path d="m36.73 38.81c-.53 0-.62-.2-2.31-1.81a1 1 0 0 1 1.37-1.45l1.63 1.54a1 1 0 0 1 -.69 1.72z"/><path d="m39.85 36.89c-.34 0-.31 0-2.44-1.18a1 1 0 0 1 1-1.76l2 1.07a1 1 0 0 1 -.56 1.87z"/><path d="m42.37 34.23a17 17 0 0 1 -2.37-.54 1 1 0 0 1 .46-1.95l2.18.52a1 1 0 0 1 -.27 1.97z"/><path d="m41.88 31.07a1 1 0 0 1 0-2l2.2-.07a1 1 0 0 1 .06 2z"/><path d="m18.19 31.73a1 1 0 0 1 -.73-1.73l1.54-1.58a1 1 0 0 1 1.45 1.37c-1.61 1.7-1.71 1.94-2.26 1.94z"/><path d="m20.1 34.85a1 1 0 0 1 -.87-1.48l1.06-2a1 1 0 0 1 1.76.95c-1.11 2.1-1.19 2.53-1.95 2.53z"/><path d="m22.77 37.37a1 1 0 0 1 -1-1.24l.54-2.13a1 1 0 0 1 2 .46c-.56 2.09-.57 2.91-1.54 2.91z"/><path d="m25 38.14-.06-2.24a1 1 0 0 1 2 0l.06 2.18a1 1 0 0 1 -2 .06z"/><path d="m29.55 40c-.94 0-1-.79-1.59-2.86a1 1 0 0 1 1.91-.57l.64 2.15a1 1 0 0 1 -.96 1.28z"/></g><path d="m42.83 27a12 12 0 0 1 -23.66 0z" fill="#dad7e5"/><path d="m42.83 27a12 12 0 0 1 -3.77 6.89 12 12 0 0 1 -16.37-6.89z" fill="#edebf2"/><path d="m1 23h46v4h-46z" fill="#374f68"/><path d="m47 23v2h-41a2 2 0 0 1 -2-2z" fill="#425b72"/><path d="m25 12.34a14 14 0 0 0 -4.22 3.07c-4.69-2.36-4.62-2.41-5.25-2.41h-12.53v-2a2 2 0 0 1 2-2h12.1c1.17 0 1.12.11 7.9 3.34z" fill="#374f68"/><path d="m25 12.34c-3.27 1.55-2 2-3.22 1.07-4.67-2.35-4.62-2.41-5.25-2.41h-9.53a2 2 0 0 1 -2-2c0-.1-.67 0 12.1 0 1.17 0 1.12.11 7.9 3.34z" fill="#425b72"/><path d="m10 13c0 2.41.25 3.75-1 5s-1 2.65-1 5h-5l2-10z" fill="#374f68"/><path d="m10 13c0 2.55.26 3.65-1.08 5.08a3.74 3.74 0 0 0 -.92 2.92 2.46 2.46 0 0 1 -2.41-2.94l1.01-5.06z" fill="#425b72"/><path d="m36.84 28.85a7 7 0 1 1 -5.84-10.85 7 7 0 0 1 5.84 10.85z" fill="#6fabe6"/><path d="m38 25a6.91 6.91 0 0 1 -1.16 3.85 7 7 0 0 1 -9.68-9.7 7 7 0 0 1 10.84 5.85z" fill="#82bcf4"/><path d="m33 25a2 2 0 1 1 -2.82-1.82 2 2 0 0 1 2.82 1.82z" fill="#dad7e5"/><path d="m32.82 25.82a2 2 0 0 1 -2.64-2.64 2 2 0 0 1 2.64 2.64z" fill="#edebf2"/><path d="m47 22h-1.31a15 15 0 0 0 -20.62-10.75l-5.83-2.77c-1.36-.65-1-.48-14.24-.48a3 3 0 0 0 -3 3v2a1 1 0 0 0 1 1h.78l-1.6 8h-1.18a1 1 0 0 0 -1 1v4a1 1 0 0 0 1 1h17.36c.07.29.15.57.23.84l-1.13 1.16a1 1 0 0 0 .73 1.69c.46 0 .6-.19 1.22-.84a11.66 11.66 0 0 0 .59 1l-.77 1.44a1 1 0 0 0 .87 1.48c.68 0 .86-.48 1.23-1.16.27.3.55.59.84.86l-.38 1.58a1 1 0 0 0 1.95.47l.17-.7a9.69 9.69 0 0 0 1 .6v1.64a1 1 0 0 0 2-.06v-.73a11 11 0 0 0 1.16.32l.47 1.58a1 1 0 0 0 1.91-.57l-.15-.6a6.76 6.76 0 0 0 1.2 0c.88 1.43 1 1.88 1.72 1.88a1 1 0 0 0 .85-1.52l-.38-.63a11.61 11.61 0 0 0 1.16-.3c1.17 1.11 1.35 1.4 1.88 1.4a1 1 0 0 0 .69-1.72l-.53-.5c.36-.18.71-.38 1-.59 1.55.84 1.58.89 1.91.89a1 1 0 0 0 .53-1.91l-.64-.35c.3-.27.59-.55.86-.84a10.42 10.42 0 0 0 1.82.4 1 1 0 0 0 .23-2l-.7-.17c.21-.33.41-.68.6-1h1.64a1 1 0 0 0 -.06-2h-.73c.11-.34.21-.68.29-1h3.36a1 1 0 0 0 1-1v-4.04a1 1 0 0 0 -1-1zm-3.35 0h-5.24a8 8 0 0 0 -14.82 0h-5.24a13 13 0 0 1 25.3 0zm-13.65 3a1 1 0 0 1 2 0 1 1 0 0 1 -2 0zm6.19 3a6 6 0 0 1 -10.38 0zm-2.37-2a3 3 0 1 0 -5.64 0h-3.09a6 6 0 1 1 11.82 0zm-22.82-12h4.53c.32 0 .18 0 3.7 1.74a14.87 14.87 0 0 0 -2.92 6.26h-7.31c0-1.49-.16-2.42.71-3.29 1.5-1.51 1.29-3.13 1.29-4.71zm-7-3a1 1 0 0 1 1-1h12.1c.89 0 .91.11 5.78 2.43a15.38 15.38 0 0 0 -2.25 1.77c-5.63-2.84-2.13-2.2-16.63-2.2zm1.82 3h3.18v1.59c0 1.93-2 1.95-2 4.82v1.59h-2.78zm-3.82 10h21.07a7.44 7.44 0 0 0 0 2h-21.07zm18.42 4h3.17a8 8 0 0 0 14.82 0h3.17c-3.01 10.73-18.2 10.56-21.16 0zm25.58-2h-7.07a7.44 7.44 0 0 0 0-2h7.07z"/></g></svg>