<svg height="512" viewBox="0 0 48 48" width="512" xmlns="http://www.w3.org/2000/svg"><g id="_39._helm_on_open_arms" data-name="39. helm on open arms"><path d="m22 47h-11c0-1.62.09-1.9-.26-2.29l-7.66-8.42a8 8 0 0 1 -2.08-5.38c0-12.35-.25-12.2.73-13.18a2.52 2.52 0 0 1 4.27 1.93v8.15a2.54 2.54 0 0 1 1.67-.64c1.42 0 .83-.21 12 10.95 2.7 2.71 2.33 5.49 2.33 8.88z" fill="#f6ccaf"/><path d="m22 46h-7.39a1.63 1.63 0 0 1 -1.61-1.61c0-.56.36 0-7.92-9.1a8 8 0 0 1 -2.08-5.38c0-12.53-.17-12 .5-12.91a2.63 2.63 0 0 1 2.5 2.66v8.15a2.5 2.5 0 0 1 3.44.09c12.56 12.54 12.56 11.17 12.56 18.1z" fill="#ffdec7"/><path d="m37 15v2h-26v-2a13 13 0 1 1 26 0z" fill="#fc6"/><path d="m37 15h-21a2 2 0 0 1 -2-2 12.92 12.92 0 0 1 4.39-9.73 13 13 0 0 1 18.61 11.73z" fill="#ffde76"/><path d="m39 19a2 2 0 0 1 -2 2h-26a2 2 0 0 1 0-4h26a2 2 0 0 1 2 2z" fill="#f16f39"/><path d="m39 19h-26a2 2 0 0 1 -2-2h26a2 2 0 0 1 2 2z" fill="#f8834b"/><path d="m26.93 2.06c-.93 15.22-.77 12.3-.93 14.94h-4l-.93-14.94a1 1 0 0 1 1-1.06h3.88a1 1 0 0 1 .98 1.06z" fill="#f16f39"/><path d="m26.93 2.06c-.85 13.58-.93 12.94-.81 12.94a2.26 2.26 0 0 1 -2.25-2.12l-.74-11.88h2.81a1 1 0 0 1 .99 1.06z" fill="#f8834b"/><path d="m18.25 10.31a1.09 1.09 0 0 1 -2 .51l-2.74-4.06a1 1 0 0 1 .21-1.34l1-.78a1 1 0 0 1 1.55.4c2.05 5.1 2.02 4.89 1.98 5.27z" fill="#f16f39"/><path d="m18.25 10.31c-.84.09-.87-.28-3.74-4.55a1 1 0 0 1 -.1-.89l.28-.23a1 1 0 0 1 1.55.4c2.08 5.1 2.05 4.89 2.01 5.27z" fill="#f8834b"/><path d="m31.76 10.82 2.73-4.06a1 1 0 0 0 -.21-1.34l-1-.78a1 1 0 0 0 -1.55.4l-1.91 4.75a1.1 1.1 0 0 0 1.94 1.03z" fill="#f16f39"/><path d="m29.75 10.31c.84.09.87-.28 3.74-4.55a1 1 0 0 0 .1-.89l-.28-.23a1 1 0 0 0 -1.55.4c-2.08 5.1-2.05 4.89-2.01 5.27z" fill="#f8834b"/><path d="m11 38-5.81-5.85c-2-2.06-.58-5.31.81-5.31 0 1.54-.22.83.83.48a.94.94 0 0 1 -.12 1.2.43.43 0 0 0 -.1.09 1.52 1.52 0 0 0 0 2.13l5.84 5.81a1 1 0 0 1 -1.45 1.45z" fill="#edb996"/><path d="m26 47h11c0-1.62-.09-1.9.26-2.29l7.66-8.42a8 8 0 0 0 2.08-5.38c0-12.35.25-12.2-.73-13.18a2.52 2.52 0 0 0 -4.27 1.93v8.15a2.54 2.54 0 0 0 -1.67-.64c-1.42 0-.83-.21-12 10.95-2.7 2.71-2.33 5.49-2.33 8.88z" fill="#f6ccaf"/><path d="m26 46h7.39a1.63 1.63 0 0 0 1.61-1.61c0-.56-.36 0 7.92-9.1a8 8 0 0 0 2.08-5.38c0-12.53.17-12-.5-12.91a2.63 2.63 0 0 0 -2.5 2.66v8.15a2.5 2.5 0 0 0 -3.44.09c-12.56 12.54-12.56 11.17-12.56 18.1z" fill="#ffdec7"/><path d="m37 38 5.84-5.82c2-2.06.58-5.31-.81-5.31 0 1.54.22.83-.83.48a.94.94 0 0 0 .12 1.2.43.43 0 0 1 .1.09 1.52 1.52 0 0 1 0 2.13l-5.84 5.81a1 1 0 0 0 1.42 1.42z" fill="#edb996"/><path d="m11 22h26a3 3 0 0 0 1-5.82c0-3.32-.32-6-2.52-9.16a2 2 0 0 0 -.57-2.37c-1-.81-1.64-1.55-2.9-1.1a13.68 13.68 0 0 0 -4.13-2 2 2 0 0 0 -1.94-1.55c-3.07 0-5.36-.5-5.82 1.57a13.94 13.94 0 0 0 -4.13 2 2 2 0 0 0 -1.93.31c-.8.64-2.27 1.53-1.54 3.15-2.19 3.11-2.52 5.8-2.52 9.15a3 3 0 0 0 1 5.82zm25-6h-8.94l.78-12.37a12.37 12.37 0 0 1 2.84 1.42l-1.79 4.36a2.11 2.11 0 0 0 1.95 2.9c1.47 0 1.86-1.1 3.45-3.46a12.47 12.47 0 0 1 1.71 7.15zm-5.21-5.7c-.12-.07-.16.13 1.9-4.88l1 .78c-3.13 4.61-2.69 4.1-2.9 4.1zm-4.85-8.3-.88 14h-2.12l-.88-14zm-10.63 3.42c2.63 6.41 2.84 6.46-1 .78zm-1.6 3.43 1.7 2.53a2.11 2.11 0 0 0 3.7-2l-1.79-4.33a12.14 12.14 0 0 1 2.84-1.41l.78 12.36h-8.94a12.29 12.29 0 0 1 1.71-7.15zm-2.71 9.15h26a1 1 0 0 1 0 2h-26a1 1 0 0 1 0-2z"/><path d="m10.14 27.19a3.59 3.59 0 0 0 -3.14-.93v-6.6a3.6 3.6 0 0 0 -3.71-3.66 3.48 3.48 0 0 0 -3.29 3.5v11.41a9 9 0 0 0 2.34 6.09l7.66 8.39v1.61a1 1 0 0 0 2 0c0-1.56.13-2.24-.52-3l-7.66-8.38a7 7 0 0 1 -1.82-4.71c0-12.14-.18-11.85.44-12.47a1.43 1.43 0 0 1 2 0c.73.7.54.64.54 9a3.53 3.53 0 0 0 .19 4.72l5.83 5.84a1 1 0 0 0 1.41-1.41l-5.8-5.85a1.53 1.53 0 0 1 0-2.13 1.55 1.55 0 0 1 2.13 0c13.07 13.07 12.26 10.79 12.26 18.39a1 1 0 0 0 2 0c0-8.38.48-6.48-12.86-19.81z"/><path d="m47 17a3.43 3.43 0 0 0 -4.83 0c-1.56 1.42-1.17 2.66-1.17 9.26a3.62 3.62 0 0 0 -3.15.93c-13.2 13.21-12.85 11.33-12.85 19.81a1 1 0 0 0 2 0c0-7.58-.81-5.32 12.26-18.39a1.56 1.56 0 0 1 2.13 0 1.52 1.52 0 0 1 0 2.13l-5.83 5.83a1 1 0 0 0 1.44 1.43l5.84-5.83a3.52 3.52 0 0 0 .16-4.74c0-8.44-.18-8.34.54-9a1.43 1.43 0 0 1 2 0c.61.6.44.25.44 12.47a7 7 0 0 1 -1.82 4.71l-7.64 8.39c-.65.71-.52 1.33-.52 3a1 1 0 0 0 2 0v-1.61l7.66-8.39a9 9 0 0 0 2.34-6.09c0-11.91.34-12.53-1-13.91z"/></g></svg>