<svg height="512" viewBox="0 0 48 48" width="512" xmlns="http://www.w3.org/2000/svg"><g id="_46._Factory" data-name="46. Factory"><path d="m15 27h32v20h-32z" fill="#7c7d7d"/><path d="m47 27v18h-25a4 4 0 0 1 -4-4v-14z" fill="#919191"/><path d="m15 23h32v4h-32z" fill="#dad7e5"/><path d="m47 23v2h-27a2 2 0 0 1 -2-2z" fill="#edebf2"/><path d="m1 27h14v20h-14z" fill="#7c7d7d"/><path d="m15 27v18h-8a3 3 0 0 1 -3-3v-15z" fill="#919191"/><path d="m12 27h-8l1-17h6c1 17.29.83 14.24 1 17z" fill="#dad7e5"/><path d="m11.88 25a5.55 5.55 0 0 1 -5.54-5.87l.54-9.13h4.12z" fill="#edebf2"/><path d="m27 13v10h-8v-7z" fill="#7c7d7d"/><path d="m27 13v8a5.76 5.76 0 0 1 -6-5.75z" fill="#919191"/><path d="m35 23h-8v-7l8-3z" fill="#7c7d7d"/><path d="m43 23h-8v-7l8-3z" fill="#7c7d7d"/><path d="m17.6 3c-1.52 0-1.79-1-2.4-1s-.87 1-2.39 1-1.81-1-2.41-1-.88 1-2.4 1a1 1 0 0 1 0-2c.61 0 .88-1 2.4-1s1.79 1 2.41 1 .87-1 2.39-1 1.8 1 2.4 1 .88-1 2.4-1a1 1 0 0 1 0 2c-.61 0-.88 1-2.4 1z" fill="#919191"/><path d="m4 6h8v4h-8z" fill="#7c7d7d"/><path d="m12 6v2h-4a2 2 0 0 1 -2-2z" fill="#919191"/><path d="m11 34h-6a1 1 0 0 1 0-2h6a1 1 0 0 1 0 2z" fill="#edebf2"/><path d="m11 38h-6a1 1 0 0 1 0-2h6a1 1 0 0 1 0 2z" fill="#edebf2"/><path d="m11 42h-6a1 1 0 0 1 0-2h6a1 1 0 0 1 0 2z" fill="#edebf2"/><path d="m20 31h4v4h-4z" fill="#9fdbf3"/><path d="m20 39h4v4h-4z" fill="#9fdbf3"/><path d="m24 39v3a3 3 0 0 1 -3-3z" fill="#b2e5fb"/><path d="m38 31h4v4h-4z" fill="#9fdbf3" transform="matrix(-1 0 0 -1 80 66)"/><path d="m38 39h4v4h-4z" fill="#9fdbf3" transform="matrix(-1 0 0 -1 80 82)"/><path d="m29 31h4v4h-4z" fill="#9fdbf3"/><path d="m29 39h4v4h-4z" fill="#9fdbf3"/><g fill="#b2e5fb"><path d="m33 39v3a3 3 0 0 1 -3-3z"/><path d="m42 39v3a3 3 0 0 1 -3-3z"/><path d="m24 31v3a3 3 0 0 1 -3-3z"/><path d="m33 31v3a3 3 0 0 1 -3-3z"/><path d="m42 31v3a3 3 0 0 1 -3-3z"/></g><path d="m35 13v8a5.76 5.76 0 0 1 -6-5.75z" fill="#919191"/><path d="m43 13v8a5.76 5.76 0 0 1 -6-5.75z" fill="#919191"/><path d="m47 22h-3v-9a1 1 0 0 0 -1.35-.94l-6.65 2.5v-1.56a1 1 0 0 0 -1.35-.94l-6.65 2.5v-1.56a1 1 0 0 0 -1.35-.94c-8.65 3.25-8.65 3.01-8.65 3.94v6h-3a1 1 0 0 0 -1 1v3h-1.06l-.88-15a1 1 0 0 0 .94-1v-4a1 1 0 0 0 -1-1h-8a1 1 0 0 0 -1 1v4a1 1 0 0 0 .94 1l-.88 15h-2.06a1 1 0 0 0 -1 1v20a1 1 0 0 0 1 1h46a1 1 0 0 0 1-1v-24a1 1 0 0 0 -1-1zm-5-7.56v7.56h-6v-5.31zm-8 0v7.56h-6v-5.31zm-14 2.25 6-2.25v7.56h-6zm-4 7.31h30v2h-30zm-11-17h6v2h-6zm.94 4h4.12l.88 15h-5.88zm-3.94 17h12v18h-12zm44 18h-30v-18h30z"/><path d="m8 3c1.53 0 1.8-1 2.4-1s.88 1 2.41 1 1.78-1 2.39-1 .88 1 2.4 1 1.8-1 2.4-1a1 1 0 0 0 0-2c-1.52 0-1.8 1-2.4 1s-.87-1-2.4-1-1.78 1-2.39 1-.88-1-2.41-1-1.78 1-2.4 1a1 1 0 0 0 0 2z"/><path d="m11 32h-6a1 1 0 0 0 0 2h6a1 1 0 0 0 0-2z"/><path d="m11 36h-6a1 1 0 0 0 0 2h6a1 1 0 0 0 0-2z"/><path d="m11 40h-6a1 1 0 0 0 0 2h6a1 1 0 0 0 0-2z"/><path d="m20 36h4a1 1 0 0 0 1-1v-4a1 1 0 0 0 -1-1h-4a1 1 0 0 0 -1 1v4a1 1 0 0 0 1 1zm1-4h2v2h-2z"/><path d="m20 44h4a1 1 0 0 0 1-1v-4a1 1 0 0 0 -1-1h-4a1 1 0 0 0 -1 1v4a1 1 0 0 0 1 1zm1-4h2v2h-2z"/><path d="m38 36h4a1 1 0 0 0 1-1v-4a1 1 0 0 0 -1-1h-4a1 1 0 0 0 -1 1v4a1 1 0 0 0 1 1zm1-4h2v2h-2z"/><path d="m38 44h4a1 1 0 0 0 1-1v-4a1 1 0 0 0 -1-1h-4a1 1 0 0 0 -1 1v4a1 1 0 0 0 1 1zm1-4h2v2h-2z"/><path d="m29 36h4a1 1 0 0 0 1-1v-4a1 1 0 0 0 -1-1h-4a1 1 0 0 0 -1 1v4a1 1 0 0 0 1 1zm1-4h2v2h-2z"/><path d="m29 44h4a1 1 0 0 0 1-1v-4a1 1 0 0 0 -1-1h-4a1 1 0 0 0 -1 1v4a1 1 0 0 0 1 1zm1-4h2v2h-2z"/></g></svg>