<svg height="512" viewBox="0 0 48 48" width="512" xmlns="http://www.w3.org/2000/svg"><g id="_5._Welding_mask" data-name="5. Welding mask"><path d="m40 5v26a16 16 0 0 1 -5.67 12.22c-10.23 8.66-26.33 1.55-26.33-12.22v-26a4 4 0 0 1 3.52-4h24.48a4 4 0 0 1 4 4z" fill="#374f68"/><path d="m40 5v26a16 16 0 0 1 -5.67 12.22 16 16 0 0 1 -23.33-14.22c0-28.06-.22-26.67.52-28h24.48a4 4 0 0 1 4 4z" fill="#425b72"/><path d="m8 7h32v22h-32z" fill="#7c7d7d"/><path d="m11 7h29v22h-29z" fill="#919191"/><path d="m15 13v-2a1 1 0 0 1 2 0v2a1 1 0 0 1 -2 0z" fill="#425b72"/><path d="m31 13v-2a1 1 0 0 1 2 0v2a1 1 0 0 1 -2 0z" fill="#425b72"/><path d="m40 13h3a1 1 0 0 1 1 1v6a1 1 0 0 1 -1 1h-3a0 0 0 0 1 0 0v-8a0 0 0 0 1 0 0z" fill="#374f68"/><path d="m8 13v8h-3a1 1 0 0 1 -1-1v-6a1 1 0 0 1 1-1z" fill="#374f68"/><path d="m8 13v6a2 2 0 0 1 -2-2v-4z" fill="#425b72"/><path d="m40 13v6a2 2 0 0 0 2-2v-4z" fill="#425b72"/><path d="m13 13h22v10h-22z" fill="#9fdbf3"/><path d="m35 13v8h-11a8 8 0 0 1 -8-8z" fill="#b2e5fb"/><path d="m35 12h-2v-1a1 1 0 0 0 -2 0v1h-14v-1a1 1 0 0 0 -2 0v1h-2a1 1 0 0 0 -1 1v10a1 1 0 0 0 1 1h22a1 1 0 0 0 1-1v-10a1 1 0 0 0 -1-1zm-1 10h-20v-8h20z"/><path d="m43 12h-2v-7a5 5 0 0 0 -5-5h-24a5 5 0 0 0 -5 5v7h-2a2 2 0 0 0 -2 2v6a2 2 0 0 0 2 2h2v9a17 17 0 0 0 34 0v-9h2a2 2 0 0 0 2-2v-6a2 2 0 0 0 -2-2zm-34-4h30v20h-30zm3-6h24a3 3 0 0 1 3 3v1h-30v-1a3 3 0 0 1 3-3zm-7 18v-6h2v6zm4 10h30c0 21.3-30 21.26-30 0zm32-10v-6h2v6z"/></g></svg>