<svg height="512" viewBox="0 0 48 48" width="512" xmlns="http://www.w3.org/2000/svg"><g id="_6._Traffic_lamp" data-name="6. Traffic lamp"><rect fill="#374f68" height="40" rx="2" width="16" x="16" y="1"/><path d="m32 3c0 37.25-.1 36 0 36a13 13 0 0 1 -13-13v-25h11a2 2 0 0 1 2 2z" fill="#425b72"/><circle cx="24" cy="21" fill="#fc6" r="4"/><path d="m28 9.15a4 4 0 1 1 -5.65-3.79 4 4 0 0 1 5.65 3.79z" fill="#db5669"/><path d="m27.65 10.64a4 4 0 0 1 -5.3-5.28 4 4 0 0 1 5.3 5.28z" fill="#f26674"/><path d="m27.65 22.64a4 4 0 0 1 -5.3-5.28 4 4 0 0 1 5.3 5.28z" fill="#ffde76"/><circle cx="24" cy="33" fill="#9dcc6b" r="4"/><path d="m35 13h-3v-8h7a1 1 0 0 1 .8 1.6z" fill="#374f68"/><path d="m35 25h-3v-8h7a1 1 0 0 1 .8 1.6z" fill="#374f68"/><path d="m35 37h-3v-8h7a1 1 0 0 1 .8 1.6z" fill="#374f68"/><path d="m16 5v8h-3l-4.8-6.4a1 1 0 0 1 .8-1.6z" fill="#374f68"/><path d="m16 5v6h-1l-4.5-6z" fill="#425b72"/><path d="m13 25h3v-8h-7a1 1 0 0 0 -.8 1.6z" fill="#374f68"/><path d="m13 37h3v-8h-7a1 1 0 0 0 -.8 1.6z" fill="#374f68"/><path d="m21 41h6v6h-6z" fill="#374f68"/><g fill="#425b72"><path d="m27 41v4a4 4 0 0 1 -4-4z"/><path d="m16 17v6h-1l-4.5-6z"/><path d="m16 29v6h-1l-4.5-6z"/><path d="m31.7 5v6h1l4.5-6z"/><path d="m31.7 17v6h1l4.5-6z"/><path d="m31.7 29v6h1l4.5-6z"/></g><path d="m27.65 34.64a4 4 0 0 1 -5.3-5.28 4 4 0 0 1 5.3 5.28z" fill="#b5e08c"/><path d="m19 20.81a5 5 0 1 0 8.66-3.21 5 5 0 0 0 -8.66 3.21zm2.8 2.19a3 3 0 1 1 5.2-1.89 3 3 0 0 1 -5.2 1.89z"/><path d="m19 8.81a5 5 0 1 0 8.66-3.21 5 5 0 0 0 -8.66 3.21zm2.8 2.19a3 3 0 1 1 5.2-1.89 3 3 0 0 1 -5.2 1.89z"/><path d="m19 32.81a5 5 0 1 0 8.66-3.21 5 5 0 0 0 -8.66 3.21zm2.8 2.19a3 3 0 1 1 5.2-1.89 3 3 0 0 1 -5.2 1.89z"/><path d="m35 26c.69 0 .47 0 5.6-6.8a2 2 0 0 0 -1.6-3.2h-6v-2c2.08 0 2.42.11 2.8-.4l4.8-6.4a2 2 0 0 0 -1.6-3.2h-6v-1a3 3 0 0 0 -3-3h-12a3 3 0 0 0 -3 3v1h-6a2 2 0 0 0 -1.6 3.2c5.14 6.85 4.9 6.8 5.6 6.8h2v2h-6a2 2 0 0 0 -1.6 3.2l4.8 6.4c.37.49.6.4 2.8.4v2h-6a2 2 0 0 0 -1.6 3.2c5.14 6.85 4.9 6.8 5.6 6.8h2v1a3 3 0 0 0 3 3h2v5a1 1 0 0 0 2 0v-5h4v5a1 1 0 0 0 2 0v-5h2a3 3 0 0 0 3-3v-1c2.08 0 2.42.11 2.8-.4l4.8-6.4a2 2 0 0 0 -1.6-3.2h-6v-2zm4-8-4.5 6h-1.5v-6zm0-12-4.5 6h-1.5v-6zm-25.5 6-4.5-6h6v6zm0 12-4.5-6h6v6zm0 12-4.5-6h6v6zm17.5 3a1 1 0 0 1 -1 1h-12a1 1 0 0 1 -1-1v-36a1 1 0 0 1 1-1h12a1 1 0 0 1 1 1zm8-9-4.5 6h-1.5v-6z"/></g></svg>