<svg height="512" viewBox="0 0 48 48" width="512" xmlns="http://www.w3.org/2000/svg"><g id="_7._Shovel" data-name="7. Shovel"><path d="m25 35.71c-7.62 7.63-9.35 10.29-14.62 11.12a13.13 13.13 0 0 1 -8-1.22 13.17 13.17 0 0 1 2.48-15.19l7.43-7.42z" fill="#dad7e5"/><path d="m23.52 34.21-6.94 6.93a13.12 13.12 0 0 1 -14.95 2.58 13.15 13.15 0 0 1 3.23-13.3l7.43-7.42z" fill="#edebf2"/><path d="m39.93 10.9-23 23a12 12 0 0 1 -6.09 3.26 12 12 0 0 1 3.29-6.16l23-23z" fill="#a87e6b"/><path d="m38.93 9.9c-24 24-23.21 24-27.4 25.07 1.21-3 .27-1.6 25.57-26.9z" fill="#be927c"/><path d="m39.93 11.9c-.55 0-.46-.05-3.54-3.12a1 1 0 0 1 -.29-.71 10.3 10.3 0 0 1 1.74-5.74c1.31-2 1.38-2.26 2-2.32s.28-.24 7.88 7.35a1 1 0 0 1 -.16 1.54c-2.36 1.57-4.17 3-7.63 3zm-1.82-4.23 2.22 2.22a9.15 9.15 0 0 0 5.1-2l-5.35-5.32a9 9 0 0 0 -1.97 5.1z" fill="#be927c"/><path d="m32.25 18.58-7.77 7.77-2.83-2.83 7.78-7.77z" fill="#df8761"/><path d="m20.96 19.26h10.99v2.58h-10.99z" fill="#f29b75" transform="matrix(.707 -.707 .707 .707 -6.78 24.72)"/><path d="m47.71 7.36c-8.69-8.68-7.41-8.72-9.87-5a10.25 10.25 0 0 0 -1.71 5.29l-18.89 18.87-4.24-4.24a1 1 0 0 0 -1.42 0l-7.43 7.43a14.15 14.15 0 0 0 -2.66 16.35c.73 1.45 10.15 4.45 16.8-2.21l7.43-7.43a1 1 0 0 0 0-1.42l-4.24-4.24 18.9-18.89c3.35-.15 5.12-1.6 7.17-3a1 1 0 0 0 .16-1.51zm-18.28 9.8 1.41 1.42-6.36 6.36-1.42-1.42zm-17.11 18.52c1.11-3 2.5-3.91 9.33-10.74l1.41 1.41c-6.71 6.71-7.75 8.22-10.74 9.33zm7.75-3.5 3.53 3.53-6.72 6.73a12.17 12.17 0 0 1 -13.74 2.42 12.14 12.14 0 0 1 2.42-13.74l6.73-6.72 3.53 3.53c-2.78 2.79-5.05 4.65-5.93 9a1 1 0 0 0 .64 1.13c1.28.48 5.26-1.6 7.14-3.49zm12.18-15-1.41-1.41 6.26-6.28 1.42 1.41zm8.08-7.27-2.22-2.24a9.22 9.22 0 0 1 2-5.1l5.35 5.35a8.94 8.94 0 0 1 -5.13 1.97z"/></g></svg>