<svg height="512" viewBox="0 0 48 48" width="512" xmlns="http://www.w3.org/2000/svg"><g id="_9._Helm_construction_in_Calendar" data-name="9. Helm construction in Calendar"><path d="m47 15c0 31.66.08 29.34-.18 30a3 3 0 0 1 -2.82 2h-40a3 3 0 0 1 -3-3v-29z" fill="#dad7e5"/><path d="m47 15c0 31.66.08 29.34-.18 30h-12.82a30 30 0 0 1 -30-30c0-.1-1.4 0 43 0z" fill="#edebf2"/><path d="m47 8v7h-46v-7a3 3 0 0 1 3-3h40a3 3 0 0 1 3 3z" fill="#db5669"/><path d="m47 8v5h-36a7 7 0 0 1 -7-7 2.77 2.77 0 0 1 .18-1h39.82a3 3 0 0 1 3 3z" fill="#f26674"/><path d="m14 3v4a2 2 0 0 1 -4 0v-4a2 2 0 0 1 4 0z" fill="#dad7e5"/><path d="m14 3v4a2 2 0 0 1 -1.41-.59c-.84-.82-.59-1.7-.59-5.41a2 2 0 0 1 2 2z" fill="#edebf2"/><path d="m34 3v4a2 2 0 0 0 4 0v-4a2 2 0 0 0 -4 0z" fill="#dad7e5"/><path d="m39 39a2 2 0 0 1 -2 2h-26a2 2 0 0 1 0-4h26a2 2 0 0 1 2 2z" fill="#f16f39"/><path d="m39 39h-26a2 2 0 0 1 -2-2h26a2 2 0 0 1 2 2z" fill="#f8834b"/><path d="m38 3v4a2 2 0 0 1 -1.41-.59c-.84-.82-.59-1.7-.59-5.41a2 2 0 0 1 2 2z" fill="#edebf2"/><path d="m37 35v2h-26v-2a13 13 0 1 1 26 0z" fill="#fc6"/><path d="m37 35h-21a2 2 0 0 1 -2-2 12.94 12.94 0 0 1 4.39-9.73 13 13 0 0 1 18.61 11.73z" fill="#ffde76"/><path d="m26.93 22.06c-.93 15.22-.77 12.3-.93 14.94h-4l-.93-14.94a1 1 0 0 1 1-1.06h3.88a1 1 0 0 1 .98 1.06z" fill="#f16f39"/><path d="m26.93 22.06c-.85 13.58-.93 12.94-.81 12.94a2.26 2.26 0 0 1 -2.25-2.12l-.74-11.88h2.81a1 1 0 0 1 .99 1.06z" fill="#f8834b"/><path d="m18.25 30.31a1.1 1.1 0 0 1 -2 .51l-2.73-4.06a1 1 0 0 1 .21-1.34l1-.78a1 1 0 0 1 1.55.4c2.04 5.1 2.01 4.89 1.97 5.27z" fill="#f16f39"/><path d="m18.25 30.31c-.84.09-.87-.28-3.74-4.55a1 1 0 0 1 -.1-.89l.28-.23a1 1 0 0 1 1.55.4c2.08 5.1 2.05 4.89 2.01 5.27z" fill="#f8834b"/><path d="m31.76 30.82 2.73-4.06a1 1 0 0 0 -.21-1.34l-1-.78a1 1 0 0 0 -1.55.4l-1.94 4.75a1.1 1.1 0 0 0 1.97 1.03z" fill="#f16f39"/><path d="m29.75 30.31c.84.09.87-.28 3.74-4.55a1 1 0 0 0 .1-.89l-.28-.23a1 1 0 0 0 -1.55.4c-2.08 5.1-2.05 4.89-2.01 5.27z" fill="#f8834b"/><path d="m44 4h-5v-1a3 3 0 0 0 -6 0v1h-18v-1a3 3 0 0 0 -6 0v1h-5a4 4 0 0 0 -4 4v36a4 4 0 0 0 4 4h40a4 4 0 0 0 4-4v-36a4 4 0 0 0 -4-4zm-9-1a1 1 0 0 1 2 0v4a1 1 0 0 1 -2 0zm-24 0a1 1 0 0 1 2 0v4a1 1 0 0 1 -2 0zm-9 5a2 2 0 0 1 2-2h5v1a3 3 0 0 0 6 0v-1h18v1a3 3 0 0 0 6 0v-1h5a2 2 0 0 1 2 2v6h-44zm44 36a2 2 0 0 1 -2 2h-40a2 2 0 0 1 -2-2v-28h44z"/><path d="m11 42h26a3 3 0 0 0 1-5.82c0-3.32-.32-6-2.52-9.16a2 2 0 0 0 -.57-2.37c-1-.79-1.64-1.55-2.9-1.1a13.68 13.68 0 0 0 -4.13-2 2 2 0 0 0 -1.94-1.55c-4 0-4.56-.19-5.33.63a2 2 0 0 0 -.49.94 13.94 13.94 0 0 0 -4.13 2 2 2 0 0 0 -1.93.31c-.8.64-2.27 1.53-1.54 3.15-2.19 3.11-2.52 5.8-2.52 9.15a3 3 0 0 0 1 5.82zm25-6h-8.94l.78-12.37a12.37 12.37 0 0 1 2.84 1.42l-1.79 4.36a2.11 2.11 0 0 0 1.95 2.9c1.46 0 1.85-1.08 3.45-3.46a12.39 12.39 0 0 1 1.71 7.15zm-3.31-10.58 1 .78c-3.88 5.74-3.6 5.56-1-.78zm-6.75-3.42-.88 14h-2.12l-.88-14zm-10.63 3.42c2.59 6.32 2.9 6.54-1 .78zm-1.6 3.43 1.7 2.53a2.11 2.11 0 0 0 3.7-2l-1.79-4.36a12.14 12.14 0 0 1 2.84-1.41l.78 12.39h-8.94a12.32 12.32 0 0 1 1.71-7.15zm-2.71 9.15h26a1 1 0 0 1 0 2h-26a1 1 0 0 1 0-2z"/></g></svg>