<svg id="Filled_Expand" height="512" viewBox="0 0 64 64" width="512" xmlns="http://www.w3.org/2000/svg" data-name="Filled Expand"><path d="m52 53h-12.8772a4 4 0 0 1 -3.8806-3.03l-1.2422-4.97h-4l-1.2422 4.97a4 4 0 0 1 -3.8807 3.03h-12.8771a8 8 0 0 1 -8-8v-12h56v12a8 8 0 0 1 -8 8z" fill="#cae7de"/><rect fill="#5f5f5f" height="4" rx="1" width="58" x="3" y="29"/><path d="m61.7961 28.425-12.9856-18.01a.9994.9994 0 0 0 -.8105-.415h-6a1 1 0 0 0 0 2h5.4888l11.5556 16h-54.0888l11.5556-16h5.4888a1 1 0 0 0 0-2h-6a.9994.9994 0 0 0 -.81.4146l-12.9861 18.0104a.9753.9753 0 0 0 -.2039.575v4a1 1 0 0 0 1 1v11a9.01 9.01 0 0 0 9 9h12.877a4.9936 4.9936 0 0 0 4.851-3.7876l1.0528-4.2124h2.4384l1.0528 4.2124a4.9936 4.9936 0 0 0 4.851 3.7876h12.877a9.01 9.01 0 0 0 9-9v-11a1 1 0 0 0 1-1v-4a.9753.9753 0 0 0 -.2039-.575zm-2.7961 16.575a7.0078 7.0078 0 0 1 -7 7h-12.877a2.9961 2.9961 0 0 1 -2.9106-2.2729l-1.2422-4.97a1 1 0 0 0 -.9702-.7571h-4a1 1 0 0 0 -.97.7573l-1.2422 4.97a2.9961 2.9961 0 0 1 -2.9108 2.2727h-12.877a7.0078 7.0078 0 0 1 -7-7v-11h54zm1-13h-56v-2h56z"/></svg>