<?xml version="1.0"?>
<svg xmlns="http://www.w3.org/2000/svg" id="Filled_Expand" data-name="Filled Expand" viewBox="0 0 64 64" width="512" height="512"><defs><style>.cls-1{fill:#eaba2c;}.cls-2{fill:#5f5f5f;}.cls-3{fill:#cae7de;}.cls-4{fill:#f5dc3d;}</style></defs><path class="cls-1" d="M61,34c0-6.6274-12.9837-12-29-12S3,27.3726,3,34V26c0-6.6274,12.9837-12,29-12s29,5.3726,29,12Z"/><path class="cls-2" d="M47,50H37.5612a2,2,0,0,1-1.94-1.515L34,42H30l-1.6209,6.485A2,2,0,0,1,26.4388,50H17a8,8,0,0,1-8-8V32a2,2,0,0,1,2-2H53a2,2,0,0,1,2,2V42A8,8,0,0,1,47,50Z"/><path class="cls-3" d="M39.123,46l-2-8H26.877l-2,8H17a4.0045,4.0045,0,0,1-4-4V34H51v8a4.0045,4.0045,0,0,1-4,4Z"/><path class="cls-4" d="M9,32.3055C5.24,30.2819,3,27.75,3,25v8c0,2.75,2.24,5.2819,6,7.3055Z"/><path class="cls-4" d="M55,32.3055v8C58.76,38.2819,61,35.75,61,33V25C61,27.75,58.76,30.2819,55,32.3055Z"/><path d="M51,33H13a1,1,0,0,0-1,1v8a5.0059,5.0059,0,0,0,5,5h7.877a1,1,0,0,0,.97-.7573L27.6577,39h8.6846l1.81,7.2427a1,1,0,0,0,.97.7573H47a5.0059,5.0059,0,0,0,5-5V34A1,1,0,0,0,51,33Zm-1,9a3.0033,3.0033,0,0,1-3,3H39.9038l-1.81-7.2427A1,1,0,0,0,37.123,37H26.877a1,1,0,0,0-.97.7573L24.0962,45H17a3.0033,3.0033,0,0,1-3-3V35H50Z"/><path d="M61.9927,24.8774C61.1436,17.9951,48.53,13,32,13S2.8564,17.9951,2.0073,24.8774A1.0239,1.0239,0,0,0,2,25v8c0,2.9237,2.0858,5.6351,6,7.8766V42a9.01,9.01,0,0,0,9,9h9.439a2.9948,2.9948,0,0,0,2.91-2.2725L30.7808,43h2.4384l1.4317,5.7271A2.9947,2.9947,0,0,0,37.561,51H47a9.01,9.01,0,0,0,9-9V40.8766c3.9142-2.2415,6-4.9529,6-7.8766V25A1.0239,1.0239,0,0,0,61.9927,24.8774ZM32,15C46.9512,15,59.2188,19.4146,60,25.061a5.0693,5.0693,0,0,1-1.2039,2.9982C53.7925,23.7468,43.4784,21,32,21S10.2075,23.7468,5.2044,28.0592A5.0693,5.0693,0,0,1,4,25.061C4.7812,19.4146,17.0488,15,32,15ZM55.71,30.7339A2.9967,2.9967,0,0,0,53,29H11a2.9966,2.9966,0,0,0-2.71,1.7339,14.7353,14.7353,0,0,1-1.6884-1.24C11.23,25.5811,21.2033,23,32,23s20.77,2.5811,25.3982,6.4935A14.7664,14.7664,0,0,1,55.71,30.7339ZM4,33V29.7492a15.6036,15.6036,0,0,0,4,3.1274v5.6626C5.4147,36.8357,4,34.9051,4,33Zm50,9a7.0078,7.0078,0,0,1-7,7H37.561a.9977.9977,0,0,1-.97-.7578L34.97,41.7573A1,1,0,0,0,34,41H30a1,1,0,0,0-.97.7573l-1.6211,6.4854a.9978.9978,0,0,1-.97.7573H17a7.0078,7.0078,0,0,1-7-7V32a1.0013,1.0013,0,0,1,1-1H53a1.0013,1.0013,0,0,1,1,1Zm6-9c0,1.9051-1.4147,3.8357-4,5.5392V32.8766a15.6036,15.6036,0,0,0,4-3.1274Z"/></svg>
