<svg id="Filled_Expand" height="512" viewBox="0 0 64 64" width="512" xmlns="http://www.w3.org/2000/svg" data-name="Filled Expand"><path d="m4 16h56v8h-56z" fill="#7e7e7e"/><path d="m17 3h30a8 8 0 0 1 8 8v27a23 23 0 0 1 -23 23 23 23 0 0 1 -23-23v-27a8 8 0 0 1 8-8z" fill="#4e4e4e"/><path d="m16 11h32v20h-32z" fill="#acacac"/><path d="m20 15h24v12h-24z" fill="#7e7e7e"/><path d="m60 15h-4v-4a9.01 9.01 0 0 0 -9-9h-30a9.01 9.01 0 0 0 -9 9v4h-4a1 1 0 0 0 -1 1v8a1 1 0 0 0 1 1h4v13a24 24 0 0 0 48 0v-13h4a1 1 0 0 0 1-1v-8a1 1 0 0 0 -1-1zm-55 8v-6h3v6zm49 15a22 22 0 0 1 -44 0v-27a7.0078 7.0078 0 0 1 7-7h30a7.0078 7.0078 0 0 1 7 7zm5-15h-3v-6h3z"/><path d="m48 10h-32a1 1 0 0 0 -1 1v20a1 1 0 0 0 1 1h32a1 1 0 0 0 1-1v-20a1 1 0 0 0 -1-1zm-1 20h-30v-18h30z"/><path d="m20 28h24a1 1 0 0 0 1-1v-12a1 1 0 0 0 -1-1h-24a1 1 0 0 0 -1 1v12a1 1 0 0 0 1 1zm1-12h22v10h-22z"/></svg>