<?xml version="1.0"?>
<svg xmlns="http://www.w3.org/2000/svg" id="Filled_Expand" data-name="Filled Expand" viewBox="0 0 64 64" width="512" height="512"><defs><style>.cls-1{fill:#edd5c5;}.cls-2{fill:#e3bba1;}.cls-3{fill:#f0c62f;}</style></defs><path class="cls-1" d="M17,11h0A15,15,0,0,0,2,26H2a10.2489,10.2489,0,0,0,3.577,7.78h0A4.077,4.077,0,0,1,7,36.8746v8.0493A8.0761,8.0761,0,0,0,15.0761,53h0a8.0726,8.0726,0,0,0,8.0759-8.0107c0-.0792.001-.1251.0015-.1322.1867-2.7133,1.7116-4.8758,3.7872-6.81A16.3985,16.3985,0,0,0,32,26.2857V26A15,15,0,0,0,17,11Z"/><path class="cls-2" d="M11.6969,46H13a7,7,0,0,0,7-7V35s6-3,6-8.6305V26a9,9,0,0,0-9-9h0a9,9,0,0,0-9,9v1.4031a2.9618,2.9618,0,0,0,2.7348,2.9682,2.8883,2.8883,0,0,0,3.1034-2.7862v-.0239a3.9094,3.9094,0,0,1,3.9083-3.9094h.1165a3.7952,3.7952,0,0,1,3.7962,3.7952V27.55a4.29,4.29,0,0,1-4.2865,4.3009h-.0013A1.3714,1.3714,0,0,0,16,33.2226V39a3,3,0,0,1-3,3H11.6969"/><path class="cls-3" d="M50,47H41a6,6,0,0,1,0-12h9l4-2V49Z"/><path d="M17,10A16.0183,16.0183,0,0,0,1,26a11.235,11.235,0,0,0,3.9268,8.5391A3.0741,3.0741,0,0,1,6,36.8745v8.0493a9.0763,9.0763,0,0,0,18.1523.0655l-.0009-.064c.1455-2.1221,1.248-4.0752,3.4707-6.1465A17.34,17.34,0,0,0,33,26.2856V26A16.0183,16.0183,0,0,0,17,10ZM31,26.2856a15.3072,15.3072,0,0,1-4.7412,11.03c-2.6162,2.4385-3.92,4.813-4.1055,7.5386l-.001.1279A7.0763,7.0763,0,0,1,8,44.9238V36.8745a5.07,5.07,0,0,0-1.7715-3.854A9.2382,9.2382,0,0,1,3,26a14,14,0,0,1,28,0Z"/><path d="M17,16A10.0114,10.0114,0,0,0,7,26v1.4033a3.9356,3.9356,0,0,0,6.6113,2.9248,3.7949,3.7949,0,0,0,1.2266-2.7671,2.9123,2.9123,0,0,1,2.9082-2.9091h.1182a2.7957,2.7957,0,0,1,2.7949,2.7949V27.55a3.2981,3.2981,0,0,1-3.2881,3.3008A2.3739,2.3739,0,0,0,15,33.2227V39a2.0023,2.0023,0,0,1-2,2H11.6973a1,1,0,1,0,0,2H13a4.0042,4.0042,0,0,0,4-4V33.2227a.3724.3724,0,0,1,.373-.3716A5.2994,5.2994,0,0,0,22.6592,27.55v-.1035a4.7954,4.7954,0,0,0-4.7949-4.7949h-.1182a4.9164,4.9164,0,0,0-4.9082,4.916A1.7873,1.7873,0,0,1,12.252,28.86a1.9427,1.9427,0,0,1-1.4581.5126A1.97,1.97,0,0,1,9,27.4033V26a8,8,0,0,1,16,0v.37c0,4.9307-5.3945,7.7095-5.4492,7.7368A1.0026,1.0026,0,0,0,19,35v4a6.0066,6.0066,0,0,1-6,6H11.6973a1,1,0,1,0,0,2H13a8.0092,8.0092,0,0,0,8-8V35.5864c1.5889-.9463,6-4.0415,6-9.2168V26A10.0114,10.0114,0,0,0,17,16Z"/><path d="M58,16H38a1,1,0,0,0,0,2H58a3.0033,3.0033,0,0,1,3,3V37a3.0033,3.0033,0,0,1-3,3H55V33a1,1,0,0,0-1.4473-.8945L49.7637,34H41a7,7,0,0,0,0,14h8.7637l3.789,1.8945A1,1,0,0,0,55,49V42h3a5.0059,5.0059,0,0,0,5-5V21A5.0059,5.0059,0,0,0,58,16ZM53,47.3818l-2.5527-1.2763A1,1,0,0,0,50,46H41a5,5,0,0,1,0-10h9a1,1,0,0,0,.4473-.1055L53,34.6182Z"/></svg>
