<svg id="Filled_Expand" height="512" viewBox="0 0 64 64" width="512" xmlns="http://www.w3.org/2000/svg" data-name="Filled Expand"><path d="m56.9512 40a24.996 24.996 0 0 0 -49.9024 0l-3.0488 2v6s5 4 28 4 28-4 28-4v-6z" fill="#f5dc3d"/><path d="m25 21-2-7h18l-2 7" fill="#f5dc3d"/><path d="m60.5488 41.1641-2.6338-1.7281a25.8345 25.8345 0 0 0 -16.7822-22.2591l.8291-2.902a1 1 0 0 0 -.9619-1.2749h-8v-1a1 1 0 0 0 -2 0v1h-8a1 1 0 0 0 -.9619 1.2749l.8288 2.9008a25.8356 25.8356 0 0 0 -16.7819 22.2603l-2.6338 1.7281a1 1 0 0 0 -.4512.8359v6a.999.999 0 0 0 .375.7808c.2158.1723 5.54 4.2192 28.625 4.2192s28.4092-4.0469 28.625-4.2192a.999.999 0 0 0 .375-.7808v-6a1 1 0 0 0 -.4512-.8359zm-1.5488 6.2759c-1.5273.81-8.1152 3.56-27 3.56-18.9 0-25.4756-2.75-27-3.56v-4.9l2.5977-1.7041a1.0008 1.0008 0 0 0 .4492-.7768 23.8485 23.8485 0 0 1 15.3711-20.9547l.62 2.1705a1 1 0 0 0 1.9238-.55l-1.6356-5.7249h6.6738v7a1 1 0 0 0 2 0v-7h6.6738l-1.6357 5.7251a1 1 0 1 0 1.9238.55l.62-2.1705a23.8485 23.8485 0 0 1 15.3712 20.9545 1.0008 1.0008 0 0 0 .4492.7768l2.5977 1.7041z"/><path d="m52 40h-40a1 1 0 0 0 0 2h40a1 1 0 0 0 0-2z"/></svg>