<svg id="Filled_Expand" height="512" viewBox="0 0 64 64" width="512" xmlns="http://www.w3.org/2000/svg" data-name="Filled Expand"><path d="m50.5 35.5-3.9248-19h-14.5152a20.5612 20.5612 0 0 0 -20.56 20.3165" fill="#f0c62f"/><path d="m50.5 38.5v-1a22 22 0 0 0 -44 0v2h-3v4h42l15 3v-4z" fill="#f5dc3d"/><path d="m24.5 37.5h8v6h-8z" fill="#f0c62f"/><path d="m6.5 43.5 1 5 26-5z" fill="#5f5f5f"/><path d="m28.5 20.5c-7.168 0-13 4.9346-13 11a1 1 0 0 0 2 0c0-4.9624 4.9346-9 11-9s11 4.0376 11 9a1 1 0 0 0 2 0c0-6.0654-5.832-11-13-11z"/><path d="m60.8711 41.5713-9.3711-3.7485v-.3228a22.9326 22.9326 0 0 0 -.824-6.0878h.0008l-3.1221-15.1143a1 1 0 0 0 -.9795-.7979h-11.3688a22.9984 22.9984 0 0 0 -29.7064 22v1h-2a1 1 0 0 0 -1 1v4a1 1 0 0 0 1 1h2.18l.84 4.1963a.999.999 0 0 0 1.169.7856l25.9055-4.9819h11.8069l14.9023 2.98a.9993.9993 0 0 0 .83-.2071 1.0008 1.0008 0 0 0 .3663-.7729v-4a1.0009 1.0009 0 0 0 -.6289-.9287zm-15.1104-24.0713 1.3421 6.4976a23.166 23.166 0 0 0 -7.2664-6.4976zm-37.4746 29.8306-.5661-2.8306h15.2853zm23.2139-4.8306h-6v-4h6zm28 2.78-13.8037-2.76a.9833.9833 0 0 0 -.1963-.02h-12v-5a1 1 0 0 0 -1-1h-8a1 1 0 0 0 -1 1v5h-19v-2h2a1 1 0 0 0 1-1v-2a21 21 0 0 1 42 0v1a1.0009 1.0009 0 0 0 .6289.9287l9.3711 3.7485z"/></svg>