<?xml version="1.0"?>
<svg xmlns="http://www.w3.org/2000/svg" id="Filled_Expand" data-name="Filled Expand" viewBox="0 0 64 64" width="512" height="512"><defs><style>.cls-1{fill:#f1f1f1;}</style></defs><path class="cls-1" d="M41.3717,19.9039C39.1727,15.0911,35.795,12,32,12s-7.1727,3.0911-9.3717,7.9039C15.166,23.1035,10,30.002,10,38c0,11.0457,9.85,20,22,20s22-8.9543,22-20C54,30.002,48.834,23.1035,41.3717,19.9039Z"/><path d="M32,5C15.458,5,2,14.062,2,25.2V31c0,3.1537,2.5057,6.1423,7.0618,8.46C9.8864,50.36,19.8559,59,32,59s22.1136-8.64,22.9382-19.54C59.4943,37.1423,62,34.1537,62,31V25.2C62,14.062,48.542,5,32,5Zm0,52c-11.58,0-21-8.5234-21-19,0-7.3032,4.7192-14.0454,12.0225-17.1772a1,1,0,0,0,.5156-.5035C25.6631,15.668,28.7476,13,32,13s6.3369,2.668,8.4619,7.3193a1,1,0,0,0,.5156.5035C48.2808,23.9546,53,30.6968,53,38,53,48.4766,43.58,57,32,57ZM60,31c0,2.1661-1.7751,4.3278-5.0323,6.1781-.3334-7.6643-5.2815-14.6479-12.849-18.0389C39.6533,13.9609,35.9805,11,32,11s-7.6533,2.9609-10.1187,8.1392C14.3138,22.53,9.3657,29.5138,9.0323,37.1781,5.7751,35.3278,4,33.1661,4,31V25.2C4,15.1646,16.5605,7,32,7s28,8.1646,28,18.2Z"/><path d="M22.0005,30a.9948.9948,0,0,0,.6162-.2129C24.3164,28.4556,29.3149,25,32,25c2.6812,0,7.6826,3.4556,9.3833,4.7871a1,1,0,1,0,1.2334-1.5742C41.9355,27.6792,35.8521,23,32,23s-9.9355,4.6792-10.6167,5.2129A1,1,0,0,0,22.0005,30Z"/><path d="M20.5586,35.9072A31.4012,31.4012,0,0,0,32,37.998a31.4012,31.4012,0,0,0,11.4414-2.0908,1,1,0,1,0-.7344-1.86,30.71,30.71,0,0,1-21.414,0,1,1,0,1,0-.7344,1.86Z"/><path d="M44.5337,40.2358a29.7839,29.7839,0,0,1-25.0674,0,1,1,0,1,0-.8935,1.7891A30.4257,30.4257,0,0,0,32,44.9878a30.4257,30.4257,0,0,0,13.4272-2.9629,1,1,0,1,0-.8935-1.7891Z"/><path d="M41.7871,48.397a31.0237,31.0237,0,0,1-19.5742,0,1,1,0,0,0-.66,1.8877,32.6461,32.6461,0,0,0,20.8946,0,1,1,0,0,0-.66-1.8877Z"/></svg>
