<svg id="Filled_Expand" height="512" viewBox="0 0 64 64" width="512" xmlns="http://www.w3.org/2000/svg" data-name="Filled Expand"><path d="m50 42h10v16h-10z" fill="#9d9d9d"/><path d="m4 42h10v16h-10z" fill="#9d9d9d" transform="matrix(-1 0 0 -1 18 100)"/><path d="m14 46h36v8h-36z" fill="#4e4e4e"/><path d="m32 4a16 16 0 0 1 16 16v4a0 0 0 0 1 0 0h-32a0 0 0 0 1 0 0v-4a16 16 0 0 1 16-16z" fill="#4e4e4e"/><path d="m44 16h-24a12 12 0 0 0 0 24v6h24v-6a12 12 0 0 0 0-24z" fill="#5f5f5f"/><path d="m42 52c0 6.6274-4.4772 8-10 8s-10-1.3726-10-8 4.4772-12 10-12 10 5.3726 10 12z" fill="#acacac"/><circle cx="44" cy="28" fill="#acacac" r="8"/><circle cx="44" cy="28" fill="#cae7de" r="4"/><circle cx="20" cy="28" fill="#acacac" r="8"/><circle cx="20" cy="28" fill="#cae7de" r="4"/><circle cx="32" cy="51" fill="#5f5f5f" r="4"/><path d="m60 41h-10a1 1 0 0 0 -1 1v3h-4v-4.0381a12.9905 12.9905 0 0 0 3.4515-25.16 16.9718 16.9718 0 0 0 -32.903 0 12.9905 12.9905 0 0 0 3.4515 25.16v4.0381h-4v-3a1 1 0 0 0 -1-1h-10a1 1 0 0 0 -1 1v16a1 1 0 0 0 1 1h10a1 1 0 0 0 1-1v-3h6.3667c1.3909 5.2983 6.5795 6 10.6333 6s9.2424-.7017 10.6333-6h6.3667v3a1 1 0 0 0 1 1h10a1 1 0 0 0 1-1v-16a1 1 0 0 0 -1-1zm-47 16h-8v-14h8zm19-52a15.0886 15.0886 0 0 1 14.1934 10.2 12.9783 12.9783 0 0 0 -2.1934-.2h-24a12.9783 12.9783 0 0 0 -2.1934.2 15.0886 15.0886 0 0 1 14.1934-10.2zm-12 34a11 11 0 0 1 0-22h24a11 11 0 0 1 0 22 1 1 0 0 0 -1 1v5h-1.7456c-1.9578-3.6024-5.37-6-9.2544-6s-7.2966 2.3976-9.2544 6h-1.7456v-5a1 1 0 0 0 -1-1zm-5 14v-6h6.8486a14.9791 14.9791 0 0 0 -.8486 5c0 .3525.0268.6743.05 1zm17 6c-6.3926 0-9-2.0278-9-7 0-6.0654 4.0376-11 9-11s9 4.9346 9 11c0 4.9722-2.6074 7-9 7zm10.95-6c.0233-.3257.05-.6475.05-1a14.9791 14.9791 0 0 0 -.8486-5h6.8486v6zm16.05 4h-8v-14h8z"/><path d="m44 37a9 9 0 1 0 -9-9 9.01 9.01 0 0 0 9 9zm0-16a7 7 0 1 1 -7 7 7.0078 7.0078 0 0 1 7-7z"/><path d="m44 33a5 5 0 1 0 -5-5 5.0059 5.0059 0 0 0 5 5zm0-8a3 3 0 1 1 -3 3 3.0033 3.0033 0 0 1 3-3z"/><path d="m29 28a9 9 0 1 0 -9 9 9.01 9.01 0 0 0 9-9zm-9 7a7 7 0 1 1 7-7 7.0078 7.0078 0 0 1 -7 7z"/><path d="m20 23a5 5 0 1 0 5 5 5.0059 5.0059 0 0 0 -5-5zm0 8a3 3 0 1 1 3-3 3.0033 3.0033 0 0 1 -3 3z"/><path d="m32 46a5 5 0 1 0 5 5 5.0059 5.0059 0 0 0 -5-5zm0 8a3 3 0 1 1 3-3 3.0033 3.0033 0 0 1 -3 3z"/></svg>