<svg id="Filled_Expand" height="512" viewBox="0 0 64 64" width="512" xmlns="http://www.w3.org/2000/svg" data-name="Filled Expand"><path d="m14.728 42.772h12v10h-12z" fill="#4e4e4e" transform="matrix(.707 .707 -.707 .707 39.851 -.665)"/><path d="m6.778 50.722h18v4h-18z" fill="#9d9d9d" transform="matrix(.707 .707 -.707 .707 41.901 4.285)"/><path d="m37.272 42.772h12v10h-12z" fill="#4e4e4e" transform="matrix(-.707 .707 -.707 -.707 107.65 50.954)"/><path d="m39.222 50.722h18v4h-18z" fill="#9d9d9d" transform="matrix(-.707 .707 -.707 -.707 119.6 55.904)"/><path d="m51 26.3261c0 13.8071-8.5066 27.1739-19 27.1739s-19-13.3668-19-27.1739 8.5066-22.8261 19-22.8261 19 9.019 19 22.8261z" fill="#5f5f5f"/><circle cx="32" cy="41.5" fill="#9d9d9d" r="8"/><circle cx="32" cy="41.5" fill="#5f5f5f" r="4"/><path d="m34 23.5c0 4.4183 5.8294 10 10.8 10s7.2-3.5817 7.2-8-2.2294-8-7.2-8-10.8 1.5817-10.8 6z" fill="#cae7de"/><path d="m30 23.5c0 4.4183-5.8294 10-10.8 10s-7.2-3.5817-7.2-8 2.2294-8 7.2-8 10.8 1.5817 10.8 6z" fill="#cae7de"/><path d="m56.707 47.0649-2.8286-2.8281a1 1 0 0 0 -1.414 0l-1.4144 1.4141-3.0064-3.0064a35.0964 35.0964 0 0 0 3.6574-11.7986 10.4473 10.4473 0 0 0 1.299-5.3459 9.9167 9.9167 0 0 0 -1.7739-6.0548c-2.3385-10.3005-9.8561-16.9452-19.2261-16.9452s-16.8876 6.6447-19.2261 16.9452a9.9167 9.9167 0 0 0 -1.7739 6.0548 10.4473 10.4473 0 0 0 1.299 5.3459 35.0964 35.0964 0 0 0 3.6571 11.7986l-3.0061 3.0064-1.4141-1.4141a1 1 0 0 0 -1.414 0l-2.8289 2.8281a1 1 0 0 0 0 1.4141l12.728 12.728a1 1 0 0 0 1.4141 0l2.8281-2.8286a1 1 0 0 0 0-1.414l-1.4141-1.4144 2.7009-2.7a13.43 13.43 0 0 0 12.9 0l2.7009 2.7-1.4141 1.4141a1 1 0 0 0 0 1.414l2.8281 2.8286a1 1 0 0 0 1.4141 0l12.728-12.7277a1 1 0 0 0 0-1.4141zm-5.707-21.5649c0 2.1045-.604 7-6.2 7-4.3047 0-9.8-5.0469-9.8-9 0-3.9468 6.16-5 9.8-5 5.596 0 6.2 4.8955 6.2 7zm-38 0c0-2.1045.604-7 6.2-7 3.64 0 9.8 1.0532 9.8 5 0 3.9531-5.4951 9-9.8 9-5.596 0-6.2-4.8955-6.2-7zm7.728 33.5859-11.3139-11.3139 1.4145-1.4141 11.3135 11.3135zm.7071-4.95-7.0713-7.0713 2.6172-2.6171a23.9508 23.9508 0 0 0 6.7962 7.3463zm-6.6888-20.7959a8.4441 8.4441 0 0 0 4.4537 1.16c5.4038 0 11.8-5.9624 11.8-11 0-5.1665-6.3564-7-11.8-7a8.8032 8.8032 0 0 0 -3.7273.7729c2.7045-7.8446 8.9428-12.7729 16.5273-12.7729s13.8228 4.9283 16.5271 12.7729a8.8032 8.8032 0 0 0 -3.7271-.7729c-5.4434 0-11.8 1.8335-11.8 7 0 5.0376 6.396 11 11.8 11a8.4441 8.4441 0 0 0 4.4539-1.16c-2.2939 10.9558-9.4979 19.16-17.2539 19.16s-14.96-8.2042-17.2537-19.16zm25.4765 18.4541a23.9508 23.9508 0 0 0 6.7962-7.3463l2.6172 2.6171-7.0713 7.0713zm3.0492 7.2918-1.4141-1.4145 11.3135-11.3135 1.4145 1.4141z"/><path d="m32 32.5a9 9 0 1 0 9 9 9.01 9.01 0 0 0 -9-9zm0 16a7 7 0 1 1 7-7 7.0078 7.0078 0 0 1 -7 7z"/><path d="m32 36.5a5 5 0 1 0 5 5 5.0059 5.0059 0 0 0 -5-5zm0 8a3 3 0 1 1 3-3 3.0033 3.0033 0 0 1 -3 3z"/></svg>