<svg id="Filled_Expand" height="512" viewBox="0 0 64 64" width="512" xmlns="http://www.w3.org/2000/svg" data-name="Filled Expand"><path d="m45.1525 15.5483.1151.1993a22.0043 22.0043 0 1 0 -36.8523 22.1759 26.3268 26.3268 0 0 1 4.7906-.4513c7.0332 0 13.797 4.5236 16.7724 6.8457l8.3935 6.3221 13.8564-8z" fill="#5f5f5f"/><path d="m39.0673 46.1847h16.1862a1.9069 1.9069 0 0 1 1.9065 1.907v6.0931a0 0 0 0 1 0 0h-20a0 0 0 0 1 0 0v-6.0931a1.9069 1.9069 0 0 1 1.9073-1.907z" fill="#f5dc3d" transform="matrix(.866 -.5 .5 .866 -18.774 30.304)"/><circle cx="34.42" cy="24.612" fill="#cae7de" r="7.999"/><path d="m34.42 33.61a8.9986 8.9986 0 1 1 8.999-8.9985 9.0082 9.0082 0 0 1 -8.999 8.9985zm0-15.9971a6.9986 6.9986 0 1 0 6.999 6.9986 7.0066 7.0066 0 0 0 -6.999-6.9985z" fill="#acacac"/><path d="m38.16 53.381h24v4h-24z" fill="#eaba2c" transform="matrix(.866 -.5 .5 .866 -20.97 32.5)"/><path d="m62.4189 50.613-2-3.4643a1.0008 1.0008 0 0 0 -1.3662-.3662l-.8663.5-2.5464-4.4107a2.9023 2.9023 0 0 0 -2.6914-1.4347l-6.6859-25.5931a.9972.9972 0 0 0 -.05-.4214 22.996 22.996 0 0 0 -33.2557-12.459 23 23 0 0 0 -8.4189 31.419 23.1991 23.1991 0 0 0 3.1464 4.2246 1.0024 1.0024 0 0 0 .9122.3 25.4325 25.4325 0 0 1 4.6093-.4346c6.9112 0 13.6016 4.6392 16.1709 6.6445l7.396 5.57a2.8945 2.8945 0 0 0 -.185 3.185l2.546 4.41-.8654.5a1 1 0 0 0 -.3662 1.3662l2 3.4643a1.0012 1.0012 0 0 0 .6074.4658.99.99 0 0 0 .2588.0342 1.0013 1.0013 0 0 0 .5-.1338l20.7842-12a1 1 0 0 0 .3662-1.3658zm-31.8252-7.083c-2.7187-2.1216-9.8554-7.0571-17.3877-7.0571a27.2513 27.2513 0 0 0 -4.4228.3716 20.9955 20.9955 0 1 1 35.37-21.2427 1.0159 1.0159 0 0 0 .0312.2l6.8836 26.353-12.623 7.2881zm7.7256 9.3423a.9057.9057 0 0 1 .332-1.2383l14.0176-8.094a.9085.9085 0 0 1 1.2393.332l2.546 4.41-1.7316 1-1.5-2.5978a1 1 0 1 0 -1.7324 1l1.5 2.5979-3.4639 2-1.5-2.5978a1 1 0 1 0 -1.7324 1l1.5 2.598-3.4639 2-1.5-2.598a1 1 0 0 0 -1.7325 1l1.5 2.5981-1.7316 1zm2.8154 8.875-1-1.7319 19.0518-11 1 1.7319z"/><path d="m43.4189 24.6116a8.9986 8.9986 0 1 0 -8.9989 8.9984 9.009 9.009 0 0 0 8.9989-8.9984zm-8.9989 6.9984a6.9986 6.9986 0 1 1 6.999-6.9985 7.0066 7.0066 0 0 1 -6.999 6.9985z"/></svg>