<svg id="Filled_Expand" height="512" viewBox="0 0 64 64" width="512" xmlns="http://www.w3.org/2000/svg" data-name="Filled Expand"><path d="m18 37h2a4 4 0 0 1 4 4v12a4 4 0 0 1 -4 4h-2a0 0 0 0 1 0 0v-20a0 0 0 0 1 0 0z" fill="#5f5f5f"/><path d="m18 57-8-4v-11l8-5z" fill="#f5dc3d"/><path d="m40 37h2a4 4 0 0 1 4 4v12a4 4 0 0 1 -4 4h-2a0 0 0 0 1 0 0v-20a0 0 0 0 1 0 0z" fill="#5f5f5f" transform="matrix(-1 0 0 -1 86 94)"/><path d="m46 57 8-4v-11l-8-5z" fill="#f5dc3d"/><path d="m32 7a24.0409 24.0409 0 0 0 -23.5361 19.2907 3.9843 3.9843 0 0 0 3.9428 4.7093 3.9957 3.9957 0 0 0 3.9149-3.2007 16.0022 16.0022 0 0 1 31.3568 0 3.9957 3.9957 0 0 0 3.9149 3.2007 3.9843 3.9843 0 0 0 3.9428-4.7093 24.0409 24.0409 0 0 0 -23.5361-19.2907z" fill="#5f5f5f"/><path d="m56.2555 25.0342a24.9716 24.9716 0 0 0 -48.511 0 5.0745 5.0745 0 0 0 -4.7445 5.0493v10.5918a6.9924 6.9924 0 0 0 4.7861 6.6411l1.2139.4045v5.2791a1 1 0 0 0 .5527.8945l8 4a1 1 0 0 0 .4473.1055h2a5.0059 5.0059 0 0 0 5-5v-12a5.0059 5.0059 0 0 0 -5-5h-2a1.0026 1.0026 0 0 0 -.53.1519l-8 5a1.0013 1.0013 0 0 0 -.47.8481v3.6126l-.5811-.1937a4.9936 4.9936 0 0 1 -3.4189-4.7436v-10.5918a3.0843 3.0843 0 0 1 2.3931-2.9992 4.8888 4.8888 0 0 0 1.1157 3.069 5.01 5.01 0 0 0 8.792-2.1543 15.0031 15.0031 0 0 1 29.3984 0 5.01 5.01 0 0 0 8.792 2.1548 4.8888 4.8888 0 0 0 1.1157-3.069 3.0843 3.0843 0 0 1 2.3931 2.9987v10.5918a4.9936 4.9936 0 0 1 -3.4189 4.7436l-.5811.1937v-3.6126a1.0013 1.0013 0 0 0 -.47-.8481l-8-5a1.0026 1.0026 0 0 0 -.53-.1519h-2a5.0059 5.0059 0 0 0 -5 5v12a5.0059 5.0059 0 0 0 5 5h2a1 1 0 0 0 .4473-.1055l8-4a1 1 0 0 0 .5527-.8945v-5.2791l1.2139-.4045a6.9924 6.9924 0 0 0 4.7861-6.6411v-10.5918a5.0745 5.0745 0 0 0 -4.7445-5.0493zm-33.2555 15.9658v12a3.0033 3.0033 0 0 1 -3 3h-1v-18h1a3.0033 3.0033 0 0 1 3 3zm-12 1.5542 6-3.75v16.5776l-6-3zm42.9453-13.6689a3.0108 3.0108 0 0 1 -5.2871-1.2853 17.0021 17.0021 0 0 0 -33.3164 0 3.0109 3.0109 0 0 1 -5.2871 1.2852 2.8844 2.8844 0 0 1 -.61-2.399 23.0036 23.0036 0 0 1 45.1114 0 2.8844 2.8844 0 0 1 -.6108 2.3991zm-12.9453 24.1147v-12a3.0033 3.0033 0 0 1 3-3h1v18h-1a3.0033 3.0033 0 0 1 -3-3zm12-.6182-6 3v-16.5774l6 3.75z"/></svg>