<svg id="Filled_Expand" height="512" viewBox="0 0 64 64" width="512" xmlns="http://www.w3.org/2000/svg" data-name="Filled Expand"><path d="m61 29c0-6.6274-12.9837-12-29-12s-29 5.3726-29 12v-8c0-6.6274 12.9837-12 29-12s29 5.3726 29 12z" fill="#eaba2c"/><path d="m61 21c0 6.6274-12.9837 12-29 12s-29-5.3726-29-12v8c0 6.6274 12.9837 12 29 12s29-5.3726 29-12z" fill="#f5dc3d"/><path d="m37 15h-10l-11 11v11c0 9.9411 7.1634 18 16 18s16-8.0589 16-18v-11z" fill="#7e7e7e"/><path d="m49.8681 33.8679c-4.2061-1.3528-8.9867 1.8126-10.6777 7.07s.3478 10.6164 4.5539 11.9692l5.7118 1.8372 6.1239-19.0392z" fill="#5f5f5f"/><ellipse cx="52.518" cy="45.225" fill="#7e7e7e" rx="10" ry="6" transform="matrix(.306 -.952 .952 .306 -6.615 81.373)"/><path d="m14.1319 33.8679c4.2061-1.3528 8.9867 1.8126 10.6777 7.07s-.3478 10.6164-4.5539 11.9692l-5.7118 1.8372-6.1239-19.0392z" fill="#5f5f5f"/><ellipse cx="11.482" cy="45.225" fill="#7e7e7e" rx="6" ry="10" transform="matrix(.952 -.306 .306 .952 -13.296 5.688)"/><path d="m35 35h-6a1 1 0 0 0 0 2h6a1 1 0 0 0 0-2z"/><path d="m35 31h-6a1 1 0 0 0 0 2h6a1 1 0 0 0 0-2z"/><path d="m62 29v-8c0-7.29-13.1777-13-30-13s-30 5.71-30 13v8c0 2.4689 1.4974 4.7956 4.3228 6.8114a7.228 7.228 0 0 0 -2.0181 3.7535 14.9453 14.9453 0 0 0 .5137 7.8033 14.9488 14.9488 0 0 0 4.1308 6.64 6.8591 6.8591 0 0 0 4.44 1.917 4.774 4.774 0 0 0 1.4619-.228l5.7109-1.8374a7.5362 7.5362 0 0 0 2.0605-1.0469 15.3892 15.3892 0 0 0 18.7558 0 7.5383 7.5383 0 0 0 2.06 1.0468l5.7119 1.8374a4.774 4.774 0 0 0 1.4619.228 6.8591 6.8591 0 0 0 4.44-1.917 14.9488 14.9488 0 0 0 4.1308-6.64 14.9453 14.9453 0 0 0 .5137-7.8033 7.228 7.228 0 0 0 -2.0181-3.7535c2.8241-2.0157 4.3215-4.3424 4.3215-6.8113zm-30-19c15.1777 0 28 5.0376 28 11a4.65 4.65 0 0 1 -.7668 2.45c-3.6636-3.4413-10.7469-6.018-19.3747-7.0055l-2.1515-2.1515a.9993.9993 0 0 0 -.707-.293h-10a.9993.9993 0 0 0 -.707.293l-2.1515 2.1515c-8.6278.9875-15.7115 3.5642-19.3747 7.0055a4.65 4.65 0 0 1 -.7668-2.45c0-5.9624 12.8223-11 28-11zm16.707 15.293-6.511-6.5111c7.0424 1.1218 12.8426 3.3935 15.7679 6.21-1.8717 1.81-4.96 3.4462-8.9639 4.6807v-3.6726a1 1 0 0 0 -.293-.707zm-26.903-6.5111-6.511 6.5111a1 1 0 0 0 -.293.707v3.673c-4.0042-1.2345-7.0922-2.8711-8.9639-4.6807 2.9253-2.8169 8.7255-5.0886 15.7679-6.2104zm-17.804 10.2181v-3.2559c2.1406 2.4292 5.94 4.5237 11 6.0072v.901a7.4142 7.4142 0 0 0 -1.1748.2632l-5.5775 1.7945c-2.0889-1.32-4.2477-3.2724-4.2477-5.71zm2.252 11.02a5.0749 5.0749 0 0 1 1.5822-2.87l2.3894 7.4286-3.7758 1.2148a12.4214 12.4214 0 0 1 -.1958-5.7734zm3.49-3.4714a5.0571 5.0571 0 0 1 2.9556 1.3987 12.4207 12.4207 0 0 1 3.2063 4.8053l-3.7758 1.2144zm.5249 15.9548a12.4235 12.4235 0 0 1 -3.2069-4.8055l3.7757-1.2144 2.3891 7.4277a5.0912 5.0912 0 0 1 -2.9582-1.4083zm6.445-2.0734a5.0758 5.0758 0 0 1 -1.5819 2.8694l-2.39-7.4284 3.7758-1.2144a12.4239 12.4239 0 0 1 .1961 5.7734zm3.2373 1.5249-1.8448.5934a9.1644 9.1644 0 0 0 .5548-1.6642 14.9435 14.9435 0 0 0 -.5137-7.8028 14.95 14.95 0 0 0 -4.1309-6.64 9.1643 9.1643 0 0 0 -1.4213-1.0288l1.8442-.5933c3.6777-1.1782 7.9 1.7007 9.42 6.4243a10.3136 10.3136 0 0 1 -.0478 6.7871 6.2649 6.2649 0 0 1 -3.8605 3.9245zm12.0508 2.0451a13.5843 13.5843 0 0 1 -7.8858-2.5656 9.3435 9.3435 0 0 0 1.5645-2.6917 12.3209 12.3209 0 0 0 .083-8.1109c-1.4477-4.5001-5.0187-7.5836-8.7617-8.0108v-6.2069l10.4141-10.4141h9.1718l10.4141 10.4141v6.207c-3.7416.4276-7.3141 3.5112-8.7617 8.0107a12.3209 12.3209 0 0 0 .083 8.1109 9.3461 9.3461 0 0 0 1.5644 2.6918 13.5841 13.5841 0 0 1 -7.8857 2.5655zm12.05-2.0449a6.2658 6.2658 0 0 1 -3.86-3.9239 10.3136 10.3136 0 0 1 -.0478-6.7871c1.52-4.7241 5.751-7.6035 9.4189-6.4243l1.8455.5937a9.1677 9.1677 0 0 0 -1.4216 1.0284 14.95 14.95 0 0 0 -4.1309 6.64 14.9435 14.9435 0 0 0 -.5137 7.8028 9.16 9.16 0 0 0 .5549 1.6645zm10.2085-15.407-2.386 7.4182-3.7758-1.2145a12.4208 12.4208 0 0 1 3.2062-4.805 5.0571 5.0571 0 0 1 2.9554-1.3987zm-5.3885 16.7512a5.0755 5.0755 0 0 1 -1.5819-2.8693 12.4214 12.4214 0 0 1 .1958-5.7739l3.7761 1.2147zm4.8631-.7964a5.0858 5.0858 0 0 1 -2.9589 1.4092l2.3894-7.4287 3.7764 1.2145a12.4242 12.4242 0 0 1 -3.2066 4.805zm4.0149-12.4829a12.4214 12.4214 0 0 1 -.1958 5.7739l-3.7757-1.2145 2.3893-7.4294a5.0752 5.0752 0 0 1 1.5822 2.87zm-1.9957-5.31-5.5785-1.7942a7.3885 7.3885 0 0 0 -1.1738-.2634v-.9011c5.06-1.4835 8.8594-3.578 11-6.0072v3.2559c0 2.4376-2.1588 4.39-4.2477 5.71z"/></svg>