<svg id="Filled_Expand" height="512" viewBox="0 0 64 64" width="512" xmlns="http://www.w3.org/2000/svg" data-name="Filled Expand"><path d="m46 37.4873h-7a8 8 0 0 1 -8-8v-19.9873h-24v27.8244a13.6227 13.6227 0 0 1 -1.7765 6.231c-.1429.2751-.2235 9.6133-.2235 9.9446l41 3 13-1v-5.0127a13 13 0 0 0 -13-13z" fill="#f5dc3d"/><path d="m47 37.4873h-8a8 8 0 0 1 -8-8v-19.9873h-24v27.8243a13.6228 13.6228 0 0 1 -1.7765 6.2311c-.1429.2751-.2235 8.6133-.2235 8.9446h20a8.0127 8.0127 0 0 1 8.0127-8.0127h3.3715a11.55 11.55 0 0 0 10.6158-7z" fill="#f0c62f"/><path d="m7 5.5h24v4h-24z" fill="#f5dc3d"/><path d="m58.0116 53.6626a69.6649 69.6649 0 0 1 -19.2769-1.3574 33.2338 33.2338 0 0 0 -6.8241-.8052h-28.9106v7h21l2-2.3135h5.6676a28.9439 28.9439 0 0 1 5.9353.7085 71.0168 71.0168 0 0 0 15.3184 1.605q2.5192 0 5.101-.1587l.7853-.0484a2.3354 2.3354 0 0 0 2.1447-1.8658 2.3353 2.3353 0 0 0 -2.4323-2.7959z" fill="#e7b22a"/><path d="m61.18 53.7729a3.3194 3.3194 0 0 0 -1.18-.8638v-2.4218a14.0158 14.0158 0 0 0 -14-14h-7a7.0078 7.0078 0 0 1 -7-7v-23.9873a1 1 0 0 0 -1-1h-24a1 1 0 0 0 -1 1v31.8242a12.4983 12.4983 0 0 1 -1.6641 5.7705c-.1367.2642-.2217.4463-.3052 7.4053h-1.0307a1 1 0 0 0 -1 1v7a1 1 0 0 0 1 1h21a1 1 0 0 0 .7563-.3462l1.7012-1.9673h5.21a27.89 27.89 0 0 1 5.72.6851 72.169 72.169 0 0 0 15.5339 1.6284c1.6958 0 3.4326-.0542 5.1626-.1606l.7851-.0484a3.3355 3.3355 0 0 0 2.3109-5.5181zm-3.18-3.2856v2.1742l-.05.0031a68.6367 68.6367 0 0 1 -19-1.336 34.2987 34.2987 0 0 0 -7.04-.8286h-5.6085a7.0156 7.0156 0 0 1 6.7112-5.0127h3.3716a12.5307 12.5307 0 0 0 11.1932-6.884 12.01 12.01 0 0 1 10.4225 11.884zm-28-43.9873v2h-22v-2zm-23.814 37.37a14.2468 14.2468 0 0 0 1.814-6.5458v-26.8242h22v18.9873a9.01 9.01 0 0 0 9 9h6.3571a10.5365 10.5365 0 0 1 -8.9728 5h-3.3716a9.02 9.02 0 0 0 -8.7805 7.0127h-18.2022c.0515-4.14.1126-6.1192.156-6.63zm53.7862 12.358a1.337 1.337 0 0 1 -1.2261 1.0669l-.7852.0484a73.1068 73.1068 0 0 1 -20.1421-1.4248 30.006 30.006 0 0 0 -6.1513-.732h-5.6675a1 1 0 0 0 -.7563.3462l-1.7012 1.9673h-19.5425v-5h27.9106a32.18 32.18 0 0 1 6.6084.7817 70.6882 70.6882 0 0 0 19.5542 1.3789l.5083-.0312a1.3417 1.3417 0 0 1 1.09.4565 1.3254 1.3254 0 0 1 .3007 1.1421z"/></svg>