<?xml version="1.0"?>
<svg xmlns="http://www.w3.org/2000/svg" id="Filled_Expand" data-name="Filled Expand" viewBox="0 0 64 64" width="512" height="512"><defs><style>.cls-1{fill:#f0c62f;}.cls-2{fill:#f5dc3d;}</style></defs><polygon class="cls-1" points="58 60 40 60 41 42 57 42 58 60"/><path class="cls-2" d="M59.5005,12a2.5,2.5,0,0,0-2.5,2.5V23a.5.5,0,0,1-1,0V8.5a2.5,2.5,0,0,0-5,0V23a.5.5,0,0,1-1,0V6.5a2.5,2.5,0,0,0-5,0V23a.5.5,0,0,1-1,0V8.5a2.5,2.5,0,0,0-5,0V28l-2.2533-5.2576a2.8748,2.8748,0,0,0-5.3441,2.1148L34.0005,32l2.86,8.5811A5,5,0,0,0,41.6043,44H56.0005a6,6,0,0,0,6-6V14.5A2.5,2.5,0,0,0,59.5005,12Z"/><polygon class="cls-1" points="6 4 24 4 23 22 7 22 6 4"/><path class="cls-2" d="M4.5,52A2.5,2.5,0,0,0,7,49.5V41a.5.5,0,0,1,1,0V55.5a2.5,2.5,0,0,0,5,0V41a.5.5,0,0,1,1,0V57.5a2.5,2.5,0,1,0,5,0V41a.5.5,0,0,1,1,0V55.5a2.5,2.5,0,0,0,5,0V36l2.2533,5.2576a2.8748,2.8748,0,0,0,5.3441-2.1148L30,32l-2.86-8.5811A5,5,0,0,0,22.3957,20H8a6,6,0,0,0-6,6V49.5A2.5,2.5,0,0,0,4.5,52Z"/><path d="M59.1251,11a3.826,3.826,0,0,0-1.875.5051V8.875a3.8643,3.8643,0,0,0-5.9745-3.248,3.85,3.85,0,0,0-7.3011,0A3.8643,3.8643,0,0,0,38,8.875V23.1284l-.334-.78a3.8749,3.8749,0,0,0-7.2031,2.8506l2.5883,7.1172,2.86,8.5811A5.9854,5.9854,0,0,0,39.8468,44.73l-.8453,15.214A1,1,0,0,0,40,61H58a1,1,0,0,0,.9985-1.0557L58.15,44.659A7.01,7.01,0,0,0,63,38V14.875A3.8794,3.8794,0,0,0,59.1251,11ZM56.9429,59H41.0572l.7779-14H56c.0556,0,.1095-.0071.1648-.0084ZM61,38a5.0059,5.0059,0,0,1-5,5H41.6041a3.9951,3.9951,0,0,1-3.795-2.7354L34.94,31.6582l-2.5972-7.1426A1.8746,1.8746,0,0,1,34.1046,22a1.8724,1.8724,0,0,1,1.7231,1.1362l2.2534,5.2578A1,1,0,0,0,40,28V8.875a1.875,1.875,0,0,1,3.75,0V23a1,1,0,0,0,2,0V6.875a1.875,1.875,0,0,1,3.75,0V23a1,1,0,0,0,2,0V8.875a1.875,1.875,0,0,1,3.75,0V23a1,1,0,0,0,2,0V14.875a1.875,1.875,0,0,1,3.75,0Z"/><path d="M30.9487,31.6836l-2.86-8.5811A5.9854,5.9854,0,0,0,24.1532,19.27l.8453-15.214A1,1,0,0,0,24,3H6a1,1,0,0,0-.9985,1.0557L5.85,19.341A7.01,7.01,0,0,0,1,26V49.125A3.8794,3.8794,0,0,0,4.8749,53a3.826,3.826,0,0,0,1.875-.5051v2.63a3.8643,3.8643,0,0,0,5.9745,3.248,3.85,3.85,0,0,0,7.3011,0A3.8643,3.8643,0,0,0,26,55.125V40.8716l.3345.78a3.8747,3.8747,0,0,0,7.2026-2.8511ZM7.0571,5H22.9428l-.7779,14H8c-.0556,0-.11.0071-.1648.0084Zm24.374,36.2007A1.852,1.852,0,0,1,29.8954,42a1.8724,1.8724,0,0,1-1.7231-1.1362L25.9189,35.606A1,1,0,0,0,24,36V55.125a1.875,1.875,0,0,1-3.75,0V41a1,1,0,0,0-2,0V57.125a1.875,1.875,0,0,1-3.75,0V41a1,1,0,0,0-2,0V55.125a1.875,1.875,0,0,1-3.75,0V41a1,1,0,0,0-2,0v8.125a1.875,1.875,0,0,1-3.75,0V26a5.0059,5.0059,0,0,1,5-5h14.396a3.9951,3.9951,0,0,1,3.795,2.7354L29.06,32.3418l2.5972,7.1426A1.85,1.85,0,0,1,31.4311,41.2007Z"/></svg>
