<svg id="Filled_Expand" height="512" viewBox="0 0 64 64" width="512" xmlns="http://www.w3.org/2000/svg" data-name="Filled Expand"><path d="m8 29h48a0 0 0 0 1 0 0v10a10 10 0 0 1 -10 10h-28a10 10 0 0 1 -10-10v-10a0 0 0 0 1 0 0z" fill="#5f5f5f"/><path d="m12 29h40a0 0 0 0 1 0 0v24a8 8 0 0 1 -8 8h-24a8 8 0 0 1 -8-8v-24a0 0 0 0 1 0 0z" fill="#cae7de"/><path d="m6 29h6v6h-6z" fill="#f5dc3d"/><path d="m52 29h6v6h-6z" fill="#f5dc3d"/><path d="m32 3a24 24 0 0 0 -24 24v2a144.9982 144.9982 0 0 0 48 0v-2a24 24 0 0 0 -24-24z" fill="#5f5f5f"/><path d="m58 28h-1v-1a25 25 0 0 0 -50 0v1h-1a1 1 0 0 0 -1 1v6a1 1 0 0 0 1 1h1v3a10.8862 10.8862 0 0 0 4 8.4478v5.5522a9.01 9.01 0 0 0 9 9h24a9.01 9.01 0 0 0 9-9v-5.5522a10.8862 10.8862 0 0 0 4-8.4478v-3h1a1 1 0 0 0 1-1v-6a1 1 0 0 0 -1-1zm-26-24a23.0262 23.0262 0 0 1 23 23v1.1441a144.6545 144.6545 0 0 1 -46 0v-1.1441a23.0262 23.0262 0 0 1 23-23zm-25 26h.923q1.5372.2553 3.077.477v3.523h-4zm2 9v-3h2v8.64a8.8941 8.8941 0 0 1 -2-5.64zm35 21h-24a7.0078 7.0078 0 0 1 -7-7v-22.2528a146.7025 146.7025 0 0 0 19 1.2435 146.7014 146.7014 0 0 0 19-1.2435v22.2528a7.0078 7.0078 0 0 1 -7 7zm11-21a8.8941 8.8941 0 0 1 -2 5.64v-8.64h2zm2-5h-4v-3.523q1.54-.2224 3.077-.477h.923z"/></svg>