<svg id="Filled_Expand" height="512" viewBox="0 0 64 64" width="512" xmlns="http://www.w3.org/2000/svg" data-name="Filled Expand"><path d="m32 8a20 20 0 0 1 20 20v4a0 0 0 0 1 0 0h-40a0 0 0 0 1 0 0v-4a20 20 0 0 1 20-20z" fill="#f0c62f"/><path d="m28 4h8v28h-8z" fill="#f5dc3d"/><ellipse cx="32" cy="32" fill="#e7b22a" rx="28" ry="10"/><ellipse cx="32" cy="32" fill="#f5dc3d" rx="18" ry="4"/><path d="m52 36v10a8 8 0 0 1 -8 8h-24a8 8 0 0 1 -8-8v-10a2 2 0 0 0 -2-2 2 2 0 0 0 -2 2v10a12 12 0 0 0 12 12h24a12 12 0 0 0 12-12v-10a2 2 0 0 0 -2-2 2 2 0 0 0 -2 2z" fill="#5f5f5f"/><rect fill="#f5dc3d" height="8" rx="4" width="16" x="24" y="52"/><path d="m61 32c0-3.0784-3.1733-5.8236-8.3732-7.8018a21.0373 21.0373 0 0 0 -15.6268-16.5812v-3.617a1 1 0 0 0 -1-1h-8a1 1 0 0 0 -1 1v3.617a21.0373 21.0373 0 0 0 -15.6268 16.5812c-5.1999 1.9782-8.3732 4.7234-8.3732 7.8018 0 1.4576.7152 3.6025 4 5.7062v8.2938a13.0147 13.0147 0 0 0 13 13h4.0256a4.9785 4.9785 0 0 0 3.9744 2h8a4.9785 4.9785 0 0 0 3.9744-2h4.0256a13.0147 13.0147 0 0 0 13-13v-8.2938c3.2848-2.1037 4-4.2486 4-5.7062zm-10.5711-8.5538a59.0005 59.0005 0 0 0 -13.4289-2.2869v-11.485a19.052 19.052 0 0 1 13.4289 13.7719zm-15.4289-18.4462v16.0556q-1.4772-.0551-3-.0556t-3 .0556v-16.0556zm-8 4.6743v11.485a59.0005 59.0005 0 0 0 -13.4289 2.2869 19.052 19.052 0 0 1 13.4289-13.7719zm-7 47.3257a11.0125 11.0125 0 0 1 -11-11v-10a1 1 0 0 1 2 0v10a9.01 9.01 0 0 0 9 9h3.1011a4.9961 4.9961 0 0 0 0 2zm16-6h-8a4.9785 4.9785 0 0 0 -3.9744 2h-4.0256a7.0081 7.0081 0 0 1 -7-7v-5.621a63.8407 63.8407 0 0 0 19 2.621 63.8407 63.8407 0 0 0 19-2.621v5.621a7.0081 7.0081 0 0 1 -7 7h-4.0256a4.9785 4.9785 0 0 0 -3.9744-2zm0 8h-8a3 3 0 0 1 0-6h8a3 3 0 0 1 0 6zm19-13a11.0125 11.0125 0 0 1 -11 11h-3.1011a4.9961 4.9961 0 0 0 0-2h3.1011a9.01 9.01 0 0 0 9-9v-10a1 1 0 0 1 2 0zm1.9139-10.6843a2.9961 2.9961 0 0 0 -5.9139.6843v2.2733a60.6919 60.6919 0 0 1 -19 2.7267 60.6919 60.6919 0 0 1 -19-2.7267v-2.2733a2.9961 2.9961 0 0 0 -5.9139-.6843 4.5885 4.5885 0 0 1 -2.0861-3.3157c0-4.2568 11.0889-9 27-9s27 4.7432 27 9a4.5887 4.5887 0 0 1 -2.0861 3.3157z"/><path d="m32 27c-7.0566 0-19 1.0532-19 5s11.9434 5 19 5 19-1.0532 19-5-11.9434-5-19-5zm0 8c-10.6055 0-16.7051-1.9644-17.002-2.9824.2969-1.0532 6.3965-3.0176 17.002-3.0176 10.5469 0 16.6387 1.9429 16.9961 3-.3574 1.0571-6.4492 3-16.9961 3z"/></svg>