<svg id="Filled_Expand" height="512" viewBox="0 0 64 64" width="512" xmlns="http://www.w3.org/2000/svg" data-name="Filled Expand"><path d="m40 20h-16v-16a13.3332 13.3332 0 0 0 16 0z" fill="#e7b22a"/><path d="m16 15.6755v-11.6755h8l14 20v36h-28v-36a8.7749 8.7749 0 0 0 6-8.3245z" fill="#f0c62f"/><path d="m10 31h28v6h-28z" fill="#f1f1f1"/><path d="m48 15.6755v-11.6755h-8l-14 20v36h28v-36a8.7749 8.7749 0 0 1 -6-8.3245z" fill="#f5dc3d"/><path d="m26 31h28v6h-28z" fill="#fff"/><path d="m10 45h28v6h-28z" fill="#f1f1f1"/><path d="m26 45h28v6h-28z" fill="#fff"/><path d="m54.3164 23.0513a7.7654 7.7654 0 0 1 -5.3164-7.376v-11.6753a1 1 0 0 0 -1-1h-8a.9969.9969 0 0 0 -.6.2 12.3989 12.3989 0 0 1 -14.8 0 .9969.9969 0 0 0 -.6-.2h-8a1 1 0 0 0 -1 1v11.6753a7.7654 7.7654 0 0 1 -5.3164 7.376 1 1 0 0 0 -.6836.9487v36a1 1 0 0 0 1 1h44a1 1 0 0 0 1-1v-36a1 1 0 0 0 -.6836-.9487zm-1.3164 1.6411v5.3076h-26v-5.6846l13.5206-19.3154h6.4794v10.6753a9.762 9.762 0 0 0 6 9.0171zm-28 11.3076h-14v-4h14zm0 2v6h-14v-6zm0 8v4h-14v-4zm2 0h26v4h-26zm0-2v-6h26v6zm0-8v-4h26v4zm9.8081-29.1838-4.8081 6.8687-4.808-6.8686a14.4807 14.4807 0 0 0 9.6161-.0001zm-19.8081 8.8591v-10.6753h6.4794l7.3 10.4286-5.5987 7.9982a1.0022 1.0022 0 0 0 -.1807.5732v6h-14v-5.3076a9.762 9.762 0 0 0 6-9.0171zm-6 36.3247h14v7h-14zm16 7v-7h26v7z"/></svg>