<svg id="Filled_Expand" height="512" viewBox="0 0 64 64" width="512" xmlns="http://www.w3.org/2000/svg" data-name="Filled Expand"><path d="m57.8213 43.2168-3.8506-1.083.8984-3.1943a23.7565 23.7565 0 0 0 -41.8051-20.7784 23.57 23.57 0 0 0 -3.9331 20.7789l.8984 3.1943-3.8506 1.083-.8987-3.1958a27.7569 27.7569 0 0 1 26.72-35.2715 27.7569 27.7569 0 0 1 26.72 35.2715z" fill="#4e4e4e"/><path d="m32 2.25a30.0518 30.0518 0 0 0 -16.4365 4.8331 4.5494 4.5494 0 0 0 -2.0265 4.6648 4.509 4.509 0 0 0 6.9206 2.8881 21.3657 21.3657 0 0 1 23.0848 0 4.509 4.509 0 0 0 6.9206-2.888 4.5494 4.5494 0 0 0 -2.0265-4.6648 30.0518 30.0518 0 0 0 -16.4365-4.8332z" fill="#f0c62f"/><rect fill="#5f5f5f" height="28" rx="2.5" transform="matrix(.966 -.259 .259 .966 -11.894 5.939)" width="5" x="14.108" y="34.141"/><path d="m11.3467 38.953h3a0 0 0 0 1 0 0v22a0 0 0 0 1 0 0h-3a6 6 0 0 1 -6-6v-10a6 6 0 0 1 6-6z" fill="#f0c62f" transform="matrix(.966 -.259 .259 .966 -12.593 4.251)"/><rect fill="#5f5f5f" height="28" rx="2.5" transform="matrix(-.966 -.259 .259 -.966 80.709 106.908)" width="5" x="44.892" y="34.141"/><path d="m55.6533 38.953h3a0 0 0 0 1 0 0v22a0 0 0 0 1 0 0h-3a6 6 0 0 1 -6-6v-10a6 6 0 0 1 6-6z" fill="#f0c62f" transform="matrix(-.966 -.259 .259 -.966 93.533 112.22)"/><path d="m59.6071 40.5605.0755-.2685a28.5321 28.5321 0 0 0 -4.7617-25.1494 29.097 29.097 0 0 0 -3.4132-3.7526 5.5371 5.5371 0 0 0 -2.5263-5.1454 31.3653 31.3653 0 0 0 -33.9628 0 5.5371 5.5371 0 0 0 -2.5263 5.1454 29.1783 29.1783 0 0 0 -3.4142 3.7521 28.5285 28.5285 0 0 0 -4.7607 25.15l.0755.2681a6.986 6.986 0 0 0 -1.1529 5.9867l2.5879 9.6592a6.9971 6.9971 0 0 0 8.5733 4.95l1.9793-.53a3.4709 3.4709 0 0 0 3.1984 2.1256 3.51 3.51 0 0 0 .9111-.1217 3.4994 3.4994 0 0 0 2.4746-4.2861l-5.9519-22.2165a3.4923 3.4923 0 0 0 -6.8427 1.3157l-.3527.0944a22.5709 22.5709 0 0 1 4.0427-18.7724 23.2367 23.2367 0 0 1 2.3886-2.6592 5.5754 5.5754 0 0 0 4.753-.6308 20.3635 20.3635 0 0 1 21.996.0005 5.6094 5.6094 0 0 0 3.0528.9062 5.5373 5.5373 0 0 0 1.6844-.2916 23.167 23.167 0 0 1 2.4035 2.6749 22.5682 22.5682 0 0 1 4.0437 18.7724l-.3527-.0944a3.4927 3.4927 0 0 0 -6.8424-1.3157l-5.9517 22.2164a3.4994 3.4994 0 0 0 2.4748 4.2862 3.4736 3.4736 0 0 0 2.6552-.35 3.4642 3.4642 0 0 0 1.4543-1.6549l1.9793.53a6.9971 6.9971 0 0 0 8.5733-4.95l2.5879-9.6582a6.9862 6.9862 0 0 0 -1.1529-5.9864zm-45.7233 18.6636a5.0081 5.0081 0 0 1 -6.1238-3.5356l-2.5881-9.6592a5.0071 5.0071 0 0 1 3.5351-6.124l1.9322-.5175 5.1767 19.3186zm-.6406-23.64a1.5 1.5 0 0 1 1.8379 1.061l5.9521 22.2163a1.5 1.5 0 0 1 -2.8975.7764l-5.9531-22.2164a1.5023 1.5023 0 0 1 1.0606-1.8374zm-.9766-18.0269a24.5548 24.5548 0 0 0 -4.3773 20.5134 6.95 6.95 0 0 0 -1.8423.8977 26.5225 26.5225 0 0 1 4.6249-22.6183 26.9592 26.9592 0 0 1 2.4681-2.8147 5.4441 5.4441 0 0 0 1.288 1.5672 25.2676 25.2676 0 0 0 -2.1614 2.4546zm31.8193-3.76a22.3632 22.3632 0 0 0 -24.1718 0 3.5756 3.5756 0 0 1 -3.3536.3012 3.4148 3.4148 0 0 1 -2.0405-2.5384 3.5426 3.5426 0 0 1 1.5889-3.6382 29.3665 29.3665 0 0 1 31.7832 0 3.5426 3.5426 0 0 1 1.5884 3.6382 3.4148 3.4148 0 0 1 -2.041 2.5385 3.5769 3.5769 0 0 1 -3.3536-.3011zm7.6465 3.76a25.08 25.08 0 0 0 -2.16-2.4551 5.4422 5.4422 0 0 0 1.2876-1.5669 26.8975 26.8975 0 0 1 2.4671 2.8148 26.5253 26.5253 0 0 1 4.6258 22.6182 6.95 6.95 0 0 0 -1.8422-.8977 24.5532 24.5532 0 0 0 -4.3783-20.5129zm-5.8681 42.08a1.5 1.5 0 1 1 -2.8975-.7764l5.9521-22.2158a1.5 1.5 0 1 1 2.8985.7764zm12.9638-13.6079-2.5881 9.6592a5.0053 5.0053 0 0 1 -6.124 3.5356l-1.9321-.5177 5.1767-19.3186 1.9322.5175a5.0071 5.0071 0 0 1 3.5353 6.124z"/></svg>