<svg id="Filled_Expand" height="512" viewBox="0 0 64 64" width="512" xmlns="http://www.w3.org/2000/svg" data-name="Filled Expand"><rect fill="#f0c62f" height="5" rx="2.5" width="55" x="4.5" y="54.5"/><path d="m24.5 4.5-3.75 18.75 18.75-18.75z" fill="#f5dc3d"/><path d="m39.5 4.5-18.75 18.75-3.75 18.75 25-25z" fill="#5f5f5f"/><path d="m49.5 54.5-2.083-10.417-10.417 10.417z" fill="#f5dc3d"/><path d="m42 17-25 25-2.5 12.5h7.5l22.917-22.917z" fill="#f5dc3d"/><path d="m22 54.5h15l10.417-10.417-2.5-12.5z" fill="#5f5f5f"/><path d="m57 53.5h-6.68l-9.8395-49.1963a1 1 0 0 0 -.9805-.8037h-15a1 1 0 0 0 -.98.8037l-9.84 49.1963h-6.68a3.5 3.5 0 0 0 0 7h50a3.5 3.5 0 0 0 0-7zm-32.586 0 19.8885-19.8889 2.0286 10.1432-9.7452 9.7457zm22.3885-7.3889 1.4775 7.3889h-8.866zm-5.888-29.44-22.2863 22.2866 3.043-15.2148 17.2146-17.2146zm-15.5945-11.1711h11.7659l-14.7077 14.7077zm-7.3989 36.9929 23.4648-23.4647 2.4452 12.2261-22.2452 22.2457h-5.8659zm39.0789 16.0071h-50a1.5 1.5 0 0 1 0-3h50a1.5 1.5 0 0 1 0 3z"/></svg>