<svg id="Filled_Expand" height="512" viewBox="0 0 64 64" width="512" xmlns="http://www.w3.org/2000/svg" data-name="Filled Expand"><path d="m32 56.8413h-23.5272a4.4662 4.4662 0 0 1 -3.8678-6.6992l11.7636-20.3752 11.7636-20.3751a4.4662 4.4662 0 0 1 7.7356 0l11.7636 20.3751 11.7636 20.3752a4.4662 4.4662 0 0 1 -3.8678 6.6992z" fill="#f5dc3d"/><rect fill="#5f5f5f" height="18" rx="2" width="4" x="30" y="24.159"/><circle cx="32" cy="47.159" fill="#5f5f5f" r="2"/><path d="m55.5273 57.8408h-47.0546a5.4658 5.4658 0 0 1 -4.7339-8.1982l23.5273-40.751a5.466 5.466 0 0 1 9.4678 0l23.5273 40.751a5.4658 5.4658 0 0 1 -4.7339 8.1982zm-23.5273-49.6826a3.4313 3.4313 0 0 0 -3.0015 1.7334l-23.5273 40.751a3.4658 3.4658 0 0 0 3.0015 5.1982h47.0546a3.4658 3.4658 0 0 0 3.0015-5.1982l-23.5273-40.751a3.4313 3.4313 0 0 0 -3.0015-1.7334z"/><path d="m32 43.1592a3.0033 3.0033 0 0 1 -3-3v-14a3 3 0 0 1 6 0v14a3.0033 3.0033 0 0 1 -3 3zm0-18a1.0009 1.0009 0 0 0 -1 1v14a1 1 0 0 0 2 0v-14a1.0009 1.0009 0 0 0 -1-1z"/><path d="m32 50.1592a3 3 0 1 1 3-3 3.0033 3.0033 0 0 1 -3 3zm0-4a1 1 0 1 0 1 1 1.0009 1.0009 0 0 0 -1-1z"/></svg>