<svg id="Filled_Expand" height="512" viewBox="0 0 64 64" width="512" xmlns="http://www.w3.org/2000/svg" data-name="Filled Expand"><path d="m16.25 4-8 56h5.1429l.8571-6h21.8571l-.8571 6h5l8-56zm20.7143 9h-12a1.6934 1.6934 0 0 1 -1.7143-2 2.3864 2.3864 0 0 1 2.2857-2h12a1.6934 1.6934 0 0 1 1.7143 2 2.3864 2.3864 0 0 1 -2.2857 2z" fill="#f5dc3d"/><path d="m48.25 4-6.696 46.875h8.796l.804 5.625h4.596z" fill="#f0c62f"/><path d="m27.5357 37a1.6934 1.6934 0 0 1 -1.7143-2l1.7143-12a2.3864 2.3864 0 0 1 2.2857-2 1.6934 1.6934 0 0 1 1.7143 2l-1.7143 12a2.3864 2.3864 0 0 1 -2.2857 2z" fill="#5f5f5f"/><ellipse cx="26.679" cy="43" fill="#5f5f5f" rx="2.148" ry="1.862" transform="matrix(.732 -.681 .681 .732 -22.149 29.71)"/><path d="m39.6152 8.9238a2.7024 2.7024 0 0 0 -2.0796-.9238h-12a3.3757 3.3757 0 0 0 -3.2756 2.8584 2.7739 2.7739 0 0 0 .6245 2.2178 2.7024 2.7024 0 0 0 2.08.9238h12a3.3757 3.3757 0 0 0 3.2755-2.8584 2.7739 2.7739 0 0 0 -.6248-2.2178zm-2.6508 3.0762h-12a.7275.7275 0 0 1 -.5689-.2334.7709.7709 0 0 1 -.1558-.625 1.3955 1.3955 0 0 1 1.2959-1.1416h12a.7275.7275 0 0 1 .5689.2334.7709.7709 0 0 1 .1558.625 1.3955 1.3955 0 0 1 -1.2959 1.1416z"/><path d="m29.8213 20a3.3758 3.3758 0 0 0 -3.2754 2.8584l-1.7144 12a2.774 2.774 0 0 0 .6246 2.2178 2.7024 2.7024 0 0 0 2.0795.9238 3.3758 3.3758 0 0 0 3.2754-2.8584l1.7144-12a2.7739 2.7739 0 0 0 -.6245-2.2178 2.7026 2.7026 0 0 0 -2.0796-.9238zm-.99 14.8584a1.3954 1.3954 0 0 1 -1.2957 1.1416.7275.7275 0 0 1 -.5688-.2334.7709.7709 0 0 1 -.1558-.625l1.7144-12a1.3954 1.3954 0 0 1 1.2959-1.1416.7275.7275 0 0 1 .5688.2334.77.77 0 0 1 .1558.625z"/><path d="m26.9644 40a3.3758 3.3758 0 0 0 -3.2754 2.8584 2.775 2.775 0 0 0 .6245 2.2187 2.7048 2.7048 0 0 0 2.08.9229 3.3759 3.3759 0 0 0 3.2754-2.8584 2.774 2.774 0 0 0 -.6246-2.2178 2.7024 2.7024 0 0 0 -2.0799-.9238zm-.5713 4a.7261.7261 0 0 1 -.5689-.2334.7705.7705 0 0 1 -.1557-.625 1.3954 1.3954 0 0 1 1.2959-1.1416.7275.7275 0 0 1 .5688.2334.7709.7709 0 0 1 .1558.625 1.3954 1.3954 0 0 1 -1.2959 1.1416z"/><path d="m49.24 3.8584a1 1 0 0 0 -.99-.8584h-32a1 1 0 0 0 -.99.8584l-8 56a1 1 0 0 0 .99 1.1416h5.1431a1 1 0 0 0 .99-.8584l.7341-5.1416h19.8369l-.6941 4.8584a1 1 0 0 0 .99 1.1416h5a1 1 0 0 0 .99-.8584l1.1812-8.2666h7.062l.6807 4.7666a1 1 0 0 0 .99.8584h4.5961a1 1 0 0 0 .99-1.1416zm-9.8572 55.1416h-2.98l.6939-4.8584a1 1 0 0 0 -.9898-1.1416h-21.8569a1 1 0 0 0 -.99.8584l-.7341 5.1416h-3.1231l7.7144-54h29.98zm12.6377-3.5-.6805-4.7666a1 1 0 0 0 -.99-.8584h-7.6435l5.5435-38.8037 6.3472 44.4287z"/></svg>