<svg id="Filled_Expand" height="512" viewBox="0 0 64 64" width="512" xmlns="http://www.w3.org/2000/svg" data-name="Filled Expand"><path d="m12 34h5v27h-5z" fill="#4e4e4e"/><path d="m47 34h5v27h-5z" fill="#4e4e4e"/><path d="m12 11h10v4h-10z" fill="#f5dc3d"/><path d="m22 11h-10l1-8h8z" fill="#db3a3a"/><path d="m42 11h10v4h-10z" fill="#f5dc3d"/><path d="m52 11h-10l1-8h8z" fill="#db3a3a"/><path d="m4 19v15l15-15z" fill="#f5dc3d"/><path d="m19 19-15 15h13.667l15-15z" fill="#5f5f5f"/><path d="m45 34h15v-15z" fill="#f5dc3d"/><path d="m32.667 19-15 15h13.666l15-15z" fill="#f5dc3d"/><path d="m46.333 19-15 15h13.667l15-15z" fill="#5f5f5f"/><path d="m60 18h-7v-7a1.0531 1.0531 0 0 0 -.0078-.124l-1-8a1.0006 1.0006 0 0 0 -.9922-.876h-8a1.0006 1.0006 0 0 0 -.9922.876l-1 8a1.0531 1.0531 0 0 0 -.0078.124v7h-18v-7a1.0531 1.0531 0 0 0 -.0078-.124l-1-8a1.0006 1.0006 0 0 0 -.9922-.876h-8a1.0006 1.0006 0 0 0 -.9922.876l-1 8a1.0531 1.0531 0 0 0 -.0078.124v7h-7a1 1 0 0 0 -1 1v15a1 1 0 0 0 1 1h7v26a1 1 0 0 0 1 1h5a1 1 0 0 0 1-1v-26h28v26a1 1 0 0 0 1 1h5a1 1 0 0 0 1-1v-26h7a1 1 0 0 0 1-1v-15a1 1 0 0 0 -1-1zm-53.5859 15 13-13h10.8388l-13 13zm26.667-13h10.8378l-13 13h-10.8378zm13.666 0h10.8388l-13 13h-10.8388zm4.2529-8v2h-8v-2zm-.8828-8 .75 6h-7.7344l.75-6zm-7.1172 12h8v2h-8zm-22-4v2h-8v-2zm-.8828-8 .75 6h-7.7344l.75-6zm-7.1172 12h8v2h-8zm3.5859 4-11.5859 11.5859v-11.5859zm-.5859 40h-3v-25h3zm35 0h-3v-25h3zm-3.5859-27 11.5859-11.5859v11.5859z"/></svg>