<svg id="Filled_Expand" height="512" viewBox="0 0 64 64" width="512" xmlns="http://www.w3.org/2000/svg" data-name="Filled Expand"><path d="m1 27h62v10h-62z" fill="#f5dc3d" transform="matrix(.866 -.5 .5 .866 -11.713 20.287)"/><g fill="#5f5f5f"><path d="m9.581 39.17-6.928 4 10.196 5.66 6.929-4z"/><path d="m23.438 31.17-6.928 4 10.196 5.66 6.928-4z"/><path d="m37.294 23.17-6.928 4 10.196 5.66 6.928-4z"/><path d="m51.151 15.17-6.929 4 10.197 5.66 6.928-4z"/></g><path d="m27 1h10v62h-10z" fill="#f5dc3d" transform="matrix(.5 -.866 .866 .5 -11.713 43.713)"/><path d="m54.419 39.17 6.928 4-10.196 5.66-6.929-4z" fill="#5f5f5f"/><path d="m40.562 31.17 6.928 4-10.196 5.66-6.928-4z" fill="#5f5f5f"/><path d="m26.706 23.17 6.928 4-10.196 5.66-6.928-4z" fill="#5f5f5f"/><path d="m12.849 15.17 6.929 4-10.197 5.66-6.928-4z" fill="#5f5f5f"/><path d="m61.8467 42.3037-17.8467-10.3037 17.8467-10.3037a1.0008 1.0008 0 0 0 .3662-1.3662l-5-8.66a1 1 0 0 0 -1.3662-.3662l-23.8467 13.7678-23.8467-13.768a1 1 0 0 0 -1.3662.3662l-5 8.66a1.0008 1.0008 0 0 0 .3662 1.3662l17.8467 10.3039-17.8467 10.3037a1.0008 1.0008 0 0 0 -.3662 1.3663l5 8.66a1.0006 1.0006 0 0 0 1.3662.3662l23.8467-13.7679 23.8467 13.768a1.0006 1.0006 0 0 0 1.3662-.3662l5-8.66a1.0008 1.0008 0 0 0 -.3662-1.3662zm-29.3467-5.3964-.1044-.06 8.1566-4.5279 4.9086 2.834-8.1567 4.5276zm-12.7325-16.5885 4.909 2.8343-8.1565 4.5279-4.909-2.8343zm-10.1761 3.362-4.9085-2.8339 8.1571-4.5279 4.9085 2.834zm17.1045.6382 4.8041 2.7737.1044.06-8.1566 4.5279-4.9086-2.834zm-1.2287 8.5278 8.1566-4.5279.3762.2172 4.5328 2.6171-8.1566 4.5279zm22.0128 3.4722 4.909 2.8343-8.1567 4.5279-4.909-2.8343zm6.9284 4 4.9085 2.8339-8.1564 4.5281-4.9085-2.834zm-2.019-15.4721-4.9089 2.8344-8.1571-4.5282 4.9091-2.8343zm-6.1375-5.6939 4.9086-2.834 8.1566 4.5279-4.9083 2.8341zm9.7286-5.6169 2.695 4.6678-5.4955-3.0508zm-18.6765 10.7829 8.1572 4.5282-3.4612 1.9983-8-4.6191zm-29.284-10.7829 2.8006 1.617-5.4961 3.0508zm3.5911 25.617 4.9089-2.8344 8.1571 4.5282-4.9091 2.8343zm6.1375 5.6939-4.9086 2.834-8.1571-4.5279 4.9083-2.8341zm-9.7286 5.6169-2.695-4.6678 5.495 3.0508zm18.676-10.7829-8.1572-4.5282 3.4612-1.9983 8 4.6191zm29.2845 10.7829-2.8005-1.617 5.4956-3.0508z"/></svg>