<svg id="Filled_Expand" height="512" viewBox="0 0 64 64" width="512" xmlns="http://www.w3.org/2000/svg" data-name="Filled Expand"><g fill="#4e4e4e"><path d="m37 23v-16.75a4.25 4.25 0 0 0 -4.25-4.25 4.25 4.25 0 0 0 -4.25 4.25v16.75"/><path d="m45.5 23v-16.75a4.25 4.25 0 0 0 -4.25-4.25 4.25 4.25 0 0 0 -4.25 4.25v16.75"/><path d="m28.5 23v-14.75a4.25 4.25 0 0 0 -4.25-4.25 4.25 4.25 0 0 0 -4.25 4.25v38.75h34v-36.75a4.25 4.25 0 0 0 -4.25-4.25 4.25 4.25 0 0 0 -4.25 4.25v12.75"/><path d="m50 53h-26l-3 9h32z"/></g><path d="m54 47h-34l4 6h26z" fill="#f5dc3d"/><path d="m20 47a17.4976 17.4976 0 0 1 -9-15.2956v-5.7044a3 3 0 0 1 3-3 6 6 0 0 1 6 6z" fill="#4e4e4e"/><path d="m20 29h34v12h-34z" fill="#f5dc3d"/><path d="m20 33h34v4h-34z" fill="#f1f1f1"/><path d="m49.75 5a5.1974 5.1974 0 0 0 -3.2584 1.1664 5.2326 5.2326 0 0 0 -9.4916-2.9732 5.219 5.219 0 0 0 -9.1591 1.2477 5.2343 5.2343 0 0 0 -8.8409 3.8091v15.8607a6.9758 6.9758 0 0 0 -5-2.1107 4.0039 4.0039 0 0 0 -4 4v5.7041a18.5015 18.5015 0 0 0 9.2915 16.0359l3.605 5.4074-2.8447 8.5361a.999.999 0 0 0 .9482 1.3165h32a.999.999 0 0 0 .9482-1.3164l-2.8447-8.5361 3.7285-5.5928a1.0008 1.0008 0 0 0 .168-.5547v-36.75a5.2564 5.2564 0 0 0 -5.25-5.25zm-28.75 41v-4h32v4zm32-16v2h-32v-2zm-32 8h32v2h-32zm0-2v-2h32v2zm3.25-31a3.2538 3.2538 0 0 1 3.25 3.25v14.75a1 1 0 0 0 2 0v-16.75a3.25 3.25 0 0 1 6.5 0v16.75a1 1 0 0 0 2 0v-16.75a3.25 3.25 0 0 1 6.5 0v16.75a1 1 0 0 0 2 0v-12.75a3.25 3.25 0 0 1 6.5 0v17.75h-32v-19.75a3.2538 3.2538 0 0 1 3.25-3.25zm-12.25 26.7041v-5.7041a2.0027 2.0027 0 0 1 2-2 5.0059 5.0059 0 0 1 5 5v16.1943a16.5094 16.5094 0 0 1 -7-13.4902zm39.6123 29.2959h-29.2246l2.3328-7h24.5595zm-2.1475-9h-24.93l-2.6667-4h30.263z"/></svg>