<svg id="Filled_Expand" height="512" viewBox="0 0 64 64" width="512" xmlns="http://www.w3.org/2000/svg" data-name="Filled Expand"><rect fill="#e9eded" height="36" rx="2" width="36" x="12.5" y="4"/><circle cx="30.5" cy="22" fill="#e59286" r="13"/><circle cx="30.5" cy="22" fill="#db3a3a" r="6"/><g fill="#edd5c5"><path d="m42 42v-3.25a3.75 3.75 0 0 0 -3.75-3.75 3.75 3.75 0 0 0 -3.75 3.75v3.25"/><path d="m49.5 42v-3.25a3.75 3.75 0 0 0 -3.75-3.75 3.75 3.75 0 0 0 -3.75 3.75v3.25"/><path d="m34.5 42v-12.25a3.75 3.75 0 0 0 -3.75-3.75 3.75 3.75 0 0 0 -3.75 3.75v24.25a6 6 0 0 0 6 6h18a6 6 0 0 0 6-6v-12.9958a3.75 3.75 0 0 0 -3.75-3.75 3.75 3.75 0 0 0 -3.75 3.75v.9958"/></g><path d="m53.25 36.2539a4.7031 4.7031 0 0 0 -2.9874 1.0876 4.7107 4.7107 0 0 0 -.7626-1.4728v-29.8687a3.0033 3.0033 0 0 0 -3-3h-32a3.0033 3.0033 0 0 0 -3 3v32a3.0033 3.0033 0 0 0 3 3h11.5v13a7.0081 7.0081 0 0 0 7 7h18a7.0081 7.0081 0 0 0 7-7v-12.9961a4.7555 4.7555 0 0 0 -4.75-4.75zm-38.75 2.7461a1.0009 1.0009 0 0 1 -1-1v-32a1.0009 1.0009 0 0 1 1-1h32a1.0009 1.0009 0 0 1 1 1v28.3436a4.6776 4.6776 0 0 0 -5.5 1.5251 4.4857 4.4857 0 0 0 -4.4382-1.7987 14.0155 14.0155 0 1 0 -11.5618 1.1524v3.7776zm20.37-11.5684a6.9892 6.9892 0 1 0 -8.3913.2783 4.694 4.694 0 0 0 -.4787 2.0401v3.3413a11.9861 11.9861 0 1 1 9.5-.2039v-3.1374a4.693 4.693 0 0 0 -.63-2.3184zm-7.163-1.2981a4.9534 4.9534 0 0 1 -2.207-4.1335 5 5 0 1 1 8.0511 3.9338 4.6593 4.6593 0 0 0 -5.8441.2zm28.293 27.8665a5.0059 5.0059 0 0 1 -5 5h-18a5.0059 5.0059 0 0 1 -5-5v-24.25a2.75 2.75 0 0 1 5.5 0v12.25a1 1 0 0 0 2 0v-3.25a2.75 2.75 0 0 1 5.5 0v3.25a1 1 0 0 0 2 0v-3.25a2.75 2.75 0 0 1 5.5 0v3.25a1 1 0 0 0 2 0v-.9961a2.75 2.75 0 0 1 5.5 0z"/></svg>