<svg id="Filled_Expand" height="512" viewBox="0 0 64 64" width="512" xmlns="http://www.w3.org/2000/svg" data-name="Filled Expand"><path d="m4 16h34a16.02 16.02 0 1 1 -14.826 10h-19.174z" fill="#db3a3a"/><circle cx="38" cy="32" fill="#e59286" r="6"/><path d="m56 27h-1.7527a17.0286 17.0286 0 0 0 -16.2473-12h-34a1 1 0 0 0 -1 1v10a1 1 0 0 0 1 1h17.7563a16.9877 16.9877 0 0 0 16.2437 22 17.0286 17.0286 0 0 0 16.2473-12h1.7527a5 5 0 0 0 0-10zm-18 20a14.9877 14.9877 0 0 1 -13.8994-20.625 1 1 0 0 0 -.9268-1.375h-18.1738v-8h33a15 15 0 0 1 0 30zm18-12h-1.2814a16.1322 16.1322 0 0 0 0-6h1.2814a3 3 0 0 1 0 6z"/><path d="m38 25a7 7 0 1 0 7 7 7.0081 7.0081 0 0 0 -7-7zm0 12a5 5 0 1 1 5-5 5.0059 5.0059 0 0 1 -5 5z"/></svg>