<svg id="Filled_Expand" height="512" viewBox="0 0 64 64" width="512" xmlns="http://www.w3.org/2000/svg" data-name="Filled Expand"><path d="m33 3a3 3 0 0 1 3 3v5a0 0 0 0 1 0 0h-6a0 0 0 0 1 0 0v-5a3 3 0 0 1 3-3z" fill="#db3a3a"/><path d="m30 11h6v6h-6z" fill="#f5dc3d"/><path d="m30 17h6a9 9 0 0 1 9 9v35a0 0 0 0 1 0 0h-24a0 0 0 0 1 0 0v-35a9 9 0 0 1 9-9z" fill="#db3a3a"/><path d="m41 8h-5v6h5l9 3v-4l-6-2 6-2v-4z" fill="#acacac"/><circle cx="26" cy="8" fill="#cdcdcd" r="3"/><path d="m21 32h24v16h-24z" fill="#e9eded"/><rect fill="#cdcdcd" height="12" rx="3" width="6" x="10" y="27"/><path d="m51 9v-4a.9994.9994 0 0 0 -1.3164-.9482l-8.8457 2.9482h-3.8379v-1a3.9906 3.9906 0 0 0 -7.9443-.55 3.9784 3.9784 0 0 0 -6.4994 4.55h-3.5563a7.0081 7.0081 0 0 0 -7 7v9.142a3.9958 3.9958 0 0 0 -3 3.858v6a4 4 0 0 0 8 0v-6a3.9958 3.9958 0 0 0 -3-3.858v-9.142a5.0059 5.0059 0 0 1 5-5h10v4.0507a10.0137 10.0137 0 0 0 -9 9.9493v35a1 1 0 0 0 1 1h24a1 1 0 0 0 1-1v-35a10.0137 10.0137 0 0 0 -9-9.9493v-1.0507h3.8379l8.8457 2.9482a.98.98 0 0 0 .3164.0518 1 1 0 0 0 1-1v-4a.9988.9988 0 0 0 -.6836-.9482l-3.1543-1.0518 3.1543-1.0518a.9988.9988 0 0 0 .6836-.9482zm-36 21v6a2 2 0 0 1 -4 0v-6a2 2 0 0 1 4 0zm16-14v-4h4v4zm2-12a2.0023 2.0023 0 0 1 2 2v4h-4v-4a2.0023 2.0023 0 0 1 2-2zm-9 4a2 2 0 1 1 2 2 2.0023 2.0023 0 0 1 -2-2zm-2 25h22v14h-22zm0 27v-11h22v11zm22-34v5h-22v-5a8.0092 8.0092 0 0 1 8-8h6a8.0092 8.0092 0 0 1 8 8zm5-17.7207-5.3164 1.7725a.9994.9994 0 0 0 0 1.8964l5.3164 1.7725v1.8916l-7.6836-2.56a.9961.9961 0 0 0 -.3164-.0523h-4v-4h4a.9961.9961 0 0 0 .3164-.0518l7.6836-2.5605z"/></svg>