<svg id="Filled_Expand" height="512" viewBox="0 0 64 64" width="512" xmlns="http://www.w3.org/2000/svg" data-name="Filled Expand"><path d="m48 16v-12h-8c0 2.2092-3.5817 4-8 4s-8-1.7908-8-4h-8v12a8 8 0 0 1 -8 8v36h48v-36a8 8 0 0 1 -8-8z" fill="#db3a3a"/><path d="m32 8c-4.4183 0-8-1.7908-8-4 0 8.8367 8 16 8 16s8-7.1633 8-16c0 2.2092-3.5817 4-8 4z" fill="#a43d2f"/><g fill="#f5dc3d"><path d="m8 49h48v4h-48z"/><path d="m8 41h48v4h-48z"/><path d="m8 33h48v4h-48z"/><path d="m8 25h48v4h-48z"/></g><path d="m26 25h12v12h-12z" fill="#5f5f5f"/><path d="m30 29h4v4h-4z" fill="#f5dc3d"/><path d="m26 41h12v12h-12z" fill="#5f5f5f"/><path d="m30 45h4v4h-4z" fill="#f5dc3d"/><path d="m56 23a7.0085 7.0085 0 0 1 -7-7v-12a1 1 0 0 0 -1-1h-8a1 1 0 0 0 -1 1c0 1.416-2.9932 3-7 3s-7-1.584-7-3a1 1 0 0 0 -1-1h-8a1 1 0 0 0 -1 1v12a7.0085 7.0085 0 0 1 -7 7 1 1 0 0 0 -1 1v36a1 1 0 0 0 1 1h48a1 1 0 0 0 1-1v-36a1 1 0 0 0 -1-1zm-24-14a13.2737 13.2737 0 0 0 6.5629-1.5161c-1.2737 5.2634-5.0248 9.5401-6.5629 11.1177-1.5381-1.5776-5.2892-5.8543-6.5629-11.1177a13.2737 13.2737 0 0 0 6.5629 1.5161zm-15 7v-11h6.0529c.5465 8.6981 7.9528 15.4517 8.28 15.7451a1 1 0 0 0 1.334 0c.3273-.2934 7.7336-7.047 8.28-15.7451h6.0531v11a9.0068 9.0068 0 0 0 4.8828 8h-39.7656a9.0068 9.0068 0 0 0 4.8828-8zm22 34h16v2h-16zm0-2v-2h16v2zm0-4v-2h16v2zm-30-4v-2h46v2zm28 2v10h-10v-10zm-12 10h-16v-2h16zm0-4h-16v-2h16zm0-4h-16v-2h16zm0-18v2h-16v-2zm0 4v2h-16v-2zm0 4v2h-16v-2zm2 2v-10h10v10zm12 0v-2h16v2zm0-4v-2h16v2zm0-4v-2h16v2zm-30 31v-5h46v5z"/><path d="m34 28h-4a1 1 0 0 0 -1 1v4a1 1 0 0 0 1 1h4a1 1 0 0 0 1-1v-4a1 1 0 0 0 -1-1zm-1 4h-2v-2h2z"/><path d="m30 50h4a1 1 0 0 0 1-1v-4a1 1 0 0 0 -1-1h-4a1 1 0 0 0 -1 1v4a1 1 0 0 0 1 1zm1-4h2v2h-2z"/></svg>