<svg id="Filled_Expand" height="512" viewBox="0 0 64 64" width="512" xmlns="http://www.w3.org/2000/svg" data-name="Filled Expand"><rect fill="#db3a3a" height="36" rx="4" width="56" x="4" y="24"/><path d="m12.0833 18h3.8333a2.0833 2.0833 0 0 1 2.0834 2.0833v3.9167a0 0 0 0 1 0 0h-8a0 0 0 0 1 0 0v-3.9167a2.0833 2.0833 0 0 1 2.0833-2.0833z" fill="#5f5f5f"/><path d="m48.0833 18h3.8333a2.0833 2.0833 0 0 1 2.0834 2.0833v3.9167a0 0 0 0 1 0 0h-8a0 0 0 0 1 0 0v-3.9167a2.0833 2.0833 0 0 1 2.0833-2.0833z" fill="#5f5f5f"/><path d="m12 14v4h4v-4a4 4 0 0 1 4-4h24a4 4 0 0 1 4 4v4h4v-4a8 8 0 0 0 -8-8h-24a8 8 0 0 0 -8 8z" fill="#e9eded"/><path d="m20 5h24v6h-24z" fill="#5f5f5f"/><path d="m38 40h-4v-4a2 2 0 0 0 -4 0v4h-4a2 2 0 0 0 0 4h4v4a2 2 0 0 0 4 0v-4h4a2 2 0 0 0 0-4z" fill="#fff"/><path d="m56 23h-1v-2.917a3.08 3.08 0 0 0 -2-2.8765v-3.2065a9.01 9.01 0 0 0 -8-8.941v-.059a1 1 0 0 0 -1-1h-24a1 1 0 0 0 -1 1v.059a9.01 9.01 0 0 0 -8 8.941v3.2065a3.08 3.08 0 0 0 -2 2.8765v2.917h-1a5.0059 5.0059 0 0 0 -5 5v28a5.0059 5.0059 0 0 0 5 5h48a5.0059 5.0059 0 0 0 5-5v-28a5.0059 5.0059 0 0 0 -5-5zm-9 0v-2.917a1.0848 1.0848 0 0 1 1.083-1.083h3.834a1.0848 1.0848 0 0 1 1.083 1.083v2.917zm4-9v3h-2v-3a5.0083 5.0083 0 0 0 -4-4.8989v-2.0211a7.0056 7.0056 0 0 1 6 6.92zm-30-8h22v4h-22zm23 6a.9857.9857 0 0 0 .965-.8267 2.9944 2.9944 0 0 1 2.035 2.8267v3.2065a3.08 3.08 0 0 0 -2 2.8765v2.917h-26v-2.917a3.08 3.08 0 0 0 -2-2.8765v-3.2065a2.9942 2.9942 0 0 1 2.035-2.8266.9857.9857 0 0 0 .965.8266zm-25-4.92v2.0211a5.0083 5.0083 0 0 0 -4 4.8989v3h-2v-3a7.0056 7.0056 0 0 1 6-6.92zm-8 13.003a1.0848 1.0848 0 0 1 1.083-1.083h3.834a1.0848 1.0848 0 0 1 1.083 1.083v2.917h-6zm48 35.917a3.0033 3.0033 0 0 1 -3 3h-48a3.0033 3.0033 0 0 1 -3-3v-28a3.0033 3.0033 0 0 1 3-3h48a3.0033 3.0033 0 0 1 3 3z"/><path d="m38 39h-3v-3a3 3 0 0 0 -6 0v3h-3a3 3 0 0 0 0 6h3v3a3 3 0 0 0 6 0v-3h3a3 3 0 0 0 0-6zm0 4h-4a1 1 0 0 0 -1 1v4a1 1 0 0 1 -2 0v-4a1 1 0 0 0 -1-1h-4a1 1 0 0 1 0-2h4a1 1 0 0 0 1-1v-4a1 1 0 0 1 2 0v4a1 1 0 0 0 1 1h4a1 1 0 0 1 0 2z"/></svg>