<svg id="Filled_Expand" height="512" viewBox="0 0 64 64" width="512" xmlns="http://www.w3.org/2000/svg" data-name="Filled Expand"><path d="m49 29h8v32h-8z" fill="#db3a3a" transform="matrix(-1 0 0 -1 106 90)"/><path d="m9 29h8v22h-8z" fill="#db3a3a" transform="matrix(-1 0 0 -1 26 80)"/><path d="m12 61h2l2-6h-6z" fill="#acacac"/><path d="m9 29a24 24 0 1 0 24-24 24 24 0 0 0 -24 24zm8 0a16 16 0 1 1 16 16 16 16 0 0 1 -16-16z" fill="#de5f5f"/><path d="m21 29a12 12 0 1 0 12-12 12 12 0 0 0 -12 12zm8 0a4 4 0 1 1 4 4 4 4 0 0 1 -4-4z" fill="#db3a3a"/><rect fill="#5f5f5f" height="4" rx="2" transform="matrix(-1 0 0 -1 26 106)" width="12" x="7" y="51"/><rect fill="#acacac" height="26" rx="2" transform="matrix(-1 0 0 -1 66 32)" width="4" x="31" y="3"/><path d="m35.8709 4.1772a2.9813 2.9813 0 0 0 -5.7417 0 25.13 25.13 0 0 0 -22.1292 24.8228v21.1843a2.9926 2.9926 0 0 0 1 5.8157h.28l1.7722 5.3164a.9988.9988 0 0 0 .9478.6836h2a.9988.9988 0 0 0 .9482-.6836l1.7718-5.3164h.28a2.9926 2.9926 0 0 0 1-5.8157v-1.1979a24.9458 24.9458 0 0 0 30 0v12.0136a1 1 0 0 0 1 1h8a1 1 0 0 0 1-1v-32a25.13 25.13 0 0 0 -22.1291-24.8228zm-.06 23.8383a2.9275 2.9275 0 0 1 .1891.9845 3 3 0 0 1 -6 0 2.9275 2.9275 0 0 1 .1891-.9845 2.983 2.983 0 0 0 5.6218 0zm-5.8109-2.9898a5 5 0 1 0 6 0v-6.5917a11 11 0 1 1 -6 0zm0-8.6536a13 13 0 1 0 6 0v-2.0481a15 15 0 1 1 -6 0zm2-11.3721a1 1 0 0 1 2 0v22a1 1 0 0 1 -2 0zm-18.7207 55h-.5586l-1.3336-4h3.2258zm3.7207-6h-8a1 1 0 0 1 0-2h8a1 1 0 0 1 0 2zm-1-4h-6v-11.2068a25.1037 25.1037 0 0 0 6 8.5145zm-6-21a23.1068 23.1068 0 0 1 20-22.7706v6.0672a17 17 0 1 0 6 0v-6.0672a22.9846 22.9846 0 1 1 -26 22.7706zm46 31h-6v-12.6923a25.1037 25.1037 0 0 0 6-8.5145z"/></svg>