<svg id="Filled_Expand" height="512" viewBox="0 0 64 64" width="512" xmlns="http://www.w3.org/2000/svg" data-name="Filled Expand"><path d="m39.5 4.5h-15l-10 50h35z" fill="#e9eded"/><rect fill="#d28230" height="5" rx="2.5" width="55" x="4.5" y="54.5"/><g fill="#e69336"><path d="m41.4 14-1.9-9.5h-15l-1.9 9.5z"/><path d="m16.6 44-2.1 10.5h35l-2.1-10.5z"/><path d="m45.4 34-2-10h-22.8l-2 10z"/></g><path d="m57 53.5h-6.68l-9.8395-49.1963a1 1 0 0 0 -.9805-.8037h-15a1 1 0 0 0 -.98.8037l-9.84 49.1963h-6.68a3.5 3.5 0 0 0 0 7h50a3.5 3.5 0 0 0 0-7zm-14.82-30.5h-20.36l1.6-8h17.16zm.4 2 1.6 8h-24.36l1.6-8zm2 10 1.6 8h-28.36l1.6-8zm-19.26-29.5h13.36l1.5 7.5h-16.36zm-7.9 39.5h29.16l1.7 8.5h-32.56zm39.58 13.5h-50a1.5 1.5 0 0 1 0-3h50a1.5 1.5 0 0 1 0 3z"/></svg>