<svg id="Filled_Expand" height="512" viewBox="0 0 64 64" width="512" xmlns="http://www.w3.org/2000/svg" data-name="Filled Expand"><path d="m48 16v-12h-8c0 2.2092-3.5817 4-8 4s-8-1.7908-8-4h-8v12a8 8 0 0 1 -8 8v36h48v-36a8 8 0 0 1 -8-8z" fill="#e69336"/><path d="m32 8c-4.4183 0-8-1.7908-8-4 0 8.8367 8 16 8 16s8-7.1633 8-16c0 2.2092-3.5817 4-8 4z" fill="#a76f2a"/><g fill="#e9eded"><path d="m8 49h48v4h-48z"/><path d="m8 40h48v4h-48z"/><path d="m4 20h36v4h-36z" transform="matrix(0 1 -1 0 44 0)"/><path d="m24 20h36v4h-36z" transform="matrix(0 1 -1 0 64 -20)"/></g><path d="m56 23a7.0081 7.0081 0 0 1 -7-7v-12a1 1 0 0 0 -1-1h-8a1 1 0 0 0 -1 1c0 1.416-2.9937 3-7 3s-7-1.584-7-3a1 1 0 0 0 -1-1h-8a1 1 0 0 0 -1 1v12a7.0081 7.0081 0 0 1 -7 7 1 1 0 0 0 -1 1v36a1 1 0 0 0 1 1h48a1 1 0 0 0 1-1v-36a1 1 0 0 0 -1-1zm-1 1.9443v14.0557h-10v-34h2v11a9.0124 9.0124 0 0 0 8 8.9443zm-14 14.0557v-34h2v34zm-2 0h-6v-18.5679a30.2288 30.2288 0 0 0 6-8.2715zm-8 0h-6v-26.8394a30.2288 30.2288 0 0 0 6 8.2715zm-8 0h-2v-34h2zm8 2v2h-22v-2zm0 4v3h-22v-3zm0 5v2h-22v-2zm2 0h22v2h-22zm0-2v-3h22v3zm0-5v-2h22v2zm-1-34a13.2724 13.2724 0 0 0 6.563-1.5162c-1.2736 5.2635-5.0244 9.54-6.563 11.1178-1.5386-1.5776-5.2894-5.8543-6.563-11.1178a13.2724 13.2724 0 0 0 6.563 1.5162zm-15 7v-11h2v34h-10v-14.0557a9.0124 9.0124 0 0 0 8-8.9443zm-8 38h22v5h-22zm24 5v-5h22v5z"/></svg>