<svg id="Filled_Expand" height="512" viewBox="0 0 64 64" width="512" xmlns="http://www.w3.org/2000/svg" data-name="Filled Expand"><path d="m16 58h32v5h-32z" fill="#e1e1e1"/><path d="m48 5h-32l-12 13v15h7v-12l5-5v42h32v-42l5 5v12h7v-15z" fill="#f1f1f1"/><path d="m53 33h7v4h-7z" fill="#e1e1e1"/><path d="m4 33h7v4h-7z" fill="#e1e1e1"/><path d="m32 21-6-20h12z" fill="#cdcdcd"/><g fill="#e1e1e1"><path d="m41 40h7a0 0 0 0 1 0 0v8a0 0 0 0 1 0 0h-4a3 3 0 0 1 -3-3v-5a0 0 0 0 1 0 0z"/><path d="m16 40h7a0 0 0 0 1 0 0v5a3 3 0 0 1 -3 3h-4a0 0 0 0 1 0 0v-8a0 0 0 0 1 0 0z"/><path d="m42 5-4-4-6 20 10-10-2-4z"/><path d="m22 5 4-4 6 20-10-10 2-4z"/></g><path d="m32 21-4.8-16h9.6z" fill="#f1f1f1"/><path d="m60.7349 17.3213-12-13a1 1 0 0 0 -.7349-.3213h-5.5859l-3.7071-3.707a.9979.9979 0 0 0 -.707-.2914v-.0016h-12v.0016a.9979.9979 0 0 0 -.707.2914l-3.7071 3.707h-5.5859a1 1 0 0 0 -.7349.3213l-12 13a1.0037 1.0037 0 0 0 -.2651.6787v19a1 1 0 0 0 1 1h7a1 1 0 0 0 1-1v-15.5859l3-3v44.5859a1 1 0 0 0 1 1h32a1 1 0 0 0 1-1v-44.5859l3 3v15.5859a1 1 0 0 0 1 1h7a1 1 0 0 0 1-1v-19a1.0037 1.0037 0 0 0 -.2651-.6787zm-22.2583-14.4307 2.1093 2.1094-1.2929 1.293a1.0006 1.0006 0 0 0 -.1875 1.1543l1.6777 3.3554-6.6855 6.6856zm-6.4766 14.6294-3.4559-11.52h6.9118zm4.0558-13.52h-8.1116l-.6-2h9.3118zm-11.3488 2.293-1.2929-1.293 2.1093-2.1094 4.3789 14.5977-6.6855-6.6856 1.6777-3.3554a1.0006 1.0006 0 0 0 -.1875-1.1543zm-19.707 29.707v-2h5v2zm10.293-20.707-5 5a.9993.9993 0 0 0 -.293.707v11h-5v-13.6094l11.438-12.3906h5.1479l1.1973 1.1973-1.6777 3.3554a1.0006 1.0006 0 0 0 .1875 1.1543l9.707 9.7071v35.5859h-14v-8h3a4.0042 4.0042 0 0 0 4-4v-5a1 1 0 0 0 -1-1h-6v-23a1 1 0 0 0 -1.707-.707zm1.707 25.707h5v4a2.0023 2.0023 0 0 1 -2 2h-3zm0 18h14v3h-14zm16 3v-3h14v3zm14-15h-3a2.0023 2.0023 0 0 1 -2-2v-4h5zm1.707-31.707a1 1 0 0 0 -1.707.707v23h-6a1 1 0 0 0 -1 1v5a4.0042 4.0042 0 0 0 4 4h3v8h-14v-35.5859l9.707-9.7071a1.0006 1.0006 0 0 0 .1875-1.1543l-1.6777-3.3554 1.1973-1.1973h5.1479l11.438 12.3906v13.6094h-5v-11a.9993.9993 0 0 0 -.293-.707zm5.293 20.707v-2h5v2z"/><circle cx="28" cy="27" r="1"/><circle cx="28" cy="36" r="1"/><circle cx="28" cy="45" r="1"/></svg>