<svg id="Filled_Expand" height="512" viewBox="0 0 64 64" width="512" xmlns="http://www.w3.org/2000/svg" data-name="Filled Expand"><path d="m12 19h40v26h-40z" fill="#cae7de"/><path d="m54.3379 22h-1.3379v-3a1 1 0 0 0 -1-1h-40a1 1 0 0 0 -1 1v3h-1.3379a8.6617 8.6617 0 0 0 -4.457 16.0889l5.7949 3.4773v3.4338a1 1 0 0 0 1 1h40a1 1 0 0 0 1-1v-3.4338l5.7949-3.4773a8.6617 8.6617 0 0 0 -4.457-16.0889zm-48.1035 14.374a6.6616 6.6616 0 0 1 3.4277-12.374h1.3379v15.2337zm44.7656 7.626h-38v-24h38zm6.7656-7.626-4.7656 2.8597v-15.2337h1.3379a6.6616 6.6616 0 0 1 3.4277 12.374z"/><path d="m17 29h30a1 1 0 0 0 0-2h-30a1 1 0 0 0 0 2z"/><path d="m17 37h30a1 1 0 0 0 0-2h-30a1 1 0 0 0 0 2z"/></svg>