<svg id="Filled_Expand" height="512" viewBox="0 0 64 64" width="512" xmlns="http://www.w3.org/2000/svg" data-name="Filled Expand"><path d="m8 56h48v4h-48z" fill="#5f5f5f"/><path d="m12 50h40v6h-40z" fill="#acacac"/><path d="m42.2161 14h-20.4322a4 4 0 0 0 -3.9939 3.7781l-1.79 32.2219h32l-1.79-32.2219a4 4 0 0 0 -3.9939-3.7781z" fill="#db3a3a"/><circle cx="32" cy="32" fill="#e07061" r="10"/><path d="m56 55h-3v-5a1 1 0 0 0 -1-1h-3.0544l-1.7376-31.2773a5.0018 5.0018 0 0 0 -4.9922-4.7227h-20.4316a5.0018 5.0018 0 0 0 -4.9922 4.7227l-1.7376 31.2773h-3.0544a1 1 0 0 0 -1 1v5h-3a1 1 0 0 0 -1 1v4a1 1 0 0 0 1 1h48a1 1 0 0 0 1-1v-4a1 1 0 0 0 -1-1zm-37.2119-37.166a3.003 3.003 0 0 1 2.9961-2.834h20.4316a3.003 3.003 0 0 1 2.9961 2.834l1.7314 31.166h-29.8866zm-5.7881 33.166h38v4h-38zm42 8h-46v-2h46z"/><path d="m32 11a1 1 0 0 0 1-1v-6a1 1 0 0 0 -2 0v6a1 1 0 0 0 1 1z"/><path d="m45.5 12.0625a1.0006 1.0006 0 0 0 1.3662-.3662l3-5.1963a1 1 0 0 0 -1.7324-1l-3 5.1963a1 1 0 0 0 .3662 1.3662z"/><path d="m17.1338 11.6963a1 1 0 1 0 1.7324-1l-3-5.1963a1 1 0 0 0 -1.7324 1z"/><path d="m57 20h-5.9473a1 1 0 0 0 0 2h5.9473a1 1 0 0 0 0-2z"/><path d="m12.9473 22a1 1 0 0 0 0-2h-5.9473a1 1 0 0 0 0 2z"/><path d="m32 43a11 11 0 1 1 11-11 11.0125 11.0125 0 0 1 -11 11zm0-20a9 9 0 1 0 9 9 9.01 9.01 0 0 0 -9-9z"/></svg>