<svg id="Filled_Expand" height="512" viewBox="0 0 64 64" width="512" xmlns="http://www.w3.org/2000/svg" data-name="Filled Expand"><path d="m32 12a20 20 0 1 0 20 20 20 20 0 0 0 -20-20zm0 28a8 8 0 1 1 8-8 8 8 0 0 1 -8 8z" fill="#e9eded"/><g fill="#db3a3a"><path d="m39.7212 34.0643 8.9593 8.9594a19.964 19.964 0 0 0 0-22.0474l-8.9593 8.9594a7.7817 7.7817 0 0 1 0 4.1286z"/><path d="m34.0643 24.2788 8.9594-8.9588a19.964 19.964 0 0 0 -22.0474 0l8.9594 8.9593a7.7817 7.7817 0 0 1 4.1286 0z"/><path d="m29.9357 39.7212-8.9594 8.9593a19.964 19.964 0 0 0 22.0474 0l-8.9594-8.9593a7.7817 7.7817 0 0 1 -4.1286 0z"/><path d="m24.2788 29.9357-8.9588-8.9594a19.964 19.964 0 0 0 0 22.0474l8.9593-8.9594a7.7817 7.7817 0 0 1 0-4.1286z"/></g><path d="m61 32a15.0649 15.0649 0 0 0 -14.06-14.94 14.968 14.968 0 0 0 -29.8808 0 14.968 14.968 0 0 0 0 29.8808 14.968 14.968 0 0 0 29.8808 0 15.0649 15.0649 0 0 0 14.06-14.9408zm-13.631-11.1259-7.2561 7.2553a9.0413 9.0413 0 0 0 -4.2423-4.2423l7.2553-7.2561a19.135 19.135 0 0 1 4.2431 4.2431zm-15.369 18.1259a7 7 0 1 1 7-7 7.0085 7.0085 0 0 1 -7 7zm1.7551-15.8255a8.9135 8.9135 0 0 0 -3.51 0l-7.6566-7.6574a18.8542 18.8542 0 0 1 18.8234 0zm-12.881-6.5435 7.2553 7.2561a9.042 9.042 0 0 0 -4.2423 4.2429l-7.2561-7.2559a19.135 19.135 0 0 1 4.2431-4.2431zm-5.357 5.9573 7.6574 7.6566a8.9135 8.9135 0 0 0 0 3.51l-7.6574 7.6566a18.8542 18.8542 0 0 1 0-18.8234zm1.1139 20.5376 7.2561-7.2554a9.0426 9.0426 0 0 0 4.2429 4.2424l-7.2559 7.2561a19.135 19.135 0 0 1 -4.2431-4.2431zm13.6139-2.3a8.9135 8.9135 0 0 0 3.51 0l7.6566 7.6574a18.8542 18.8542 0 0 1 -18.8234 0zm12.881 6.5435-7.2554-7.2561a9.042 9.042 0 0 0 4.2424-4.2423l7.2561 7.2553a19.135 19.135 0 0 1 -4.2431 4.2427zm5.357-5.9573-7.6574-7.6566a8.9135 8.9135 0 0 0 0-3.51l7.6574-7.6566a18.8542 18.8542 0 0 1 0 18.8234zm-16.4829-36.4121a13.0717 13.0717 0 0 1 12.7 10.3146 20.847 20.847 0 0 0 -25.399 0 13.0717 13.0717 0 0 1 12.699-10.3146zm-27 27a13.0717 13.0717 0 0 1 10.3146-12.6995 20.847 20.847 0 0 0 0 25.399 13.0717 13.0717 0 0 1 -10.3146-12.6995zm27 27a13.0717 13.0717 0 0 1 -12.6995-10.3146 20.847 20.847 0 0 0 25.399 0 13.0717 13.0717 0 0 1 -12.6995 10.3146zm16.6854-14.3a20.847 20.847 0 0 0 0-25.399 12.9752 12.9752 0 0 1 0 25.399z"/></svg>