<svg id="svg14514" height="512" viewBox="0 0 16.933333 16.933334" width="512" xmlns="http://www.w3.org/2000/svg" xmlns:svg="http://www.w3.org/2000/svg"><g id="layer1" transform="translate(0 -280.067)"><path id="path10971" d="m2.9104169 296.20621-.0000098-3.17501c-.0000053-1.75895 1.41605-3.175 3.175-3.175l4.7625159.00001c1.758955-.00001 3.17501 1.41604 3.175005 3.17499l-.00001 3.17501z" fill="#dbe9ee"/><path id="path10973" d="m7.4083328 296.20621.7937542-4.23333h.5291701m0 0 .7937426 4.23333h-2.1166669" fill="#33b9ef"/><path id="path10975" d="m7.143737 289.59163v-1.58751h2.64584l.00001 1.58751-1.3229299 1.05832z" fill="#fdce97"/><path id="path10977" d="m7.690091 291.20489.5119952.76799h.529172l.5119873-.76799-.7765783-.55493z" fill="#2fa9da"/><path id="path10979" d="m6.3500071 289.85622.2645799 2.11666 1.8520701-1.32293-1.5874899-1.3229z" fill="#c8d4d9"/><path id="path10983" d="m10.583328 289.85622-.26458 2.11666-1.852071-1.32293 1.587491-1.3229z" fill="#c8d4d9"/><path id="path10991" d="m10.583336 285.88746c.28705-.48424 1.04049-.27245 1.05833.26459 0 .67618-.52916 1.05833-1.05833 1.05833z" fill="#fdce97"/><path id="path10993" d="m6.3500061 285.88746c-.2870499-.48424-1.0404899-.27245-1.0583299.26459 0 .67618.52916 1.05833 1.0583299 1.05833z" fill="#fdce97"/><path id="path10995" d="m10.583331 284.82913v1.85208c0 1.17263-.9440305 2.11667-2.1166704 2.11667-1.1726299 0-2.1166601-.94404-2.1166601-2.11667v-1.85208z" fill="#fdd5a6"/><path id="path11075" d="m5.8208338 284.56455v-.52917c0-1.46579 1.180042-2.64583 2.6458342-2.64583 1.4657909 0 2.645833 1.18004 2.645833 2.64583v.52917" fill="#ffbc42"/><path id="path11077" d="m5.8208336 285.09371h5.2916674c.293158 0 .529166-.236.529166-.52916s-.236008-.52917-.529166-.52917h-5.2916674c-.2931581 0-.5291667.23601-.5291667.52917s.2360086.52916.5291667.52916z" fill="#e8ab3c"/><path id="path11079" d="m7.9375008 282.97705-.2645839-1.5875c-.04819-.28917.2360089-.52917.5291669-.52917h.529167c.2931581 0 .586659.2417.5291661.52917l-.264583 1.5875z" fill="#e8ab3c"/><path id="path12771-6" d="m8.2010504 280.5958c-.2187813 0-.4215509.0841-.5741252.22841-.1289712.12196-.2165041.3033-.2180746.50074-.7210724.28042-1.3020599.83583-1.6102375 1.54254-.1522013.32686.3468452.54606.4847248.21291.2350366-.53899.6653507-.971 1.2009602-1.21285l.1917195 1.15239c.02063.12847.1313651.22295.2614826.22272h1.0588504c.1293781-.00074.2389045-.095.2594157-.22272l.1927532-1.15342c.7500435.33776 1.2903355 1.04926 1.3833785 1.90531h-5.0115809c-.435161 0-.7927166.35756-.7927166.79272 0 .43427.3561811.79125.7901327.79271-.4365392.0208-.7900173.37562-.7901327.79014-.0002106.75685.5393627 1.25216 1.1890749 1.32136.1337648.38469.3649077.72264.661975.98806l-.0005291.60564c-.070478.00082-.1374042.0291-.1865519.0786l-.5296839.5271c-.057388.0582-.084664.13964-.073897.22066l.2635497 2.11718c.0254.19833.2531417.29792.4159953.1819l.8542116-.60978.3002399.45062-.732772 3.91294h-2.161625v-.79788c0-.35287-.5296831-.35287-.5296831 0v.79788h-1.3229166v-2.91042c-.0000042-1.36187.9206561-2.49321 2.1740273-2.8174.302078-.075.2492325-.51935-.062012-.52141-.023738-.00007-.047377.003-.07028.009-1.482348.38341-2.5709069 1.72844-2.570902 3.32951v3.175c.0000145.14612.118464.26457.2645833.26459h11.1125131c.146119-.00002.264569-.11847.264583-.26459v-3.175c.000006-1.60084-1.087839-2.94589-2.569869-3.32951-.347788-.0995-.485141.43009-.132808.51211 1.253098.32437 2.173514 1.45573 2.173511 2.8174v2.91042h-1.322917v-.79788c0-.35287-.529167-.35287-.529167 0v.79788h-2.1621427l-.7322547-3.91346.2997232-.44906.8526622.60874c.163076.11781.392765.0177.417545-.1819l.264067-2.11718c.0101-.0814-.01815-.16294-.07648-.22066l-.527101-.5271c-.04957-.0501-.11709-.0784-.187586-.0786v-.60668c.296645-.26556.527245-.60356.660942-.98805.649575-.0692 1.190131-.54351 1.190625-1.32033.000344-.52032-.497955-.79141-.790132-.79014.433948-.001.790132-.35845.790132-.79271 0-.34582-.227291-.63936-.538468-.74673-.08388-1.13772-.818954-2.09314-1.8376152-2.49184.00148-.19864-.092327-.38055-.2216914-.50177-.1541555-.14445-.3589669-.22841-.5782593-.22841zm0 .52968h.5291667c.1298344 0 .2892591.0995.2697509.21652l-.2284101 1.37098h-.609265l-.2289265-1.36684c-.020653-.12356.1534385-.22066.267684-.22066zm-2.3807333 3.17345h5.2932179c.151155 0 .26355.11446.26355.26562 0 .15115-.112395.26355-.26355.26355h-5.2932179c-.1511559 0-.2635501-.1124-.2635501-.26355 0-.15116.1123947-.26562.2635501-.26562zm.7947835 1.05885h3.7031334v1.32395c0 1.03063-.8209287 1.85157-1.8515668 1.85157-1.0306272 0-1.8515666-.82094-1.8515666-1.85157zm-.7606771.52452c.08834-.006.1764144.0226.2315104.094-.00177.30567-.0046.64089.011369.93121-.2958639-.0869-.5385959-.36026-.5384681-.74931.000053-.16111.1483569-.26623.2955894-.27595zm5.2301725 0c.145457.0118.286859.121.290422.27595.0088.38467-.242602.6624-.538469.74931.02097-.3047.01085-.61357.01085-.93018.06105-.0741.149921-.10216.237195-.0951zm-1.5590787 2.93263v.60823l-1.0588501.88264-1.0583334-.88264v-.60719c.3189463.15776.6781613.24701 1.0583334.24701.3805714 0 .7398306-.0898 1.0588501-.24805zm-2.6308471.87075 1.1384317.94723-1.2107791.86713-.1932694-1.54874zm3.1424438 0 .267684.26562-.193269 1.54874-1.2112965-.86713zm-1.5704468 1.28985.4144446.2961-.2914546.4377h-.2459803l-.2919716-.4377zm-.043925 1.2609h.088367l.6955647 3.7052h-1.4800132zm-3.1315917.52917c-.3531222 0-.3531222.52968 0 .52968h1.3239502c.3531221 0 .3531221-.52968 0-.52968zm5.0270835 0c-.3531223 0-.3531223.52968 0 .52968h1.324467c.353123 0 .353123-.52968 0-.52968z" font-variant-ligatures="normal" font-variant-position="normal" font-variant-caps="normal" font-variant-numeric="normal" font-variant-alternates="normal" font-feature-settings="normal" text-indent="0" text-align="start" text-decoration-line="none" text-decoration-style="solid" text-decoration-color="#000000" text-transform="none" text-orientation="mixed" white-space="normal" shape-padding="0" isolation="auto" mix-blend-mode="normal" solid-color="#000000" solid-opacity="1" vector-effect="none"/></g></svg>