<svg id="svg14514" height="512" viewBox="0 0 16.933333 16.933334" width="512" xmlns="http://www.w3.org/2000/svg" xmlns:svg="http://www.w3.org/2000/svg"><g id="layer1" transform="translate(0 -280.067)"><path id="path11019" d="m3.9687476 284.56458v10.05416c0-.87675-.7107481-1.5875-1.5875001-1.5875-.8767519 0-1.58750001.71075-1.58750001 1.5875s.71074811 1.58738 1.58750001 1.5875l13.2291675.002c.29316.002.529168-.23414.529167-.52917v-.00003l.000001-10.5852c0-.29316-.236008-.52917-.529169-.52917z" fill="#33b9ef"/><path id="path11021" d="m2.3812475 282.97708c-.8767519 0-1.58750001.71075-1.58750001 1.5875v10.05417c0-.87675.71074811-1.5875 1.58750001-1.5875.876752 0 1.5875001.71075 1.5875001 1.5875v-10.05417c0-.87675-.7107481-1.5875-1.5875001-1.5875z" fill="#2fa9da"/><path id="path11909" d="m11.509373 286.81354-.661458-.66146-.661457-.66146-.132293.13229-.2645832 1.5875 1.5875012-.26458z" fill="#fdd5a6"/><path id="path11907" d="m15.081249 281.91874-4.233334 4.23334.661458.66146 4.230233-4.23644z" fill="#e8ab3c"/><path id="path11905" d="m14.41669 281.25418-4.230232 4.23644.661457.66146 4.233334-4.23334z" fill="#ffbc42"/><path id="path11031" d="m14.41669 281.25418.664559.66456.658357.65836.120922-.12144c.366721-.36617.366448-.95647 0-1.32292-.366447-.36644-.956196-.36617-1.322915 0z" fill="#ff6b6b"/><path id="path12815-3" d="m15.199587 280.59583c-.307503.00003-.616041.11667-.849561.34985l-4.4824142 4.49016c-.0392.0393-.06505.0899-.0739.1447l-.265615 1.58595c-.02971.17897.125399.33408.304374.30437l1.5880152-.26355c.05485-.009.105477-.035.144696-.0744l4.482411-4.49017c.467374-.46668.466861-1.23019 0-1.69705-.233424-.23343-.540503-.34988-.848006-.34985zm.00053.52503c.170748 0 .341371.0664.47439.19947.2436.2436.261443.61145.05891.87592l-.936377-.93431c.120407-.092.261093-.14108.403077-.14108zm-.782913.50746.289906.29042-3.859195 3.8592-.287323-.28784zm.664043.66508.283705.28422-3.855063 3.86178-.286803-.28681zm1.323434 2.80086c0-.43516-.359619-.7953-.794783-.7953h-.529166c-.345039.008-.345039.52151 0 .52917h.529166c.15116 0 .265615.11497.265615.26613v10.58488c0 .15496-.113321.26556-.264606.26458l-13.2296595-.002c-.7338059-.0001-1.3218819-.58864-1.3218819-1.3224s.588121-1.32395 1.3218819-1.32395c.7337611 0 1.3224011.59019 1.3224011 1.32395-.008.3607.537173.3607.5291659 0v-10.05464c0-1.01974-.8318231-1.85157-1.851567-1.85157s-1.85164691.83183-1.85156791 1.85157l.0007937 10.06786c0 1.01661.83997801 1.83824 1.85079201 1.83839h-.000018l13.2286507.002c.435364.002.794784-.35712.794782-.79375zm-14.0234335-1.85157c.7337611 0 1.3224011.58813 1.3224011 1.32189v8.76122c-.336532-.34461-.805053-.56017-1.3224011-.56017-.517335 0-.9853529.21557-1.3218819.56017v-8.76122c0-.73376.588121-1.32189 1.3218819-1.32189zm2.646868 1.05627c-.3450379.008-.3450379.52151 0 .52917h4.7614653c.3450382-.008.3450382-.52151 0-.52917zm5.2399885 1.64899.784449.78445-.940512.15658zm-4.7108224.46819c-.1469281-.00055-.266178.11869-.2656171.26562-.0092 2.65751 0 5.28188 0 7.9375.0005292.14612.1194959.26411.2656171.26355h5.0033104c.01445.001.02896.001.04341 0h3.947046c.146322.00085.265549-.11723.266134-.26355v-7.40782c.000794-.14733-.118803-.26698-.266135-.26613h-2.115116c-.353122 0-.353122.52968 0 .52968h1.851566v2.64635h-3.439066v-1.32446c.0016-.14918-.1206-.27008-.269751-.26717-.145312.003-.261358.12184-.259933.26717v1.58801c-.000529.14612.11743.26503.263549.26562h3.705201v3.70313h-3.439066v-2.38073c.0019-.14937-.120395-.2706-.269751-.26768-.145516.003-.261648.12215-.259933.26768v2.38073h-4.4979166v-3.70313h2.9099014v1.85157c0 .35312.529683.35312.529683 0v-2.11719c-.000529-.14533-.118216-.26301-.263549-.26355h-.529685v-1.85363c.0019-.14917-.120076-.2703-.269232-.26768-.145516.003-.26165.12215-.259935.26768v1.85363h-2.1171834v-3.17603h2.9099014c.360688.008.360688-.53717 0-.52917z" font-variant-ligatures="normal" font-variant-position="normal" font-variant-caps="normal" font-variant-numeric="normal" font-variant-alternates="normal" font-feature-settings="normal" text-indent="0" text-align="start" text-decoration-line="none" text-decoration-style="solid" text-decoration-color="#000000" text-transform="none" text-orientation="mixed" white-space="normal" shape-padding="0" isolation="auto" mix-blend-mode="normal" solid-color="#000000" solid-opacity="1" vector-effect="none"/></g></svg>