<svg id="svg14514" height="512" viewBox="0 0 16.933333 16.933334" width="512" xmlns="http://www.w3.org/2000/svg" xmlns:svg="http://www.w3.org/2000/svg"><g id="layer1" transform="translate(0 -280.067)"><path id="rect1442-2" d="m10.318749 281.65415h1.058331c.293158 0 .529167.23601.529167.52917v2.64583c0 .29316-.236009.52917-.529167.52917h-1.058331z" fill="#33658a"/><path id="path1445-3" d="m11.90625 282.18332h1.058332c.293158 0 .529167.23601.529167.52916v1.5875c0 .29316-.236009.52917-.529167.52917h-1.058332z" fill="#dbe9ee"/><path id="rect1447-0" d="m13.493749 282.97707h1.5875l1.058334.49406-1.058334.56427h-1.5875z" fill="#c8d4d9"/><path id="rect1453-0" d="m2.3812499 293.5604h3.1749999l-.5291669-1.32292 1.0583299-3.96875-.5291659-2.11666h3.7079407c.586319 0 1.0583364-.47202 1.0583364-1.05834v-3.175c0-.58631-.4720174-1.05833-1.0583364-1.05833h-6.3500027c-1.172633 0-2.11666599.94403-2.11666599 2.11667v1.05833c0 1.17263.94403299 2.11667 2.11478109 2.11667z" fill="#ffbc42"/><g fill="#33658a"><path id="rect1455-85" d="m5.5562458 286.15207h2.1166718l-.529167 2.11666h-1.0583328z"/><path id="path1464-4" d="m1.8520849 295.67706v-1.5875c0-.29315.236009-.52916.529166-.52916h4.2333309c.8794748 0 1.5874978.70802 1.5874998 1.5875l.000001 1.05833h-5.8208317c-.293157 0-.529166-.23601-.529166-.52917z"/><path id="rect1466-8" d="m2.9141849 286.15207h.7899821l.5291669 2.11666-.5291669 2.64584h-1.1337821z"/></g><path id="rect1497-8" d="m5.0270868 282.4479h-2.1128969c-.293158 0-.529167.23601-.529167.52917v1.05833c0 .29316.236009.52917.529167.52917h2.1128969c.2931581 0 .529167-.23601.529167-.52917v-1.05833c0-.29316-.2360089-.52917-.529167-.52917z" fill="#ff6b6b"/><path id="path12034" d="m1.8520829 294.88332v.79375c0 .29316.236011.52916.529167.52916h4.233333v-.79375c0-.29315-.2360081-.52916-.5291659-.52916z" fill="#ffbc42"/><path id="path13577-2" d="m2.914032 280.59582c-1.3146351 0-2.38125009 1.06661-2.38125009 2.38125v1.05833c0 1.31464 1.06641099 2.38125 2.38021789 2.38125h.5844591l.4645721 1.85828-.4749062 2.37505h-.6320018l.2454609-3.42046c.013891-.15933-.1156571-.29447-.2754361-.28732-.1356648.006-.2448559.11351-.2526959.24908l-.440801 6.14898c-.314031.10653-.545187.40232-.545187.74982v1.58802c0 .43516.36014.79272.7953.79272h5.8203177c.146928.00055.266179-.11869.265618-.26562v-1.05627c-.000003-1.02147-.832157-1.85363-1.8536337-1.85363h-3.948597l.151929-2.11615h.886767c.1261721-.00004.2347621-.0892.259416-.21291l.5291669-2.64583c.0077-.0383.0068-.0778-.00259-.11576l-.529213-2.11666c-.029378-.11787-.135291-.20055-.256777-.20051h-.791168c-1.0295759 0-1.8510509-.82145-1.8510509-1.85208v-1.05833c0-1.03063.821452-1.85209 1.8520831-1.85209h6.3499996c.444318 0 .7937504.34944.7937504.79375v3.175c0 .44432-.3494324.79375-.7937504.79375h-3.7077826c-.1721332-.00006-.2984982.16165-.2568321.32867l.512631 2.05052-1.040765 3.9026c-.014581.0551-.010951.1135.010351.1664l.1054179.26458c.1308812.32771.6223241.13134.4914422-.19637l-.07287-.18293.9834028-3.68763h.8542128c.122023.00047.228541-.0826.257865-.20102l.479039-1.91565h1.383895c.539975 0 1.0051124-.32739 1.2102624-.79323h.903298c.435163 0 .793234-.36014.793234-.7953v-2.38074h.792715c.151157 0 .265618.11446.265618.26562v1.58595c0 .15116-.114461.26562-.265618.26562-.352864 0-.352864.52968 0 .52968.435163 0 .795301-.36014.795301-.7953h1.321885c.04343.00077.08638-.009.125055-.0289l1.058852-.56482c.193765-.1028.185518-.38316-.01394-.47439l-1.056786-.49403c-.03551-.0162-.07415-.0243-.11317-.0238h-1.321885c0-.43516-.360137-.79478-.7953-.79478h-.842325c-.110392-.30622-.401746-.52917-.743625-.52917h-.903303c-.205161-.46585-.6702984-.79323-1.2102734-.79323zm7.672917 1.3224h.790649c.151156 0 .263551.11446.263551.26561v2.64429c0 .15115-.112395.26613-.263551.26613h-.790649v-.00053-3.175zm-7.671882.26561c-.4351611 0-.7953011.35756-.7953011.79272v1.05885c0 .43516.36014.79272.7953011.79272h1.054716c.3450378-.008.3450378-.52151 0-.52917h-1.054716c-.151157 0-.2656181-.11239-.2656181-.26355v-1.05885c0-.15116.1144611-.26355.2656181-.26355h2.11098c.151157 0 .2656179.11239.2656179.26355v1.05885c0 .15116-.1144609.26355-.2656179.26355-.3450381.008-.3450381.52151 0 .52917.4351629 0 .795301-.35756.795301-.79272v-1.05885c0-.43516-.3601381-.79272-.795301-.79272zm3.6989989.52917h2.1171827c.360693.008.360693-.53717 0-.52917h-2.1298457c-.357243.0242-.3326611.53794.012671.52917zm0 1.05885h2.1171827c.36069.008.36069-.53717 0-.52917h-2.1298457c-.357243.0242-.3326611.53794.012671.52917zm7.1447821-.52917h1.263488l.52555.24392-.533299.28525h-1.255739zm-7.1447821 1.05627c-.3450381.008-.3450381.52151 0 .52917h2.1171827c.345037-.008.345037-.52151 0-.52917zm-.71882 2.1177h1.4391877l-.3979068 1.5875h-.6444059zm.189653 8.73228c.1511539 0 .265615.1124.265615.26355v.52917h-3.96875c-.151153 0-.265615-.11239-.265615-.26355v-1.58802c0-.15115.114462-.26561.265615-.26561h4.232302c.7374727 0 1.3244637.58699 1.3244667 1.32446v.79272h-1.0588518v-.52917c.0000032-.43516-.3596219-.79323-.7947819-.79323h-3.1876629c-.3668131.0183-.3394261.54794.013711.52968z" font-variant-ligatures="normal" font-variant-position="normal" font-variant-caps="normal" font-variant-numeric="normal" font-variant-alternates="normal" font-feature-settings="normal" text-indent="0" text-align="start" text-decoration-line="none" text-decoration-style="solid" text-decoration-color="#000000" text-transform="none" text-orientation="mixed" white-space="normal" shape-padding="0" isolation="auto" mix-blend-mode="normal" solid-color="#000000" solid-opacity="1" vector-effect="none"/></g></svg>