<svg id="svg14514" height="512" viewBox="0 0 16.933333 16.933334" width="512" xmlns="http://www.w3.org/2000/svg" xmlns:svg="http://www.w3.org/2000/svg"><g id="layer1" transform="translate(0 -280.067)"><path id="path10927" d="m7.9374926 283.77081 5.8208414-2.38125.26458.79375-4.0345504 2.54644c-.463371.26966-.625361.58536-.72795.89314l-.264581.79376h-2.6458396l.4712901-1.32293c.1867098-.52408.5561399-1.07861 1.1162095-1.32291z" fill="#e8ab3c"/><path id="path11449" d="m2.381253 291.97289h7.672921v1.05833h-7.672921z" fill="#e8ab3c"/><path id="path11451" d="m5.5577931 286.94581-.5291701 2.11667h-3.70571c-.29316 0-.52916995.23601-.52916995.52917v1.85208c0 .29316.23600995.52917.52916995.52917l8.997371-.00001c.29316 0 .53566-.23606.52917-.52916v-1.85209l-1.0583414-2.64583c-.108869-.27219-.236009-.52917-.52917-.52917h-3.1749796c-.29317 0-.4949201.23802-.5291699.52917z" fill="#ffbc42"/><path id="path11453" d="m6.6161231 287.47498-.42392 1.5875h1.4822595v1.05833l.52915.79375h1.5875v-1.05833l-1.00355-2.38125z" fill="#33b9ef" font-variant-ligatures="normal" font-variant-position="normal" font-variant-caps="normal" font-variant-numeric="normal" font-variant-alternates="normal" font-feature-settings="normal" text-indent="0" text-align="start" text-decoration-line="none" text-decoration-style="solid" text-decoration-color="#000000" text-transform="none" text-orientation="mixed" white-space="normal" shape-padding="0" isolation="auto" mix-blend-mode="normal" solid-color="#000000" solid-opacity="1" vector-effect="none"/><path id="path11463" d="m2.381243 293.03123h8.202091c.87948 0 1.5875.70803 1.5875 1.5875s-.70802 1.5875-1.5875 1.5875h-8.202091c-.87947 0-1.58748995-.70803-1.58748995-1.5875s.70801995-1.5875 1.58748995-1.5875z" fill="#33658a"/><g fill="#dbe9ee"><path id="path11465" d="m10.583334 294.61873a.5291667.5291667 0 0 1 -.52917.52917.5291667.5291667 0 0 1 -.5291714-.52917.5291667.5291667 0 0 1 .5291714-.52916.5291667.5291667 0 0 1 .52917.52916z"/><path id="path11467" d="m8.2020926 294.61873a.5291667.5291667 0 0 1 -.529169.52917.5291667.5291667 0 0 1 -.5291706-.52917.5291667.5291667 0 0 1 .5291706-.52916.5291667.5291667 0 0 1 .529169.52916z"/><path id="path11469" d="m5.8208131 294.61873a.5291667.5291667 0 0 1 -.5291601.52917.5291667.5291667 0 0 1 -.5291701-.52917.5291667.5291667 0 0 1 .5291701-.52916.5291667.5291667 0 0 1 .5291601.52916z"/><path id="path11471" d="m3.4395929 294.61873a.5291667.5291667 0 0 1 -.5291698.52917.5291667.5291667 0 0 1 -.5291601-.52917.5291667.5291667 0 0 1 .5291601-.52916.5291667.5291667 0 0 1 .5291698.52916z"/></g><path id="path11475" d="m16.139584 289.85622c0 .87948-.70803 1.5875-1.5875 1.5875h-1.5875l2.38125-3.17499.79375-.00001z" fill="#33658a"/><path id="path11477" d="m15.345831 288.26873-2.25932-6.24352c-.174567-.48242.159264-1.00138.65481-1.13416.495547-.13278 1.039361.15061 1.134164.65481l1.264096 6.72287z" fill="#ffbc42"/><path id="path12703-8" d="m11.114574 291.43855v-1.84743c-.00026-.0335-.007-.0666-.0196-.0977l-1.058329-2.64635c-.057-.14241-.1218404-.29766-.2387514-.4377-.0995-.11923-.24615-.23089-.436659-.24856l.150369-.45423c.0933-.28001.200981-.51038.6139214-.75086l2.40554-1.51878c.1417-.0894.15248-.2558.0797-.36658-.0723-.10997-.22725-.165-.36129-.0804l-2.3941704 1.51102c-.517791.30133-.734091.70263-.845941 1.03818l-.20412.61237h-2.0804896l.34519-.96842c.1694-.4755.5082196-.96606.9728196-1.16918l4.7777514-1.95467c.006.0186.01.0372.0165.0558l2.21124 6.11022-2.29495 3.05925c-.13125.17422-.007.42341.21084.42374h1.58799c1.02147 0 1.85105-.83009 1.85105-1.85157v-.52916c0-.35287-.52917-.35287-.52917 0v.52916c0 .73749-.58442 1.32242-1.32188 1.32242h-1.05679l1.98231-2.64531.66249-.00053c.16582-.00026.29049-.15132.25942-.3142l-1.263489-6.72258c-.10975-.58371-.68571-.98755-1.32963-.88883-.55339.0848-.88689.47991-.99219.88264l-4.9800504 2.03708c-.6585807.28746-1.0585207.9055-1.2624607 1.47795l-.4082399 1.14618h-.0765c-.4797798 0-.6953699.37852-.7880699.74724l-.477502 1.89911h-3.4979801c-.43515995 0-.79477995.35807-.79477995.79323v1.85364c0 .43516.35962.79271.79477995.79271h.79272v.55087c-.89582.12945-1.58801995.89937-1.58801995 1.83038 0 1.02147.83216995 1.85105 1.85363995 1.85105h8.201571c1.02148 0 1.85105-.82958 1.85105-1.85105 0-1.02148-.82957-1.85208-1.85105-1.85208h-.26407l.00026-.52917c.43547 0 .80483-.35685.79505-.79892zm3.50004-9.84435 1.20561 6.40994-.28887.00053-2.19677-6.06991c-.11718-.32385.12046-.72657.54183-.79918.36046-.0621.68205.15998.7382.45862zm-.5917.0599c-.14612 0-.26458.11847-.26458.26459s.11846.26458.26458.26458c.14613 0 .26458-.11845.26458-.26458s-.11845-.26459-.26458-.26459zm-3.70365 10.05417h-8.995831c-.1511599 0-.26562-.11239-.26562-.26355v-1.85363c0-.15115.1144601-.26355.26562-.26355h3.7052001c.12183.00022.22807-.0828.2573499-.20102l.53149-2.13373c.0498-.2001.11953-.3116.26949-.3116h3.1760406c.0693 0 .0815.0117.128669.0682.0472.0565.1026.16529.15451.29507l1.0387014 2.59726v1.80584c.003.14696-.11449.2607-.26562.2607zm-3.7031309-4.49792c-.12006 0-.22508.0808-.2558.19689l-.42375 1.58595c-.046.16857.0811.33471.2557999.33435h1.2169799v.79271c.0001601.0523.015801.10336.045.14676l.5291697.79479c.0493.0736.13211.11758.22065.1173h1.588021c.14531-.00053.2629704-.11823.2635504-.26355v-1.05885c-.00022-.0356-.008-.0707-.0217-.10335l-1.0020124-2.38125c-.0414-.0981-.13748-.16179-.24391-.16175zm.2030899.52917h.5901399v1.05833h-.87333zm1.1193106 0h.673859l.91415 2.16989v.74053h-1.18184l-.406169-.60979v-.97819zm-6.0900706 2.11305c-.14612.002-.26319.12156-.26148.26768v.7953c-.008.36079.53726.36079.52916 0v-.7953c.002-.14855-.11913-.26942-.26768-.26768zm1.0588499 0c-.1461198.002-.2631899.12156-.2614799.26768v.7953c-.008.36048.5369501.36048.5291599 0v-.7953c.00201-.14855-.1191299-.26942-.26768-.26768zm1.0567802 0c-.1455102.003-.2616401.12216-.2599301.26768v.7953c.008.34495.52142.34495.5291702 0v-.7953c.00201-.14917-.1200801-.2703-.2692401-.26768zm-1.3182601 2.38487h7.1442606v.52916h-1.32446c-.353121 0-.353121.52969 0 .52969h2.1177004c.73747 0 1.32188.58493 1.32188 1.3224 0 .73746-.58441 1.32188-1.32188 1.32188h-8.201571c-.73746 0-1.32395-.58442-1.32395-1.32188 0-.73747.58649-1.3224 1.32395-1.3224h5.0275999c.3531197 0 .3531197-.52969 0-.52969h-4.7635299zm.2656201 1.58801c-.4352401 0-.7953101.358-.7953101.79324s.36006.79477.7953101.79478c.4352499 0 .7927099-.35954.7927099-.79478-.00001-.43524-.3574801-.79324-.7927099-.79324zm2.3807299 0c-.4352399 0-.7953.358-.7953.79324s.3600501.79478.7953.79478c.4352401-.00001.7927099-.35954.7927099-.79478-.0000098-.43524-.3574698-.79324-.7927099-.79324zm2.3807306 0c-.4352406 0-.7927107.358-.7927107.79324s.35746.79478.7927107.79478c.435249 0 .79272-.35954.79272-.79478-.000011-.43524-.357481-.79324-.79272-.79324zm2.3807304 0c-.4352314 0-.7927004.358-.7927114.79324 0 .43524.35746.79478.7927114.79478.43526 0 .79531-.35954.79531-.79478s-.36007-.79324-.79531-.79324zm-7.1421909.52917c.1492499 0 .2635398.11481.2635398.26407s-.1142899.26561-.2635398.26561c-.14927 0-.2656201-.11636-.2656201-.26561 0-.14926.1163501-.26406.2656201-.26407zm2.3807299 0c.1492599.00001.2635501.11481.2635501.26407 0 .14925-.1142902.26561-.2635501.26561-.14926 0-.2656301-.11635-.26562-.26561 0-.14926.11636-.26407.26562-.26407zm2.3807306 0c.149259 0 .263549.11481.263549.26407s-.11429.26561-.263549.26561c-.149261 0-.2635507-.11635-.2635507-.26561s.1142897-.26407.2635507-.26407zm2.3807304 0c.14926 0 .26562.11481.26562.26407.00001.14926-.11636.26561-.26562.26561-.1492614 0-.2635504-.11635-.2635504-.26561s.114289-.26407.2635504-.26407z" font-variant-ligatures="normal" font-variant-position="normal" font-variant-caps="normal" font-variant-numeric="normal" font-variant-alternates="normal" font-feature-settings="normal" text-indent="0" text-align="start" text-decoration-line="none" text-decoration-style="solid" text-decoration-color="#000000" text-transform="none" text-orientation="mixed" white-space="normal" shape-padding="0" isolation="auto" mix-blend-mode="normal" solid-color="#000000" solid-opacity="1" vector-effect="none"/></g></svg>