<svg id="svg14514" height="512" viewBox="0 0 16.933333 16.933334" width="512" xmlns="http://www.w3.org/2000/svg" xmlns:svg="http://www.w3.org/2000/svg"><g id="layer1" transform="translate(0 -280.067)"><path id="path10967" d="m1.5875033 290.64996c0-3.81105 3.06811-6.87916 6.87917-6.87916 3.8110497 0 6.8791597 3.06811 6.8791597 6.87916v1.32292h-13.7583397z" fill="#ffbc42"/><path id="path11067" d="m1.5874933 291.97288h13.7583397c.439741 0 .79375.35402.79375.79375v.52917c0 .43974-.354009.79375-.79375.79375h-13.7583397c-.43974 0-.79375002-.35401-.79375002-.79375v-.52917c0-.43973.35401002-.79375.79375002-.79375z" fill="#e8ab3c"/><path id="rect1431-64" d="m9.2604132 289.85621h-1.5875c-.2931599 0-.5000001-.23746-.5291698-.52916l-.5291601-5.29168c-.0583-.58341.4720199-1.05833 1.0583299-1.05833h1.5875c.5863101 0 1.1166708.47493 1.0583298 1.05833l-.5291697 5.29168c-.0292.2917-.2360002.52916-.5291601.52916z" fill="#e8ab3c"/><path id="path1921-6-1" d="m7.6729132 282.71298c-.6523098 0-1.2548201.4744-1.32085 1.11518-2.91806.89849-5.0286299 3.60619-5.0286299 6.82232v.26355c0 .35287.52917.35287.52917 0v-.26355c0-2.31587 1.1770801-4.34045 2.9651901-5.52111l.47439 4.75372c.035.3517.5621297.29899.5271-.0527l-.4991902-5.00022c.3371601-.18191.6923701-.33381 1.0619502-.45578l.4981599 4.97954c.0401.40078.35667.76739.7927099.76739h1.5880199c.4360402 0 .7526009-.36666.7927199-.76739l.496611-4.98006c.370129.12205.725859.27414 1.063499.4563l-.499199 5.00022c-.0628.37204.5126.4298.52504.0527l.47645-4.75372c1.78812 1.18066 2.9652 3.20524 2.9652 5.52111v.26355c0 .35287.52916.35287.52916 0v-.26355c0-3.21705-2.111841-5.92513-5.031211-6.82284-.0659-.64051-.6661497-1.11466-1.3182699-1.11466zm0 .52968h1.5880199c.4434301 0 .8359099.35612.7947799.7674l-.5291596 5.29115c-.018301.18267-.1153401.29094-.2656203.29094h-1.5880199c-.1502799 0-.2473399-.10831-.2656099-.29094l-.5291701-5.29115c-.0411-.41131.35135-.7674.79478-.7674zm-6.0859299 8.46667c-.58174 0-1.05885002.47453-1.05885002 1.05627v.52968c0 .58174.47711002 1.05833 1.05885002 1.05833h13.7598907c.58173 0 1.05626-.47659 1.05626-1.05833v-.52968c0-.58174-.47453-1.05627-1.05626-1.05627zm0 .5271h13.7598907c.29773 0 .527089.23143.527089.52917v.52968c0 .29773-.229359.52917-.527089.52917h-13.7598907c-.29774 0-.52917-.23144-.52917-.52917v-.52968c0-.29774.23143-.52917.52917-.52917z" font-variant-ligatures="normal" font-variant-position="normal" font-variant-caps="normal" font-variant-numeric="normal" font-variant-alternates="normal" font-feature-settings="normal" text-indent="0" text-align="start" text-decoration-line="none" text-decoration-style="solid" text-decoration-color="#000000" text-transform="none" text-orientation="mixed" white-space="normal" shape-padding="0" isolation="auto" mix-blend-mode="normal" solid-color="#000000" solid-opacity="1" vector-effect="none"/></g></svg>