<svg id="svg14514" height="512" viewBox="0 0 16.933333 16.933334" width="512" xmlns="http://www.w3.org/2000/svg" xmlns:svg="http://www.w3.org/2000/svg"><g id="layer1" transform="translate(0 -280.067)"><path id="path11197" d="m2.9104142 280.86038c-.2931609 0-.5291666.23601-.5291666.52917v4.7625c0 .87947-.7080303 1.5875-1.58750006 1.5875v7.9375c0 .29315.23600566.52916.52916666.52916h6.0854167c.5863193 0 1.0583334-.47201 1.0583334-1.05833 0 .58632.472014 1.05833 1.0583333 1.05833h6.0854174c.293161 0 .529166-.23601.529166-.52916v-7.9375c-.879469 0-1.5875-.70803-1.5875-1.5875v-4.7625c0-.29316-.236005-.52917-.529166-.52917h-3.175l-2.3812507 7.14375-2.38125-7.14375z" fill="#ffbc42"/><path id="path10965" d="m8.4666688 288.00413 2.3812402-7.14375s-1.0583201 1.05833-2.3812402 1.05833c-1.3229098 0-2.3812498-1.05833-2.3812498-1.05833z" fill="#e8ab3c"/><g fill="#dbe9ee"><path id="path11081" d="m.79374892 293.03121h15.34583008v1.5875h-15.34583008z"/><path id="path11083" d="m.79374892 289.32705h15.34583008v1.5875h-15.34583008z"/><path id="path11085" d="m5.2916489 280.86038v8.46667h-1.5875v-8.46667z"/><path id="path11087" d="m13.229159 280.86038v8.46667h-1.5875v-8.46667z"/></g><path id="path12849-6" d="m2.9093789 280.5958c-.43516 0-.79272.35807-.79272.79323v4.76353c0 .73748-.58494 1.3224-1.32239997 1.3224-.14694001-.00055-.26616999.11868-.26561.26562v7.9375c0 .43516.35962.79272.79478007.79272h6.0838698c.4805302 0 .8570801-.24205 1.0588501-.52917.2233901.29678.5780399.52917 1.05885.52917h6.0854101c.43518 0 .79324-.35756.79324-.79272v-7.9375c.00053-.14617-.11738-.2651-.26355-.26562-.73747 0-1.32447-.58492-1.32447-1.3224v-4.76353c0-.43516-.35756-.79323-.79272-.79323h-3.17603c-.0697.00057-.13638.0286-.18552.078 0 0-1.0134.98082-2.1952101.98082-1.1817999 0-2.1931501-.98082-2.1931501-.98082-.0496-.05-.1171898-.078-.1875898-.078zm0 .52968h2.11719v7.9375h-1.0583399v-7.14788c0-.35287-.52968-.35287-.52968 0v7.14788h-2.38073v-1.07745c.9029399-.11985 1.5880099-.91439 1.5880099-1.83297v-4.76353c0-.15115.1123901-.26355.26355-.26355zm2.64687 0h.3395099l2.3068402 6.92361v1.01389h-2.6463501zm5.4823501 0h.33745v7.9375h-2.6442902v-1.01958zm.86713 0h1.05834v7.1422c0 .35287.52968.35287.52968 0v-7.1422h.52916c.15116 0 .26562.1124.26562.26355v4.76353c0 .91793.6823 1.70624 1.58595 1.83297v1.07745h-3.96875zm-1.58388.47594-1.8557001 5.56659-1.85415-5.56504c.4389601.28257 1.0785001.58084 1.85415.58084.77671 0 1.4167001-.29947 1.8557001-.58239zm-9.26403 7.99073h7.14478v3.17345h-7.14478v-1.58544h6.3494798c.35286 0 .35286-.52968 0-.52968h-6.3494798zm7.6739398 0h7.1427202v1.05833h-7.1427202zm0 1.58801h7.1427202v1.58544h-7.1427202zm-7.6739398 2.11512h7.14478v1.05833h-7.14478zm7.6739398 0h7.1427202v1.05833h-6.3494801c-.3528599 0-.3528599.52917 0 .52917h6.3494801v.7953c0 .15115-.11291.26355-.26407.26355h-6.0854101c-.44432 0-.7932401-.34841-.7932401-.79272zm-7.6739398 1.5875h7.14478v.26613c.0000098.44431-.3509801.79272-.7953002.79272h-6.0838698c-.1511501 0-.26561-.1124-.26561-.26355z" font-variant-ligatures="normal" font-variant-position="normal" font-variant-caps="normal" font-variant-numeric="normal" font-variant-alternates="normal" font-feature-settings="normal" text-indent="0" text-align="start" text-decoration-line="none" text-decoration-style="solid" text-decoration-color="#000000" text-transform="none" text-orientation="mixed" white-space="normal" shape-padding="0" isolation="auto" mix-blend-mode="normal" solid-color="#000000" solid-opacity="1" vector-effect="none"/></g></svg>