<svg id="svg14514" height="512" viewBox="0 0 16.933333 16.933334" width="512" xmlns="http://www.w3.org/2000/svg" xmlns:svg="http://www.w3.org/2000/svg"><g id="layer1" transform="translate(0 -280.067)"><path id="path10931" d="m3.1750055 283.50623h.5291698c.29316 0 .5291601.23601.5291601.52917v11.1125h-1.5875v-11.1125c0-.29316.2360099-.52917.5291701-.52917z" fill="#dbe9ee"/><path id="path10933" d="m4.2333455 281.65414c0 .43838-.3553701.79375-.79375.79375-.4383702 0-.7937501-.35537-.7937501-.79375 0-.43837.3553799-.79375.7937501-.79375.4383799 0 .79375.35538.79375.79375z" fill="#ff6b6b"/><path id="path10937" d="m13.229165 283.50623h.52917c.29316 0 .52917.23601.52917.52917v11.1125h-1.5875v-11.1125c0-.29316.236-.52917.52916-.52917z" fill="#dbe9ee"/><path id="path10939" d="m11.377085 295.14789h4.23334v1.05834h-4.23334z" fill="#c8d4d9"/><path id="path10941" d="m14.287505 281.65414c0 .43838-.35537.79375-.79375.79375-.43837 0-.79375-.35537-.79375-.79375 0-.43837.35538-.79375.79375-.79375.43838 0 .79375.35538.79375.79375z" fill="#ff6b6b"/><path id="path11231" d="m1.3229154 295.14789h4.2333399v1.05834h-4.2333399z" fill="#c8d4d9"/><path id="path11233" d="m1.3229154 285.09373h14.2874996c.29316 0 .52917.23601.52917.52917v1.5875c0 .29316-.23601.52917-.52917.52917h-14.2874996c-.29315 0-.52915998-.23601-.52915998-.52917v-1.5875c0-.29316.23600998-.52917.52915998-.52917z" fill="#33658a"/><path id="path11247" d="m1.3229154 289.85623h14.2874996c.29316 0 .52917.23601.52917.52917v1.58749c0 .29315-.23601.52916-.52917.52916h-14.2874996c-.29315 0-.52915998-.23601-.52915998-.52916v-1.58749c0-.29316.23600998-.52917.52915998-.52917z" fill="#33658a"/><path id="path12524-7" d="m2.3812554 285.09373-1.58749998 1.5875v.52917c0 .29316.23600998.52916.52916998.52916h.52916l2.64584-2.64583zm4.23333 0-2.6458302 2.64583h2.1166702l2.64583-2.64583zm4.2333296 0-2.6458296 2.64583h2.1166696l2.64583-2.64583zm4.23334 0-2.64584 2.64583h2.11667l1.5875-1.5875v-.52916c0-.29316-.23601-.52917-.52916-.52917z" fill="#ffbc42"/><path id="path12524-5-8" d="m2.3812554 289.85623-1.58749998 1.5875v.52916c0 .29316.23599998.52917.52915998.52917h.52917l2.6458299-2.64583zm4.23333 0-2.6458302 2.64583h2.1166601l2.6458401-2.64583zm4.2333296 0-2.6458296 2.64583h2.1166696l2.64583-2.64583zm4.23334 0-2.64584 2.64583h2.11667l1.5875-1.5875v-.52917c0-.29316-.23601-.52917-.52917-.52917z" fill="#ffbc42"/><path id="path12709-4" d="m1.0593754 295.14738v1.05885c-.0005292.14612.11743.26503.26355.26562h4.2343599c.1461201-.00053.26411-.1195.2635501-.26562v-1.05885c-.0005291-.14531-.1182301-.26297-.2635501-.26355h-1.0593599v-2.11718h4.7625c.36069.008.36069-.53718 0-.52917h-.41962l2.1182196-2.11718h1.36787l-2.19573 2.19521c-.1657596.16692-.0477.45096.18759.45114h2.11667v2.11718h-1.07152c-.14903.0136-.25205.12753-.25192.26355v1.05885c-.000529.14693.11869.26618.26562.26562h4.2323c.14693.00053.26618-.11869.26561-.26562v-1.05885c-.000529-.14612-.11949-.26411-.26561-.26355h-2.64532v-2.11718h1.05834v1.32291c-.005.35779.53421.35779.52916 0v-1.32291h1.05782c.43516 0 .79478-.35756.79478-.79272v-1.58802c0-.43516-.35962-.7953-.79478-.7953h-1.05782v-1.58543h1.05782c.43516 0 .79478-.36014.79478-.7953v-1.58802c0-.43516-.35962-.79271-.79478-.79271h-1.05782v-.79375c0-.43516-.35859-.79375-.79375-.79375v-.56741c.45409-.11875.79272-.53121.79272-1.02113 0-.58136-.4749-1.05626-1.05627-1.05626s-1.05885.4749-1.05885 1.05626c0 .48922.33969.90119.79324 1.02061v.56793c-.43517 0-.79375.35859-.79375.79375v.79375h-4.7630196c-.3607-.008-.3607.53717 0 .52916h.42013l-2.1171899 2.11719h-1.36735l2.19314-2.19522c.1657699-.16691.0477-.45096-.1875801-.45113h-2.11563v-.79375c0-.43516-.3586002-.79375-.7940101-.79375l-.0002599-.56741c.4545201-.11875.7947801-.53121.7947801-1.02113 0-.58136-.4769602-1.05626-1.0583302-1.05626s-1.0588499.4749-1.0588499 1.05626c0 .48922.3396899.90119.7932299 1.02061v.56793c-.4349199.00026-.7932299.35876-.7932299.79375v.79375h-1.05833c-.43516998 0-.79323998.35755-.79323998.79271v1.58802c0 .43516.35807.7953.79323998.7953h2.64634v1.58543h-1.0583299v-.79581c0-.35287-.5296801-.35287-.5296801 0v.79581h-1.05833c-.43516998 0-.79323998.36014-.79323998.7953v1.58802c0 .43516.35807.79272.79323998.79272h1.05833v2.11718h-1.071c-.148.0136-.25102.12753-.25088.26355zm2.3807299-14.02343c.29538 0 .5291601.23378.5291601.52916 0 .29539-.2337801.52969-.5291601.52969-.2953898 0-.5291698-.2343-.5291698-.52969 0-.29538.23378-.52916.5291698-.52916zm10.0546797 0c.29539 0 .5271.23378.5271.52916 0 .29539-.23171.52969-.5271.52969-.29538 0-.52916-.2343-.52916-.52969 0-.29538.23378-.52916.52916-.52916zm-10.3197795 2.64686h.5291698c.1511502 0 .2645799.11343.2645799.26459v.79375h-1.0583299v-.79375c0-.15116.11342-.26459.2645802-.26459zm10.0541695 0h.52916c.15116 0 .26459.11343.26459.26459v.79375h-1.05834v-.79375c0-.15116.11343-.26459.26459-.26459zm-11.9062496 1.5875h.41909l-.68264.68213v-.41858c0-.15115.11239-.26355.26355-.26355zm1.16788 0h1.36891l-2.11873 2.11719h-.41806c-.15116 0-.26355-.11446-.26355-.26562v-.42013zm2.11512 0h1.3704599l-2.1182198 2.11719h-1.3678701zm4.23437 0h1.3689096l-2.1187396 2.11719h-1.3673601zm2.1171796 0h1.36942l-2.11925 2.11719h-1.3673496zm2.11563 0h1.37046l-2.11873 2.11719h-1.36788zm2.11719 0h.41961c.15115 0 .26561.1124.26561.26355v.42013l-1.4335 1.43351h-1.36943zm.68522 1.43196v.41961c0 .15116-.11445.26562-.26561.26562h-.42013zm-11.3770795 1.21491h9.5244895v1.58543h-1.05834v-.79271c.005-.35779-.53417-.35779-.52916 0v.79271h-7.9369895zm-3.1755101 2.11512h.41961l-.68316.68316v-.41755c0-.15115.11239-.26561.26355-.26561zm1.16943 0h1.36736l-2.11718 2.11718h-.41961c-.15116 0-.26355-.1124-.26355-.26355v-.42271zm2.1151199 0h1.3694201l-2.11718 2.11718h-1.36891zm2.11718 0h1.3683901l-2.11615 2.11718h-1.3688999zm2.1171901 0h1.3678696l-2.1176996 2.11718h-1.3683902zm4.2328096 0h1.36943l-2.1177 2.11718h-1.36891zm2.11719 0h.41806c.15115 0 .26561.11446.26561.26561v.41755l-1.43195 1.43402h-1.37098zm.68367 1.43298v.42065c0 .15115-.11446.26355-.26561.26355h-.41961zm-12.9650897 1.21337h1.0583299v2.11718h-1.0583299zm-1.3218899 2.64635h3.70314v.52968h-3.70314zm10.0526196 0h3.7052v.52968h-3.7052z" font-variant-ligatures="normal" font-variant-position="normal" font-variant-caps="normal" font-variant-numeric="normal" font-variant-alternates="normal" font-feature-settings="normal" text-indent="0" text-align="start" text-decoration-line="none" text-decoration-style="solid" text-decoration-color="#000000" text-transform="none" text-orientation="mixed" white-space="normal" shape-padding="0" isolation="auto" mix-blend-mode="normal" solid-color="#000000" solid-opacity="1" vector-effect="none"/></g></svg>