<svg id="svg14514" height="512" viewBox="0 0 16.933333 16.933334" width="512" xmlns="http://www.w3.org/2000/svg" xmlns:svg="http://www.w3.org/2000/svg"><g id="layer1" transform="translate(0 -280.067)"><path id="path11315" d="m1.8520753 293.03124h13.2291797v2.64583h-13.2291797z" fill="#c8d4d9"/><path id="path11317" d="m.79374532 295.14791h15.34583968v1.05833h-15.34583968z" fill="#dbe9ee"/><path id="path11319" d="m.79374532 291.97291h15.34583968v1.05833h-15.34583968z" fill="#dbe9ee"/><path id="path11323" d="m7.4083455 280.86041-1.05834 3.175.52917 1.05833h3.1749995l.52917-1.05833-1.0583295-3.175z" fill="#ffbc42"/><path id="path11325" d="m8.9958255 282.44791c0 .29225-.23691.52916-.52916.52916-.29225.00001-.52917-.23691-.52917-.52916s.23692-.52917.52917-.52917c.29225.00001.52916.23692.52916.52917z" fill="#ff6b6b"/><path id="path11327" d="m7.6729155 285.09374h1.5875v1.05834h-1.5875z" fill="#e8ab3c"/><path id="path13091-1" d="m7.1576955 280.77617-1.05833 3.17604c-.0222.0662-.0174.1384.0134.20102l.529169 1.05885c.0448.0896.136451.14625.236671.14624h.52917v.79324c-.00053.14692.11869.26617.26562.26561h.52916v.55397c-.636551.14676-1.05833.67278-1.05833 1.2976 0 .13781.0271.26811.0667.39326l-4.8617112 3.04581h-1.55442998c-.14713-.00053-.26647.119-.26562.26613v1.05627c-.0005292.14692.11869.26617.26562.26561h14.02136068v1.58802h-1.3224c-.34506.008-.34506.52154 0 .52917h2.38074v.52968h-14.8161597v-.52968h11.3770897c.36066.008.36066-.53715 0-.52917h-10.3187497v-.79478c.002-.14917-.12008-.2703-.26924-.26769-.14551.003-.26164.12216-.25993.26769v.79478h-.79270998c-.009-.00053-.0183-.00053-.0274 0-.13535.0136-.23837.12753-.23823.26355v1.05885c-.0005292.14693.11869.26618.26562.26562h15.34531968c.14632-.00027.26463-.1193.26407-.26562v-1.05885c-.000529-.14551-.11855-.26325-.26407-.26355h-.79478v-1.58802h.79478c.14632-.00026.26463-.11929.26407-.26561v-1.05627c.000794-.14652-.11754-.26583-.26407-.26613h-1.55598l-4.177-2.6169c-.30235-.20402-.5963595.26456-.28112.44804l3.46129 2.16886h-10.2412396l4.1222301-2.58279c.24294.28251.59863.4656.99839.4656.72749 0 1.32188-.59439 1.32188-1.32188.0323-.38252-.55943-.38252-.5271 0 0 .0339-.006.066-.01.0987-.21658-.14507-.47308-.32763-.78497-.32763s-.517.15957-.78341.3266c-.004-.0324-.01-.0641-.01-.0977 0-.44151.35172-.79324.79323-.79324.14693.00053.26618-.11868.26562-.26561v-.79272h.52917c.14612-.00053.2641-.1195.26355-.26562v-.79323h.5291595c.10022.00001.19185-.0566.23668-.14624l.52917-1.05886c.0308-.0626.0356-.13486.0134-.20102l-1.0562685-3.17603c-.0367-.10782-.13829-.18004-.25218-.17932h-2.129849c-.11637.0103-.20437.0805-.23746.17932zm.44132.34779h1.73478l.9647995 2.89078-.4082495.81442h-2.84788l-.40618-.81442zm.86765.52916c-.43525 0-.79324.36006-.79324.7953 0 .43525.35799.79272.79324.79272.43523-.00001.79478-.35748.79478-.79272 0-.43523-.35954-.79529-.79478-.7953zm0 .52969c.14926 0 .26562.11635.26562.26561s-.11636.26355-.26562.26355-.26407-.11429-.26407-.26355.11481-.26562.26407-.26561zm-.52968 3.17551h1.05884v.52969h-1.05884zm.52709 3.21221c.18443-.007.48303.24481.55036.27233-.14234.13503-.33408.2186-.54777.2186s-.40539-.0836-.54726-.2186c.0838-.0333.36025-.26527.54467-.27233zm-7.4057502 3.66696h14.8161597v.52917h-14.8161597z" font-variant-ligatures="normal" font-variant-position="normal" font-variant-caps="normal" font-variant-numeric="normal" font-variant-alternates="normal" font-feature-settings="normal" text-indent="0" text-align="start" text-decoration-line="none" text-decoration-style="solid" text-decoration-color="#000000" text-transform="none" text-orientation="mixed" white-space="normal" shape-padding="0" isolation="auto" mix-blend-mode="normal" solid-color="#000000" solid-opacity="1" vector-effect="none"/></g></svg>