<svg id="svg14514" height="512" viewBox="0 0 16.933333 16.933334" width="512" xmlns="http://www.w3.org/2000/svg" xmlns:svg="http://www.w3.org/2000/svg"><g id="layer1" transform="translate(0 -280.067)"><path id="path11889" d="m14.022917 294.61874h-11.1124993v1.5875h11.1124993z" fill="#fdd5a6"/><path id="path10969" d="m6.0854178 289.85624c-1.7589501 0-3.1750059 1.41605-3.1750001 3.175v1.5875h11.1124993v-1.5875c.000005-1.75895-1.416045-3.17501-3.175-3.175z" fill="#ff6b6b"/><path id="path10997" d="m7.1437336 289.85624.0000032-1.85209h2.6458402l.000007 1.85209s-.529167.52917-1.32293.52915c-.793763-.00001-1.3229204-.52915-1.3229204-.52915z" fill="#fdce97"/><path id="path10999" d="m5.8208339 284.56458v-.52917c0-1.46579 1.1800419-2.64583 2.6458341-2.64583 1.465791 0 2.645832 1.18004 2.645832 2.64583v.52917" fill="#ffbc42"/><path id="path11001" d="m10.583329 285.88749c.28705-.48424 1.04049-.27245 1.05833.26459 0 .67618-.52916 1.05833-1.05833 1.05833z" fill="#fdce97"/><path id="path11003" d="m6.3500008 285.88749c-.2870501-.48424-1.0404901-.27245-1.0583301.26459 0 .67618.52916 1.05833 1.0583301 1.05833z" fill="#fdce97"/><path id="path11005" d="m10.583329 284.82916v1.85208c0 1.17263-.944028 2.11667-2.116668 2.11667-1.1726303 0-2.1166602-.94404-2.1166602-2.11667v-1.85208z" fill="#fdd5a6"/><path id="path11007" d="m5.8208339 285.09374h5.2916661c.293158 0 .529166-.23601.529166-.52916 0-.29316-.236008-.52917-.529166-.52917h-5.2916661c-.2931581 0-.5291672.23601-.5291672.52917 0 .29315.2360091.52916.5291672.52916z" fill="#e8ab3c"/><path id="path11009" d="m7.937501 282.97708-.264584-1.5875c-.04819-.28917.236009-.52917.529167-.52917h.529167c.293158 0 .586659.2417.529166.52917l-.264583 1.5875z" fill="#e8ab3c"/><path id="path11015" d="m8.466667 293.29582 1.852083-3.43958h.529172c.476634 0 .92809.10397 1.327962.28826l-.0051 6.06175h-7.4083083l-.0051-6.06175c.3999439-.18429.8513998-.28827 1.3280308-.28827l.529177.00001z" fill="#ffbc42"/><path id="path11013" d="m4.7624998 294.08958h7.4083332v1.05833h-7.4083332z" fill="#dbe9ee"/><path id="path12769-7" d="m8.200533 280.59531c-.218781 0-.421034.0841-.573608.22841-.1289722.12196-.2170203.3033-.2185914.50074-.7210718.28042-1.3015439.83583-1.6097199 1.54255-.1522019.32685.346329.54605.484206.2129.235037-.53898.6658692-.971 1.2014779-1.21284l.1912044 1.15238c.02064.12847.131363.22295.261482.22273h1.05885c.129378-.00074.238905-.095.259416-.22273l.192751-1.15342c.750043.33776 1.290335 1.04926 1.383379 1.90531h-5.0110623c-.4351629 0-.7932338.35756-.7932338.79272 0 .43427.3561789.79125.7901329.79272-.436539.0208-.7900199.37613-.7901329.79065-.0002122.75685.5393629 1.25164 1.1890737 1.32084.1339303.38516.3654142.72354.6630091.98909v1.1343h-.79375c-.51117 0-.9969609.11094-1.4329889.31006-.09403.043-.1543841.13688-.1545111.24029v4.21163h-1.322917v-1.3224c-.0000018-.72792.2627871-1.38832.6991832-1.89704.2488089-.26899-.1737572-.63118-.4015261-.34416-.5157179.60118-.826826 1.38543-.826823 2.2412v3.175c.0000159.14612.1184641.26457.2645829.26459h11.1124993c.146119-.00002.264568-.11847.264583-.26459v-3.175c0-.85695-.311901-1.64228-.828889-2.24379-.05175-.0621-.129021-.0971-.209807-.0951-.224813.006-.340648.27127-.191719.43977.43747.50899.701249 1.17019.701249 1.89911v1.3224h-1.322917v-4.21162c-.000127-.10341-.06048-.19727-.154511-.24029-.436034-.19912-.922055-.31006-1.432989-.31006h-.792715v-1.13688c.296277-.26546.526322-.60337.659907-.98754.649574-.0692 1.190131-.54299 1.190625-1.31981.000265-.52032-.497956-.79193-.790133-.79065.433949-.002.790133-.35845.790133-.79272 0-.34581-.226777-.63936-.537953-.74672-.08388-1.13773-.818954-2.09315-1.837612-2.49184.0016-.19864-.09285-.38056-.222208-.50178-.154157-.14445-.358452-.22841-.577744-.22841zm0 .52968h.529683c.129834 0 .288745.0995.269235.21653l-.227894 1.37097h-.60978l-.228928-1.36684c-.02064-.12356.153437-.22066.267684-.22066zm-2.3802153 3.17345h5.2932163c.151154 0 .263033.11446.263033.26562s-.111879.26355-.263033.26355h-5.2932163c-.151157 0-.2640679-.11239-.2640679-.26355s.1129109-.26562.2640679-.26562zm.7942659 1.05885h3.7031314v1.32395c0 1.03064-.820411 1.85157-1.851048 1.85157-1.0306262 0-1.8520834-.82093-1.8520834-1.85157zm-.5291669.61857c-.0019.30567-.0041.6409.01188.93121-.2958629-.0869-.538597-.36026-.5384671-.74931.0000532-.16111.1480371-.27595.2955902-.27595.08834-.006.1759029.0227.2309968.094zm5.2890813.18191c.0088.38468-.242599.66241-.538467.74931.02098-.30469.01085-.61356.01085-.93017.06106-.0741.149921-.10165.237196-.0946.145458.0118.286861.12048.290423.27543zm-1.848982 2.65721v.9188c-.05674.0529-.504528.38758-1.058333.38758s-1.0010543-.33371-1.0588494-.38758v-.9183c.3189364.15775.6781744.24701 1.0583334.24701.380728 0 .739733-.0892 1.058849-.24753zm-3.4400993 1.30585h.3710361l1.7451152 3.23959v.46406h-3.1744841v-3.49333c.3287469-.12838.6813759-.21032 1.0583328-.21032zm4.3904293 0h.37207c.376716-.00001.729583.082 1.058333.21032v3.49333h-3.175515v-.46044zm-3.4075443.0196c.2125919.17152.7182013.51003 1.3988813.51004.680688.00002 1.186291-.33851 1.398881-.51004l-1.398881 2.59829zm-2.0412178 4.21318h3.1744841v.52916h-3.1744841zm3.7036501 0h3.175515v.52916h-3.175515zm-5.5557343.52916h1.322917v1.05885h-1.322917zm9.2604163 0h1.322917v1.05885h-1.322917zm-7.4083321.52968h3.1744841v.52917h-3.1744841zm3.7036501 0h3.175515v.52917h-3.175515z" font-variant-ligatures="normal" font-variant-position="normal" font-variant-caps="normal" font-variant-numeric="normal" font-variant-alternates="normal" font-feature-settings="normal" text-indent="0" text-align="start" text-decoration-line="none" text-decoration-style="solid" text-decoration-color="#000000" text-transform="none" text-orientation="mixed" white-space="normal" shape-padding="0" isolation="auto" mix-blend-mode="normal" solid-color="#000000" solid-opacity="1" vector-effect="none"/></g></svg>