<svg id="svg14514" height="512" viewBox="0 0 16.933333 16.933334" width="512" xmlns="http://www.w3.org/2000/svg" xmlns:svg="http://www.w3.org/2000/svg"><g id="layer1" transform="translate(0 -280.067)"><path id="path11149" d="m8.9958324 291.70833h-1.058334l-.000001 2.38125-.529168.52916.529168 1.5875h1.058333l.529166-1.5875-.529165-.52916z" fill="#c8d4d9"/><path id="path11151" d="m6.6145824 287.47499h3.7041666l-.264584 1.5875h-3.1749996z" fill="#33658a"/><path id="path11153" d="m7.4083324 289.06249h2.116667v2.64584h-2.116667z" fill="#dbe9ee"/><path id="path11155" d="m5.5562494 283.50624h-1.058333v2.11667h1.058333z" fill="#e8ab3c"/><path id="path11157" d="m11.377082 283.50624h1.058333v2.11667h-1.058333z" fill="#e8ab3c"/><path id="path11159" d="m15.081249 284.02956h-2.645834v1.05834h2.645834c.293159 0 .529167-.23601.529167-.52917s-.236008-.52917-.529167-.52917z" fill="#33658a"/><path id="path12088" d="m11.377083 282.97708h-1.322917v.79375h-3.1749996v-.79375h-1.322917v3.175l1.058334 1.32291h3.7041656l1.058334-1.32291z" fill="#ffbc42"/><path id="path11161" d="m6.6145834 280.86041c-.58632 0-1.058334.47202-1.058334 1.05833v1.05834h1.322917v.79375h3.1749996v-.79375h1.322917v-1.05834c0-.59218-.472017-1.05833-1.058334-1.05833z" fill="#33658a"/><path id="path11169" d="m1.8520885 284.03541h2.6458319v1.05833h-2.6458319c-.2931589 0-.529167-.23601-.529167-.52917 0-.29315.2360081-.52916.529167-.52916z" fill="#33658a"/><path id="path11175" d="m7.4083334 285.09374h2.11667c.293158 0 .5291666.23601.5291666.52917s-.2360086.52916-.5291666.52916h-2.11667c-.293158 0-.529166-.236-.529166-.52916s.236008-.52917.529166-.52917z" fill="#ff6b6b"/><path id="path12933-1" d="m6.6140664 280.59634c-.728321 0-1.322401.59357-1.322401 1.32189v1.32239h-.792715a.26460982.26460982 0 0 0 -.265618.26562v1.3224h-2.3807339c-.151157 0-.266134-.11239-.266134-.26355s.114977-.26561.266134-.26561h1.5874999c.352867 0 .352867-.52969 0-.52969h-1.5874999c-.43516 0-.795301.36014-.795301.7953s.360141.79272.795301.79272h2.3807339v.26561a.26460982.26460982 0 0 0 .265618.26356h.792715v.26613a.26460982.26460982 0 0 0 .05891.16381l1.015442 1.27331.25218 1.51567a.26460982.26460982 0 0 0 .261482.22066h2.380734v2.11718h-1.588016v-1.32188c0-.35287-.529166-.35287-.529166 0v1.58543c-.000529.14693.118681.26618.265615.26562h.263551v2.00608l-.451135.4532c-.07058.0705-.09512.17494-.06408.26975l.529167 1.5875c.03588.10865.137758.1822.252182.1819h1.056264c.114425.00027.216305-.0733.252183-.1819l.529166-1.5875c.03104-.0948.006-.19924-.06459-.26975l-.451136-.4532v-1.21285c0-.35286-.529166-.35286-.529166 0v1.32447c.000529.0697.02856.13638.07803.18552l.41238.41392-.415996 1.25212h-.677998l-.415997-1.25212.41238-.41392c.04947-.0491.07745-.11579.07803-.18552v-2.1177h1.321882c.146934.00053.2667-.11869.266134-.26562v-2.38073h.2635506a.26460982.26460982 0 0 0 .261483-.22066l.251663-1.51567 1.015958-1.27331a.26460982.26460982 0 0 0 .0584-.16381v-.26613h.795301a.26460982.26460982 0 0 0 .263549-.26356v-1.33015h2.380734c.151156 0 .265615.11446.265615.26562s-.114459.26407-.265615.26407h-1.588019c-.352864 0-.352864.52916 0 .52916h1.588019c.43516 0 .7953-.35807.7953-.79323s-.36014-.79478-.7953-.79478h-2.380734v-.25787a.26460982.26460982 0 0 0 -.263549-.26562h-.795301v-1.32239c0-.73278-.595331-1.32189-1.321885-1.32189h-2.3812496a.26460982.26460982 0 0 0 -.265615.26355v1.05834a.26484157.26484157 0 1 0 .529683 0v-.79272h.529167v.79272c0 .35286.529166.35286.529166 0v-.79272h.52968v.79272c0 .35286.5291656.35286.5291656 0v-.79272c.44608 0 .792719.34113.792719.79272v.7953h-1.058334a.26460982.26460982 0 0 0 -.2635506.26355v.52916h-2.646865v-.52916a.26460982.26460982 0 0 0 -.263552-.26355h-1.058849v-.7953c0-.44432.348919-.79272.793234-.79272v.79272a.2646485.2646485 0 1 0 .529167 0v-1.05834a.26460982.26460982 0 0 0 -.263552-.26355zm-.793234 2.64428h.793234v.52917a.26460982.26460982 0 0 0 .265615.26613h3.1739676a.26460982.26460982 0 0 0 .265615-.26613v-.52917h.792719v2.81844l-.919843 1.15031h-3.4509496l-.920358-1.15031zm-1.058333.52917h.529166v1.58802h-.529166zm6.8786496 0h.529683v1.58802h-.529683zm-4.2323006 1.05885c-.43516 0-.794782.35962-.794782.79478 0 .43517.359622.79324.794782.79324h2.115116c.43516 0 .7952996-.35807.7952996-.79324 0-.43516-.3601396-.79478-.7952996-.79478zm0 .52917h2.115116c.151156 0 .266134.11446.266134.26561 0 .15116-.114978.26356-.266134.26356h-2.115116c-.151154 0-.265615-.1124-.265615-.26356 0-.15115.114461-.26561.265615-.26561zm-.48214 2.38073h3.0799136l-.1756986 1.05885h-2.728516z" font-variant-ligatures="normal" font-variant-position="normal" font-variant-caps="normal" font-variant-numeric="normal" font-variant-alternates="normal" font-feature-settings="normal" text-indent="0" text-align="start" text-decoration-line="none" text-decoration-style="solid" text-decoration-color="#000000" text-transform="none" text-orientation="mixed" white-space="normal" shape-padding="0" isolation="auto" mix-blend-mode="normal" solid-color="#000000" solid-opacity="1" vector-effect="none"/></g></svg>