<svg id="svg14514" height="512" viewBox="0 0 16.933333 16.933334" width="512" xmlns="http://www.w3.org/2000/svg" xmlns:svg="http://www.w3.org/2000/svg"><g id="layer1" transform="translate(0 -280.067)"><path id="path10955" d="m11.552004 291.97291h1.94174v1.05833h-1.94174z" fill="#e8ab3c"/><path id="path10957" d="m13.493755 292.50208c0 .87947.70803 1.5875 1.5875 1.5875h1.058329l-2.645829-4.23334z" fill="#ffbc42"/><path id="path10959" d="m12.435434 288.53333c-.000009-.58632-.47203-1.05834-1.05834-1.05834h-2.1166701l-1.05835-3.43958h-5.8208396l.00001 5.29167h2.3812606l.881949 2.64588 6.7909711-.00005z" fill="#ffbc42"/><path id="path10961" d="m1.3229143 291.97291v-2.11667c0-.29315.23601-.52916.52917-.52916h2.9104206l.881949 2.64588z" fill="#e8ab3c"/><path id="path11185" d="m3.4395824 285.09374v2.64584h2.1166665l.529167 1.5875h2.116667v-1.5875l-.899171-2.64584h-1.746663z" fill="#33b9ef"/><path id="path11189" d="m1.8520843 282.97708v1.05833h6.8791696v-1.05833z" fill="#e8ab3c"/><path id="path11559" d="m2.3812443 290.91458h7.6729207c.87948 0 1.5875.70802 1.5875 1.58749 0 .87948-.70802 1.5875-1.5875 1.5875h-7.6729207c-.87947 0-1.58748997-.70802-1.58748997-1.5875 0-.87947.70801997-1.58749 1.58748997-1.58749z" fill="#33658a"/><g fill="#dbe9ee"><path id="path11561" d="m10.318754 292.50208c0 .29225-.236919.52917-.5291701.52916-.29225.00001-.52917-.23691-.52917-.52916s.23692-.52917.52917-.52917c.2922511 0 .5291701.23692.5291701.52917z"/><path id="path11563" d="m7.9375039 292.50208c0 .29225-.23692.52917-.52917.52916-.29225.00001-.52917-.23691-.52917-.52916s.23692-.52917.52917-.52917.52917.23692.52917.52917z"/><path id="path11565" d="m5.5562339 292.50208c0 .29225-.23691.52916-.52916.52916-.29225.00001-.529169-.23691-.529169-.52916s.236919-.52917.529169-.52917.52916.23692.52916.52917z"/><path id="path11567" d="m3.1750044 292.50208c0 .29225-.2369201.52917-.5291701.52916-.29225 0-.52916-.23691-.52916-.52916s.23691-.52917.52916-.52917.5291701.23692.5291701.52917z"/></g><path id="path12749-5" d="m1.5869843 282.97708v1.05884c.0005292.14612.11949.26411.26561.26356h6.1526006l1.00149 3.25354c.0347.11089.138049.18613.254249.18552h2.1171801c.444301 0 .792711.35099.792721.7953v2.38074c0 .35285.529159.35285.529159 0v-2.38074c-.00001-.72831-.59357-1.32447-1.32188-1.32447h-1.9218491l-.896581-2.90989h.171561c.145519-.00027.263489-.11804.264069-.26356v-1.05884c-.000529-.14552-.11855-.26326-.264069-.26355h-6.8923406c-.14904.0136-.25205.12752-.25192.26355zm.52916.26354h6.3494896v.52917h-6.3494896zm.26459 1.58389c-.13233 0-.26459.0887-.26459.2651v3.97288h-.26406c-.43516 0-.79375.35859-.79375.79375v1.35289c-.32707997.33397-.53019997.7902-.53019997 1.29346 0 1.02148.83215997 1.85157 1.85362997 1.85157h7.6718807c1.021479 0 1.851569-.83009 1.851569-1.85157 0-.0904-.009-.17867-.0212-.26561h1.345651v.26561c0 .0897.008.17721.0207.26355h-.639751c-.352859 0-.352859.52917 0 .52917h.79995c.297601.62505.9332 1.05885 1.670711 1.05885h1.05834c.20783.0002.334759-.22828.22479-.40463l-2.64635-4.23436c-.0529-.0844-.148801-.13198-.248051-.123-.136159.0126-.24032.12681-.240289.26356v1.85156h-1.50637c-.298091-.6237-.933141-1.05626-1.66967-1.05626h-4.5707811l-.46922-1.40767c-.0361-.10807-.137219-.18093-.25115-.18087h-2.1166597v-3.97288c0-.17644-.1327799-.2651-.2650999-.2651zm1.05988.004c-.14693-.00053-.26617.11869-.26562.26561v2.6448c-.0005291.14693.11869.26618.26562.26562h1.9254596l.46871 1.40612c.0356.10811.1363.18137.25011.1819h2.11719c.14632-.00053.26439-.11982.26355-.26614v-1.58801c.00005-.0284-.004-.0567-.0134-.0837l-.89866-2.64636c-.0362-.10711-.13652-.17937-.24959-.17983zm.2635496.52917h1.588021v2.11769h-1.588021zm2.11718 0h1.292951l.822169 2.42569v1.2795h-1.65985l-.45527-1.36787zm3.43545 2.90628c-.14694.002-.26434.12282-.26148.26975v.79272c-.008.36047.53695.36047.52917 0v-.79272c.003-.14936-.11831-.27152-.26769-.26975zm1.0588511 0c-.147141.001-.264861.12262-.262.26975v.79272c0 .35312.52969.35312.52969 0v-.79272c.003-.14936-.11831-.27152-.26769-.26975zm1.056269 0c-.146129.003-.262279.12362-.25942.26975v.79272c.008.34494.52143.34494.529171 0v-.79272c.003-.15019-.11957-.2727-.269751-.26975zm-9.5198297 1.32757h2.7197296l.352951 1.05937h-.691431c-.38438-.0345-.38438.56162 0 .5271h5.8203111c.73748 0 1.324469.58699 1.324469 1.32446 0 .73748-.586989 1.32189-1.324469 1.32189h-7.6718807c-.73746 0-1.32395-.58441-1.32395-1.32189 0-.73747.58649-1.32446 1.32395-1.32446h.79323c.3843806.0345.3843806-.56163 0-.5271h-.79323c-.28446 0-.55306.0664-.79427.18138v-.97617c0-.15115.11343-.26458.26459-.26458zm11.9067607 1.18804 1.90428 3.04478h-.581881c-.737459 0-1.322399-.58441-1.322399-1.32189zm-11.1130107.92759c-.43524.00001-.79324.36007-.79324.7953 0 .43524.358.79271.79324.79272.4352401 0 .79478-.35747.79478-.79272 0-.43524-.3595399-.7953-.79478-.7953zm2.3807306 0c-.435251 0-.793231.36006-.793231.7953 0 .43525.35798.79272.793231.79272.435229-.00001.794779-.35748.794779-.79272 0-.43523-.35955-.79529-.794779-.7953zm2.382799 0c-.43525 0-.79478.36006-.79478.7953 0 .43525.35954.79272.79478.79272s.79272-.35747.79272-.79272c0-.43524-.35748-.7953-.79272-.7953zm2.38073 0c-.43525 0-.79478.36006-.79478.7953 0 .43525.35953.79272.79478.79272.4352411 0 .7932411-.35747.7932411-.79272 0-.43524-.358-.7953-.7932411-.7953zm-7.1442596.52969c.1492501 0 .2656199.11635.2656199.26561s-.1163698.26356-.2656199.26356c-.14927-.00001-.26407-.1143-.26407-.26356s.11481-.26561.26407-.26561zm2.3807306 0c.149259 0 .26562.11635.26562.26561s-.116361.26355-.26562.26356c-.149261 0-.264071-.1143-.264071-.26356s.11481-.26561.264071-.26561zm2.382799 0c.14925 0 .26355.11635.26355.26561s-.11429.26356-.26355.26356-.265619-.1143-.265619-.26356.116359-.26561.265619-.26561zm2.38073 0c.14925 0 .2635511.11635.2635511.26561s-.1143011.26356-.2635511.26356c-.14926 0-.26561-.1143-.26561-.26356s.11635-.26561.26561-.26561z" font-variant-ligatures="normal" font-variant-position="normal" font-variant-caps="normal" font-variant-numeric="normal" font-variant-alternates="normal" font-feature-settings="normal" text-indent="0" text-align="start" text-decoration-line="none" text-decoration-style="solid" text-decoration-color="#000000" text-transform="none" text-orientation="mixed" white-space="normal" shape-padding="0" isolation="auto" mix-blend-mode="normal" solid-color="#000000" solid-opacity="1" vector-effect="none"/></g></svg>