<svg id="svg14514" height="512" viewBox="0 0 16.933333 16.933334" width="512" xmlns="http://www.w3.org/2000/svg" xmlns:svg="http://www.w3.org/2000/svg"><g id="layer1" transform="translate(0 -280.067)"><path id="path12288-7" d="m6.2177059 280.86038c-.3664505 0-.6614583.29501-.6614583.66146v.79375c0-.36646-.2949972-.66147-.6614584-.66146-.3664399 0-.6614583.29502-.6614583.66146v4.36562c-.2721504-.45401-.5443273-.90817-.8164883-1.36219-.1884098-.3143-.4563269-.56251-.8102864-.46767-.3539596.0948-.5754635.46006-.4676723.81029l1.0955417 3.55999c.2409825.89932.9989053 1.16375.9989053 1.16375v2.11667c0 .29315.2360057.52916.5291667.52916h3.4395833c.2931504 0 .5291667-.23601.5291667-.52916v-2.11667s.79375-.79375.79375-2.11667v-2.64583-1.98438c0-.36644-.2950078-.66145-.6614583-.66145-.3664479 0-.661461.29479-.6614584.65939v-1.05627c-.0000026-.36645-.2950077-.66146-.6614583-.66146-.3664479 0-.6614636.29479-.6614583.65939v-1.05626c-.0000027-.36645-.2950078-.66146-.6614584-.66146z" fill="#e8ab3c"/><path id="path12368-9" d="m8.7312489 291.97288v.52917c0 .29316-.2360099.52916-.52916.52916h-3.43959c-.2931599 0-.5291699-.236-.5291699-.52916v-.52917z" fill="#33658a"/><path id="path11219" d="m11.24479 284.03538c-.366451 0-.661459.29501-.661459.66146v.79375c0-.36646-.294997-.66147-.6614584-.66146-.36644 0-.6614583.29502-.6614583.66146v4.36562l-.8164883-1.36219c-.1884098-.3143-.4563269-.56251-.8102865-.46767-.3539596.0948-.5754608.46006-.4676722.81029l1.0955417 3.55999c.2409799.89932.9989053 1.16375.9989053 1.16375v2.11667c0 .29315.2360057.52916.5291667.52916h3.439584c.29315 0 .529166-.23601.529166-.52916v-2.11667s.79375-.79375.79375-2.11667v-2.64583-1.98438c0-.36645-.295007-.66145-.661458-.66145s-.661458.295-.661458.66145v-1.05833c0-.36645-.295008-.66146-.661459-.66146-.36645 0-.661458.29501-.661458.66146v-1.05833c0-.36645-.295008-.66146-.661458-.66146z" fill="#ffbc42"/><path id="path12366-3" d="m13.758339 295.14788v.52917c0 .29316-.23601.52916-.52916.52916h-3.4395901c-.2931599 0-.5291701-.236-.5291701-.52916v-.52917z" fill="#33658a"/><path id="rect12380-2" d="m10.583329 290.38538h2.38127c.29316 0 .52917.23601.52917.52916v.52917c0 .29316-.23601.52917-.52917.52917h-2.38127c-.29315 0-.52916-.23601-.52916-.52917v-.52917c0-.29315.23601-.52916.52916-.52916z" fill="#ff6b6b"/><path id="path12737-6" d="m6.2182189 280.59631c-.4960699 0-.9027699.39781-.92242.88935-.12235-.0597-.25781-.0966-.40205-.0966-.5084501 0-.9255199.41759-.9255199.92604v2.24999c0 .35287.5291698.35287.5291698 0v-2.24999c0-.22442.1719202-.39687.3963501-.39687.2244601 0 .39843.17242.39843.39687v3.30833c0 .35312.52969.35312.52969 0v-4.10156c0-.22444.1719-.39636.39635-.39636.22444 0 .3963599.17191.3963599.39636v4.10156c-.008.36078.5372701.36078.5291701 0v-3.04271c0-.22445.1719101-.39636.3963599-.39636.22445 0 .3968702.17191.3968702.39636v3.0427c0 .35287.5291699.35287.5291699 0v-1.98437c0-.22444.1719101-.39843.39635-.39843.22445 0 .39843.17399.39843.39843v.13074c0 .35287.52969.35287.52969 0v-.13074c0-.50845-.4196699-.92552-.92812-.92552-.1421299 0-.2755799.0349-.39635.093v-.22583c0-.50846-.4175901-.92604-.9260401-.92604-.14214 0-.27559.0354-.3963599.0935v-.22635c0-.50845-.4170799-.92552-.92553-.92552zm5.0270901 3.17345c-.49592 0-.90204.39998-.92191.89142-.12225-.0599-.25761-.0961-.4020402-.0961-.5084199.00002-.9260398.41707-.9260398.92552v3.40858l-.3240202-.54105c-.28287-.47236-.6685499-.70115-1.1053598-.58808-.4923502.12744-.8056502.64759-.6526702 1.14464l1.0939902 3.55068c.2229498.83204.8243898 1.17697.98806 1.26143v1.94923c0 .43516.36014.7953.7952999.7953h3.4390601c.43516 0 .79323-.36014.79323-.7953v-.52193c0-.2022-.16453-.27079-.27078-.27079h-4.2271301v-1.3224c.0000199-.11267-.0713-.21312-.1777701-.25011 0 0-.6136899-.21452-.83147-.98702l-1.09658-3.56567c-.0626-.20341.0634-.41117.2831902-.47646.2516399-.0631.4315299.21065.51366.34778l.8164899 1.36322c.1377399.23222.4937199.13305.4919599-.13694v-4.36511c0-.22443.1724501-.39635.39688-.39635.2244602-.00001.3984202.1719.3984202.39635v3.01377c-.0345.38438.56163.38438.5271 0v-3.80648c0-.22444.17398-.39843.39843-.39843s.39635.17398.39635.39843v1.05626 2.77968c0 .35312.52969.35312.52969 0v-2.77967c0-.22445.17191-.39636.39636-.39636.22444 0 .39636.17191.39636.39636v1.05885 1.72082c0 .35287.52968.35287.52968 0v-1.72082c.00005-.21205.17191-.39636.39636-.39636s.39842.18214.39842.39636v1.98437 2.64635c0 1.21709-.71675 1.9296-.71675 1.9296-.0499.0496-.0779.11718-.078.18758v.52969c0 .35286.52916.35286.52916 0v-.45527c.13011-.14125.79272-.89174.79272-2.1916v-2.64635-1.98437c0-.50845-.41707-.92604-.92552-.92604-.14214 0-.27559.0354-.39636.0935v-.22634c0-.50845-.41759-.92553-.92604-.92553-.14216 0-.27558.0354-.39636.0935v-.22427c0-.50845-.41759-.92811-.92604-.92811zm-9.3591201 1.96887 1.09347 3.55069c.2187299.79863.7612099 1.15208.9885701 1.26039v1.95285c0 .43516.3596198.79272.79478.79272h2.6442898c.35286 0 .35286-.52917 0-.52917h-2.6442898c-.1511602 0-.2656102-.1124-.2656102-.26355v-.26561h2.3807301c.35286 0 .35286-.52969 0-.52969h-2.3807301v-1.32188c.0000302-.11267-.0713-.21312-.1777698-.25011 0 0-.62771-.22952-.83096-.98754l-1.0965701-3.56309c-.0626-.20341.0702-.41733.2831902-.47698.2582399-.0723.4534598.24389.5152099.34779.3337099.56149.6495999 1.08456.9746199 1.62677.0481.079.1343401.12732.2268601.12712.7609499 0 1.42937.60419 1.42937 1.32447 0 .35287.5296799.35287.5296799 0 0-.96397-.8175299-1.77939-1.80506-1.84795-.31497-.52544-.57301-.96005-.9022699-1.50171-.2756101-.45342-.6061699-.6836-1.0291301-.60178-.58936.11401-.88135.65922-.72838 1.15626zm8.6971401 4.3832c-.43516 0-.7927302.35754-.7927101.79272v.52916c.0000101.43515.3575501.79324.7927101.79324h1.3224c.35313 0 .35313-.52969 0-.52969h-1.3224c-.15114 0-.26355-.11239-.26355-.26355v-.52916c-.00001-.15115.11241-.26355.26355-.26355h2.38074c.15115 0 .26561.11238.26561.26355v.52916c.00001.15115-.11446.26355-.26561.26355-.35313 0-.35313.52969 0 .52969.43516 0 .79531-.35807.7953-.79324v-.52916c-.00001-.43515-.36014-.79272-.7953-.79272zm-1.0583301 5.29063h3.9687501v.26355c0 .15115-.11292.26613-.26407.26613h-3.4390601c-.1511699 0-.26562-.11498-.26562-.26613z" font-variant-ligatures="normal" font-variant-position="normal" font-variant-caps="normal" font-variant-numeric="normal" font-variant-alternates="normal" font-feature-settings="normal" text-indent="0" text-align="start" text-decoration-line="none" text-decoration-style="solid" text-decoration-color="#000000" text-transform="none" text-orientation="mixed" white-space="normal" shape-padding="0" isolation="auto" mix-blend-mode="normal" solid-color="#000000" solid-opacity="1" vector-effect="none"/></g></svg>