<svg id="svg14514" height="512" viewBox="0 0 16.933333 16.933334" width="512" xmlns="http://www.w3.org/2000/svg" xmlns:svg="http://www.w3.org/2000/svg"><g id="layer1" transform="translate(0 -280.067)"><path id="path11179" d="m1.3229136 294.61872h14.2875104c.29316 0 .52916.23601.52916.52917v.52917c0 .29315-.236.52916-.52916.52916h-14.2875104c-.29316 0-.52917-.23601-.52917-.52916v-.52917c0-.29316.23601-.52917.52917-.52917z" fill="#e8ab3c"/><path id="path11181" d="m2.3812336 294.61872 4.76251-13.22916c.0993-.27581.31869-.52917.79375-.52917h1.05834c.47506 0 .69082.2547.79375.52917l4.7625104 13.22916z" fill="#ffbc42"/><path id="path11183" d="m6.0006646 284.56456-.761712 2.11666h6.4554204l-.761711-2.11666zm-1.714625 4.7625-.761711 2.11666h9.8846694l-.761712-2.11666z" fill="#dbe9ee"/><path id="path12959-5" d="m8.9953136 280.59581h-1.05782c-.62287 0-.91895.36026-1.04283.70435l-1.14308 3.17499c-.0618.1724.0659.35398.24908.35399h4.7459604l.57154 1.5875h-5.7030104l.25373-.70435c.0639-.16989-.0584-.35218-.23978-.3576-.11602-.003-.22079.069-.25838.1788-.95561 2.64758-1.90578 5.2937-2.8577 7.9375-.11962.33214.37854.51145.49816.17931l.69918-1.94199h8.6403004c.3578.005.3578-.53423 0-.52917h-8.4496204l.57155-1.5875h7.9886604l1.46089 4.05866c.11951.33218.61767.15287.49816-.17931l-4.38268-12.17264c-.1679704-.46653-.5492904-.70254-1.0423104-.70254zm1.5611404 3.70416h-4.1790704l1.01544-2.82101c.0747-.20754.2257-.35399.54467-.35399h1.05833c.29951 0 .46219.1247.54597.35734zm-5.1314704 2.64584h6.0838704l.76171 2.11666h-7.6072904zm-4.10104 7.40833c-.43516 0-.79478.35755-.79478.79271v.52917c0 .43516.35962.7953.79478.7953h14.2869804c.43516 0 .79324-.36014.79324-.7953v-.52917c0-.43515-.35808-.79271-.79324-.79271zm0 .52917h14.2869804c.15117 0 .26356.11238.26356.26354v.52917c0 .15116-.11239.26613-.26356.26613h-14.2869804c-.15116 0-.26562-.11498-.26562-.26613v-.52917c0-.15115.11446-.26354.26562-.26354z" font-variant-ligatures="normal" font-variant-position="normal" font-variant-caps="normal" font-variant-numeric="normal" font-variant-alternates="normal" font-feature-settings="normal" text-indent="0" text-align="start" text-decoration-line="none" text-decoration-style="solid" text-decoration-color="#000000" text-transform="none" text-orientation="mixed" white-space="normal" shape-padding="0" isolation="auto" mix-blend-mode="normal" solid-color="#000000" solid-opacity="1" vector-effect="none"/></g></svg>