<svg id="svg14514" height="512" viewBox="0 0 16.933333 16.933334" width="512" xmlns="http://www.w3.org/2000/svg" xmlns:svg="http://www.w3.org/2000/svg"><g id="layer1" transform="translate(0 -280.067)"><path id="rect11677" d="m2.9104179 295.67706v-14.2875c0-.29315.2360084-.52916.5291667-.52916h10.0541684c.293158 0 .529167.23601.529167.52916v14.2875c0 .29316-.236009.52917-.529167.52917h-10.0541684c-.2931583 0-.5291667-.23601-.5291667-.52917z" fill="#6f584b"/><path id="path13459-9" d="m5.3769342 282.95019c.2938065-.56187.3945083-1.18084.4304644-1.82417h3.7114022c-.0335 1.84419-.400723 2.33066-1.010792 3.29643-.000529.0008-.001.002-.0016.003-.740971 1.17207-1.989883 2.49173-3.1569133 3.77909-.8373551.9237-1.6310483 1.82473-2.1735108 2.68201v-3.25459c.8001551-.57982 1.8668588-1.34328 2.7801921-2.26911.953905-.96696 1.747875-2.11579 1.827279-3.4277.01177-.15924-.119111-.29254-.278536-.2837-.135582.008-.243431.11653-.249597.25218-.0675 1.11527-.766973 2.16634-1.6758668 3.08767-.7626112.77304-1.6525317 1.43941-2.4034713 1.98592v-1.35289c0-.35312-.5296834-.35312-.5296834 0-.00203 3.35082 0 6.69859 0 10.05262 0 .43516.3580725.79478.7932336.79478 3.3566059.003 6.6985551 0 10.0546841 0 .43516 0 .792717-.35962.792717-.79478v-.79272c-.0077-.34503-.521508-.34503-.529167 0v.79272c0 .15115-.112395.26561-.26355.26561h-.626307c-1.092699-2.35385-2.813783-3.87179-2.813783-7.40885 0-1.54853.326733-2.64947.785999-3.62716.08433-.17326-.03888-.37567-.23151-.38034-.106262-.003-.203751.0587-.247531.15554-.4837922 1.02991-.8361252 2.22789-.8361252 3.85196 0 3.58627 1.7012732 5.27685 2.7569392 7.40885h-4.1139622c-.258296-1.71758-1.309054-3.63779-1.554944-5.8508-.01537-.13815-.135005-.24085-.273886-.23513-.07184.003-.139379.0351-.187068.0889 0 0-1.4866988 1.67308-2.4535974 4.38785-.1184659.33259.3802115.50984.4986776.17725.7419565-2.03407 1.5301223-3.10073 1.9750738-3.74034.349679 2.02745 1.225175 3.77057 1.461409 5.17229h-1.066602l-.486791-2.43344c-.02508-.12606-.13712-.21587-.2656172-.21291-.090756.002-.1740485.0508-.2206585.12868 0 0-.7321995 1.1906-.8226889 2.51767h-1.3316613c-.1511562 0-.2635496-.11445-.2635499-.26561v-3.65198c.3791376-.96957 1.4198888-2.20085 2.5662514-3.46542.6708024-.73996 1.3725854-1.49379 1.9998784-2.23914-.95338 3.41161.354574 6.59357 1.929081 9.02684.190787.29978.6394702.01.4444182-.28732-1.8114492-2.79945-3.2135662-6.46645-1.1544522-10.36371.601094-.95128 1.0547172-1.59326 1.0857222-3.5698h2.252576c-.409224.9153-.912533 1.6867-1.384928 2.50785-.176045.30593.282842.56999.458886.26407.496154-.86244 1.055034-1.71249 1.500684-2.77192h.620117c.151155 0 .26355.11239.26355.26354v1.7663c-1.014495 1.36839-2.115117 2.844-2.115117 5.37797 0 2.57127 1.13328 4.05618 2.160076 5.43894l.001.002c.0022.003.0045.006.0067.009.152366.20339.47594.096.476457-.15813v-12.43646c0-.43516-.357556-.79324-.792716-.79324-3.34574-.005-6.7029542 0-10.0546828 0-.4351608 0-.7932333.35808-.7932333.79324v3.14219c0 .23612.2203971.30446.4402833.21728 1.1922856-.47271 1.8660568-1.01413 2.290348-1.79888zm-1.9373493-1.82417h1.839164c-.036052.58973-.1226572 1.1125-.3705201 1.57768-.4211903.79047-1.0723957 1.12416-1.7321938 1.4242v-2.73834c0-.15115.1123939-.26354.2635499-.26354zm10.3182341 2.92643v8.96431c-.850818-1.17951-1.588017-2.43578-1.588017-4.48293 0-2.04581.737381-3.30081 1.588017-4.48138zm-8.0408542 10.34304.309542 1.54667h-.7245034c.045598-.58351.2328328-1.12118.4149614-1.54667z" font-variant-ligatures="normal" font-variant-position="normal" font-variant-caps="normal" font-variant-numeric="normal" font-variant-alternates="normal" font-feature-settings="normal" text-indent="0" text-align="start" text-decoration-line="none" text-decoration-style="solid" text-decoration-color="#000000" text-transform="none" text-orientation="mixed" white-space="normal" shape-padding="0" isolation="auto" mix-blend-mode="normal" solid-color="#000000" solid-opacity="1" vector-effect="none"/></g></svg>