<svg id="svg14514" height="512" viewBox="0 0 16.933333 16.933334" width="512" xmlns="http://www.w3.org/2000/svg" xmlns:svg="http://www.w3.org/2000/svg"><g id="layer1" transform="translate(0 -280.067)"><path id="path10929" d="m16.139584 294.61871c0 .29316-.236006.52917-.529163.52917h-14.2875069c-.293157 0-.52916395-.23601-.52916395-.52917v-12.17084c0-.29315.23600695-.52916.52916395-.52916h2.9104196v2.64583h6.3500013v2.64584h5.556249z" fill="#ff6b6b"/><path id="path11311" d="m4.2333347 283.50621c.529166 0 .529167-.26458 1.058334-.26458.529165 0 .529167.26458 1.058332.26458.529167 0 .529168-.26458 1.058333-.26458.529166 0 .529167.26458 1.058334.26458.529166 0 .529168-.26458 1.058333-.26458.5291673 0 .5291683.26458 1.0583343.26458v1.05833h-6.3500013z" fill="#c8d4d9"/><path id="path11313" d="m10.847919 285.88746c-.108585 0-.191416.0128-.264583.0305v1.29243h5.556249v-1.05833c-.529166 0-.529166-.26459-1.058333-.26459s-.529167.26459-1.058333.26459c-.529167 0-.529167-.26459-1.058334-.26459-.529166 0-.529166.26459-1.058333.26459-.529166 0-.529166-.26459-1.058333-.26459z" fill="#c8d4d9"/><path id="path12707-4" d="m16.121498 285.88746c-.396065-.002-.45098-.26458-1.040246-.26406-.633164.002-.596559.26407-1.058335.26355-.461773-.00053-.425169-.26267-1.058332-.26407-.633164.001-.596559.26355-1.058333.26407-.110244.00053-.180346-.0121-.238229-.0295-.328303-.0972-.492461.39108-.151929.50643.107482.0322.235818.0527.390158.0522.589266-.00053.644181-.26331 1.058333-.26511.414152.002.469065.26459 1.058332.26511.589268.00053.644442-.26227 1.04955-.26407.39128 0 .436631.17934.802535.24133v.55294h-5.027084c.0011-1.14671.00013-2.29341-.0016-3.4401-.0038-.13499-.09962-.26994-.28112-.26459-.396052-.002-.450966-.26458-1.0402333-.26406-.633164.002-.596559.26407-1.058333.26355-.461775-.00053-.42517-.26267-1.058334-.26355-.633164.002-.596559.26381-1.058333.26355-.463055-.00026-.424334-.26355-1.062985-.26355-.365559.0169-.330367.53854.02273.52813.396065.002.45098.26484 1.040247.2651.589266.00026.644181-.26278 1.058333-.2651.414152.001.469066.26407 1.058333.26458.589267.00053.643922-.26226 1.049031-.26406.391398 0 .436726.17939.8030543.24133v.5519h-5.8202723v-2.38073c-.00053-.14612-.119497-.26411-.265616-.26355h-2.9104166c-.43515885 0-.79271685.35755-.79271685.79271v2.11719c.000148.15438.131875.27587.285771.26355h1.03611285v2.1177h-.792717v-1.3224c.0029-.15019-.11956785-.27271-.26975085-.26975-.146131.003-.262283.12362-.259416.26975v8.99376c0 .43516.357558.7953.79271685.7953h14.2869829c.43516 0 .7953-.36014.7953-.7953v-1.05626c-.0076-.34504-.521507-.34504-.529166 0v1.05626c0 .15116-.114981.26614-.266134.26614h-2.644284v-2.1177h3.151747c.154686.0136.287789-.10827.287837-.26355.000793-2.11691-.00053-4.23393-.0021-6.35052-.0038-.13499-.09963-.26994-.28112-.26458zm-14.7990969-3.7052h2.6468666v2.11719h-2.9104165v-1.85157c0-.15115.1123959-.26562.2635499-.26562zm1.05885 2.64635h3.7052016v2.1177h-3.7052016zm4.2343686 0h3.7031323v2.1177h-3.7031323zm-5.5567685 2.64687h2.9104165v2.11719h-2.9104165zm3.4395815 0h3.703136v2.11719h-3.703136zm4.232302 0h1.8536343 1.851565v2.11719h-3.7051993zm4.2343663 0h2.910417v2.11719h-2.910417zm-11.9062498 2.64428h.7927169v2.11719h-.7927169zm1.3223999 0h3.7052016v2.11719h-3.7052016zm4.2343686 0h3.7031323v2.11719h-3.7031323zm4.2322983 0h3.705201v2.11719h-3.705201zm4.232299 0h.795301v2.11719h-.795301zm-14.0213658 2.64636h2.9104165v2.11769h-2.6468666c-.151154 0-.263551-.11498-.2635499-.26613zm3.4395815 0h3.703136v2.11769h-3.703136zm4.232302 0h3.7051993v2.11769h-3.7051993z" font-variant-ligatures="normal" font-variant-position="normal" font-variant-caps="normal" font-variant-numeric="normal" font-variant-alternates="normal" font-feature-settings="normal" text-indent="0" text-align="start" text-decoration-line="none" text-decoration-style="solid" text-decoration-color="#000000" text-transform="none" text-orientation="mixed" white-space="normal" shape-padding="0" isolation="auto" mix-blend-mode="normal" solid-color="#000000" solid-opacity="1" vector-effect="none"/></g></svg>