<svg id="svg14514" height="512" viewBox="0 0 16.933333 16.933334" width="512" xmlns="http://www.w3.org/2000/svg" xmlns:svg="http://www.w3.org/2000/svg"><g id="layer1" transform="translate(0 -280.067)"><path id="rect10921" d="m2.3812491 289.85621h6.8791665v1.05833h-6.8791665z" fill="#e8ab3c"/><path id="path11627" d="m11.377083 284.56454h2.910416c.293159 0 .467742.24252.529167.52917l.79375 2.64584v3.175h-4.7625v-5.82084c0-.29316.236009-.52917.529167-.52917z" fill="#ffbc42"/><path id="path11629" d="m11.906251 285.62184v1.58854h.793749l.529167.52917h1.274858l-.634588-2.11771z" fill="#33b9ef" font-variant-ligatures="normal" font-variant-position="normal" font-variant-caps="normal" font-variant-numeric="normal" font-variant-alternates="normal" font-feature-settings="normal" text-indent="0" text-align="start" text-decoration-line="none" text-decoration-style="solid" text-decoration-color="#000000" text-transform="none" text-orientation="mixed" white-space="normal" shape-padding="0" isolation="auto" mix-blend-mode="normal" solid-color="#000000" solid-opacity="1" vector-effect="none"/><path id="path11631" d="m1.3229181 290.91455h14.8166689v1.05833h-14.8166689z" fill="#2f5c7e"/><path id="path11633" d="m14.552087 291.97288c-.000001.87675-.71075 1.5875-1.587502 1.5875s-1.587501-.71075-1.587502-1.5875c.000001-.87675.71075-1.5875 1.587502-1.5875s1.587501.71075 1.587502 1.5875z" fill="#33658a"/><path id="path11635" d="m13.493748 291.97288c.000002.29225-.236917.52917-.52917.52917-.292249 0-.529162-.23692-.52916-.52917.000004-.29225.236915-.52916.52916-.52916.292249 0 .529166.23691.52917.52916z" fill="#dbe9ee"/><path id="path11637" d="m10.847916 283.50621-1.0583324 1.05833-.000001 5.29167h-7.9374985l-1.05833299-1.05833-.000001-4.7625h.79374899l.79375.79375h5.5562515l1.322915-1.32292z" fill="#ffbc42"/><g fill="#e8ab3c"><path id="path11639" d="m2.3812451 285.88746h1.058333v2.91042h-1.058333z"/><path id="path11641" d="m4.7625001 285.88746h1.058333v2.91042h-1.058333z"/><path id="path11643" d="m7.1437486 285.88746h1.058335v2.91042h-1.058335z"/></g><path id="path11645" d="m5.5562479 291.97288c-.0000007.87675-.7107499 1.5875-1.5875018 1.5875s-1.587501-.71075-1.587502-1.5875c.000001-.87675.7107501-1.5875 1.587502-1.5875s1.5875011.71075 1.5875018 1.5875z" fill="#33658a"/><path id="path11647" d="m4.497909 291.97288c.0000022.29225-.2369169.52917-.5291698.52917-.2922492 0-.5291622-.23692-.5291601-.52917.000004-.29225.2369151-.52916.5291601-.52916.292249 0 .5291659.23691.5291698.52916z" fill="#dbe9ee"/><path id="path12699-4" d="m15.346351 287.77829v2.87063h-1.089856c-.334034-.3264-.789249-.52917-1.290875-.52917-.501629 0-.957917.20277-1.292429.52917h-2.1471554v-.52917h.263547c.145311-.00053.2629664-.11824.2635484-.26355v-5.18159l.982369-.98031c.169436-.16674.05013-.45498-.187584-.4532l-1.5875004.00001c-.07042.00002-.13793.0281-.187584.078l-1.244369 1.24592h-5.3376605l-.716751-.71675c-.04915-.0494-.115813-.0775-.185518-.078h-.79529999c-.146119.00053-.264107.1195-.263552.26561v4.76147c-.000264.0702.02711.13768.07648.18759l1.05833299 1.05885c.04999.0492.117462.0765.187584.076h.263549v.52916h-.792715c-.146323.00053-.264393.11982-.263549.26614v1.05833c.0005291.14531.118234.26297.263549.26355h.813903c.129201.89535.902396 1.58802 1.8324459 1.58802.9300501 0 1.701464-.69267 1.830379-1.58802h4.519105c.352864 0 .352864-.52917 0-.52917h-4.5196209c-.12982-.89462-.900538-1.58801-1.8298631-1.58801-.501626 0-.960496.20276-1.2950109.52916h-.02946v-.52916h1.3244669 5.0276016v.52916h-2.6468675c-.352864 0-.352864.52969 0 .52969h4.9444009c-.115702.24146-.182417.51032-.182417.79478 0 1.01974.83389 1.85157 1.853634 1.85157.930061 0 1.701477-.69265 1.830379-1.58802h1.34307c.146119.00053.265034-.11743.265616-.26355v-1.05833c.000794-.14713-.118486-.2667-.265616-.26614h-.263551v-2.9099c-.000169-.0258-.0043-.0513-.01188-.076l-.790896-2.63498c-.132564-.44166-.377158-.72864-.785219-.72864h-2.909901c-.43516 0-.7953.36014-.7953.7953v4.76147c0 .35287.529685.35287.529685 0v-4.76146c0-.15116.114462-.26614.265615-.26614h2.909888c.169984 0 .228158.18326.272595.33124zm-5.9768974-4.00801h.8402584l-.6077134.6072c-.04918.05-.0765.11746-.07597.18758v5.0276h-7.5643975l-.902269-.90434v-4.38887h.417544l.716754.71675c.04957.0501.117088.0784.187584.0786h5.5567655c.0705-.00015.138017-.0284.187588-.0786zm2.2716964 1.85156v1.58802c-.000529.14693.118689.26618.265615.26562h.683681l.451135.45113c.04966.0499.117163.078.187585.078h1.275373c.177896.00027.30548-.17137.253733-.34158l-.634587-2.11718c-.03402-.11182-.137372-.18807-.254249-.18759h-1.976366c-.149037.0136-.252053.12753-.25192.26355zm-9.5255189.26562v2.9099c-.0007938.14713.118486.2667.265618.26614h1.0588489c.146323-.00053.264396-.11982.263552-.26614v-2.9099c-.0005292-.14531-.118237-.26297-.263552-.26355h-1.0725439c-.14904.0136-.252055.12753-.251923.26355zm2.382801 0v2.9099c-.0007937.14632.1172279.26555.263551.26614h1.058849c.146323-.00053.2643931-.11982.2635491-.26614v-2.9099c-.0005292-.14531-.118237-.26297-.2635491-.26355h-1.071512c-.148005.0136-.2510211.12753-.250888.26355zm2.38125 0v2.9099c-.0007937.14632.1172279.26555.2635515.26614h1.058333c.147129.00052.266464-.11901.265616-.26614v-2.9099c-.00053-.14612-.119498-.2641-.265616-.26355h-1.070996c-.1480055.0136-.2510215.12753-.2508885.26355zm5.2906339-.002h1.502233l.476457 1.59008h-.810803l-.451136-.45113c-.04957-.0501-.117088-.0784-.187584-.0786h-.529167zm-9.5255179.26552h.5296849v2.3828h-.5296849zm2.383319 0h.5291659v2.3828h-.5291659zm2.3807305 0h.529167v2.3828h-.529167zm4.4979174 2.91248h.529167c.353123 0 .353123-.52968 0-.52968h-.542859c-.366819.0183-.339432.54794.01368.52968zm-7.9374998 1.58543c.7337608 0 1.322401.59071 1.322401 1.32447s-.5886402 1.3224-1.322401 1.3224c-.733761 0-1.3244651-.58864-1.3244671-1.3224.000002-.73376.5907061-1.32447 1.3244671-1.32447zm8.9963518 0c.733758 0 1.321882.59071 1.321882 1.32447s-.588124 1.3224-1.321882 1.3224c-.733761 0-1.324467-.58864-1.324467-1.3224s.590706-1.32447 1.324467-1.32447zm-11.3770839.52967h.709518c-.0789.16468-.133554.3424-.160716.52917h-.548802zm2.3807321 0c-.435234 0-.7947771.35955-.7947822.79478-.0000029.43524.35954.79272.7947822.79272.4352449 0 .7927208-.35747.7927179-.79272-.000008-.43524-.357481-.79478-.7927179-.79478zm8.9963518 0c-.435237 0-.795295.35955-.795301.79478-.000002.43524.360056.79272.795301.79272s.792718-.35747.792715-.79272c-.000005-.43524-.357478-.79478-.792715-.79478zm1.669148 0h1.24075v.52917h-1.080037c-.0271-.18681-.08193-.36445-.160713-.52917zm-10.6654998.52917c.1492618 0 .2635488.11635.2635509.26561 0 .14926-.1142891.26356-.2635509.26356-.1492541 0-.2656181-.1143-.2656152-.26356.0000021-.14926.1163611-.26561.2656152-.26561zm8.9963518 0c.149259 0 .263546.11635.263549.26561 0 .14926-.11429.26356-.263549.26356-.149254 0-.266137-.1143-.266134-.26356 0-.14926.11688-.26561.266134-.26561z" font-variant-ligatures="normal" font-variant-position="normal" font-variant-caps="normal" font-variant-numeric="normal" font-variant-alternates="normal" font-feature-settings="normal" text-indent="0" text-align="start" text-decoration-line="none" text-decoration-style="solid" text-decoration-color="#000000" text-transform="none" text-orientation="mixed" white-space="normal" shape-padding="0" isolation="auto" mix-blend-mode="normal" solid-color="#000000" solid-opacity="1" vector-effect="none"/></g></svg>