<svg id="svg14514" height="512" viewBox="0 0 16.933333 16.933334" width="512" xmlns="http://www.w3.org/2000/svg" xmlns:svg="http://www.w3.org/2000/svg"><g id="layer1" transform="translate(0 -280.067)"><path id="path11651" d="m11.377078 284.82913h2.910416c.293159 0 .467742.24251.529167.52916l.79375 2.64584v3.175h-4.7625v-5.82084c0-.29315.236009-.52916.529167-.52916z" fill="#ffbc42"/><path id="path11653" d="m11.906246 285.88643v1.58853h.793749l.529167.52917h1.274858l-.634588-2.1177z" fill="#33b9ef" font-variant-ligatures="normal" font-variant-position="normal" font-variant-caps="normal" font-variant-numeric="normal" font-variant-alternates="normal" font-feature-settings="normal" text-indent="0" text-align="start" text-decoration-line="none" text-decoration-style="solid" text-decoration-color="#000000" text-transform="none" text-orientation="mixed" white-space="normal" shape-padding="0" isolation="auto" mix-blend-mode="normal" solid-color="#000000" solid-opacity="1" vector-effect="none"/><path id="path11655" d="m.79374563 291.17913h15.34583637v1.05833h-15.34583637z" fill="#2f5c7e"/><path id="path11657" d="m14.552082 292.23746c-.000001.87675-.71075 1.5875-1.587502 1.5875s-1.587501-.71075-1.587502-1.5875c.000001-.87675.71075-1.5875 1.587502-1.5875s1.587501.71075 1.587502 1.5875z" fill="#33658a"/><path id="path11659" d="m13.493743 292.23746c.000002.29225-.236917.52917-.52917.52917-.292249 0-.529162-.23692-.52916-.52917.000004-.29225.236915-.52916.52916-.52916.292249 0 .529166.23691.52917.52916z" fill="#dbe9ee"/><path id="path11663" d="m5.2810777 288.96478 3.038709.53696 1.5874979-2.74963-1.9803719-2.37005-1.8330871-1.05833-4.241744-.61127-1.05833298 1.83309 2.65424388 3.3609z" fill="#ffbc42"/><path id="path11667" d="m5.2810825 288.96478 2.6458331-4.58272-1.83309-1.05833-2.645832 4.58272z" fill="#e8ab3c"/><path id="path11671" d="m1.3046169 283.6607-.51086809.90385.79374999 3.175-.79374999 2.38125v1.05833h1.32291669.79375 6.8791668v-2.38125l-.7579122-.52917-1.0583334 1.85209h-5.0629212l-.040989-2.38125z" fill="#dbe9ee"/><path id="path11699" d="m5.5562426 292.23746c-.0000011.87675-.71075 1.5875-1.5875019 1.5875-.8767522 0-1.5875011-.71075-1.5875021-1.5875.000001-.87675.7107499-1.5875 1.5875021-1.5875.8767519 0 1.5875008.71075 1.5875019 1.5875z" fill="#33658a"/><path id="path11701" d="m4.4979037 292.23746c.0000018.29225-.236917.52917-.5291702.52917-.2922489 0-.5291619-.23692-.5291598-.52917.000004-.29225.2369148-.52916.5291598-.52916.292249 0 .5291662.23691.5291702.52916z" fill="#dbe9ee"/><path id="path13437-4" d="m1.8763706 282.44943c-.111663-.005-.20401.0453-.253215.13074-.361188.61461-.70892697 1.2335-1.05988298 1.85415-.03334.059-.04278.12855-.02635.1943l.77514498 3.10059-.76946199 2.30787c-.009.027-.0134901.0553-.01344.0837-.00052917.7066.001101 1.4102.001101 2.11615-.00052917.14612.11742999.26503.26354897.26561h1.34358562c.129968.8945.9030089 1.58595 1.8324478 1.58595.929436 0 1.7001811-.69145 1.829861-1.58595h4.519621c.352865 0 .352865-.52916 0-.52916h-4.5191233c-.1289931-.89527-.9003911-1.58802-1.8303801-1.58802-.502412 0-.9593239.20286-1.2939789.52968h-1.6174721v-.75137l.780314-2.34043c.0159-.0477.01789-.099.0057-.14779l-.7684269-3.07268.182933-.32349 1.3466889 3.51141.04031 2.33474c.00259.1443.1202608.25994.2645828.25993h1.0593681 4.003374c.09503.00008.182808-.0508.2299599-.13333l.914672-1.60041.4072102.28422v1.9792h-3.188495c-.3662069.0185-.3385841.54769.013941.52917h4.9433694c-.115043.24087-.181901.50883-.181901.79272 0 1.01974.831821 1.85156 1.851565 1.85156.929428 0 1.701948-.69146 1.83193-1.58595h1.344107c.146928.00053.266176-.11868.265618-.26561v-1.05833c-.00053-.14613-.119497-.26411-.265618-.26356h-.26355v-2.91041c-.000169-.0258-.0043-.0513-.01188-.076l-.788064-2.6293c-.133932-.44684-.372054-.73432-.788067-.73432h-2.910416c-.43516 0-.794782.35807-.794782.79323v4.76147c0 .35286.529167.35286.529167 0v-4.76147c0-.15115.114461-.26355.265615-.26355h2.910416c.17579 0 .228868.18436.275437.33952l.782897 2.60966v2.87114h-1.088821c-.334664-.32682-.791576-.52968-1.293988-.52968-.502393 0-.958257.20287-1.292426.52968h-1.616956v-2.11718c.000016-.0865-.04224-.16754-.1131704-.21705l-.758095-.52916c-.1275159-.0888-.3037041-.0491-.380854.0858l-.612884 1.07228-2.4897691-.43976 2.2670461-3.92845 1.6195381 1.93839-.2547652.44028c-.1771039.30577.2821731.57088.45837.26458l.3467505-.60048c.05551-.0961.04519-.21656-.02585-.30179l-1.9807585-2.36988c-.01974-.0239-.04352-.0442-.07028-.0599l-1.8334811-1.05833c-.02917-.0168-.06126-.0278-.09457-.0326zm.115236.55035 3.677812.5302-1.8810211 3.25768c-.1763898.30558.2819802.57017.4583692.26459l1.9440689-3.36672 1.375627.79375-2.3822851 4.12378-1.0986399-.63407c-.1409859-.0814-.2907721-.0215-.356052.0899-.06827.11656-.05885.2811.08527.36432l1.3342861.77049c.02655.0154.05557.0261.08578.0315l2.675287.47284-.09043.15813h-4.64933l-.03617-2.12131c-.0005292-.0308-.0065-.0612-.017571-.0899l-1.5198031-3.96152zm9.9156764 2.62206c-.146322-.00079-.265552.11723-.266134.26355v1.59009c.000529.14632.119812.26439.266134.26355h.683162l.451136.4532c.04999.0492.117462.0765.187584.076h1.275374c.176091-.001.302035-.17062.252182-.33952l-.633037-2.11718c-.03321-.11245-.136474-.18963-.25373-.18965zm.263549.52917h1.501717l.476456 1.58802h-.810286l-.451136-.45114c-.04965-.0499-.117163-.078-.187584-.078h-.529167zm-.263549 2.64635c-.353121 0-.353121.52968 0 .52968h.529167c.353121 0 .353121-.52968 0-.52968zm-7.9375004 2.1177c.7337581 0 1.3218819.58813 1.3218819 1.32189 0 .73375-.5881238 1.32446-1.3218819 1.32446-.733761 0-1.324467-.59071-1.324467-1.32446 0-.73376.590706-1.32189 1.324467-1.32189zm8.9937644 0c.733761 0 1.324468.58813 1.324468 1.32189 0 .73375-.590707 1.32446-1.324468 1.32446-.733758 0-1.322398-.59071-1.322398-1.32446 0-.73376.58864-1.32189 1.322398-1.32189zm-11.9062504.52917h1.240753c-.07882.16471-.134244.34228-.161232.52916h-1.079521zm2.912486 0c-.4352369 0-.7952949.35748-.7952999.79272-.0000032.43524.360055.7953.7952999.7953s.7927181-.36006.792716-.7953c-.0000061-.43524-.357479-.79272-.792716-.79272zm8.9937644 0c-.435234 0-.79271.35748-.792715.79272-.000003.43524.357473.7953.792715.7953.435248 0 .795304-.36006.795301-.7953-.000005-.43524-.360061-.79272-.795301-.79272zm1.671733 0h1.240753v.52916h-1.080037c-.02699-.18687-.0819-.36446-.160716-.52916zm-10.6654974.52916c.1492591 0 .2635459.1143.2635491.26356 0 .14925-.11429.26561-.2635491.26561-.1492541 0-.2661359-.11636-.266134-.26561 0-.14927.1168799-.26356.266134-.26356zm8.9937644 0c.149262 0 .265616.1143.265618.26356 0 .14925-.116356.26561-.265618.26561-.149254 0-.263548-.11636-.263548-.26561.000002-.14927.114294-.26356.263548-.26356z" font-variant-ligatures="normal" font-variant-position="normal" font-variant-caps="normal" font-variant-numeric="normal" font-variant-alternates="normal" font-feature-settings="normal" text-indent="0" text-align="start" text-decoration-line="none" text-decoration-style="solid" text-decoration-color="#000000" text-transform="none" text-orientation="mixed" white-space="normal" shape-padding="0" isolation="auto" mix-blend-mode="normal" solid-color="#000000" solid-opacity="1" vector-effect="none"/></g></svg>