<svg id="svg14514" height="512" viewBox="0 0 16.933333 16.933334" width="512" xmlns="http://www.w3.org/2000/svg" xmlns:svg="http://www.w3.org/2000/svg"><g id="layer1" transform="translate(0 -280.067)"><path id="path11271" d="m12.435414 296.20621h-7.9375008c-.5863098 0-1.0583299-.47201-1.0583299-1.05833v-8.46668h10.0541597l.000011 8.46668c0 .58632-.472021 1.05833-1.05834 1.05833z" fill="#dbe9ee"/><g fill="#ffbc42"><path id="path11201" d="m5.0270833 280.86038h6.8791597v1.05834h-6.8791597z"/><path id="path11203" d="m3.1750034 285.09371h10.5833296c.293161 0 .529171.23601.529171.52917v.52916c0 .29316-.23601.52917-.529171.52917h-10.5833296c-.2931602 0-.5291701-.23601-.5291701-.52917v-.52916c0-.29316.2360099-.52917.5291701-.52917z"/><path id="path11205" d="m5.5562333 288.26871h5.8208407c.29316 0 .529169.23601.529169.52917v5.29167c0 .29316-.236009.52916-.529169.52916h-5.8208407c-.2931599 0-.5291601-.236-.5291601-.52916v-5.29167c0-.29316.2360002-.52917.5291601-.52917z"/></g><path id="path11215" d="m9.5249931 291.97287c0 .5845-.4738298 1.05833-1.0583299 1.05833-.5845098.00001-1.0583399-.47383-1.0583399-1.05833s1.0583399-2.11666 1.0583399-2.11666 1.0583299 1.53216 1.0583299 2.11666z" fill="#ff6b6b"/><path id="path11273" d="m12.435414 285.09371c-.29316 0-.529171.23601-.529171.52917v4.49792c0 .43973-.354009.79375-.79375.79375-.439739 0-.79375-.35402-.79375-.79375v-2.91042c0-.29316-.235999-.52917-.5291597-.52917-.2931602 0-.5291701.23601-.5291701.52917v.79375c0 .43974-.3540098.79375-.79375.79375-.4397399 0-.79375-.35401-.79375-.79375v-2.38125c0-.29316-.2360099-.52917-.5291698-.52917z" fill="#ff6b6b"/><path id="path12745-9" d="m4.7624933 280.85986v.2651h-1.0583301c-1.3146399 0-2.3812499 1.06662-2.3812499 2.38125v1.85208c0 .43517.35859.79375.79375.79375h.2651c.0005291.4347.3584199.79427.79323.79427h3.43959c.3531201 0 .3531201-.52968 0-.52968h-3.43959c-.1511601 0-.2635401-.11447-.2635401-.26562v-.5271c0-.15115.11239-.26562.2635401-.26562h8.5157607c-.0301.0836-.0491.17234-.0491.26562v1.03508c-.001.0143-.001.0286 0 .0429v3.41788c0 .29774-.231419.52917-.529169.52917-.29774 0-.52916-.23143-.52916-.52917v-2.9099c0-.43515-.35808-.79323-.7932409-.79323-.4351599 0-.7947797.35807-.7947797.79323v.79478c0 .29774-.2319401.52917-.5296803.52917-.2977398 0-.5291698-.23143-.5291698-.52917v-1.85363c.0345-.38437-.5616199-.38437-.5271 0v1.85363c0 .58174.4745299 1.05886 1.0562698 1.05886.5817402 0 1.0588501-.47712 1.0588501-1.05886v-.79478c0-.15115.11445-.26355.2656099-.26355.1511703 0 .2635509.11239.2635509.26355v2.9099c0 .58174.477109 1.05885 1.05885 1.05885.58174 0 1.05834-.47711 1.05834-1.05885v-3.17345h1.588009c.434811 0 .79266-.35957.793241-.79426h.26458c.435159 0 .79375-.35859.79375-.79375v-1.85209c0-1.31463-1.066611-2.38125-2.38125-2.38125h-1.05833v-.2651c-.00053-.14612-.119501-.26411-.26562-.26355h-6.8913117c-.1482101.0133-.25151.12735-.25141.26355zm.5296901.26614h6.3494806v.52916h-6.3494806zm-1.5880202.52813h1.0583301v.26458c.0005292.14551.1185601.26325.2640701.26355h6.8786496c.146121.00053.265031-.11743.265621-.26355v-.26458h1.05833c1.030639 0 1.852079.82145 1.852079 1.85208v1.85208c0 .15116-.11342.26459-.264579.26459h-.264581c-.000529-.43469-.35843-.79427-.793239-.79427h-10.5838507c-.4348101 0-.79266.35958-.79323.79427h-.2651c-.15115 0-.26458-.11343-.26458-.26459v-1.85208c0-1.03063.82145-1.85208 1.8520799-1.85208zm8.7302208 3.70416h1.32446c.151169 0 .263549.11447.263549.26562v.5271c0 .15115-.11238.26562-.263549.26562h-1.58801v-.79272c0-.15115.11239-.26562.26355-.26562zm-8.9999707 2.11305c-.1453099.003-.26113.12236-.25942.26769v7.40833c0 .72832.59357 1.32395 1.3218899 1.32395h7.9375008c.728319 0 1.32446-.59563 1.32446-1.32395v-7.40833c.008-.36079-.53726-.36079-.529161 0v7.40833c0 .44431-.350979.79478-.795299.79478h-7.9375008c-.4443098 0-.79272-.35047-.79272-.79478v-7.40833c.00201-.14938-.1203899-.2706-.2697499-.26769zm2.1213199.5333c-.4351599 0-.7932399.35756-.7932399.79272v5.29115c0 .43516.35808.7953.7932399.7953h5.8223798c.435161 0 .792721-.36014.792721-.7953v-2.11512c.008-.36078-.53727-.36078-.52917 0v2.11512c0 .15116-.11239.26562-.263551.26562h-5.8223798c-.1511599 0-.2635498-.11446-.2635498-.26562v-5.29115c0-.15116.1123899-.26355.2635498-.26355h1.0588501c.3450601-.008.3450601-.52154 0-.52917zm2.9021501 1.58802c-.0836.003-.1609701.0446-.2087801.11317-.3990901.60189-1.1053598 1.68844-1.1053598 2.26756 0 .7275.5943899 1.32241 1.3218898 1.3224.7274901 0 1.32446-.5949 1.32446-1.3224 0-.55356-.6316099-1.55846-1.1053501-2.26756-.0515-.0738-.1369197-.11648-.2268598-.11317zm.008.74518c.32307.49974.79478 1.29347.79478 1.63555 0 .48881-.4090699.79272-.79478.79272-.3857001 0-.7932301-.31285-.7932301-.79272 0-.3198.4844502-1.16677.7932301-1.63555z" font-variant-ligatures="normal" font-variant-position="normal" font-variant-caps="normal" font-variant-numeric="normal" font-variant-alternates="normal" font-feature-settings="normal" text-indent="0" text-align="start" text-decoration-line="none" text-decoration-style="solid" text-decoration-color="#000000" text-transform="none" text-orientation="mixed" white-space="normal" shape-padding="0" isolation="auto" mix-blend-mode="normal" solid-color="#000000" solid-opacity="1" vector-effect="none"/></g></svg>