<svg id="svg14514" height="512" viewBox="0 0 16.933333 16.933334" width="512" xmlns="http://www.w3.org/2000/svg" xmlns:svg="http://www.w3.org/2000/svg"><g id="layer1" transform="translate(0 -280.067)"><path id="path11703" d="m4.7625088 288.7979h.5291699c.1465802 0 .2645802.118.2645802.26458v6.87917c0 .14658-.118.26459-.2645802.26459h-.5291699c-.1465799 0-.2645899-.11801-.2645899-.26459v-6.87917c0-.14658.11801-.26458.2645899-.26458z" fill="#33658a"/><path id="path11705" d="m4.4979189 289.32707v6.35h-2.1166701c-.87948 0-1.58749992-.70803-1.58749992-1.5875v-1.58751c0-1.75895 1.41604992-3.175 3.17499992-3.175z" fill="#ffbc42"/><path id="path11707" d="m12.170828 288.7979h-.52917c-.14658 0-.26458.118-.26458.26458v6.87917c0 .14658.118.26459.26458.26459h.52917c.14658 0 .26459-.11801.26459-.26459v-6.87917c0-.14658-.11801-.26458-.26459-.26458z" fill="#33658a"/><path id="path11709" d="m13.493748 287.73956v-.79374c0-2.78501-2.24208-5.02709-5.0270888-5.02709-2.7850003 0-5.0270803 2.24208-5.0270803 5.02709v.79374h-1.0583301v-.79375c0-3.37132 2.7141001-6.08541 6.0854204-6.08541 3.3713188 0 6.0854088 2.71409 6.0854088 6.08541v.79376z" fill="#ffbc42"/><path id="path11711" d="m12.435408 289.32707v6.35h2.11667c.87948 0 1.5875-.70803 1.5875-1.5875v-1.58751c0-1.75895-1.41605-3.175-3.175-3.175z" fill="#ffbc42"/><path id="circle11715" d="m14.552088 292.23748a.5291667.5291667 0 0 1 -.52917.52917.5291667.5291667 0 0 1 -.52917-.52917.5291667.5291667 0 0 1 .52917-.52916.5291667.5291667 0 0 1 .52917.52916z" fill="#ff6b6b"/><path id="circle11719" d="m3.4395789 292.23748a.5291667.5291667 0 0 1 -.52916.52917.5291667.5291667 0 0 1 -.5291701-.52917.5291667.5291667 0 0 1 .5291701-.52916.5291667.5291667 0 0 1 .52916.52916z" fill="#ff6b6b"/><path id="path13491-9" d="m14.552078 295.94165c1.02149 0 1.85208-.83061 1.85208-1.85209v-1.5875c0-1.01185-.43468-1.92335-1.12861-2.55178-.0524-.0487-.12235-.074-.19379-.0703-.23675.0121-.33935.30549-.16174.46251.58723.5318.95498 1.29887.95498 2.15956v1.5875c0 .73747-.58544 1.32291-1.32292 1.32291h-1.85157v-.52865c.008-.36078-.53726-.36078-.52916 0-.003.35587 0 .70858 0 1.05834h-.52969v-6.87865h.52969v4.76146c-.008.36079.53726.36079.52916 0v-4.23333h.26407c.27667 0 .54242.0391.79479.11007v1.79111c-.30659.1099-.52969.40157-.52969.74414 0 .43524.35799.7953.79323.7953.43525 0 .79272-.36006.79272-.7953 0-.34172-.22169-.63257-.5271-.74311v-3.4892h.26355c.14612-.00053.26411-.11949.26355-.26561v-.79272c0-3.51332-2.83615-6.35-6.3494788-6.35-3.5133203 0-6.3494904 2.83668-6.3494904 6.35v.79272c-.0005212.14693.11869.26618.26562.26561h.26355v3.48817c-.30658.1099-.52917.40157-.52917.74414 0 .43524.35748.7953.79272.7953.4352401 0 .79478-.36006.79478-.7953 0-.34195-.2229299-.63325-.52916-.74363v-1.79162c.2520799-.0708.5174401-.11007.79375-.11007h.2651001v5.82083h-1.8526001c-.73748 0-1.32292-.58544-1.32292-1.32291v-1.5875c0-.86069.36776-1.62776.95498-2.15956.18086-.15948.0716-.458-.1695-.46302-.0689-.002-.1356.0239-.18603.0708-.69392992.62843-1.12861992 1.53992-1.12861992 2.55178v1.5875c0 1.02148.83060992 1.85194 1.85208992 1.85208l1.8526001.00026c0 .28885.24057.52942.52916.52942h.5291699c.28859 0 .52969-.24059.52969-.52916v-6.87865c0-.28858-.2411-.52969-.52969-.52969h-.5291699c-.2882302 0-.5285801.24053-.52916.52866h-.2651001c-.2733299 0-.53858.0345-.79375.0946v-1.15239h.2635501c.14692.00053.2661698-.11869.2656099-.26561v-.79272c0-2.643 2.1190001-4.76405 4.7619904-4.76405 2.6430088 0 4.7635288 2.12105 4.7635288 4.76405v.79272c-.000529.14632.11775.26531.26407.26561h.26562v1.15239c-.25547-.0602-.52111-.0946-.79479-.0946h-.26407c-.000529-.28813-.24093-.52866-.52916-.52866h-.52969c-.28858 0-.52916.24111-.52916.52969v6.87865c0 .28857.24058.52916.52916.52916h.52969c.28858 0 .52916-.24057.52916-.52942zm-6.0859288-14.81563c3.2293188 0 5.8223788 2.59099 5.8223788 5.82031v.52917h-.52916v-.52917c0-2.92701-2.36621-5.29115-5.2932188-5.29115-2.9270004 0-5.2911504 2.36414-5.2911504 5.29115v.52917h-.52917v-.52917c0-3.22932 2.59101-5.82031 5.8203204-5.82031zm-3.7031403 7.9375h.5291699v6.87864h-.5291699c.00201-2.2864 0-4.58646 0-6.87864zm-1.8536301 2.90989c.1492599 0 .26562.1143.26562.26356 0 .14925-.1163601.26561-.26562.26561s-.26355-.11636-.26355-.26561c0-.14926.1142901-.26356.26355-.26356zm11.1135292 0c.14926 0 .26562.1143.26562.26356 0 .14925-.11636.26561-.26562.26561-.14925 0-.26354-.11636-.26354-.26561 0-.14926.11429-.26356.26354-.26356z" font-variant-ligatures="normal" font-variant-position="normal" font-variant-caps="normal" font-variant-numeric="normal" font-variant-alternates="normal" font-feature-settings="normal" text-indent="0" text-align="start" text-decoration-line="none" text-decoration-style="solid" text-decoration-color="#000000" text-transform="none" text-orientation="mixed" white-space="normal" shape-padding="0" isolation="auto" mix-blend-mode="normal" solid-color="#000000" solid-opacity="1" vector-effect="none"/></g></svg>