<svg id="svg14514" height="512" viewBox="0 0 16.933333 16.933334" width="512" xmlns="http://www.w3.org/2000/svg" xmlns:svg="http://www.w3.org/2000/svg"><g id="layer1" transform="translate(0 -280.067)"><path id="rect11569" d="m2.1166657 295.14789h5.2916596v1.05833h-5.2916596z" fill="#33658a"/><g fill="#ffbc42"><path id="path11575" d="m12.964575 289.32706h1.05833l.52918 1.32292-.26459.79374h-1.58751l-.26458-.79374z"/><path id="rect11581" d="m12.435415 284.82914h2.11666v1.05834h-2.11666z"/><path id="path11597" d="m7.6729253 290.12081h-2.1166795v-3.70417h1.0583195c.87948 0 1.5875.70802 1.58751 1.5875v1.5875c.00001.29316-.23599.52917-.52915.52917z"/></g><path id="path12247" d="m6.6145813 286.41664v1.5875c-.00001.29316.236006.52917.529167.52917h1.058333v-.52917c-.00001-.87948-.70802-1.5875-1.5875-1.5875z" fill="#33b9ef"/><path id="path5973-5-0-1" d="m.52916567 283.24112v1.5875c-.0005292.14693.11869.2667.26562.26614h1.85105003c.35286 0 .35286-.52969 0-.52969h-1.2144l.94981-.94981 1.3234401 1.32498v7.03316c0 .0933.038.16017.0925.20413l1.38493 1.38286-.9482701.94826v-1.21285c.00201-.14924-.12-.27046-.26923-.26768-.14541.003-.2615898.12226-.2599298.26768v1.58802h-1.5880202c-.14612-.00053-.26504.11743-.26562.26355v1.05834c-.0005292.14692.11869.26617.26562.26561h5.2911496c.14693.00053.26617-.11869.26562-.26561v-1.05834c-.000529-.14612-.1195-.26411-.26562-.26355h-1.58802v-8.20363h.52917v1.32446c-.00002.43517.36014.79272.7953.79272h.79272v.7953c0 .15116-.11239.26355-.26355.26355h-1.05885c-.35286 0-.35286.52917 0 .52917h1.05885c.43516 0 .79324-.35756.79323-.79272v-1.58802c-.00002-1.02147-.83059-1.85363-1.85208-1.85363h-.79479v-1.05626h6.3515497v.79271c.000529.14551.11855.26325.26407.26355h1.32188v2.91249h-.5271v-2.11719c.003-.15001-.11974-.27257-.26975-.26975-.14618.003-.26215.12357-.25941.26975v2.32699l-.51212 1.27848c-.0225.0582-.0238.12238-.004.18138l.26355.79478c.0365.10784.13783.18027.25167.17984h.52968v.63872c-.4392.12886-.79477.47028-.79477.94929 0 .58137.47696 1.05834 1.05833 1.05834s1.05833-.47697 1.05833-1.05834c0-.35285-.52916-.35285-.52916 0 0 .29539-.23378.52917-.52917.52917s-.52917-.23378-.52917-.52917c0-.29538.23378-.52968.52917-.52968.14541-.00053.26304-.11814.26355-.26355v-.79478h.52916c.11403.00053.21566-.0718.25219-.17984l.263551-.79478c.02-.0591.0186-.1233-.004-.18138l-.511659-1.27848v-3.12229h.26562c.14551-.00026.26348-.11804.26406-.26355v-.79271h1.32395c.21132-.0008.3369-.23695.21911-.41238l-1.05678-1.58802c-.0386-.0575-.0981-.0958-.16433-.11007l-10.0283314-2.3766c-.0366-.0115-.0746-.0178-.1165299-.0124l-.5085001.001c-.0543.004-.0943.0185-.12945.0413l-3.70364993 2.38306c-.0713.0492-.12214.12731-.12247.2204zm4.15995003-2.11511h.1483101l.3524398 1.05626h-.8531799zm2.1895296 2.38073h1.2144l-.94878.94723-1.32447-1.3224v-.68368c.000529-.0284-.003-.0565-.0119-.0837l-.3782687-1.13533 7.3886994 1.74873h-5.9523607c-.36551.017-.34019.54611.0127.52916zm-2.8690696-2.01693-.29146.87436c-.009.0271-.013401.0552-.013401.0837v.52968h-2.010729zm.59738 1.22163h.6857399v.68574zm-.3731101.37724.94723.94722-.94723.94723zm-3.1755099.41806h.68471l-.68471.68419zm1.96112 0h.6852301v.68419zm6.3499996 0h1.8975597l-.94827.94826zm3.1755097 0h1.89756l-.94878.94723zm-3.8137197.10852.94982.94981h-1.8986zm3.1744897.001.94929.94878h-1.89859zm3.13417.0413.60617.90744h-1.51361zm-9.2201097.22221.68575.68522h-.68575zm-.5270997.79426v1.89911l-.9503299-.95035zm7.4083394.42065h1.58543v.52917h-1.58543zm-8.4671894 1.16789.9482701.94826-.9482701.94671zm2.6447997.4439c.60829.12065 1.05833.6512 1.05834 1.29811v.26355h-.79272c-.15116 0-.26563-.1124-.26562-.26355zm-1.5859497 1.14205v1.89807l-.9492901-.94881zm-1.05885 1.58956.94723.94723-.94723.94723zm8.9100494.15452h.6997l.42737 1.06608-.17364.51987h-1.20716l-.17363-.51988zm-7.8511994 1.43143v1.89859l-.9492901-.94929zm0 3.17397v.68574h-.6857399zm-2.9124799 1.2149h4.7640496v.52917h-4.7640496z" font-variant-ligatures="normal" font-variant-position="normal" font-variant-caps="normal" font-variant-numeric="normal" font-variant-alternates="normal" font-feature-settings="normal" text-indent="0" text-align="start" text-decoration-line="none" text-decoration-style="solid" text-decoration-color="#000000" text-transform="none" text-orientation="mixed" white-space="normal" shape-padding="0" isolation="auto" mix-blend-mode="normal" solid-color="#000000" solid-opacity="1" vector-effect="none"/></g></svg>