<svg id="svg14514" height="512" viewBox="0 0 16.933333 16.933334" width="512" xmlns="http://www.w3.org/2000/svg" xmlns:svg="http://www.w3.org/2000/svg"><g id="layer1" transform="translate(0 -280.067)"><path id="path11371" d="m2.6451214 293.03121h6.350001c.879475 0 1.5875006.70803 1.5875006 1.5875 0 .87948-.7080256 1.5875-1.5875006 1.5875h-6.350001c-.8794748 0-1.5874996-.70802-1.5874996-1.5875 0-.87947.7080248-1.5875 1.5874996-1.5875z" fill="#33658a"/><g fill="#dbe9ee"><path id="path11373" d="m8.9958344 294.61872c.0000003.29225-.2369159.52916-.5291667.52916s-.5291669-.23691-.5291667-.52916c-.0000002-.29226.2369159-.52917.5291667-.52917s.529167.23691.5291667.52917z"/><path id="path11375" d="m6.3500005 294.61872c0 .29225-.2369161.52916-.5291669.52916-.2922506 0-.5291667-.23691-.5291667-.52916 0-.29226.2369161-.52917.5291667-.52917.2922508 0 .5291669.23691.5291669.52917z"/><path id="path11377" d="m3.7041671 294.61872c.0000003.29225-.2369158.52916-.5291666.52916s-.5291669-.23691-.5291667-.52916c-.0000002-.29226.2369159-.52917.5291667-.52917s.5291669.23691.5291666.52917z"/></g><path id="path11379" d="m2.3797009 291.97287h6.6145809v1.05834h-6.6145809z" fill="#e8ab3c"/><path id="path11381" d="m5.5562478 286.94579-.5291701 2.11667h-3.7057068c-.29316 0-.52916996.23601-.52916996.52917v1.85209c0 .29315.23600996.52916.52916996.52916h8.9973771c.29316 0 .535656-.23607.52917-.52917v-1.85208l-1.0583405-2.64584c-.1088758-.27219-.2360099-.52916-.5291698-.52916h-3.1749897c-.2931602 0-.4949201.23801-.5291702.52916z" fill="#ffbc42"/><path id="path11383" d="m6.6145777 287.47496-.4239199 1.5875h1.4822602v1.05833l.5291595.79375h1.5875v-1.05833l-1.00355-2.38125z" fill="#33b9ef" font-variant-ligatures="normal" font-variant-position="normal" font-variant-caps="normal" font-variant-numeric="normal" font-variant-alternates="normal" font-feature-settings="normal" text-indent="0" text-align="start" text-decoration-line="none" text-decoration-style="solid" text-decoration-color="#000000" text-transform="none" text-orientation="mixed" white-space="normal" shape-padding="0" isolation="auto" mix-blend-mode="normal" solid-color="#000000" solid-opacity="1" vector-effect="none"/><path id="path11393" d="m14.022917 281.65412c0 .43838-.355373.79375-.793749.79375s-.793749-.35537-.793749-.79375c0-.43837.355373-.79375.793749-.79375s.793749.35538.793749.79375z" fill="#ffbc42"/><path id="path11405" d="m2.9104179 286.41663c-.0000002.29225-.2369166.52917-.5291675.52917s-.5291672-.23692-.5291674-.52917c-.0000003-.29225.2369161-.52917.5291674-.52917.2922514 0 .5291678.23692.5291675.52917z" fill="#ffbc42"/><path id="path11445" d="m16.139585 292.50205c0 1.169-.947664 2.11666-2.116667 2.11666s-2.116667-.94766-2.116667-2.11666c0-1.16901.947664-2.11667 2.116667-2.11667s2.116667.94766 2.116667 2.11667z" fill="#33658a"/><path id="path13145-6" d="m13.228651 280.59683c-.296973 0-.565713.12467-.75861.32349l-10.1616543 4.70876c-.4013656.0377-.7203698.37754-.7203694.78806v2.38074h-.2656169c-.43516218 0-.79530029.35755-.79530029.79271v1.85364c0 .43516.36013872.79323.79530029.79323h.7927165v.6072c-.7638239.22827-1.32239994.93615-1.32239991 1.77353 0 1.02148.83008921 1.85364 1.85156651 1.85364h6.3520671c1.0214774 0 1.8510504-.83216 1.8510504-1.85364 0-.93163-.691082-1.7017-1.5875005-1.83038v-.55035h1.0583335c.435198 0 .805084-.35685.795301-.79892v-1.84795c-.000371-.0333-.007-.0663-.01964-.0971l-.198954-.49764 2.51716-6.29678c.123849-.0223.240501-.068.345715-.1297v7.56698c-1.187446.13306-2.115117 1.14468-2.115117 2.36678 0 1.31199 1.068739 2.38073 2.380734 2.38073 1.311994 0 2.380733-1.06874 2.380733-2.38073 0-1.22282-.928722-2.2352-2.117184-2.3673v-8.48269c0-.58136-.476966-1.05626-1.058333-1.05626zm0 .5271c.295385 0 .529167.23378.529167.52916 0 .29539-.233782.52969-.529167.52969s-.529683-.2343-.529683-.52969c0-.29538.234298-.52916.529683-.52916zm-8.4082729 7.67395h-.9193237l-.3565675-1.18856c-.090538-.35707-.6273946-.19601-.5064289.15193l.3105755 1.03663h-1.2314496v-1.6366c.082944.0297.170871.0486.2635499.0486.4352422 0 .7952999-.35747.7953004-.79271.0000003-.19662-.07628-.37563-.1968873-.51522l9.1916881-4.25969c-.000039.004-.001.007-.001.0109 0 .45306.290434.84477.693498.99478l-.238229.59324h-1.005106l.325044-.36845c.153499-.16927.03471-.44043-.193786-.44235-.07794-.0008-.152245.0329-.203089.092l-3.2018985 3.62922h-2.260327c-.4942475 0-.6975623.37839-.7898744.74699zm6.7851159-5.0276h.80822l-.302824.75757zm-.556555.11782.627352.94103h-1.457275zm-.729671 1.47019h1.459859l-.507979 1.27073zm-.6185675.0579 1.3415205 1.78646-.432531 1.08107-.574643-1.43712c-.1609483-.40254-.370706-.69507-.7751465-.69507h-.2077392zm-7.3199667.73536c.1492595 0 .265617.11636.2656167.26562 0 .14925-.1163572.26355-.2656167.26355-.1492597 0-.2635498-.1143-.2635499-.26355-.0000002-.14926.1142902-.26562.2635499-.26562zm3.7052001.52917h3.1739666c.1437507 0 .2253892.21902.2831867.36328l1.0407638 2.59777v1.80248c-.000024.002-.000024.004 0 .006.0032.14414-.114497.25787-.265617.25787h-8.9958336c-.1511584 0-.2656169-.11291-.2656169-.26406v-1.85312c0-.15115.1144591-.26407.2656169-.26407h3.7052001c.1212533-.00053.2266614-.0833.2557982-.20102l.5320091-2.13191c.049958-.20019.1205756-.31342.2705261-.31342zm.5291667.52916c-.1202061.00006-.2252681.0811-.2557984.19741l-.4237466 1.58801c-.043995.16768.082442.33167.2557983.33177h1.2169799v.79323c.0002585.0521.015899.10299.044958.14624l.5291667.79479c.048885.0729.1307767.1169.2185914.1173h1.5880172c.1461207.00053.2650339-.11743.2656169-.26355v-1.05833c-.000147-.0357-.0075-.0711-.0217-.10387l-1.0035603-2.38074c-.041288-.0984-.137682-.16243-.2444295-.16226zm.203088.52917h.5901452v1.05885h-.8733316zm1.1193116 0h.6738607l.9141564 2.17041v.74001h-1.1818404l-.4061767-.60929v-.97875zm-6.0916175 2.11357c-.1455149.003-.261646.12215-.2599325.26768v.79478c.00766.34504.5215114.34504.5291667 0v-.7948c.00176-.14917-.1200782-.2703-.2692342-.26769zm1.0583331 0c-.1455147.003-.2616458.12215-.2599323.26768v.79478c0 .35313.5296835.35313.5296835 0v-.79478c.00177-.14937-.1203936-.2706-.2697512-.26768zm1.0588504 0c-.1455148.003-.261646.12215-.2599325.26768v.79478c.00765.34504.5215115.34504.5291666 0v-.79478c.00175-.14917-.1200782-.2703-.2692341-.26769zm10.0603688.79685c1.026011 0 1.851566.82762 1.851566 1.85363s-.825555 1.85157-1.851566 1.85157c-1.026012 0-1.853634-.82556-1.853634-1.85157s.827622-1.85363 1.853634-1.85363zm1.054716 1.58388c-.147147.001-.264865.12262-.262.26975 0 .44151-.351205.79272-.792716.79272-.353122 0-.353122.52968 0 .52968.727494 0 1.3224-.59491 1.3224-1.3224.0029-.14936-.118309-.27151-.267684-.26975zm-12.4338675.004h6.0859336v.52917h-.7927169c-.3450343.008-.3450343.52151 0 .52917h1.0588504c.7374734 0 1.3218834.58492 1.3218834 1.3224 0 .73747-.5844111 1.32446-1.3218834 1.32446h-6.3520671c-.7374721 0-1.3218831-.58699-1.3218831-1.32446 0-.73748.5844106-1.3224 1.3218831-1.3224h4.2343669c.3606949.008.3606949-.53718 0-.52917h-4.2343669zm.5317507 1.58802c-.4352425 0-.7953008.35747-.7953004.79272-.0000004.43524.3600579.79478.7953004.79478s.7927168-.35954.7927165-.79478c0-.43525-.357474-.79272-.7927165-.79272zm2.6442829 0c-.4352422 0-.7927168.35747-.7927166.79272-.0000002.43524.3574744.79478.7927166.79478.435242 0 .7947835-.35954.7947835-.79478.0000005-.43525-.3595415-.79272-.7947835-.79272zm2.6463501 0c-.4352422 0-.7927168.35747-.7927166.79272-.0000002.43524.3574744.79478.7927166.79478.435242 0 .7932333-.35954.7932333-.79478 0-.43525-.3579913-.79272-.7932333-.79272zm-5.290633.52916c.1492594 0 .2635499.1143.2635499.26356s-.1142908.26561-.2635499.26561c-.1492594 0-.2661341-.11635-.2661338-.26561-.0000003-.14926.1168744-.26356.2661338-.26356zm2.6442829 0c.1492594 0 .2656171.1143.2656168.26356.0000003.14926-.1163571.26561-.2656168.26561-.1492594 0-.2635501-.11635-.2635501-.26561s.1142907-.26356.2635501-.26356zm2.6463501 0c.1492594 0 .2635499.1143.2635499.26356s-.1142905.26561-.2635499.26561c-.1492591 0-.2656173-.11635-.2656168-.26561-.0000005-.14926.1163574-.26356.2656168-.26356z" font-variant-ligatures="normal" font-variant-position="normal" font-variant-caps="normal" font-variant-numeric="normal" font-variant-alternates="normal" font-feature-settings="normal" text-indent="0" text-align="start" text-decoration-line="none" text-decoration-style="solid" text-decoration-color="#000000" text-transform="none" text-orientation="mixed" white-space="normal" shape-padding="0" isolation="auto" mix-blend-mode="normal" solid-color="#000000" solid-opacity="1" vector-effect="none"/></g></svg>