<svg id="svg14514" height="512" viewBox="0 0 16.933333 16.933334" width="512" xmlns="http://www.w3.org/2000/svg" xmlns:svg="http://www.w3.org/2000/svg"><g id="layer1" transform="translate(0 -280.067)"><path id="path11207" d="m3.4395833 280.86038h8.4666677c.293158 0 .529167.236.529167.52916v3.175c0 .29316-.236009.52917-.529167.52917h-8.4666677c-.2931589 0-.529167-.23601-.529167-.52917v-3.175c0-.29316.2360081-.52916.529167-.52916z" fill="#dbe9ee"/><path id="path11209" d="m9.5249984 291.44371v4.23334c0 .29316-.2360081.52917-.5291672.52917h-1.0583349c-.2931581 0-.529167-.23601-.529167-.52917v-4.23334z" fill="#ffbc42"/><path id="path11213" d="m6.8791664 290.38538h3.1749996v1.05833h-3.1749996z" fill="#e8ab3c"/><path id="path11217" d="m9.2604132 281.91871c-.2931599 0-.52916.23601-.529164.52917l-.0000029.79375c0 .43973-.3540099.79375-.79375.79375-.4397399 0-.79375-.35402-.79375-.79375v-.26459c0-.29315-.23601-.52916-.5291699-.52916-.2931602 0-.52916.23601-.52916.52916v2.11667c0 .43974-.3540102.79375-.79375.79375-.4397402 0-.79375-.35401-.79375-.79375l-.0000022-2.64583c-.0000008-.29316-.2360009-.52917-.5291608-.52917h-1.0583371v-.52917c0-.29316.2360081-.52916.529167-.52916h8.4666677c.293158 0 .529167.236.529167.52916v.52917z" fill="#ff6b6b"/><path id="path12997-8" d="m3.4395833 280.59683c-.435161 0-.792716.35755-.792716.79271v3.17604c0 .43516.3575531.79271.792716.79271.3606961.008.3606961-.53717 0-.52916-.151157 0-.2656179-.1124-.2656179-.26355v-2.3828h.7953c.1511588 0 .263549.11445.2635519.26561v2.64429c0 .58173.4765911 1.05885 1.0583331 1.05885.5817418 0 1.058849-.47712 1.058849-1.05885v-2.11512c0-.15116.1144588-.26562.2656179-.26562.151157 0 .2635491.11447.2635491.26562v.26355c0 .58174.477107 1.05885 1.058849 1.05885s1.0583339-.47711 1.0583339-1.05885v-.79272c.0000021-.15116.1123921-.26561.2635509-.26561h2.1171838c.352864 0 .352864-.52969 0-.52969h-2.1171838c-.4351629 0-.7927099.36015-.7927179.7953v.79272c0 .29774-.2314281.52917-.5291669.52917-.297738 0-.5296821-.23143-.5296821-.52917v-.26355c0-.43516-.3575561-.79478-.792716-.79478-.4351629 0-.7952999.35962-.7952999.79478v2.11512c0 .29773-.231429.52916-.529167.52916s-.5291672-.23143-.5291672-.52916v-2.64429c-.0000018-.43515-.357555-.7953-.7927178-.7953h-.7953v-.26355c0-.15115.1144609-.26561.2656179-.26561h8.4671817c.151157 0 .263552.11446.263552.26561v3.17604c0 .15115-.112395.26355-.263552.26355h-4.7640498c-.3606959-.008-.3606959.53717 0 .52916h4.7640498c.435164 0 .792719-.35755.792719-.79271v-1.32447h.794781c.151157 0 .263552.11446.263552.26562v1.85156c.01421.11772-.26846.23148-.388606.29507-1.499306.79358-4.4979176 2.38074-4.4979176 2.38074-.1191731.0631-.2620092.12373-.4004942.23254-.1384829.10882-.2692318.30341-.2692318.53124v1.3224h-1.322401c-.1461191.00053-.2641042.11949-.2635491.26561v1.05834c.0005292.14531.1182349.26297.2635491.26355h.2635488v3.96875c0 .43516.36014.7953.7953002.7953h1.0583339c.4351631 0 .7927181-.36014.7927181-.7953v-3.17345c0-.35287-.5291672-.35287-.5291672 0v3.17345c0 .15115-.112395.26613-.2635509.26613h-1.0583339c-.1511562 0-.266133-.11498-.266133-.26613v-3.96875h2.3833186c.145315-.00053.26297-.11824.263549-.26355v-1.05834c.000529-.14612-.117431-.26503-.263549-.26561h-1.3244677v-1.3224c0-.0653.0048-.0671.06615-.11524.06133-.0482.182544-.10576.322461-.17983l4.4979177-2.38074c.119171-.0631.264072-.12373.402558-.23254.138486-.10882.267684-.30341.267684-.53124v-1.85156c.000003-.43516-.358071-.79479-.793235-.79479h-.794781v-1.3224c0-.43516-.357557-.79271-.792718-.79271zm3.7031319 10.05261h2.6463522v.52917h-2.6463522z" font-variant-ligatures="normal" font-variant-position="normal" font-variant-caps="normal" font-variant-numeric="normal" font-variant-alternates="normal" font-feature-settings="normal" text-indent="0" text-align="start" text-decoration-line="none" text-decoration-style="solid" text-decoration-color="#000000" text-transform="none" text-orientation="mixed" white-space="normal" shape-padding="0" isolation="auto" mix-blend-mode="normal" solid-color="#000000" solid-opacity="1" vector-effect="none"/></g></svg>