<svg id="svg14514" height="512" viewBox="0 0 16.933333 16.933334" width="512" xmlns="http://www.w3.org/2000/svg" xmlns:svg="http://www.w3.org/2000/svg"><g id="layer1" transform="translate(0 -280.067)"><path id="path11109" d="m3.4395883 280.8604c-.2931599 0-.52916.23601-.52916.52916v14.28751c0 .14657.0589.279.15451.37465l3.02049-3.02049v-11.64167c0-.29315-.2360099-.52916-.5291701-.52916z" fill="#dbe9ee"/><path id="path11111" d="m6.0854283 293.03123-3.02049 3.02049c.0956.0957.2280701.15451.37465.15451h10.0541707c.29316 0 .52917-.23601.52917-.52916v-2.11667c0-.29316-.23601-.52917-.52917-.52917z" fill="#ff6b6b"/><path id="path11557" d="m6.6145886 294.08956h6.3500004v1.05834h-7.4083308z" fill="#e86262"/><path id="path12885-9" d="m3.4395883 280.59581c-.4351599 0-.79375.35859-.79375.79375v1.05576c0 .11825.083.26819.27285.26819h1.57924c.35286 0 .35286-.52917 0-.52917h-1.3229201v-.79478c0-.15115.11343-.26458.2645801-.26458h2.1166699c.1511501 0 .2645802.11343.2645802.26458v10.58334c-.005.3578.53423.3578.5291698 0v-10.58334c0-.43516-.3585898-.79375-.79375-.79375zm-.5333 2.64222c-.1459201.002-.26245.12228-.26045.2682v12.17083c0 .43516.3585901.79375.79375.79375h10.0541707c.43516 0 .79375-.35859.79375-.79375v-2.11666c0-.43516-.35859-.79375-.79375-.79375h-7.3664808c-.1328099 0-.1760198.0246-.25631.1049l-2.69596 2.69596v-1.74305h.79375c.3528602 0 .3528602-.52916 0-.52916h-.79375v-1.05834h1.3229201c.35286 0 .35286-.52968 0-.52968h-1.3229201v-1.05626h.79375c.3528602 0 .3528602-.52917 0-.52917h-.79375v-1.05885h1.3229201c.35286 0 .35286-.52917 0-.52917h-1.3229201v-1.05885h.79375c.3528602 0 .3528602-.52917 0-.52917h-.79375v-1.05885h1.3229201c.35286 0 .35286-.52916 0-.52916h-1.3229201v-1.05834h.79375c.3528602 0 .3528602-.52968 0-.52968h-.79375v-.26355c.00201-.14916-.1195599-.27053-.2687199-.2682zm3.2886899 10.05778h7.2987808c.15115 0 .26458.11343.26458.26459v2.11666c0 .15116-.11343.26459-.26458.26459h-9.9446107zm.4201304.52865c-.0705.00016-.1380202.0284-.1875904.0786l-1.05833 1.05834c-.1658598.16689-.0477.45104.1875902.45113h5.2906306c.34503-.008.34503-.5215 0-.52916h-4.6519109l.5291605-.52917h5.9743204v.52916h-.79272c-.3607-.008-.3607.53718 0 .52917h1.05885c.14612-.00053.26411-.1195.26355-.26562v-1.05626c.000847-.14632-.11723-.26555-.26355-.26614z" font-variant-ligatures="normal" font-variant-position="normal" font-variant-caps="normal" font-variant-numeric="normal" font-variant-alternates="normal" font-feature-settings="normal" text-indent="0" text-align="start" text-decoration-line="none" text-decoration-style="solid" text-decoration-color="#000000" text-transform="none" text-orientation="mixed" white-space="normal" shape-padding="0" isolation="auto" mix-blend-mode="normal" solid-color="#000000" solid-opacity="1" vector-effect="none"/></g></svg>