<svg id="svg14514" height="512" viewBox="0 0 16.933333 16.933334" width="512" xmlns="http://www.w3.org/2000/svg" xmlns:svg="http://www.w3.org/2000/svg"><g id="layer1" transform="translate(0 -280.067)"><path id="path11241" d="m15.993543 294.36175c.29907.52374-.01085 1.05007-.464009 1.05007l-14.1136014.00063c-.45315997 0-.76288098-.52621-.46400897-1.05006l7.11420297-12.46942c.1790341-.3138.6072659-.32486.807148-.00032z" fill="#ffbc42"/><path id="path11237" d="m9.2604167 293.03121c0 .43838-.355373.79375-.7937482.79375-.4383738 0-.7937458-.35538-.7937458-.79375s.355372-.79375.7937458-.79375c.4383752 0 .7937482.35538.7937482.79375z" fill="#33658a"/><path id="path11239" d="m8.4666717 285.3583c.5845008 0 1.1301709.47826 1.0583288 1.05833l-.5291669 4.27261c-.03592.29003-.2645849.48989-.5291659.48989-.2645812 0-.493246-.19986-.5291672-.48989l-.529163-4.27261c-.07184-.58007.4738341-1.05833 1.0583342-1.05833z" fill="#33658a"/><path id="path13021-5" d="m8.4594306 281.38903c-.245591.002-.4893681.13798-.6232179.37258l-.7694641 1.34876c-.175455.30674.284467.56925.459923.26251l.769461-1.34875c.04519-.0792.104693-.10536.167947-.10594.06292-.00053.128117.0245.1829361.11266l7.1168793 12.46229c.111093.19454.09901.35799.04237.47335-.05663.11536-.152839.18087-.276985.18087l-14.1133514.00053c-.124166 0-.21985-.065-.276468-.18035-.05662-.11535-.06868-.27924.04237-.47387l5.7407341-10.06244c.1928918-.31108-.2898831-.5864-.459404-.262l-5.74125008 10.06192c-.187833.32921-.19417998.69072-.05736.96945.136813.27873.42238098.47646.75137398.47646l14.1133514-.00053c.329015 0 .615046-.19772.751893-.47646.136846-.27874.130099-.64026-.05788-.96945l-7.1225555-12.47288c-.1469438-.23916-.3957138-.37097-.6413029-.36871zm.0072 3.70468c-.72883 0-1.4149552.59562-1.3208511 1.35547l.5291669 4.27261c.05093.41125.3938612.72192.7916842.72192.3978219 0 .7407508-.31067.7916828-.72192.05343-.35773-.4894628-.42506-.5250339-.0651-.020899.16882-.13531.25787-.2666489.25787-.13134 0-.2457432-.0891-.26665-.25787l-.5291423-4.27261c-.04957-.40027.3556481-.76119.7958169-.76119.4401711-.00001.8453911.36092.7958161.76119l-.3932581 3.175c-.05342.35772.4894532.42505.5250341.0651l.3932579-3.175c.09411-.75985-.592019-1.35548-1.32085-1.35547zm.00111 6.8802c-.581366 0-1.0588519.4749-1.0588519 1.05627 0 .58136.4774859 1.05884 1.0588519 1.05885.5813661 0 1.0562641-.47749 1.0562641-1.05885 0-.58137-.474898-1.05627-1.0562641-1.05627zm0 .52917c.295383 0 .5270982.23171.5270982.5271 0 .29538-.2317152.52916-.5270982.52916-.295384 0-.5291669-.23378-.5291669-.52916 0-.29539.2337829-.5271.5291669-.5271z" font-variant-ligatures="normal" font-variant-position="normal" font-variant-caps="normal" font-variant-numeric="normal" font-variant-alternates="normal" font-feature-settings="normal" text-indent="0" text-align="start" text-decoration-line="none" text-decoration-style="solid" text-decoration-color="#000000" text-transform="none" text-orientation="mixed" white-space="normal" shape-padding="0" isolation="auto" mix-blend-mode="normal" solid-color="#000000" solid-opacity="1" vector-effect="none"/></g></svg>