<svg id="svg14514" height="512" viewBox="0 0 16.933333 16.933334" width="512" xmlns="http://www.w3.org/2000/svg" xmlns:svg="http://www.w3.org/2000/svg"><g id="layer1" transform="translate(0 -280.067)"><path id="path11261" d="m5.8208316 288.53332-3.9687496 3.96875v1.32292c1.3229192.00001 1.3228954.26457 2.1166666 1.05833l.9554977.9555c.4968293.49683 1.2963523.49683 1.7931713 0l1.749248-1.74925v-2.91041zm-1.455208 3.2613c.1352629 0 .2704888.0519.3741367.15555l1.7652683 1.76527c.207296.20729.207293.54098 0 .74827l-.177768.17777c-.207293.20729-.540978.2073-.748274 0l-1.765268-1.76527c-.2072957-.20729-.2072931-.54098 0-.74827l.1777683-.17777c.1036479-.10365.2388738-.15554.3741367-.15555z" fill="#ff6b6b"/><path id="path11263" d="m6.0854236 288.79791 7.9375014-7.9375.79375.79375.26458.79375-.79375.26458.264579.79375-.79375.26458.264591.79375-.79375.26459.26458.79375-.79375.26458.264579.79375-.793749.26458.26458.79375-.79375.26459.264579.79375-.79375.26458.264591.79375-.79375.26458.26458.79375-.79375.26459.264579.79375-.7937504.26458.26459.79375h-1.32291v-1.85208z" fill="#dbe9ee"/><path id="path13035-8" d="m14.012065 280.59479c-.0674.004-.131261.0336-.17622.0786l-7.0114614 7.01146c-.25999.24936.12477.63412.37414.37413l6.8243914-6.82439.56276.56276.16071.48318-.5426.18086c-.138751.0462-.21374.19616-.16743.33487l.18087.5426-.542611.18087c-.138749.0462-.21374.19615-.16743.33486l.18087.5426-.542609.18087c-.138751.0462-.21374.19615-.16743.33486l.18087.54261-.5426.18086c-.13875.0462-.21374.19616-.16743.33487l.18087.5426-.542611.18087c-.138749.0462-.21374.19615-.16743.33486l.18087.5426-.542609.18087c-.138751.0462-.21374.19615-.16743.33486l.18087.54261-.5426.18086c-.13875.0462-.21374.19616-.16743.33487l.18087.5426-.54261.18087c-.13875.0462-.213741.19615-.167431.33486l.18087.5426-.5426104.18087c-.13875.0462-.21374.19615-.16743.33486l.18087.54261-.5426.18086c-.13875.0462-.21374.19616-.16743.33487l.14831.44545h-.6904v-1.58802c-.00005-.0704-.0286-.13796-.0786-.18759l-2.64428-2.64428c-.0864-.0865-.25405-.12111-.37517 0l-3.9687497 3.96875c-.0499.0496-.0779.11718-.078.18759v1.3224c.0005292.14617.11944.26411.26561.26355.64382 0 .9077399.0616 1.1151801.1912.2074399.12965.4071498.38389.8144198.79117l.9549802.95498c.5972396.59723 1.5711196.59723 2.1683496 0l1.74769-1.74977c.0499-.0496.0785-.11718.0786-.18758v-.79324h1.05782c.18067.00009.3082814-.1769.2511504-.3483l-.1808704-.5426.5426014-.18086c.138749-.0462.21374-.19616.16743-.33487l-.18087-.5426.542609-.18087c.138751-.0462.213741-.19615.167431-.33486l-.18087-.54261.542599-.18086c.138751-.0462.21375-.19616.16744-.33487l-.18087-.5426.542601-.18087c.138749-.0462.21374-.19615.16743-.33486l-.18087-.5426.542609-.18087c.138751-.0462.213741-.19615.167431-.33486l-.180871-.54261.5426-.18086c.138751-.0462.21375-.19616.16744-.33487l-.180869-.5426.5426-.18087c.138749-.0462.21374-.19615.16743-.33486l-.18087-.5426.542609-.18087c.138751-.0462.21374-.19615.167431-.33486l-.180871-.5426.542601-.18087c.138749-.0462.21375-.19616.167439-.33487l-.180869-.5426.5426-.18087c.13875-.0462.21374-.19615.16743-.33486l-.264581-.79375c-.0131-.039-.035-.0743-.0641-.10335l-.79375-.79375c-.0594-.0594-.130491-.0822-.19792-.0786zm-8.1907214 8.31267 2.38074 2.38073v2.69131l-1.67174 1.67173c-.3964.39642-1.02364.39642-1.4200597 0l-.9549802-.95498c-.3864899-.38648-.5841598-.66191-.90589-.86299-.2610099-.16314-.5926399-.25725-1.1332699-.27234v-.94877zm-.000529 1.21336c-.14611.00001-.26458.11846-.26458.26459 0 .14612.11847.26458.26458.26458.14612 0 .26459-.11846.26459-.26458 0-.14613-.11847-.26458-.26459-.26459zm1.05834.79375c-.14612.00001-.26459.11846-.26459.26459 0 .14612.11847.26458.26459.26458.14613.00001.26458-.11846.26458-.26458 0-.14613-.11845-.26459-.26458-.26459zm-2.5140599.61754c-.20384-.00001-.4073602.0766-.5612101.23047l-.17776.17777c-.3077002.3077-.3077099.81522 0 1.12293l1.76578 1.76578c.30771.30771.81522.30771 1.12293 0l.17777-.17776c.30769-.30771.30771-.81523 0-1.12293a.26528922.26528922 0 1 0 -.37518.37517c.1069.10689.1069.26621 0 .3731l-.17776.17777c-.1069.10689-.26621.10689-.37311 0l-1.76578-1.76578c-.1068999-.1069-.1068901-.26623 0-.37311l.1777701-.17776c.10688-.10689.26621-.10689.3730998 0l.9493001.94929a.26528596.26528596 0 1 0 .37517-.37517l-.9493008-.9493c-.1538501-.15384-.3578899-.23047-.5617191-.23047zm3.0432199.70538c-.14611 0-.26458.11846-.26458.26458 0 .14613.11847.26458.26458.26459.14612-.00001.26459-.11846.26459-.26459 0-.14612-.11847-.26458-.26459-.26458z" font-variant-ligatures="normal" font-variant-position="normal" font-variant-caps="normal" font-variant-numeric="normal" font-variant-alternates="normal" font-feature-settings="normal" text-indent="0" text-align="start" text-decoration-line="none" text-decoration-style="solid" text-decoration-color="#000000" text-transform="none" text-orientation="mixed" white-space="normal" shape-padding="0" isolation="auto" mix-blend-mode="normal" solid-color="#000000" solid-opacity="1" vector-effect="none"/></g></svg>