<svg id="svg14514" height="512" viewBox="0 0 16.933333 16.933334" width="512" xmlns="http://www.w3.org/2000/svg" xmlns:svg="http://www.w3.org/2000/svg"><g id="layer1" transform="translate(0 -280.067)"><path id="path11413" d="m2.6458311 291.97287h8.2020799v1.5875h-8.2020799z" fill="#e8ab3c"/><path id="path11415" d="m7.4083312 286.9458-.5291701 2.11667-5.5562299-.00001c-.29316 0-.52917006.23601-.52917006.52917v1.85209c0 .29316.23601006.52916.52917006.52916h10.8478998c.29316 0 .5377-.23612.52917-.52916v-1.85209l-1.05834-2.64583c-.10887-.27219-.236009-.52917-.52917-.52917h-3.1749799c-.29317 0-.4949299.23802-.5291799.52917z" fill="#ffbc42"/><path id="path11417" d="m8.4666611 287.47497-.4239199 1.5875h1.4822599v1.05833l.5291599.79375h1.5875v-1.05833l-1.00355-2.38125z" fill="#33b9ef" font-variant-ligatures="normal" font-variant-position="normal" font-variant-caps="normal" font-variant-numeric="normal" font-variant-alternates="normal" font-feature-settings="normal" text-indent="0" text-align="start" text-decoration-line="none" text-decoration-style="solid" text-decoration-color="#000000" text-transform="none" text-orientation="mixed" white-space="normal" shape-padding="0" isolation="auto" mix-blend-mode="normal" solid-color="#000000" solid-opacity="1" vector-effect="none"/><path id="path11427" d="m14.552081 289.85622h1.05833l.52918 1.32292-.26459.79374h-1.58751l-.26458-.79374z" fill="#ffbc42"/><path id="path11431" d="m15.081241 281.65412c0 .43838-.35537.79375-.79375.79375s-.79375-.35537-.79375-.79375c0-.43837.35537-.79375.79375-.79374.43838-.00001.79375.35537.79375.79374z" fill="#ffbc42"/><path id="path11443" d="m2.911971 286.41663c0 .29225-.2369097.52916-.5291598.52917-.29225 0-.52917-.23692-.52917-.52917s.23692-.52917.52917-.52917c.2922501.00001.5291598.23692.5291598.52917z" fill="#ffbc42"/><path id="path11481" d="m2.6458311 293.03121h8.2020899c.879481 0 1.5875.70803 1.5875 1.5875 0 .87948-.708019 1.5875-1.5875 1.5875h-8.2020899c-.87947 0-1.5874899-.70802-1.5874899-1.5875 0-.87947.7080199-1.5875 1.5874899-1.5875z" fill="#33658a"/><g fill="#dbe9ee"><path id="path11483" d="m10.847921 294.61872a.5291667.5291667 0 0 1 -.52917.52916.5291667.5291667 0 0 1 -.5291698-.52916.5291667.5291667 0 0 1 .5291698-.52917.5291667.5291667 0 0 1 .52917.52917z"/><path id="path11485" d="m8.4666812 294.61872a.5291667.5291667 0 0 1 -.5291701.52916.5291667.5291667 0 0 1 -.5291698-.52916.5291667.5291667 0 0 1 .5291698-.52917.5291667.5291667 0 0 1 .5291701.52917z"/><path id="path11487" d="m6.085401 294.61872a.5291667.5291667 0 0 1 -.5291598.52916.5291667.5291667 0 0 1 -.5291701-.52916.5291667.5291667 0 0 1 .5291701-.52917.5291667.5291667 0 0 1 .5291598.52917z"/><path id="path11489" d="m3.7041812 294.61872a.5291667.5291667 0 0 1 -.5291701.52916.5291667.5291667 0 0 1 -.5291598-.52916.5291667.5291667 0 0 1 .5291598-.52917.5291667.5291667 0 0 1 .5291701.52917z"/></g><path id="path13191-1" d="m13.573331 280.87433-11.2587399 4.75475c-.4037299.0355-.7270899.37597-.7270899.78806v2.38074h-.26355c-.43516006 0-.79530005.35755-.79530005.79271v1.85364c0 .43516.36013999.79323.79530005.79323h1.0583299v.55036c-.89656.12854-1.58801995.89864-1.58801995 1.83038 0 1.02147.83009995 1.85363 1.85156995 1.85363h8.2010499c1.02148 0 1.853631-.83216 1.853631-1.85363 0-.93111-.692041-1.70106-1.588011-1.83038v-.55036h1.05885c.435231 0 .80616-.3568.79323-.80098v-1.84589c.00013-.0332-.006-.0662-.0181-.0971l-.49195-1.23041 2.02675-5.56969c.12083-.0225.23149-.0618.33434-.12196v7.01921h-.26354c-.108839.00023-.20643.0671-.24598.16847l-.529169 1.32188c-.0228.0582-.0243.12269-.004.1819l.26355.79272c.0358.10884.1376.18226.25218.1819h.5271v.56224c-.48366.13573-.79273.54751-.79273 1.02578 0 .58136.47697 1.05833 1.05834 1.05833s1.05885-.47697 1.05885-1.05833c0-.35287-.52969-.35287-.52969 0 0 .29538-.23377.52916-.52916.52916s-.52917-.23378-.52917-.52916c0-.29539.23378-.52969.52917-.52969.14617-.00052.26411-.11944.26355-.26561v-.79272h.52968c.11439.00014.21591-.0732.25167-.1819l.26354-.79272c.0204-.0592.019-.1236-.004-.1819l-.52968-1.32188c-.0395-.1014-.13715-.16824-.24598-.16847h-.26562v-7.9375c0-.58136-.4749-1.05626-1.05626-1.05626-.26953 0-.51624.0934-.7152.2775zm.7152.2496c.29539 0 .5271.23378.5271.52916 0 .29539-.23171.52969-.5271.52969s-.52916-.2343-.52916-.52969c0-.29538.23377-.52916.52916-.52916zm-7.6150398 7.67395h-2.77192l-.3591499-1.19528c-.0321-.11468-.13672-.19373-.2558003-.19327-.1794999-.00005-.30719.17485-.2521799.34572l.3136702 1.04283h-1.2314502v-1.63711c.0836.0301.17232.0491.26562.0491.43524 0 .7927202-.35747.7927202-.79272 0-.1895-.0704-.36231-.1829401-.49971l10.2438198-4.32584c-.001.0208-.006.0404-.006.0615 0 .45665.29318.85156.70125.9989l-.11731.32556h-.90071l.0915-.10386c.15431-.16928.0353-.44134-.19378-.44287-.078-.00053-.15235.0332-.20309.0925l-3.2013598 3.6282h-1.4691601c-.4756499 0-.69581.3784-.7880599.74698zm6.2564698-5.29115h.69091l-.24391.67076zm-.56999.0971.63975.9617h-1.48828zm-.67231 1.48879h1.3565l-.40411 1.11105zm-.66973.0326 1.4149 1.64952-.27337.75085-.2713-.67902c-.057-.14242-.12132-.29715-.238229-.43719-.116911-.14003-.313541-.25786-.537431-.25786h-1.00046zm-8.6356499 1.0263c.14926 0 .26355.11636.26355.26561 0 .14926-.11429.26355-.26355.26355s-.26562-.11429-.26562-.26355c0-.14925.11636-.26561.26562-.26561zm5.5547.52916h3.1755199c.0693 0 .0836.0117.130741.0682.0472.0565.100539.1653.152439.29508l1.03922 2.59777v1.80247c-.00004.003-.00004.005 0 .008.004.14191-.11246.2558-.26355.2558h-10.8479199c-.15115 0-.26561-.11239-.26561-.26355v-1.85363c0-.15116.11446-.26355.26561-.26355h5.5547c.12202.00053.2285399-.0826.25787-.20102l.5322599-2.13192c.05-.20021.1187501-.31341.2687201-.31341zm.5291699.52917c-.12021.00006-.22527.0811-.2558.1974l-.4237498 1.58802c-.044.16768.0824.33167.2558.33176h1.2185298v.79324c-.0002598.0519.0146.10275.0429.14624l.52969.79479c.0493.0736.1321099.11758.22065.1173h1.58802c.14531-.00053.26297-.11824.26355-.26355v-1.05833c.000529-.0356-.006-.0709-.0196-.10387l-1.00407-2.38073c-.0412-.0983-.13736-.16223-.24392-.16227zm.2030801.52917h.5916999v1.05885h-.87488zm1.1213899 0h.67179l.913641 2.17041v.74h-1.179261l-.40617-.60925v-.97875zm-7.9416398 2.11356c-.1461201.002-.26319.12156-.26148.26769v.79478c-.008.36048.5369499.36048.5291599 0v-.79478c.002-.14855-.11913-.26942-.2676799-.26769zm1.0567801 0c-.14551.003-.2616402.12216-.2599302.26769v.79478c.008.34495.52142.34495.5291702 0v-.79478c.00201-.14917-.1200801-.2703-.26924-.26769zm1.0583399 0c-.14552.003-.2616501.12216-.2599401.26769v.79478c0 .35312.52969.35312.52969 0v-.79478c.00201-.14938-.1204-.2706-.2697499-.26769zm10.7678208.2677h.699179l.42788 1.06608-.17415.52142h-1.20716l-.17364-.52142zm-11.822541 2.11718h7.673951v.52917h-.792711c-.3450399.008-.3450399.5215 0 .52916h1.05626c.73748.00001 1.32447.58493 1.32447 1.32241 0 .73747-.58699 1.32446-1.32447 1.32446h-8.2010499c-.73747 0-1.3224-.58699-1.3224-1.32446 0-.73748.58493-1.32241 1.3224-1.32241h6.0859301c.3606998.008.3606998-.53717 0-.52916h-5.8223802zm.2656203 1.58802c-.4352402 0-.7927202.35748-.7927202.79272 0 .43523.35748.79477.7927202.79478.4352398 0 .7932298-.35954.7932298-.79478 0-.43525-.35799-.79273-.7932298-.79272zm2.3812497 0c-.4352499-.00001-.7932399.35747-.7932399.79272 0 .43524.35799.79478.7932399.79478.4352301-.00001.7947801-.35955.7947801-.79478 0-.43524-.35955-.79272-.7947801-.79272zm2.3807301 0c-.4352499-.00001-.7932301.35747-.7932301.79272 0 .43524.3579802.79478.7932301.79478.4352399 0 .7947801-.35954.7947801-.79478 0-.43525-.3595402-.79273-.7947801-.79272zm2.3827999 0c-.4352498-.00001-.7947799.35747-.7947799.79272 0 .43524.3595301.79478.7947799.79478.435241 0 .79272-.35954.79272-.79478 0-.43525-.357479-.79273-.79272-.79272zm-7.1447797.52916c.1492599 0 .2635498.11429.2635498.26356 0 .14925-.1142899.26561-.2635498.26561-.1492602 0-.2656203-.11636-.2656203-.26561 0-.14926.1163601-.26355.2656203-.26356zm2.3812497 0c.1492502.00001.2656203.1143.2656203.26356 0 .14925-.1163701.26561-.2656203.26561-.1492599 0-.2640698-.11636-.2640698-.26561 0-.14927.1148099-.26356.2640698-.26356zm2.3807301 0c.14926 0 .26562.11429.26562.26356 0 .14925-.11636.26561-.26562.26561-.1492599 0-.26407-.11636-.26407-.26561 0-.14927.1148101-.26356.26407-.26356zm2.3827999 0c.14926 0 .263551.11429.263551.26356 0 .14925-.114291.26561-.263551.26561s-.26562-.11636-.26562-.26561c0-.14927.11636-.26356.26562-.26356z" font-variant-ligatures="normal" font-variant-position="normal" font-variant-caps="normal" font-variant-numeric="normal" font-variant-alternates="normal" font-feature-settings="normal" text-indent="0" text-align="start" text-decoration-line="none" text-decoration-style="solid" text-decoration-color="#000000" text-transform="none" text-orientation="mixed" white-space="normal" shape-padding="0" isolation="auto" mix-blend-mode="normal" solid-color="#000000" solid-opacity="1" vector-effect="none"/></g></svg>