<svg id="svg14514" height="512" viewBox="0 0 16.933333 16.933334" width="512" xmlns="http://www.w3.org/2000/svg" xmlns:svg="http://www.w3.org/2000/svg"><g id="layer1" transform="translate(0 -280.067)"><path id="path11143" d="m14.816675 285.35829.94873.94874c.2073.20729.2073.54106 0 .74836l-1.89748 1.89747c-.20729.2073-.54106.2073-.74835 0l-.94874-.94874z" fill="#c8d4d9"/><path id="path11145" d="m10.054165 284.82913-1.0583303 1.05833 1.5875003 1.5875.52917-.52917c.29315-.29316.76517-.29316 1.05833 0s.29316.76518 0 1.05834l2.64583-2.64584c-.29316.29316-.76517.29316-1.05833 0s-.29316-.76518 0-1.05833l-2.11666-2.11667c-1.02605-1.02605-2.6781105-1.02605-3.7041705 0l-1.0583299 1.05834s1.8520799-.79375 3.1749904.52916c.29316.29316.29316.76518 0 1.05834z" fill="#dbe9ee"/><path id="path11147" d="m9.2604246 286.15204-2.52802 2.52801 1.05834 1.05834 2.5280104-2.52802z" fill="#c8d4d9"/><path id="path11177" d="m6.7098846 288.65718 1.1037301 1.10373c.2072899.20729.2072899.54106 0 .74835l-4.7852 4.7852c-.5130201.51302-1.3390501.51303-1.8520801 0-.51303003-.51303-.51303003-1.33906 0-1.85209l4.7851999-4.78519c.2072902-.2073.5410599-.2073.7483501 0z" fill="#ff6b6b"/><path id="path12925-5" d="m11.983765 288.19223.94878.94878c.30771.3077.81523.30617 1.12293-.002l1.89756-1.89756c.3077-.30771.30771-.81367 0-1.12138l-.94878-.94878c-.10304-.10357-.27052-.10403-.3744-.001-.193.1925-.49118.1925-.68393-.00025s-.19275-.49042 0-.68317c.10256-.1032.10256-.2699 0-.3731l-2.11719-2.1172c-.56323-.56316-1.30118-.84587-2.0391503-.84587-.7379701 0-1.4759202.28271-2.0391502.84594l-1.0583299 1.05833c-.2031.20601.024299.5421.2909398.42995 0 0 1.6863801-.72587 2.8845701.47232.1927505.19275.1927505.49094 0 .68368l-1.0583299 1.05885c-.1038601.10343-.1038601.27123 0 .37466l1.13533 1.13584-2.1533501 2.15336-.6842001-.6842 1.5456401-1.54564c.2597901-.24926-.1247699-.63381-.3741399-.37402l-1.5735401 1.57354c-.2995599-.15636-.6804898-.11225-.9306999.13798l-4.78368004 4.7842c-.61343999.61344-.61343999 1.61279 0 2.22622.61343004.61344 1.61278004.61344 2.22622014 0l4.7836799-4.7842c.2502099-.25021.29365-.63183.13695-.93173l2.1812604-2.18126.078.078c.1032.10256.2699.10256.3731 0l.52969-.52917c.19274-.19274.49041-.19274.68316 0 .19275.19275.19275.49094.00026.68394-.10323.10379-.103.27167.000794.37492zm-2.1941803-6.51692c.6006603-.00004 1.2013403.23154 1.6639803.69453l1.95389 1.95492c-.22439.38858-.15763.89967.1633 1.2206.12434.12434.2752.20486.43408.25063l-1.3963 1.39578c-.0458-.1587-.12641-.30934-.25063-.43356-.39357-.39357-1.03787-.39358-1.43144 0l-.34416.34364-1.2128504-1.21491.8712704-.87075c.39357-.39357.39357-1.03838 0-1.43195-.8926304-.89263-2.0158206-.89302-2.5104403-.81959l.3953197-.39481c.4628201-.46282 1.0633203-.69449 1.6639803-.69453zm5.0265703 4.05712.76274.76274c.10689.10689.10689.26571 0 .37259l-1.89756 1.89756c-.10688.10688-.26777.10841-.37465.002l-.76223-.76222zm-8.2930305 3.11195 1.10329 1.10329c.1068801.10689.1068801.26881 0 .37569l-4.78369 4.78369c-.4126199.41262-1.0668799.41415-1.4794999.002-.41262002-.41262-.41261002-1.06791 0-1.48053l4.7842098-4.78368c.1211101-.12109.2902601-.0854.3756901 0z" font-variant-ligatures="normal" font-variant-position="normal" font-variant-caps="normal" font-variant-numeric="normal" font-variant-alternates="normal" font-feature-settings="normal" text-indent="0" text-align="start" text-decoration-line="none" text-decoration-style="solid" text-decoration-color="#000000" text-transform="none" text-orientation="mixed" white-space="normal" shape-padding="0" isolation="auto" mix-blend-mode="normal" solid-color="#000000" solid-opacity="1" vector-effect="none"/></g></svg>