<svg id="svg14514" height="512" viewBox="0 0 16.933333 16.933334" width="512" xmlns="http://www.w3.org/2000/svg" xmlns:svg="http://www.w3.org/2000/svg"><g id="layer1" transform="translate(0 -280.067)"><path id="path11675" d="m11.377085 288.79788c0 .87948-.708025 1.5875-1.5875011 1.5875h-2.116667c-.8794745 0-1.5874995-.70802-1.5874995-1.5875v-.52916h5.2916666z" fill="#ffbc42"/><path id="path10923" d="m.79375066 291.97289v-5.82083l1.05833334-1.05833h1.5875003v7.40832l-2.1166669.00001c-.2931583 0-.52916674-.23601-.52916674-.52917z" fill="#ffbc42"/><path id="path11511" d="m3.439584 286.15206 1.0583331.00001v6.34999l-1.0583331-.00001z" fill="#33658a"/><path id="path11513" d="m12.964584 286.15206h1.058334v6.35h-1.058334z" fill="#33658a"/><path id="path11515" d="m3.439584 292.50205v-1.05834h10.583334v1.05834z" fill="#ffbc42"/><path id="path11517" d="m3.9687525 292.50205c-.000001.87675-.7107494 1.5875-1.5875019 1.5875-.8767523 0-1.58750084-.71075-1.58750194-1.5875.0000011-.87675.71074964-1.5875 1.58750194-1.5875.8767525 0 1.5875009.71075 1.5875019 1.5875z" fill="#33658a"/><path id="path12240" d="m11.377084 285.62289h-5.2916666v1.5875h5.2916666z" fill="#ffbc42"/><path id="path11519" d="m7.4083339 282.97705-1.3229165 2.64584h5.2916666l-1.322916-2.64584z" fill="#ffbc42"/><path id="path11521" d="m15.081253 292.50205c-.000001.87675-.71075 1.5875-1.587502 1.5875s-1.587501-.71075-1.587502-1.5875c.000001-.87675.71075-1.5875 1.587502-1.5875s1.587501.71075 1.587502 1.5875z" fill="#33658a"/><path id="path11523" d="m5.5562507 287.21039h6.3500003v1.05834h-6.3500003z" fill="#33658a"/><path id="path11543" d="m14.022918 292.50205a.5291667.5291667 0 0 1 -.52917.52917.5291667.5291667 0 0 1 -.52916-.52917.5291667.5291667 0 0 1 .52916-.52916.5291667.5291667 0 0 1 .52917.52916z" fill="#dbe9ee"/><path id="path11545" d="m2.9104173 292.50205a.5291667.5291667 0 0 1 -.5291699.52917.5291667.5291667 0 0 1 -.52916-.52917.5291667.5291667 0 0 1 .52916-.52916.5291667.5291667 0 0 1 .5291699.52916z" fill="#dbe9ee"/><path id="path12689-4" d="m12.698968 286.15154v1.32447h-.529167v-.26563c-.000582-.14531-.118237-.26296-.26355-.26355h-.264583v-1.32395c.00001-.0411-.0095-.0816-.0279-.11834l-1.131714-2.26291h.101802c.360478.008.360478-.53695 0-.52916h-3.7052054c-.3604773-.008-.3604773.53695 0 .52916h3.0122193l1.0583341 2.11719h-4.4359056l.602547-1.2051c.094068-.18149-.044415-.39655-.2485636-.38602-.096594.005-.1827874.0622-.2247924.14934l-.79375 1.5875c-.018362.0367-.027915.0773-.027905.11834v1.32395h-.277761c-.149039.0136-.2520553.12753-.251923.26355v.26562h-.5296834v-1.32447c-.0005819-.14531-.1182355-.26297-.2635494-.26355h-.7927165v-.79478c-.0005027-.14617-.1194435-.26463-.2656168-.26407h-1.588017c-.070401.00005-.1379635.0286-.1875855.0786l-1.05678304 1.05622c-.049949.0496-.077971.11718-.078031.18758v6.34794c-.0000004.00053 0 .001 0 .002.0000013 1.01974.83182254 1.85364 1.85156664 1.85364.9294373 0 1.7006998-.69324 1.8303792-1.58802h6.6362874c.35286 0 .35286-.52917 0-.52917h-6.635771c-.026927-.18688-.082042-.36445-.1607135-.52916h7.7731695c-.115044.24086-.181384.50883-.181385.79271.000002 1.01974.831824 1.85364 1.851567 1.85364s1.851566-.8339 1.851567-1.85364c-.000001-1.01977-.831824-1.85108-1.851567-1.85108-.09031 0-.178705.009-.265617.0212v-4.25402h.529167v3.52951c.0077.34503.521508.34503.529167 0v-1.94356h.529683c-.000016.0603.02059.11887.05839.16589l1.058334 1.3224c.155919.1938.468842.0849.470772-.16382v-3.17603c-.000503-.14921-.124236-.26849-.273368-.26355-.07721.003-.149318.0393-.197404.0997l-1.058334 1.32188c-.03792.0472-.05853.10588-.05839.1664h-.529683v-1.32447c-.000582-.14531-.118236-.26297-.26355-.26355h-1.072028c-.149244.0133-.252547.12735-.252439.26355zm-10.7378467-.79272h1.2149131v4.49791c0 .35286.5291667.35286.5291667 0v-3.43958h.5270997v4.76198h-.5586222c-.334173-.32682-.7905343-.52916-1.2929446-.52916-.5173336 0-.985355.21452-1.3218832.55862v-4.9475zm4.3888794.52916h4.7625003v1.05885h-4.7625003zm9.5250003 1.01751v1.66812l-.529166-.66198v-.34416zm-14.0234337.57051h.5291667c.3449462-.008.3449462-.52142 0-.52917h-.5418274c-.3571456.0243-.3325735.53784.012661.52917zm3.96875 0c1.9355976.002 3.8818246 0 5.8223837 0v.5271h-5.8223837zm-3.96875.5271c-.3607868-.008-.3607868.53726 0 .52917h.5291667c.3607868.008.3607868-.53727 0-.52917zm2.9098997 0h.5296834v.26562c.000582.14612.119498.2641.2656168.26355h5.5557338v.26561c-.000002.73746-.585443 1.32292-1.3229171 1.32292h-2.116667c-.5798821 0-1.0644641-.36493-1.2464349-.87643-.1181497-.33249-.6168274-.15524-.4986777.17725.2553644.7178.9419151 1.22835 1.7451126 1.22835h2.116667c1.0214771 0 1.8520821-.83062 1.8520841-1.85209v-.26561h.264583c.145313-.00053.262969-.11824.26355-.26355v-.26562h.529167v2.82877c-.184663.0884-.35279.2056-.497644.34726h-7.439857zm-2.9098997 1.05885c-.3604773-.008-.3604773.53695 0 .52917h.5291667c.3604773.008.3604773-.53695 0-.52917zm.5291667 2.11718c.7337604 0 1.324466.58813 1.3244668 1.32189-.0000008.73376-.5907064 1.32446-1.3244668 1.32446-.7337605 0-1.3218823-.5907-1.3218832-1.32446.0000009-.73376.5881227-1.32189 1.3218832-1.32189zm11.113534 0c.73376 0 1.321883.58813 1.321883 1.32189s-.588123 1.32446-1.321883 1.32446c-.733761 0-1.324465-.5907-1.324467-1.32446.000001-.73376.590706-1.32189 1.324467-1.32189zm-11.113534.52917c-.4352347.00001-.792711.35748-.7927165.79272-.0000027.43524.3574761.7953.7927165.7953.4352459 0 .795303-.36006.7952999-.7953-.0000051-.43524-.3600599-.79272-.7952999-.79272zm11.113534 0c-.435235.00001-.795295.35748-.7953.79272-.000003.43524.360059.7953.7953.7953.435246 0 .79272-.36006.792717-.7953-.000005-.43524-.357477-.79272-.792717-.79272zm-11.113534.52917c.1492584 0 .2656149.11429.2656167.26355.0000011.14926-.1163562.26561-.2656167.26561-.1492585 0-.2635508-.11635-.2635499-.26561.0000019-.14926.1142934-.26355.2635499-.26355zm11.113534 0c.149258 0 .263549.11429.26355.26355s-.11429.26561-.26355.26561c-.149258 0-.265617-.11635-.265617-.26561.000002-.14926.11636-.26355.265617-.26355z" font-variant-ligatures="normal" font-variant-position="normal" font-variant-caps="normal" font-variant-numeric="normal" font-variant-alternates="normal" font-feature-settings="normal" text-indent="0" text-align="start" text-decoration-line="none" text-decoration-style="solid" text-decoration-color="#000000" text-transform="none" text-orientation="mixed" white-space="normal" shape-padding="0" isolation="auto" mix-blend-mode="normal" solid-color="#000000" solid-opacity="1" vector-effect="none"/></g></svg>