<svg id="svg14514" height="512" viewBox="0 0 16.933333 16.933334" width="512" xmlns="http://www.w3.org/2000/svg" xmlns:svg="http://www.w3.org/2000/svg"><g id="layer1" transform="translate(0 -280.067)"><path id="path11257" d="m6.6145832 289.59165-1.322917-3.70417c-.11639-.79375.39933-1.1257.79375-1.32291 2.479159-1.23958 7.1062318-2.81276 9.2182028-3.54278.22511-.0778.434525-.0337.571381.10319.136853.13685.180998.34627.10319.57138-.73002 2.11197-2.303013 6.73924-3.542583 9.21839-.19721.39442-.52917.91014-1.32292.79375l-3.7041688-1.3229" fill="#dbe9ee"/><path id="path11253" d="m5.1223852 290.77385 1.103729 1.10373c.207294.2073.207294.54106 0 .74836l-3.1976966 3.19769c-.5130301.51303-1.3390561.51303-1.852083.00001-.51302812-.51303-.51302912-1.33906 0-1.85209l3.1976969-3.1977c.2072939-.20729.54106-.20729.7483537 0z" fill="#ff6b6b"/><path id="path11255" d="m8.4361782 288.00208c-.14347 0-.286943.0549-.396875.16485l-2.762107 2.7621.79375.79375 2.762107-2.7621c.219866-.21987.219866-.57388 0-.79375-.109934-.10993-.253407-.16485-.396875-.16485z" fill="#c8d4d9"/><path id="path13027-3" d="m5.9670752 284.32788c-.209063.10454-.473819.25267-.677476.51005-.203661.25738-.3472416.63019-.253215 1.11311l1.272789 3.57187-.410826.41083c-.259654.24937.124761.63379.374136.37414l1.953887-1.95389c.146175-.13331.325705-.0939.419611 0 .116591.1166.119454.30017 0 .41961l-2.575552 2.57556-.761712-.76171c-.3077046-.3077-.8131538-.3077-1.1208616 0l-3.19928612 3.19722c-.61344.61344-.613438 1.61278 0 2.22622.61343702.61343 1.61329702.61344 2.22673602 0l3.1972217-3.19722c.296646-.29666.304274-.77727.02894-1.08727l2.578655-2.57866c.320279-.32028.328433-.85598 0-1.16789-.37547-.35658-.862041-.29517-1.167889 0l-1.129128 1.12914-1.168921-3.27319c-.04443-.32591.0287-.51544.150379-.66921.123708-.15634.313835-.27267.499194-.36535 2.441467-1.22073 7.0727018-2.79884 9.1865198-3.5295.14802-.0512.236111-.0212.297656.0403.06154.0615.09147.14963.04031.29765-.730663 2.11384-2.308782 6.74507-3.529501 9.18652-.09268.18536-.208493.37599-.364835.49971-.153475.12143-.342906.19426-.66766.15038l-2.5657348-.91622c-.332454-.11886-.510736.37982-.178284.49868l2.6013918.92914c.01643.006.03339.01.05064.0124.457616.0671.830411-.0558 1.08779-.25942.257377-.20366.405513-.46892.510045-.67799 1.258422-2.51686 2.826995-7.13997 3.556373-9.25008.104454-.30221.06308-.62823-.166399-.84491-.266008-.25119-.591831-.25295-.84491-.16641-2.110124.72938-6.7332318 2.29796-9.2500828 3.55637zm-1.2185278 6.55206c.06703 0 .1336281.0267.1870681.0801l1.1038077 1.1038c.106889.10689.106889.26829 0 .37518l-3.1972196 3.19722c-.4126211.41262-1.0658471.4126-1.4784631 0-.41261802-.41263-.41261802-1.0643 0-1.47692l3.19722-3.19928c.05344-.0534.1205571-.0801.1875869-.0801z" font-variant-ligatures="normal" font-variant-position="normal" font-variant-caps="normal" font-variant-numeric="normal" font-variant-alternates="normal" font-feature-settings="normal" text-indent="0" text-align="start" text-decoration-line="none" text-decoration-style="solid" text-decoration-color="#000000" text-transform="none" text-orientation="mixed" white-space="normal" shape-padding="0" isolation="auto" mix-blend-mode="normal" solid-color="#000000" solid-opacity="1" vector-effect="none"/></g></svg>