<svg id="svg14514" height="512" viewBox="0 0 16.933333 16.933334" width="512" xmlns="http://www.w3.org/2000/svg" xmlns:svg="http://www.w3.org/2000/svg"><g id="layer1" transform="translate(0 -280.067)"><path id="path11892" d="m14.022916 294.61871h-11.1124999v1.5875h11.1124999z" fill="#fdd5a6"/><path id="path11329" d="m6.0854161 289.85621c-1.75895 0-3.1750053 1.41605-3.175 3.175v1.5875h11.1124999v-1.5875c.000006-1.75895-1.416044-3.17501-3.175-3.175z" fill="#33b9ef"/><path id="path11331" d="m7.143742 289.85621.0000029-1.85209h2.64584l.0000072 1.85209s-.5291672.52917-1.3229302.52916c-.793763-.00002-1.3229199-.52916-1.3229199-.52916z" fill="#fdce97"/><path id="path11333" d="m5.8208381 284.03538c0-1.46579 1.1800419-2.64583 2.6458338-2.64583 1.4657909 0 2.6458331 1.18004 2.6458331 2.64583z" fill="#ffbc42"/><path id="path11335" d="m10.583333 285.88747c.28705-.48425 1.04049-.27246 1.05833.26458 0 .67618-.52916 1.05833-1.05833 1.05833z" fill="#fdce97"/><path id="path11337" d="m6.3500039 285.88747c-.2870499-.48425-1.0404898-.27246-1.0583299.26458 0 .67618.5291601 1.05833 1.0583299 1.05833z" fill="#fdce97"/><path id="path11339" d="m10.583333 284.82912v1.85209c0 1.17264-.944029 2.11667-2.116669 2.11667-1.1726302 0-2.1166601-.94403-2.1166601-2.11667v-1.85209z" fill="#fdd5a6"/><path id="path11341" d="m5.8208389 285.09372h5.2916671c.293158 0 .529166-.23601.529166-.52917s-.236008-.52916-.529166-.52916h-5.2916671c-.2931579 0-.529167.236-.529167.52916s.2360091.52917.529167.52917z" fill="#e8ab3c"/><path id="path11343" d="m7.9375 282.97705-.2645841-1.5875c-.04819-.28917.2360091-.52917.5291672-.52917h.5291669c.2931581 0 .586659.2417.5291659.52917l-.2645828 1.5875z" fill="#e8ab3c"/><path id="path11347" d="m5.5562489 292.50206v-2.60234c0-.0435 1.0583341-.0435 1.0583341-.0435v2.64583z" fill="#2f5c7e"/><path id="path11363" d="m5.56221 292.50204h5.808912l.799711 1.32887v2.3753h-7.4083341v-2.3753z" fill="#33658a"/><path id="path11353" d="m10.583333 296.20621v-1.05834c0-.29315-.236009-.52916-.529167-.52916h-3.1750002c-.2931578 0-.5291669.23601-.5291669.52916v1.05834z" fill="#2f5c7e"/><path id="path11894" d="m10.318749 292.50206v-2.60234c0-.0435 1.058334-.0435 1.058334-.0435v2.64583z" fill="#2f5c7e"/><path id="path13111-6" d="m8.201048 280.59579c-.2187821 0-.42155.0841-.5741249.22841-.1289712.12196-.216503.30329-.2180752.50074-.7210711.28042-1.302059.83583-1.6102348 1.54255-.1522021.32685.3468449.54605.4847238.2129.235037-.53898.6653511-.971 1.2009601-1.21284l.19172 1.15238c.02064.12847.1313649.22295.2614819.22273h1.058849c.1293792-.00079.2389061-.095.2594161-.22273l.192755-1.15342c.750043.33776 1.290333 1.04926 1.383376 1.90531h-5.011579c-.4351631 0-.7927181.35756-.7927181.79272 0 .43427.3561821.79126.7901332.79272-.4365382.0208-.7900163.37561-.7901332.79013-.000209.75685.539364 1.25216 1.1890751 1.32137.1340109.38538.3651509.72346.663009.98908v1.13327h-.7953009c-.1950382 0-.3858022.016-.5720581.047a.26460982.26460982 0 0 0 -.2206569.26148v2.54145l-.7560262 1.25367a.26460982.26460982 0 0 0 -.03721.13643v.52348h-1.3234329v-1.32343c-.000005-1.07276.5716609-2.00127 1.4267871-2.50683a.26481604.26481604 0 1 0 -.2697512-.45578c-1.0112669.59788-1.6862079 1.70143-1.6862029 2.96261v3.175a.26460979.26460979 0 0 0 .264584.26458h11.1125a.26460979.26460979 0 0 0 .264583-.26458v-3.175c.000003-1.26409-.678275-2.36983-1.693437-2.96675a.26460979.26460979 0 0 0 -.125057-.0382.26460979.26460979 0 0 0 -.143143.49455c.858407.50475 1.432473 1.43521 1.43247 2.51044v1.32343h-1.3224v-.52348a.26460982.26460982 0 0 0 -.03876-.13643l-.758094-1.26039v-2.53524a.26460979.26460979 0 0 0 -.221173-.26097c-.185465-.0307-.376002-.0465-.569992-.0465h-.794785v-1.13481c.297334-.26575.528582-.60398.662493-.98909.649573-.0692 1.19013-.54351 1.190625-1.32033.000265-.52032-.497954-.79141-.790133-.79013.433948-.001.790133-.35845.790133-.79272 0-.34581-.227293-.63937-.538469-.74673-.08388-1.13772-.818955-2.09314-1.837614-2.49183.0016-.19864-.09233-.38056-.221691-.50178-.154155-.14445-.3589692-.22841-.5782611-.22841zm0 .52968h.5291659c.1298339 0 .289261.0995.2697512.21653l-.2284093 1.37097h-.609264l-.2289259-1.36684c-.02064-.12356.1534371-.22066.2676821-.22066zm-2.380732 3.17345h5.293218c.151153 0 .263548.11447.263548.26562 0 .15116-.112395.26355-.263548.26355h-5.293218c-.1511562 0-.2635512-.11239-.2635512-.26355 0-.15115.112395-.26562.2635512-.26562zm.7947819 1.05885h3.7031351v1.32395c0 1.03064-.8209312 1.85157-1.8515671 1.85157-1.030627 0-1.851568-.82093-1.851568-1.85157zm-.7606768.524c.08834-.006.176416.0232.2315109.0946-.00191.30567-.0046.6409.01138.93121-.2958632-.0869-.538597-.36026-.5384671-.74931.0000529-.16111.1483569-.26674.295587-.27647zm5.2296559.00053c.145455.0118.287375.12104.290939.27596.0088.38468-.242602.6624-.538469.7493.02098-.30469.01085-.61355.01085-.93017.06106-.0741.149403-.10217.236678-.0951zm-1.5580441 2.93212v.88625c-.05677.053-.4282649.41963-1.0588508.41962-.6296592-.00002-1.000506-.36573-1.0583342-.41962v-.8847c.3187862.15756.677902.24702 1.057818.24702.3809711 0 .740097-.09 1.059367-.24857zm-3.4416518 1.30587h.2656178v1.32446c0 .35286.5296831.35286.5296831 0v-1.32446h.164332c.1828458.15528.694791.52966 1.4231681.52968.7271088.00001 1.2389188-.37333 1.4226537-.52917h.1632952v2.11667h-4.232299v-2.09548c.08799-.008.17326-.0217.2635491-.0217zm4.4979169.00053h.265618c.08939 0 .174857.0139.261998.0217v2.09495h-.527616zm-4.8710191 2.64583h5.5097411l.685745 1.13688v2.03809h-1.058333v-.79375c0-.43515-.360138-.79323-.795301-.79323h-3.173449c-.435161 0-.7953009.35808-.7953009.79323v.79375h-1.0562641v-2.03811zm-2.53628 2.11767h1.3234331v1.0573h-1.3234331zm3.7046831 0h3.173449c.151154 0 .265618.11241.265618.26355v.79375h-3.705201v-.79375c0-.15114.11498-.26355.266134-.26355zm5.55625 0h1.3224v1.0573h-1.3224z" font-variant-ligatures="normal" font-variant-position="normal" font-variant-caps="normal" font-variant-numeric="normal" font-variant-alternates="normal" font-feature-settings="normal" text-indent="0" text-align="start" text-decoration-line="none" text-decoration-style="solid" text-decoration-color="#000000" text-transform="none" text-orientation="mixed" white-space="normal" shape-padding="0" isolation="auto" mix-blend-mode="normal" solid-color="#000000" solid-opacity="1" vector-effect="none"/></g></svg>