<svg id="svg14514" height="512" viewBox="0 0 16.933333 16.933334" width="512" xmlns="http://www.w3.org/2000/svg" xmlns:svg="http://www.w3.org/2000/svg"><g id="layer1" transform="translate(0 -280.067)"><path id="rect1781-28" d="m11.906255 282.71248h1.058328v10.31875h-1.058328z" fill="#2f5c7e"/><path id="path11493" d="m3.9687508 287.73956c0-.29316.2360081-.52917.5291669-.52917.2931581 0 .5291659.23601.5291659.52917v1.5875h1.5875012c.262561 0 .529166.236.529166.52916v.52917h-2.645832c-.2931592 0-.529167-.23601-.529168-.52917z" fill="#33658a"/><path id="path11501" d="m1.3229177 282.97706v1.05782l8.2020831.00053c-.15412-.94572-.595172-1.05834-1.058333-1.05834z" fill="#ffbc42"/><path id="path11503" d="m2.9104177 284.03539v5.29167h-1.058333l-.000001-5.29261z" fill="#2f5c7e"/><path id="path11547" d="m3.9687508 289.32654-2.6458331.00053c-.293159.00004-.52916692.23601-.52916692.52916v2.38176c-.000003.29317.23600792.52913.52916692.53072l10.3187503-.002v-2.64583h-.79375c-1.0836072 0-2.0150592.65129-2.4241422 1.58388l-1.280025.003v-1.3224h-2.6458331c-.2931588 0-.5291669-.236-.5291669-.52916z" fill="#ffbc42"/><path id="path11549" d="m12.435419 292.76665c-.000001.87675-.710749 1.5875-1.587501 1.5875-.8767532 0-1.5875012-.71075-1.5875022-1.5875-.000005-.87676.710745-1.58751 1.5875022-1.58751.876756 0 1.587505.71075 1.587501 1.58751z" fill="#33658a"/><path id="path11551" d="m4.4979198 292.76664c-.000001.87675-.7107502 1.5875-1.5875021 1.5875-.876752 0-1.587501-.71075-1.587502-1.5875.000001-.87675.71075-1.5875 1.587502-1.5875.8767519 0 1.5875011.71075 1.5875021 1.5875z" fill="#33658a"/><path id="path11553" d="m11.377084 292.76664c.000001.29225-.236917.52917-.52917.52917-.29225 0-.529162-.23692-.52916-.52917.000003-.29225.236914-.52916.52916-.52916.292249 0 .529166.23691.52917.52916z" fill="#dbe9ee"/><path id="path11555" d="m3.4395807 292.76664c.0000021.29225-.2369169.52917-.5291699.52917-.2922491 0-.5291621-.23692-.5291601-.52917.000004-.29225.236915-.52916.5291601-.52916.292249 0 .5291659.23691.5291699.52916z" fill="#dbe9ee"/><path id="path1791-2" d="m10.560325 288.79789h-.7707422l-.79375.79375-.000529 1.28829c.47738-.46867 1.1307792-.75912 1.8526122-.75912z" fill="#33658a"/><path id="path13275-0" d="m11.64115 282.71248v6.34948c0 .35286.529683.35286.529683 0v-6.08387h.529167v9.78855c.000002-.5024-.202362-.95825-.529167-1.29243v-1.33428c0-.19001-.133316-.28319-.267166-.28319h-.842327l-1.2833832-5.91023c-.107709-.49602-.255611-.81041-.503589-1.00407-.255789-.19977-.553644-.22996-.806667-.22996h-7.1447851c-.146928-.00053-.266179.11869-.265618.26561v1.05627c-.0005291.14693.11869.26618.265618.26562h1.322401v4.76198h-.529167v-3.97392c0-.35286-.529685-.35286-.529685 0v3.97392h-.263549c-.43511992.00007-.79271492.35962-.79271492.79478v2.38074c-.000006.34746.228795.64215.54156692.7493.109726.91661.893924 1.63195 1.8391641 1.63195.9299789 0 1.7013769-.69276 1.8303798-1.58802h3.4607712c.352867 0 .352867-.52968 0-.52968h-3.4612871c-.1299131-.89424-.9006131-1.58544-1.8298639-1.58544-.8853831 0-1.629741.62718-1.8107421 1.45986-.02461-.0403-.04289-.0854-.04289-.13797v-2.38074c0-.15115.114417-.26558.265618-.26561h2.3807341v.26561c0 .43516.3601378.79324.795301.79324h2.380731v1.05833c.000529.14617.119449.26411.265618.26355l1.279509-.002c.10496-.00003.199636-.062.241845-.15813.238416-.54353.674608-.98211 1.21698-1.22266.2753282-.1162.1772132-.52802-.120922-.50746-.03242.002-.0645.01-.09405.0232-.145849.0647-.281588.13099-.408244.22221v-.62632l.63872-.63872h.4470032l.242361 1.11518c.02641.12229.134829.20938.259932.20877h.792718v.71107c-.240868-.11504-.508825-.18138-.792718-.18138-1.0197492 0-1.8536392.8313-1.8536342 1.85105.000003 1.01975.83389 1.85208 1.8536342 1.85208.835785 0 1.544217-.55936 1.773018-1.3224h.342098c.146934.00053.266179-.11869.265618-.26562v-1.32235h.529683v1.3224c-.000529.14612.117433.26503.263551.26562h2.117183c.353121 0 .353121-.52969 0-.52969h-1.851567v-5.02707c.0029-.16014-.13597-.28615-.295072-.26768-.135294.0157-.236585.1315-.234095.26768v.79272h-.529683v-5.8198c-.000529-.14617-.119443-.26463-.265618-.26407h-1.069963c-.149111.0135-.252637.12798-.252439.26407zm-10.0546853.52916h6.8812361c.429019-.001.581035.12874.726053.52917h-7.6072891zm1.5880191 1.05834h6.137608l.9193242 4.2323h-.4413172c-.0705.00015-.138015.0284-.187584.0785l-.209807.2098-.684197-.68419.210323-.2093c.175405-.16846.04976-.46443-.193268-.45526-.06874.002-.133979.0308-.181901.0801l-.792718.79478c-.289417.24794.125167.66252.373105.3731l.210323-.20929.683678.6842-.208773.20877c-.04993.0497-.07802.11717-.07803.18759v1.17535c-.184965.19212-.371579.45712-.475422.67415l-.846979.002v-1.05678-.52917c0-.45357-.373677-.79478-.794782-.79478h-1.3224014v-1.32245c0-.43516-.357555-.79272-.7927149-.79272-.4351629 0-.795301.35756-.795301.79272v1.3224h-.5291657zm1.3244669 3.17603c.151154 0 .263549.11239.263549.26355v1.58802c.0005292.14531.1182341.26297.2635481.26355h1.588019c.104016 0 .265615.13286.265615.26561v.26355h-2.3807311c-.151157 0-.2656179-.11239-.2656179-.26355v-2.11718c0-.15116.1144609-.26355.2656179-.26355zm8.7302153 1.58595h.529683v2.11718h-.529683zm-10.3182342 2.3828c.733761 0 1.322401.58813 1.322401 1.32188 0 .73376-.58864 1.3224-1.322401 1.3224-.7337611 0-1.3244641-.58864-1.3244671-1.3224.000003-.73375.590706-1.32188 1.3244671-1.32188zm7.9375002 0c.733764 0 1.322404.58811 1.322401 1.32188 0 .73376-.58864 1.3224-1.322401 1.3224s-1.3244642-.58864-1.3244672-1.3224.5907012-1.32188 1.3244672-1.32188zm-7.9375002.5271c-.4352341 0-.7947761.35955-.7947821.79478-.000002.43524.35954.79324.7947821.79324.4352449 0 .792721-.35799.7927179-.79324-.000008-.43524-.357481-.79478-.7927179-.79478zm7.9375002 0c-.435237 0-.794779.35955-.794782.79478-.000002.43524.359537.79324.794782.79324s.792718-.35799.792718-.79324c-.000008-.43524-.357481-.79478-.792718-.79478zm-7.9375002.52917c.149262 0 .2635488.11635.263552.26561 0 .14926-.11429.26407-.263552.26407-.1492541 0-.2656181-.11481-.2656151-.26407s.116361-.26561.2656151-.26561zm7.9375002 0c.149262 0 .263549.11635.263552.26561 0 .14926-.11429.26407-.263552.26407-.149254 0-.265618-.11481-.265615-.26407 0-.14926.116361-.26561.265615-.26561z" font-variant-ligatures="normal" font-variant-position="normal" font-variant-caps="normal" font-variant-numeric="normal" font-variant-alternates="normal" font-feature-settings="normal" text-indent="0" text-align="start" text-decoration-line="none" text-decoration-style="solid" text-decoration-color="#000000" text-transform="none" text-orientation="mixed" white-space="normal" shape-padding="0" isolation="auto" mix-blend-mode="normal" solid-color="#000000" solid-opacity="1" vector-effect="none"/></g></svg>