<svg id="svg14514" height="512" viewBox="0 0 16.933333 16.933334" width="512" xmlns="http://www.w3.org/2000/svg" xmlns:svg="http://www.w3.org/2000/svg"><g id="layer1" transform="translate(0 -280.067)"><path id="path11105" d="m5.8208434 282.97704c2.7849999 0 5.0270806 2.24208 5.0270806 5.02709l-.00001 5.02708h-9.5249907c-.29316 0-.52917002-.23601-.52917002-.52917v-4.49791c0-2.78501 2.24208002-5.02709 5.02709012-5.02709z" fill="#ffbc42"/><path id="path11089" d="m10.847924 290.38538h5.291669v2.64583h-5.291669z" fill="#fde74c"/><path id="path11101" d="m9.2604132 288.00413c0 1.89963-1.5399599 3.43958-3.43959 3.43958-1.89963 0-3.4395699-1.53996-3.4395699-3.43958 0-1.89963 1.5399399-3.43958 3.4395699-3.43959 1.8996301 0 3.43959 1.53995 3.43959 3.43959z" fill="#33658a"/><path id="path11103" d="m7.3842732 288.00413c0 .86347-.6999799 1.56345-1.56345 1.56344-.86346 0-1.5634398-.69998-1.5634398-1.56344 0-.86347.6999798-1.56345 1.5634398-1.56345.8634701 0 1.56345.69998 1.56345 1.56345z" fill="#ff6b6b"/><path id="path11107" d="m10.355963 283.9775c-.10159-.007-.20607.0153-.30127.0703l-.6816197.39326c.6638797.66185 1.1394897 1.51045 1.3508307 2.46083l.7338-.42375c.253879-.14658.34037-.46907.19379-.72295l-.87385-1.51412c-.0916-.15868-.25236-.25172-.421681-.26355z" fill="#33658a"/><path id="path12865-2" d="m5.8198033 282.71298c-2.9270101 0-5.29063002 2.36414-5.29063002 5.29115v4.49791c0 .43517.35962.79324.79478002.79324h9.5234497c.146121.00056.265031-.11743.265621-.26355v-2.38125h4.761469v2.11511h-.529169v-1.32498c0-.35286-.529171-.35286-.529171 0v1.32498h-.52968v-.79581c0-.35287-.52917-.35287-.52917 0v.79581h-.527099v-1.32498c0-.35287-.52916-.35287-.52916 0v1.32498h-.52969v-.79271c.003-.15991-.13565-.28581-.29455-.26769-.1355.0154-.23708.13133-.234621.26769v1.05885c.00053.15154.12774.2718.27906.26355h3.95325v.79478c0 .35312.52968.35312.52968 0v-3.7052c-.000529-.14552-.11855-.26325-.264069-.26355h-5.02708v-2.11718c0-1.34353-.49326-2.56793-1.3156807-3.50005l.3896407-.22634c.1563-.0908.309219.005.36122.0956l.87333 1.5136c.0755.13083.0353.28565-.0956.36122-.30606.17576-.0425.63465.263549.45889.376881-.21759.508561-.70672.290941-1.08366l-.87282-1.5136c-.217191-.37664-.697201-.51632-1.0862407-.29146l-.5069401.29301c-.94279-.86898-2.2085599-1.39836-3.5946199-1.39836zm0 .52968c2.6429999 0 4.7635307 2.11846 4.7635307 4.76147v4.76146h-9.2593807c-.15116 0-.26562-.11239-.26562-.26355v-4.49791c0-2.64301 2.11846-4.76147 4.76147-4.76147zm.00101 1.0573c-.6899598 0-1.3382199.18937-1.8918799.51883-.3046399.18015-.0327.63675.27079.45475.4745299-.28237 1.02773-.44441 1.6210899-.44441 1.7566402-.00001 3.175 1.41836 3.175 3.175s-1.4183598 3.175-3.175 3.175c-1.7566399-.00001-3.1749999-1.41837-3.1749999-3.175 0-.75169.26018-1.43974.6955601-1.98334.2206299-.27563-.1927799-.60636-.4134102-.33073-.5075699.63374-.8113199 1.44001-.8113199 2.31407 0 2.04261 1.66155 3.70416 3.7041699 3.70416 2.0426201.00001 3.7041701-1.66154 3.7041701-3.70416 0-2.04263-1.66155-3.70417-3.7041701-3.70417zm-.00101 1.87585c-1.0064499.00001-1.8262399.82186-1.8262399 1.82832 0 1.00645.81979 1.8283 1.8262399 1.82831 1.0064599 0 1.82831-.82185 1.82831-1.82831 0-1.00647-.8218501-1.82832-1.82831-1.82832zm0 .52969c.72048 0 1.2991499.57815 1.2991499 1.29863 0 .72047-.5786699 1.29863-1.2991499 1.29863-.72047-.00001-1.2986301-.57816-1.2986301-1.29863 0-.72048.5781601-1.29863 1.2986301-1.29863z" font-variant-ligatures="normal" font-variant-position="normal" font-variant-caps="normal" font-variant-numeric="normal" font-variant-alternates="normal" font-feature-settings="normal" text-indent="0" text-align="start" text-decoration-line="none" text-decoration-style="solid" text-decoration-color="#000000" text-transform="none" text-orientation="mixed" white-space="normal" shape-padding="0" isolation="auto" mix-blend-mode="normal" solid-color="#000000" solid-opacity="1" vector-effect="none"/></g></svg>