<svg id="svg14514" height="512" viewBox="0 0 16.933333 16.933334" width="512" xmlns="http://www.w3.org/2000/svg" xmlns:svg="http://www.w3.org/2000/svg"><g id="layer1" transform="translate(0 -280.067)"><path id="path11721" d="m8.995819 291.44371.39058 1.32139c.17482.59143.59636.85297 1.35683.79527 2.62729-.1992 3.76667-.88122 4.07343-1.05833.52916-.30551.79375-.70679.79375-1.05006v-2.6541s-2.64583-.52916-7.14375-.52916-7.1437499.52917-7.1437499.52917v2.6541c0 .34327.26459.74455.79375 1.05006.30676.17711 1.44614.85913 4.0734299 1.05833.76047.0577 1.18201-.20384 1.35683-.79527l.39058-1.32139c.0575-.28746.23601-.52916.52916-.52916.29315-.00001.47166.24169.52916.52915z" fill="#dbe9ee"/><path id="path11727" d="m1.0583291 287.73957s2.9104099-.52919 7.4083299-.52919 7.40834.52919 7.40834.52919c.14621.0104.26458.118.26458.26458v.52917c0 .14658-.118.26458-.26458.26458 0 0-2.91042-.52918-7.40834-.52918s-7.4083299.52918-7.4083299.52918c-.14620997.0104-.26457997-.118-.26457997-.26458v-.52917c0-.14658.118-.26458.26457997-.26458z" fill="#ffbc42"/><path id="path13513-7" d="m9.132259 292.83898c.10079.34099.29313.62586.57826.7953s.63866.22056 1.05265.18914c2.66693-.2022 3.88807-.92003 4.18579-1.09192.58297-.33658.92548-.79976.92553-1.279l.00025-2.39003c.28884 0 .52942-.24059.52942-.52917v-.52917c0-.37532-.30421-.52962-.64027-.54881l-1.5043-3.00912c-.12766-.25532-.24734-.5342-.43718-.77256-.18984-.23835-.48435-.43201-.85783-.43201h-1.05833c-.35811-.005-.35811.53454 0 .52917h1.05833c.21285 0 .31671.0728.4439.23255.1272.1597.24322.41046.37776.67954l1.33893 2.67736c-1.1367-.15561-3.48797-.41445-6.65851-.41445-3.1516199 0-5.5049898.25696-6.6579899.41393l1.3384201-2.67684c.1345499-.26908.25057-.51984.37776-.67954.1271899-.15971.23105-.23255.4438999-.23255h1.0583299c.3581101.005.3581101-.53454 0-.52917h-1.0583299c-.37348 0-.6679899.19366-.85783.43202-.1898399.23836-.3095098.51724-.43718.77256l-1.50379 3.00809c-.47725997.014-.64078997.30811-.64078997.54983v.52917c0 .28902.23051.55277.55500997.52865 0 0 2.9053201-.52917 7.3824899-.52917 1.55711 0 2.92288.0637 4.04162.14676.35941.0352.39993-.5092.0393-.52761-1.13053-.0839-2.50935-.14831-4.08089-.14831-4.46586 0-7.3406499.51491-7.4083299.5271v-.52374s2.93116-.53201 7.4083299-.53201c4.47716 0 7.4073.53124 7.4073.53124l.001.52505c-.034-.006-.84177-.15231-2.30373-.29198-.36106-.0457-.413321.50336-.0501.52659.881711.0842 1.44205.16035 1.823661.21755v2.4691c0 .20731-.18455.54567-.65991.82011-.31579.18233-1.373351.82752-3.961001 1.02371-.34648.0263-.584669-.0225-.74414-.11731-.15945-.0948-.266-.23789-.34003-.48834l-.38447-1.29863c-.124125-.41928-.298765-.74207-.789095-.74207s-.67335.35163-.7891.74207l-.38499 1.29863c-.074.25045-.18005.39358-.33951.48834-.15946.0948-.39559.1436-.74207.11731-2.587645-.19619-3.6452149-.84138-3.9610049-1.02371-.47539-.27446-.662-.61282-.662-.82013v-1.59577c0-.35312-.5296799-.35312-.5296799 0v1.59577c0 .47923.34307.94241.9260399 1.27899.29773.17189 1.5183301.88973 4.1852699 1.09193.41398.0314.76959-.0197 1.05471-.18914.28515-.16944.47541-.45431.5762-.7953l.39377-1.33196c.0464-.15711.10127-.32789.27234-.32789.17106 0 .22884.17981.27259.32789z" font-variant-ligatures="normal" font-variant-position="normal" font-variant-caps="normal" font-variant-numeric="normal" font-variant-alternates="normal" font-feature-settings="normal" text-indent="0" text-align="start" text-decoration-line="none" text-decoration-style="solid" text-decoration-color="#000000" text-transform="none" text-orientation="mixed" white-space="normal" shape-padding="0" isolation="auto" mix-blend-mode="normal" solid-color="#000000" solid-opacity="1" vector-effect="none"/></g></svg>