<svg id="svg14514" height="512" viewBox="0 0 16.933333 16.933334" width="512" xmlns="http://www.w3.org/2000/svg" xmlns:svg="http://www.w3.org/2000/svg"><g id="layer1" transform="translate(0 -280.067)"><path id="path10917" d="m16.139575 291.97286c-.00001 1.169-.94766 2.11666-2.11667 2.11666-1.169 0-2.11666-.94766-2.11666-2.11666s.94766-2.11666 2.11666-2.11666c1.16901 0 2.11666.94766 2.11667 2.11666z" fill="#33658a"/><path id="path10919" d="m15.081245 291.97286c0 .5845-.47384 1.05834-1.05834 1.05834-.58451 0-1.05835-.47384-1.05833-1.05834 0-.58451.47382-1.05833 1.05833-1.05833.5845 0 1.05832.47382 1.05834 1.05833z" fill="#dbe9ee"/><path id="path11695" d="m4.7624846 285.62287h10.0541704l-3.17499 4.49792-6.0854304-1.05834z" fill="#ffbc42"/><path id="path11697" d="m4.2333245 284.56453h11.1125005v1.05834h-11.1125005z" fill="#e8ab3c"/><path id="path12695-6" d="m4.4178145 288.49556c-.12774-.12746-.1965399-.29604-.2599298-.54106l-1.0908702-4.21989c-.1638099-.6337-.4870699-1.02216-1.2159199-1.02216l-1.05631003.00001c-.36048-.008-.36048.53695 0 .52916h1.05626003c.48038 0 .61401.27871.70024.61211l1.0950499 4.23358c.0712.27541.16885.55588.3963601.7829.22751.22702.56309.37526 1.0428299.45321l.20722.0336v3.144c0 .43516.35692.7953.79272.7953.4390901 0 .6110701-.33774.76946-.68575l1.2712401-2.79311 3.4065104.55294 2.32854 1.81074c.28194.26115.64623-.20656.32401-.41599l-.58704-.45734c.12288-.0789.26631-.12867.42473-.12867.44151 0 .79374.35221.79375.79375 0 .4415-.35224.79375-.79375.79375-.27261 0-.5098-.13559-.65319-.34261-.20082-.29026-.63593.011-.43512.30127.23866.34458.63911.57051 1.08831.57051.72749 0 1.32291-.59543 1.32291-1.32292-.00002-.7275-.59542-1.32291-1.32291-1.32291-.3274 0-.62817.12093-.8599.31936l-.42271-.32918c.33267-.32068.78235-.51935 1.28261-.51935 1.02602 0 1.85207.82606 1.85208 1.85208-.00001 1.02601-.82606 1.85209-1.85208 1.85209-1.02601 0-1.85209-.82609-1.85209-1.85209 0-.0822.005-.1632.0155-.24236.0589-.35985-.48943-.43116-.52452-.0682-.0133.10177-.0202.20543-.0202.31057 0 1.31199 1.069261 2.38125 2.381251 2.38125 1.311999 0 2.381239-1.06927 2.38125-2.38125-.000011-1.31199-1.069251-2.38125-2.38125-2.38125-.667061 0-1.272591.27573-1.705321.71934l-.314708-.24495 2.94969-4.17804h.39274c.14693.00053.26618-.11869.26562-.26561v-1.05885c-.000529-.14612-.1195-.26411-.26562-.26355h-11.1114625c-.1461199-.00053-.2650401.11743-.26562.26355v1.05885c-.0005292.14692.1186899.26617.26562.26561h7.9375005c.34494-.008.34494-.52142 0-.52916h-7.6734406v-.52969h10.5838506v.52969h-1.85156c-.34495.008-.34495.52142 0 .52916h1.0759l-2.78536 3.94447-5.7298803-.92966-.52607-2.281c-.0271-.12599-.1409901-.21415-.2697501-.20877-.1671101.007-.2859601.16522-.24598.32763l.47181 2.06808c-.4428601-.072-.6753201-.1857-.8030501-.31316zm1.40198.94724 1.7642301.28628-1.2092199 2.66289c-.0816.17965-.16583.37465-.2893902.37465-.1530098 0-.26562-.11447-.26562-.26561z" font-variant-ligatures="normal" font-variant-position="normal" font-variant-caps="normal" font-variant-numeric="normal" font-variant-alternates="normal" font-feature-settings="normal" text-indent="0" text-align="start" text-decoration-line="none" text-decoration-style="solid" text-decoration-color="#000000" text-transform="none" text-orientation="mixed" white-space="normal" shape-padding="0" isolation="auto" mix-blend-mode="normal" solid-color="#000000" solid-opacity="1" vector-effect="none"/></g></svg>