<svg id="Layer_1" enable-background="new 0 0 512 512" height="512" viewBox="0 0 512 512" width="512" xmlns="http://www.w3.org/2000/svg"><g><path d="m509.657 398.343-25.061-25.061c-13.887-13.887-23.262-31.406-27.114-50.663l-6.856-34.281c-2.357-11.784-12.792-20.338-24.81-20.338h-.514c-13.952 0-25.302 11.35-25.302 25.302v30.698h-36.671c-8.673-21.357-28.523-36.568-51.329-39.487v-58.004c0-16.822-13.687-30.509-30.509-30.509h-17.491v-39.213c0-8.688 3.383-16.856 9.527-23l4.13-4.13c3.125-3.124 3.125-8.189 0-11.313-3.124-3.124-8.189-3.124-11.313 0l-4.13 4.13c-9.166 9.165-14.214 21.351-14.214 34.313v39.213h-48v-8-40-1.302c0-25.75-20.949-46.698-46.698-46.698h-57.075c-22.182 0-40.227 18.046-40.227 40.227v144.291c-31.525 3.951-56 30.904-56 63.482 0 35.29 28.71 64 64 64h240c26.074 0 49.656-16.178 59.329-40h36.671v14.887c0 13.848 11.266 25.113 25.113 25.113h78.887c3.236 0 6.153-1.949 7.391-4.938s.554-6.43-1.734-8.719zm-164.099-74.343h-83.116c8.454-14.528 24.276-24 41.558-24s33.104 9.472 41.558 24zm-64.067-112c8 0 14.509 6.509 14.509 14.509v57.491h-96v-32-40zm-161.868-32c-4.203 0-7.623-3.419-7.623-7.623v-8.755c0-4.203 3.419-7.623 7.623-7.623h64.377v24h-56-8.377zm-47.623-39.773c0-13.359 10.868-24.227 24.227-24.227h57.075c14.626 0 26.888 10.285 29.953 24h-63.633c-13.025 0-23.622 10.597-23.622 23.623v8.755c0 13.025 10.597 23.622 23.623 23.622h8.377 56v8 48 32h-112zm-56 207.773c0-26.467 21.533-48 48-48s48 21.533 48 48-21.533 48-48 48-48-21.533-48-48zm90.264 48c13.314-11.737 21.736-28.898 21.736-48s-8.422-36.263-21.736-48h85.736 69.788c-7.391 6.477-13.322 14.652-17.117 24h-68.671c-13.234 0-24 10.766-24 24s10.766 24 24 24h68.671c3.796 9.348 9.726 17.523 17.117 24zm197.736 0c-17.282 0-33.104-9.472-41.558-24h83.116c-8.454 14.528-24.276 24-41.558 24zm53.629-40c-.027 0-.054 0-.081 0h-107.116c-.01 0-.019 0-.029 0h-74.403c-4.411 0-8-3.589-8-8s3.589-8 8-8h74.38.065 107.207c.008 0 .016.002.024.002.009 0 .018-.002.027-.002h42.297v16zm67.484 40c-5.025 0-9.113-4.088-9.113-9.113v-22.887-32-38.698c0-5.129 4.173-9.302 9.302-9.302h.514c4.418 0 8.254 3.145 9.121 7.478l6.856 34.28c4.473 22.365 15.362 42.711 31.49 58.838l11.404 11.404z"/><path d="m52.68 325.366c-3.128-3.121-8.193-3.114-11.314.013-6.04 6.055-9.366 14.088-9.366 22.621s3.326 16.566 9.366 22.621c1.563 1.566 3.613 2.35 5.664 2.35 2.044 0 4.089-.779 5.65-2.336 3.127-3.121 3.134-8.186.013-11.314-3.026-3.035-4.693-7.055-4.693-11.321s1.667-8.286 4.693-11.32c3.121-3.128 3.115-8.193-.013-11.314z"/><path d="m75.32 370.634c1.562 1.558 3.606 2.336 5.65 2.336 2.05 0 4.101-.784 5.664-2.35 6.04-6.053 9.366-14.087 9.366-22.62s-3.326-16.566-9.366-22.621c-3.122-3.128-8.187-3.134-11.314-.013s-3.134 8.186-.013 11.314c3.026 3.034 4.693 7.054 4.693 11.32s-1.667 8.286-4.693 11.32c-3.121 3.128-3.115 8.193.013 11.314z"/></g></svg>