<svg id="Layer_1" enable-background="new 0 0 512.001 512.001" height="512" viewBox="0 0 512.001 512.001" width="512" xmlns="http://www.w3.org/2000/svg"><g><path d="m511.633 289.567c.409-2.298.479-4.634.201-6.971-.039-.325-.098-.648-.176-.968l-56.444-229.075c-1.111-7.879-6.043-14.556-13.281-17.932-7.402-3.453-15.896-2.837-22.723 1.643l-9.08 5.96c-2.285 1.5-3.646 4.062-3.61 6.795l.045 3.401-207.962 114.039c-13.134 7.205-24.639 17.479-33.268 29.71l-70.19 99.424h-65.485c-16.354 0-29.66 13.306-29.66 29.66v28.68c0 16.354 13.306 29.66 29.66 29.66h74.34v16h-64c-22.056 0-40 17.944-40 40s17.944 40 40 40h208c22.056 0 40-17.944 40-40s-17.944-40-40-40h-64v-16h96c4.418 0 8-3.582 8-8v-40-33.711c0-2.899-.411-5.776-1.19-8.552-.019-.064-.037-.129-.058-.193-.696-2.424-1.668-4.771-2.927-6.974l-15.043-26.325c-.037-.069-.077-.135-.116-.203l-9.412-16.471c-4.078-7.137-11.719-11.571-19.94-11.571h-2.889c6.686-12.268 16.392-22.708 28.146-30.232l142.762-91.364.426 31.905c.175 12.875 2.892 25.393 8.076 37.209l48.519 110.4c.229 1.31.571 2.598 1.009 3.85-2.61 2.992-6.097 5.168-10.096 6.168l-3.695.924c-6.242 1.561-12.771.241-17.918-3.619l-20.854-15.642c-2.424-1.818-5.667-2.112-8.377-.755-2.71 1.355-4.422 4.125-4.422 7.155v40.604c0 21.724 17.673 39.396 39.396 39.396h33.208c21.723 0 39.396-17.673 39.396-39.396v-34.656c-.001-1.357-.131-2.683-.368-3.973zm-295.611 126.026c-5.034 6.69-8.022 15.002-8.022 24s2.988 17.31 8.022 24h-144.044c5.034-6.69 8.022-15.002 8.022-24s-2.988-17.31-8.022-24h40.022 64zm-200.022 24c0-13.233 10.767-24 24-24s24 10.767 24 24-10.767 24-24 24-24-10.767-24-24zm256 0c0 13.233-10.767 24-24 24s-24-10.767-24-24 10.767-24 24-24 24 10.766 24 24zm-104-40h-48v-16h48zm104-32h-96-64-82.34c-7.532 0-13.66-6.128-13.66-13.66v-28.68c0-7.532 6.128-13.66 13.66-13.66h69.61c.004 0 .009.001.013.001.006 0 .011-.001.017-.001h25.387l29.657 29.657c1.5 1.5 3.535 2.343 5.657 2.343h8 104v24zm-64-88c0-2.14.833-4.154 2.327-5.653.752-.75 1.627-1.331 2.577-1.729.035-.015.072-.026.107-.042.939-.376 1.948-.577 2.989-.577h41.072l9.143 16h-50.215c-4.411.001-8-3.588-8-7.999zm37.363-28.49 2.566 4.49h-31.929c-6.403 0-12.428 2.49-16.987 7.033-4.522 4.538-7.013 10.564-7.013 16.967 0 1.673.173 3.306.501 4.884.021.106.048.21.073.315 2.383 10.741 11.978 18.801 23.426 18.801h56v24h-96v-73.034c0-3.841 3.125-6.966 6.966-6.966h40.153c.008 0 .016.001.025.001.007 0 .014-.001.022-.001h16.15c2.493 0 4.81 1.345 6.047 3.51zm10.584-63.218c-14.41 9.223-26.248 22.111-34.235 37.271l-3.39 6.438h-35.355c-12.664 0-22.966 10.302-22.966 22.966v69.721l-26.343-26.344c-1.5-1.5-3.535-2.343-5.657-2.343h-13.269l63.676-90.198c7.235-10.254 16.879-18.867 27.89-24.907l200.51-109.953.275 20.625zm174.539-15.206c-4.318-9.842-6.581-20.271-6.728-30.993l-1.128-84.578c0-.02-.001-.041-.001-.061l-.051-3.854 5.411-3.552c3.109-2.041 6.058-1.043 7.181-.519 1.125.524 3.788 2.145 4.225 5.847.039.33.098.656.177.978l53.176 215.817c-.884-.109-1.783-.171-2.696-.171-5.208 0-10.078 1.835-13.909 4.975zm65.514 155.517c0 12.9-10.496 23.396-23.396 23.396h-33.208c-12.9 0-23.396-10.496-23.396-23.396v-24.604l8.056 6.041c9.018 6.764 20.461 9.075 31.399 6.341l3.695-.924c11.929-2.981 21.373-11.726 25.261-23.391.811-2.433 3.078-4.067 5.642-4.067 3.279 0 5.947 2.668 5.947 5.947z"/><path d="m96 439.593c0 4.418 3.582 8 8 8h80c4.418 0 8-3.582 8-8s-3.582-8-8-8h-80c-4.418 0-8 3.582-8 8z"/></g></svg>