<svg id="Layer_1" enable-background="new 0 0 512 512" height="512" viewBox="0 0 512 512" width="512" xmlns="http://www.w3.org/2000/svg"><g><path d="m504 368h-80v-184c0-13.233-10.767-24-24-24s-24 10.767-24 24v146.815c-10.17-12.58-24.479-21.674-40.841-25.195l-81.607-191.458c-9.558-30.022-37.09-50.162-68.642-50.162h-48.16c-40.114 0-72.75 32.636-72.75 72.75v135.25h-32.65c-17.287 0-31.35 14.063-31.35 31.35v96.65c0 4.418 3.582 8 8 8h10.341c6.903 23.105 28.339 40 53.659 40s46.756-16.895 53.659-40h129.869c11.803 23.684 36.262 40 64.472 40 36.996 0 67.551-28.052 71.545-64h24.455 88c4.418 0 8-3.582 8-8s-3.582-8-8-8zm-424-231.25c0-31.292 25.458-56.75 56.75-56.75h48.16c24.651 0 46.148 15.803 53.493 39.324.08.255.173.506.277.752l78.426 183.997c-15.978.636-30.629 6.498-42.292 15.927h-4.138l-13.091-72h6.415c4.418 0 8-3.582 8-8s-3.582-8-8-8h-15.811c-.005 0-.01 0-.015 0h-16.174c-4.418 0-8 3.582-8 8s3.582 8 8 8h9.323l13.091 72h-14.414v-12.623c0-15.096-12.281-27.377-27.377-27.377h-37.846l-6.886-41.315c-.727-4.359-4.843-7.303-9.207-6.576-4.358.727-7.302 4.848-6.576 9.206l7.892 47.35v31.335h-11.719l-22.693-34.035c-5.825-8.745-15.578-13.965-26.088-13.965h-19.5zm144 183.25h-48v-24h36.623c6.273 0 11.377 5.104 11.377 11.377zm-152 112c-22.056 0-40-17.944-40-40s17.944-40 40-40 40 17.944 40 40-17.944 40-40 40zm56-40c0-30.878-25.121-56-56-56s-56 25.122-56 56v-88.65c0-8.464 6.886-15.35 15.35-15.35h68.15c5.146 0 9.921 2.555 12.773 6.838l25.07 37.6c1.484 2.226 3.981 3.562 6.656 3.562h24 64 28.167c-7.678 11.449-12.166 25.209-12.166 40 0 5.5.641 10.85 1.814 16zm192 40c-30.879 0-56-25.122-56-56s25.121-56 56-56 56 25.122 56 56-25.121 56-56 56zm72-248c0-4.411 3.589-8 8-8s8 3.589 8 8v184h-16z"/><path d="m320 344c-17.645 0-32 14.355-32 32s14.355 32 32 32 32-14.355 32-32-14.355-32-32-32zm0 48c-8.822 0-16-7.178-16-16s7.178-16 16-16 16 7.178 16 16-7.178 16-16 16z"/><path d="m72 368c-13.233 0-24 10.766-24 24s10.767 24 24 24 24-10.766 24-24-10.767-24-24-24zm0 32c-4.411 0-8-3.589-8-8s3.589-8 8-8 8 3.589 8 8-3.589 8-8 8z"/></g></svg>