<svg id="Layer_1" enable-background="new 0 0 512 512" height="512" viewBox="0 0 512 512" width="512" xmlns="http://www.w3.org/2000/svg"><path d="m118.648 88.227c-.012.005-48.033 19.924-48.033 19.924l.376-2.769c.606-4.469-2.526-8.584-6.995-9.189-4.475-.61-8.583 2.525-9.19 6.994l-1.657 12.211-39.33 16.316c-2.683 1.113-4.572 3.567-4.963 6.445l-8.782 64.738c-.39 2.878.778 5.747 3.067 7.534l33.562 26.204-1.657 12.212c-.606 4.469 2.526 8.584 6.995 9.189.373.051.742.076 1.108.076 4.022 0 7.526-2.974 8.083-7.07l.376-2.77 35.742 27.905v25.708h-24.501c-2.166 0-4.242.861-5.775 2.392l-30.273 30.274h-12.948c-4.51 0-8.166 3.656-8.166 8.166v32.665c0 4.51 3.656 8.166 8.166 8.166h41.525c3.9 23.142 24.069 40.832 48.305 40.832s44.404-17.689 48.305-40.832h17.72c3.9 23.142 24.069 40.832 48.305 40.832s44.404-17.689 48.305-40.832h98.689 33.358c3.9 23.142 24.069 40.832 48.305 40.832s44.404-17.689 48.305-40.832h8.859c4.51 0 8.166-3.656 8.166-8.166v-106.163c-.001-.644-.078-1.283-.227-1.908l-13.637-56.887c-.008-.038-.018-.074-.027-.11l-5.14-21.44c-.146-.604-.359-1.191-.637-1.747-4.906-9.812-14.769-15.907-25.74-15.907h-78.375c-17.302 0-31.379 14.077-31.379 31.379v131.948h-44.915l-22.049-29.399c-1.542-2.057-3.964-3.267-6.533-3.267h-32.665v-18.217l45.664-34.757c1.723-1.312 2.855-3.254 3.146-5.401l8.782-64.738c.291-2.147-.282-4.32-1.594-6.043l-34.973-45.95c-1.565-1.798-3.065-2.558-4.579-2.993h-.001l-143.399-35.922c-1.73-.448-3.419-.29-5.074.367zm372.872 164.657h-46.679c-7.998 0-14.505-6.508-14.505-14.505v-3.654c0-7.998 6.508-14.505 14.505-14.505h38.848zm-362.915-146.965 127.524 31.949-17.792 131.175-131.427-3.176zm155.152 132.041-27.569 20.983 14.457-106.587 20.983 27.57zm-266.868-37.517 7.52-55.442 26.198-10.868-11.362 83.765zm51.184-73.557 43.661-18.114-20.325 149.852-37.259-29.091zm35.61 155.241 130.661 3.157v16.599h-130.661zm-81.663 68.753h8.166c2.166 0 4.242-.861 5.775-2.392l30.273-30.274h29.283 146.994 36.749l22.049 29.399c1.542 2.057 3.964 3.267 6.533 3.267h48.998v16.333h-90.523c-3.9-23.142-24.069-40.832-48.305-40.832s-44.404 17.689-48.305 40.832h-17.72c-3.9-23.142-24.069-40.832-48.305-40.832s-44.404 17.689-48.305 40.832h-33.357zm81.663 57.164c-18.012 0-32.665-14.653-32.665-32.665s14.653-32.665 32.665-32.665 32.665 14.654 32.665 32.665-14.654 32.665-32.665 32.665zm114.329 0c-18.012 0-32.665-14.653-32.665-32.665s14.653-32.665 32.665-32.665 32.665 14.654 32.665 32.665-14.654 32.665-32.665 32.665zm228.657 0c-18.012 0-32.665-14.653-32.665-32.665s14.654-32.665 32.665-32.665 32.665 14.654 32.665 32.665-14.654 32.665-32.665 32.665zm48.998-40.831h-.693c-3.9-23.142-24.069-40.832-48.305-40.832s-44.404 17.689-48.305 40.832h-25.192v-24.499-140.114c0-8.297 6.749-15.046 15.046-15.046h78.375c4.47 0 8.513 2.339 10.74 6.155l2.44 10.177h-34.933c-17.004 0-30.838 13.834-30.838 30.838v3.654c0 17.004 13.834 30.838 30.838 30.838h50.594l.232.967v97.029h.001z"/></svg>