<svg id="Layer_1" enable-background="new 0 0 512 512" height="512" viewBox="0 0 512 512" width="512" xmlns="http://www.w3.org/2000/svg"><g><path d="m96 316c-26.468 0-48 21.533-48 48s21.532 48 48 48 48-21.533 48-48-21.532-48-48-48zm0 80c-17.645 0-32-14.355-32-32s14.355-32 32-32 32 14.355 32 32-14.355 32-32 32z"/><path d="m504 316h-15.999c-16.037-38.503-53.907-64-96.001-64s-79.964 25.497-96.001 64h-20.129v-56h36.13c4.418 0 8-3.582 8-8v-80c0-.252-.014-.503-.038-.753-.009-.096-.024-.189-.037-.284-.02-.149-.04-.298-.068-.447-.021-.114-.048-.227-.074-.339-.029-.125-.061-.25-.096-.373-.034-.119-.07-.236-.109-.353-.016-.047-.027-.095-.044-.142l-35.56-99.566c-3.79-10.613-13.908-17.743-25.177-17.743h-88.061c-14.742 0-26.736 11.994-26.736 26.736v125.264h-40v-18.434c0-21.203-8.257-41.137-23.25-56.13l-3.094-3.093c-3.125-3.124-8.19-3.124-11.313.001-3.124 3.125-3.124 8.189.001 11.313l3.093 3.093c11.97 11.971 18.563 27.887 18.563 44.816v18.434h-22.73c-29.781 0-54.01 24.229-54.01 54.01v60.919c-7.181 13.448-11.26 28.791-11.26 45.071 0 52.935 43.065 96 96 96 50.24 0 91.585-38.795 95.664-88h20.191c7.26 14.379 23.883 24 42.546 24h41.598c16.037 38.503 53.907 64 96.001 64s79.964-25.497 96.001-64h15.999c4.418 0 8-3.582 8-8v-64c0-4.418-3.582-8-8-8zm-112-48c33.328 0 63.525 18.887 78.39 48h-156.78c14.865-29.113 45.062-48 78.39-48zm-232-24v-64h144v64zm117.79-144 22.858 64h-52.648v-64zm-45.79 64h-72v-64h72zm-61.264-96h88.061c4.524 0 8.588 2.863 10.109 7.125l3.17 8.875h-112.076v-5.264c0-5.92 4.816-10.736 10.736-10.736zm-74.736 376c-44.112 0-80-35.888-80-80s35.888-80 80-80 80 35.888 80 80-35.888 80-80 80zm95.664-88c-4.079-49.205-45.423-88-95.664-88-26.924 0-51.291 11.146-68.74 29.061v-39.051c0-20.958 17.051-38.01 38.01-38.01h78.73v32c0 4.418 3.582 8 8 8h107.87v56h-5.47c-12.122 0-23.583 3.986-32.271 11.224-9.111 7.59-14.129 17.81-14.129 28.776zm200.336 88c-33.328 0-63.525-18.887-78.39-48h156.78c-14.865 29.113-45.062 48-78.39 48zm104-64h-241.6c-14.056 0-26.203-7.546-29.543-18.35-.004-.014-.008-.027-.012-.041-.56-1.827-.845-3.714-.845-5.609 0-6.133 2.973-11.986 8.37-16.483 5.819-4.847 13.643-7.517 22.03-7.517h228.105c.009 0 .017.002.025.002.015 0 .031-.002.047-.002h13.423z"/></g></svg>