<svg id="Layer_1" enable-background="new 0 0 512 512" height="512" viewBox="0 0 512 512" width="512" xmlns="http://www.w3.org/2000/svg"><path d="m509.997 170.706c-1.518-1.721-3.702-2.706-5.997-2.706h-42.849c-16.074 0-29.151 13.077-29.151 29.151v34.849h-16.367c-4.056-44.788-41.806-80-87.633-80-18.084 0-35.458 5.445-50.243 15.747-13.454 9.375-23.912 22.13-30.417 37.048l-28.7 11.205h-106.64c-2.469 0-4.8 1.14-6.315 3.089l-35.765 45.989c-13.197 2.837-24.712 11.269-31.465 22.922h-30.455c-4.418 0-8 3.582-8 8v24c0 4.418 3.582 8 8 8h26.741c6.685 18.88 24.77 32 45.259 32 20.483 0 38.564-13.114 45.256-32h98.744c1.359 0 2.696-.347 3.885-1.007l72-40c2.54-1.411 4.115-4.088 4.115-6.993v-56c0-.784-.118-1.539-.328-2.255.035-.211.067-.422.096-.633 7.556-8.247 19.416-13.112 32.232-13.112 18.604 0 34.282 10.214 38.734 24h-6.734c-4.418 0-8 3.582-8 8v64c0 4.418 3.582 8 8 8h8.679c3.821 22.671 23.579 40 47.321 40s43.5-17.329 47.321-40h24.679c4.418 0 8-3.582 8-8v-63.5l3.938-31.508 4-32c.285-2.276-.422-4.566-1.941-6.286zm-21.059 61.294h-8.938v-14.812c0-.655.533-1.188 1.188-1.188h9.749zm-40.938-34.849c0-7.252 5.899-13.151 13.151-13.151h33.786l-2 16h-11.749c-9.478 0-17.188 7.711-17.188 17.188v14.812h-16zm-160.634 23.769c-.837 2.008-2.421 3.551-4.466 4.348l-161.216 62.938c-2.827-4.926-6.52-9.304-10.845-12.943l112.263-43.828c.072-.029.146-.054.217-.085l32.798-12.804c.074-.026.148-.054.222-.083l20.748-8.099c1.99-.776 4.165-.73 6.122.128s3.463 2.427 4.245 4.433c.362.923.546 1.894.546 2.929-.005 1.048-.214 2.071-.634 3.066zm-171.453 11.08h61.744l-85.783 33.491c-.562-.144-1.127-.277-1.694-.4zm-99.913 80v-8h16.674c-.441 2.624-.674 5.293-.674 8zm64 32c-15.158 0-28.348-10.764-31.356-25.573-.001-.005-.002-.01-.003-.015-.002-.01-.003-.021-.005-.03-.421-2.115-.636-4.261-.636-6.382 0-4.453.896-8.755 2.674-12.803 4.407-10.112 13.91-17.345 24.849-18.882 1.423-.208 2.93-.315 4.477-.315 3.37 0 6.669.515 9.805 1.53.03.01.061.019.091.028.004.001.008.002.011.003.036.011.071.022.107.033 9.263 3.047 16.762 10.326 20.085 19.511 1.261 3.482 1.901 7.148 1.901 10.895 0 2.125-.215 4.276-.634 6.375-.003.013-.005.026-.007.04-3.016 14.825-16.203 25.585-31.359 25.585zm141.927-32h-93.927c0-2.962-.276-5.892-.808-8.769l160.808-62.779v34.841zm114.073-120c-13.623 0-26.565 4.236-36.615 11.672-6.238-8.547-17.661-12.221-27.987-8.26 13.376-17.095 33.959-27.412 56.602-27.412 36.997 0 67.565 28.051 71.559 64h-8.336c-4.457-22.673-27.524-40-55.223-40zm88 144c-17.645 0-32-14.355-32-32s14.355-32 32-32 32 14.355 32 32-14.355 32-32 32zm64-40h-16.679c-3.821-22.671-23.579-40-47.321-40s-43.5 17.329-47.321 40h-.679v-48h8 24 32 32 16z"/></svg>