<svg id="Layer_1" enable-background="new 0 0 512 512" height="512" viewBox="0 0 512 512" width="512" xmlns="http://www.w3.org/2000/svg"><g><path d="m511.779 284.323-13.359-55.728c-.007-.037-.018-.072-.026-.108l-5.035-21.003c-.143-.592-.352-1.167-.624-1.711-4.806-9.612-14.468-15.583-25.216-15.583h-76.779c-16.95 0-30.74 13.79-30.74 30.74v129.26h-64v-24h11.585c20.079 0 36.415-16.336 36.415-36.415v-175.17c0-20.079-16.336-36.415-36.415-36.415h-271.17c-20.079-.001-36.415 16.335-36.415 36.414v175.17c0 18.584 13.997 33.951 32 36.138v24.277h-8c-4.418 0-8 3.582-8 8v32c0 4.418 3.582 8 8 8h65.627c5.474 20.486 24.185 35.621 46.373 35.621s40.899-15.135 46.373-35.621h185.627 25.627c5.474 20.486 24.185 35.621 46.373 35.621s40.899-15.135 46.373-35.621h17.627c4.418 0 8-3.582 8-8v-104c0-.628-.074-1.255-.221-1.866zm-19.841-14.134h-45.728c-7.835 0-14.21-6.375-14.21-14.21v-3.58c0-7.835 6.375-14.21 14.21-14.21h38.057zm-475.938 19.585v-175.17c0-11.257 9.158-20.415 20.415-20.415h271.17c11.257 0 20.415 9.158 20.415 20.415v175.17c0 11.257-9.158 20.415-20.415 20.415h-19.585-248-3.585c-11.257 0-20.415-9.158-20.415-20.415zm16 76.415h8c4.418 0 8-3.582 8-8v-32h232v32c0 4.418 3.582 8 8 8h72v16h-176.151c-1.859-24.78-22.601-44.379-47.849-44.379s-45.99 19.599-47.849 44.379h-56.151zm104 51.622c-17.645 0-32-14.355-32-32s14.355-32 32-32 32 14.355 32 32-14.355 32-32 32zm304 0c-17.645 0-32-14.355-32-32s14.355-32 32-32 32 14.355 32 32-14.355 32-32 32zm56-35.622h-8.151c-1.859-24.78-22.601-44.379-47.849-44.379s-45.99 19.599-47.849 44.379h-16.151v-24-137.259c0-8.128 6.612-14.74 14.74-14.74h76.779c4.379 0 8.34 2.291 10.521 6.03l2.39 9.97h-34.22c-16.658 0-30.21 13.552-30.21 30.21v3.58c0 16.658 13.552 30.21 30.21 30.21h49.563l.227.947z"/><path d="m64 150.189h216c4.418 0 8-3.582 8-8s-3.582-8-8-8h-216c-4.418 0-8 3.582-8 8s3.582 8 8 8z"/><path d="m64 198.189h216c4.418 0 8-3.582 8-8s-3.582-8-8-8h-216c-4.418 0-8 3.582-8 8s3.582 8 8 8z"/><path d="m64 246.189h216c4.418 0 8-3.582 8-8s-3.582-8-8-8h-216c-4.418 0-8 3.582-8 8s3.582 8 8 8z"/></g></svg>