<svg id="Layer_1" enable-background="new 0 0 512 512" height="512" viewBox="0 0 512 512" width="512" xmlns="http://www.w3.org/2000/svg"><path d="m489.792 325.203-34.948-14.978-12.423-51.824c-.007-.035-.017-.069-.025-.104l-5.035-21.005c-.142-.593-.352-1.167-.625-1.713-4.805-9.612-14.467-15.583-25.215-15.583h-76.78c-16.95 0-30.74 13.79-30.74 30.74v129.26h-69.194l-20-16h25.193c4.418 0 8-3.582 8-8v-32c0-4.418-3.582-8-8-8h-16v-56.15-3.993l125.333-68.416c3.877-2.117 5.305-6.975 3.19-10.853l77.24-42.167c3.877-2.117 5.305-6.976 3.189-10.854l-.001-.001 39.049-21.314v31.124c-9.311 3.303-16 12.195-16 22.624 0 13.234 10.766 24 24 24s24-10.766 24-24c0-4.418-3.582-8-8-8s-8 3.582-8 8c0 4.411-3.589 8-8 8s-8-3.589-8-8 3.589-8 8-8c4.418 0 8-3.582 8-8v-46.482l8.145-4.446c.001 0 .002-.001.003-.001 11.615-6.341 15.907-20.95 9.566-32.565s-20.949-15.908-32.565-9.566l-63.198 34.498c-1.016-1.862-2.73-3.244-4.765-3.841-2.035-.598-4.226-.364-6.089.653l-77.24 42.167-.006-.01c-2.117-3.877-6.977-5.304-10.854-3.187l-120.678 65.881c-1.502-1.937-3.826-3.099-6.319-3.099h-64c-4.418 0-8 3.582-8 8v37.853l-47.901 26.147h-56.099c-4.418 0-8 3.582-8 8v64c0 4.418 3.582 8 8 8h16v24c0 4.418 3.582 8 8 8h25.194l-20 16h-13.194c-4.418 0-8 3.582-8 8v32c0 4.418 3.582 8 8 8h64.679c3.821 22.671 23.58 40 47.321 40s43.499-17.329 47.321-40h128.679 80.679c3.821 22.671 23.58 40 47.321 40s43.499-17.329 47.321-40h16.679c4.418 0 8-3.582 8-8v-61.11c0-14.685-8.718-27.907-22.208-33.685zm-53.854-25.207h-45.728c-7.835 0-14.21-6.375-14.21-14.21v-3.58c0-7.835 6.375-14.21 14.21-14.21h38.057zm-227.938-53.875v4.98.055.69h-28.11c-6.556 0-11.89-5.334-11.89-11.96 0-6.556 5.334-11.89 11.89-11.89h17.753zm14.15-7.486-12.805-22.408c-.028-.052-.059-.102-.087-.153l-10.927-19.123 113.312-61.86 23.003 42.136zm269.52-174.468c2.113 3.872.683 8.741-3.189 10.855-.001.001-.003.002-.004.002l-12.256 6.69c-.024.013-.047.026-.07.039l-50.865 27.766-7.667-14.044 63.197-34.497c3.871-2.113 8.741-.683 10.854 3.189zm-91.93 31.956 5.426 9.937 9.907 18.149-70.217 38.333-15.333-28.086zm-220.383 99.873 9.143 16h-8.61c-15.379 0-27.89 12.511-27.89 27.96 0 15.379 12.511 27.89 27.89 27.89h28.11v48.15h-72-8v-85.394c0-.019 0-.037 0-.056v-34.55zm-67.357 48.081v7.919h-14.507zm-96 23.919h50.125c.007 0 .015.001.022.001.008 0 .016-.001.024-.001h45.829v48h-80-16zm24 64h80 16 80 16v16h-40-112-40zm-8 64h8c1.816 0 3.579-.618 4.998-1.753l37.809-30.247h106.388l37.809 30.247c1.418 1.135 3.181 1.753 4.998 1.753h72v16h-120.681c-3.821-22.671-23.58-40-47.321-40s-43.499 17.329-47.321 40h-56.679zm104 56c-17.645 0-32-14.355-32-32s14.355-32 32-32 32 14.355 32 32-14.355 32-32 32zm304 0c-17.645 0-32-14.355-32-32s14.355-32 32-32 32 14.355 32 32-14.355 32-32 32zm56-40h-8.679c-3.821-22.671-23.58-40-47.321-40s-43.499 17.329-47.321 40h-72.679v-24-137.26c0-8.128 6.612-14.74 14.74-14.74h76.78c4.378 0 8.339 2.291 10.521 6.029l2.39 9.971h-34.221c-16.658 0-30.21 13.552-30.21 30.21v3.58c0 16.658 13.552 30.21 30.21 30.21h49.563l.447 1.865c.589 2.458 2.305 4.493 4.628 5.488l38.642 16.561c7.6 3.255 12.51 10.703 12.51 18.976z"/></svg>