<svg id="Layer_1" enable-background="new 0 0 512 512" height="512" viewBox="0 0 512 512" width="512" xmlns="http://www.w3.org/2000/svg"><g><path d="m328 367.998c-17.645 0-32 14.355-32 32s14.355 32 32 32 32-14.355 32-32-14.355-32-32-32zm0 48c-8.822 0-16-7.178-16-16s7.178-16 16-16 16 7.178 16 16-7.178 16-16 16z"/><path d="m488 185.374v-9.376-64.972l1.508-.469c13.453-4.189 22.492-16.465 22.492-30.549 0-3.217-.488-6.418-1.452-9.519-5.246-16.843-23.22-26.281-40.066-21.04l-84.026 26.154c-1.316-4.215-5.797-6.563-10.014-5.254l-305.543 95.122c-12.762 3.978-22.522 14.028-26.342 26.527h-9.935c-19.09 0-34.622 15.533-34.622 34.623v77.377c0 4.418 3.582 8 8 8h16v88c0 4.418 3.582 8 8 8h16.518c3.951 31.525 30.903 56 63.482 56s59.531-24.475 63.482-56h89.036c3.951 31.525 30.903 56 63.482 56s59.531-24.475 63.482-56h24.518c4.418 0 8-3.582 8-8v-48c0-2.122-.843-4.156-2.343-5.657l-48-48c-1.5-1.5-3.535-2.343-5.657-2.343h-32v-56c0-.017-.003-.033-.003-.049-.001-.222-.025-.443-.045-.664-.012-.132-.013-.265-.031-.396-.033-.238-.09-.472-.145-.706-.026-.111-.04-.225-.071-.334-.073-.262-.171-.518-.271-.772-.031-.078-.05-.158-.083-.235-.141-.328-.304-.648-.49-.959l-28.8-48c0-.001-.001-.001-.001-.002l-5.981-9.969 100.141-31.174c2.026-.631 3.719-2.041 4.705-3.92s1.186-4.072.555-6.098l66.52-20.712v59.991 16c0 4.418 3.582 8 8 8 4.411 0 8 3.589 8 8s-3.589 8-8 8-8-3.589-8-8c0-4.418-3.582-8-8-8s-8 3.582-8 8c0 13.233 10.766 24 24 24s24-10.767 24-24c0-10.429-6.689-19.322-16-22.625zm-472 41.247c0-10.269 8.354-18.623 18.623-18.623h16.371c.006 0 .011.001.017.001.007 0 .014-.001.021-.001h32.688l29.625 44.438c1.483 2.226 3.981 3.563 6.656 3.563h56v40h-144.001-16zm160 13.377h-51.719l-4.066-6.098 55.785-17.363zm-64 208c-26.467 0-48-21.532-48-48s21.533-48 48-48 48 21.532 48 48-21.533 48-48 48zm216 0c-26.467 0-48-21.532-48-48s21.533-48 48-48 48 21.532 48 48-21.533 48-48 48zm80-92.686v36.687h-16.518c-3.951-31.525-30.903-56-63.482-56s-59.531 24.475-63.482 56h-89.036c-3.951-31.525-30.903-56-63.482-56s-59.531 24.475-63.482 56h-8.518v-80h144 144 36.686zm-216-59.314v-48-42.285c0-.03 0-.059 0-.089v-17.154c0-11.288 9.184-20.472 20.472-20.472h62.999l9.6 16h-29.071c-17.645 0-32 14.355-32 32s14.355 32 32 32h64v48zm121.871-64h-57.871c-8.822 0-16-7.178-16-16s7.178-16 16-16h38.671zm-22.266-68.207-4.745-7.909c-1.446-2.409-4.05-3.884-6.86-3.884h-67.528c-20.11 0-36.472 16.361-36.472 36.472v11.31l-65.036 20.243-16.308-24.461c-1.483-2.226-3.981-3.563-6.656-3.563h-26.162c2.947-5.284 7.831-9.385 13.82-11.251l297.902-92.743c.004.014.01.027.015.042l14.248 45.791v.001zm99.608-72.91 84.024-26.154c8.424-2.622 17.412 2.099 20.034 10.517.484 1.557.729 3.16.729 4.765 0 7.04-4.52 13.178-11.248 15.271l-7.093 2.208c-.025.007-.05.015-.075.023l-76.86 23.929z"/><path d="m240 327.998h-40c-4.418 0-8 3.582-8 8s3.582 8 8 8h40c4.418 0 8-3.582 8-8s-3.582-8-8-8z"/><path d="m240 359.998h-40c-4.418 0-8 3.582-8 8s3.582 8 8 8h40c4.418 0 8-3.582 8-8s-3.582-8-8-8z"/><path d="m112 367.998c-17.645 0-32 14.355-32 32s14.355 32 32 32 32-14.355 32-32-14.355-32-32-32zm0 48c-8.822 0-16-7.178-16-16s7.178-16 16-16 16 7.178 16 16-7.178 16-16 16z"/></g></svg>