<svg id="Layer_1" enable-background="new 0 0 512 512" height="512" viewBox="0 0 512 512" width="512" xmlns="http://www.w3.org/2000/svg"><g><path d="m508.325 181.27-55.054-35.381c-.044-.027-.088-.056-.133-.083-24.298-14.953-35.543-44.481-27.344-71.81l8.309-27.697c1.023-3.413-.333-7.092-3.328-9.022-2.997-1.933-6.906-1.648-9.592.693l-46.056 40.146c-20.088 17.511-27.872 44.338-20.315 70.013.884 3.004 1.962 5.902 3.208 8.689l-47.164 34.397c-13.389 9.763-23.311 23.217-28.694 38.912l-15.917 46.486c-14.912 2.915-26.245 16.133-26.245 31.838v7.795h-16v-8.245-40-16-8c0-1.119-.235-2.227-.689-3.249l-17.777-40c-.001-.002-.002-.004-.003-.006l-10.35-23.288c-3.633-8.175-11.761-13.457-20.707-13.457h-39.814c-12.495 0-22.66 10.165-22.66 22.66v17.34 48 8h-32v-17.373c0-16.729-6.515-32.455-18.343-44.284-3.125-3.123-8.189-3.123-11.314 0-3.124 3.125-3.124 8.189 0 11.314 8.806 8.806 13.657 20.515 13.657 32.97v17.373h-18.4c-25.144 0-45.6 20.456-45.6 45.6v82.21c0 13.339 10.852 24.19 24.19 24.19h24.265c3.994 35.948 34.549 64 71.545 64s67.551-28.052 71.545-64h2.705c16.404 0 29.75-13.346 29.75-29.75v-10.005h16v12.115c0 14.154 10.697 25.851 24.431 27.447 3.905 36.041 34.507 64.192 71.569 64.192 39.701 0 72-32.299 72-72 0-21.274-9.282-40.416-24-53.608v-8.212c0-13.957-6.781-27.134-18.14-35.249l-31.999-22.859c-5.118-3.657-10.869-6.118-16.938-7.286l8.627-25.185c3.974-11.609 11.139-21.789 20.725-29.44l41.93-33.504c6.316 3.2 13.231 5.416 20.565 6.482 3.922.571 7.938.861 11.936.861h83.294c3.55 0 6.676-2.34 7.676-5.746s-.364-7.064-3.351-8.984zm-380.325 78.731h80v8 32h-80zm0-48h24v32h-24zm65.023 0 11.378 25.6 2.844 6.4h-39.245v-32zm-58.363-32h39.813c2.629 0 5.019 1.553 6.086 3.955l5.353 12.045h-57.912v-9.34c0-3.673 2.987-6.66 6.66-6.66zm-14.66 280c-30.879 0-56-25.121-56-56s25.121-56 56-56 56 25.121 56 56-25.121 56-56 56zm88-77.75c0 7.582-6.168 13.75-13.75 13.75h-2.705c-3.994-35.948-34.549-64-71.545-64s-67.551 28.052-71.545 64h-24.265c-4.517 0-8.19-3.674-8.19-8.19v-82.211c0-16.321 13.278-29.6 29.6-29.6h66.4v32c0 4.418 3.582 8 8 8h88zm16-26.005v-24h16v24zm168 47.755c0 30.879-25.121 56-56 56s-56-25.121-56-56 25.121-56 56-56 56 25.121 56 56zm-67.44-106.911 32 22.86c6.418 4.584 10.508 11.734 11.292 19.501-9.61-4.762-20.42-7.452-31.852-7.452-36.845 0-67.295 27.824-71.489 63.561-4.901-1.372-8.511-5.867-8.511-11.2v-75.91c0-5.338 2.594-10.097 6.573-13.107.35 2.47 1.085 4.897 2.214 7.203 2.819 5.761 7.715 10.077 13.775 12.15 2.553.877 5.186 1.313 7.808 1.313 3.605 0 7.192-.823 10.526-2.455 5.761-2.82 10.077-7.716 12.153-13.784l2.6-7.59c4.646.502 9.064 2.161 12.911 4.91zm11.729-87.431c-11.967 9.553-20.915 22.265-25.877 36.758l-12.01 35.062c-.021.062-.044.121-.063.183l-4.429 12.929c-.691 2.022-2.13 3.653-4.05 4.593-1.918.939-4.086 1.073-6.111.378-2.022-.691-3.653-2.13-4.593-4.049-.938-1.918-1.074-4.086-.38-6.107l18.521-54.089c4.313-12.572 12.261-23.352 22.986-31.172l46.004-33.551c2.438 3.129 5.142 6.016 8.082 8.634zm84.416-29.658c-3.229 0-6.469-.233-9.631-.694-6.865-.999-13.182-3.243-18.748-6.553-.489-.387-1.011-.712-1.559-.969-6.201-4.015-11.39-9.406-15.267-15.901-.185-.395-.409-.777-.663-1.148-1.928-3.429-3.504-7.146-4.675-11.124-5.771-19.605.16-40.079 15.479-53.434l25.179-21.948-.352 1.17c-10.271 34.238 3.799 71.231 34.217 89.992l32.069 20.609z"/><path d="m120 372.001c-17.645 0-32 14.355-32 32s14.355 32 32 32 32-14.355 32-32-14.355-32-32-32zm0 48c-8.822 0-16-7.178-16-16s7.178-16 16-16 16 7.178 16 16-7.178 16-16 16z"/><path d="m336 372.001c-17.645 0-32 14.355-32 32s14.355 32 32 32 32-14.355 32-32-14.355-32-32-32zm0 48c-8.822 0-16-7.178-16-16s7.178-16 16-16 16 7.178 16 16-7.178 16-16 16z"/></g></svg>