<svg id="Layer_1" enable-background="new 0 0 512 512" height="512" viewBox="0 0 512 512" width="512" xmlns="http://www.w3.org/2000/svg"><g><path d="m509.2 378.5c-44.5-39.7-76.9-96-99.2-172.2-1.1-3.8-4.9-6.2-8.8-5.7-3.9.6-6.9 3.9-6.9 7.9v124.7l-24.7-.5c-2.7-16.8-13.5-30.9-28.3-38.1v-71.2c0-1-.2-1.9-.5-2.8l-28-75c-1.2-3.1-4.2-5.2-7.5-5.2h-78.9-.1-40c-4.4 0-8 3.6-8 8v67h-80.4v-56.4c0-4.4-3.6-8-8-8h-6.7l.4-23.4c0-2.2-.8-4.2-2.3-5.8-1.5-1.5-3.6-2.4-5.7-2.4l-29.2.1c-4.4 0-8 3.6-8 8s3.6 8 8 8h21l-.3 15.5h-6.4c-4.4 0-8 3.6-8 8v56.5h-15.5c-4.4 0-8 3.6-8 8v71.2c-17.2 8.4-29 26-29 46.3 0 28.4 23.1 51.5 51.5 51.5h267c25.8 0 47.2-19 50.9-43.7l24.4.5h.2v35.2c0 4.4 3.6 8 8 8h101.6c3.3 0 6.3-2.1 7.5-5.2s.3-6.5-2.1-8.8zm-184-153.5v27.5h-55.9l-35.6-32.9.4-63h65.5zm-131-68.5h23.9l-.4 59h-23.5zm-125.4 10.5h13.1v48.5h-13.1zm-23.6 64.6h177.8l37.7 34.9c1.5 1.4 3.4 2.1 5.4 2.1h59v21.4c-2.1-.3-4.3-.4-6.5-.4h-267c-2.2 0-4.4.2-6.5.4v-58.4zm273.5 144.9h-267c-19.6 0-35.5-15.9-35.5-35.5s15.9-35.5 35.5-35.5h267c19.6 0 35.5 15.9 35.5 35.5s-15.9 35.5-35.5 35.5zm91.5 0v-119.4c19 48.7 43.4 88.2 73.7 119.4z"/><path d="m62.1 313.5h-7.6c-15.2 0-27.5 12.3-27.5 27.5s12.3 27.5 27.5 27.5h7.6c15.2 0 27.5-12.3 27.5-27.5-.1-15.1-12.4-27.5-27.5-27.5zm0 39h-7.6c-6.3 0-11.5-5.2-11.5-11.5s5.2-11.5 11.5-11.5h7.6c6.3 0 11.5 5.2 11.5 11.5-.1 6.4-5.2 11.5-11.5 11.5z"/><path d="m147.3 313.5h-7.6c-15.2 0-27.5 12.3-27.5 27.5s12.3 27.5 27.5 27.5h7.6c15.2 0 27.5-12.3 27.5-27.5 0-15.1-12.3-27.5-27.5-27.5zm0 39h-7.6c-6.3 0-11.5-5.2-11.5-11.5s5.2-11.5 11.5-11.5h7.6c6.3 0 11.5 5.2 11.5 11.5 0 6.4-5.1 11.5-11.5 11.5z"/><path d="m232.6 313.5h-7.6c-15.2 0-27.5 12.3-27.5 27.5s12.3 27.5 27.5 27.5h7.6c15.2 0 27.5-12.3 27.5-27.5 0-15.1-12.3-27.5-27.5-27.5zm0 39h-7.6c-6.3 0-11.5-5.2-11.5-11.5s5.2-11.5 11.5-11.5h7.6c6.3 0 11.5 5.2 11.5 11.5 0 6.4-5.1 11.5-11.5 11.5z"/><path d="m317.9 313.5h-7.6c-15.2 0-27.5 12.3-27.5 27.5s12.3 27.5 27.5 27.5h7.6c15.2 0 27.5-12.3 27.5-27.5 0-15.1-12.3-27.5-27.5-27.5zm0 39h-7.6c-6.3 0-11.5-5.2-11.5-11.5s5.2-11.5 11.5-11.5h7.6c6.3 0 11.5 5.2 11.5 11.5 0 6.4-5.2 11.5-11.5 11.5z"/><path d="m61.7 255.5 26.9.5h.1c4.4 0 7.9-3.5 8-7.9s-3.4-8.1-7.9-8.1l-26.8-.5c-4.4-.1-8.1 3.4-8.1 7.9s3.4 8 7.8 8.1z"/><path d="m61.7 281.1 26.9.5h.1c4.4 0 7.9-3.5 8-7.9s-3.4-8.1-7.9-8.2l-26.8-.4c-4.5-.1-8.1 3.4-8.2 7.9 0 4.4 3.5 8 7.9 8.1z"/></g></svg>