<svg id="Layer_1" enable-background="new 0 0 512 512" height="512" viewBox="0 0 512 512" width="512" xmlns="http://www.w3.org/2000/svg"><path d="m509.3 364.7c-43.2-38.6-74.7-93.3-96.4-167.3-1.1-3.8-4.9-6.2-8.8-5.7-3.9.6-6.9 3.9-6.9 7.9v73.5l-66.9-64.6-26.2-70.1c-1.2-3.1-4.2-5.2-7.5-5.2h-76.7-.1-38.8c-4.4 0-8 3.6-8 8v14.2h-106.5c-4.4 0-8 3.6-8 8l-.3 42.8h-22c-4.4 0-8 3.6-8 8v69c-16.7 8.2-28.2 25.4-28.2 45.2 0 27.7 22.6 50.3 50.3 50.3h259.5c27.7 0 50.3-22.6 50.3-50.3 0-19.8-11.5-37-28.2-45.2v-12.2l65.4 63.7v35.9c0 4.4 3.6 8 8 8h98.7c3.3 0 6.3-2 7.5-5.2 1.2-3 .3-6.5-2.2-8.7zm-193.4-149v26.5h-54l-34.5-31.9.4-61h63.3zm-104.1-66.4-.4 56.9h-22.4v-56.9zm-137.3 22.2h98.5v34.7h-98.8zm269.6 156.9c0 18.9-15.4 34.3-34.3 34.3h-259.5c-18.9 0-34.3-15.4-34.3-34.3s15.4-34.3 34.3-34.3h259.5c18.9 0 34.3 15.4 34.3 34.3zm-34.3-50.3h-259.5c-2.1 0-4.1.1-6.1.4v-56.3h172.5l36.6 33.8c1.5 1.4 3.4 2.1 5.4 2.1h57.1v20.3c-1.9-.1-4-.3-6-.3zm22.4-29c-.1-.1-.2-.2-.3-.3v-16.4l65.4 63.1v17zm81.1 113.6v-114.7c18.4 46.7 41.8 84.6 70.9 114.6h-70.9zm-352.9-61.2h-7.4c-14.9 0-27 12.1-27 27s12.1 26.9 27 26.9h7.4c14.9 0 27-12.1 27-26.9-.1-14.9-12.2-27-27-27zm0 37.9h-7.4c-6 0-11-4.9-11-10.9s4.9-11 11-11h7.4c6 0 11 4.9 11 11-.1 6-5 10.9-11 10.9zm82.9-37.9h-7.4c-14.9 0-26.9 12.1-26.9 27s12.1 26.9 26.9 26.9h7.4c14.9 0 26.9-12.1 26.9-26.9 0-14.9-12.1-27-26.9-27zm0 37.9h-7.4c-6 0-10.9-4.9-10.9-10.9s4.9-11 10.9-11h7.4c6 0 10.9 4.9 10.9 11 0 6-4.9 10.9-10.9 10.9zm82.9-37.9h-7.4c-14.9 0-27 12.1-27 27s12.1 26.9 27 26.9h7.4c14.9 0 27-12.1 27-26.9-.1-14.9-12.2-27-27-27zm0 37.9h-7.4c-6 0-11-4.9-11-10.9s4.9-11 11-11h7.4c6 0 11 4.9 11 11-.1 6-5 10.9-11 10.9zm75.4-37.9c-14.9 0-26.9 12.1-26.9 27s12.1 26.9 26.9 26.9h7.4c14.9 0 26.9-12.1 26.9-26.9 0-14.9-12.1-27-26.9-27zm18.4 26.9c0 6-4.9 10.9-10.9 10.9h-7.4c-6 0-10.9-4.9-10.9-10.9s4.9-11 10.9-11h7.4c6 .1 10.9 5 10.9 11z"/></svg>