<svg id="Layer_1" enable-background="new 0 0 512 512" height="512" viewBox="0 0 512 512" width="512" xmlns="http://www.w3.org/2000/svg"><path d="m511.8 311.9c-.1-.5-.3-1.1-.5-1.5l-56-131.5c-1.3-3-4.2-4.9-7.4-4.9h-42.5c-.1 0-.1 0-.2 0s-.1 0-.2 0h-51.6c-4.4 0-8 3.6-8 8v123.4h-13.9v-80.7c0-17.8-9.4-29.8-21.7-35.7l-72.1-119.6c-.9-1.5-2.3-2.7-3.9-3.3-8.6-3.4-15.9-3.5-21.7-.3-3.9 2.2-6.8 5.9-8.7 10.8h-181.3c-12.2.1-22.1 10-22.1 22.2s9.9 22.1 22.1 22.1h13.6v17.7h-5.2c-4.4 0-8 3.6-8 8v37.8c0 4.4 3.6 8 8 8h5.2v9c-12.1 3.5-21 14.7-21 27.9 0 16 13 29 29 29 7.7 0 15.3-3.2 20.7-8.7 5.5-5.5 8.4-12.8 8.3-20.4-.1-4.4-3.7-8-8.1-7.9s-8 3.7-7.9 8.1c0 3.3-1.3 6.5-3.7 8.9-2.5 2.5-5.9 4-9.3 4-7.2 0-13-5.8-13-13s5.8-13 13-13c4.4 0 8-3.6 8-8v-15.9h5.1c4.4 0 8-3.6 8-8v-37.8c0-4.4-3.6-8-8-8h-5.1v-17.7h164.3l37.2 90.2c-1.4 4.1-2.1 8.7-2.1 13.7v80.7h-237.7c-4.4 0-8 3.6-8 8v44.3c0 4.4 3.6 8 8 8h35v42.6c0 4.4 3.6 8 8 8h19.1c3.7 18.3 19.9 32 39.2 32 19.4 0 35.5-13.8 39.3-32h42.4v12.4c0 4.4 3.6 8 8 8h63.9c4.4 0 8-3.6 8-8v-12.4h101.2c3.7 18.3 19.9 32 39.2 32s35.5-13.8 39.2-32h48.1c4.4 0 8-3.6 8-8v-94.9c0-.5 0-1-.2-1.6zm-473.3-135.4v-21.8h10.3v21.8zm457.5 202c-5.4-.1-11-.6-13.4-2.9-.4-.4-1.7-1.7-1.7-5.7v-6.7c0-4.1 1.3-5.3 1.7-5.7 2.4-2.3 8-2.8 13.4-2.9zm-4.1-73h-78.6v-115.4h29.4zm-271.8-225.7c.7-.4 2.5-.5 5.4.4l63.3 105c-9.1.5-18 3.9-24.9 9.9l-35.1-85.2v-.1l-10.8-25.9c.6-2.5 1.5-3.7 2.1-4.1zm-198 25.1c-3.4 0-6.1-2.7-6.1-6.1s2.7-6.1 6.1-6.1h182.2l5 12.2zm245 120c0-3.2.5-6 1.3-8.5.8-1.1 1.3-2.3 1.5-3.6 4.3-8 12.9-11.7 21.4-11.7 12.1 0 24.3 7.4 24.3 23.8v80.7h-48.5zm-245.7 96.7h324.1v28.3h-324.1zm43.1 44.3h281.1v34.6h-191.6c-3.7-18.3-19.9-32-39.3-32-19.3 0-35.5 13.8-39.2 32h-11zm50.3 66.6c-13.2 0-24-10.8-24-24s10.8-24 24-24c13.3 0 24.1 10.8 24.1 24-.1 13.2-10.9 24-24.1 24zm145.5-11.6h-47.8v-4.4h47.8zm156.4 11.6c-13.2 0-24-10.8-24-24s10.8-24 24-24 24 10.8 24 24-10.8 24-24 24zm39.2-32c-3.7-18.3-19.9-32-39.2-32s-35.5 13.8-39.2 32h-15.9v-210.4h35.7v123.4c0 4.4 3.6 8 8 8h90.7v17c-8.6.1-18.1 1-24.6 7.5-4.3 4.2-6.4 10-6.4 17.1v6.7c0 7.1 2.2 12.9 6.4 17.1 6.6 6.5 16 7.4 24.6 7.5v6h-40.1z"/></svg>