<svg id="Layer_1" enable-background="new 0 0 512 512" height="512" viewBox="0 0 512 512" width="512" xmlns="http://www.w3.org/2000/svg"><path d="m509.8 152.6c-2.4-4.7-6.5-8.2-11.5-9.8l-143.3-46.7c-.3-4.3-1.8-7.9-4.4-10.7-4-4.4-10.2-6.3-18.3-5.8-2.1.1-4 1.1-5.4 2.6l-110 121.6-2.2-6.1c-1.1-3.2-4.2-5.3-7.5-5.3h-41.5-.1-25.5c-4.4 0-8 3.6-8 8v35.4h-75.9c-4.4 0-8 3.6-8 8v42.8c0 4.4 3.6 8 8 8h20.1l-.1 15.7h-68.2c-4.4 0-8 3.6-8 8v28.5c0 4.4 3.6 8 8 8h28v.5 42.3c0 4.4 3.6 8 8 8h14.9c3.6 15.3 17.4 26.8 33.8 26.8s30.2-11.4 33.9-26.8h184.6c3.6 15.3 17.4 26.8 33.9 26.8 16.4 0 30.2-11.4 33.8-26.8h39.1c4.4 0 8-3.6 8-8v-79.3c0-.5 0-1.1-.2-1.6-.1-.5-.3-1.1-.5-1.6l-46.8-109.8c-1.3-3-4.2-4.9-7.4-4.9h-35.5c-.1 0-.1 0-.2 0s-.1 0-.2 0h-43.1c-4.4 0-8 3.6-8 8v101.8h-76.7l.1-15.7h15.5c4.4 0 8-3.6 8-8v-16.5c1.1-1.4 1.7-3.1 1.7-4.9 0-.1 0-.2 0-.3l101.9-133.9c.2.1.4.2.6.2l126.1 41-3.8 11.6-2.9-.9c-4.2-1.4-8.7.9-10.1 5.1l-9.8 30.1c-.7 2-.5 4.2.5 6.1s2.6 3.3 4.7 4l2.8.9-3.7 11.4c-.7 2-.5 4.2.5 6.1s2.6 3.3 4.7 4c2.4.8 4.4 2.5 5.6 4.8s1.4 4.9.6 7.3c-1.6 5-7 7.8-12.1 6.1-2.4-.8-4.4-2.5-5.6-4.9-1.1-2.3-1.3-4.8-.6-7.1 1.4-4.2-.8-8.7-5-10.1s-8.7.8-10.1 5c-2.2 6.4-1.7 13.3 1.4 19.4s8.5 10.8 15 12.9c2.6.9 5.3 1.3 7.9 1.3 10.8 0 20.8-6.9 24.3-17.7 2.1-6.5 1.6-13.4-1.5-19.5-1.8-3.6-4.5-6.7-7.7-9l1.6-5 2.9.9c.8.3 1.7.4 2.5.4 3.4 0 6.5-2.2 7.6-5.5l9.8-30.1c.7-2 .5-4.2-.5-6.1s-2.6-3.3-4.7-4l-2.8-.9 3.8-11.6 9.5 3.1c2 .7 4 1 6.1 1 8.3 0 16.1-5.3 18.9-13.7 1.6-4.8 1.2-10.2-1.3-14.9zm-51.6 64.8-5.7-1.9 4.8-14.8 5.7 1.9zm-233.9 2.1 112.1-123.9c1.8.2 2.4.6 2.4.6s.4.7.3 2.6l-108.5 142.6c0-.1 0-.1-.1-.2l-7.4-20.5zm-9.3 25.8v12h-23l-18.5-17.2.2-31.6h28zm-66.8-36.8h9.4l-.2 27.4h-9.2zm-96.3 146.4h232.3v34.8h-157.7c-3.6-15.3-17.4-26.8-33.9-26.8-16.4 0-30.2 11.5-33.8 26.8h-6.8v-34.3c0-.1 0-.3-.1-.5zm40.8 61.6c-10.3 0-18.8-8.4-18.8-18.8s8.4-18.8 18.8-18.8 18.8 8.4 18.8 18.8-8.5 18.8-18.8 18.8zm252.3 0c-10.4 0-18.8-8.4-18.8-18.8s8.4-18.8 18.8-18.8c10.3 0 18.8 8.4 18.8 18.8-.1 10.4-8.5 18.8-18.8 18.8zm60.9-106.1h-62.3v-93.8h22.4zm-105.7-93.8h27.3v101.8c0 4.4 3.6 8 8 8h74.5v63.4h-31.2c-3.6-15.3-17.4-26.8-33.8-26.8s-30.2 11.5-33.9 26.8h-10.9zm-16 122.3h-268.2v-12.5h268.2zm-92.7-28.5h-99.3l.1-15.7h99.3zm8.3-31.7h-115.4-.1-20.1v-26.8h98.2l20.9 19.3c1.5 1.4 3.4 2.1 5.4 2.1h26.3v5.4zm296-116c-.7 2-2.8 3.1-4.8 2.5l-17-5.5h-.1-.1l-128.9-41.9 4.9-6.4 143.6 46.6c1.3.4 1.9 1.3 2.2 1.9.2.5.6 1.6.2 2.8z"/></svg>