<svg id="Layer_1" enable-background="new 0 0 512 512" height="512" viewBox="0 0 512 512" width="512" xmlns="http://www.w3.org/2000/svg"><g><path d="m68.6 424.5h208.9c4.4 0 8-3.6 8-8s-3.6-8-8-8h-208.9c-4.4 0-8 3.6-8 8s3.6 8 8 8z"/><path d="m454.5 232.2v-124.8l22.5-22.5c3.1-3.1 3.1-8.2 0-11.3l-30.7-30.8c-1.5-1.5-3.5-2.3-5.7-2.3-2.1 0-4.2.8-5.7 2.3l-127.9 128-1.9-5.1c-1.2-3.1-4.2-5.2-7.5-5.2h-128.6c-4.4 0-8 3.6-8 8v73h-153c-4.4 0-8 3.6-8 8v80c0 4.4 3.6 8 8 8h75.2v.7 22.9.4h-28.2c-30.3 0-55 24.7-55 55s24.7 55 55 55h236c30.3 0 55-24.7 55-55s-24.7-55-55-55h-38.3c0-.1 0-.3 0-.4v-22.9c0-.2 0-.4 0-.7h75.2c4.4 0 8-3.6 8-8v-80c0-1-.2-1.9-.5-2.8l-5.5-14.7 108.6-108.6v108.8c-32.4 4-57.6 31.6-57.6 65 0 36.2 29.4 65.6 65.6 65.6 36.1 0 65.5-29.4 65.5-65.6 0-33.4-25.2-61-57.5-65zm-277.5 12.2v-67.9h54.8l39.2 105h-34l-60-36.5c0-.2 0-.4 0-.6zm153 172.1c0 21.5-17.5 39-39 39h-236c-21.5 0-39-17.5-39-39s17.5-39 39-39h236c21.5 0 39 17.5 39 39zm-93.3-55h-137.6c0-.1 0-.3 0-.4v-22.9c0-.2 0-.4 0-.7h137.7v.7 22.9c-.1.1-.1.2-.1.4zm83.1-40h-303.8v-64h150.8l63.9 38.8c1.3.8 2.7 1.2 4.2 1.2h85v24zm0-40h-31.7l-39.2-105h43.1l4.3 11.5c0 .1.1.2.1.4l23.4 62.7zm-6.7-94.3 127.4-127.4 19.5 19.5-136.3 136.3zm133.4 159.6c-27.3 0-49.6-22.2-49.6-49.6 0-27.3 22.2-49.5 49.6-49.5 27.3 0 49.5 22.2 49.5 49.5 0 27.4-22.2 49.6-49.5 49.6z"/></g></svg>