<svg id="Layer_1" enable-background="new 0 0 512 512" height="512" viewBox="0 0 512 512" width="512" xmlns="http://www.w3.org/2000/svg"><path d="m398.4 98.9h54.8c4.4 0 8-3.6 8-8s-3.6-8-8-8h-60.5c-3.4 0-6.4 2.1-7.5 5.3l-8.6 24.5h-328.6c-2.9 0-5.6 1.6-7 4.2l-40 74.5c-1.8 3.3-1 7.4 1.8 9.8l121.5 105.3h-68.2c-4.4 0-8 3.6-8 8v75c0 4.4 3.6 8 8 8h26.3c3.7 18 19.7 31.6 38.8 31.6s35.1-13.6 38.8-31.6h10.3c3.7 18 19.7 31.6 38.8 31.6s35.1-13.6 38.8-31.6h120.1c3.7 18 19.6 31.5 38.7 31.5 19 0 35-13.6 38.7-31.5h58.6c4.4 0 8-3.6 8-8v-105.9c0-.5-.1-1.1-.2-1.6s-.3-1.1-.5-1.6l-62.4-146.5c-1.3-2.9-4.2-4.9-7.4-4.9h-53.8m104.2 146.6h-89.9v-130.5h34.3zm-473.8-82.3 34.7-64.6h318.2l-53.1 151.7c-.6 1.2-1 2.5-1 3.9v22.1h-168.2zm46 129.2h252.7v59h-69c-3.7-18-19.7-31.6-38.8-31.6s-35.1 13.6-38.8 31.6h-10.3c-3.7-18-19.7-31.6-38.8-31.6s-35.1 13.6-38.8 31.6h-18.2zm57.1 90.6c-13 0-23.6-10.6-23.6-23.6s10.6-23.6 23.6-23.6 23.6 10.6 23.6 23.6-10.6 23.6-23.6 23.6zm87.8 0c-13 0-23.6-10.6-23.6-23.6s10.6-23.6 23.6-23.6 23.6 10.6 23.6 23.6-10.6 23.6-23.6 23.6zm197.6-.1c-13 0-23.5-10.6-23.5-23.5 0-13 10.5-23.5 23.5-23.5s23.5 10.5 23.5 23.5-10.5 23.5-23.5 23.5zm89.4-31.5h-50.7c-3.7-18-19.6-31.5-38.7-31.5-19 0-35 13.5-38.7 31.5h-35.2v-95.4l49.4-141.1h3.8v138.6c0 4.4 3.6 8 8 8h102v89.9zm-320-212.9-13.5 50.4c-1 3.6-4.2 5.9-7.7 5.9-.7 0-1.4-.1-2.1-.3-4.3-1.1-6.8-5.5-5.6-9.8l13.5-50.4c1.1-4.3 5.5-6.8 9.8-5.6 4.2 1.1 6.7 5.5 5.6 9.8zm57.3 0-13.5 50.4c-1 3.6-4.2 5.9-7.7 5.9-.7 0-1.4-.1-2.1-.3-4.3-1.1-6.8-5.5-5.7-9.8l13.5-50.4c1.1-4.3 5.5-6.8 9.8-5.7 4.3 1.2 6.8 5.6 5.7 9.9zm57.3 0-13.5 50.4c-1 3.6-4.2 5.9-7.7 5.9-.7 0-1.4-.1-2.1-.3-4.3-1.1-6.8-5.5-5.6-9.8l13.5-50.4c1.1-4.3 5.5-6.8 9.8-5.6 4.2 1.1 6.7 5.5 5.6 9.8z"/></svg>