<svg id="Layer_1" enable-background="new 0 0 512 512" height="512" viewBox="0 0 512 512" width="512" xmlns="http://www.w3.org/2000/svg"><g><path d="m65.1 435.7c10.1 0 18.8-6.5 22-15.5h247.1c3.3 9 11.9 15.5 22.1 15.5 12.9 0 23.4-10.5 23.4-23.5 0-12.9-10.5-23.4-23.4-23.4-10.1 0-18.8 6.4-22.1 15.4h-247c-3.3-9-11.9-15.4-22-15.4-12.9 0-23.5 10.5-23.5 23.4 0 13 10.5 23.5 23.4 23.5zm291.3-30.9c4.1 0 7.5 3.3 7.5 7.5 0 4.1-3.3 7.5-7.5 7.5-4.1 0-7.5-3.4-7.5-7.5 0-4.2 3.3-7.5 7.5-7.5zm-291.3 0c4.1 0 7.5 3.3 7.5 7.5 0 4.1-3.3 7.5-7.5 7.5-4.1 0-7.5-3.4-7.5-7.5.1-4.2 3.4-7.5 7.5-7.5z"/></g><g><path d="m415.2 303.3c19.1 0 38.4-.6 55.1-7 22.3-8.5 35.8-25.7 41.5-52.6.3-1.3.2-2.6-.1-3.9l-16.9-58.3c-1-3.5-4.2-5.8-7.8-5.8l-8.5.1-58.1-109.6c-5.4-10.3-18.2-14.2-28.4-8.7-5 2.6-8.6 7-10.3 12.4s-1.1 11.1 1.5 16l1.1 2.1-126 81.4c-2.3 1.5-3.6 3.9-3.7 6.6l-.4 34.3h-46.5c-4.4 0-8 3.6-8 8v55.4h-117.9c-4.4 0-8 3.6-8 8v62.5c0 4.4 3.6 8 8 8h57v15.3h-94c-24.7 0-44.8 20-44.8 44.7s20.1 44.8 44.8 44.8h332c24.7 0 44.7-20.1 44.7-44.8s-20.1-44.7-44.7-44.7h-102v-15.3h57c4.4 0 8-3.6 8-8v-62.5c0-1-.2-1.9-.5-2.8l-14.5-38.9c-.1-.2-.1-.4-.2-.6l-8.9-23.8c-1.2-3.1-4.2-5.2-7.5-5.2h-4.8l.1-11.3 104.1-67 24.6 46.5c-.3.2-.5.5-.8.7-1.5 1.6-2.2 3.8-2.1 5.9l4.2 62.8c-1.1 14.5-11.5 26.2-35.7 40.4-3.1 1.8-4.6 5.5-3.7 9s4.1 5.9 7.7 5.9m-4.9-228.7c.4-1.3 1.3-2.4 2.5-3 2.5-1.3 5.5-.4 6.8 2.1l54.3 102.6-11.4.2-31.4-59.3c-.1-.1-.1-.2-.2-.3l-15.7-29.6-4.6-8.7c-.6-1.3-.7-2.7-.3-4zm8.6 337.6c0 15.9-12.9 28.8-28.7 28.8h-332c-15.9 0-28.8-12.9-28.8-28.8 0-15.8 12.9-28.7 28.8-28.7h332c15.8 0 28.7 12.9 28.7 28.7zm-146.7-44.7h-104.1v-15.3h104.1zm65-31.3h-234.1v-46.5h148.6l31.5 29.1c1.5 1.4 3.4 2.1 5.4 2.1h48.6zm0-31.2h-45.5l-31.5-29.1c-1.5-1.4-3.4-2.1-5.4-2.1h-25.8v-47.4h87l3.1 8.2h-40c-4.4 0-8 3.6-8 8v23.4c0 4.4 3.6 8 8 8h54.8l3.4 9.1v21.9zm-9.3-47h-40.8v-7.5h38zm-23.3-70c-2.3 1.5-3.6 4-3.7 6.7l-.1 15.7h-17.2l.3-29.9 121.3-78.3 8.3 15.7zm173.4 93.4c-10.8 4.1-23.6 5.4-36.9 5.8 11.7-9.9 20.8-22.3 21.8-38.7 0-.3 0-.7 0-1l-3.7-55 35.3-.6 14.6 50.5c-4.6 20.2-14.6 32.7-31.1 39z"/><path d="m65.1 435.7c10.1 0 18.8-6.5 22-15.5h247.1c3.3 9 11.9 15.5 22.1 15.5 12.9 0 23.4-10.5 23.4-23.5 0-12.9-10.5-23.4-23.4-23.4-10.1 0-18.8 6.4-22.1 15.4h-247c-3.3-9-11.9-15.4-22-15.4-12.9 0-23.5 10.5-23.5 23.4 0 13 10.5 23.5 23.4 23.5zm291.3-30.9c4.1 0 7.5 3.3 7.5 7.5 0 4.1-3.3 7.5-7.5 7.5-4.1 0-7.5-3.4-7.5-7.5 0-4.2 3.3-7.5 7.5-7.5zm-291.3 0c4.1 0 7.5 3.3 7.5 7.5 0 4.1-3.3 7.5-7.5 7.5-4.1 0-7.5-3.4-7.5-7.5.1-4.2 3.4-7.5 7.5-7.5z"/></g></svg>