<svg id="Layer_1" enable-background="new 0 0 512 512" height="512" viewBox="0 0 512 512" width="512" xmlns="http://www.w3.org/2000/svg"><path d="m413.3 398.7c19.5 0 39.2-.6 56.3-7.2 22.7-8.7 36.5-26.2 42.3-53.5.3-1.3.2-2.6-.1-3.9l-17.2-59.5c-1-3.4-4.1-5.8-7.7-5.8h-.1-.2l-95.7-190.8c-2.8-5.6-9.2-9.7-17.3-11-7.6-1.2-14.3.4-18.5 4.6-12.1 12.1-9.6 22.4-7 27.4l1.4 2.7-168.3 124.4h-12.1c-4.4 0-8 3.6-8 8v56.6h-120.4c-4.4 0-8 3.6-8 8v57.6c-18.9 5.5-32.7 23-32.7 43.7 0 25.1 20.4 45.5 45.5 45.5h253.6c25.1 0 45.5-20.4 45.5-45.5 0-23.5-17.9-42.9-40.8-45.3v-56c0-1-.2-1.9-.5-2.8l-24.1-64.6c-1.2-3.1-4.2-5.2-7.5-5.2h-.2l101.7-79.2 63.7 122.9h-1c-2.2 0-4.3 1-5.8 2.6s-2.2 3.8-2.1 6l4.3 64.1c-1.1 14.9-11.8 26.9-36.5 41.4-3.1 1.8-4.6 5.5-3.7 9s4.1 5.9 7.7 5.9m-199.4-92.1 32.1 29.8c1.5 1.4 3.4 2.1 5.4 2.1h49.7v15.8h-239v-47.7zm128.2 93.3c0 16.2-13.2 29.5-29.5 29.5h-253.6c-16.3-.1-29.5-13.3-29.5-29.5 0-16.3 13.2-29.5 29.5-29.5h253.6c16.3 0 29.5 13.2 29.5 29.5zm-40.8-99.8v22.4h-46.6l-32.2-29.8c-1.5-1.4-3.4-2.1-5.4-2.1h-26.5v-48.6h6.7 82.2zm-42.5-74.1h-37.2l148.9-110 8.5 16.4zm138.7-93c-.2-1.3-.7-2.5-1.6-3.6-.2-.3-.4-.5-.7-.7l-14.2-27.4c-.2-.7-.6-1.4-1-2l-4-7.8c-1-2 .3-4.9 4-8.6 2.1-1.2 8.9.2 10.2 2.1l92.1 184.1-14 .2zm79.9 243.5c-11.1 4.3-24.4 5.6-38.1 5.9 12.1-10.2 21.4-22.8 22.5-39.7 0-.3 0-.7 0-1l-3.7-56.2 36.3-.6 15 51.6c-5 20.8-15.1 33.6-32 40zm-193.6 15.4h-78.1c-3.1-7.3-10.3-12.4-18.8-12.4s-15.6 5.1-18.8 12.4h-80.3c-3.1-7.3-10.4-12.4-18.8-12.4-11.2 0-20.4 9.2-20.4 20.4s9.1 20.4 20.4 20.4c8.4 0 15.7-5.1 18.8-12.4h80.3c3.1 7.3 10.3 12.4 18.8 12.4s15.6-5.1 18.8-12.4h78.1c3.1 7.3 10.3 12.4 18.8 12.4 11.2 0 20.4-9.1 20.4-20.4s-9.1-20.4-20.4-20.4c-8.5-.1-15.7 5.1-18.8 12.4zm-214.7 12.3c-2.4 0-4.4-2-4.4-4.4s2-4.4 4.4-4.4 4.4 2 4.4 4.4-2 4.4-4.4 4.4zm117.8 0c-2.4 0-4.4-2-4.4-4.4s2-4.4 4.4-4.4 4.4 2 4.4 4.4c-.1 2.5-2 4.4-4.4 4.4zm120-4.3c0 2.4-2 4.4-4.4 4.4s-4.4-2-4.4-4.4 2-4.4 4.4-4.4 4.4 1.9 4.4 4.4z"/></svg>