<svg id="Layer_1" enable-background="new 0 0 512 512" height="512" viewBox="0 0 512 512" width="512" xmlns="http://www.w3.org/2000/svg"><path d="m511.7 276.5-20.4-70.2c-1-3.5-4.2-5.8-7.8-5.8l-4.7.1-89.2-184.2c-6.6-13.5-22.9-19-39.8-13.3-7.2 2.4-12.8 7.9-15.7 15.5-3.3 8.6-2.5 18.4 2 26.2l3.9 6.8-164 105.9c-2.2 1.5-3.6 3.9-3.7 6.6l-.6 44.1h-65c-3.8 0-7.1 2.7-7.8 6.4l-26.6 129.7-9 43.9c-.5 2.4.1 4.8 1.6 6.7s3.8 2.9 6.2 2.9h45.1v12.8h-65.9c-27.8 0-50.3 22.6-50.3 50.3s22.5 50.3 50.3 50.3h285.9c27.7 0 50.3-22.5 50.3-50.3s-22.5-50.3-50.3-50.3h-65.9v-12.8h45.1c2.4 0 4.7-1.1 6.2-2.9 1.5-1.9 2.1-4.3 1.6-6.7l-9-43.9-26.7-129.8c-.8-3.7-4-6.4-7.8-6.4h-35.2l.1-7.9 132.1-85.2 50 86.4-3.2.1c-2.2 0-4.3 1-5.7 2.6-1.5 1.6-2.2 3.8-2.1 5.9l5.1 75.8c-1.6 22.4-22 37.3-43.8 50.1-3.1 1.8-4.6 5.5-3.7 9s4.1 5.9 7.7 5.9h8 8.1c22.9 0 46-.7 65.9-8.3 26.2-10.1 42.3-30.4 48.9-62.1.2-1.3.1-2.7-.2-3.9zm-423.7 71 18.9-92h64.9v126.3h-90.9zm282.4 113.4c0 18.9-15.4 34.3-34.3 34.3h-285.8c-18.9 0-34.3-15.4-34.3-34.3s15.4-34.3 34.3-34.3h285.9c18.9 0 34.2 15.4 34.2 34.3zm-116.2-50.3h-122v-12.8h122.1v12.8zm51.3-28.8h-117.8v-126.3h91.8l18.9 92zm-29.2-142.3h-166.1l3.2-15.4h159.8zm-44.1-50.4c-2.3 1.5-3.6 3.9-3.7 6.6l-.1 12.4h-40.7l.6-39.6 159.8-103.1 20.7 35.8zm117.8-152.3c-2.1-3.6-2.4-8.5-.9-12.5.8-2.1 2.5-4.9 5.8-6 7.7-2.6 17-2 20.4 5.1l86 177.5-16.2.3zm57.4 298c15.6-12.2 28-27.6 29.3-48.5 0-.3 0-.7 0-1l-4.5-67.9 45.5-.8 18.1 62.4c-11.2 49-47.3 55.1-88.4 55.8zm-330.8 118.1c-3.4-10.3-13.1-17.8-24.5-17.8-14.2 0-25.8 11.6-25.8 25.8s11.6 25.8 25.8 25.8c11.4 0 21.1-7.5 24.5-17.8h233.2c3.4 10.3 13.1 17.8 24.5 17.8 14.2 0 25.8-11.6 25.8-25.8s-11.6-25.8-25.8-25.8c-11.4 0-21.1 7.5-24.5 17.8zm-24.5 17.7c-5.4 0-9.8-4.4-9.8-9.8s4.4-9.8 9.8-9.8 9.8 4.4 9.8 9.8-4.4 9.8-9.8 9.8zm282.2-19.5c5.4 0 9.8 4.4 9.8 9.8s-4.4 9.8-9.8 9.8-9.8-4.4-9.8-9.8 4.4-9.8 9.8-9.8z"/></svg>