<svg id="Layer_1" enable-background="new 0 0 512 512" height="512" viewBox="0 0 512 512" width="512" xmlns="http://www.w3.org/2000/svg"><path d="m504 388.3-82.8.2v-19.7l82.8-.2c4.4 0 8-3.6 8-8s-3.6-8-8-8l-82.8.2v-109.1c0-4.4-3.6-8-8-8h-26.3v-178.5c0-4.4-3.6-8-8-8h-66.2c-4.4 0-8 3.6-8 8s3.6 8 8 8h21.3v228c-3.4-.3-6.9-.5-10.4-.5-1.5 0-3.1 0-4.6.1v-62.6c0-1.7-.6-3.4-1.6-4.8l-1.3-1.8s0-.1-.1-.1c0 0 0-.1-.1-.1l-93.1-124.8c-1.5-2-3.9-3.2-6.4-3.2h-149.2c-4.4 0-8 3.6-8 8v156.2h-2c-27.5 0-49.9 22.4-49.9 49.9v56.9c-4.6 9-7.3 19.3-7.3 30.1 0 36.5 29.7 66.2 66.2 66.2 33.8 0 61.8-25.5 65.7-58.2h126c4 32.8 31.9 58.2 65.7 58.2 36.5 0 66.2-29.7 66.2-66.2 0-6.8-1-13.4-3-19.7v-125.1h18.3v144.8c0 2.1.8 4.2 2.3 5.7s3.5 2.3 5.6 2.3l90.8-.2c4.4 0 8-3.6 8-8 .2-4.4-3.4-8-7.8-8zm-133.1-323.1v170.5h-20.9v-170.5zm-73 160.8c-4.8 2.2-10 3.4-15.4 3.4h-130.6c-20.5 0-37.2-16.7-37.2-37.2v-80.8h97.8zm-222.7-114.7h23.4v80.8c0 29.4 23.9 53.2 53.2 53.2h130.7c7.1 0 14.1-1.4 20.5-4.1v53.3c-11 2-21.5 5.6-31.1 10.6-25.5-30.7-45.3-45.6-60.6-45.6h-136.1zm-18 164.2h154.1c4.6 0 18.2 3.9 47 38.2-4.4 3.3-8.5 6.9-12.2 10.8-16.5 17.3-25.6 39.7-26.2 64h-50.1c-4.1-53.5-49-95.8-103.5-95.8-14.6 0-28.8 3-42 8.9 3.5-15 16.9-26.1 32.9-26.1zm9 54.8c-16.4 0-31.3 6-42.9 15.9v-26.3c13.1-7.3 27.8-11.2 42.9-11.2 45.7 0 83.4 35.1 87.5 79.9h-21.8c-3.9-32.8-31.9-58.3-65.7-58.3zm0 116.5c-27.7 0-50.2-22.5-50.2-50.2s22.5-50.2 50.2-50.2 50.2 22.5 50.2 50.2-22.5 50.2-50.2 50.2zm257.4 0c-27.7 0-50.2-22.5-50.2-50.2s22.5-50.2 50.2-50.2 50.2 22.5 50.2 50.2-22.5 50.2-50.2 50.2zm0-116.5c-33.8 0-61.8 25.5-65.7 58.2h-22.1c.6-20.1 8.2-38.7 21.8-52.9 4.8-5 10.2-9.4 16-13 .4-.2.9-.5 1.3-.8 14.1-8.5 30.8-13.1 48.7-13.1 16.9 0 33.1 4.8 47.3 13.8v27.7c-12-12.3-28.8-19.9-47.3-19.9zm47.3-26.2c-6.7-3.4-13.7-6.1-20.9-8v-44.4h20.9z"/></svg>