<svg id="Layer_1" enable-background="new 0 0 512 512" height="512" viewBox="0 0 512 512" width="512" xmlns="http://www.w3.org/2000/svg"><path d="m481 292.9v-7.8c0-2.1-.8-4.1-2.3-5.5l-56.4-58.3c-1.5-1.6-3.6-2.4-5.7-2.4h-83c-.1-.4-.3-.7-.5-1.1l-52-88.8c-1.4-2.5-4.1-4-6.9-4h-81.9c-4.4 0-8 3.6-8 8v85.8h-102.8v-37.2c0-4.4-3.6-8-8-8h-2.3l.3-13.9c0-2.1-.8-4.2-2.3-5.8-1.5-1.5-3.6-2.4-5.7-2.4l-20.5.2c-4.4 0-8 3.6-8 8s3.6 8 8 8h12.3l-.1 6.1h-2.1c-4.4 0-8 3.6-8 8v37.2h-8.5c-1.7 0-3.4.5-4.8 1.6l-28.6 21c-2 1.5-3.2 3.9-3.2 6.4v90.3c0 4.4 3.6 8 8 8h27.7c3.8 23.1 23.9 40.7 48.1 40.7 24.1 0 44.2-17.7 48.1-40.7h12.4c3.8 23.1 23.9 40.7 48.1 40.7s44.3-17.7 48.1-40.7h20.5c1.9 0 3.8-.7 5.3-2l65.2-57.3c1.7-1.5 2.7-3.7 2.7-6v-19.6h14.2l.5 77c0 4.4 3.6 7.9 8 7.9h13.1c1.4 7.3 4.6 14.4 9.8 20.9 1.6 2 3.9 3 6.3 3 1.7 0 3.5-.6 4.9-1.7 3.5-2.7 4.1-7.8 1.3-11.2-9.5-12.1-9.5-25.9 0-38 2.7-3.5 2.1-8.5-1.3-11.2-3.5-2.7-8.5-2.1-11.2 1.3-5.2 6.5-8.4 13.6-9.8 20.9h-5.1l-.4-68.9h40.6l33.8 34.8c-14.4 8.5-24.2 24.2-24.2 42.1 0 26.9 21.9 48.7 48.7 48.7 26.9 0 48.8-21.9 48.8-48.7-.2-20.7-13.1-38.3-31.2-45.4zm-165.8-74.1h-66.5c-6.6 0-14-9.7-14-23.7v-54.1h34.9zm-254.1-29.1h4.4v29.2h-4.4zm22.6 181.3c-18 0-32.7-14.7-32.7-32.7 0-18.1 14.7-32.8 32.8-32.8s32.7 14.7 32.7 32.8c0 18-14.7 32.7-32.8 32.7zm60.5-40.7h-12.4c-3.8-23.1-23.9-40.8-48.1-40.8s-44.3 17.7-48.1 40.8h-19.6v-78.3l23.2-17.2h145.1v55.3c-20.5 3.5-36.7 19.7-40.1 40.2zm48.1 40.7c-18.1 0-32.8-14.7-32.8-32.7 0-18.1 14.7-32.8 32.8-32.8s32.8 14.7 32.8 32.8c0 18-14.7 32.7-32.8 32.7zm125.9-93.6-60.2 52.9h-17.5c-3.4-20.5-19.6-36.7-40.1-40.1v-149.2h18.4v54.2c0 21.9 13.4 39.7 30 39.7h69.4zm95.8-29.6c-1.5-1.6-3.6-2.4-5.7-2.4h-74.2v-10.5h79l51.8 53.5v1.2c-.6 0-1.2 0-1.8 0-2.8 0-5.5.2-8.1.7zm49.2 123.2c-18.1 0-32.7-14.7-32.7-32.7 0-18.1 14.7-32.8 32.7-32.8 18.1 0 32.8 14.7 32.8 32.8 0 18-14.7 32.7-32.8 32.7zm-382.4-119.5c-.1 4.4-3.6 7.8-8 7.8-.1 0-.1 0-.2 0l-18.9-.4c-4.4-.1-7.9-3.7-7.8-8.1s3.7-7.9 8.1-7.8l18.9.4c4.4 0 7.9 3.6 7.9 8.1zm0 23.6c-.1 4.4-3.6 7.8-8 7.8h-.1l-18.9-.3c-4.4-.1-7.9-3.7-7.8-8.1s3.7-7.9 8.1-7.8l18.9.3c4.3.1 7.8 3.7 7.8 8.1z"/></svg>