<svg id="Layer_1" enable-background="new 0 0 512 512" height="512" viewBox="0 0 512 512" width="512" xmlns="http://www.w3.org/2000/svg"><path d="m511.8 270.8c-.1-.5-.3-1.1-.5-1.6l-56.3-132.1c-1.3-3-4.2-4.9-7.4-4.9l-94.9.1c-4.4 0-8 3.6-8 8v168.7h-146.5v-9.2l109.2-18.3c3.6-.6 6.3-3.6 6.7-7.2l10-110.6c.3-3.6-1.8-7-5.3-8.3l-110.6-39.8c-.6-.2-1.3-.4-2-.4l-84-7.6c-.4 0-.9 0-1.3 0l-74.7 5.8c-3.9.3-7 3.4-7.4 7.3l-1.4 16.1-22.9 3.8c-3.6.6-6.3 3.6-6.7 7.2l-7.8 85.7c-.3 3.6 1.8 7 5.3 8.3l21.8 7.8-1.4 16.1c-.4 3.9 2.2 7.5 5.9 8.5l67.2 17.7v17.1h-44.5c-4.4 0-8 3.6-8 8v50.9c0 4.4 3.6 8 8 8h23c3.7 16.3 18.2 28.5 35.6 28.5s31.9-12.2 35.6-28.5h8c3.7 16.3 18.2 28.5 35.6 28.5s31.9-12.2 35.6-28.5h153c3.7 16.2 18.2 28.4 35.5 28.4s31.9-12.2 35.5-28.4h52.3c4.4 0 8-3.6 8-8v-95.4c0-.6 0-1.1-.2-1.7zm-299.3-136.5 95 34.2-8.8 98.3-99.6 16.7zm-183.9 98.8-12.1-4.3 6.6-73.3 12.7-2.1zm100.1-108.7 68.1 6.1-13.8 153.8-68.1-6.1zm53.4 175.9v8.7h-67.3v-14.7zm-139.9-40 11.8-131.4 58.5-4.6-13.5 151zm70.7 128c-11.3 0-20.5-9.2-20.5-20.5s9.2-20.5 20.5-20.5 20.5 9.2 20.5 20.5-9.2 20.5-20.5 20.5zm79.2 0c-11.3 0-20.5-9.2-20.5-20.5s9.2-20.5 20.5-20.5 20.5 9.2 20.5 20.5-9.2 20.5-20.5 20.5zm93.5-28.5h-57.8c-3.7-16.3-18.2-28.5-35.6-28.5s-31.9 12.2-35.6 28.5h-8c-3.7-16.3-18.2-28.5-35.6-28.5s-31.9 12.2-35.6 28.5h-15v-34.8h223.2zm59.2 0h-43.3v-34.8h43.3zm68.1-211.4h29.6l49.4 116.1h-79zm3.3 239.8c-11.2 0-20.4-9.1-20.4-20.4s9.1-20.4 20.4-20.4c11.2 0 20.4 9.1 20.4 20.4s-9.1 20.4-20.4 20.4zm79.8-28.4h-44.2c-3.7-16.2-18.2-28.4-35.5-28.4s-31.8 12.2-35.5 28.4h-19.9v-211.4h36v124c0 4.4 3.6 8 8 8h91.1z"/></svg>