<svg id="Layer_1" enable-background="new 0 0 512 512" height="512" viewBox="0 0 512 512" width="512" xmlns="http://www.w3.org/2000/svg"><path d="m512 219.1v-46.5c0-43.4-32.2-80.1-74.5-86.4-3.1-11.7-13.8-20.4-26.5-20.4h-3.9c-12.3 0-22.8 8.2-26.2 19.4h-63.6v-23c0-4.4-3.6-8-8-8h-106.7c-4.4 0-8 3.6-8 8v23h-63.6c-3.4-11.2-13.9-19.4-26.2-19.4h-3.8c-12.7 0-23.3 8.7-26.4 20.4-42.3 6.2-74.6 43-74.6 86.4v46.5c0 33.4 19.1 62.8 47.2 77.5v47.1h-39.2c-4.4 0-8 3.6-8 8v60.1c0 4.4 3.6 8 8 8h23.4c3.8 21.6 22.7 38.1 45.3 38.1 22.7 0 41.6-16.5 45.4-38.1h88v16.2c0 4.4 3.6 8 8 8h75.9c4.4 0 8-3.6 8-8v-16.2h88c3.8 21.6 22.7 38.1 45.3 38.1 22.7 0 41.6-16.5 45.4-38.1h23.3c4.4 0 8-3.6 8-8v-60.1c0-4.4-3.6-8-8-8h-39.1v-47.1c28-14.7 47.1-44.2 47.1-77.5zm-16-46.5v46.5c0 34.3-24.7 63.6-57.6 70.1v-186.7c32.9 6.5 57.6 35.8 57.6 70.1zm-88.9-90.8h3.9c6.3 0 11.4 5.1 11.4 11.4v204.4c0 6.3-5.1 11.4-11.4 11.4h-3.9c-6.3 0-11.4-5.1-11.4-11.4v-204.5c0-6.2 5.2-11.3 11.4-11.3zm-118.2 208.7v-189.4h90.8v189.4zm-130.2 53.2v-37.2h194.6v37.2zm-26.5-242.6h90.9v189.4h-90.9zm140.7 0v13.4h-33.8v-13.4zm-33.8 189.4v-13.5h33.8v13.5zm33.8-66.1h-33.8v-20.6h33.8zm0-36.6h-33.8v-20.6h33.8zm-33.8 52.6h33.8v20.6h-33.8zm33.8-89.2h-33.8v-20.6h33.8zm-62.3-81.1h90.8v15h-90.8zm-121 23c0-6.3 5.1-11.4 11.4-11.4h3.9c6.3 0 11.4 5.1 11.4 11.4v204.4c0 6.3-5.1 11.4-11.4 11.4h-3.9c-6.3 0-11.4-5.1-11.4-11.4zm-73.6 126v-46.5c0-34.3 24.7-63.6 57.7-70.1v186.7c-33-6.5-57.7-35.8-57.7-70.1zm47.2 84c3.8 1.1 7.7 2 11.7 2.5 3.4 11.2 13.9 19.3 26.1 19.3h3.9c11.9 0 22.1-7.7 25.8-18.4h12v37.2h-79.5zm13.5 138.8c-16.6 0-30-13.5-30-30.1s13.5-30 30-30c16.6 0 30.1 13.5 30.1 30 0 16.6-13.5 30.1-30.1 30.1zm209.3-13.9h-59.9v-8.2h59.9zm149.3 13.9c-16.6 0-30-13.5-30-30.1s13.5-30 30-30c16.6 0 30.1 13.5 30.1 30 0 16.6-13.5 30.1-30.1 30.1zm60.7-38.1h-15.4c-3.8-21.6-22.7-38-45.4-38s-41.5 16.5-45.3 38h-267.8c-3.8-21.6-22.7-38-45.4-38s-41.5 16.5-45.3 38h-15.4v-44.1h480zm-47.1-60.1h-79.6v-37.2h12c3.7 10.7 13.9 18.4 25.9 18.4h3.9c12.3 0 22.7-8.1 26.2-19.3 4-.6 7.9-1.4 11.7-2.5v40.6z"/></svg>