<svg id="Layer_1" enable-background="new 0 0 512 512" height="512" viewBox="0 0 512 512" width="512" xmlns="http://www.w3.org/2000/svg"><path d="m504 283h-22.8c-13-38.4-49.3-64.7-90.3-64.7s-77.3 26.3-90.3 64.7h-30.1v-5h16.1c4.4 0 8-3.6 8-8v-54.3c0-1.7-.6-3.4-1.6-4.8l-78-104.7c-1.5-2-3.9-3.2-6.4-3.2h-123.1c-4.4 0-8 3.6-8 8v102.7h-14.7v-45.2c0-4.4-3.6-8-8-8h-4.2l.3-17.9c0-2.1-.8-4.2-2.3-5.8-1.5-1.5-3.6-2.4-5.7-2.4l-24.1.1c-4.4 0-8 3.6-8 8s3.6 8 8 8h15.9l-.2 10h-3.9c-4.4 0-8 3.6-8 8v45.2h-14.6c-4.4 0-8 3.6-8 8v131.2c0 4.4 3.6 8 8 8h21.2c3.9 27.2 27.3 48.1 55.5 48.1s51.5-20.9 55.5-48l122.5-.1c4.4 0 8-3.6 8-8v-8.6h30.1c13 38.4 49.3 64.7 90.3 64.7s77.3-26.3 90.3-64.7h22.6c4.4 0 8-3.6 8-8v-45.3c0-4.5-3.6-8-8-8zm-113.1-48.7c32.3 0 61 19.6 73.2 48.7h-146.4c12.2-29.2 41-48.7 73.2-48.7zm-115.7-20.7h-119.9c-16.2 0-29.3-13.2-29.3-29.3v-65.3h78.6zm-181.7-94.6h16.5v65.3c0 25 20.3 45.3 45.3 45.3h123.4v32.4h-140.6l-44.6-21zm-54.7 57.4h8.1v37.2h-8.1zm45.9 216.6c-22.1 0-40.1-18-40.1-40.1s18-40.1 40.1-40.1 40.1 18 40.1 40.1c-.1 22.2-18 40.1-40.1 40.1zm169.9-48.1-114.5.1c-3.9-27.2-27.3-48.1-55.5-48.1s-51.5 20.9-55.5 48h-13.1v-115.2h61.5v16.4c0 3.1 1.8 5.9 4.6 7.2l50.8 23.9c1.1.5 2.2.8 3.4.8h118.2v66.9zm136.3 48.1c-32.3 0-61-19.6-73.2-48.7h146.4c-12.2 29.2-40.9 48.7-73.2 48.7zm105.1-64.7h-225.4v-29.4h35.9 189.5z"/></svg>