<svg id="Layer_1" enable-background="new 0 0 512 512" height="512" viewBox="0 0 512 512" width="512" xmlns="http://www.w3.org/2000/svg"><path d="m504 313.9h-33.7c-4.4-15-12-28.8-22.2-40.6v-10.5h19.2c4.4 0 8-3.6 8-8v-27c0-4.4-3.6-8-8-8h-19.2v-10.2c0-4.4-3.6-8-8-8h-45.7v-78c0-4.4-3.6-8-8-8h-10.3l-.1-39.2h8.7c4.4 0 8-3.6 8-8s-3.6-8-8-8h-16.8c-2.1 0-4.2.8-5.7 2.4-1.5 1.5-2.3 3.6-2.3 5.7l.2 47.2h-12.7c-4.4 0-8 3.6-8 8v78h-12.3v-13.7c0-1.8-.6-3.6-1.7-5l-72.6-91c-1.5-1.9-3.8-3-6.2-3h-114.7c-4.4 0-8 3.6-8 8v67h-91.5c-4.4 0-8 3.6-8 8v49.3h-16.4c-4.4 0-8 3.6-8 8v69c0 4.4 3.6 8 8 8h16.4v41.3c0 1.3.3 2.6 1 3.8l18.2 33.6c1.4 2.6 4.1 4.2 7 4.2h10.6c4 35 33.8 62.3 69.9 62.3s65.9-27.3 69.9-62.3h37.3c4.4 0 8-3.6 8-8v-7.2h17.5c6.1 20.9 18.6 39.8 35.7 53.6 19.1 15.4 43.1 23.9 67.6 23.9 24.6 0 48.6-8.5 67.6-23.9 17.1-13.8 29.6-32.7 35.7-53.6h33.6c4.4 0 8-3.6 8-8v-44.1c0-4.4-3.6-8-8-8zm-488-23.7v-53h8.4v53zm351-37.8c26 0 49.6 10.6 66.4 28.3.5.8 1.2 1.6 2 2.1 7.9 8.9 14.2 19.4 18.2 31.1h-173.2c12.7-36.2 47.6-61.5 86.6-61.5zm92.4-16.6v11.1h-11.2v-11.1zm-27.2 22.6c-18.6-14.2-41.6-22-65.2-22-23.5 0-46.5 7.8-65.2 22v-40.7h130.3v40.7zm-76.7-126.7h12.8 10.2v70h-23zm-224.4 303.9c-30 0-54.3-24.4-54.3-54.3s24.4-54.3 54.3-54.3 54.3 24.4 54.3 54.3-24.3 54.3-54.3 54.3zm99.1-62.3h-29.2c-4-35-33.8-62.3-69.9-62.3s-65.9 27.3-69.9 62.3h-5.9l-15-27.8v-165.6h83.5v15.4c0 1.9.7 3.8 2 5.3l48.9 55.7c1.5 1.7 3.7 2.7 6 2.7h49.4v114.3zm-45.8-130.4-44.5-50.7v-87.3h102.8l68.5 85.8v10.9h-17.4c-4.4 0-8 3.6-8 8v63.7c-10.2 11.8-17.8 25.6-22.2 40.6h-17.5v-63c0-4.4-3.6-8-8-8zm182.6 192.7c-39 0-73.9-25.4-86.6-61.6h173.1c-12.6 36.2-47.5 61.6-86.5 61.6zm129-77.6h-249.8v-28.1h23.5 194.4 31.9zm-219.7-190.1c1.3-2.8 1-6.1-1-8.5l-35.1-44c-1.5-1.9-3.8-3-6.3-3h-73.9c-4.4 0-8 3.6-8 8v44c0 4.4 3.6 8 8 8h109c3.2 0 6-1.7 7.3-4.5zm-108.1-11.4v-28h62l22.3 28zm79.1 46.6h-22.4c-4.4 0-8-3.6-8-8s3.6-8 8-8h22.4c4.4 0 8 3.6 8 8s-3.6 8-8 8zm-154.9 34.4c0 4.4-3.6 8-8 8h-22.4c-4.4 0-8-3.6-8-8s3.6-8 8-8h22.4c4.4 0 8 3.6 8 8zm0 26.2c0 4.4-3.6 8-8 8h-22.4c-4.4 0-8-3.6-8-8s3.6-8 8-8h22.4c4.4 0 8 3.6 8 8zm0 26.2c0 4.4-3.6 8-8 8h-22.4c-4.4 0-8-3.6-8-8s3.6-8 8-8h22.4c4.4 0 8 3.6 8 8z"/></svg>