<svg id="Layer_1" enable-background="new 0 0 512 512" height="512" viewBox="0 0 512 512" width="512" xmlns="http://www.w3.org/2000/svg"><path d="m512.8 271.2c-.1-.5-.3-1.1-.5-1.5l-62-145.7c-1.3-3-4.2-4.9-7.4-4.9l-104.7.1c-4.4 0-8 3.6-8 8v186.7h-78.5v-18.7c38.6-7 67.9-40.8 67.9-81.4v-14.2c0-45.6-37.1-82.8-82.8-82.8h-28.7v-18.3c0-4.4-3.6-8-8-8h-79.8c-4.4 0-8 3.6-8 8v18.2h-28.5c-45.7 0-82.8 37.1-82.8 82.8v14.2c0 40.6 29.4 74.4 68 81.4v18.7h-60c-4.4 0-8 3.6-8 8v56.2c0 4.4 3.6 8 8 8h21.9c3.8 20.2 21.5 35.5 42.8 35.5s39-15.3 42.8-35.5h48.5v14.6c0 4.4 3.6 8 8 8h70.8c4.4 0 8-3.6 8-8v-14.6h113.7c3.8 20.2 21.5 35.5 42.7 35.5 21.3 0 39-15.3 42.8-35.5h54c4.4 0 8-3.6 8-8v-105.2c0-.5 0-1.1-.2-1.6zm-15.8 74.4c-6.4 0-13.3-.5-16.3-3.5-.5-.5-2.1-2.1-2.1-7v-7.4c0-4.9 1.6-6.5 2.1-7 3-2.9 9.9-3.4 16.3-3.5zm-4.1-80.8h-89.2v-129.7h34zm-265.9 49.1v-17.4h8.8v17.4zm-117.3 0v-17.4h101.3v17.4zm59.7-181.2v11.3h-18v-11.3zm0 65.9h-18v-11.3h18zm-18 16h18v11.3h-18zm18-43.3h-18v-11.3h18zm-18 70.6h18v11.3h-18zm0 27.3h18v11.3h-18zm152.3-69.7v14.2c0 36.8-30 66.8-66.8 66.8h-51.5v-147.8h51.5c36.8 0 66.8 30 66.8 66.8zm-175.2-93h63.8v10.2h-63.8zm-111.5 107.2v-14.2c0-36.8 30-66.8 66.8-66.8h51.6v147.8h-51.6c-36.8 0-66.8-30-66.8-66.8zm68 82.8h8.7v17.4h-8.7zm-68 33.4h313.3v40.1h-213.9c-3.8-20.2-21.5-35.5-42.8-35.5s-39 15.3-42.8 35.5h-13.8zm56.7 75.6c-15.2 0-27.5-12.3-27.5-27.5s12.3-27.5 27.5-27.5 27.5 12.3 27.5 27.5-12.4 27.5-27.5 27.5zm162.1-12.9h-54.8v-6.6h54.8zm172.4 12.9c-15.2 0-27.5-12.3-27.5-27.5s12.3-27.5 27.5-27.5 27.5 12.3 27.5 27.5-12.3 27.5-27.5 27.5zm42.8-35.5c-3.8-20.2-21.5-35.5-42.8-35.5-21.2 0-39 15.3-42.7 35.5h-19.2v-234.8h41.4v137.7c0 4.4 3.6 8 8 8h101.3v20.5c-9.6 0-20.3.9-27.5 8.1-4.6 4.5-6.9 10.7-6.9 18.4v7.4c0 7.7 2.3 13.9 6.9 18.4 7.2 7.2 18 8.1 27.5 8.1v8.4h-46z"/></svg>