<svg id="Layer_1" enable-background="new 0 0 512 512" height="512" viewBox="0 0 512 512" width="512" xmlns="http://www.w3.org/2000/svg"><path d="m511.9 275.3c-.1-.5-.3-1.1-.5-1.6l-62-145.7c-1.3-3-4.2-4.9-7.4-4.9l-104.7.1c-4.4 0-8 3.6-8 8v159l-72 .6v-12.7c34.4-3 61.5-32 61.5-67.1v-11.3c0-37.2-30.2-67.4-67.4-67.4h-47.8v-33.9c0-4.4-3.6-8-8-8h-72.3c-4.4 0-8 3.6-8 8v33.8h-47.9c-37.2.1-67.4 30.3-67.4 67.5v11.3c0 35.1 27.1 64.1 61.5 67.1v39.9h-53.5c-4.4 0-8 3.6-8 8v56.1c0 4.4 3.6 8 8 8h26.1c3.7 17.9 19.6 31.4 38.6 31.4s34.9-13.5 38.6-31.4h10.1c3.7 17.9 19.6 31.4 38.6 31.4s34.9-13.5 38.6-31.4h170.1c3.7 17.9 19.6 31.3 38.5 31.3s34.8-13.5 38.5-31.3h58.3c4.4 0 8-3.6 8-8v-105.2c0-.5 0-1.1-.1-1.6zm-15.9 74.5c-6.4 0-13.3-.5-16.3-3.5-.5-.5-2.1-2.1-2.1-7v-7.4c0-4.9 1.6-6.5 2.1-7 3-2.9 9.9-3.4 16.3-3.5zm-4.1-80.9h-89.2v-129.6h34zm-162.6 65.2v40.1h-49.4v-40.1zm-251.8-185.8h163.8v114.1h-163.8zm225.2 51.4v11.3c0 26.3-19.9 48.1-45.4 51v-113.4c25.5 3 45.4 24.8 45.4 51.1zm-171.5-93.3h56.3v25.8h-56.3zm-115.2 104.6v-11.3c0-26.3 19.9-48.1 45.4-51v113.3c-25.5-2.9-45.4-24.7-45.4-51zm61.5 67.4h163.8v20.5c0 2.1.9 4.2 2.4 5.7s3.5 2.3 5.6 2.3h.1l79.9-.6v11.7h-251.8zm-61.5 55.7h247.9v40.1h-65.3c-3.7-17.9-19.6-31.4-38.6-31.4s-34.9 13.5-38.6 31.4h-10.1c-3.7-17.9-19.6-31.4-38.6-31.4s-34.9 13.5-38.6 31.4h-18.1zm56.7 71.5c-12.9 0-23.4-10.5-23.4-23.4s10.5-23.4 23.4-23.4 23.4 10.5 23.4 23.4-10.5 23.4-23.4 23.4zm87.3 0c-12.9 0-23.4-10.5-23.4-23.4s10.5-23.4 23.4-23.4 23.4 10.5 23.4 23.4-10.5 23.4-23.4 23.4zm247.2-.1c-12.8 0-23.3-10.5-23.3-23.3 0-12.9 10.4-23.3 23.3-23.3s23.3 10.5 23.3 23.3-10.4 23.3-23.3 23.3zm38.5-31.4c-3.7-17.9-19.6-31.3-38.5-31.3s-34.8 13.5-38.5 31.3h-23.4v-234.8h41.4v137.6c0 4.4 3.6 8 8 8h101.3v20.5c-9.6 0-20.3.9-27.5 8.1-4.6 4.5-6.9 10.7-6.9 18.4v7.4c0 7.7 2.3 13.9 6.9 18.4 7.2 7.2 18 8.1 27.5 8.1v8.4h-50.3z"/></svg>