<svg id="Layer_1" enable-background="new 0 0 512 512" height="512" viewBox="0 0 512 512" width="512" xmlns="http://www.w3.org/2000/svg"><path d="m511.8 293.3c-.1-.5-.3-1.1-.5-1.6l-57.5-135.1c-1.3-2.9-4.2-4.9-7.4-4.9h-16l-67.8-51.8c-2.4-1.8-5.7-2.2-8.4-.8-2.7 1.3-4.5 4.1-4.5 7.2v45.5h-11c-4.4 0-8 3.6-8 8v190.9h-49.9v-31.7h20.7c4.4 0 8-3.6 8-8v-220.6c0-4.4-3.6-8-8-8h-262c-4.4 0-8 3.6-8 8v64h-23.5c-4.4 0-8 3.6-8 8v229.3c0 4.4 3.6 8 8 8h24.3c3.4 17 18.4 29.8 36.4 29.8s33-12.8 36.4-29.8h19.3c3.4 17 18.4 29.8 36.4 29.8s33-12.8 36.4-29.8h180.7c3.4 16.9 18.4 29.7 36.3 29.7 17.7 0 32.5-12.4 36.1-29h53.7c4.4 0 8-3.6 8-8v-97.6c0-.5-.1-1-.2-1.5zm-19.9-6.4h-81.3v-119.2h17.1 13.5zm-126.1-164.4 38.3 29.3h-38.3zm-318.3-24.1h246.1v204.4h-246.1zm-31.5 72h15.6v140.5c0 4.4 3.6 8 8 8h225.4v39.7c0 4.4 3.6 8 8 8h57.9v17.1h-134c-3.9-16.3-18.6-28.4-36.1-28.4s-32.1 12.1-36.1 28.4h-20c-3.9-16.3-18.6-28.4-36.1-28.4s-32.1 12.1-36.1 28.4h-16.5zm52.7 243.2c-11.6 0-21.1-9.5-21.1-21.1 0-11.7 9.5-21.1 21.1-21.1 11.7 0 21.1 9.5 21.1 21.1s-9.5 21.1-21.1 21.1zm92.1 0c-11.6 0-21.1-9.5-21.1-21.1 0-11.7 9.5-21.1 21.1-21.1 11.7 0 21.1 9.5 21.1 21.1s-9.5 21.1-21.1 21.1zm253.5-.1c-11.6 0-21.1-9.4-21.1-21s9.4-21 21.1-21c11.6 0 21 9.4 21 21s-9.4 21-21 21zm81.7-29h-45.6c-3.7-16.6-18.5-29-36.1-29-17.4 0-32.1 12.1-36 28.3h-31.5v-216h47.8v127.1c0 4.4 3.6 8 8 8h93.4zm-242-259v150.4c0 4.4-3.6 8-8 8s-8-3.6-8-8v-150.4c0-4.4 3.6-8 8-8s8 3.6 8 8zm-50.3 0v150.4c0 4.4-3.6 8-8 8s-8-3.6-8-8v-150.4c0-4.4 3.6-8 8-8s8 3.6 8 8zm-50.3 0v150.4c0 4.4-3.6 8-8 8s-8-3.6-8-8v-150.4c0-4.4 3.6-8 8-8s8 3.6 8 8zm-50.2 0v150.4c0 4.4-3.6 8-8 8s-8-3.6-8-8v-150.4c0-4.4 3.6-8 8-8s8 3.6 8 8z"/></svg>