<svg id="Layer_1" enable-background="new 0 0 512 512" height="512" viewBox="0 0 512 512" width="512" xmlns="http://www.w3.org/2000/svg"><path d="m512.8 347.5c-.1-.5-.3-1.1-.5-1.6l-51.6-121.2c-1.3-2.9-4.2-4.9-7.4-4.9l-87.1.1c-4.4 0-8 3.6-8 8v127.5h-22.8l.1-36.6h4c4.4 0 8-3.6 8-8v-103.1c0-3.1-1.8-5.9-4.6-7.2s-6.1-.9-8.5 1.1l-21.4 17.8c-1.8 1.5-2.9 3.8-2.9 6.1v85.4c0 4.4 3.6 8 8 8h1.4l-.1 44.5c0 2.1.8 4.2 2.3 5.7s3.5 2.3 5.7 2.3h30.8v10.6h-44.2l-31.3-44.4c-2.5-3.6-7.5-4.5-11.1-1.9l-4 2.8-10.4-14.8 29.3-10.3c3.3-1.2 5.4-4.3 5.3-7.7l-4.2-166 21.4-7.6c3.2-1.1 5.3-4.2 5.3-7.6l-.1-31.9 36.6-12.9c2-.7 3.6-2.2 4.6-4.1s1-4.1.3-6.1l-8.1-23c-.7-2-2.2-3.6-4.1-4.6-1.9-.9-4.1-1-6.1-.3l-58.2 20.6c-3.2 1.1-5.3 4.2-5.3 7.6l.1 31.9-252.8 89.3c-2.8 1-4.8 3.4-5.2 6.3l-14.9 96.6c-.4 2.8.6 5.6 2.8 7.4 1.5 1.2 3.3 1.8 5.1 1.8.9 0 1.8-.2 2.7-.5l23.8-8.4c2.7-1 4.7-3.3 5.2-6.1l1.5-8.4 5.4 7c21.1 27.6 42.2 55.1 63.3 82.7 1.5 2 3.9 3.1 6.3 3.1.9 0 1.8-.1 2.7-.5l40.4-14.3 16.9 24.1h-70.2c-4.4 0-8 3.6-8 8v46.7c0 4.4 3.6 8 8 8h20.6c3.6 15 17.1 26.1 33.1 26.1 16.1 0 29.6-11.2 33.2-26.1h6.3c3.6 15 17.1 26.1 33.1 26.1 16.1 0 29.6-11.2 33.2-26.1h124.7c3.6 14.9 17.1 26.1 33.1 26.1s29.5-11.1 33.1-26.1h47.6c4.4 0 8-3.6 8-8v-87.5c0-.4-.1-1-.2-1.5zm-186.6-118.3 5.4-4.5v78.2h-3.9-1.4v-73.7zm170.8 179.1c-4.6-.1-9.3-.6-11.3-2.5-.9-.9-1.4-2.5-1.4-4.9v-6.2c0-2.3.5-4 1.4-4.9 1.9-1.9 6.6-2.4 11.3-2.5zm-4.1-67.2h-70.8v-105.2h26zm-134.6 87.5h-23.8v-30.6h23.8zm-84-75.3 20.2 28.7h-11.5l-16.4-23.3zm-255.4-70.2 12.1-78.7 253.5-89.5c3.2-1.1 5.3-4.2 5.3-7.6l-.1-31.9 45.3-16 2.8 7.9-34.4 12.1c-3.2 1.1-5.3 4.2-5.3 7.6l.1 31.9-255.2 90.1c-2.7 1-4.7 3.3-5.2 6.1l-12 65.5zm41.4-6.1-14.2-18.5 6.6-35.9 219-77.3 3.9 155-155.5 54.9c-20-26.1-39.9-52.1-59.8-78.2zm115.7 75.3 66.1-23.3c.2 1.1.6 2.1 1.3 3.1l11 15.6-3.6 2.6c-1.7 1.2-2.9 3.1-3.3 5.2s.1 4.2 1.3 6l14.5 20.6h-66.6zm-60.9 45.7h203.5v30.7h-51.9c-3.6-15-17.1-26.1-33.2-26.1s-29.5 11.2-33.1 26.1h-6.3c-3.6-15-17.1-26.1-33.2-26.1s-29.5 11.2-33.1 26.1h-12.6v-30.7zm45.8 56.8c-10 0-18.1-8.1-18.1-18.1s8.1-18.1 18.1-18.1 18.1 8.1 18.1 18.1-8.1 18.1-18.1 18.1zm72.6 0c-10 0-18.1-8.1-18.1-18.1s8.1-18.1 18.1-18.1 18.1 8.1 18.1 18.1-8.1 18.1-18.1 18.1zm191-.1c-10 0-18.1-8.1-18.1-18.1s8.1-18.1 18.1-18.1 18.1 8.1 18.1 18.1-8.1 18.1-18.1 18.1zm33.1-26.1c-3.6-14.9-17.1-26.1-33.1-26.1s-29.5 11.1-33.1 26.1h-17.1v-192.6h31.7v113.1c0 4.4 3.6 8 8 8h83v14.4c-7.9.1-16.5 1.1-22.5 7.1-4.1 4-6.1 9.5-6.1 16.2v6.2c0 6.8 2.1 12.2 6.1 16.2 6 6 14.6 7 22.5 7.1v4.3zm-199.6-148.2c.1 4.4-3.4 8.1-7.8 8.2-.1 0-.1 0-.2 0-4.3 0-7.9-3.4-8-7.8l-2.5-98.2c-.1-4.4 3.4-8.1 7.8-8.2s8.1 3.4 8.2 7.8zm-46.3-82.7 2.5 98.2c.1 4.4-3.4 8.1-7.8 8.2-.1 0-.1 0-.2 0-4.3 0-7.9-3.4-8-7.8l-2.5-98.2c-.1-4.4 3.4-8.1 7.8-8.2s8.1 3.4 8.2 7.8zm-43.8 15.4 2.5 98.2c.1 4.4-3.4 8.1-7.8 8.2-.1 0-.1 0-.2 0-4.3 0-7.9-3.4-8-7.8l-2.5-98.2c-.1-4.4 3.4-8.1 7.8-8.2s8.1 3.4 8.2 7.8zm-43.8 15.5 2.5 98.2c.1 4.4-3.4 8.1-7.8 8.2-.1 0-.1 0-.2 0-4.3 0-7.9-3.4-8-7.8l-2.5-98.2c-.1-4.4 3.4-8.1 7.8-8.2s8.1 3.4 8.2 7.8z"/></svg>