<svg height="512" viewBox="0 0 64 64" width="512" xmlns="http://www.w3.org/2000/svg"><g id="_16" data-name="16"><path d="m62.51 19.87a1 1 0 0 0 -.61-.46l-2.9-.76a1 1 0 0 0 -.58 0l-3.12 1.11-17.8-4.63-2.2-2.46a1 1 0 0 0 -.5-.3l-9.68-2.52a1 1 0 0 0 -.75.11 1 1 0 0 0 -.47.61l-.75 2.9a1 1 0 0 0 .72 1.22l3.87 1-3.52 13.56a1 1 0 0 0 .72 1.22l5 1.3-5.48 8.23h-4.46v-15a1 1 0 0 0 -1-1h-9a9 9 0 0 0 -9 9v16a1 1 0 0 0 1 1h6.1a5 5 0 0 0 9.8 0h3.1v1a1 1 0 0 0 1 1h8a1 1 0 0 0 1-1v-1h2.1a5 5 0 0 0 9.8 0h2.2a5 5 0 0 0 9.8 0h2.1a1 1 0 0 0 1-1v-8a1 1 0 0 0 -1-1h-1v-1.46l.88.22a.72.72 0 0 0 .25 0 1 1 0 0 0 1-.74l4.52-17.43a1 1 0 0 0 -.14-.72zm-8.51 20.13h-27.13l5-7.45a.85.85 0 0 0 .11-.26l22.02 5.71z" fill="#263238"/><circle cx="13" cy="49" fill="#b0bec5" r="3"/><circle cx="38" cy="49" fill="#b0bec5" r="3"/><circle cx="50" cy="49" fill="#b0bec5" r="3"/><path d="m13 48a1 1 0 1 0 1 1 1 1 0 0 0 -1-1z" fill="#263238"/><path d="m38 48a1 1 0 1 0 1 1 1 1 0 0 0 -1-1z" fill="#263238"/><path d="m50 48a1 1 0 1 0 1 1 1 1 0 0 0 -1-1z" fill="#263238"/><path d="m3 38h8a1 1 0 0 0 .83-.45l1.71-2.55h4.46v5h-15z" fill="#ffb74d"/><path d="m14 26h4v7h-4z" fill="#ffb74d"/><path d="m10 26h2v7.7l-1.54 2.3h-7.46v-3a7 7 0 0 1 7-7z" fill="#ffe0b2"/><path d="m29 50h-6v-1-1h6v1z" fill="#fb8c00"/><path d="m56.41 36.58-30-7.8 3.52-13.55a1 1 0 0 0 -.72-1.23l-3.87-1 .25-1 8.41 2.23 2.2 2.46a1 1 0 0 0 .49.3l18.39 4.78a1 1 0 0 0 .58 0l3.12-1.09 1.64.43z" fill="#fb8c00"/><g fill="#263238"><path d="m41.32 20.28a1 1 0 0 0 -1.22.72l-2 7.7a1.07 1.07 0 0 0 0 .25 1 1 0 0 0 2 .22l2-7.68a1 1 0 0 0 -.78-1.21z"/><path d="m35.05 18.2a1 1 0 0 0 -1.22.72l-2 7.72a1 1 0 0 0 .71 1.22 1.15 1.15 0 0 0 .26 0 1 1 0 0 0 1-.75l2-7.72a1 1 0 0 0 -.75-1.19z"/><path d="m47.62 21.91a1 1 0 0 0 -1.22.72l-2 7.71a1 1 0 0 0 .72 1.22 1.07 1.07 0 0 0 .25 0 1 1 0 0 0 1-.75l2-7.71a1 1 0 0 0 -.75-1.19z"/><path d="m53.92 23.56a1 1 0 0 0 -1.22.72l-2 7.72a1 1 0 0 0 .71 1.22 1.15 1.15 0 0 0 .26 0 1 1 0 0 0 1-.75l2-7.69a1 1 0 0 0 -.75-1.22z"/></g><path d="m56 42v6h-1.1a5 5 0 0 0 -9.8 0h-2.2a5 5 0 0 0 -9.8 0h-2.1v-1a1 1 0 0 0 -1-1h-8a1 1 0 0 0 -1 1v1h-3.1a5 5 0 0 0 -9.8 0h-5.1v-6z" fill="#ffb74d"/></g></svg>