<svg height="512" viewBox="0 0 64 64" width="512" xmlns="http://www.w3.org/2000/svg"><g id="_20" data-name="20"><path d="m61 37h-4.71a5 5 0 0 0 .94-2.26 4.44 4.44 0 0 0 .06-.74h1.71a1 1 0 0 0 1-1v-7a1 1 0 0 0 -.69-.95l-5.48-1.78v-9.27a1 1 0 0 0 -1-1h-15.43a1 1 0 0 0 0 2h3.6a7.65 7.65 0 0 0 -2.52 5.67v7.33h-1.48a7.76 7.76 0 0 0 -14.81 1 7.55 7.55 0 0 0 -.25 2 8.06 8.06 0 0 0 2.67 6h-5.61v-15a1 1 0 0 0 -1-1h-7a9 9 0 0 0 -9 9v15a1 1 0 0 0 1 1h6.1a5 5 0 0 0 9.8 0h3.1v1a1 1 0 0 0 1 1h8a1 1 0 0 0 1-1v-1h2.1a5 5 0 0 0 9.8 0h3.2a5 5 0 0 0 9.8 0h4.1a1 1 0 0 0 1-1v-7a1 1 0 0 0 -1-1zm-26.11 0a7.86 7.86 0 0 0 2.11-3h10.49a5 5 0 0 0 1 3z" fill="#263238"/><path d="m40.46 25h7.26v2h-7.26z" fill="#ffb74d"/><path d="m49.49 34a2.31 2.31 0 0 1 .07-.64v-.12a2.86 2.86 0 0 1 5.6 0 2.72 2.72 0 0 1 .1.72 2.29 2.29 0 0 1 0 .43 2.89 2.89 0 0 1 -5.77-.39z" fill="#b0bec5"/><path d="m49.71 15h2.11v8h-2.11z" fill="#ffb74d"/><path d="m40.46 20.67a5.67 5.67 0 0 1 5.67-5.67h1.58v8h-7.25z" fill="#ffe0b2"/><g fill="#ffb74d"><path d="m38.46 32h-8.26a1 1 0 0 1 -1.06-1 1 1 0 0 1 .32-.7 1 1 0 0 1 .74-.3h8.26z"/><path d="m23.93 31a5.61 5.61 0 0 1 .19-1.48 5.76 5.76 0 0 1 10.68-1.52h-4.6a3 3 0 0 0 -2.14.86 2.94 2.94 0 0 0 -.92 2.14 3 3 0 0 0 3.06 3h4.6a5.79 5.79 0 0 1 -5 3 5.92 5.92 0 0 1 -5.87-6z"/><path d="m4 35h8a1 1 0 0 0 .83-.45l1.71-2.55h2.46v5h-13z"/><path d="m15 23h2v7h-2z"/></g><path d="m11 23h2v7.7l-1.54 2.3h-7.46v-3a7 7 0 0 1 7-7z" fill="#ffe0b2"/><circle cx="14" cy="45" fill="#b0bec5" r="3"/><path d="m30 46h-6v-1-1h6v1z" fill="#fb8c00"/><path d="m60 39v5h-3.1a5 5 0 0 0 -9.8 0h-3.2a5 5 0 0 0 -9.8 0h-2.1v-1a1 1 0 0 0 -1-1h-8a1 1 0 0 0 -1 1v1h-3.1a5 5 0 0 0 -9.8 0h-5.1v-5z" fill="#ffb74d"/><circle cx="39" cy="45" fill="#b0bec5" r="3"/><circle cx="52" cy="45" fill="#b0bec5" r="3"/><path d="m14 44a1 1 0 1 0 1 1 1 1 0 0 0 -1-1z" fill="#263238"/><path d="m39 44a1 1 0 1 0 1 1 1 1 0 0 0 -1-1z" fill="#263238"/><path d="m52 44a1 1 0 1 0 1 1 1 1 0 0 0 -1-1z" fill="#263238"/><path d="m58 26.73v5.27h-1.2a4.75 4.75 0 0 0 -8.8 0h-7.54v-3h8.25a1 1 0 0 0 1-1v-3h3z" fill="#ffb74d"/></g></svg>