<svg viewBox="0 0 64 64" xmlns="http://www.w3.org/2000/svg"><g id="_01" data-name="01"><path d="m57 44h-7v-1h8a1 1 0 0 0 1-1v-8a1 1 0 0 0 -1-1h-16v-4a1 1 0 0 0 -1-1h-7a7 7 0 0 0 -2.81.6l-11.73-16.6a2.76 2.76 0 0 0 -1.17-1h-.17-.07-.11a3 3 0 0 0 -3.67 1.47l-6.34 12.36a3 3 0 0 0 1.07 3.87v2.3h-2a5 5 0 0 0 -5 5v4a1 1 0 0 0 .65.94 1 1 0 0 0 .35.06 1 1 0 0 0 .75-.34l6.25-7.14 6.25 7.14a1 1 0 0 0 .75.34 1 1 0 0 0 .35-.06 1 1 0 0 0 .65-.94v-4a5 5 0 0 0 -5-5h-2v-1.84a3.49 3.49 0 0 0 .54-.12 3 3 0 0 0 1.74-1.5l4.1-8.08 9.83 13.92a7.34 7.34 0 0 0 -.21 1.62v7a1 1 0 0 0 1 1h10v1h-11a5 5 0 0 0 0 10h30a5 5 0 0 0 0-10z" fill="#263238"/><path d="m4 37.34v-1.34a3 3 0 0 1 3-3h.8z" fill="#fb8c00"/><path d="m13 33a3 3 0 0 1 3 3v1.34l-3.8-4.34z" fill="#fb8c00"/><path d="m49 38.12.78-3.12h2.22 5v6h-8z" fill="#ffb74d"/><path d="m42 35h5.72l-.72 2.76a1 1 0 0 0 0 .24v3h-5z" fill="#ffb74d"/><g fill="#fb8c00"><path d="m48 43v1h-8v-1h1z"/><path d="m11.5 26.64a1 1 0 0 1 -.58.5 1 1 0 0 1 -.77-.06 1 1 0 0 1 -.44-1.35l5.06-10 1.31 1.84z"/><path d="m28.12 31.2-12-17.08a1 1 0 0 1 .23-1.38 1 1 0 0 1 1.4.23l11.73 16.69a5.16 5.16 0 0 0 -1.36 1.54z"/></g><path d="m29 39h6v2h-6z" fill="#ffb74d"/><path d="m35 37h-6v-2a5 5 0 0 1 .24-1.53 5.05 5.05 0 0 1 2.18-2.75h.09a4.86 4.86 0 0 1 2.49-.72h1z" fill="#ffe0b2"/><path d="m37 30h3v11h-3z" fill="#ffb74d"/><path d="m57 52h-30a3 3 0 0 1 0-6h30a3 3 0 0 1 0 6z" fill="#e0e0e0"/><path d="m57 48h-30a1 1 0 0 0 0 2h30a1 1 0 0 0 0-2z" fill="#263238"/></g></svg>