<svg height="512" viewBox="0 0 64 64" width="512" xmlns="http://www.w3.org/2000/svg"><g id="_05" data-name="05"><path d="m57 43h-7v-1h8a1 1 0 0 0 1-1v-8a1 1 0 0 0 -1-1h-9a1 1 0 0 0 -1 .76l-.78 3.24h-5.22v-8a1 1 0 0 0 -1-1h-3a9 9 0 0 0 -7-8.39l-22.88-5.16-.54-.94a2.38 2.38 0 0 0 -4.39.6l-1.19 4.65a1.08 1.08 0 0 0 0 .4l2.77 17.05a4.06 4.06 0 0 0 -1.6 1 4 4 0 0 0 2.83 6.79h10a1 1 0 0 0 .65-1.76l-6.65-5.7v-17l18 6.46a3 3 0 0 1 2 2.82v.47a7 7 0 0 0 -3 5.71v7a1 1 0 0 0 1 1h10v1h-11a5 5 0 0 0 0 10h30a5 5 0 0 0 0-10z" fill="#263238"/><path d="m49.78 34h7.22v6h-8v-2.88z" fill="#ffb74d"/><path d="m42 38h5v2h-5z" fill="#ffb74d"/><g fill="#fb8c00"><path d="m5.13 13.6a.39.39 0 0 1 .33-.3.36.36 0 0 1 .38.2l.76 1.32 1.1 1.92.3.52v17.74h-1.24l-2.76-17z"/><path d="m6 41a2 2 0 0 1 -2-2 2 2 0 0 1 2-2h2.63l4.67 4z"/><path d="m28.69 23.11-19-6.83-.11-.2-.16-.27 21.07 4.75a7 7 0 0 1 5.51 6.44 23.46 23.46 0 0 0 -4 .3 5 5 0 0 0 -3.31-4.19z"/></g><path d="m31.51 29.67a4.86 4.86 0 0 1 2.49-.67h1v7h-6v-2a5 5 0 0 1 2.51-4.33z" fill="#ffe0b2"/><path d="m29 38h6v2h-6z" fill="#ffb74d"/><path d="m37 29h3v11h-3z" fill="#ffb74d"/><path d="m40 42h1 7v1h-8z" fill="#fb8c00"/><path d="m57 51h-30a3 3 0 0 1 0-6h30a3 3 0 0 1 0 6z" fill="#b0bec5"/><path d="m57 47h-30a1 1 0 0 0 0 2h30a1 1 0 0 0 0-2z" fill="#263238"/></g></svg>