<svg height="512" viewBox="0 0 64 64" width="512" xmlns="http://www.w3.org/2000/svg"><g id="_08" data-name="08"><path d="m61 45h-6v-26a1 1 0 0 0 -2 0v13h-8.27l-4.56-14.33a11 11 0 0 0 -10.48-7.67h-15.69a1 1 0 0 0 -1 1v16h-6a5 5 0 0 0 -5 5v14a1 1 0 0 0 1 1h2.38a8.49 8.49 0 0 0 16.24 0h12.76a8.49 8.49 0 0 0 16.62-2h2v1a1 1 0 0 0 1 1h7a1 1 0 0 0 0-2zm-26.29-24.71a1 1 0 0 0 -1.42 0l-4 4a1 1 0 0 0 0 1.42 1 1 0 0 0 1.42 0l1.29-1.33 8.41 7.62h-11l-4.7-4.71a1 1 0 0 0 -.71-.29h-5v-10a1 1 0 0 0 -2 0v10h-2v-15h14.69a9 9 0 0 1 8.58 6.27l4.06 12.73-8.88-8 1.26-1.26a1 1 0 0 0 0-1.45zm18.29 22.71h-2.14a8.54 8.54 0 0 0 -5.86-6.62v-2.38h8z" fill="#263238"/><path d="m4 34h1a1 1 0 0 1 0 2h-1z" fill="#fb8c00"/><path d="m13.5 51a6.54 6.54 0 0 1 -6.37-5.2 6.1 6.1 0 0 1 -.13-1.3 6.5 6.5 0 0 1 13 0v.66s-.06.43-.1.64a6.54 6.54 0 0 1 -6.4 5.2z" fill="#b0bec5"/><path d="m22 45c0-.17 0-.33 0-.5a8.5 8.5 0 0 0 -17 0v.5h-1v-7h1a3 3 0 0 0 0-6h-1a3 3 0 0 1 3-3h16.59l4.7 4.71a1 1 0 0 0 .71.29h14v2h-10a1 1 0 0 0 0 2h4a8.48 8.48 0 0 0 -3 6.5v.5z" fill="#ffb74d"/><path d="m42.5 51a6.53 6.53 0 0 1 -6.37-5.21 5.94 5.94 0 0 1 -.13-1.29 6.51 6.51 0 0 1 6.5-6.5h.66s.43.06.64.1a6.5 6.5 0 0 1 -1.3 12.9z" fill="#b0bec5"/><circle cx="13.5" cy="44.5" fill="#263238" r="3.5"/><circle cx="13.5" cy="44.5" fill="#ffe0b2" r="1.5"/><circle cx="42.5" cy="44.5" fill="#263238" r="3.5"/><circle cx="42.5" cy="44.5" fill="#ffe0b2" r="1.5"/></g></svg>