<svg height="512" viewBox="0 0 64 64" width="512" xmlns="http://www.w3.org/2000/svg"><g id="_14" data-name="14"><path d="m59 37h-1.36a10.49 10.49 0 0 0 -6.14-19h-5.5v-2a1 1 0 0 0 -1-1h-7a1 1 0 0 0 -1 1v2h-5.5a10.49 10.49 0 0 0 -6.14 19h-6.36v-15a1 1 0 0 0 -1-1h-7a9 9 0 0 0 -9 9v15a1 1 0 0 0 1 1h6.1a5 5 0 0 0 9.8 0h3.1v1a1 1 0 0 0 1 1h8a1 1 0 0 0 1-1v-1h2.1a5 5 0 0 0 9.8 0h3.2a5 5 0 0 0 9.8 0h2.1a1 1 0 0 0 1-1v-7a1 1 0 0 0 -1-1z" fill="#263238"/><path d="m39 17h5v1h-5z" fill="#ffb74d"/><path d="m23 28.5a8.51 8.51 0 0 1 8.5-8.5h20a8.5 8.5 0 0 1 0 17h-20a8.51 8.51 0 0 1 -8.5-8.5z" fill="#fb8c00"/><path d="m4 35h8a1 1 0 0 0 .83-.45l1.71-2.55h2.46v5h-13z" fill="#ffb74d"/><path d="m15 23h2v7h-2z" fill="#ffb74d"/><path d="m11 23h2v7.7l-1.54 2.3h-7.46v-3a7 7 0 0 1 7-7z" fill="#ffe0b2"/><circle cx="14" cy="45" fill="#b0bec5" r="3"/><path d="m30 46h-6v-1-1h6v1z" fill="#fb8c00"/><circle cx="39" cy="45" fill="#b0bec5" r="3"/><circle cx="52" cy="45" fill="#b0bec5" r="3"/><g fill="#263238"><path d="m14 44a1 1 0 1 0 1 1 1 1 0 0 0 -1-1z"/><path d="m39 44a1 1 0 1 0 1 1 1 1 0 0 0 -1-1z"/><path d="m52 44a1 1 0 1 0 1 1 1 1 0 0 0 -1-1z"/></g><path d="m58 39v5h-1.1a5 5 0 0 0 -9.8 0h-3.2a5 5 0 0 0 -9.8 0h-2.1v-1a1 1 0 0 0 -1-1h-8a1 1 0 0 0 -1 1v1h-3.1a5 5 0 0 0 -9.8 0h-5.1v-5z" fill="#ffb74d"/></g></svg>