<svg viewBox="0 0 64 64" xmlns="http://www.w3.org/2000/svg"><g id="_01" data-name="01"><path d="m61 45h-20.4l8.4-4.75a3 3 0 1 0 -.17-4.36l-30.4-14.38 30.64-4.51h10.93a1 1 0 0 0 1-1v-8a1 1 0 0 0 -1-1h-12a1 1 0 0 0 -1 1v7.28l-29.36 4.32a3 3 0 1 0 -.51 3.51l30.87 14.6a2 2 0 0 0 0 .8l-11.48 6.49h-17.52v-15a1 1 0 0 0 -1-1h-7a9 9 0 0 0 -9 9v15a1 1 0 0 0 1 1h6.1a5 5 0 0 0 9.8 0h3.1v1a1 1 0 0 0 1 1h8a1 1 0 0 0 1-1v-1h2.1a5 5 0 0 0 9.8 0h3.2a5 5 0 0 0 9.8 0h4.1a1 1 0 0 0 1-1v-7a1 1 0 0 0 -1-1z" fill="#263238"/><path d="m49 13h10v2h-10z" fill="#fb8c00"/><path d="m49 9h10v2h-10z" fill="#fb8c00"/><circle cx="15" cy="21" fill="#b0bec5" r="1"/><circle cx="51" cy="38" fill="#b0bec5" r="1"/><path d="m4 45v-2h8a1 1 0 0 0 .83-.45l1.71-2.55h2.46v5z" fill="#ffb74d"/><path d="m15 31h2v7h-2z" fill="#ffb74d"/><path d="m11 31h2v7.7l-1.54 2.3h-7.46v-3a7 7 0 0 1 7-7z" fill="#ffe0b2"/><circle cx="14" cy="53" fill="#b0bec5" r="3"/><path d="m24 52h6v2h-6z" fill="#fb8c00"/><circle cx="39" cy="53" fill="#b0bec5" r="3"/><circle cx="52" cy="53" fill="#b0bec5" r="3"/><path d="m60 52h-3.1a5 5 0 0 0 -9.8 0h-3.2a5 5 0 0 0 -9.8 0h-2.1v-1a1 1 0 0 0 -1-1h-8a1 1 0 0 0 -1 1v1h-3.1a5 5 0 0 0 -9.8 0h-5.1v-5h56z" fill="#ffb74d"/><g fill="#263238"><path d="m14 52a1 1 0 1 0 1 1 1 1 0 0 0 -1-1z"/><path d="m39 52a1 1 0 1 0 1 1 1 1 0 0 0 -1-1z"/><path d="m52 52a1 1 0 1 0 1 1 1 1 0 0 0 -1-1z"/></g></g></svg>