<svg height="512" viewBox="0 0 64 64" width="512" xmlns="http://www.w3.org/2000/svg"><g id="_11" data-name="11"><path d="m53 30.28v-2.28h8a1 1 0 0 0 0-2h-6v-16a1 1 0 0 0 -1-1h-19a1 1 0 0 0 -.94.65l-5.75 15.35h-14.31a9 9 0 0 0 -9 9v10h-1v-5a1 1 0 0 0 -2 0v6a1 1 0 0 0 1 1h5.07a8 8 0 0 0 15.86 0h12.07a1 1 0 0 0 .71-.29 1 1 0 0 0 .29-.71v-1h2.28a11.5 11.5 0 1 0 13.72-13.72zm-3-4.28v-6.5a2.5 2.5 0 0 0 -5 0v7.37a15 15 0 0 0 -7.66 6.13h-3.34v-3a1 1 0 0 0 0-.23l2.22-2.19a1 1 0 0 0 .3-.7 1 1 0 0 0 -.29-.71l-.7-.71 2.85-2.81.7.71a1 1 0 0 0 .71.29 1 1 0 0 0 .71-1.7l-1.4-1.42-1.41-1.42a1 1 0 0 0 -1.42 1.4l.7.71-2.89 2.78-.71-.71a1 1 0 0 0 -.7-.3.94.94 0 0 0 -.71.29l-1.4 1.37 5.13-13.65h17.31v15z" fill="#263238"/><path d="m47.22 26.27h-.22v-6.77a.5.5 0 0 1 1 0v6.64c-.13.01-.18.03-.78.13z" fill="#b0bec5"/><path d="m35 40h-5v-11.59l1.94 1.94.06.06v3.59a1 1 0 0 0 1 1h3.27a15.11 15.11 0 0 0 -1.27 5z" fill="#fb8c00"/><path d="m34.06 26.86-1.4 1.38-1.42-1.42 1.41-1.39z" fill="#b0bec5"/><path d="m14 27h14v13h-5.76a8 8 0 0 0 -12.48 0h-2.76v-1a4 4 0 0 0 .65-7.93 7 7 0 0 1 6.35-4.07z" fill="#ffb74d"/><path d="m7.07 33.06s0 0 0-.06a2 2 0 0 1 1.93 2 2 2 0 0 1 -2 2v-3a7.43 7.43 0 0 1 .07-.94z" fill="#fb8c00"/><path d="m7 42h1.59a7.85 7.85 0 0 0 -.52 2h-1.07z" fill="#ffb74d"/><circle cx="16" cy="45" fill="#b0bec5" r="6"/><path d="m35 44h-11.07a7.81 7.81 0 0 0 -.52-2h11.59z" fill="#ffb74d"/><path d="m37 42v-1a12.94 12.94 0 0 1 12.09-13 9.1 9.1 0 0 1 .91 0h1v2c-.17 0-.33 0-.5 0a11.51 11.51 0 0 0 -11.5 11.5v.5z" fill="#ffb74d"/><circle cx="50.5" cy="41.5" fill="#b0bec5" r="9.5"/><circle cx="16" cy="45" fill="#263238" r="4"/><circle cx="16" cy="45" fill="#ffe0b2" r="2"/><circle cx="50.5" cy="41.5" fill="#263238" r="6.5"/><circle cx="50.5" cy="41.5" fill="#ffe0b2" r="4.5"/></g></svg>