<?xml version="1.0"?>
<svg xmlns="http://www.w3.org/2000/svg" viewBox="0 0 64 64" width="512" height="512"><g id="_01" data-name="01"><path d="M62,22H2a1,1,0,0,0-1,1V39a1,1,0,0,0,1,1H3.67a3.47,3.47,0,0,0,6.79.86A3.46,3.46,0,0,0,17.24,40H18a1,1,0,0,0,1-1V35.33l2-2.66V35a1,1,0,0,0,.11.45l2,4A1,1,0,0,0,24,40h2l0,.1V45a1,1,0,0,0,2,0V42h2v3a1,1,0,0,0,2,0V40.1l0-.1h2a1,1,0,0,0,.83-.45l2-3A1,1,0,0,0,37,36V32.48l1,.41S38,33,38,33v6a1,1,0,0,0,1,1h8.76a3.46,3.46,0,0,0,6.78.86A3.47,3.47,0,0,0,61.33,40H62a1,1,0,0,0,1-1V23A1,1,0,0,0,62,22ZM3,24H61V34H54.22L37.43,26.1A.94.94,0,0,0,37,26H19a1,1,0,0,0-.8.4L12.5,34h-1V27.5a1,1,0,0,0-1-1H6a1,1,0,0,0-1,1V34H3ZM9.5,34H7V28.5H9.5ZM3,36H17v2H3Zm4.14,5.34A1.49,1.49,0,0,1,5.67,40H8.62A1.49,1.49,0,0,1,7.14,41.34Zm6.63,0A1.51,1.51,0,0,1,12.29,40h3A1.49,1.49,0,0,1,13.77,41.34ZM17.5,34H15l4.5-6H36.78l12.75,6H46.19l-9.82-3.93A.94.94,0,0,0,36,30H21a1,1,0,0,0-.8.4ZM31,34H27V32h4Zm-6.38,4L23,34.76V32h2v3s0,.07,0,.11a.27.27,0,0,0,0,.09l.56,2.8ZM28,40a1.36,1.36,0,0,0,0-.2L27.22,36h3.56L30,39.8a1.36,1.36,0,0,0,0,.2Zm7-4.3L33.46,38h-1L33,35.2a.27.27,0,0,0,0-.09S33,35,33,35V32h2Zm5-2,5,2V38H40ZM47,36H61v2H47Zm4.23,5.34A1.49,1.49,0,0,1,49.75,40h3A1.51,1.51,0,0,1,51.23,41.34Zm6.63,0A1.49,1.49,0,0,1,56.38,40h2.95A1.49,1.49,0,0,1,57.86,41.34Z"/><path d="M50.5,31H58a1,1,0,0,0,1-1V26a1,1,0,0,0-1-1H50.5a1,1,0,0,0-1,1v4A1,1,0,0,0,50.5,31Zm1-4H57v2H51.5Z"/></g></svg>
