<svg xmlns="http://www.w3.org/2000/svg" viewBox="0 0 64 64"><title>10</title><g id="Layer_37" data-name="Layer 37"><path d="M61,38.41V32a1,1,0,0,0-1-1H55V29a1,1,0,0,0-1-1H50V16a1,1,0,0,0-1-1H38a5,5,0,0,0-5,5v5H23a9,9,0,0,0-9,9v5H12V29a1,1,0,0,0-2-.27L7.8,36.57A30.77,30.77,0,0,1,2.22,47.38a1,1,0,0,0-.09,1.11A1,1,0,0,0,3,49h.12l8-1A1,1,0,0,0,12,47V45h4.69A7,7,0,0,0,23,49H55a7,7,0,0,0,6-10.59ZM10,46.12l-4.8.6a32.76,32.76,0,0,0,4.52-9.6l.28-1ZM55,33h4v3.26A7,7,0,0,0,55,35ZM46,17h2V28H46ZM35,20a3,3,0,0,1,3-3h6V28H35Zm0,10h8.13l-.67,1H35Zm8,3a1,1,0,0,0,.83-.45L45.54,30H53v5H33V33ZM16,34a7,7,0,0,1,7-7H33v4H32a1,1,0,0,0-1,1v3H23a7,7,0,0,0-6.31,4H16Zm-4,9V41H35v2Zm43,4H23a5,5,0,0,1-4-2H36a1,1,0,0,0,1-1V43h3.14a4,4,0,0,0,7.72,0h2.28a4,4,0,1,0,0-2H47.86a4,4,0,0,0-7.72,0H37V40a1,1,0,0,0-1-1H19a5,5,0,0,1,4-2H55a5,5,0,0,1,0,10ZM42,42a2,2,0,1,1,2,2A2,2,0,0,1,42,42Zm10,0a2,2,0,1,1,2,2A2,2,0,0,1,52,42Z"/><path d="M23,30h4a1,1,0,0,0,0-2H23a1,1,0,0,0,0,2Z"/><path d="M23,33h4a1,1,0,0,0,0-2H23a1,1,0,0,0,0,2Z"/></g></svg>