<?xml version="1.0"?>
<svg xmlns="http://www.w3.org/2000/svg" viewBox="0 0 64 64" width="512" height="512"><g id="_01" data-name="01"><path d="M53,30.28V28h8a1,1,0,0,0,0-2H55V10a1,1,0,0,0-1-1H35a1,1,0,0,0-.94.65L28.31,25H14a9,9,0,0,0-9,9V44H4V39a1,1,0,0,0-2,0v6a1,1,0,0,0,1,1H8.07a8,8,0,0,0,15.86,0H36a1,1,0,0,0,.71-.29A1,1,0,0,0,37,45V44h2.28A11.5,11.5,0,1,0,53,30.28ZM35.69,11H53V26H50V19.5a2.5,2.5,0,0,0-5,0v7.37A15,15,0,0,0,37.34,33H34V30a1,1,0,0,0,0-.23l2.22-2.19a1,1,0,0,0,.3-.7,1,1,0,0,0-.29-.71l-.7-.71,2.85-2.81.7.71a1,1,0,0,0,.71.29,1,1,0,0,0,.71-1.7l-1.4-1.42h0l-1.41-1.42a1,1,0,0,0-1.42,1.4l.7.71L34.08,24l-.71-.71a1,1,0,0,0-.7-.3.94.94,0,0,0-.71.29l-1.4,1.37ZM47.22,26.27l-.22,0V19.5a.5.5,0,0,1,1,0v6.64l-.5.08ZM35,40H30V28.41l1.94,1.94h0l.06.06V34a1,1,0,0,0,1,1h3.27A15.11,15.11,0,0,0,35,40Zm-1-13.14-1.41,1.38-1.41-1.41,1.41-1.4ZM14,27H28V40H22.24A8,8,0,0,0,9.76,40H7V39a4,4,0,0,0,.65-7.93A7,7,0,0,1,14,27ZM7.07,33.06s0,0,0-.06A2,2,0,0,1,9,35a2,2,0,0,1-2,2V34A7.43,7.43,0,0,1,7.07,33.06ZM7,42H8.59a7.85,7.85,0,0,0-.52,2H7Zm9,9a6,6,0,1,1,6-6A6,6,0,0,1,16,51Zm19-7L23.93,44a7.81,7.81,0,0,0-.52-2H35Zm2-2V41A12.94,12.94,0,0,1,49.09,28,9.1,9.1,0,0,1,50,28h1v2c-.17,0-.33,0-.5,0A11.51,11.51,0,0,0,39,41.5c0,.17,0,.33,0,.5Zm13.5,9A9.5,9.5,0,1,1,60,41.5,9.51,9.51,0,0,1,50.5,51Z"/><path d="M16,41a4,4,0,1,0,4,4A4,4,0,0,0,16,41Zm0,6a2,2,0,1,1,2-2A2,2,0,0,1,16,47Z"/><path d="M50.5,35A6.5,6.5,0,1,0,57,41.5,6.51,6.51,0,0,0,50.5,35Zm0,11A4.5,4.5,0,1,1,55,41.5,4.51,4.51,0,0,1,50.5,46Z"/></g></svg>
