<svg xmlns="http://www.w3.org/2000/svg" viewBox="0 0 64 64"><title>12</title><g id="Layer_37" data-name="Layer 37"><path d="M61,45H40.6L49,40.25a3,3,0,1,0-.17-4.36L18.43,21.51,49.07,17H60a1,1,0,0,0,1-1V8a1,1,0,0,0-1-1H48a1,1,0,0,0-1,1v7.28L17.64,19.6a3,3,0,1,0-.51,3.51L48,37.71a2,2,0,0,0,0,.8L36.52,45H19V30a1,1,0,0,0-1-1H11a9,9,0,0,0-9,9V53a1,1,0,0,0,1,1H9.1a5,5,0,0,0,9.8,0H22v1a1,1,0,0,0,1,1h8a1,1,0,0,0,1-1V54h2.1a5,5,0,0,0,9.8,0h3.2a5,5,0,0,0,9.8,0H61a1,1,0,0,0,1-1V46A1,1,0,0,0,61,45ZM49,15V13H59v2ZM59,9v2H49V9ZM15,22a1,1,0,1,1,1-1A1,1,0,0,1,15,22ZM51,37a1,1,0,1,1-1,1A1,1,0,0,1,51,37ZM4,45V43h8a1,1,0,0,0,.83-.45L14.54,40H17v5Zm13-7H15V31h2Zm-6-7h2v7.7L11.46,41H4V38A7,7,0,0,1,11,31Zm3,25a3,3,0,1,1,3-3A3,3,0,0,1,14,56Zm16-2H24V52h6Zm9,2a3,3,0,1,1,3-3A3,3,0,0,1,39,56Zm13,0a3,3,0,1,1,3-3A3,3,0,0,1,52,56Zm8-4H56.9a5,5,0,0,0-9.8,0H43.9a5,5,0,0,0-9.8,0H32V51a1,1,0,0,0-1-1H23a1,1,0,0,0-1,1v1H18.9a5,5,0,0,0-9.8,0H4V47H60Z"/><path d="M14,52h0a1,1,0,1,0,1,1A1,1,0,0,0,14,52Z"/><path d="M39,52h0a1,1,0,1,0,1,1A1,1,0,0,0,39,52Z"/><path d="M52,52h0a1,1,0,1,0,1,1A1,1,0,0,0,52,52Z"/></g></svg>