<?xml version="1.0"?>
<svg xmlns="http://www.w3.org/2000/svg" viewBox="0 0 64 64" width="512" height="512"><g id="_01" data-name="01"><path d="M57,44H50V43h8a1,1,0,0,0,1-1V34a1,1,0,0,0-1-1H42V29a1,1,0,0,0-1-1H34a7,7,0,0,0-2.81.6L19.46,12a2.76,2.76,0,0,0-1.17-1L18.12,11l-.07,0h-.11a3,3,0,0,0-3.67,1.47L7.93,24.83A3,3,0,0,0,9,28.7V31H7a5,5,0,0,0-5,5v4a1,1,0,0,0,.65.94A1,1,0,0,0,3,41a1,1,0,0,0,.75-.34L10,33.52l6.25,7.14A1,1,0,0,0,17,41a1,1,0,0,0,.35-.06A1,1,0,0,0,18,40V36a5,5,0,0,0-5-5H11V29.16a3.49,3.49,0,0,0,.54-.12,3,3,0,0,0,1.74-1.5l4.1-8.08,9.83,13.92A7.34,7.34,0,0,0,27,35v7a1,1,0,0,0,1,1H38v1H27a5,5,0,0,0,0,10H57a5,5,0,0,0,0-10Zm-5-9h5v6H49V38.12L49.78,35Zm-4.28,0L47,37.76A1,1,0,0,0,47,38v3H42V35ZM35,30v7H29V35a5,5,0,0,1,.24-1.53,5.05,5.05,0,0,1,2.18-2.75l.09,0A4.86,4.86,0,0,1,34,30Zm-5.52-.34a.46.46,0,0,1-.07.07c-.09.08-.17.17-.25.25a6.06,6.06,0,0,0-.55.58l-.26.34-.23.3L16.21,14.33v0h0a1,1,0,0,1-.17-.74,1,1,0,0,1,.42-.66,1.15,1.15,0,0,1,.25-.12l.08,0a.58.58,0,0,1,.19,0h.09l.19,0,.08,0h0l.11.05a.86.86,0,0,1,.37.32ZM4,37.34V36a3,3,0,0,1,3-3h.8ZM13,33a3,3,0,0,1,3,3v1.34L12.2,33Zm-1.5-6.36a1,1,0,0,1-.58.5,1,1,0,0,1-.77-.06,1,1,0,0,1-.44-1.35l5.06-10,1.31,1.84ZM29,39h6v2H29Zm8,2V30h3V41Zm3,2h8v1H40Zm17,9H27a3,3,0,0,1,0-6H57a3,3,0,0,1,0,6Z"/><path d="M57,48H27a1,1,0,0,0,0,2H57a1,1,0,0,0,0-2Z"/></g></svg>
