<svg xmlns="http://www.w3.org/2000/svg" viewBox="0 0 64 64"><title>14</title><g id="Layer_37" data-name="Layer 37"><path d="M59,37H57.64A10.49,10.49,0,0,0,51.5,18H46V15a1,1,0,0,0-1-1H38a1,1,0,0,0-1,1v3H31.5a10.49,10.49,0,0,0-6.14,19H19V22a1,1,0,0,0-1-1H11a9,9,0,0,0-9,9V45a1,1,0,0,0,1,1H9.1a5,5,0,0,0,9.8,0H22v1a1,1,0,0,0,1,1h8a1,1,0,0,0,1-1V46h2.1a5,5,0,0,0,9.8,0h3.2a5,5,0,0,0,9.8,0H59a1,1,0,0,0,1-1V38A1,1,0,0,0,59,37ZM39,16h5v2H39ZM23,28.5A8.51,8.51,0,0,1,31.5,20h20a8.5,8.5,0,0,1,0,17h-20A8.51,8.51,0,0,1,23,28.5ZM4,37V35h8a1,1,0,0,0,.83-.45L14.54,32H17v5Zm13-7H15V23h2Zm-6-7h2v7.7L11.46,33H4V30A7,7,0,0,1,11,23Zm3,25a3,3,0,1,1,3-3A3,3,0,0,1,14,48Zm16-2H24V44h6Zm9,2a3,3,0,1,1,3-3A3,3,0,0,1,39,48Zm13,0a3,3,0,1,1,3-3A3,3,0,0,1,52,48Zm6-4H56.9a5,5,0,0,0-9.8,0H43.9a5,5,0,0,0-9.8,0H32V43a1,1,0,0,0-1-1H23a1,1,0,0,0-1,1v1H18.9a5,5,0,0,0-9.8,0H4V39H58Z"/><path d="M14,44a1,1,0,0,0,0,2h0a1,1,0,0,0,0-2Z"/><path d="M39,44a1,1,0,0,0,0,2h0a1,1,0,0,0,0-2Z"/><path d="M52,44h0a1,1,0,1,0,1,1A1,1,0,0,0,52,44Z"/></g></svg>