<?xml version="1.0"?>
<svg xmlns="http://www.w3.org/2000/svg" viewBox="0 0 64 64" width="512" height="512"><g id="_01" data-name="01"><path d="M59,36H55V35h4a1,1,0,0,0,1-1V26a1,1,0,0,0-1-1H47V21a1,1,0,0,0-1-1H39a6.88,6.88,0,0,0-3.55,1l-.1.06a6.8,6.8,0,0,0-2.09,2A1.19,1.19,0,0,0,33,23H29a1,1,0,0,0-1,1v1H25V24a1,1,0,0,0-2,0v1H21V24a1,1,0,0,0-2,0v1H17V24a1,1,0,0,0-2,0v1H13V24a1,1,0,0,0-2,0v1H9V24a1,1,0,0,0-2,0v1a4,4,0,0,0-1.34.25l-1-1a1,1,0,0,0-1.42,1.42l.7.69A4,4,0,0,0,3.14,28H2a1,1,0,0,0,0,2H3.14A4,4,0,0,0,4,31.6l-.7.69a1,1,0,0,0,0,1.42,1,1,0,0,0,1.42,0l1-1A4,4,0,0,0,7,33v1a1,1,0,0,0,2,0V33h2v1a1,1,0,0,0,2,0V33h2v1a1,1,0,0,0,2,0V33h2v1a1,1,0,0,0,2,0V33h2v1a1,1,0,0,0,2,0V33h3v1a1,1,0,0,0,1,1h8v1H31a4,4,0,0,0,0,8H59a4,4,0,0,0,0-8Zm-1-9v6H47V27ZM45,26v7H42V22h3Zm-8.58-3.28.09,0A4.86,4.86,0,0,1,39,22h1v7H34V27a5,5,0,0,1,.24-1.53A5.09,5.09,0,0,1,36.42,22.72ZM7,31a2,2,0,0,1,0-4H28v4Zm23,1V25h2v8H30Zm4,1V31h6v2Zm5,2H53v1H39Zm20,7H31a2,2,0,0,1,0-4H59a2,2,0,0,1,0,4Z"/></g></svg>
