<svg xmlns="http://www.w3.org/2000/svg" viewBox="0 0 64 64"><title>16</title><g id="Layer_37" data-name="Layer 37"><path d="M56.51,38.58a1.24,1.24,0,0,0,.27,0,1,1,0,0,0,1-.73l5.09-18.3a1,1,0,0,0-.69-1.23l-3.86-1.08a1,1,0,0,0-.58,0l-3.13,1L37.81,13.65l-2.16-2.5a1,1,0,0,0-.49-.31L26.49,8.42a1,1,0,0,0-.76.1,1,1,0,0,0-.47.6L24.19,13a1,1,0,0,0,.69,1.23l4.82,1.34L26,29a1,1,0,0,0,.69,1.23l3.12.87L24.43,40H20V25a1,1,0,0,0-1-1H10a9,9,0,0,0-9,9V49a1,1,0,0,0,1,1H8.1a5,5,0,0,0,9.8,0H21v1a1,1,0,0,0,1,1h8a1,1,0,0,0,1-1V50h2.1a5,5,0,0,0,9.8,0h2.2a5,5,0,0,0,9.8,0H57a1,1,0,0,0,1-1V41a1,1,0,0,0-1-1H56V38.43ZM31.75,31.69,54,37.88V40H26.77ZM14,26h4v7H14ZM3,33a7,7,0,0,1,7-7h2v7.7L10.46,36H3Zm0,5h8a1,1,0,0,0,.83-.45L13.54,35H18v5H3ZM13,52a3,3,0,1,1,3-3A3,3,0,0,1,13,52Zm16-2H23V48h6Zm9,2a3,3,0,1,1,3-3A3,3,0,0,1,38,52Zm12,0a3,3,0,1,1,3-3A3,3,0,0,1,50,52Zm6-4H54.9a5,5,0,0,0-9.8,0H42.9a5,5,0,0,0-9.8,0H31V47a1,1,0,0,0-1-1H22a1,1,0,0,0-1,1v1H17.9a5,5,0,0,0-9.8,0H3V42H56ZM28.14,28.6,31.9,15.12a1,1,0,0,0-.7-1.23l-4.82-1.34.54-1.93,7.42,2.06,2.15,2.5a1.08,1.08,0,0,0,.49.32l17.34,4.82a1,1,0,0,0,.58,0l3.14-1,2.6.72L56.08,36.38Z"/><path d="M36.18,18.39a1,1,0,0,0-1.24.69l-1.87,6.74a1,1,0,0,0,.69,1.24,1.24,1.24,0,0,0,.27,0,1,1,0,0,0,1-.73l1.88-6.74A1,1,0,0,0,36.18,18.39Z"/><path d="M42,20a1,1,0,0,0-1.23.7l-1.88,6.74a1,1,0,0,0,.69,1.23.84.84,0,0,0,.27,0,1,1,0,0,0,1-.73l1.88-6.74A1,1,0,0,0,42,20Z"/><path d="M47.74,21.6a1,1,0,0,0-1.23.7L44.63,29a1,1,0,0,0,.69,1.23.84.84,0,0,0,.27,0,1,1,0,0,0,1-.73l1.87-6.75A1,1,0,0,0,47.74,21.6Z"/><path d="M53.52,23.21a1,1,0,0,0-1.23.7l-1.88,6.74a1,1,0,0,0,.69,1.23.84.84,0,0,0,.27,0,1,1,0,0,0,1-.73l1.87-6.75A1,1,0,0,0,53.52,23.21Z"/><path d="M13,48h0a1,1,0,1,0,1,1A1,1,0,0,0,13,48Z"/><path d="M38,48h0a1,1,0,1,0,1,1A1,1,0,0,0,38,48Z"/><path d="M50,48h0a1,1,0,1,0,1,1A1,1,0,0,0,50,48Z"/></g></svg>