<svg xmlns="http://www.w3.org/2000/svg" viewBox="0 0 64 64"><title>17</title><g id="Layer_37" data-name="Layer 37"><path d="M54,43H47V42h8a1,1,0,0,0,1-1V33a1,1,0,0,0-1-1H39V28a1,1,0,0,0-1-1H31a7.49,7.49,0,0,0-2.42.43L16.46,10.5A3,3,0,0,0,14,9.25a2.9,2.9,0,0,0-1.71.54l-.21.15a3,3,0,0,0-1,1.61L3.4,24.89A3,3,0,0,0,4.49,29,3.27,3.27,0,0,0,5,29.2V31a1,1,0,0,0,.55.89l.21.11L3.55,33.11a1,1,0,0,0,0,1.78L5.76,36,3.55,37.11a1,1,0,0,0,0,1.78L5.76,40,3.55,41.11a1,1,0,0,0,0,1.78L5.76,44l-.21.11A1,1,0,0,0,5,45v3a1,1,0,0,0,2,0V45.62l1.45-.73a1,1,0,0,0,0-1.78L6.24,42l2.21-1.11a1,1,0,0,0,0-1.78L6.24,38l2.21-1.11a1,1,0,0,0,0-1.78L6.24,34l2.21-1.11a1,1,0,0,0,0-1.78L7,30.38V29.19a3,3,0,0,0,1.6-1.3l5.77-10,10,13.92v0A7.37,7.37,0,0,0,24,34v7a1,1,0,0,0,1,1H35v1H24a5,5,0,0,0,0,10H54a5,5,0,0,0,0-10Zm-9-5.85L46,34h8v6H45ZM43.87,34,43,36.71A.92.92,0,0,0,43,37v3H39V34ZM32,36H26V34a5,5,0,0,1,5-5h1ZM6.86,26.89a1,1,0,0,1-1.36.36,1,1,0,0,1-.36-1.36l6.67-11.56,1.28,1.79Zm18.52,2.93L13.25,12.9a1,1,0,1,1,1.63-1.17L26.81,28.39h0a6.83,6.83,0,0,0-1.42,1.42S25.39,29.81,25.38,29.82ZM26,40V38h6v2Zm8,0V29h3V40Zm4,2h7v1H37V42Zm16,9H24a3,3,0,0,1,0-6H54a3,3,0,0,1,0,6Z"/><path d="M54,47H24a1,1,0,0,0,0,2H54a1,1,0,0,0,0-2Z"/></g></svg>