<svg xmlns="http://www.w3.org/2000/svg" viewBox="0 0 64 64"><title>18</title><g id="Layer_37" data-name="Layer 37"><path d="M58,43H51V42h8a1,1,0,0,0,1-1V33a1,1,0,0,0-1-1H43V28a1,1,0,0,0-1-1H35a7.28,7.28,0,0,0-1.74.22L9.83,9.93a3.14,3.14,0,0,0-4.22.6,3,3,0,0,0,.49,4.23l.9.73V32.08a7,7,0,1,0,2,0v-15L28.13,32.68A6.42,6.42,0,0,0,28,34v7a1,1,0,0,0,1,1H39v1H28a5,5,0,0,0,0,10H58a5,5,0,0,0,0-10ZM13,39a5,5,0,1,1-5-5A5,5,0,0,1,13,39Zm45,1H49V37.15L50,34h8ZM47.87,34,47,36.71A.92.92,0,0,0,47,37v3H43V34ZM41,33v7H38V29h3Zm-5-4v7H30V34a5.07,5.07,0,0,1,.39-2l0-.06a5.08,5.08,0,0,1,2.28-2.43A4.92,4.92,0,0,1,35,29ZM7.19,11.75a1.09,1.09,0,0,1,1.46-.21L31.18,28.17a7,7,0,0,0-2.32,2.52L8.72,14.31l-.06-.05L7.36,13.2A1,1,0,0,1,7.19,11.75ZM30,38h6v2H30Zm11,4h8v1H41Zm17,9H28a3,3,0,0,1,0-6H58a3,3,0,0,1,0,6Z"/><path d="M58,47H28a1,1,0,0,0,0,2H58a1,1,0,0,0,0-2Z"/></g></svg>