<svg xmlns="http://www.w3.org/2000/svg" viewBox="0 0 64 64"><title>19</title><g id="Layer_37" data-name="Layer 37"><path d="M61,34H19V19a1,1,0,0,0-1-1H11a9,9,0,0,0-9,9V42a1,1,0,0,0,1,1H9.1a5,5,0,0,0,9.8,0H22v1a1,1,0,0,0,1,1h8a1,1,0,0,0,1-1V43h2.1a5,5,0,0,0,9.8,0h3.2a5,5,0,0,0,9.8,0H61a1,1,0,0,0,1-1V35A1,1,0,0,0,61,34ZM4,34V32h8a1,1,0,0,0,.83-.45L14.54,29H17v5Zm13-7H15V20h2Zm-6-7h2v7.7L11.46,30H4V27A7,7,0,0,1,11,20Zm3,25a3,3,0,1,1,3-3A3,3,0,0,1,14,45Zm16-2H24V41h6Zm9,2a3,3,0,1,1,3-3A3,3,0,0,1,39,45Zm13,0a3,3,0,1,1,3-3A3,3,0,0,1,52,45Zm8-4H56.9a5,5,0,0,0-9.8,0H43.9a5,5,0,0,0-9.8,0H32V40a1,1,0,0,0-1-1H23a1,1,0,0,0-1,1v1H18.9a5,5,0,0,0-9.8,0H4V36H60Z"/><path d="M14.71,41.29l-.15-.12-.18-.09a.6.6,0,0,0-.19-.06,1,1,0,0,0-.9.27,1,1,0,0,0-.21.33A.84.84,0,0,0,13,42a1,1,0,0,0,1,1,1,1,0,0,0,.71-.3A1,1,0,0,0,15,42a1,1,0,0,0-.08-.38A1,1,0,0,0,14.71,41.29Z"/><path d="M39.71,41.29l-.15-.12-.18-.09a.6.6,0,0,0-.19-.06,1.05,1.05,0,0,0-.9.27,1,1,0,0,0-.21.33A.84.84,0,0,0,38,42a1,1,0,0,0,.29.71,1.15,1.15,0,0,0,.33.21,1,1,0,0,0,1.3-1.3A1,1,0,0,0,39.71,41.29Z"/><path d="M51.29,41.29A1,1,0,0,0,51,42a1,1,0,0,0,.29.7,1,1,0,0,0,1.42,0A1,1,0,0,0,53,42a1,1,0,0,0-.29-.71A1,1,0,0,0,51.29,41.29Z"/></g></svg>