<svg xmlns="http://www.w3.org/2000/svg" viewBox="0 0 64 64"><title>2</title><g id="Layer_37" data-name="Layer 37"><path d="M16,38a4,4,0,1,0,4,4A4,4,0,0,0,16,38Zm0,6a2,2,0,1,1,2-2A2,2,0,0,1,16,44Z"/><path d="M42,42a4,4,0,1,0,4-4A4,4,0,0,0,42,42Zm6,0a2,2,0,1,1-2-2A2,2,0,0,1,48,42Z"/><path d="M61.71,25.29l-5-5A1,1,0,0,0,56,20H27.45l-6.7-7.66A1,1,0,0,0,20,12H3a1,1,0,0,0-1,1,5,5,0,0,0,5,5H7a4.92,4.92,0,0,0-1,3v7.1A5,5,0,0,0,2,33V48a1,1,0,0,0,2,0V41H7.06A8.26,8.26,0,0,0,7,42a9,9,0,0,0,17.47,3h3.31A3,3,0,0,0,30,46h2a3,3,0,0,0,2.22-1h3.31a9,9,0,1,0,9.78-11.89l3.43-3.44L61.25,27a1,1,0,0,0,.71-.71A1,1,0,0,0,61.71,25.29ZM16.38,18l5,10H8V26h6a1,1,0,0,0,1-1V18ZM13,24H8V21a3,3,0,0,1,3-3h2ZM4,39V33a3,3,0,0,1,3-3H22.38l1.5,3H16a9,9,0,0,0-8.47,6ZM16,49a7,7,0,1,1,7-7A7,7,0,0,1,16,49Zm16-5H30a1,1,0,0,1-1-1V41a1,1,0,0,1,1-1h2a1,1,0,0,1,1,1v2A1,1,0,0,1,32,44Zm21-2a7,7,0,1,1-7-7A7,7,0,0,1,53,42Zm-8.56-8.86A9,9,0,0,0,37,42a8.26,8.26,0,0,0,.06,1H35V41a3,3,0,0,0-3-3H30a3,3,0,0,0-3,3v2H24.94A8.26,8.26,0,0,0,25,42a9,9,0,0,0-3.36-7h3.24l.23.45A1,1,0,0,0,26,36a1.07,1.07,0,0,0,.25,0l20.69-5.32Zm-17.91.69L17.89,16.55A1,1,0,0,0,17,16H7a3,3,0,0,1-2.83-2H19.55l6.7,7.66A1,1,0,0,0,27,22H55.59l3.46,3.47Z"/></g></svg>