<svg xmlns="http://www.w3.org/2000/svg" viewBox="0 0 64 64"><title>20</title><g id="Layer_37" data-name="Layer 37"><path d="M61,37H56a4.92,4.92,0,0,0,1-3h1a1,1,0,0,0,1-1V26a1,1,0,0,0-.68-.95L53,23.28V14a1,1,0,0,0-1-1H37a1,1,0,0,0,0,2h3.11A7,7,0,0,0,38,20v8H36.41a8,8,0,1,0-12.68,9H19V22a1,1,0,0,0-1-1H11a9,9,0,0,0-9,9V45a1,1,0,0,0,1,1H9.1a5,5,0,0,0,9.8,0H22v1a1,1,0,0,0,1,1h8a1,1,0,0,0,1-1V46h2.1a5,5,0,0,0,9.8,0h3.2a5,5,0,0,0,9.8,0H61a1,1,0,0,0,1-1V38A1,1,0,0,0,61,37ZM49,15h2v8H49Zm-9,5a5,5,0,0,1,5-5h2v8H40Zm0,5h7v2H40Zm0,4h8a1,1,0,0,0,1-1V25h2.84L57,26.72V32h-.42a5,5,0,0,0-9.16,0H40Zm15,5a3,3,0,1,1-3-3A3,3,0,0,1,55,34Zm-8,0a4.92,4.92,0,0,0,1,3H34.27a8,8,0,0,0,2.14-3Zm-9-4v2H30a1,1,0,0,1,0-2ZM23,31a6,6,0,0,1,11.19-3H30a3,3,0,0,0,0,6h4.19A6,6,0,0,1,23,31Zm-8-8h2v7H15ZM4,30a7,7,0,0,1,7-7h2v7.7L11.46,33H4Zm0,5h8a1,1,0,0,0,.83-.45L14.54,32H17v5H4ZM14,48a3,3,0,1,1,3-3A3,3,0,0,1,14,48Zm16-2H24V44h6Zm9,2a3,3,0,1,1,3-3A3,3,0,0,1,39,48Zm13,0a3,3,0,1,1,3-3A3,3,0,0,1,52,48Zm8-4H56.9a5,5,0,0,0-9.8,0H43.9a5,5,0,0,0-9.8,0H32V43a1,1,0,0,0-1-1H23a1,1,0,0,0-1,1v1H18.9a5,5,0,0,0-9.8,0H4V39H60Z"/><path d="M14.56,44.17l-.18-.09a.6.6,0,0,0-.19-.06,1,1,0,0,0-.9.27A1.05,1.05,0,0,0,13,45a1,1,0,0,0,1.71.71,1.15,1.15,0,0,0,.21-.33A1,1,0,0,0,15,45a1.05,1.05,0,0,0-.29-.71Z"/><path d="M39.7,44.29a1,1,0,0,0-1.08-.21,1,1,0,0,0-.33.21A1.05,1.05,0,0,0,38,45a1,1,0,0,0,.29.71,1,1,0,0,0,1.41,0A1,1,0,0,0,40,45a1,1,0,0,0-.08-.38A.91.91,0,0,0,39.7,44.29Z"/><path d="M52.71,44.29a1,1,0,0,0-1.09-.21.9.9,0,0,0-.54.54A.84.84,0,0,0,51,45a1,1,0,0,0,1.71.71,1.15,1.15,0,0,0,.21-.33.94.94,0,0,0,0-.76A1,1,0,0,0,52.71,44.29Z"/></g></svg>