<?xml version="1.0"?>
<svg xmlns="http://www.w3.org/2000/svg" viewBox="0 0 64 64" width="512" height="512"><g id="_01" data-name="01"><path d="M61.79,40.56l-7-9.17a1,1,0,0,0-1.34-.22l-5,3.31a3,3,0,0,0-1.31,2.86l0,.39a14,14,0,0,1-2.67-1.23,7,7,0,0,0-4.47-4.19,13.68,13.68,0,0,1-1.72-3.44L38,27.69A1,1,0,0,0,37,27H30l-1.75-7H30a1,1,0,0,0,0-2H17a1,1,0,0,0,0,2h1v4h-.19A22.35,22.35,0,0,0,11,25.08V21a1,1,0,0,0-1-1H8a1,1,0,0,0,0,2H9v3.81a22.79,22.79,0,0,0-5.64,3.42,1,1,0,0,0-.35.66l-1,9a1,1,0,0,0,.24.78A1,1,0,0,0,3,40H6.08a7,7,0,0,0,13.84,0H31.08A7,7,0,0,0,45,39h0a16.25,16.25,0,0,0,2.48.89A5,5,0,0,0,53.63,44l7.6-1.9a1,1,0,0,0,.56-1.58ZM28.72,30H20V28h8.22Zm-2.5-10,1.5,6H20V20ZM5,30.52A20.58,20.58,0,0,1,17.81,26H18v5a1,1,0,0,0,1,1H30a1,1,0,0,0,.79-.38,1,1,0,0,0,.18-.86L30.53,29h5.75l.16.49A15.6,15.6,0,0,0,37.53,32H32a1,1,0,0,0,0,2h1.11a7,7,0,0,0-2,4H19.92A7,7,0,0,0,13,32H7a1,1,0,0,0,0,2H8.11a7,7,0,0,0-2,4h-2ZM13,44a5,5,0,1,1,5-5A5,5,0,0,1,13,44Zm25,0a5,5,0,1,1,5-5A5,5,0,0,1,38,44Zm15.14-1.9a3,3,0,0,1-3.7-2.55l-.3-2.45a1,1,0,0,1,.44-1l4.19-2.8,5.51,7.22Z"/><path d="M13,36a3,3,0,1,0,3,3A3,3,0,0,0,13,36Zm0,4a1,1,0,1,1,1-1A1,1,0,0,1,13,40Z"/><path d="M38,36a3,3,0,1,0,3,3A3,3,0,0,0,38,36Zm0,4a1,1,0,1,1,1-1A1,1,0,0,1,38,40Z"/></g></svg>
