<svg xmlns="http://www.w3.org/2000/svg" viewBox="0 0 64 64"><title>4</title><g id="Layer_37" data-name="Layer 37"><path d="M59.21,35.66l-.79-.15A11,11,0,0,0,38.21,34H35V32a1,1,0,0,0,1-1V26a1.12,1.12,0,0,0,0-.31L33.13,17H36a1,1,0,0,0,0-2H19a1,1,0,0,0,0,2h2l-.87,8a24.15,24.15,0,0,0-5.1.66V22a1,1,0,0,0-1-1H12a1,1,0,0,0,0,2h1v3.22A24.47,24.47,0,0,0,2.25,33.34,1,1,0,0,0,2,34v8a1,1,0,0,0,1,1H7.14a8.49,8.49,0,0,0,16.72,0h6.93A2.94,2.94,0,0,0,33,44h5.21a11,11,0,0,0,20.21-1.51l.79-.15a3.39,3.39,0,0,0,0-6.68ZM48,30a9,9,0,0,1,8.11,5.09L50.18,34,50,34H40.52A9,9,0,0,1,48,30ZM31,17h0l3,9.16V30H31Zm-8,0h6v9H22ZM22,28h7v2H22ZM15.5,48A6.5,6.5,0,1,1,22,41.5,6.51,6.51,0,0,1,15.5,48ZM26,41H24v0a8.51,8.51,0,0,0-8.48-8H8a1,1,0,0,0,0,2h2.05a8.51,8.51,0,0,0-3,5.82H7A1.11,1.11,0,0,1,7,41H4V34.38A22.41,22.41,0,0,1,14.09,28a.89.89,0,0,0,.39-.12A22.15,22.15,0,0,1,20,27v4a1,1,0,0,0,1,1h5Zm4-4v4H28V32h5v2A3,3,0,0,0,30,37ZM48,48a9,9,0,0,1-7.48-4H50l.18,0,5.93-1.07A9,9,0,0,1,48,48Zm10.85-7.62-1.37.25h0L49.91,42H33a1,1,0,0,1-.87-.51A1,1,0,0,1,32,41V37a1,1,0,0,1,1-1H49.91l7.56,1.37h0l1.37.25a1.4,1.4,0,0,1,0,2.76Z"/><path d="M15.5,38A3.5,3.5,0,1,0,19,41.5,3.5,3.5,0,0,0,15.5,38Zm0,5A1.5,1.5,0,1,1,17,41.5,1.5,1.5,0,0,1,15.5,43Z"/><path d="M50,38H46a1,1,0,0,0,0,2h4a1,1,0,0,0,0-2Z"/></g></svg>