<?xml version="1.0"?>
<svg xmlns="http://www.w3.org/2000/svg" viewBox="0 0 64 64" width="512" height="512"><g id="_01" data-name="01"><path d="M57,43H50V42h8a1,1,0,0,0,1-1V33a1,1,0,0,0-1-1H49a1,1,0,0,0-1,.76L47.22,36H42V28a1,1,0,0,0-1-1H38a9,9,0,0,0-7-8.39L8.12,13.45l-.54-.94a2.38,2.38,0,0,0-4.39.6L2,17.76a1.08,1.08,0,0,0,0,.4L4.77,35.21a4.06,4.06,0,0,0-1.6,1A4,4,0,0,0,6,43H16a1,1,0,0,0,.65-1.76L10,35.54v-17L28,25a3,3,0,0,1,2,2.82v.47A7,7,0,0,0,27,34v7a1,1,0,0,0,1,1H38v1H27a5,5,0,0,0,0,10H57a5,5,0,0,0,0-10Zm-7.22-9H57v6H49V37.12ZM47,38v2H42V38ZM5.13,13.6a.39.39,0,0,1,.33-.3.36.36,0,0,1,.38.2l.76,1.32h0l1.1,1.92.3.52V35H6.76L4,18ZM6,41a2,2,0,0,1-2-2,2,2,0,0,1,2-2H8.63l4.67,4ZM28.69,23.11l-19-6.83-.11-.2-.16-.27,21.07,4.75A7,7,0,0,1,36,27H34a7.93,7.93,0,0,0-1,.07l-.3.06q-.33.06-.66.15l-.09,0A5,5,0,0,0,28.69,23.11Zm2.82,6.56A4.86,4.86,0,0,1,34,29h1v7H29V34A5,5,0,0,1,31.51,29.67ZM29,38h6v2H29Zm8,2V29h3V40Zm3,2h8v1H40Zm17,9H27a3,3,0,0,1,0-6H57a3,3,0,0,1,0,6Z"/><path d="M57,47H27a1,1,0,0,0,0,2H57a1,1,0,0,0,0-2Z"/></g></svg>
