<svg xmlns="http://www.w3.org/2000/svg" viewBox="0 0 64 64"><title>6</title><g id="_01" data-name="01"><path d="M61,36H56V25s0,0,0-.06l.08-.05a3,3,0,0,0,1.23-3.55L55,14.94a3,3,0,0,0-3.2-2l-14,1.72a11.1,11.1,0,0,0-5.42,2.25l-4.16,3.25a3,3,0,0,0-1,3.37l1.34,3.77-2,.73A1,1,0,0,0,26,29v7H21V21a1,1,0,0,0-1-1H11a9,9,0,0,0-9,9V45a1,1,0,0,0,1,1H9.1a5,5,0,0,0,9.8,0H22v1a1,1,0,0,0,1,1h8a1,1,0,0,0,1-1V46h2.1a5,5,0,0,0,9.8,0h3.2a5,5,0,0,0,9.8,0H61a1,1,0,0,0,1-1V37A1,1,0,0,0,61,36ZM52.08,15h.12a1,1,0,0,1,.94.66L55.42,22A1,1,0,0,1,55,23.19l-.81.52-3-8.64ZM29.52,21.77l4.16-3.25a9,9,0,0,1,4.44-1.84l11-1.36,3.34,9.48-9.36,5.87A8.93,8.93,0,0,1,38.48,32l-5.27.11a1,1,0,0,1-1-.67L29.2,22.89A1,1,0,0,1,29.52,21.77ZM28,29.7l1.32-.49,1,2.94a3,3,0,0,0,2.83,2h.06L38.52,34a11,11,0,0,0,5.63-1.68L54,26.19V36H28ZM15,22h4v7H15ZM4,29a7,7,0,0,1,7-7h2v7.7L11.46,32H4Zm0,5h8a1,1,0,0,0,.83-.45L14.54,31H19v5H4ZM14,48a3,3,0,1,1,3-3A3,3,0,0,1,14,48Zm16-2H24V44h6Zm9,2a3,3,0,1,1,3-3A3,3,0,0,1,39,48Zm13,0a3,3,0,1,1,3-3A3,3,0,0,1,52,48Zm8-4H56.9a5,5,0,0,0-9.8,0H43.9a5,5,0,0,0-9.8,0H32V43a1,1,0,0,0-1-1H23a1,1,0,0,0-1,1v1H18.9a5,5,0,0,0-9.8,0H4V38H60Z"/><path d="M14,44h0a1,1,0,1,0,1,1A1,1,0,0,0,14,44Z"/><path d="M39,44h0a1,1,0,1,0,1,1A1,1,0,0,0,39,44Z"/><path d="M52,44h0a1,1,0,1,0,1,1A1,1,0,0,0,52,44Z"/></g></svg>