<svg xmlns="http://www.w3.org/2000/svg" viewBox="0 0 64 64"><title>7</title><g id="Layer_37" data-name="Layer 37"><path d="M48,38a1,1,0,0,0,0,2h0a1,1,0,0,0,0-2Z"/><path d="M60.83,36.17A4.06,4.06,0,0,0,58.25,35a11,11,0,0,0-20.49,0H37V31a1,1,0,0,0-1-1H29V22a7,7,0,0,0-2.11-5H31a1,1,0,0,0,0-2H11a1,1,0,0,0,0,2h2V30H9a1.19,1.19,0,0,0-.32.05l-6,2A1,1,0,0,0,2,33v8a3,3,0,0,0,3,3H6.26A8,8,0,0,0,22,42a7.62,7.62,0,0,0-.08-1.08l0,.08H31v1a1,1,0,0,0,1,1h5.76a11,11,0,0,0,20.49,0,4,4,0,0,0,2.58-6.8ZM20,17h2a5,5,0,0,1,5,5v5H21.54L20,24.7Zm-5,0h3v7l-3,0Zm0,9,3.46,0,1.71,2.55A1,1,0,0,0,21,29h6v1H15ZM14,48a6,6,0,1,1,6-6A6,6,0,0,1,14,48Zm17-9H25.85L31,36.58Zm0-4.63L21.37,38.9A8,8,0,0,0,14,34H7a1,1,0,0,0,0,2H8.73A8,8,0,0,0,6,42H5a1,1,0,0,1-1-1V33.72L9.16,32H31ZM48,30a9,9,0,0,1,8.06,5H39.94A9,9,0,0,1,48,30Zm0,18a9,9,0,0,1-8.06-5H56.06A9,9,0,0,1,48,48Zm10-7H33V32h2v4a1,1,0,0,0,1,1H58a1.76,1.76,0,0,1,2,2A2,2,0,0,1,58,41Z"/><path d="M14,39a3,3,0,1,0,3,3A3,3,0,0,0,14,39Zm0,4a1,1,0,1,1,1-1A1,1,0,0,1,14,43Z"/></g></svg>