<svg height="512" viewBox="0 0 64 64" width="512" xmlns="http://www.w3.org/2000/svg"><g id="_01" data-name="01"><path d="m61 45h-6v-26a1 1 0 0 0 -2 0v13h-8.27l-4.56-14.33a11 11 0 0 0 -10.48-7.67h-15.69a1 1 0 0 0 -1 1v16h-6a5 5 0 0 0 -5 5v14a1 1 0 0 0 1 1h2.38a8.49 8.49 0 0 0 16.24 0h12.76a8.49 8.49 0 0 0 16.62-2h2v1a1 1 0 0 0 1 1h7a1 1 0 0 0 0-2zm-46-33h14.69a9 9 0 0 1 8.58 6.27l4.06 12.73-8.88-8 1.26-1.26a1 1 0 0 0 -1.42-1.42l-4 4a1 1 0 0 0 0 1.42 1 1 0 0 0 1.42 0l1.29-1.36 8.41 7.62h-11l-4.7-4.71a1 1 0 0 0 -.71-.29h-5v-10a1 1 0 0 0 -2 0v10h-2zm-11 22h1a1 1 0 0 1 0 2h-1zm9.5 17a6.54 6.54 0 0 1 -6.37-5.2 6.1 6.1 0 0 1 -.13-1.3 6.5 6.5 0 0 1 13 0v.66s-.06.43-.1.64a6.54 6.54 0 0 1 -6.4 5.2zm8.5-6c0-.17 0-.33 0-.5a8.5 8.5 0 0 0 -17 0v.5h-1v-7h1a3 3 0 0 0 0-6h-1a3 3 0 0 1 3-3h16.59l4.7 4.71a1 1 0 0 0 .71.29h14v2h-10a1 1 0 0 0 0 2h4a8.48 8.48 0 0 0 -3 6.5v.5zm20.5 6a6.53 6.53 0 0 1 -6.37-5.21 5.94 5.94 0 0 1 -.13-1.29 6.51 6.51 0 0 1 6.5-6.5h.66s.43.06.64.1a6.5 6.5 0 0 1 -1.3 12.9zm8.36-8a8.54 8.54 0 0 0 -5.86-6.62v-2.38h8v9z"/><path d="m13.5 41a3.5 3.5 0 1 0 3.5 3.5 3.5 3.5 0 0 0 -3.5-3.5zm0 5a1.5 1.5 0 1 1 1.5-1.5 1.5 1.5 0 0 1 -1.5 1.5z"/><path d="m42.5 41a3.5 3.5 0 1 0 3.5 3.5 3.5 3.5 0 0 0 -3.5-3.5zm0 5a1.5 1.5 0 1 1 1.5-1.5 1.5 1.5 0 0 1 -1.5 1.5z"/></g></svg>