<svg xmlns="http://www.w3.org/2000/svg" viewBox="0 0 64 64"><title>9</title><g id="Layer_37" data-name="Layer 37"><path d="M61,47H55V45h5a1,1,0,0,0,1-1V32a1,1,0,0,0-1-1H59L15.77,4.51a6,6,0,0,0-8.26,2,1,1,0,0,0-.12.76,1,1,0,0,0,.45.62L8,8V19.18a3,3,0,1,0,3.7,4.13,1,1,0,1,0-1.8-.87A1,1,0,1,1,9,21a1,1,0,0,0,1-1V9.19L45.58,31H45a9,9,0,0,0-9,9v4a1,1,0,0,0,1,1h5v2H20V32a1,1,0,0,0-1-1H11a9,9,0,0,0-9,9V55a1,1,0,0,0,1,1H9.1a5,5,0,0,0,9.8,0H22v1a1,1,0,0,0,1,1h8a1,1,0,0,0,1-1V56h2.1a5,5,0,0,0,9.8,0h3.2a5,5,0,0,0,9.8,0H61a1,1,0,0,0,1-1V48A1,1,0,0,0,61,47ZM59,33V43H44V41h6a1,1,0,0,0,1-1V33h8ZM53,45v2H44V45ZM10,6.82a.8.8,0,0,0,0-.15,4.09,4.09,0,0,1,4.79-.46L55.16,31H49.41ZM38,43V40a7,7,0,0,1,7-7h3.85l.15.09V39H43a1,1,0,0,0-1,1v3ZM15,33h3v7H15ZM4,40a7,7,0,0,1,7-7h2v7.7L11.46,43H4Zm0,5h8a1,1,0,0,0,.83-.45L14.54,42H18v5H4ZM14,58a3,3,0,1,1,3-3A3,3,0,0,1,14,58Zm16-2H24V54h6Zm9,2a3,3,0,1,1,3-3A3,3,0,0,1,39,58Zm13,0a3,3,0,1,1,3-3A3,3,0,0,1,52,58Zm8-4H56.9a5,5,0,0,0-9.8,0H43.9a5,5,0,0,0-9.8,0H32V53a1,1,0,0,0-1-1H23a1,1,0,0,0-1,1v1H18.9a5,5,0,0,0-9.8,0H4V49H60Z"/><path d="M14.56,54.17l-.18-.09a.6.6,0,0,0-.19-.06,1,1,0,0,0-.9.27A1,1,0,0,0,13,55a.84.84,0,0,0,.08.38,1.15,1.15,0,0,0,.21.33A1.05,1.05,0,0,0,14,56l.19,0a.6.6,0,0,0,.19-.06l.18-.09.15-.12a1.15,1.15,0,0,0,.21-.33A1,1,0,0,0,15,55a1,1,0,0,0-.29-.71Z"/><path d="M39.56,54.17l-.18-.09a.6.6,0,0,0-.19-.06,1.05,1.05,0,0,0-.9.27A1.05,1.05,0,0,0,38,55a.84.84,0,0,0,.08.38,1.15,1.15,0,0,0,.21.33.93.93,0,0,0,.33.21A.84.84,0,0,0,39,56l.19,0a.6.6,0,0,0,.19-.06l.18-.09.15-.12a1.15,1.15,0,0,0,.21-.33A1,1,0,0,0,40,55a1.05,1.05,0,0,0-.29-.71Z"/><path d="M52.71,54.29a1,1,0,0,0-1.42,0,1.15,1.15,0,0,0-.21.33A.84.84,0,0,0,51,55a1,1,0,0,0,1.71.71,1,1,0,0,0,.21-.33.94.94,0,0,0,0-.76A1.15,1.15,0,0,0,52.71,54.29Z"/></g></svg>