<svg id="Capa_1" enable-background="new 0 0 512 512" height="512" viewBox="0 0 512 512" width="512" xmlns="http://www.w3.org/2000/svg"><g><path d="m139.629 295.92c-9.047 0-17.738 1.979-25.832 5.882-3.627 1.75-5.15 6.108-3.4 9.736 1.748 3.627 6.109 5.15 9.735 3.401 6.102-2.943 12.662-4.435 19.497-4.435 24.79 0 44.958 20.168 44.958 44.957 0 24.79-20.168 44.958-44.958 44.958s-44.958-20.168-44.958-44.958c0-7.783 2.018-15.449 5.835-22.168 1.99-3.502.763-7.953-2.738-9.943-3.502-1.988-7.953-.762-9.942 2.738-5.063 8.912-7.739 19.069-7.739 29.372 0 32.832 26.71 59.542 59.541 59.542s59.541-26.71 59.541-59.542c.002-32.83-26.709-59.54-59.54-59.54z"/><path d="m139.629 388.523c18.23 0 33.061-14.831 33.061-33.062 0-18.229-14.831-33.061-33.061-33.061s-33.061 14.831-33.061 33.061c0 18.231 14.832 33.062 33.061 33.062zm0-51.539c10.189 0 18.478 8.289 18.478 18.477 0 10.189-8.289 18.478-18.478 18.478s-18.478-8.29-18.478-18.478c.001-10.188 8.29-18.477 18.478-18.477z"/><path d="m139.629 363.12c4.23 0 7.658-3.429 7.658-7.658 0-4.23-3.429-7.658-7.658-7.658s-7.658 3.429-7.658 7.658 3.429 7.658 7.658 7.658z"/><path d="m363.365 355.461c0 32.832 26.71 59.542 59.541 59.542s59.541-26.71 59.541-59.542c0-32.831-26.71-59.541-59.541-59.541s-59.541 26.71-59.541 59.541zm59.541-44.957c24.79 0 44.958 20.168 44.958 44.957 0 24.79-20.168 44.958-44.958 44.958s-44.958-20.168-44.958-44.958c0-24.789 20.168-44.957 44.958-44.957z"/><path d="m422.906 388.523c18.23 0 33.061-14.831 33.061-33.062 0-18.229-14.831-33.061-33.061-33.061s-33.061 14.831-33.061 33.061c0 18.231 14.831 33.062 33.061 33.062zm0-51.539c10.189 0 18.478 8.289 18.478 18.477 0 10.189-8.289 18.478-18.478 18.478s-18.477-8.29-18.477-18.478 8.288-18.477 18.477-18.477z"/><path d="m422.906 363.12c4.229 0 7.658-3.429 7.658-7.658 0-4.23-3.429-7.658-7.658-7.658s-7.658 3.429-7.658 7.658 3.429 7.658 7.658 7.658z"/><path d="m499.342 108.253h-58.685c-4.027 0-7.292 3.264-7.292 7.292s3.265 7.292 7.292 7.292h56.759v25.831h-262.901s-7.552-28.707-8.729-33.435-3.713-6.847-8.356-6.979h-104.241v-19.795h114.753c2.578 0 5.146.634 7.427 1.832l55.437 29.14c4.239 2.228 9.009 3.406 13.796 3.406h103.764c4.027 0 7.292-3.264 7.292-7.292s-3.265-7.292-7.292-7.292h-103.764c-2.432 0-4.856-.598-7.01-1.731l-55.437-29.14c-4.366-2.295-9.28-3.507-14.212-3.507h-117.574c-6.487 0-11.764 5.277-11.764 11.764v25.434c0 6.487 5.277 11.764 11.764 11.764h17.834l-34.602 83.853h-67.192c-14.562 0-26.409 11.847-26.409 26.409v66.771c0 6.487 5.277 11.764 11.764 11.764h55.307c-1.564 3.815-2.452 7.773-3.268 11.422-1.052 5.137-2.262 8.981-4.475 13.757-2.377 5.427-5.071 11.579-5.071 18.649s2.694 13.22 5.07 18.647c2.213 4.778 3.424 8.622 4.477 13.761 1.286 5.749 2.743 12.265 6.757 17.78 4.042 5.555 9.794 8.945 14.868 11.936 4.602 2.594 7.884 4.967 11.764 8.559 4.42 3.929 9.429 8.382 16.05 10.532 3.383 1.098 6.748 1.447 10.074 1.447 8.165-.156 15.751-1.765 23.882-.545 6.114.576 12.436 1.17 18.819-.903 6.62-2.15 11.628-6.602 16.048-10.529 3.881-3.592 7.165-5.967 11.768-8.562 5.073-2.99 10.824-6.379 14.866-11.934 4.014-5.515 5.472-12.032 6.758-17.781 1.052-5.139 2.263-8.982 4.476-13.759 2.377-5.427 5.071-11.578 5.071-18.649 0-7.07-2.694-13.219-5.07-18.645-1.768-3.933-2.996-7.087-3.88-11.151h5.667l6.183 24.157c1.249 4.882 5.642 8.293 10.682 8.293h25.108c4.027 0 7.292-3.264 7.292-7.292s-3.265-7.292-7.292-7.292h-22.346l-4.573-17.866h109.709c-.883 4.064-2.111 7.217-3.879 11.149-2.377 5.426-5.071 11.577-5.071 18.647s2.694 13.22 5.07 18.646c2.214 4.779 3.424 8.622 4.477 13.761 1.286 5.749 2.743 12.266 6.757 17.781 4.042 5.555 9.794 8.945 14.868 11.936 4.603 2.594 7.885 4.969 11.765 8.56 4.42 3.928 9.429 8.381 16.049 10.531 6.242 2.034 12.528 1.505 18.819.902 5.386-.615 9.751-.615 15.137 0 6.114.576 12.436 1.17 18.819-.903 6.62-2.15 11.628-6.602 16.048-10.529 3.88-3.592 7.165-5.967 11.767-8.562 5.074-2.99 10.825-6.379 14.867-11.934 4.014-5.515 5.472-12.032 6.757-17.781 1.053-5.139 2.263-8.983 4.477-13.76 2.376-5.426 5.071-11.577 5.071-18.648 0-7.07-2.694-13.219-5.07-18.645-2.213-4.778-3.424-8.622-4.477-13.761-1.286-5.749-2.743-12.266-6.757-17.781-4.042-5.555-9.794-8.945-14.868-11.936-4.603-2.594-7.885-4.969-11.765-8.56-4.42-3.928-9.429-8.381-16.049-10.531-6.383-2.071-12.705-1.477-18.819-.902-5.386.615-9.751.615-15.138 0-5.154-.485-10.455-.977-15.818.12v-.356l105.347-51.099c4.333-2.102 7.133-6.572 7.133-11.389v-89.71c-.002-6.98-5.68-12.659-12.66-12.659zm-53.531 126.193-18.224-71.195h18.183l16.216 63.35zm-32.595 15.811-22.271-87.006h21.589l19.887 77.69zm-29.566 14.34-25.942-101.346h18.183l23.934 93.501zm-31.692 15.372-29.877-116.719h20.574l27.605 107.842zm-30.098 12.26-13.767-53.781c-.998-3.902-4.969-6.258-8.872-5.256-3.901.999-6.254 4.97-5.256 8.872l10.701 41.806-38.062-18.55c-1.619-.789-2.803-2.242-3.25-3.986l-25.106-98.082h35.543l12.415 48.501c.984 3.933 5.075 6.261 8.872 5.256 3.901-.999 6.255-4.97 5.256-8.872l-11.49-44.885h18.182l31.54 123.214-11.643 5.647c-1.606.779-3.432.811-5.063.116zm-90.379-96.607h-5.679v-22.187zm-5.679 14.584h9.412l11.112 43.412h-20.525v-43.412zm-38.429-87.369v60.88h-18.061v-60.88zm-32.645 0v60.88h-35.87l24.701-59.858c.256-.621.855-1.022 1.527-1.022zm-140.144 110.262c0-6.521 5.305-11.825 11.826-11.825h69.078c4.782 0 9.051-2.856 10.875-7.276l6.478-15.698h77.353c6.487 0 11.764-5.277 11.764-11.764v-63.7h9.262v130.781h-115.914c-4.782 0-9.051 2.856-10.875 7.276l-14.92 36.157h-54.927zm95.089 42.614c-4.905 2.367-8.894 5.877-12.479 9.063-1.924 1.71-3.741 3.325-5.551 4.642-1.332.97-2.81 1.89-4.372 2.825l9.921-24.042h12.481zm96.901 92.547c-2.397 5.082-4.266 10.936-5.35 16.426-1.071 4.79-2.083 9.314-4.317 12.384-2.262 3.108-6.254 5.46-10.479 7.951-4.932 2.734-9.935 6.363-14.052 10.226-3.675 3.267-7.147 6.353-10.864 7.56-3.514 1.141-8.096.71-12.947.254-5.712-.689-12.158-.689-17.87 0-4.852.458-9.434.888-12.948-.253-3.718-1.208-7.191-4.294-10.867-7.562-4.114-3.862-9.118-7.49-14.047-10.223-4.226-2.491-8.219-4.844-10.481-7.953-2.234-3.07-3.246-7.593-4.317-12.383-1.084-5.49-2.953-11.345-5.35-16.428-4.864-9.295-4.862-16.299 0-25.594 2.397-5.081 4.266-10.936 5.349-16.426 1.071-4.79 2.083-9.314 4.317-12.385 2.263-3.108 6.255-5.461 10.481-7.953 4.931-2.733 9.934-6.361 14.049-10.225 7.05-7.404 14.183-9.532 23.811-7.812 5.713.689 12.158.689 17.871 0 4.852-.458 9.434-.888 12.947.253 3.718 1.208 7.191 4.294 10.867 7.562 4.114 3.861 9.118 7.491 14.047 10.223 9.372 4.74 13.173 9.932 14.798 20.334 1.084 5.492 2.952 11.346 5.35 16.429 1.977 4.516 3.845 8.78 3.845 12.796.002 4.018-1.866 8.283-3.843 12.799zm5.38-57.179c-.86-2.003-1.912-3.962-3.256-5.808-4.042-5.555-9.794-8.945-14.868-11.936-4.602-2.594-7.884-4.967-11.764-8.559-4.42-3.929-9.429-8.382-16.05-10.532-6.384-2.071-12.705-1.477-18.819-.902-5.386.615-9.751.615-15.137 0-2.568-.242-5.173-.484-7.804-.534v-4.61h82.754l10.976 42.88h-6.032zm20.053-4.037h20.289c4.027 0 7.292-3.264 7.292-7.292s-3.265-7.292-7.292-7.292h-24.022l-6.21-24.259h28.29c1.961 4.435 5.429 8.067 9.861 10.227l54.963 26.787c5.752 2.804 12.353 2.811 18.11.018l51.647-25.051v.762c-1.568 1.271-3.052 2.577-4.465 3.833-3.88 3.591-7.163 5.966-11.765 8.56-5.075 2.991-10.826 6.38-14.869 11.936-1.343 1.846-2.396 3.805-3.256 5.809h-117.539zm174.634-19.654c8.106.347 17.009 1.72 25.2.475 10.407-1.683 16.453.394 23.813 7.814 4.115 3.862 9.118 7.491 14.049 10.224 9.373 4.74 13.173 9.932 14.798 20.336 1.083 5.49 2.953 11.346 5.35 16.428 4.864 9.296 4.862 16.297-.001 25.592-2.397 5.083-4.266 10.937-5.35 16.428-1.625 10.402-5.425 15.595-14.796 20.333-4.931 2.734-9.935 6.362-14.051 10.226-7.36 7.42-13.408 9.496-23.813 7.813-5.712-.689-12.158-.689-17.87 0-10.407 1.683-16.453-.394-23.813-7.814-4.115-3.862-9.118-7.491-14.049-10.224-9.373-4.74-13.173-9.932-14.798-20.336-1.083-5.49-2.953-11.345-5.35-16.427-4.864-9.297-4.862-16.298 0-25.593 2.398-5.082 4.266-10.937 5.35-16.428 1.071-4.789 2.083-9.313 4.317-12.383 2.263-3.108 6.255-5.462 10.482-7.953 4.929-2.733 9.933-6.361 14.048-10.224 5.425-4.832 9.543-8.565 16.484-8.287zm68.736-67.285-14.553-56.854h36.593v46.164z"/><path d="m165.399 230.534h13.853c4.027 0 7.292-3.264 7.292-7.292s-3.265-7.292-7.292-7.292h-13.853c-4.027 0-7.292 3.264-7.292 7.292s3.265 7.292 7.292 7.292z"/></g></svg>