<svg id="Capa_1" enable-background="new 0 0 512 512" height="512" viewBox="0 0 512 512" width="512" xmlns="http://www.w3.org/2000/svg"><g><path d="m108.512 157.461c-24.983 23.251-39.312 56.15-39.312 90.262 0 67.976 55.303 123.279 123.279 123.279s123.279-55.302 123.279-123.279-55.303-123.279-123.279-123.279c-19.489 0-38.136 4.418-55.423 13.132-3.661 1.845-5.133 6.309-3.287 9.97s6.308 5.133 9.97 3.287c15.196-7.66 31.594-11.543 48.74-11.543 59.79 0 108.432 48.642 108.432 108.432s-48.642 108.432-108.432 108.432-108.432-48.641-108.432-108.431c0-30.004 12.604-58.942 34.579-79.394 3.001-2.793 3.17-7.49.377-10.491-2.794-3.002-7.492-3.169-10.491-.377z"/><path d="m504.577 313.142c-2.463 0-4.64 1.205-5.99 3.052h-140.226v-15.144h5.524c9.818 0 17.804-7.987 17.804-17.804v-17.058c0-11.496 3.843-22.86 10.819-31.997l8.224-10.77c6.264-8.203 5.826-19.75-1.043-27.456l-10.917-12.247c-2.729-3.061-7.422-3.329-10.481-.602-3.06 2.728-3.33 7.421-.602 10.481l10.917 12.247c2.143 2.404 2.28 6.006.326 8.566l-8.224 10.771c-8.942 11.711-13.866 26.274-13.866 41.007v17.058c0 1.631-1.327 2.957-2.958 2.957h-5.524v-38.348c0-30.645-8.258-60.018-23.713-85.586l5.454-2.571c3.054-1.441 6.757-.685 9.004 1.836l6.243 7.003c2.736 3.068 7.431 3.323 10.481.601 3.06-2.728 3.329-7.42.601-10.481l-6.243-7.003c-6.592-7.395-17.455-9.61-26.417-5.385l-7.467 3.52c-4.981-6.767-10.503-13.207-16.557-19.258-31.331-31.316-72.971-48.558-117.268-48.558-.027 0-.059 0-.086 0-91.42.046-165.797 75.141-165.797 167.399v12.425c0 14.379 4.253 27.86 12.299 38.985 4.622 6.39 7.094 13.933 7.172 21.835h-14.826c-17.226 0-31.24 14.014-31.24 31.24 0 16.039 12.151 29.287 27.729 31.037 4.109 16.397 18.965 28.578 36.618 28.578h11.287c4.1 0 7.423-3.324 7.423-7.423s-3.324-7.423-7.423-7.423h-11.287c-20.489.459-30.279-26.085-16.771-40.534 8.606-9.675 13.346-22.137 13.346-35.091 0-11.186-3.457-21.878-9.996-30.92-6.204-8.576-9.482-19.048-9.482-30.284v-12.425c0-84.075 67.719-152.51 150.958-152.552h.078c40.329 0 78.248 15.7 106.773 44.212 28.543 28.53 44.263 66.467 44.263 106.823v137.432c0 7.355-5.984 13.338-13.339 13.338h-16.879v-6.33c0-6.276-5.106-11.382-11.382-11.382h-64.687c-6.277 0-11.382 5.106-11.382 11.382v6.33h-116.374c-4.1 0-7.423 3.324-7.423 7.423s3.324 7.423 7.423 7.423h116.614c1.412 9.353 9.481 16.554 19.222 16.554h48.524c9.741 0 17.81-7.2 19.222-16.554h17.121c13.399 0 24.637-9.401 27.482-21.952h140.929c1.35 1.847 3.527 3.051 5.99 3.051 4.1 0 7.423-3.324 7.423-7.423v-66.584c0-4.098-3.324-7.421-7.423-7.421zm-468.094 35.082c-5.438 6.113-8.783 13.594-9.652 21.407-6.902-1.932-11.985-8.263-11.985-15.774 0-9.039 7.354-16.393 16.393-16.393h11.966c-1.609 3.905-3.865 7.548-6.722 10.76zm261.967 62.339c0 2.546-2.071 4.617-4.617 4.617h-48.524c-2.546 0-4.617-2.071-4.617-4.617v-14.803h57.758zm78.347-79.523v14.303c0 4.1 3.324 7.423 7.423 7.423s7.423-3.324 7.423-7.423v-14.303h25.023v25.353c0 4.1 3.324 7.423 7.423 7.423s7.423-3.324 7.423-7.423v-25.353h25.023v14.303c0 4.1 3.324 7.423 7.423 7.423s7.423-3.324 7.423-7.423v-14.303h25.77v45.633h-138.79v-45.633z"/><path d="m220.344 279.074 4.932-27.329 8.172 27.698c.026.089.054.177.083.264 1.187 3.533 4.48 5.898 8.203 5.898h.047c3.742-.02 7.031-2.425 8.186-5.985.028-.084.053-.169.078-.254l7.888-27.671 5.247 27.454c.769 4.027 4.658 6.67 8.685 5.898 4.027-.769 6.667-4.658 5.898-8.685l-10.16-53.16c-.783-3.849-4.07-6.692-7.991-6.913-3.916-.225-7.508 2.232-8.72 5.969-.028.085-.054.17-.078.256l-9.18 32.203-9.523-32.277c-.026-.088-.054-.176-.083-.264-1.252-3.725-4.87-6.136-8.783-5.879-3.919.263-7.176 3.141-7.935 7.084l-9.576 53.056c-.728 4.035 1.952 7.896 5.987 8.624 4.033.728 7.895-1.952 8.623-5.987z"/><path d="m126.155 285.706c4.1 0 7.423-3.324 7.423-7.423v-54.584c0-4.1-3.324-7.423-7.423-7.423h-11.667c-4.1 0-7.423 3.324-7.423 7.423s3.324 7.423 7.423 7.423h4.243v47.161c0 4.1 3.324 7.423 7.424 7.423z"/><path d="m191.283 263.612v-25.243c0-12.797-10.411-23.208-23.208-23.208s-23.208 10.411-23.208 23.208v25.243c0 12.797 10.411 23.208 23.208 23.208s23.208-10.411 23.208-23.208zm-31.569 0v-25.243c0-4.611 3.751-8.361 8.361-8.361s8.361 3.751 8.361 8.361v25.243c0 4.611-3.751 8.361-8.361 8.361s-8.361-3.75-8.361-8.361z"/></g></svg>