<svg id="Capa_1" enable-background="new 0 0 512 512" height="512" viewBox="0 0 512 512" width="512" xmlns="http://www.w3.org/2000/svg"><g><path d="m493.096 284.391h-102.139v-15.729c3.84-1.147 7.38-3.193 10.373-6.051 5.137-4.906 7.966-11.519 7.966-18.621 0-4.09-3.315-7.406-7.406-7.406s-7.406 3.316-7.406 7.406c-.003 3.071-1.25 5.964-3.527 8.033.27-4.272-3.098-7.97-7.406-7.952-4.267-.014-7.635 3.617-7.406 7.858-2.035-1.906-3.383-4.544-3.515-7.413-.185-4.023 1.837-7.813 5.277-9.894 8.05-4.866 13.05-13.656 13.05-22.94v-3.72c6.77-2.247 12.095-7.969 13.572-15.244l12.73-62.733h74.825c6.401.214 9.912-8.268 5.237-12.643l-53.739-53.739c-1.379-1.375-3.287-2.164-5.237-2.169h-30.406l-209.139-60.614c-1.395-.517-2.939-.863-4.421-.816h-18.896c-3.555.008-6.764 1.465-9.081 3.975l-61.68 59.567c-2.81-3.515-7.125-5.776-11.964-5.776h-36.659c-8.448 0-15.321 6.873-15.321 15.321v15.213h-15.09c-4.09 0-7.406 3.316-7.406 7.406v20.937h-5.122c-4.09 0-7.406 3.316-7.406 7.406s3.316 7.406 7.406 7.406h27.618v69.45c0 8.448 6.873 15.321 15.321 15.321h36.659c8.448 0 15.321-6.873 15.321-15.321v-69.45h17.295v12.81c0 10.039 7.299 18.387 16.864 20.066v247.106h-9.458c-8.44 0-15.306 6.866-15.306 15.306v27.393c-.975.321-41.885 16.573-41.885 16.573-6.235 2.484-10.263 8.425-10.263 15.136v13.808c0 6.806 5.537 12.343 12.343 12.343h38.69c4.09 0 7.406-3.316 7.406-7.406s-3.316-7.406-7.406-7.406h-36.22v-11.339c0-.61.366-1.15.933-1.376l38.981-15.53c4.146-1.651 8.511-2.489 12.974-2.489h103.806c4.463 0 8.828.837 12.974 2.489l38.982 15.53c.567.226.933.766.933 1.376v11.339h-138.524c-4.09 0-7.406 3.316-7.406 7.406s3.316 7.406 7.406 7.406h140.993c6.806 0 12.343-5.537 12.343-12.343v-13.808c0-6.711-4.028-12.652-10.263-15.136 0 0-40.91-16.252-41.885-16.573v-27.393c0-8.44-6.866-15.306-15.306-15.306h-9.458v-247.105c9.566-1.679 16.864-10.027 16.864-20.066v-14.284h107.464l12.731 62.732c1.319 6.504 5.71 11.778 11.464 14.428v4.536c0 4.193-2.206 8.03-5.902 10.265-8.09 4.891-12.845 13.8-12.41 23.249.505 10.998 8.133 20.33 18.311 23.436v15.759h-102.138c-7.25 0-13.148 5.899-13.148 13.149v29.989c0 7.25 5.899 13.149 13.148 13.149h127.142c4.091 0 7.406-3.316 7.406-7.406s-3.315-7.406-7.406-7.406h-85.333v-26.663h135.158v26.663h-14.754c-4.091 0-7.406 3.316-7.406 7.406s3.315 7.406 7.406 7.406h56.877c7.251 0 13.149-5.899 13.149-13.149v-29.989c.001-7.25-5.898-13.149-13.149-13.149zm-115.897-169.217h-28.453l28.453-28.453zm-38.927-38.927h28.453l-28.453 28.453zm-59.17-14.812c-3.228-.253-6.652.476-8.524 3.481l-35.946 35.946-7.023-6.704c.003-.085.013-.168.013-.254v-6.77c0-4.975-.73-9.914-2.171-14.678l-16.073-53.148 145.354 42.128h-75.63zm-86.556-46.619 11.101 36.705-28.74-28.74 2.409-7.965zm-22.504 24.048 27.995 27.995c-4.873-3.02-10.501-4.646-16.35-4.646h-18.707zm15.646 38.675c2.698.681 5.193 2.032 7.25 3.996l31.694 30.259c1.46 1.394 2.619 3.052 3.467 4.854h-39.943c-1.361 0-2.469-1.108-2.469-2.469v-36.64zm57.138 36.076 26.895-26.895v28.454h-26.411c-.148-.524-.309-1.044-.484-1.559zm80.634-37.368v28.674l-28.674-28.674zm68.551 10.54 28.387 28.387h-28.387zm53.739 28.387v-28.454l28.454 28.454zm-14.811-10.407-28.52-28.52h28.52zm-348.835 11.88v-13.531h11.164v13.531zm-26.514 0v-13.531h11.702v13.531zm37.678-43.556v15.213h-11.164v-15.722h10.655c.28 0 .509.229.509.509zm-37.678 0c0-.281.229-.509.509-.509h11.193v15.722h-11.702zm-22.495 43.556v-13.531h7.684v13.531zm59.664 84.771h-10.655v-43.782c0-4.09-3.316-7.406-7.406-7.406s-7.406 3.316-7.406 7.406v43.782h-11.193c-.281 0-.509-.229-.509-.509v-69.45h37.678v69.45c0 .281-.229.509-.509.509zm15.321-84.771v-35.752l47.713-46.079-8.286 27.397c-11.823-.839-22.184 8.446-22.132 20.392v34.041h-17.295zm104.731 144.87-45.287-45.287h45.287zm-10.473 10.473h-45.287v-45.287zm-45.287 14.812h45.577l-45.577 45.577zm55.76 115.859-45.287-45.287h45.287zm0-60.098h-44.997l44.997-44.997zm0-141.145h-45.2l36.756-36.756h8.444zm-55.76-10.386v-26.369h26.369zm0 176.816 43.594 43.594h-43.594zm80.524 58.9v24.912c-.247-.004-.493-.017-.741-.017h-103.806c-.248 0-.493.014-.741.017v-24.912c0-.272.221-.494.494-.494h104.3c.272 0 .494.221.494.494zm-13.481-276.897h-78.327c-3.077 0-5.58-2.504-5.58-5.581v-61.664c0-3.077 2.503-5.58 5.58-5.58h25.109v37.153c0 9.528 7.752 17.28 17.28 17.28h41.518v12.81c.001 3.078-2.503 5.582-5.58 5.582zm60.439-62.91 28.233 28.233h-28.233zm82.532 43.045h35.079l-12.131 59.787c-.944 5.676-9.847 5.61-10.815 0zm-66.062 195.88h-25.333v-26.663h25.333zm190.431 0h-25.649v-26.663h25.649z"/></g></svg>