<svg id="Capa_1" enable-background="new 0 0 512 512" height="512" viewBox="0 0 512 512" width="512" xmlns="http://www.w3.org/2000/svg"><g><path d="m412.482 29.976c-2.834-2.908-7.487-2.97-10.395-.137s-2.969 7.487-.137 10.395c15.441 15.854 23.944 36.775 23.944 58.911v4.5h-10.089c-11.12-32.141-41.176-53.615-75.338-53.615h-17.671c-12.16 0-22.052 9.892-22.052 22.052v56.923c0 2.432-1.978 4.41-4.41 4.41h-111.423c-2.432 0-4.41-1.978-4.41-4.41v-109.893c0-2.432 1.978-4.41 4.41-4.41h156.541c12.305 0 24.164 2.585 35.249 7.684 3.688 1.696 8.053.082 9.75-3.606s.082-8.053-3.606-9.75c-13.026-5.992-26.953-9.03-41.394-9.03h-156.54c-10.538 0-19.112 8.573-19.112 19.112v13.003h-26.351c-5.903-7.185-14.853-11.777-24.856-11.777h-27.996c-8.377 0-15.191 6.815-15.191 15.191v11.404c0 4.06 3.291 7.351 7.351 7.351s7.351-3.291 7.351-7.351v-11.404c0-.27.22-.49.49-.49h27.996c9.628 0 17.46 7.833 17.46 17.46v31.129c0 9.628-7.833 17.46-17.46 17.46h-27.997c-.27 0-.49-.22-.49-.49v-16.739c0-4.06-3.291-7.351-7.351-7.351s-7.351 3.291-7.351 7.351v16.739c0 8.377 6.815 15.191 15.191 15.191h27.996c10.003 0 18.954-4.592 24.857-11.777h26.35v24.992c0 10.538 8.573 19.112 19.112 19.112h18.348v30.376c0 16.235-1.953 31.887-5.807 46.52-4.508 17.123-6.892 36.933-6.892 57.287 0 6.339.232 12.692.69 18.882.584 9.544 15.503 8.403 14.661-1.083-.431-5.832-.649-11.82-.649-17.799 0-19.11 2.216-37.625 6.407-53.544 4.174-15.855 6.291-32.765 6.291-50.263v-30.376h43.793v30.376c0 17.499 2.117 34.41 6.291 50.264 4.192 15.917 6.407 34.432 6.407 53.544s-2.216 37.627-6.407 53.544c-1.927 7.32-3.395 14.874-4.439 22.599h-47.496c-1.044-7.725-2.512-15.279-4.44-22.599-.377-1.431-.739-2.888-1.086-4.368-.926-3.952-4.877-6.405-8.833-5.481-3.953.926-6.407 4.88-5.481 8.833.377 1.608.775 3.21 1.183 4.76 3.853 14.633 5.807 30.285 5.807 46.52v38.738c0 15.668-1.958 31.312-5.82 46.498l-4.129 16.238c-1.501 5.902-.218 12.045 3.52 16.853 3.739 4.808 9.375 7.566 15.466 7.566h55.123c6.09 0 11.727-2.757 15.466-7.565 3.738-4.808 5.022-10.951 3.52-16.853l-4.129-16.238c-3.862-15.185-5.82-30.829-5.82-46.498v-38.738c0-16.237 1.953-31.888 5.806-46.519 4.509-17.121 6.892-36.931 6.892-57.288s-2.383-40.166-6.892-57.287c-3.853-14.632-5.806-30.284-5.806-46.52v-30.376h19.879c10.538 0 19.112-8.573 19.112-19.112v-56.926c0-4.053 3.297-7.351 7.351-7.351h17.671c28.341 0 53.216 18.116 61.899 45.08 1.645 5.105 6.334 8.536 11.67 8.536h14.309c6.755 0 12.251-5.496 12.251-12.251v-6.95c-.001-25.99-9.985-50.555-28.115-69.169zm-266.242 59.334c.331-1.846.513-3.743.513-5.683v-31.128c0-1.94-.182-3.837-.513-5.683h19.559v42.494zm125.038 406.101c-.548.705-1.779 1.888-3.86 1.888h-55.123c-3.833-.574-5.127-2.236-4.738-6.093l4.129-16.239c4.163-16.37 6.273-33.233 6.273-50.121v-38.738c0-4.36-.132-8.683-.394-12.963h44.581c-.262 4.28-.394 8.603-.394 12.963v38.738c0 16.89 2.11 33.754 6.273 50.122l4.129 16.238c.515 2.016-.328 3.5-.876 4.205z"/><path d="m201.069 68.063c0 12.783 16.027 22.423 37.281 22.423s37.281-9.64 37.281-22.423c0-12.784-16.027-22.424-37.281-22.424s-37.281 9.641-37.281 22.424zm59.86 0c0 1.922-8.008 7.722-22.579 7.722s-22.579-5.8-22.579-7.722 8.008-7.722 22.579-7.722 22.579 5.8 22.579 7.722z"/></g></svg>