<svg id="Capa_1" enable-background="new 0 0 512 512" height="512" viewBox="0 0 512 512" width="512" xmlns="http://www.w3.org/2000/svg"><g><path d="m489.625 400.558-15.83-23.26c-2.302-3.383-6.91-4.259-10.295-1.957-3.384 2.302-4.26 6.912-1.957 10.295l15.83 23.26c5.707 8.385 6.949 19.047 3.321 28.52-2.28 4.495-6.381 5.271-10.141 1.908l-50.589-55.664c-25.289-27.825-44.925-59.74-58.363-94.861l-14.438-37.733c-1.289-3.368-2.826-6.624-4.563-9.762 5.007-15.169 19.169-25.535 35.384-25.535 3.069 0 6.094.378 9.037 1.112l15.514 53.973c9.078 31.58 22.963 61.427 41.27 88.71 2.294 3.424 6.928 4.288 10.281 2.024 3.398-2.28 4.305-6.883 2.024-10.281-17.447-26.004-30.681-54.449-39.333-84.548l-31.07-108.094c-4.239-14.745-14.387-26.807-28.066-33.505v-23.235h13.023c9.86 0 17.881-8.021 17.881-17.881v-11.756h12.771v13.891c0 8.683 7.064 15.746 15.746 15.746h22.259c8.683 0 15.746-7.064 15.746-15.746v-70.433c.001-8.682-7.063-15.746-15.746-15.746h-22.259c-8.683 0-15.746 7.064-15.746 15.746v13.891h-12.771v-11.756c0-9.86-8.021-17.881-17.881-17.881h-39.934c-4.093 0-7.41 3.317-7.41 7.41s3.317 7.41 7.41 7.41h39.935c1.688 0 3.061 1.373 3.061 3.06v66.164c0 1.688-1.373 3.061-3.061 3.061h-148.925c-9.045 0-17.631-4.361-22.966-11.667l-10.325-14.138c-8.114-11.113-21.175-17.747-34.934-17.747h-26.774c-15.892 0-28.821 12.93-28.821 28.822 0 8.123-6.609 14.731-14.732 14.731h-50.87c-1.688 0-3.06-1.373-3.06-3.061v-66.164c0-1.688 1.373-3.06 3.06-3.06h263.742c4.093 0 7.41-3.317 7.41-7.41s-3.316-7.411-7.409-7.411h-263.742c-9.86 0-17.881 8.021-17.881 17.881v66.164c0 9.252 7.063 16.884 16.08 17.789v372.926c0 8.444 6.87 15.314 15.314 15.314h110.484c56.374 0 102.238-45.864 102.238-102.238v-124.71c0-7.912 3.272-15.596 8.976-21.079l25.1-24.127c18.148 6.672 33.921 20.002 40.691 38.445l14.438 37.733c14.099 36.848 34.703 70.336 61.237 99.531l50.589 55.664c4.907 5.429 12.246 7.828 19.309 6.477 7.178-1.351 13.024-6.229 15.638-13.051 5.364-14.006 3.529-29.765-4.907-42.161zm-49.378-342.27h-24.112v-14.64h24.112zm-.926 28.817h-22.259c-.51 0-.926-.416-.926-.926v-13.071h24.112v13.071c-.001.511-.416.926-.927.926zm-22.259-72.285h22.259c.51 0 .926.416.926.926v13.081h-24.112v-13.081c.001-.51.417-.926.927-.926zm-15.746 29.637v13.011h-12.771v-13.011zm-355.978 430.303v-36.214c0-.817.665-1.482 1.482-1.482h35.226c.817 0 1.482.665 1.482 1.482v36.708h-37.696c-.272 0-.494-.222-.494-.494zm211.922-243.398c-8.596 8.264-13.526 19.841-13.526 31.764v124.71c0 48.203-39.215 87.418-87.418 87.418h-57.968v-36.708c0-8.988-7.314-16.302-16.302-16.302h-35.226c-.5 0-.993.03-1.482.074v-320.393h37.85c16.295 0 29.552-13.257 29.552-29.551 0-7.721 6.281-14.002 14.001-14.002h26.774c9.045 0 17.631 4.361 22.965 11.667l10.325 14.139c8.114 11.113 21.175 17.747 34.934 17.747h121.083v34.74c0 7.912-3.272 15.596-8.976 21.079zm48.591-23.795-1.677-.743 39.943-38.394c7.248-6.969 11.876-16.297 13.153-26.199 6.789 5.05 11.799 12.194 14.195 20.531l11.033 38.383c-1.496-.129-3.001-.194-4.513-.194-19.141 0-36.231 10.344-45.299 26.336-7.397-8.359-16.541-15.16-26.835-19.72z"/><path d="m143.839 194.891c-25.521 0-46.284 20.763-46.284 46.284v80.964c0 4.093 3.317 7.41 7.41 7.41s7.41-3.317 7.41-7.41v-80.964c0-17.349 14.115-31.464 31.464-31.464s31.464 14.115 31.464 31.464v134.03c0 17.349-14.115 31.464-31.464 31.464s-31.464-14.115-31.464-31.464v-19.566c0-4.093-3.317-7.41-7.41-7.41s-7.41 3.317-7.41 7.41v19.566c0 25.521 20.763 46.284 46.284 46.284s46.284-20.763 46.284-46.284v-134.03c-.001-25.521-20.763-46.284-46.284-46.284z"/><path d="m228.226 180.191c-12.192 0-22.11 9.919-22.11 22.11 0 12.192 9.919 22.11 22.11 22.11 12.192 0 22.11-9.919 22.11-22.11.001-12.191-9.918-22.11-22.11-22.11zm0 29.401c-4.02 0-7.29-3.271-7.29-7.29 0-4.02 3.271-7.29 7.29-7.29 4.02 0 7.29 3.271 7.29 7.29.001 4.019-3.27 7.29-7.29 7.29z"/><path d="m43.369 56.82c0 12.192 9.919 22.11 22.11 22.11s22.11-9.919 22.11-22.11-9.919-22.11-22.11-22.11-22.11 9.918-22.11 22.11zm29.401 0c0 4.02-3.271 7.29-7.29 7.29s-7.29-3.271-7.29-7.29 3.271-7.29 7.29-7.29 7.29 3.27 7.29 7.29z"/><path d="m206.116 56.82c0 12.192 9.919 22.11 22.11 22.11 12.192 0 22.11-9.919 22.11-22.11s-9.919-22.11-22.11-22.11c-12.192-.001-22.11 9.918-22.11 22.11zm29.401 0c0 4.02-3.271 7.29-7.29 7.29-4.02 0-7.29-3.271-7.29-7.29s3.271-7.29 7.29-7.29c4.019-.001 7.29 3.27 7.29 7.29z"/><path d="m326.778 446.051h-23.307v-17.802c0-4.093-3.317-7.41-7.41-7.41h-23.801c-4.093 0-7.41 3.317-7.41 7.41s3.317 7.41 7.41 7.41h16.391v36.309h-16.391c-4.093 0-7.41 3.317-7.41 7.41s3.317 7.41 7.41 7.41h23.801c4.093 0 7.41-3.317 7.41-7.41v-18.507h15.897v36.309h-16.391c-4.093 0-7.41 3.317-7.41 7.41s3.317 7.41 7.41 7.41h23.801c4.093 0 7.41-3.317 7.41-7.41v-51.129c0-4.093-3.318-7.41-7.41-7.41z"/><path d="m368.19 369.886-20.211-12.568c-3.476-2.161-8.045-1.096-10.206 2.38-2.161 3.474-1.095 8.044 2.38 10.205l13.919 8.655-19.173 30.835-13.919-8.655c-3.473-2.16-8.044-1.097-10.205 2.38-2.161 3.475-1.095 8.044 2.38 10.205l20.212 12.567c3.421 2.142 8.031 1.125 10.205-2.38l26.998-43.419c2.161-3.475 1.095-8.044-2.38-10.205z"/></g></svg>