<svg id="Capa_1" enable-background="new 0 0 512 512" height="512" viewBox="0 0 512 512" width="512" xmlns="http://www.w3.org/2000/svg"><g><path d="m500.77 79.846c-.445-.166-.9-.313-1.363-.443l-111.825-31.229c-4.742-1.318-9.794-1.336-14.553 0l-113.725 31.76c-2.164.603-4.451.604-6.616 0l-113.723-31.759c-4.761-1.33-9.794-1.33-14.554 0l-62.382 17.421c-3.925 1.096-6.218 5.166-5.122 9.091 1.096 3.926 5.168 6.22 9.091 5.122l58.311-16.284v115.851l-35.964 11.262c-3.049.955-5.124 3.779-5.124 6.974 0 4.932 4.785 8.448 9.492 6.974l31.596-9.894v28.476h-75.046c-5.297 0-9.985 3.376-11.663 8.401-1.679 5.025.038 10.54 4.272 13.725l46.104 34.675-73.219 20.447v-204.431c0-1.099.739-2.073 1.798-2.369l14.744-4.117c3.925-1.096 6.218-5.166 5.122-9.091s-5.167-6.219-9.091-5.122l-14.744 4.117c-7.411 2.07-12.586 8.889-12.586 16.582v331.244c0 5.432 2.481 10.43 6.808 13.714 4.326 3.284 9.808 4.328 15.039 2.868l106.534-29.75c2.164-.604 4.451-.604 6.615 0l113.724 31.759c4.761 1.33 9.793 1.33 14.555 0l32.976-9.209 34.213 25.732c3.76 2.829 8.707 3.263 12.883 1.175 4.198-2.095 6.806-6.311 6.806-11.003v-30.957l26.846-7.497c2.165-.605 4.452-.604 6.615 0l106.533 29.75c10.512 3.283 22.178-5.527 21.847-16.582v-331.244c-.001-7.213-4.55-13.657-11.224-16.139zm-237.395 14.272 26.828-7.492v37.875l-26.828 7.816zm-124.309-30.593 109.552 30.594v37.977l-54.874-17.265c-4.57-1.574-9.723 2.206-9.593 7.038v71.525l-45.086-14.118v-115.751zm0 131.214 50.259 15.738c2.242.702 4.682.294 6.574-1.095 1.892-1.39 3.01-3.598 3.01-5.946v-71.511l49.71 15.64v75.601h-109.553zm109.552 235.73-109.552-30.594v-52.45c0-4.075-3.303-7.378-7.378-7.378s-7.378 3.303-7.378 7.378v52.45l-106.432 29.723c-1.025.284-1.785-.134-2.149-.41-.363-.275-.972-.896-.972-1.959v-111.493l25.904-7.234v46.333c-.131 4.736 4.85 8.503 9.363 7.107l52.284-14.601c3.925-1.096 6.218-5.166 5.122-9.091s-5.166-6.218-9.091-5.122l-42.922 11.987v-40.735l47.413-13.241 145.787 109.646v29.684zm14.757 0v-18.585l18.02 13.552zm72.021 17.117-278.772-209.663h30.981v2.068c0 4.075 3.303 7.378 7.378 7.378s7.378-3.303 7.378-7.378v-2.068h35.893v12.791c0 4.075 3.303 7.378 7.378 7.378s7.378-3.303 7.378-7.378v-12.791h35.893v2.068c0 4.075 3.303 7.378 7.378 7.378s7.378-3.303 7.378-7.378v-2.068h35.892v12.791c0 4.075 3.303 7.378 7.378 7.378s7.378-3.303 7.378-7.378v-12.791h35.893v2.068c0 4.075 3.303 7.378 7.378 7.378s7.378-3.303 7.378-7.378v-2.068h29.944c.271 0 .492.22.492.492v209.171zm37.531-47.71-22.774 6.36v-87.226l22.774-6.36zm0-102.547-22.774 6.36v-65.273c0-8.408-6.84-15.249-15.249-15.249h-71.529v-75.479l72.021-20.982v75.107c-.125 4.74 4.842 8.504 9.371 7.104l28.16-7.897zm0-111.636-22.774 6.386v-75.209c0-2.322-1.093-4.509-2.95-5.902s-4.263-1.83-6.492-1.182l-35.751 10.415v-37.696l67.967-18.981zm124.309 241.536c0 1.062-.609 1.683-.972 1.959-.364.276-1.13.694-2.148.41l-106.432-29.722v-198.867l68.631 19.166c3.819 1.099 8.008-1.164 9.091-5.122 1.096-3.925-1.197-7.995-5.122-9.091l-72.601-20.275v-122.162l55.982 15.633v32.99l-31.499-8.797c-3.925-1.097-7.995 1.197-9.091 5.122s1.197 7.995 5.122 9.091l40.863 11.412c4.512 1.397 9.494-2.371 9.363-7.106v-38.59l37.016 10.337c1.059.296 1.798 1.27 1.798 2.369v331.243z"/><path d="m449.416 345.015-11.425-3.191v-11.739c0-4.075-3.303-7.378-7.378-7.378s-7.378 3.303-7.378 7.378v7.618l-7.455-2.082c-3.926-1.097-7.995 1.197-9.091 5.122s1.197 7.995 5.122 9.091l11.425 3.191v11.739c0 4.075 3.303 7.378 7.378 7.378s7.378-3.303 7.378-7.378v-7.618l7.455 2.082c3.819 1.099 8.008-1.164 9.091-5.122 1.096-3.925-1.197-7.995-5.122-9.091z"/><path d="m294.569 265.469h-124.57c-4.451 0-8.388 2.836-9.797 7.057-1.41 4.221.033 8.854 3.589 11.528l127.521 95.909c6.451 5.196 16.817 0 16.539-8.256v-92.957c-.001-7.323-5.959-13.281-13.282-13.281zm-1.476 97.37-109.843-82.613h65.368v19.752c0 4.075 3.303 7.378 7.378 7.378s7.378-3.303 7.378-7.378v-19.752h29.718v82.613z"/></g></svg>