<svg id="Capa_1" enable-background="new 0 0 512 512" height="512" viewBox="0 0 512 512" width="512" xmlns="http://www.w3.org/2000/svg"><g><path d="m237.681 224.911h-2.065v-15.296c0-6.686-5.439-12.126-12.125-12.126h-8.863v-51.665c0-5.136-3.214-9.525-7.733-11.289v-88.336c0-5.142-1.242-10.277-3.592-14.85l-13.264-25.819c-1.753-3.411-5.224-5.53-9.06-5.53-3.835 0-7.306 2.119-9.059 5.531l-13.264 25.817c-2.35 4.574-3.592 9.709-3.592 14.851v88.337c-4.518 1.765-7.732 6.154-7.732 11.289v51.665h-9.042c-6.686 0-12.125 5.439-12.125 12.126v15.296h-1.942c-8.291 0-15.036 6.745-15.036 15.036v37.813c0 8.291 6.745 15.036 15.036 15.036h1.942v9.618c0 12.83-2.609 25.297-7.751 37.045l-.154.352c-7.982 18.233-10.715 38.285-7.904 57.989l14.21 99.622c1.184 8.312 8.409 14.579 16.805 14.579h28.319c4.018 0 7.275-3.257 7.275-7.275s-3.257-7.275-7.275-7.275h-28.319c-1.199 0-2.231-.895-2.4-2.083l-3.792-26.586c8.839-2.51 15.881-9.037 19.176-17.39 4.281 10.83 14.846 18.516 27.181 18.516 12.211 0 22.69-7.531 27.052-18.19 3.151 7.699 9.494 13.762 17.377 16.537l-4.063 27.13c-.176 1.177-1.208 2.066-2.399 2.066h-14.477c-4.018 0-7.275 3.257-7.275 7.275s3.257 7.275 7.275 7.275h14.477c8.336 0 15.554-6.217 16.788-14.461l14.878-99.347c2.987-19.945.291-40.253-7.796-58.728-5.146-11.755-7.755-24.221-7.755-37.052v-9.618h2.065c8.291 0 15.036-6.745 15.036-15.036v-37.813c-.002-8.291-6.747-15.036-15.038-15.036zm-68.067-130.635h22.731v39.424h-22.731zm0-48.077c0-2.84.686-5.675 1.984-8.201l9.381-18.26 9.382 18.26c1.298 2.526 1.984 5.361 1.984 8.201v33.527h-22.731zm-7.732 102.051h38.195v49.239h-38.195zm-20.047 292.436c0 5.939-3.56 11.128-8.752 13.416l-8.324-58.358c-.972-6.812-1.163-13.67-.618-20.458 8.955-2.006 17.801 5.166 17.694 14.347zm54.368 0c0 8.089-6.581 14.67-14.67 14.67s-14.67-6.581-14.67-14.67v-51.052c0-8.089 6.581-14.67 14.67-14.67s14.67 6.581 14.67 14.67zm24.764 0v-51.052c-.065-8.75 7.867-15.726 16.533-14.548.548 6.952.322 13.977-.722 20.952l-8.577 57.272c-4.321-2.556-7.234-7.251-7.234-12.624zm9.075-95.386c2.149 4.91 3.854 9.971 5.114 15.125-12.004.195-22.267 7.659-26.571 18.178-4.362-10.659-14.841-18.19-27.052-18.19-12.338 0-22.905 7.69-27.184 18.524-4.278-10.835-14.846-18.524-27.184-18.524-.203 0-.404.019-.607.023 1.252-5.039 2.925-9.986 5.026-14.785l.155-.352c5.955-13.607 8.975-28.036 8.975-42.887v-9.618h80.351v9.618c0 14.853 3.02 29.282 8.977 42.888zm8.124-67.541c0 .268-.218.485-.485.485h-113.46c-.267 0-.485-.217-.485-.485v-37.813c0-.268.218-.485.485-.485h28.417c4.018 0 7.275-3.257 7.275-7.275s-3.257-7.275-7.275-7.275h-11.925v-12.871h80.351v12.871h-35.211c-4.018 0-7.275 3.257-7.275 7.275s3.257 7.275 7.275 7.275h51.827c.267 0 .485.217.485.485v37.813z"/><path d="m398.917 212.541c-3.016-2.369-7.056-2.846-10.541-1.246l-26.378 12.109c-3.102 1.424-5.965 3.353-8.474 5.666v-10.204c0-5.444-3.607-10.06-8.556-11.588v-14.696c4.949-1.528 8.556-6.144 8.556-11.588v-36.691c0-5.444-3.607-10.06-8.556-11.588v-29.084c0-6.686-5.439-12.125-12.125-12.125h-27.58c-6.686 0-12.125 5.439-12.125 12.125v29.084c-4.949 1.528-8.556 6.144-8.556 11.588v36.691c0 5.444 3.607 10.06 8.556 11.588v14.696c-4.949 1.528-8.556 6.144-8.556 11.588v36.692c0 6.686 5.439 12.125 12.125 12.125h25.943l-10.934 13.92c-1.824-.704-3.803-.957-5.799-.718-3.216.387-6.089 2.002-8.089 4.549l-22.666 28.856c-4.127 5.258-3.209 12.894 2.047 17.024l35.147 27.606c5.219 4.11 12.874 3.238 17.026-2.045l22.663-28.854c2.002-2.547 2.89-5.721 2.504-8.938-.24-1.996-.955-3.859-2.071-5.464l38.283-48.74c3.176-4.044 5.371-8.85 6.348-13.897l5.516-28.497c.73-3.764-.691-7.575-3.708-9.944zm-57.552 91.672-17.875-14.041 19.289-24.558 17.875 14.04zm-33.676-97.472v-13.621h22.73v13.621zm-8.556-28.171v-31.841h39.842v31.841zm31.286-72.514v26.121h-22.73v-26.121zm-31.286 115.236h39.842v25.609l-4.895 6.232h-34.946v-31.841zm20.305 124.689-31.333-24.611 19.669-25.04 31.332 24.611zm63.387-97.762c-.54 2.787-1.752 5.441-3.506 7.674l-9.677 12.319-17.875-14.04 9.677-12.32c1.753-2.233 4.045-4.039 6.625-5.224l18.656-8.565z"/></g></svg>