<svg id="Capa_1" enable-background="new 0 0 512 512" height="512" viewBox="0 0 512 512" width="512" xmlns="http://www.w3.org/2000/svg"><g><path d="m512 291.433c0-12.738-10.265-23.117-22.955-23.316v-21.382c0-10.255-3.614-20.244-10.175-28.128l-10.311-12.388c-3.699-4.444-9.603-6.044-15.039-4.078-5.437 1.967-8.95 6.974-8.95 12.756v18.838c-5.13-18.689-12.648-36.399-22.346-52.777l19.137-17.821c4.827-4.495 7.323-10.847 6.848-17.425-.474-6.579-3.856-12.506-9.278-16.262l-40.886-28.322c-10.644-7.374-24.889-7.294-35.45.201l-10.555 7.49c-45.524-28.889-99.515-39.583-153.337-30.113-4.122.725-8.208 1.58-12.26 2.54l-18.695-18.352c-9.232-8.953-24.027-8.728-32.982.503l-18.14 18.703c-1.493 1.54-3.749 2.036-5.747 1.259-15.115-5.859-32.159-2.115-43.46 9.505-3.614 3.716-6.037 8.686-1.962 12.541 2.901 2.814 7.537 2.747 10.355-.158l2.121-2.186c7.179-7.402 18.03-9.778 27.653-6.047 7.493 2.907 15.955 1.055 21.554-4.717l18.141-18.701c3.153-3.412 8.977-3.479 12.241-.217l12.64 12.408c-46.004 14.796-86.132 44.788-113.357 85.263-7.089-5.031-16.853-4.117-22.878 2.379-5.591 6.024-6.253 14.968-1.608 21.749l6.181 9.024c-.893 2.016-1.753 4.042-2.582 6.077l-13.494-13.215c-4.909-4.762-7.671-11.15-7.775-17.989s2.461-13.31 7.224-18.219l30.399-31.34c2.816-2.902 2.745-7.539-.158-10.355-2.903-2.817-7.539-2.745-10.355.158l-30.399 31.34c-7.486 7.717-11.518 17.888-11.354 28.639.164 10.75 4.504 20.793 12.197 28.254l18.2 17.824c-5.562 17.219-8.917 35.033-9.998 53.211-.311 5.253 1.583 10.464 5.196 14.298 3.622 3.844 8.729 6.049 14.01 6.049h32.373c.021.466.043.931.068 1.397l-9.387 9.387c-1.725 1.726-4.019 2.675-6.46 2.675h-9.692c-12.002 0-21.767 9.766-21.767 21.768 0 12.003 9.765 21.768 21.767 21.768h76.348c-3.25 4.235-5.367 9.402-5.902 15.082l-.938 9.959c-1.557-2.09-3.059-4.219-4.496-6.375-2.244-3.365-6.79-4.273-10.155-2.031-3.365 2.243-4.274 6.79-2.031 10.155 3.393 5.092 7.118 10.05 11.069 14.738 2.858 3.39 7.438 4.722 11.675 3.399 4.241-1.327 7.25-5.041 7.666-9.461l1.79-19.01c.675-7.169 6.394-12.711 13.6-13.177 10.546-.959 19.027 11.447 14.243 21.119l-5.686 12.34c-4.591 9.961-2.741 21.598 4.713 29.646l17.353 18.735c3.4 3.671 7.675 6.372 12.362 7.81 11.883 3.646 24.194 5.931 36.595 6.792 4.381.312 8.58-2.054 10.563-6.029 1.997-3.975 1.416-8.723-1.479-12.096l-12.712-14.812c-4.356-5.075-4.703-12.434-.842-17.898 6.41-9.61 21.985-7.271 25.892 3.38l4.929 12.66c3.98 10.22 13.638 16.97 24.604 17.196l31.25.642c1.842.036 3.688-.393 5.316-1.242 10.803-5.627 21.004-12.494 30.321-20.408 3.371-2.862 4.689-7.44 3.359-11.662-1.332-4.23-5.044-7.232-9.456-7.647l-22.811-2.148c-7.152-.565-10.778-7.426-9.918-14.046-.256-10.413 11.494-18.128 20.892-13.512l12.34 5.686c9.962 4.591 21.599 2.741 29.646-4.713l14.11-13.069h100.996c4.045 0 7.323-3.278 7.323-7.323v-33.858c12.693-.202 22.958-10.58 22.958-23.318zm-111.482 7.502h.782c2.47 14.378 15.018 25.356 30.09 25.356h13.18v16.994h-51.592c4.44-13.723 6.889-27.98 7.54-42.35zm44.052 10.71h-13.18c-6.947 0-12.852-4.488-15.008-10.71h16.462c4.256 0 8.383-1.452 11.726-4.021zm-54.864-196.477 40.886 28.322c1.759 1.219 2.857 3.142 3.01 5.277.154 2.135-.656 4.195-2.222 5.653l-17.178 15.996c-13.343-19.313-29.915-36.451-49.294-50.768l6.163-4.373c5.551-3.94 13.04-3.981 18.635-.107zm-345.046 70.222c1.037-1.115 2.75-1.209 3.9-.224l30.094 25.755c5.06 4.33 11.513 6.714 18.172 6.714h5.467c6.646 0 12.053 5.407 12.053 12.053s-5.407 12.053-12.053 12.053h-9.714c-7.505 0-14.517-3.697-18.758-9.888l-29.42-42.953c-.75-1.094-.643-2.537.259-3.51zm-8.401 99.451c-.504-.535-1.335-1.686-1.235-3.385 1.244-20.937 5.731-41.359 13.338-60.855l13.377 19.53c6.973 10.179 18.501 16.257 30.84 16.257h9.714c14.722 0 26.698-11.977 26.698-26.698s-11.977-26.698-26.698-26.698h-5.467c-3.169 0-6.241-1.135-8.649-3.196l-20.119-17.218c30.463-46.093 78.761-77.872 133.183-87.445 53.881-9.479 107.93 2.69 152.189 34.261 44.221 31.544 73.293 78.634 81.86 132.595 1.02 6.427 1.74 12.963 2.14 19.428-.287 3.299-1.308 4.384-4.585 4.873h-88.108c-3.162 0-5.852-2.41-6.258-5.608l-.114-.87c-3.097-22.863-14.011-44.297-30.733-60.349-2.918-2.802-7.553-2.705-10.354.211-2.801 2.918-2.706 7.553.211 10.354 14.554 13.972 23.671 31.867 26.363 51.739l.099.761c1.332 10.494 10.268 18.408 20.787 18.408h41.105c-.605 12.607-2.788 25.075-6.555 37.156-.488 2.075-2.86 3.804-4.301 5.194h-120.006c22.973-8.661 37.608-32.518 33.736-57.732-2.153-14.016-9.636-26.355-21.069-34.744-11.433-8.39-25.45-11.825-39.465-9.67-14.016 2.153-26.355 9.635-34.744 21.068s-11.823 25.449-9.67 39.465 9.635 26.356 21.068 34.745c3.934 2.886 8.175 5.18 12.615 6.868h-122.526c-3.048-8.707-5.306-17.746-6.718-26.936-.43-2.797-.755-5.612-1.028-8.432l6.982-6.982h33.564c10.527 0 19.465-7.92 20.789-18.422 4.966-39.429 35.96-70.861 75.371-76.436 16.768-2.372 33.776.141 49.184 7.27 3.672 1.699 8.023.098 9.721-3.571 1.698-3.671.099-8.023-3.571-9.721-17.972-8.316-37.815-11.248-57.386-8.479-45.935 6.498-82.06 43.14-87.851 89.106-.402 3.197-3.093 5.607-6.258 5.607h-88.114c-1.729-.001-2.843-.908-3.352-1.449zm177.242 39.767c-16.913-11.881-20.821-37.331-8.253-53.739 11.901-16.901 37.254-20.839 53.738-8.253 8.279 6.075 13.698 15.01 15.257 25.159 3.218 20.953-11.21 40.617-32.163 43.835-10.152 1.558-20.3-.929-28.579-7.002zm-174.109 11.554c0-3.927 3.195-7.122 7.122-7.122h9.692c6.904.044 13.3-3.002 17.927-8.075 1.276 7.568 3.07 15.037 5.368 22.32h-32.987c-3.927-.001-7.122-3.196-7.122-7.123zm249.701 47.376c-1.27 14.289 8.656 27.367 23.191 28.626l13.808 1.301c-6.263 4.704-12.893 8.913-19.796 12.566l-30.318-.623c-5.018-.104-9.438-3.192-11.258-7.869l-4.93-12.661c-2.351-6.044-6.746-11.215-12.325-14.533-13.09-8.062-30.301-4.54-39.175 8.016-7.741 10.954-7.047 25.711 1.689 35.889l6.77 7.888c-8.237-1.078-16.387-2.846-24.327-5.282-2.222-.682-4.266-1.982-5.914-3.761l-17.353-18.735c-3.41-3.681-4.256-9.006-2.156-13.564l5.686-12.34c2.647-5.744 3.358-12.307 2.004-18.484-.006-.024-.012-.055-.02-.086-.99-4.472-2.968-8.527-5.656-11.956h134.977c-8.973 5.164-14.897 14.89-14.897 25.608zm67.571-23.283c-3.682 3.411-9.008 4.255-13.565 2.156l-9.725-4.481h25.801zm102.552-16.971v-123.398l8.398 10.09c4.376 5.257 6.786 11.919 6.786 18.759v94.55h-15.184zm29.829-41.19v-17.323c4.614.196 8.31 4 8.31 8.662s-3.696 8.465-8.31 8.661z"/><path d="m189.526 152.747c4.237 4.146 11.132 4.146 15.369 0l12.906-12.633 12.906 12.631c4.235 4.148 11.13 4.15 15.371.002l12.908-12.633 12.91 12.634c4.236 4.148 11.131 4.146 15.368 0l18.033-17.646c2.891-2.828 2.941-7.465.113-10.355-2.827-2.891-7.464-2.941-10.355-.113l-15.475 15.142-12.912-12.636c-4.238-4.144-11.132-4.141-15.368.003l-12.907 12.633-12.907-12.633c-4.237-4.148-11.133-4.146-15.37 0l-12.906 12.633-15.469-15.141c-2.891-2.829-7.527-2.777-10.356.112-2.828 2.89-2.778 7.527.112 10.356z"/><path d="m236.243 267.113c-13.531 0-24.499 10.969-24.499 24.499 0 13.531 10.969 24.499 24.499 24.499 13.531 0 24.499-10.969 24.499-24.499s-10.968-24.499-24.499-24.499zm0 34.016c-5.256 0-9.517-4.261-9.517-9.517s4.261-9.517 9.517-9.517 9.517 4.261 9.517 9.517-4.261 9.517-9.517 9.517z"/></g></svg>