<svg id="Capa_1" enable-background="new 0 0 512 512" height="512" viewBox="0 0 512 512" width="512" xmlns="http://www.w3.org/2000/svg"><g><circle cx="75.158" cy="465.212" r="10.544"/><circle cx="283.228" cy="465.212" r="10.544"/><path d="m495.105 220.193-5.295-4.806c3.954-5.595 6.143-12.331 6.143-19.28 0-8.957-3.552-17.095-9.314-23.097v-94.2c5.762-6.002 9.314-14.14 9.314-23.097 0-17.177-13.041-31.361-29.742-33.182-2.481-5.669-6.533-10.714-11.991-14.422-13.246-9-30.563-7.484-41.996 3.128-5.135-6.902-13.318-11.237-22.336-11.237-15.352 0-27.842 12.49-27.842 27.842 0 2.394.304 4.719.875 6.937l-206.361 116.92c-3.488 1.976-4.713 6.405-2.737 9.892 1.987 3.52 6.468 4.695 9.892 2.737l177.758-100.713-179.431 227.553c-1.32.221-2.618.506-3.886.864l-64.83-70.997c1.346-3.264 2.094-6.836 2.094-10.581 0-2.394-.304-4.719-.875-6.938l41.03-23.247c3.488-1.976 4.713-6.405 2.737-9.892s-6.406-4.713-9.892-2.737l-41.047 23.256c-5.051-5.112-12.058-8.286-19.794-8.286-15.352 0-27.842 12.49-27.842 27.843 0 12.333 8.063 22.812 19.192 26.46v29.646h-14.608c-6.875 0-12.694 4.921-13.837 11.701l-18.025 107.01c-.592 3.517.389 7.096 2.692 9.82 2.303 2.723 5.67 4.285 9.236 4.285h100.104v19.049h-49.333c-25.799 0-46.788 20.989-46.788 46.788s20.989 46.788 46.788 46.788h208.07c25.799 0 46.788-20.989 46.788-46.788s-20.989-46.788-46.788-46.788h-49.333v-19.049h102.79c7.737 0 14.031-6.295 14.031-14.031v-64.795c0-4.008-3.249-7.258-7.258-7.258-4.008 0-7.258 3.249-7.258 7.258v19.249h-28.886c-1.322 0-2.59-.489-3.571-1.375l-33.256-30.085c-1.113-1.006-1.751-2.445-1.751-3.946v-23.316h67.464v5.786c0 4.008 3.249 7.258 7.258 7.258 4.008 0 7.258-3.249 7.258-7.258v-6.27c0-7.737-6.295-14.031-14.031-14.031h-21.916l40.197-51.902c6.287-8.114 11.997-16.841 17.136-25.705l62.61-104.306c1.322.526 2.721.827 4.138.902v87.091c-5.972 6.035-9.667 14.327-9.667 23.467 0 6.932 2.189 13.683 6.141 19.281l-5.294 4.805c-3.878 3.52-5.467 8.855-4.149 13.921l9.374 36.045c1.609 6.181 7.193 10.498 13.58 10.498h6.051v2.05c0 4.109-2.162 7.869-5.783 10.059-7.928 4.794-12.588 13.523-12.162 22.784.592 12.877 11.143 23.428 24.021 24.02 6.91.328 13.586-2.146 18.606-6.955 5.034-4.808 7.806-11.288 7.806-18.247 0-4.008-3.249-7.258-7.258-7.258-4.008 0-7.258 3.249-7.258 7.258.13 5.955-5.281 11.113-11.23 10.703-5.37-.247-9.94-4.817-10.188-10.188-.181-3.942 1.8-7.656 5.172-9.695 7.888-4.769 12.788-13.384 12.788-22.48v-2.05h6.899c6.387 0 11.972-4.317 13.579-10.499l9.375-36.044c1.319-5.069-.27-10.403-4.148-13.923zm-100.802-96.429-24.919-16.928 1.286-1.682 39.309-7.506zm-25.424 42.356-8.957-46.91.631-.825 26.268 17.845zm-51.41 73.249-27.247-18.51.42-.709 48.951-9.347zm-216.43 145.491v-53.445h102.743v53.445zm67.102-79.69c8.24 0 15.618 4.694 19.283 11.73h-38.603c3.613-7.032 10.914-11.73 19.32-11.73zm35.641-24.578v36.308h-.804c-3.265-11.386-11.925-20.309-22.79-24.166l191.444-243.897c4.892 4.26 11.276 6.848 18.256 6.848.117 0 .233-.014.35-.015l-77.027 100.729c-4.991 6.526-9.645 13.422-13.833 20.497l-53.075 89.665h-28.49c-7.736-.001-14.031 6.294-14.031 14.031zm114.819-106.858 30.221 20.531-48.319 9.226s15.742-26.305 18.098-29.757zm8.585-11.716 20.911-27.346 9.117 47.745zm-64.015 104.542 7.967-13.459 2.57 13.459zm156.826-185.602-36.095 6.892 18.793-24.575 19.83 13.471zm33.368 6.852c2.964.848 6.058 1.288 9.203 1.288 3.32 0 6.526-.494 9.556-1.401v76.426c-3.029-.907-6.235-1.401-9.556-1.401-3.192 0-6.277.46-9.203 1.3zm28.073-32.097c0 10.405-8.465 18.87-18.87 18.87-2.923 0-5.766-.675-8.335-1.941l10.923-20.756c2.333-4.433 3.585-9.166 3.848-13.888 7.24 2.638 12.434 9.572 12.434 17.715zm-35.375-35.599c8.152 5.538 10.838 16.29 6.248 25.011l-13.3 25.273-36.72-24.945 18.019-21.697c6.398-7.703 17.468-9.269 25.753-3.642zm-56.175-5.599c5.482 0 10.322 3.338 12.337 8.298l-12.123 14.596c-.905 1.09-1.612 2.311-2.116 3.608-6.448-.928-11.425-6.474-11.425-13.176.001-7.347 5.979-13.326 13.327-13.326zm-335.636 195.94c0-7.349 5.979-13.327 13.327-13.327s13.327 5.979 13.327 13.327-5.979 13.327-13.327 13.327-13.327-5.979-13.327-13.327zm19.192 27.215c4.009-.863 7.701-2.59 10.868-4.979l60.571 66.332c-5.478 4.564-9.58 10.741-11.597 17.878h-32.247v-36.309c0-7.737-6.295-14.031-14.031-14.031h-13.564zm-28.714 43.405h41.795v103.785h-59.277zm204.671 151.864c-3.549 3.719-6.492 8.017-8.672 12.74h-66.045c-4.008 0-7.258 3.249-7.258 7.258s3.249 7.258 7.258 7.258h62.029c-.361 3.288-.361 6.747 0 10.035h-115.04c.361-3.288.361-6.747 0-10.035h19.176c4.008 0 7.258-3.249 7.258-7.258s-3.249-7.258-7.258-7.258h-23.192c-2.18-4.723-5.123-9.021-8.672-12.74zm-131.743 51.806h123.071c2.18 4.723 5.123 9.021 8.672 12.74h-140.415c3.549-3.719 6.492-8.017 8.672-12.74zm-74.772-19.533c0-17.795 14.477-32.273 32.273-32.273s32.273 14.477 32.273 32.273-14.477 32.273-32.273 32.273-32.273-14.478-32.273-32.273zm272.615 0c0 17.795-14.477 32.273-32.273 32.273s-32.273-14.477-32.273-32.273 14.477-32.273 32.273-32.273 32.273 14.478 32.273 32.273zm-176.495-46.788v-19.049h80.374v19.049zm121.746-99.321 33.256 30.084c3.654 3.306 8.38 5.126 13.308 5.126h28.886v30.547h-117.904v-103.785h35.925v23.316c0 5.597 2.38 10.959 6.529 14.712zm27.733-52.543-6.174-32.335.504-.851 25.75 17.492-12.155 15.694zm155.213-70.453c0-10.405 8.465-18.87 18.87-18.87s18.87 8.465 18.87 18.87c0 3.325-.885 6.565-2.513 9.4l-6.927-6.287c-5.376-4.88-13.485-4.879-18.86 0l-6.933 6.293c-1.632-2.824-2.507-6.034-2.507-9.406zm32.228 70.036h-26.718l-9.206-35.398 22.565-20.481 22.565 20.481z"/><path d="m238.311 336.304c-4.008 0-7.258 3.249-7.258 7.258s3.249 7.258 7.258 7.258h13.466c4.008 0 7.258-3.249 7.258-7.258s-3.249-7.258-7.258-7.258z"/></g></svg>