<svg id="Capa_1" enable-background="new 0 0 512 512" height="512" viewBox="0 0 512 512" width="512" xmlns="http://www.w3.org/2000/svg"><g><path d="m493.988 179.685h-65.089c-1.924 0-3.489-1.566-3.489-3.49v-22.439h13.398c2.991 8.381 11.005 14.397 20.401 14.397h23.846c11.942 0 21.657-9.716 21.657-21.658s-9.715-21.657-21.657-21.657h-23.846c-9.396 0-17.409 6.016-20.401 14.396h-13.398v-8.817c0-9.931-8.08-18.012-18.012-18.012h-34.541c-7.972-.06-15.727 2.467-22.461 6.661-1.996-3.945-6.079-6.661-10.794-6.661h-28.884c-6.673 0-12.101 5.428-12.101 12.101v.331h-42.471c-4.01 0-7.261 3.25-7.261 7.261 0 4.01 3.251 7.261 7.261 7.261h42.471v64.748h-169.418v-64.748h94.438c4.01 0 7.261-3.25 7.261-7.261 0-4.01-3.251-7.261-7.261-7.261h-94.438v-.331c0-6.673-5.428-12.101-12.101-12.101h-28.885c-6.673 0-12.101 5.428-12.101 12.101v18.343l-67.366 17.565c-5.15 1.344-8.746 5.998-8.746 11.319s3.596 9.976 8.746 11.319l67.366 17.565v18.343c0 6.673 5.428 12.101 12.101 12.101h28.884c6.673 0 12.101-5.428 12.101-12.101v-.332h61.054l-5.693 12.002c-1.768 3.726-1.507 8.031.697 11.517 2.204 3.487 5.983 5.567 10.108 5.567h31.827c1.999 0 3.828 1.01 4.893 2.701l53.847 85.462c2.138 3.392 6.621 4.412 10.014 2.273 3.393-2.138 4.41-6.621 2.273-10.014l-53.847-85.462c-3.741-5.937-10.163-9.481-17.179-9.481h-27.776l6.232-13.138c.398-.84 1.257-1.383 2.186-1.383h19.355c12.035 0 23.051 6.079 29.467 16.262l72.815 115.564c3.739 5.937 10.161 9.481 17.179 9.481h35.506s.018 14.015.047 14.521h-35.553c-12.034 0-23.049-6.079-29.465-16.261l-3.33-5.283c-2.138-3.393-6.623-4.407-10.014-2.271-3.392 2.138-4.409 6.622-2.271 10.014l3.329 5.282c9.091 14.427 24.698 23.04 41.75 23.04h40.905c4.865 6.418 12.568 10.573 21.224 10.573h26.622c14.679 0 26.622-11.943 26.622-26.622v-49.368c0-16.492-2.292-32.899-6.811-48.762-1.899-6.017 3.106-12.646 9.412-12.469h11.072c10.395 0 20.308-4.468 27.199-12.258 2.657-3.003 2.375-7.592-.629-10.249s-7.592-2.375-10.249.629c-4.135 4.676-10.084 7.357-16.321 7.357h-11.072c-7.694 0-14.765 3.522-19.4 9.663-4.636 6.14-6.085 13.906-3.977 21.305 4.15 14.57 6.255 29.637 6.255 44.784v49.368c0 6.673-5.428 12.101-12.101 12.101h-26.622c-6.673 0-12.101-5.428-12.101-12.101v-108.178c0-9.341-7.6-16.941-16.941-16.941h-97.776l-10.58-16.791h68.222c6.673 0 12.101-5.428 12.101-12.101v-83.916c6.192-3.587 13.693-8.538 21.154-8.117h34.541c1.925 0 3.49 1.566 3.49 3.49v45.777c0 9.931 8.079 18.012 18.011 18.012h65.089c1.925 0 3.49 1.566 3.49 3.489v18.142c0 4.01 3.25 7.261 7.261 7.261s7.261-3.25 7.261-7.261v-18.142c0-9.932-8.08-18.011-18.012-18.011zm-34.779-40.326h23.846c3.935 0 7.136 3.201 7.136 7.137 0 3.935-3.201 7.136-7.136 7.136h-23.846c-3.935 0-7.136-3.201-7.136-7.137.001-3.935 3.202-7.136 7.136-7.136zm-368.576 21.998h24.044v20.753h-24.044zm24.045-34.43v19.908h-24.045v-19.908zm-38.566 30.93v27.752l-53.222-13.876zm14.521 58.683v-19.909h24.044v19.909zm222.505-55.183h24.044v20.753h-24.044zm24.044-34.43v19.908h-24.044v-19.908zm44.974 137.867v30.612h-3.452c-.255 0-.496-.169-.631-.441-6.605-13.432-17.843-23.988-31.645-29.725-.245-.102-.531-.338-.531-.669v-2.196h33.838c1.336-.002 2.421 1.084 2.421 2.419zm-50.779-2.421v2.196c0 6.159 3.721 11.685 9.479 14.079 10.548 4.384 19.138 12.454 24.187 22.722 2.594 5.277 7.829 8.556 13.662 8.556h3.452v35.531h-35.506c-2.029 0-3.812-.984-4.892-2.7l-50.648-80.385h40.266zm-18.239-45.833v-19.909h24.044v19.909z"/><path d="m386.586 202.018c-14.301 0-25.503 8.591-25.503 19.557s11.202 19.557 25.503 19.557 25.503-8.591 25.503-19.557-11.202-19.557-25.503-19.557zm0 24.593c-6.705 0-10.982-3.307-10.982-5.036s4.277-5.036 10.982-5.036 10.982 3.307 10.982 5.036-4.278 5.036-10.982 5.036z"/></g></svg>