<svg id="Capa_1" enable-background="new 0 0 512 512" height="512" viewBox="0 0 512 512" width="512" xmlns="http://www.w3.org/2000/svg"><g><path d="m498.861 178.554h-75.176c-4.031 0-7.3 3.268-7.3 7.3s3.268 7.3 7.3 7.3h73.716v40.532h-32.703v-24.18c0-4.032-3.268-7.3-7.3-7.3s-7.299 3.268-7.299 7.3v24.18h-35.675v-8.927c0-4.032-3.268-7.3-7.3-7.3s-7.299 3.268-7.299 7.3v8.927h-35.675v-24.18c0-4.032-3.268-7.3-7.3-7.3s-7.299 3.268-7.299 7.3v24.18h-35.676v-8.927c0-4.032-3.268-7.3-7.299-7.3s-7.3 3.268-7.3 7.3v8.927h-35.676v-24.18c0-4.032-3.268-7.3-7.299-7.3s-7.3 3.268-7.3 7.3v24.18h-35.675v-8.927c0-4.032-3.268-7.3-7.3-7.3-3.563 0-6.525 2.553-7.167 5.929-.686-.12-1.387-.195-2.107-.195h-33.701v-13.688c0-4.032-3.268-7.3-7.3-7.3-4.031 0-7.299 3.268-7.299 7.3v13.688h-35.848c-.717-3.279-3.633-5.734-7.127-5.734-4.031 0-7.3 3.268-7.3 7.3v6.052c-.37.911-.607 1.87-.746 2.875h-34.929v-24.18c0-4.032-3.268-7.3-7.3-7.3s-7.3 3.268-7.3 7.3v24.18h-33.303v-40.532h376.487c4.031 0 7.299-3.268 7.299-7.3s-3.268-7.3-7.299-7.3h-182.168v-14.532c0-6.708-5.458-12.166-12.166-12.166h-22.525v-14.874h14.58c7.245 0 13.139-5.894 13.139-13.139v-18.056c0-7.245-5.894-13.139-13.139-13.139h-43.76c-7.245 0-13.139 5.894-13.139 13.139v18.056c0 7.245 5.894 13.139 13.139 13.139h14.581v14.874h-42.121v-46.578c0-3.734-2.034-7.168-5.309-8.963-4.958-3.044-10.445-.03-14.562 3.001-8.15 5.205-15.012 11.976-20.267 19.92-5.206-7.847-12.061-14.657-20.301-19.92-4.119-3.033-9.603-6.041-14.561-3.001-3.275 1.794-5.309 5.228-5.309 8.963v46.578h-25.032c-6.708 0-12.166 5.458-12.166 12.166v125.944c0 8.93 2.178 17.835 6.299 25.756l29.191 56.108c1.68 3.229 4.348 5.71 7.524 7.168-1.476 3.262-1.327 7.08.482 10.212l14.17 24.545c1.993 3.452 5.707 5.596 9.693 5.596h28.341c3.985 0 7.699-2.143 9.693-5.596l14.17-24.545c1.81-3.134 1.957-6.953.48-10.215 3.172-1.459 5.838-3.938 7.516-7.164l29.191-56.109c4.121-7.921 6.299-16.827 6.299-25.756v-15.134h33.701c6.708 0 12.166-5.458 12.166-12.166v-14.381h289.943c7.245 0 13.139-5.894 13.139-13.139v-43.452c.002-7.246-5.892-13.14-13.137-13.14zm-352.354-71.307h40.841v15.136h-40.841zm47.812 59.208v12.099h-53.013v-12.099zm-91.411-53.077v40.911c0 6.708 5.458 12.166 12.166 12.166h11.634v12.099h-37.958v-21.411c0-7.565-1.23-14.929-3.548-21.864 3.889-8.786 9.951-16.3 17.706-21.901zm-63.278 53.077c6.708 0 12.166-5.458 12.166-12.166v-40.912c14.054 10.146 22.355 26.283 22.355 43.767v21.411h-59.552v-12.099h25.031zm-20.38 142.529c-3.043-5.848-4.651-12.424-4.651-19.018v-41.681h82.704v99.717c-.527-.077-1.061-.124-1.602-.124h-28.342c-.543 0-1.08.048-1.609.125l.005-73.949c0-4.032-3.268-7.3-7.299-7.3-4.031 0-7.299 3.268-7.3 7.299l-.007 90.379c.019 1.44-2.066 1.991-2.709.661zm74.484 95.769h-24.408l-12.204-21.138 12.204-21.137h24.408l12.204 21.137zm100.585-144.52h-33.701c-6.708 0-12.166 5.458-12.166 12.166v17.567c0 6.593-1.608 13.17-4.651 19.018l-29.191 56.11c-.649 1.332-2.716.773-2.708-.662v-126.639h82.417z"/><circle cx="81.53" cy="383.615" r="9.287"/></g></svg>