<svg id="Capa_1" enable-background="new 0 0 512 512" height="512" viewBox="0 0 512 512" width="512" xmlns="http://www.w3.org/2000/svg"><g><path d="m381.555 276.232c-10.245-4.014-18.077-12.307-21.486-22.752-1.126-3.453-3.325-6.308-6.146-8.262v-48.231c0-22.631-10.608-44.05-28.494-57.787 3.184-1.54 6.259-3.18 9.194-4.924 26.458-15.719 41.631-39.297 41.631-64.689 0-8.169-1.546-16.203-4.595-23.88-2.217-5.583-5.216-10.839-8.915-15.623-2.457-3.178-7.024-3.76-10.199-1.305-3.177 2.456-3.761 7.022-1.306 10.199 2.867 3.707 5.19 7.777 6.904 12.096 2.369 5.961 3.569 12.19 3.569 18.513 0 20.133-12.581 39.155-34.517 52.187-4.761 2.828-9.945 5.368-15.442 7.583l-11.288-8.079c-.581-7.818-3.178-15.081-7.283-21.267 20.712-6.775 34.535-18.671 34.535-30.424 0-10.463-11.779-21.764-30.011-28.792-4.234-1.721-8.429-3.267-11.822-6.606l-14.443-13.835 20.21-5.218c2.935-.758 6.046-.794 8.995-.107l20.366 4.742c2.22.517 4.426 1.178 6.555 1.964 3.768 1.391 7.949-.536 9.338-4.303 1.391-3.767-.536-7.948-4.304-9.339-2.693-.994-5.482-1.83-8.29-2.485l-20.367-4.743c-5.225-1.217-10.733-1.151-15.928.19l-23.873 6.164c-3.634.938-6.591 3.471-8.144 6.807-1.553-3.335-4.51-5.869-8.144-6.807l-23.873-6.164c-5.195-1.341-10.702-1.407-15.927-.19l-20.365 4.744c-21.68 5.049-39.378 20.038-47.346 40.098-3.048 7.678-4.594 15.712-4.594 23.88 0 25.393 15.174 48.971 41.631 64.689 2.954 1.755 6.028 3.388 9.194 4.923-17.885 13.737-28.494 35.156-28.494 57.788v48.229c-2.822 1.954-5.023 4.81-6.151 8.263v.001c-3.408 10.446-11.239 18.739-21.485 22.753-7.434 2.912-12.236 9.907-12.236 17.822v12.415c0 10.535 8.571 19.107 19.106 19.107 2.462-.051 4.626 2.123 4.565 4.584l-.259 63.037c-.094 22.844 4.024 45.235 12.242 66.551l12.532 32.51c4.552 11.807 16.113 19.741 28.769 19.741 17.002 0 30.833-13.832 30.833-30.833v-222.799c0-4.482-1.859-8.534-4.84-11.441v-49.941c0-2.602 1.062-5.141 2.914-6.967 2.859-2.82 2.89-7.424.071-10.282-2.821-2.86-7.425-2.89-10.282-.071-4.604 4.541-7.244 10.854-7.244 17.32v45.386h-33.993v-45.386c0-18.765 9.109-36.49 24.367-47.415l5.457-3.906c5.493 1.856 11.225 3.423 17.173 4.704 8.512 12.129 23.463 19.856 39.233 18.743l27.919 19.929c2.55 1.825 4.074 4.795 4.074 7.945v49.938c-2.982 2.907-4.842 6.96-4.842 11.444v121.776c0 4.015 3.255 7.271 7.271 7.271s7.271-3.255 7.271-7.271v-121.776c0-.802.652-1.454 1.454-1.454h42.847c.627 0 1.189.433 1.399 1.077 4.763 14.592 15.699 26.176 30.007 31.781 1.821.713 2.998 2.394 2.998 4.282v12.415c0 2.517-2.048 4.565-4.565 4.565-5.119 0-9.927 1.998-13.539 5.624-3.612 3.627-5.589 8.443-5.568 13.561l.051 12.408h-6.362c-14.834 0-26.902 12.068-26.902 26.902v58.893c0 13.181 9.532 24.171 22.064 26.457l-12.392 32.148c-2.406 6.239-8.515 10.432-15.201 10.432-8.983 0-16.292-7.309-16.292-16.292v-66.062c0-4.015-3.255-7.271-7.271-7.271s-7.271 3.255-7.271 7.271v66.062c0 17.001 13.831 30.833 30.833 30.833 12.656 0 24.217-7.934 28.769-19.743l12.532-32.51c8.217-21.316 12.336-43.707 12.242-66.551l-.259-63.037c-.061-2.461 2.104-4.635 4.565-4.583 10.535 0 19.106-8.571 19.106-19.107v-12.415c0-7.914-4.803-14.91-12.236-17.822zm-218.748 164.546c-4.474-15.421-6.711-31.347-6.645-47.522l.149-36.087h6.422c6.815 0 12.36 5.545 12.36 12.36v58.893c0 6.789-5.505 12.315-12.286 12.356zm48.649 40.389c0 8.983-7.309 16.292-16.292 16.292-6.687 0-12.796-4.192-15.201-10.432l-12.392-32.148c12.532-2.286 22.064-13.276 22.064-26.457v-58.893c0-14.833-12.068-26.902-26.902-26.902h-6.362l.051-12.408c.022-5.118-1.956-9.934-5.568-13.561s-8.42-5.624-13.539-5.624c-2.517 0-4.565-2.048-4.565-4.565v-12.415c0-1.888 1.177-3.569 2.998-4.282 14.308-5.605 25.245-17.189 30.006-31.781.211-.644.773-1.076 1.4-1.076h42.847c.802 0 1.454.652 1.454 1.454v222.798zm74.607-356.557c0 5.44-1.46 10.543-3.998 14.951l-42.403-40.167c4.708-3.06 10.317-4.847 16.338-4.847 16.577 0 30.063 13.486 30.063 30.063zm-32.712-96.371c1.124-1.077 2.011-2.34 2.651-3.707.64 1.367 1.526 2.629 2.651 3.707l17.174 16.451c4.766 4.705 10.612 7.319 16.654 9.675 15.125 5.83 20.535 13.327 20.696 15.222 0 3.042-9.696 13.301-31.502 18.584-7.266-5.135-16.121-8.165-25.676-8.165-9.554 0-18.409 3.029-25.675 8.164-21.792-5.277-31.499-15.493-31.5-18.55.162-1.927 5.572-9.424 20.695-15.253 6.053-2.362 11.883-4.966 16.654-9.675zm-68.542 93.535c-21.937-13.032-34.518-32.054-34.518-52.188 0-6.322 1.2-12.551 3.568-18.513 6.208-15.632 20.088-27.334 37.129-31.302l20.367-4.743c2.953-.687 6.06-.65 8.994.107l20.211 5.219-14.444 13.834c-3.397 3.342-7.581 4.881-11.823 6.608-18.229 7.026-30.008 18.327-30.008 28.79 0 11.821 13.783 23.662 34.528 30.429-4.682 7.056-7.418 15.51-7.418 24.594 0 3.053.31 6.036.897 8.918-10.06-2.952-19.277-6.878-27.483-11.753zm41.127 2.836c0-5.294 1.381-10.27 3.793-14.595l42.262 40.033c-4.635 2.924-10.117 4.625-15.991 4.625-16.577 0-30.064-13.487-30.064-30.063zm50.858 39.443c10.338-5.472 18.284-14.882 21.811-26.226l16.408 11.744c15.259 10.925 24.369 28.651 24.369 47.415v45.386h-33.994v-45.386c0-7.832-3.796-15.223-10.161-19.776zm60.113 264.368v-58.893c0-6.815 5.545-12.36 12.36-12.36h6.422l.148 36.087c.066 16.175-2.171 32.101-6.645 47.522-6.78-.04-12.285-5.566-12.285-12.356z"/></g></svg>