<svg id="Capa_1" enable-background="new 0 0 512 512" height="512" viewBox="0 0 512 512" width="512" xmlns="http://www.w3.org/2000/svg"><g><path d="m284.427 348.579v-18.284c-.186-1.573 2.825-2.786 3.748-3.604 4.511-3.078 7.205-8.177 7.205-13.638 0-8.026-5.759-14.726-13.36-16.202l-7.905-41.637c-2.107-9.118-2.058-18.803 1.73-27.449 3.154-7.468 8.501-13.751 15.318-17.921 4.585-2.167 8.119-6.424 8.024-11.616v-77.715c15.489.387 30.95-2.945 45.027-9.568 2.964-1.398 5.253-3.992 6.281-7.117 1.037-3.152.729-6.634-.845-9.553l-11.057-20.512c-2.992-5.549-9.837-7.881-15.586-5.307-7.52 3.365-15.664 4.919-23.821 4.589v-60.574c0-6.877-5.594-12.471-12.47-12.471h-77.437c-6.876 0-12.471 5.594-12.471 12.471v115.632c-4.594 4.671-10.059 8.492-16.22 11.235-12.957 5.769-27.394 6.127-40.649 1.009-5.875-2.267-12.59.42-15.286 6.117l-9.966 21.061c-1.419 2.999-1.545 6.492-.344 9.586 1.191 3.068 3.616 5.54 6.651 6.781 12.155 4.972 24.964 7.493 38.072 7.493 13.032 0 25.711-2.485 37.743-7.377v14.222c-.094 5.19 3.439 9.449 8.024 11.615 6.817 4.17 12.164 10.453 15.318 17.921 3.788 8.641 3.837 18.339 1.73 27.449l-7.905 41.636c-7.601 1.476-13.36 8.176-13.36 16.202 0 5.462 2.693 10.56 7.204 13.638.933.826 3.926 2.024 3.748 3.604v18.138c0 6.891-1.926 13.903-5.571 20.281-6.328 11.072-9.673 23.658-9.673 36.399v38.974c0 12.469 3.207 24.818 9.274 35.711l6.029 10.826c7.453 13.385 21.05 21.376 36.37 21.376 15.321 0 28.917-7.991 36.371-21.376l6.029-10.826c6.067-10.894 9.274-23.243 9.274-35.712v-38.82c0-12.744-3.345-25.333-9.673-36.405-3.644-6.378-5.571-13.391-5.571-20.282zm-48.273-90.653c.564-3.071 1.187-6.251 1.471-9.386 6.586 2.659 14.158 2.659 20.744 0 .286 3.141.903 6.294 1.471 9.385l7.332 38.616h-38.349zm47.427-60.477c-4.885 2.988-9.213 6.761-12.86 11.125v-141.545c1.064-.893 2.029-1.914 2.866-3.053l11.069-15.058v147.889c-.361.211-.72.425-1.075.642zm43.274-114.837 8.773 16.274c-11.49 4.996-23.954 7.42-36.442 7.11v-18.41c9.446.302 18.864-1.38 27.669-4.974zm-115.518-68.082h73.319v9.856l-22.776 30.984c-.591.804-1.539 1.283-2.536 1.283h-22.696c-.997 0-1.944-.48-2.535-1.283l-22.776-30.983zm11.971 88.006c-4.342-1.3-8.908-.005-11.971 3.007v-56.625l11.069 15.058c.837 1.138 1.802 2.16 2.866 3.052v36.096zm-64.244 74.318c-10.34 0-20.465-1.835-30.135-5.457l7.908-16.712c16.294 5.685 33.842 4.97 49.661-2.073 15.818-7.043 28.091-19.605 34.768-35.52l17.71 5.304c-8.222 20.852-24.496 37.903-44.991 47.03-11.071 4.929-22.82 7.428-34.921 7.428zm52.273 19.954v-20.13c19.409-11.882 34.484-30.228 42.238-51.824 2.401-6.283-1.471-13.839-7.944-15.631l-5.828-1.746v-36.294h16.388v161.998c-2.336 1.825-5.216 2.839-8.194 2.839s-5.858-1.014-8.194-2.839v-42.897c0-4.012-3.253-7.265-7.265-7.265s-7.265 3.253-7.265 7.265v18.289c-3.908-4.68-8.625-8.69-13.936-11.765zm73.804 247.278c0 10-2.572 19.905-7.438 28.643l-6.029 10.826c-4.852 8.713-13.703 13.915-23.677 13.915-9.973 0-18.825-5.201-23.678-13.915l-6.029-10.826c-3.412-6.126-5.691-12.827-6.751-19.732 3.259 1.021 6.673 1.555 10.125 1.555 4.012 0 7.265-3.253 7.265-7.265s-3.253-7.265-7.265-7.265c-3.917 0-7.619-1.139-10.812-3.301l.009-32.152c3.194-2.157 6.9-3.301 10.803-3.301h25.996c10.684 0 19.377 8.693 19.377 19.377 0 8.515-5.452 15.947-13.567 18.493-3.828 1.201-5.958 5.279-4.757 9.107 1.192 3.863 5.382 5.957 9.107 4.757 14.204-4.457 23.747-17.46 23.747-32.357 0-18.696-15.211-33.907-33.907-33.907h-25.996c-2.792 0-5.528.335-8.17.985 1.267-4.094 2.976-8.055 5.116-11.799 4.897-8.57 7.486-18.076 7.486-27.491v-18.138c0-5.462-2.693-10.56-7.205-13.638l-2.883-1.968c-1.595-1.019-.782-3.677 1.117-3.618h61.743c1.9-.059 2.712 2.599 1.117 3.618l-2.883 1.968c-4.511 3.078-7.205 8.177-7.205 13.638v18.284c0 9.416 2.589 18.922 7.486 27.491 5.075 8.88 7.758 18.976 7.758 29.195z"/><path d="m391.153 211.009-36.527-13.338c-5.465-2.136-12.08 1.362-13.353 7.093-.851 3.468-3.202 6.293-6.449 7.751-3.246 1.458-6.92 1.337-10.079-.332-5.13-2.854-12.138-.234-14.171 5.267l-14.303 36.16c-2.208 5.583.474 12.017 5.979 14.343 8.884 3.754 18.378 5.627 27.867 5.627 10.018 0 20.031-2.088 29.315-6.257 3.66-1.643 5.296-5.943 3.652-9.603-1.643-3.66-5.944-5.296-9.603-3.652-13.384 6.009-28.67 6.593-42.445 1.715l11.423-28.881c5.996 1.862 12.459 1.497 18.316-1.133s10.425-7.217 13.016-12.935l29.176 10.654c-1.906 4.703-4.421 9.117-7.499 13.159-2.431 3.192-1.814 7.75 1.378 10.182 3.19 2.429 7.75 1.814 10.182-1.378 4.71-6.184 8.367-13.062 10.869-20.441 1.923-5.662-1.103-11.943-6.744-14.001z"/></g></svg>