<svg id="Capa_1" enable-background="new 0 0 512 512" height="512" viewBox="0 0 512 512" width="512" xmlns="http://www.w3.org/2000/svg"><g><ellipse cx="380.124" cy="53.87" rx="7.134" ry="7.134" transform="matrix(.707 -.707 .707 .707 73.244 284.567)"/><path d="m450.026 97.835c12.166 0 22.064-9.898 22.064-22.064v-53.707c0-12.166-9.898-22.064-22.064-22.064h-27.1c-4.062 0-7.355 3.293-7.355 7.355s3.293 7.355 7.355 7.355h27.1c4.056 0 7.355 3.299 7.355 7.355v53.707c0 4.056-3.299 7.355-7.355 7.355h-144.366v-68.418h83.71c4.062 0 7.355-3.293 7.355-7.355s-3.294-7.354-7.355-7.354h-242.785c-12.166 0-22.064 9.898-22.064 22.064v61.196h-62.547c-12.166 0-22.064 9.898-22.064 22.064v53.707c0 12.166 9.898 22.064 22.064 22.064h62.547v61.196c0 12.166 9.898 22.064 22.064 22.064h54.135c-4.256 19.395-.562 40.072 11.044 57.155 13.73 20.209 36.514 32.274 60.945 32.274h29.422v13.482h-6.829c-7.084 0-12.848 5.764-12.848 12.848-.024 9.645.636 22.989-2.582 31.858-5.024 15.645-5.024 35.894 0 51.539 1.713 5.432 2.582 11.358 2.582 17.614v18.027c0 7.084 5.764 12.848 12.848 12.848h28.368c7.084 0 12.848-5.764 12.848-12.848v-18.027c0-4.022.362-7.942 1.077-11.65.769-3.989-1.841-7.845-5.829-8.614-3.987-.772-7.845 1.841-8.614 5.829-.892 4.624-1.344 9.481-1.344 14.435v16.165h-24.645v-16.165c0-7.759-1.098-15.174-3.264-22.04-4.119-12.794-4.119-29.893 0-42.687 2.166-6.865 3.264-14.281 3.264-22.04v-12.383h24.645v12.383c0 7.761 1.098 15.177 3.264 22.041 2.03 6.431 3.102 13.811 3.102 21.342 0 4.062 3.293 7.355 7.355 7.355s7.355-3.293 7.355-7.355c0-9.014-1.309-17.925-3.784-25.769-3.216-8.834-2.561-22.25-2.582-31.859 0-7.084-5.764-12.848-12.848-12.848h-6.829v-13.482h29.422c24.432 0 47.215-12.065 60.945-32.274 11.606-17.083 15.3-37.76 11.044-57.155h31.774c12.166 0 22.064-9.898 22.064-22.064v-53.707c0-12.166-9.898-22.064-22.064-22.064h-62.547v-68.684zm-310.796-75.771c0-4.056 3.299-7.355 7.355-7.355h144.366v68.416h-151.721zm-84.61 136.967v-53.707c0-4.056 3.299-7.355 7.355-7.355h144.365v68.416h-144.366c-4.055.001-7.354-3.298-7.354-7.354zm243.17 180.044 11.696-46.665 11.696 46.665zm97.251-25.832c-10.989 16.175-29.224 25.831-48.779 25.831h-9.916l-14.746-58.837c-1.417-5.654-6.285-9.452-12.114-9.452s-10.697 3.798-12.114 9.452l-14.746 58.837h-9.916c-19.554 0-37.789-9.656-48.779-25.831-13.34-19.635-13.635-45.205-.753-65.143l8.365-12.946c2.204-3.412 1.226-7.964-2.186-10.169-3.41-2.204-7.964-1.226-10.169 2.186l-8.365 12.946c-1.989 3.078-3.724 6.263-5.21 9.529h-59.029c-4.056 0-7.355-3.3-7.355-7.355v-61.061h109.643l-12.249 18.958c-2.204 3.412-1.226 7.964 2.186 10.169 3.41 2.204 7.964 1.225 10.169-2.186l58.448-90.457c1.386-1.585 2.733-1.586 4.119 0l84.248 130.386c12.747 19.573 12.685 45.496-.752 65.143zm62.339-124.659v53.707c0 4.056-3.299 7.355-7.355 7.355h-36.668c-1.486-3.265-3.222-6.451-5.21-9.529l-38.049-58.887h79.928c4.055 0 7.354 3.299 7.354 7.354zm-96.786-22.064-36.694-56.79c-3.175-4.914-8.564-7.847-14.414-7.847s-11.239 2.933-14.414 7.847l-36.694 56.79h-37.328v-68.55h151.72v68.55z"/><path d="m108.187 112.312h-26.198c-4.062 0-7.355 3.293-7.355 7.355s3.293 7.355 7.355 7.355h26.198c4.062 0 7.355-3.293 7.355-7.355s-3.293-7.355-7.355-7.355z"/><path d="m412.588 213.48h26.199c4.062 0 7.355-3.293 7.355-7.355s-3.293-7.355-7.355-7.355h-26.199c-4.062 0-7.355 3.293-7.355 7.355s3.293 7.355 7.355 7.355z"/><path d="m151.352 139.395h-11.628c-4.062 0-7.355 3.293-7.355 7.355s3.293 7.355 7.355 7.355h11.628c4.062 0 7.355-3.293 7.355-7.355s-3.293-7.355-7.355-7.355z"/><path d="m339.743 46.515c-4.062 0-7.355 3.293-7.355 7.355s3.293 7.355 7.355 7.355h11.628c4.062 0 7.355-3.293 7.355-7.355s-3.293-7.355-7.355-7.355z"/></g></svg>