<svg id="Capa_1" enable-background="new 0 0 512 512" height="512" viewBox="0 0 512 512" width="512" xmlns="http://www.w3.org/2000/svg"><g><path d="m492.155 165.465-25.923-26.557c-4.373-4.48-10.471-7.05-16.733-7.05h-7.994c-8.371 0-15.181 6.81-15.181 15.181v19.338h-79.297v-12.711c0-12.404-3.734-24.35-10.799-34.546l-44.566-64.326c3.047-.895 5.274-3.708 5.274-7.044 0-4.057-3.288-7.346-7.346-7.346h-136.955c-4.057 0-7.346 3.289-7.346 7.346 0 3.336 2.226 6.149 5.273 7.044l-44.567 64.325c-7.064 10.196-10.798 22.142-10.798 34.547v85.49c0 36.879 30.003 66.881 66.881 66.881h51.666v19.466h-67.736c-37.715 0-68.398-30.683-68.398-68.397v-36.243h3.441c4.057 0 7.346-3.289 7.346-7.346s-3.288-7.346-7.346-7.346h-45.267v-39.931c0-9.95-3.875-19.305-10.91-26.341l-11.166-11.166c-2.869-2.868-7.52-2.868-10.389 0-2.868 2.868-2.868 7.52 0 10.388l11.166 11.166c4.261 4.261 6.608 9.927 6.608 15.953v39.931h-13.743c-4.057 0-7.346 3.289-7.346 7.346 0 1.458.43 2.814 1.163 3.957v68.219c0 4.057 3.288 7.346 7.346 7.346s7.346-3.289 7.346-7.346v-64.83h16.65v214.556h-16.65v-116.876c0-4.057-3.288-7.346-7.346-7.346s-7.346 3.289-7.346 7.346v120.265c-3.164 4.635.509 11.472 6.183 11.302h34.402c6.219.213 9.71-7.863 5.448-12.261v-39.833h236.377c4.057 0 7.346-3.289 7.346-7.346s-3.288-7.346-7.346-7.346h-236.377v-16.65h347.782v4.605c-6.102 2.968-11.552 7.074-16.067 12.045h-61.883c-4.057 0-7.346 3.289-7.346 7.346s3.288 7.346 7.346 7.346h52.43c-2.742 6.381-4.266 13.403-4.266 20.777 0 29.116 23.687 52.803 52.803 52.803s52.803-23.687 52.803-52.803c0-20.869-12.171-38.946-29.786-47.514v-102.424h44.356c14.683 0 26.628-11.945 26.628-26.628v-28.019c0-18.322-7.047-35.633-19.845-48.743zm-65.831 40.703-97.477-.061.064-25.04h97.413zm-258.098-151.073h105.772l50.154 72.391c2.31 3.334 4.148 6.917 5.493 10.666h-158.425c-4.057 0-7.346 3.289-7.346 7.346s3.288 7.346 7.346 7.346h161.1c.005.274.016.547.016.822v12.711h-3.424c-8.136 0-14.755 6.619-14.755 14.756v24.975c0 8.136 6.62 14.756 14.755 14.756h3.424v15.845h-222.447v-83.042c0-.275.011-.548.016-.822h27.586c4.057 0 7.346-3.289 7.346-7.346s-3.288-7.346-7.346-7.346h-24.913c1.346-3.75 3.183-7.332 5.493-10.666zm-56.872 196.304h219.517c-5.525 22.888-26.165 39.947-50.725 39.947h-118.067c-24.56 0-45.2-17.059-50.725-39.947zm117.082 54.638h51.709c36.879 0 66.881-30.003 66.881-66.881v-18.293h17.587v36.243c0 37.715-30.683 68.397-68.397 68.397h-67.779v-19.466zm-165.517-85.174v36.243c0 45.816 37.274 83.089 83.09 83.089h150.207c45.815 0 83.089-37.273 83.089-83.089v-36.243h15.678v89.796l-41.325 41.325h-266.581l-39.877-39.877v-91.244zm-15.719 112.021 19.1 19.1h-19.1zm327.235 19.1 20.548-20.548v20.548zm81.675 66.81c0 21.015-17.097 38.111-38.112 38.111s-38.112-17.096-38.112-38.111 17.097-38.111 38.112-38.111 38.112 17.096 38.112 38.111zm-38.111-52.802c-2.833 0-5.612.231-8.325.662v-145.791h16.65v145.791c-2.713-.432-5.492-.662-8.325-.662zm79.31-123.765c0 6.582-5.354 11.937-11.937 11.937h-44.356v-107.125c0-.27.22-.49.49-.49h7.994c2.327 0 4.594.955 6.219 2.62l25.923 26.557c10.103 10.35 15.667 24.017 15.667 38.481z"/><circle cx="469.162" cy="230.458" r="9.717"/><circle cx="469.162" cy="200.356" r="9.717"/><g><circle cx="417.999" cy="418.794" r="12.088"/></g></g></svg>