<svg id="Capa_1" enable-background="new 0 0 512 512" height="512" viewBox="0 0 512 512" width="512" xmlns="http://www.w3.org/2000/svg"><g><path d="m510.237 284.739-13.002-26.436c-4.183-8.503-14.503-12.016-23.007-7.835l-17.532 8.623c-5.166-42.521-15.781-84.206-31.598-124.033-19.281-48.545-60.608-84.205-111.167-96.242-2.685-9.177-11.173-15.901-21.205-15.901h-73.836c-10.116 0-18.66 6.836-21.27 16.129-16.46 4.037-32.082 10.645-46.497 19.697-3.445 2.163-4.484 6.709-2.321 10.154 2.177 3.474 6.761 4.466 10.154 2.321 11.805-7.413 24.498-13.022 37.839-16.737v17.754c0 22.545-2.859 45.013-8.487 66.841h-16.809c-7.311 0-13.257 5.947-13.257 13.257v47.059c0 3.516 1.385 6.708 3.627 9.084l-21.132 48.99c-12.084 3.285-23.412 7.11-33.79 11.456-12.091 5.201-25.921 3.686-37.342-2.796 5.049-43.776 16.019-86.629 32.655-127.419 7.416-18.182 18.257-34.375 32.221-48.129 2.898-2.854 2.934-7.518.08-10.416-2.855-2.899-7.518-2.934-10.416-.079-15.397 15.165-27.349 33.017-35.523 53.06-16.483 40.413-27.582 82.789-33.037 126.086l-17.811-8.761c-8.501-4.179-18.822-.667-23.007 7.836l-13.005 26.437c-4.181 8.503-.667 18.823 7.836 23.006l35.273 17.349c7.604 3.74 15.55 6.511 23.66 8.311v20.972c0 8.565 2.181 17.03 6.308 24.481 1.981 3.592 6.52 4.827 10.011 2.875 3.558-1.971 4.845-6.453 2.874-10.012-2.92-5.272-4.463-11.27-4.463-17.344v-18.79c5.471.419 10.968.409 16.44-.034v21.549c-.032 10.523 8.928 18.915 19.4 18.411 10.335 0 20.058 4.044 27.378 11.388s11.333 17.08 11.3 27.418c-.016 4.901 1.222 9.73 3.558 14.02-.708 2.226-.702 5.025-.667 7.394 0 5.384.809 10.581 2.299 15.484-12.08-7.949-19.862-21.574-19.92-36.856-.051-13.299-10.783-24.118-23.922-24.118-3.325 0-6.614-.453-9.779-1.347-3.908-1.105-7.983 1.169-9.09 5.085-1.106 3.914 1.171 7.984 5.086 9.09 4.467 1.263 9.105 1.903 13.784 1.903 5.135 0 9.172 4.149 9.192 9.444.105 27.893 19.518 51.663 46.531 57.489 9.754 10.554 23.701 17.179 39.171 17.179h22.674c15.152 0 28.837-6.359 38.558-16.536 29.011-4.427 50.613-29.341 50.304-58.105-.067-6.189 2.301-12.028 6.666-16.441 4.367-4.415 10.18-6.846 16.366-6.846h20.352c34.708 0 64.429-23.832 72.192-57.228 8.933-1.79 17.645-4.728 25.817-8.748l35.451-17.437c8.503-4.183 12.017-14.503 7.835-23.006zm-195.415-230.5c43.921 11.879 79.639 43.582 96.586 86.256 15.986 40.252 26.481 82.46 31.245 125.503-11.543 6.606-25.551 8.307-37.819 2.993-10.423-4.375-21.806-8.224-33.954-11.526l-21.133-48.99c2.242-2.375 3.627-5.568 3.627-9.084v-47.059c0-7.31-5.947-13.257-13.257-13.257h-16.811c-5.627-21.825-8.484-44.291-8.484-66.841zm23.821 99.565v44.113h-33.822c3.043-6.735 4.752-14.198 4.752-22.057s-1.709-15.321-4.752-22.057h33.822zm-102.416-116.159h39.545v13.273c0 10.903-8.87 19.773-19.773 19.773s-19.773-8.87-19.773-19.773v-13.273zm-24.702 34.588v-27.223c0-4.061 3.304-7.365 7.365-7.365h2.17v13.273c0 19.266 15.674 34.939 34.939 34.939s34.939-15.674 34.939-34.939v-13.273h.078c4.678-.073 9.118 3.211 9.074 8.073v26.514c0 22.525 2.706 44.972 8.032 66.841h-13.16c-9.813-10.439-23.732-16.978-39.156-16.978s-29.342 6.539-39.156 16.978h-13.161c5.329-21.871 8.036-44.319 8.036-66.84zm83.318 103.627c0 21.523-17.51 39.034-39.034 39.034s-39.034-17.511-39.034-39.034 17.51-39.034 39.034-39.034 39.034 17.511 39.034 39.034zm-121.871-22.056h33.823c-3.043 6.735-4.752 14.198-4.752 22.057s1.709 15.321 4.752 22.057h-33.823zm3.14 58.843h40.541c9.813 10.439 23.732 16.978 39.156 16.978s29.342-6.539 39.156-16.978h40.54l17.455 40.464c-29.504-6.359-62.615-9.733-97.151-9.733-34.532 0-67.645 3.375-97.152 9.734zm99.204 223.086c0 21.296-17.325 38.622-38.621 38.622h-22.674c-21.296 0-38.621-17.325-38.621-38.622-.157-2.174-.12-5.578 2.878-5.532h94.16c2.999-.046 3.035 3.36 2.878 5.532zm93.626-59.306h-20.352c-10.151 0-19.683 3.983-26.839 11.217-7.153 7.231-11.033 16.806-10.924 26.959.178 16.536-9.425 31.371-23.812 38.832 1.956-5.543 3.031-11.498 3.031-17.702-.006-.672.026-2.913-.045-3.546 3.949-5.141 6.097-11.417 6.094-17.971-.007-14.001 5.458-27.183 15.387-37.116s23.107-15.404 37.108-15.404h20.352c17.756 0 33.563-10.384 40.723-26.278 5.16.537 10.427.705 15.636.448-7.95 23.947-30.414 40.561-56.359 40.561zm126.958-81.9-35.451 17.437c-12.358 6.079-26.148 9.292-39.881 9.292-11.998 0-23.686-2.352-34.739-6.992-12.246-5.14-26.513-9.499-42.401-12.956-3.98-.864-7.898 1.657-8.762 5.631-.865 3.975 1.656 7.898 5.631 8.762 15.01 3.265 28.411 7.351 39.83 12.144 4.692 1.97 9.483 3.581 14.353 4.839-5.353 8.749-14.926 14.281-25.539 14.281h-20.351c-17.936 0-34.815 7.003-47.526 19.72-12.712 12.717-19.708 29.599-19.699 47.537.001 1.175-.152 2.329-.42 3.449-2.524-1.399-5.422-2.201-8.506-2.201h-94.16c-1.969 0-3.857.339-5.626.938-.094-.675-.146-1.358-.143-2.044.046-14.281-5.493-27.727-15.597-37.863-10.104-10.137-23.532-15.719-37.784-15.719-2.336.315-4.721-1.161-4.696-3.68v-23.811c5.831-1.326 11.578-3.151 17.174-5.495 31.241-13.084 76.511-20.587 124.203-20.587 17.264 0 34.347.983 50.776 2.923 4.034.475 7.701-2.411 8.177-6.451.477-4.04-2.411-7.701-6.451-8.178-16.999-2.007-34.664-3.024-52.503-3.024-49.573 0-96.917 7.92-129.893 21.731-23.958 10.035-51.127 9.184-74.542-2.334l-35.274-17.349c-1.215-.597-1.717-2.072-1.119-3.287l13.001-26.434c.598-1.216 2.073-1.718 3.288-1.12l35.273 17.349c14.499 7.132 31.302 7.668 46.095 1.473 37.568-15.734 88.414-24.399 143.171-24.399 54.841 0 105.741 8.689 143.323 24.465 14.814 6.218 31.635 5.689 46.148-1.451l35.451-17.437c1.211-.599 2.69-.095 3.286 1.119l13.002 26.435c.597 1.215.096 2.69-1.119 3.287z"/><path d="m244.864 442.97h-37.818c-4.068 0-7.365 3.297-7.365 7.365s3.297 7.365 7.365 7.365h37.818c4.068 0 7.365-3.298 7.365-7.365s-3.297-7.365-7.365-7.365z"/><path d="m255.808 167.575c-4.576 0-8.286 3.71-8.286 8.286s3.71 8.286 8.286 8.286 8.286-3.71 8.286-8.286c0-4.577-3.71-8.286-8.286-8.286z"/></g></svg>