<svg id="Capa_1" enable-background="new 0 0 512 512" height="512" viewBox="0 0 512 512" width="512" xmlns="http://www.w3.org/2000/svg"><g><path d="m511.668 193.266c-1.199-3.855-5.295-6.012-9.151-4.809l-56.515 17.578-1.447-4.653c-1.816-6.293-9.039-10.092-15.253-8.015l-29.518 9.181c.814-2.345 1.399-4.788 1.697-7.31l5.914-50.083 15.334 1.855c3.932.502 7.668-2.356 8.135-6.379.485-4.007-2.371-7.65-6.379-8.134l-99.828-12.077c-4.012-.487-7.65 2.371-8.135 6.379-.485 4.007 2.371 7.65 6.379 8.134l69.98 8.466-5.919 50.124c-.996 8.427-7.193 15.483-15.422 17.556l-180.142 45.384c-13.192 3.323-27.091 1.667-39.132-4.667-47.85-25.165-82.674-69.714-95.545-122.224l-6.78-27.66 239.593 28.984c9.354 1.304 11.217-13.516 1.756-14.513l-271.104-32.795c-4.012-.49-7.65 2.371-8.135 6.379s2.371 7.65 6.379 8.134l15.997 1.935 8.093 33.017c2.153 8.785 4.879 17.362 8.137 25.688v107.887c-15.337 13.685-26.165 32.411-29.724 53.758l-12.363 3.846c-3.107.966-5.652 3.086-7.166 5.966-1.514 2.881-1.815 6.179-.849 9.286l7.237 23.266c2.408 7.986 11.375 10.315 18.322 7.061 3.771 8.126 17.73 39.536 29.17 29.88 2.935-2.773 3.068-7.399.296-10.334-6.546-6.932-11.821-15.118-15.451-23.905l23.252-7.232c8.713 18.984 27.807 31.425 49.001 31.425 29.726 0 53.911-24.185 53.911-53.911 0-3.124-.276-6.223-.805-9.273l23.25-7.232c1.16 5.398 1.759 10.923 1.759 16.505 0 43.072-35.042 78.114-78.115 78.114-10.831 0-21.312-2.172-31.154-6.457-3.704-1.61-8.009.083-9.62 3.784-1.611 3.702.083 8.01 3.784 9.621 11.694 5.09 24.139 7.672 36.989 7.672 50.309 0 91.388-40.269 92.701-90.266.47.412 54.141 54.76 54.141 54.76 9.699 9.828 23.18 15.464 36.987 15.464 28.652 0 51.962-23.31 51.962-51.962v-86.827l95.6-29.735c6.294-1.814 10.091-9.039 8.017-15.252l-1.447-4.653 56.516-17.578c3.856-1.2 6.009-5.298 4.81-9.153zm-446.391-4.649c12.335 20.735 28.293 39.167 47.145 54.381-.013 0-.026-.001-.04-.001-17.075 0-33.215 4.708-47.105 12.934zm47.105 69c18.583 0 36.51 6.697 50.549 18.602l-30.459 9.474c-6.379-2.569-13.124-3.872-20.09-3.872-18.143 0-34.853 8.995-44.891 24.083l-30.541 9.499c9.031-33.56 39.834-57.786 75.432-57.786zm0 117.407c-14.804 0-28.203-8.327-34.883-21.196l25.466-7.921c2.475 2.292 5.777 3.704 9.416 3.704 6.621 0 12.149-4.64 13.535-10.843l25.451-7.916c.2 1.613.305 3.241.305 4.881.001 21.665-17.625 39.291-39.29 39.291zm145.397-92.581c-3.855 1.198-6.008 5.296-4.809 9.151 1.199 3.856 5.296 6.014 9.151 4.809l71.432-22.218v82.279c0 20.591-16.752 37.342-37.342 37.342-9.923 0-19.611-4.051-26.581-11.114l-52.77-53.478c-3.715-3.765-8.167-6.762-13.026-8.83-.308-1.849-.658-3.69-1.077-5.516l29.121-9.058c3.855-1.198 6.008-5.296 4.809-9.151s-5.294-6.012-9.151-4.809l-206.507 64.232-5.79-18.614 416.078-129.417 5.789 18.613z"/><path d="m290.414 161.38c-.047 0-.095 0-.142.001-7.805.149-12.096 2.857-15.229 4.834-3.915 3.279-11.474 3.432-15.502.295-3.206-1.857-7.581-4.376-15.402-4.251-7.805.148-12.095 2.856-15.228 4.834-3.919 3.279-11.451 3.428-15.499.294-3.206-1.856-7.596-4.376-15.402-4.251-7.804.149-12.094 2.857-15.227 4.834-3.913 3.28-11.469 3.425-15.499.295-3.205-1.857-7.586-4.385-15.401-4.252-4.036.077-7.246 3.411-7.17 7.448.077 4.037 3.402 7.221 7.448 7.17 3.719-.081 5.258.815 7.795 2.285 3.015 1.846 8.192 4.493 15.401 4.251 7.805-.148 12.095-2.856 15.228-4.834 3.915-3.278 11.467-3.429 15.499-.295 3.206 1.857 7.586 4.394 15.401 4.252 7.804-.149 12.094-2.857 15.227-4.834 3.912-3.281 11.474-3.422 15.501-.295 3.206 1.856 7.58 4.39 15.402 4.252 7.804-.149 12.096-2.857 15.229-4.834 2.48-1.565 3.977-2.51 7.705-2.58 4.036-.077 7.246-3.412 7.169-7.448-.075-3.989-3.332-7.171-7.304-7.171z"/></g></svg>