<svg id="Capa_1" enable-background="new 0 0 512 512" height="512" viewBox="0 0 512 512" width="512" xmlns="http://www.w3.org/2000/svg"><g><ellipse cx="48.658" cy="345.971" rx="9.705" ry="9.705" transform="matrix(.998 -.071 .071 .998 -24.403 4.32)"/><ellipse cx="48.658" cy="270.589" rx="9.705" ry="9.705" transform="matrix(.998 -.071 .071 .998 -19.059 4.13)"/><path d="m504.644 265.018c4.063 0 7.356-3.293 7.356-7.356v-19.548c0-15.511-12.619-28.13-28.13-28.13h-10.435l-18.934-14.095c-4.786-3.564-10.673-5.05-16.58-4.187-3.385.495-6.529 1.752-9.279 3.616l-6.918-5.151c2.756-8.809-.14-18.788-7.951-24.606l-14.851-11.058c-7.811-5.815-18.201-5.729-25.851-.565l-6.918-5.152c2.901-8.801-.408-19.162-7.958-24.611l-14.85-11.058c-7.381-5.672-18.261-5.873-25.86-.571l-6.407-4.771v-23.128c0-7.911-6.436-14.348-14.348-14.348h-12.733l4.726-24.323c.799-4.112-.271-8.324-2.936-11.556-2.664-3.232-6.594-5.085-10.783-5.085h-38.006c-4.188 0-8.118 1.853-10.783 5.085s-3.735 7.443-2.936 11.557l4.726 24.323h-13.285c-7.912 0-14.348 6.436-14.348 14.348v23.54l-5.855 4.36c-7.6-5.302-18.475-5.101-25.86.571l-14.85 11.058c-7.812 5.817-10.707 15.796-7.951 24.606l-6.925 5.157c-7.65-5.165-18.041-5.252-25.852.565l-14.85 11.058c-7.812 5.817-10.707 15.797-7.951 24.606l-6.918 5.151c-7.6-5.302-18.477-5.1-25.86.571l-19.805 14.095h-9.563c-15.513-.001-28.132 12.618-28.132 28.129v55.469c0 4.062 3.293 7.356 7.356 7.356s7.356-3.293 7.356-7.356v-55.469c0-7.399 6.02-13.419 13.419-13.419h10.802c8.093 11.816 21.431 18.859 35.753 18.859 14.321 0 27.659-7.043 35.753-18.859h11.317v105.51h-24.933c-7.841 0-14.221 6.38-14.221 14.221v15.525c0 7.399-6.02 13.419-13.419 13.419h-41.052c-7.399 0-13.419-6.02-13.419-13.419v-29.774c0-4.062-3.293-7.356-7.356-7.356s-7.356 3.294-7.356 7.357v29.774c0 11.682 7.159 21.721 17.32 25.967v18.456c0 8.254 6.716 14.97 14.97 14.97h9.013v5.659c0 4.165-2.191 7.976-5.861 10.196-8.035 4.858-12.759 13.706-12.327 23.092.601 13.05 11.294 23.745 24.345 24.346 7.003.332 13.769-2.175 18.858-7.05 5.102-4.873 7.912-11.441 7.912-18.494 0-4.062-3.293-7.356-7.356-7.356-4.062 0-7.356 3.293-7.356 7.356 0 2.995-1.194 5.785-3.361 7.855-6.309 6.474-18.121 1.615-18.345-7.333-.184-3.995 1.825-7.76 5.242-9.826 7.995-4.834 12.961-13.565 12.961-22.785v-5.659h9.013c8.255 0 14.97-6.716 14.97-14.97v-18.457c10.159-4.247 17.316-14.285 17.316-25.966v-15.034h24.933c7.841 0 14.221-6.38 14.221-14.221v-6.13h62.181c4.062 0 7.356-3.293 7.356-7.356 0-4.062-3.293-7.356-7.356-7.356h-62.181v-59.122h239.064v59.122h-141.609c-4.062 0-7.356 3.293-7.356 7.356 0 4.062 3.293 7.356 7.356 7.356h141.608v6.13c0 7.841 6.38 14.221 14.221 14.221h24.933v15.034c0 11.681 7.158 21.719 17.317 25.966v18.457c0 8.254 6.716 14.97 14.97 14.97h9.013v5.659c0 9.22 4.966 17.951 12.962 22.785 3.416 2.066 5.425 5.832 5.242 9.826-.251 5.443-4.883 10.075-10.326 10.326-6.042.419-11.507-4.814-11.381-10.847 0-4.062-3.293-7.356-7.356-7.356s-7.356 3.293-7.356 7.356c0 7.054 2.81 13.622 7.912 18.494 5.088 4.875 11.854 7.382 18.857 7.049 13.051-.601 23.745-11.295 24.346-24.346.431-9.386-4.293-18.234-12.327-23.091-3.67-2.219-5.862-6.031-5.862-10.196v-5.659h9.013c8.254 0 14.97-6.716 14.97-14.97v-18.456c10.16-4.246 17.32-14.285 17.32-25.967v-65.756c0-4.062-3.293-7.356-7.356-7.356s-7.356 3.293-7.356 7.356v65.756c0 7.399-6.02 13.419-13.419 13.419h-41.054c-7.399 0-13.419-6.02-13.419-13.419v-15.525c0-7.841-6.38-14.221-14.221-14.221h-24.933v-105.51h11.318c8.093 11.816 21.431 18.859 35.752 18.859 14.323 0 27.661-7.044 35.752-18.859h10.804c7.399 0 13.419 6.02 13.419 13.419v19.548c.002 4.06 3.295 7.353 7.358 7.353zm-439.617 139.615h-32.738c-.142 0-.258-.116-.258-.258v-16.292h33.254v16.292c.001.142-.115.258-.258.258zm414.683 0h-32.737c-.143 0-.259-.116-.259-.258v-16.292h33.254v16.292c.001.142-.115.258-.258.258zm-89.574-238.33 14.85 11.058c1.27.946 2.161 2.215 2.645 3.61-5.265-.812-9.83 5.321-7.544 10.132-1.475-.064-2.946-.554-4.216-1.5l-14.85-11.058c-1.274-.949-2.166-2.222-2.649-3.621 5.266.862 9.819-5.312 7.556-10.101 1.471.064 2.941.536 4.208 1.48zm-40.728-30.327c1.242.925 2.151 2.177 2.647 3.609-5.266-.814-9.834 5.32-7.547 10.132-1.474-.064-2.945-.553-4.215-1.499l-14.851-11.059c-1.245-.928-2.156-2.184-2.651-3.621 5.269.864 9.824-5.315 7.556-10.105 1.511.066 2.969.562 4.209 1.486zm-75.298-91.931-8.051 41.44h-20.117l-8.052-41.44zm-43.248 40.966.754 3.878c1.274 6.553 7.044 11.309 13.719 11.309h21.33c6.677 0 12.446-4.756 13.719-11.31l.753-3.877h15.227v13.178c-2.458-.216-4.968.801-6.55 2.926-1.649 2.214-1.862 5.051-.809 7.404h-66.011c1.053-2.353.84-5.189-.809-7.404-1.701-2.284-4.473-3.292-7.102-2.859v-13.245zm-68.269 50.965 14.85-11.058c1.242-.925 2.703-1.437 4.217-1.502-2.283 4.793 2.274 10.987 7.55 10.122-.495 1.437-1.405 2.693-2.652 3.621l-14.85 11.058c-1.271.946-2.742 1.436-4.216 1.5 2.286-4.812-2.28-10.943-7.544-10.132.483-1.395 1.374-2.663 2.645-3.609zm-55.579 41.385 14.85-11.058c1.271-.946 2.742-1.436 4.216-1.5-2.281 4.793 2.276 10.984 7.551 10.119-.495 1.437-1.406 2.694-2.652 3.621l-14.85 11.059c-1.242.925-2.702 1.438-4.217 1.502 2.289-4.812-2.278-10.946-7.543-10.134.483-1.394 1.374-2.663 2.645-3.609zm-54.676 40.714 13.947-10.386c1.242-.925 2.702-1.436 4.216-1.502-2.282 4.793 2.275 10.986 7.551 10.121-.495 1.437-1.406 2.694-2.652 3.621l-9.916 7.383c-5.128-1.741-9.7-4.921-13.146-9.237zm361.227-1.888c-2.613-3.884-7-6.202-11.738-6.202h-12.075c-7.841 0-14.221 6.38-14.221 14.221v11.815h-239.063v-11.815c0-7.841-6.38-14.221-14.221-14.221h-12.074c-4.737 0-9.125 2.318-11.737 6.201-2.073 3.08-4.686 5.67-7.66 7.695 1.07-2.122 1.82-4.416 2.174-6.835.496-3.385.193-6.757-.805-9.927l6.91-5.146c7.6 5.291 18.434 5.117 25.86-.571l14.85-11.058c7.551-5.449 10.86-15.812 7.959-24.612l6.904-5.141c7.802 5.266 18.188 5.151 25.866-.575l14.85-11.059c7.551-5.448 10.859-15.811 7.959-24.611l4.168-3.104c2.13 1.254 4.603 1.987 7.249 1.987h82.009c2.773 0 5.355-.804 7.552-2.172l4.416 3.289c-2.901 8.8.407 19.162 7.958 24.61l14.85 11.059c7.425 5.687 18.26 5.862 25.86.57l6.917 5.151c-2.756 8.809.139 18.789 7.951 24.606l14.85 11.058c7.678 5.726 18.063 5.84 25.866.575l6.905 5.142c-.998 3.17-1.3 6.542-.805 9.927.354 2.42 1.104 4.714 2.174 6.836-2.972-2.024-5.585-4.614-7.658-7.693zm32.95 11.127-9.915-7.383c-1.246-.928-2.157-2.184-2.652-3.621 5.277.865 9.832-5.33 7.55-10.122 1.512.065 2.973.577 4.216 1.502l13.947 10.385c-3.446 4.316-8.017 7.496-13.146 9.239z"/><circle cx="463.342" cy="345.971" r="9.705"/><circle cx="463.342" cy="270.589" r="9.705"/><path d="m308.543 271.759c0-4.062-3.293-7.356-7.356-7.356h-86.311c-4.062 0-7.356 3.293-7.356 7.356 0 4.062 3.293 7.356 7.356 7.356h86.311c4.063 0 7.356-3.294 7.356-7.356z"/></g></svg>