<svg id="Capa_1" enable-background="new 0 0 512 512" height="512" viewBox="0 0 512 512" width="512" xmlns="http://www.w3.org/2000/svg"><g><path d="m451.547 352.744c-4.056 0-7.345 3.288-7.345 7.345v105.884c0 17.28-14.058 31.338-31.338 31.338h-313.729c-17.28 0-31.338-14.058-31.338-31.338v-419.946c0-17.28 14.058-31.338 31.338-31.338h46.672c4.056 0 7.345-3.288 7.345-7.345s-3.289-7.344-7.345-7.344h-46.672c-25.38 0-46.027 20.648-46.027 46.027v419.945c0 25.38 20.648 46.027 46.027 46.027h313.73c25.38 0 46.027-20.648 46.027-46.027v-105.883c0-4.057-3.288-7.345-7.345-7.345z"/><path d="m87.384 46.027v419.945c0 6.48 5.272 11.752 11.752 11.752h313.73c6.48 0 11.752-5.272 11.752-11.752v-419.945c0-6.48-5.272-11.752-11.752-11.752h-313.731c-6.48.001-11.751 5.273-11.751 11.752zm14.689 417.008v-208.02h125.334v15.847h-13.612c-7.034 0-13.085 4.263-15.723 10.337l-66.54-13.387c-3.977-.798-7.849 1.775-8.649 5.751-.8 3.977 1.775 7.849 5.751 8.649l68.023 13.686c-.156 5.527 1.827 10.944 5.653 15.212 3.581 4.005 5.553 9.17 5.553 14.543 0 2.015-.277 4.001-.813 5.908l-75.518-15.193c-3.977-.8-7.849 1.775-8.649 5.751-.8 3.977 1.775 7.849 5.751 8.649l70.423 14.168c-1.56 3.033-2.399 6.362-2.399 9.745v23.345l-65.126-13.103c-3.976-.801-7.849 1.775-8.649 5.751-.8 3.977 1.775 7.849 5.751 8.649l68.023 13.686v45.141c0 9.45 7.688 17.138 17.138 17.138h41.914c9.45 0 17.138-7.688 17.138-17.138v-36.678c1.32-.214 2.637-.444 3.942-.706l106.577-21.442c3.977-.8 6.551-4.672 5.751-8.649s-4.669-6.554-8.649-5.751c0 0-107.273 21.573-107.621 21.638v-31.851c0-.596-.034-1.189-.085-1.781 1.349-.217 110.603-22.162 110.603-22.162 3.977-.8 6.551-4.672 5.751-8.649s-4.669-6.554-8.649-5.751l-106.577 21.441c-2.533.51-5.114.908-7.691 1.2-2.958-3.815-4.584-8.495-4.584-13.356 0-5.381 1.977-10.551 5.566-14.559 1.746-1.949 3.104-4.147 4.06-6.481 1.86-.272 112.124-22.402 112.124-22.402 3.977-.8 6.551-4.672 5.751-8.649s-4.669-6.553-8.649-5.751c0 0-107.273 21.573-107.621 21.638.7-9.932-7.104-18.632-17.138-18.588h-13.612v-20.089c0-10.552-6.212-20.182-15.824-24.534l-83.993-38.023c-4.37-1.978-7.193-6.355-7.193-11.152v-37.389c0-4.05 3.295-7.345 7.345-7.345h9.523v30.534c0 11.412 9.284 20.695 20.695 20.695h130.025c-.565 2.21-.811 4.504-.711 6.822.514 11.974 10.292 21.808 22.26 22.386 12.983.956 24.846-10.404 24.589-23.407 0-1.961-.25-3.912-.732-5.801h55.841c2.089 0 4.104-.317 6.006-.895v57.661h-139.553c-4.056 0-7.345 3.288-7.345 7.345 0 4.056 3.288 7.345 7.345 7.345h139.553v208.02h-307.854zm156.084-166.44c0 1.648-.681 3.317-1.919 4.699-6.005 6.705-9.313 15.357-9.313 24.359 0 9.003 3.308 17.654 9.313 24.359 1.237 1.381 1.918 3.05 1.918 4.699v40.269.024 43.147c0 1.35-1.098 2.448-2.448 2.448h-41.914c-1.35 0-2.448-1.098-2.448-2.448v-83.469c0-1.646.679-3.313 1.914-4.694 5.992-6.702 9.291-15.343 9.291-24.334s-3.3-17.633-9.291-24.334c-1.235-1.38-1.914-3.047-1.914-4.694v-8.625c0-1.35 1.098-2.448 2.448-2.448h41.914c1.35 0 2.448 1.098 2.448 2.448v8.594zm124.84-181.58c6.125-6.125 9.498-14.268 9.498-22.929v-10.986h11.426c3.312 0 6.006 2.694 6.006 6.005v75.759c0 3.312-2.694 6.006-6.006 6.006h-60.84l-.032-6.559c0-4.738 1.845-9.192 5.195-12.542zm-5.191-22.929c0 4.738-1.845 9.192-5.195 12.543l-34.754 34.754c-7.79 7.422-10.193 18.165-9.498 28.596 0 5.807 1.572 11.578 4.672 17.151 3.403 5.698-1.463 13.527-8.098 12.965-6.288-.191-10.49-7.768-7.106-13.132 3.358-5.697 5.133-11.888 5.133-17.906v-53.094c0-6.939-2.95-13.591-8.094-18.25-9.752-8.925-24.888-8.175-34.229.946-1.781 1.481-4.037 2.297-6.352 2.297h-22.175c-3.872 0-7.022-3.15-7.022-7.022v-15.912h132.717v16.064zm-125.695 21.559h22.175c5.74 0 11.332-2.022 15.745-5.693 5.877-7.14 18.342-3.625 18.24 6.01l-.107 54.908h-135.514c-3.312 0-6.006-2.694-6.006-6.006v-75.759c0-3.311 2.694-6.005 6.006-6.005h57.75v10.834c0 11.971 9.739 21.711 21.711 21.711zm157.816-64.68v18.34c-1.902-.578-3.917-.895-6.006-.895h-14.759c-2.607-3.1-6.509-5.077-10.866-5.077h-133.696c-4.358 0-8.259 1.977-10.866 5.077h-61.084c-11.412 0-20.695 9.284-20.695 20.695v30.535h-9.523c-12.15 0-22.034 9.884-22.034 22.034v37.389c0 10.552 6.211 20.182 15.824 24.534 0 0 84.888 38.47 85.31 38.727h-119.459v-191.359z"/><path d="m412.865 0h-233.577c-4.056 0-7.345 3.288-7.345 7.345s3.288 7.345 7.345 7.345h233.576c17.28 0 31.338 14.058 31.338 31.338v281.595c0 4.056 3.288 7.345 7.345 7.345s7.345-3.288 7.345-7.345v-281.596c0-25.379-20.647-46.027-46.027-46.027z"/><circle cx="203.24" cy="104.699" r="8.263"/><circle cx="231.868" cy="134.068" r="8.263"/><circle cx="245.747" cy="150.594" r="8.263"/><circle cx="259.626" cy="134.068" r="8.263"/><circle cx="373.653" cy="148.024" r="8.263"/><circle cx="234.739" cy="408.282" r="9.146"/></g></svg>