<svg id="Capa_1" enable-background="new 0 0 512 512" height="512" viewBox="0 0 512 512" width="512" xmlns="http://www.w3.org/2000/svg"><g><path d="m177.843 231.572h35.57c4.039 0 7.313-3.274 7.313-7.313s-3.274-7.313-7.313-7.313h-35.57c-4.039 0-7.313 3.274-7.313 7.313s3.274 7.313 7.313 7.313z"/><path d="m177.843 258.519h35.57c4.039 0 7.313-3.274 7.313-7.313s-3.274-7.313-7.313-7.313h-35.57c-4.039 0-7.313 3.274-7.313 7.313s3.274 7.313 7.313 7.313z"/><path d="m512 343.889c0-.001 0-.001 0-.002 0-35.891-25.679-65.887-59.627-72.606v-165.553c0-14.158-11.518-25.676-25.676-25.676h-116.977c-14.158 0-25.676 11.518-25.676 25.676 0 0 .056 19.124.158 19.612l-18.716 40.859c-1.322-.025-2.659.13-3.975.514l-93.627 27.347c-15.72 4.592-26.698 19.236-26.698 35.613v65.5c-4.635 5.29-8.529 11.24-11.521 17.695h-34.058v-44.603c0-7.796-6.343-14.138-14.138-14.138h-41.651c-4.542 0-8.834 2.202-11.484 5.891-2.649 3.688-3.365 8.46-1.914 12.764l9.557 28.348c7.24 21.475 5.739 44.51-4.224 64.86-1.776 3.627-.275 8.008 3.352 9.783 3.628 1.777 8.008.276 9.783-3.352 11.67-23.834 13.427-50.812 4.948-75.964l-9.34-27.705h40.484v148.57h-65.902l11.651-16.756c2.306-3.316 1.487-7.873-1.829-10.179-3.317-2.308-7.875-1.487-10.179 1.829l-12.184 17.522c-3.015 4.337-3.368 9.939-.921 14.62s7.248 7.589 12.53 7.589h67.323c7.796 0 14.138-6.343 14.138-14.138v-42.903h34.059c11.757 25.361 37.442 43.003 67.185 43.003h241.128c40.814 0 74.019-33.203 74.022-74.017-.001 0-.001-.001-.001-.003 0 .001 0 .001 0 0zm-19.715 24.01-6.685-3.774c-1.642-.927-3.487-1.142-5.193-.76 1.946-4.46 3.249-9.26 3.782-14.289 1.322 1.315 3.144 2.128 5.155 2.128h7.563c-.725 5.871-2.306 11.478-4.622 16.695zm-2.94-31.322c-2.011 0-3.832.813-5.155 2.127-.533-5.03-1.836-9.832-3.782-14.293 1.76.408 3.562.157 5.192-.755l6.687-3.776c2.315 5.217 3.896 10.824 4.621 16.697zm-4.597-29.236-6.338 3.578c-1.677.947-2.829 2.459-3.368 4.16-3.078-4.204-6.811-7.894-11.047-10.93 1.605-.49 3.055-1.519 4.029-3.044l3.817-5.976c4.888 3.407 9.239 7.528 12.907 12.212zm-29.051 87.208 3.155 4.938c-4.936 1.86-10.183 3.074-15.64 3.553v-7.309c0-1.247-.314-2.419-.864-3.446 4.349-.604 8.518-1.774 12.425-3.448-.471 1.883-.203 3.947.924 5.712zm-49.191-6.261c-4.039 0-7.313 3.274-7.313 7.313v7.683h-15.013v-7.683c0-4.039-3.274-7.313-7.313-7.313s-7.313 3.274-7.313 7.313v7.683h-15.013v-7.683c0-4.039-3.274-7.313-7.313-7.313s-7.313 3.274-7.313 7.313v7.683h-15.013v-7.683c0-4.039-3.274-7.313-7.313-7.313s-7.313 3.274-7.313 7.313v7.683h-15.013v-7.683c0-4.039-3.274-7.313-7.313-7.313s-7.313 3.274-7.313 7.313v7.683h-15.007v-7.683c0-4.039-3.274-7.313-7.313-7.313s-7.313 3.274-7.313 7.313v7.683h-15.013v-7.683c0-4.039-3.274-7.313-7.313-7.313s-7.313 3.274-7.313 7.313v7.683h-15.266v-7.553c0-1.206-.297-2.34-.814-3.343 12.821-1.586 24.458-8.183 32.453-18.424h159.372c7.753 9.898 19.228 16.736 32.304 18.394-1.388 2.08-.661 8.525-.828 10.926h-14.767v-7.683c0-4.039-3.275-7.313-7.313-7.313zm-263.993-20.453c-2.3-5.198-3.871-10.783-4.593-16.631h7.42c2.078 0 3.949-.871 5.28-2.262.525 5.092 1.844 9.95 3.816 14.46-1.749-.433-3.659-.232-5.351.723zm6.572-44.179c1.676.94 3.543 1.174 5.348.724-1.971 4.509-3.288 9.367-3.813 14.458-1.331-1.391-3.202-2.261-5.279-2.261h-7.421c.721-5.848 2.292-11.434 4.592-16.633zm10.604-8.44c-.519-1.757-1.691-3.324-3.413-4.296l-6.24-3.523c3.653-4.676 7.985-8.791 12.854-12.197l3.773 5.906c.994 1.557 2.482 2.598 4.127 3.075-4.264 3.062-8.015 6.79-11.101 11.035zm68.989-19.439c4.039 0 7.313-3.274 7.313-7.313v-3.974h15.013v3.974c0 4.039 3.274 7.313 7.313 7.313s7.313-3.274 7.313-7.313v-3.974h15.008v3.974c0 4.039 3.274 7.313 7.313 7.313s7.313-3.274 7.313-7.313v-3.974h15.013v3.974c0 4.039 3.274 7.313 7.313 7.313s7.313-3.274 7.313-7.313v-3.974h15.013v3.974c0 4.039 3.274 7.313 7.313 7.313s7.313-3.274 7.313-7.313v-3.974h15.013v3.974c0 4.039 3.274 7.313 7.313 7.313s7.313-3.274 7.313-7.313v-3.974h15.013v3.974c0 4.039 3.274 7.313 7.313 7.313s7.313-3.274 7.313-7.313v-3.974h14.461v3.994c0 2.943 1.743 5.474 4.249 6.634-14.362.893-27.056 8.016-35.419 18.693h-95.56c-4.039 0-7.313 3.274-7.313 7.313s3.274 7.313 7.313 7.313h87.685c-1.624 4.86-2.517 10.051-2.517 15.451 0 5.399.893 10.591 2.517 15.451h-176.47c-8.52 0-15.451-6.931-15.451-15.451 0-8.519 6.931-15.451 15.451-15.451h56.617c4.039 0 7.313-3.274 7.313-7.313s-3.274-7.313-7.313-7.313h-31.647c-8.623-11.015-21.636-17.856-35.548-18.707 2.491-1.166 4.22-3.688 4.22-6.619v-3.994h14.96v3.974c-.003 4.038 3.272 7.312 7.31 7.312zm68.955-164.636h42.263v138.724h-22.864v-20.881c0-5.961-2.288-11.597-6.443-15.87l-13.725-14.119 10.372-10.372 7.749 8.084c2.798 2.918 7.427 3.01 10.34.218 2.916-2.795 3.014-7.424.219-10.34l-26.027-27.15c-2.795-2.915-7.424-3.013-10.34-.218s-3.014 7.424-.219 10.34l8.154 8.506-10.444 10.444-8.304-8.542v-20.615c0-1.552-.267-3.056-.77-4.463zm157.138 167.796c-5-2.142-10.428-3.465-16.115-3.819 2.507-1.16 4.249-3.69 4.249-6.634v-3.773c5.568.46 10.92 1.683 15.95 3.578l-3.158 4.943c-1.126 1.763-1.395 3.824-.926 5.705zm-100.248-29.072v-20.062c0-1.512 1.015-2.86 2.467-3.279l80.757-23.299v46.641h-83.224zm83.224-86.517h-44.11c-4.039 0-7.313 3.274-7.313 7.313s3.274 7.313 7.313 7.313h44.11v10.028l-83.224 24.011v-34.039h7.525c4.039 0 7.313-3.274 7.313-7.313s-3.274-7.313-7.313-7.313h-7.525v-52.207h83.224zm-159.381 37.599 21.738 22.362c1.486 1.528 2.304 3.544 2.304 5.676v20.881h-24.041v-48.919zm-82.317 74.181c-5.705.369-11.145 1.716-16.155 3.883.495-1.901.235-3.993-.906-5.779l-3.129-4.898c5.02-1.903 10.362-3.139 15.921-3.611v3.762c0 2.95 1.752 5.487 4.269 6.643zm3.186 14.51c5.76 0 11.361 1.484 16.319 4.173-17.509-1.323-32.95 12.356-32.866 30.077-.085 17.759 15.412 31.43 32.946 30.077-4.949 2.699-10.563 4.172-16.398 4.172-18.885 0-34.249-15.364-34.249-34.249-.001-18.886 15.363-34.25 34.248-34.25zm-19.343 79.125c3.914 1.694 8.092 2.886 12.453 3.504-.556 1.031-.872 2.21-.872 3.463v7.298c-5.448-.491-10.684-1.719-15.611-3.587l3.126-4.893c1.142-1.787 1.402-3.882.904-5.785zm255.7-10.627c-18.885 0-34.249-15.364-34.249-34.249s15.364-34.249 34.249-34.249 34.249 15.364 34.249 34.249-15.364 34.249-34.249 34.249zm-136.922-272.408c0-6.093 4.957-11.05 11.05-11.05h116.977c6.093 0 11.05 4.957 11.05 11.05v10.787h-139.077zm-126.685 102.372 91.755-26.8v88.565h-66.89c-15.17 0-29.284 4.594-41.037 12.453v-52.645c-.001-9.921 6.65-18.792 16.172-21.573zm-76.378 152.181v-32.786h29.073c-1.084 4.773-1.703 9.718-1.812 14.788-.327 5.998.618 12.25 1.812 17.998zm54.432 20.101 6.236-3.521c1.723-.973 2.896-2.541 3.415-4.3 3.086 4.245 6.837 7.972 11.1 11.034-1.646.477-3.133 1.523-4.128 3.08l-3.77 5.902c-4.868-3.406-9.2-7.52-12.853-12.195zm321.798 12.264-3.815-5.972c-.974-1.525-2.42-2.562-4.025-3.052 4.234-3.035 7.966-6.724 11.043-10.926.539 1.703 1.691 3.216 3.37 4.164l6.335 3.577c-3.668 4.684-8.019 8.804-12.908 12.209z"/></g></svg>