<svg id="Capa_1" enable-background="new 0 0 512 512" height="512" viewBox="0 0 512 512" width="512" xmlns="http://www.w3.org/2000/svg"><g><path d="m7.328 270.535c4.048 0 7.328-3.281 7.328-7.328v-68.001h101.62c4.048 0 7.328-3.281 7.328-7.328 0-4.048-3.281-7.328-7.328-7.328h-102.108c-7.812 0-14.168 6.356-14.168 14.168v68.49c0 4.047 3.281 7.327 7.328 7.327z"/><path d="m497.832 180.55h-348.641c-4.048 0-7.328 3.281-7.328 7.328 0 4.048 3.281 7.328 7.328 7.328h24.269v37.179c0 20.204 16.437 36.641 36.641 36.641h91.798c20.204 0 36.641-16.437 36.641-36.641v-37.179h158.803v121.588h-41.833v-22.4c6.685-5.091 12.009-11.88 15.314-19.724 4.972-11.42 4.972-25.922 0-37.342-7.313-17.357-24.497-29.573-44.483-29.573-19.99 0-37.177 12.222-44.487 29.585-4.966 11.41-4.966 25.909 0 37.319 7.31 17.363 24.497 29.585 44.487 29.585 5.055 0 9.93-.786 14.512-2.234v14.784h-49.405v-13.847c0-4.048-3.281-7.328-7.328-7.328s-7.328 3.281-7.328 7.328v13.847h-49.404v-29.16c0-4.048-3.281-7.328-7.328-7.328s-7.328 3.281-7.328 7.328v29.16h-49.405v-13.847c0-4.048-3.281-7.328-7.328-7.328-4.048 0-7.328 3.281-7.328 7.328v13.847h-49.405v-29.16c0-4.048-3.281-7.328-7.328-7.328s-7.328 3.281-7.328 7.328v29.16h-49.404v-13.847c0-4.048-3.281-7.328-7.328-7.328-4.048 0-7.328 3.281-7.328 7.328v13.847h-49.404v-14.784c4.583 1.449 9.457 2.234 14.512 2.234 20.023 0 37.233-12.264 44.522-29.672 4.969-11.445 4.9-25.825-.035-37.232-7.31-17.363-24.497-29.584-44.487-29.584-19.986 0-37.17 12.217-44.483 29.574-4.972 11.42-4.972 25.921 0 37.341 3.305 7.844 8.629 14.633 15.314 19.724v22.4h-41.833v-19.878c0-4.048-3.281-7.328-7.328-7.328s-7.328 3.279-7.328 7.327v20.366c0 7.812 6.356 14.168 14.168 14.168h483.664c7.812 0 14.168-6.356 14.168-14.168v-122.564c0-7.812-6.356-14.168-14.168-14.168zm-280.403 14.656h77.141v29.851h-77.141zm106.455 37.179c0 12.122-9.863 21.985-21.985 21.985h-91.798c-12.122 0-21.985-9.863-21.985-21.985v-37.179h14.656v35.225c0 5.118 4.164 9.282 9.282 9.282h87.889c5.118 0 9.282-4.164 9.282-9.282v-35.225h14.656v37.179zm102.458-9.973c9.63 0 18.321 4.08 24.451 10.595h-15.067c-4.048 0-7.328 3.281-7.328 7.328s3.281 7.328 7.328 7.328h23.156c1.391 5.293 1.391 11.379 0 16.672h-65.079c-1.391-5.293-1.391-11.379 0-16.672h9.496c4.048 0 7.328-3.281 7.328-7.328s-3.281-7.328-7.328-7.328h-1.407c6.129-6.515 14.819-10.595 24.45-10.595zm-24.451 56.58h48.902c-6.13 6.515-14.821 10.595-24.451 10.595s-18.321-4.079-24.451-10.595zm-282.645-22.992c0 2.877-.365 5.669-1.048 8.336h-65.079c-1.391-5.293-1.391-11.379 0-16.672h65.079c.684 2.667 1.048 5.459 1.048 8.336zm-33.588 33.588c-9.63 0-18.321-4.08-24.451-10.595h48.901c-6.129 6.515-14.819 10.595-24.45 10.595zm0-67.176c9.63 0 18.321 4.08 24.451 10.595h-48.901c6.13-6.515 14.82-10.595 24.45-10.595z"/><path d="m262.709 201.418h-13.419c-4.102 0-7.427 3.325-7.427 7.427s3.325 7.427 7.427 7.427h13.419c4.102 0 7.427-3.325 7.427-7.427.001-4.102-3.325-7.427-7.427-7.427z"/></g></svg>