<svg id="Capa_1" enable-background="new 0 0 512 512" height="512" viewBox="0 0 512 512" width="512" xmlns="http://www.w3.org/2000/svg"><g><path d="m45.814 188.115c0-4.084-3.311-7.394-7.394-7.394h-31.026c-4.084 0-7.394 3.31-7.394 7.394s3.311 7.394 7.394 7.394h31.026c4.083.001 7.394-3.309 7.394-7.394z"/><path d="m55.882 102.368-27.649-14.074c-3.637-1.851-8.091-.405-9.944 3.235-1.852 3.639-.404 8.091 3.235 9.944l27.649 14.074c3.563 1.836 8.084.441 9.944-3.235 1.853-3.639.405-8.091-3.235-9.944z"/><path d="m49.174 260.684-27.649 14.074c-3.639 1.852-5.088 6.304-3.235 9.944 1.861 3.676 6.381 5.071 9.944 3.235l27.649-14.074c3.639-1.852 5.088-6.304 3.235-9.944s-6.306-5.087-9.944-3.235z"/><path d="m512 229.772v-89.626c0-25.822-21.008-46.831-46.831-46.831h-159.762v-2.187c0-7.24-5.15-13.539-12.245-14.976l-96.515-19.565v-12.978c0-8.426-6.855-15.282-15.282-15.282h-49.589c-8.426 0-15.282 6.855-15.282 15.282v22.131c-16.52 15.954-29.785 35.478-38.422 56.631-1.544 3.781.27 8.097 4.05 9.641 3.685 1.533 8.098-.232 9.641-4.051 5.985-14.658 14.415-28.458 24.731-40.627v195.242c-22.961-27.113-35.867-61.809-35.867-97.618 0-9.485.885-18.975 2.631-28.209.759-4.013-1.879-7.881-5.892-8.639-4.013-.754-7.881 1.879-8.64 5.891-1.916 10.138-2.888 20.553-2.888 30.957 0 44.847 18.427 88.105 50.655 119.226v22.125c0 8.426 6.855 15.282 15.282 15.282h49.589c8.426 0 15.282-6.855 15.282-15.282v-12.979l96.515-19.565c8.001-1.552 13.007-9.218 12.246-17.163h56.632v3.595h-15.831c-9.513 0-17.253 7.74-17.253 17.253v46.734c0 9.513 7.74 17.253 17.253 17.253h21.048c.848 2.494 1.795 4.964 2.848 7.404l14.373 33.308c4.548 10.54 6.854 21.705 6.854 33.184v21.226c0 14.949 12.163 27.112 27.112 27.112h66.444c14.95 0 27.112-12.163 27.112-27.112v-12.316c0-4.084-3.311-7.394-7.394-7.394-4.084 0-7.394 3.31-7.394 7.394v12.316c0 6.795-5.528 12.324-12.324 12.324h-66.444c-6.795 0-12.324-5.528-12.324-12.324v-4.922h22.165c4.084 0 7.394-3.31 7.394-7.394s-3.311-7.394-7.394-7.394h-22.164c.064-6.076-.38-12.15-1.397-18.072h23.562c9.597.14 9.592-14.93 0-14.789h-27.285c-.873-2.594-1.851-5.163-2.945-7.699l-4.476-10.373h24.723c9.597.14 9.592-14.93 0-14.789h-31.105l-3.515-8.146c-4.548-10.54-6.855-21.705-6.855-33.185v-53.196s90.181-.034 91.092-.087v45.967c0 12.292 2.264 24.333 6.728 35.786l16.847 43.223c1.622 4.162 2.92 8.488 3.856 12.857 1.921 9.448 16.601 6.223 14.46-3.1-1.102-5.14-2.629-10.23-4.538-15.128l-16.847-43.223c-3.794-9.735-5.718-19.969-5.718-30.416v-49.3c17.157-6.954 29.293-23.785 29.293-43.407zm-165.792 116.878c-1.359 0-2.465-1.105-2.465-2.465v-46.734c0-1.359 1.106-2.465 2.465-2.465h15.831v34.812c0 5.693.488 11.318 1.446 16.852zm83.417-238.546v44.789h-66.531c-4.084 0-7.394 3.31-7.394 7.394s3.311 7.394 7.394 7.394h66.531v34.554h-124.218v-34.554h25.152c4.084 0 7.394-3.31 7.394-7.394s-3.311-7.394-7.394-7.394h-25.152v-44.789zm-247.767 84.698v34.798h-50.575v-34.798zm-50.575-14.788v-34.797h50.575v34.797zm50.575-49.586h-50.575v-34.796h50.575zm-50.575 113.96h50.575v34.797h-50.575zm.493-199.272h49.589c.272 0 .493.221.493.493v35.235h-50.575v-35.235c0-.272.221-.493.493-.493zm49.589 283.686h-49.589c-.272 0-.493-.221-.493-.493v-34.335h50.575v34.335c0 .272-.221.493-.493.493zm109.253-48.013c0 .233-.166.436-.395.482l-93.577 18.969v-226.563l93.577 18.969c.229.046.395.249.395.482zm14.789-61.765h124.218v44.789h-124.218zm139.007 44.79v-153.71h20.756c17.668 0 32.042 14.374 32.042 32.042v89.626c0 17.668-14.374 32.042-32.042 32.042z"/><path d="m225.504 209.951c-13.358 0-24.225 10.867-24.225 24.225s10.867 24.226 24.225 24.226 24.226-10.868 24.226-24.226-10.868-24.225-24.226-24.225zm0 33.662c-5.203 0-9.436-4.233-9.436-9.437 0-5.203 4.233-9.436 9.436-9.436s9.437 4.233 9.437 9.436c0 5.204-4.233 9.437-9.437 9.437z"/><path d="m225.504 160.733c-13.358 0-24.225 10.867-24.225 24.225s10.867 24.226 24.225 24.226 24.226-10.868 24.226-24.226-10.868-24.225-24.226-24.225zm0 33.663c-5.203 0-9.436-4.233-9.436-9.437 0-5.203 4.233-9.436 9.436-9.436s9.437 4.233 9.437 9.436-4.233 9.437-9.437 9.437z"/></g></svg>