<svg id="Capa_1" enable-background="new 0 0 512 512" height="512" viewBox="0 0 512 512" width="512" xmlns="http://www.w3.org/2000/svg"><g><path d="m494.119 332.719c11.415-1.681 19.337-12.335 17.656-23.751-1.128-7.663-6.304-13.752-13.035-16.419l-2.861-10.164c-.705-2.503-.758-5.164-.155-7.695 2.862-12.015 2.212-26.545-1.833-40.912-1.045-3.708-4.896-5.868-8.605-4.825-3.709 1.045-5.868 4.897-4.825 8.605 3.412 12.118 4.012 24.157 1.691 33.898-1.153 4.838-1.05 9.924.297 14.709l1.612 5.729-21.571 3.175c-1.373-5.841-3.93-11.515-8.277-15.747-7.061-7.101-12.829-17.685-16.239-29.804-3.412-12.119-4.012-24.158-1.691-33.9 1.152-4.839 1.049-9.925-.297-14.707l-1.508-5.358 21.783-2.419.54 1.918c1.347 4.785 3.913 9.177 7.42 12.703 1.632 1.642 3.229 3.516 4.745 5.569 5.302 7.367 16.695-1.099 11.223-8.289-1.919-2.599-3.963-4.993-6.076-7.117-1.836-1.846-3.178-4.144-3.882-6.646l-.095-.337c4.119-1.759 7.328-5.272 8.647-9.722 1.754-5.917-.196-12.268-4.968-16.183l-29.515-24.205c-14.786-12.127-34.174-17.895-53.182-15.829l-42.295 4.6c-5.4.588-9.79 4.551-10.922 9.863l-.306 1.436-56.513 6.146c-3.83.417-6.598 3.859-6.181 7.689.389 3.574 3.412 6.223 6.927 6.223.252 0 .506-.014.762-.042l51.941-5.648-5.721 26.819-217.499 23.652 5.721-26.818 134.788-14.658c3.83-.417 6.598-3.859 6.181-7.689s-3.853-6.596-7.689-6.181l-130.215 14.16.721-3.377c.795-3.724-.124-7.558-2.519-10.518-2.395-2.961-5.953-4.659-9.76-4.659h-58.141c-11.729 0-21.927 7.943-24.799 19.316l-11.628 46.048c-7.429 29.416-11.196 59.715-11.196 90.06v54.463c0 .067.008.132.01.198-1.768 3.067-2.785 6.621-2.785 10.41 0 11.539 9.388 20.927 20.927 20.927h91.331c3.853 0 6.976-3.123 6.976-6.976s-3.123-6.976-6.976-6.976h-91.331c-3.847 0-6.976-3.129-6.976-6.976s3.129-6.976 6.976-6.976h377.732c3.847 0 6.976 3.129 6.976 6.976s-3.129 6.976-6.976 6.976h-255.17c-3.853 0-6.976 3.123-6.976 6.976s3.123 6.976 6.976 6.976h255.17c3.05 0 5.946-.661 8.562-1.839h12.328c9.763 0 18.243-6.948 20.161-16.52l1.529-7.626h49.833c3.853 0 6.976-3.123 6.976-6.976s-3.123-6.976-6.976-6.976h-10.014v-12.838zm-71.562-128.028c.705 2.501.758 5.163.155 7.695-2.862 12.014-2.212 26.544 1.833 40.912 4.045 14.367 11.068 27.102 19.777 35.861 2.195 2.154 3.55 4.992 4.251 7.958l-36.108 5.314v-25.526c0-18.272-4.741-36.344-13.711-52.263l-13.321-23.642 34.991-3.887zm-71.223-61.334 41.292-4.491c15.307-1.665 30.92 2.981 42.828 12.747l29.515 24.204c.959.395.307 2.581-.708 2.391l-85.259 9.47c-3.58.397-6.697 2.548-8.339 5.752s-1.568 6.991.2 10.129l15.739 27.932c7.794 13.832 11.914 29.537 11.914 45.414v30.024c-.156 5.976 5.654 10.98 11.533 9.958l80.008-11.775c3.818-.554 7.358 2.082 7.918 5.886.56 3.806-2.081 7.357-5.886 7.918l-80.009 11.775c-8.471 1.293-17.139-2.216-22.387-8.918-3.307-4.178-5.128-9.64-5.128-15.378v-29.49c0-13.483-3.499-26.818-10.117-38.565l-22.254-39.495c-2.325-4.126-6.604-6.668-11.243-6.807zm-24.338 52.954c.475 2.063 1.451 4.008 2.906 5.615 2.614 2.889 6.457 4.396 10.317 4.091l22.072 39.172c5.443 9.661 8.321 20.628 8.321 31.717v29.49c-.016 11.748 5.059 22.744 13.951 29.94v9.226h-335.331c.505-27.679 3.824-55.357 9.881-82.356 3.273-14.593 16.005-24.784 30.961-24.784h4.101c5.887 0 11.051-4.179 12.28-9.937l1.789-8.386zm-310.269 149.674v-44.569c0-29.192 3.624-58.344 10.77-86.643l11.628-46.048c1.306-5.17 5.941-8.78 11.273-8.78h56.413l-13.765 64.525h-2.972c-21.531 0-39.861 14.672-44.574 35.682-6.281 27.999-9.713 56.705-10.22 85.41h-14.353c-1.438 0-2.843.146-4.2.423zm402.821 25.64h-.603c.417-1.644.64-3.365.64-5.136 0-11.539-9.388-20.927-20.927-20.927h-.144v-2.019c4.983 1.377 10.418 1.725 15.594.951l16.793-2.471-4.871 24.292c-.616 3.077-3.342 5.31-6.482 5.31zm47.558-24.146h-23.07l1.527-7.615 21.543-3.171z"/><path d="m64.452 218.671c12.573 0 22.802-10.229 22.802-22.802s-10.229-22.802-22.802-22.802-22.802 10.23-22.802 22.802c0 12.573 10.23 22.802 22.802 22.802zm0-31.652c4.88 0 8.85 3.97 8.85 8.85s-3.97 8.85-8.85 8.85-8.85-3.97-8.85-8.85 3.97-8.85 8.85-8.85z"/></g></svg>