<svg id="Capa_1" enable-background="new 0 0 512 512" height="512" viewBox="0 0 512 512" width="512" xmlns="http://www.w3.org/2000/svg"><g><path d="m494.5 164.91h-6.604v-17.412c0-7.995-6.505-14.5-14.5-14.5h-9.942v-39.733c0-7.995-6.505-14.5-14.5-14.5h-304.673c-4.142 0-7.5 3.358-7.5 7.5 0 4.143 3.358 7.5 7.5 7.5h99.155l-6.895 49.476c-.633 4.542-4.568 7.967-9.154 7.967-7.471 0-13.882 5.579-14.913 12.979l-5.758 41.318c-1.371 9.835 1.354 19.607 7.474 26.809 8.282 9.126-.093 24.819-12.319 22.983-10.74-.879-16.275-14.757-9.207-22.81 6.183-7.514 8.96-17.348 7.618-26.979l-5.758-41.321c-1.031-7.4-7.443-12.979-14.913-12.979h-25.433c-4.585 0-8.52-3.425-9.153-7.967-1.66-11.912-11.982-20.896-24.01-20.896h-14.185c-4.585 0-8.52-3.425-9.153-7.966l-2.873-20.614h15.305c4.142 0 7.5-3.358 7.5-7.5 0-4.143-3.358-7.5-7.5-7.5h-47.06c-7.995 0-14.5 6.505-14.5 14.5v39.733h-9.942c-7.995 0-14.5 6.505-14.5 14.5v17.412h-6.607c-9.65 0-17.5 7.851-17.5 17.5v44.995c0 28.665 13.693 56.043 36.628 73.235l33.665 25.237 8.25 86.981c1.102 11.617 10.731 20.377 22.4 20.377h175.263c4.142 0 7.5-3.358 7.5-7.5 0-4.143-3.358-7.5-7.5-7.5h-175.264c-3.889 0-7.099-2.92-7.467-6.792l-6.962-73.405 23.454 17.582c6.925 5.192 15.506 8.051 24.162 8.051h13.494v6.881c0 8.547 6.953 15.5 15.5 15.5h185.755c8.547 0 15.5-6.953 15.5-15.5v-6.881h13.494c8.655 0 17.236-2.859 24.161-8.051l23.09-17.31-6.603 73.099c-.352 3.891-3.563 6.825-7.469 6.825h-100.817c-4.142 0-7.5 3.358-7.5 7.5 0 4.143 3.358 7.5 7.5 7.5h100.816c11.721 0 21.355-8.803 22.409-20.476l7.819-86.56 34.093-25.558c22.936-17.192 36.629-44.569 36.629-73.234v-44.995c0-9.65-7.851-17.501-17.5-17.501zm-46.047-71.145v39.233h-195.34l5.467-39.233zm-109.321 54.234h56.493v16.482c0 2.722-2.214 4.936-4.935 4.936h-46.622c-2.721 0-4.935-2.214-4.935-4.936v-16.482zm-88.285 0h73.285v16.482c0 10.992 8.943 19.936 19.936 19.936h46.622c10.992 0 19.936-8.944 19.936-19.936v-16.482h62.271v48.823h-249.813l4.303-30.613c11.102-.001 20.735-7.663 23.46-18.21zm-187.3-54.234h16.11l3.161 22.684c.96 6.893 4.831 12.791 10.244 16.549h-29.515zm-24.442 54.234h91.613c2.725 10.548 12.357 18.209 23.459 18.209l25.489.049 4.259 30.564h-144.82zm6.52 140.64c-19.176-14.375-30.625-37.266-30.625-61.233v-44.995c0-1.379 1.122-2.5 2.5-2.5h6.604v17.411c0 7.995 6.505 14.5 14.5 14.5h20.87l8.904 93.874zm303.753 81.913c0 .275-.224.5-.5.5h-185.755c-.276 0-.5-.225-.5-.5v-28.677c0-.275.224-.5.5-.5h185.755c.276 0 .5.225.5.5zm43.657-26.934c-4.346 3.259-9.731 5.053-15.163 5.053h-13.494v-6.795c0-8.547-6.953-15.5-15.5-15.5h-185.755c-8.547 0-15.5 6.953-15.5 15.5v6.795h-13.494c-5.432 0-10.818-1.794-15.164-5.053l-34.366-25.762-10.057-106.034h111.007c-.311 4.047-1.852 7.955-4.469 11.135-5.013 6.093-7.291 13.8-6.415 21.701 1.479 13.33 12.227 24.076 25.558 25.549 16.657 2.249 32.678-12.009 32.292-28.836 0-6.871-2.449-13.537-6.895-18.77-2.496-2.938-3.948-6.725-4.206-10.78h215.135l-1.268 14.034h-159.31c-10.414 0-18.887 8.473-18.887 18.887v56.329c0 10.414 8.473 18.887 18.887 18.887h124.153c4.142 0 7.5-3.358 7.5-7.5 0-4.143-3.358-7.5-7.5-7.5h-124.153c-2.143 0-3.887-1.743-3.887-3.887v-56.329c0-2.144 1.744-3.887 3.887-3.887h157.955l-6.987 77.346zm103.965-116.212c0 23.967-11.449 46.858-30.625 61.233l-23.279 17.451 8.515-94.269h21.785c7.995 0 14.5-6.505 14.5-14.5v-17.411h6.604c1.378 0 2.5 1.121 2.5 2.5z"/><path d="m159.622 255.291c-3.409 0-6.543 1.713-8.385 4.584-13.456 20.975-13.456 27.708-13.456 29.92 0 12.043 9.798 21.841 21.842 21.841s21.842-9.798 21.842-21.841c0-2.212 0-8.945-13.457-29.921-1.842-2.871-4.977-4.583-8.386-4.583zm0 41.344c-3.773 0-6.841-3.068-6.841-6.822.061-1.56 1.995-6.612 6.841-14.927 4.84 8.306 6.776 13.354 6.841 14.921-.006 3.767-3.072 6.828-6.841 6.828z"/><path d="m373.378 250.356h-80.158c-4.142 0-7.5 3.358-7.5 7.5 0 4.143 3.358 7.5 7.5 7.5h80.158c4.142 0 7.5-3.358 7.5-7.5 0-4.143-3.358-7.5-7.5-7.5z"/><path d="m331.631 278.169h-38.411c-4.142 0-7.5 3.358-7.5 7.5s3.358 7.5 7.5 7.5h38.412c4.142 0 7.5-3.358 7.5-7.5s-3.358-7.5-7.501-7.5z"/></g></svg>