<svg id="Capa_1" enable-background="new 0 0 512 512" height="512" viewBox="0 0 512 512" width="512" xmlns="http://www.w3.org/2000/svg"><g><circle cx="247.311" cy="410.798" r="10.695"/><ellipse cx="458.363" cy="410.798" rx="10.695" ry="10.695" transform="matrix(.995 -.099 .099 .995 -38.249 47.166)"/><path d="m504.638 289.856c4.066 0 7.362-3.296 7.362-7.362v-11.017c0-23.002-18.714-41.716-41.716-41.716h-63.815v-19.983c0-9.471-7.706-17.177-17.177-17.177h-18.272l-39.007-63.2c-6.905-11.188-17.19-19.363-29.122-23.574-.234-8.254-4.751-15.882-11.927-20.024l-25.325-14.617c-4.763-2.75-10.449-2.748-15.211.001-4.712 2.72-7.54 7.571-7.599 13l-144.354-14.645-3.094-6.242c-2.397-4.836-6.81-8.201-12.108-9.232s-10.651.433-14.687 4.017l-23.192 20.593c-6.392 5.677-10.058 13.836-10.058 22.385v63.073c0 4.066 3.296 7.362 7.362 7.362s7.362-3.296 7.362-7.362v-63.073c0-4.345 1.863-8.491 5.111-11.376l23.191-20.594c1.644-1.07 2.706-.865 3.828.745l16.242 32.767h-2.192c-4.521-4.273-10.611-6.902-17.308-6.902-13.907 0-25.222 11.315-25.222 25.222 0 13.908 11.315 25.223 25.222 25.223 3.564 0 6.955-.747 10.031-2.086l7.574 1.763-35.686 171.377c-1.415-.529-2.89-.941-4.416-1.212-2.14-.38-4.28-.478-6.376-.31v-118.417c0-4.066-3.296-7.362-7.362-7.362s-7.362 3.296-7.362 7.362v124.905c-.244-.183-22.312 25.04-23.07 25.774-7.909 8.906-12.265 20.371-12.265 32.282 0 26.805 21.807 48.612 48.612 48.612h91.092c8.368 0 15.175-6.808 15.175-15.175 0-5.895-3.457-11.301-8.809-13.775l-36.322-16.786c-11.213-5.182-19.879-14.367-24.401-25.862-.828-1.87-10.882-28.309-11.73-29.122l37.263-178.953 120.395 28.015 46.001 83.803v60.768c0 9.471 7.706 17.177 17.177 17.177h2.897v24.414h-50.04c-26.169 0-47.458 21.29-47.458 47.458s21.29 47.458 47.458 47.458h211.052c26.169 0 47.458-21.29 47.458-47.458s-21.29-47.458-47.458-47.458h-50.04v-24.414h86.5c9.471 0 17.177-7.706 17.177-17.177v-4.269c0-4.066-3.296-7.362-7.362-7.362s-7.362 3.296-7.362 7.362v4.269c0 1.353-1.101 2.454-2.454 2.454h-134.037l40.342-54.173c3.445-4.627 5.343-10.353 5.343-16.121v-9.423h63.815c14.884 0 26.993 12.109 26.993 26.993v11.017c0 4.064 3.296 7.36 7.361 7.36zm-401.066 106.608 36.322 16.786c.433.186.283.876-.189.863h-91.093c-18.686 0-33.888-15.203-33.888-33.889 0-8.303 3.037-16.296 8.551-22.504l21.331-24.017c4.681-5.621 14.409-3.85 16.838 2.99l10.203 25.934c5.916 15.039 17.254 27.057 31.925 33.837zm215.912-259.33 34.235 55.467h-34.726c-9.219 0-17.745 3.012-24.658 8.095l-25.843-21.176c-7.92-6.49-17.083-11.498-26.821-14.701l-1.248-2.292c3.836-4.041 6.197-9.495 6.197-15.494 0-12.422-10.106-22.527-22.528-22.527s-22.527 10.105-22.527 22.527c0 3.008.597 5.878 1.672 8.504l-101.597-23.641c2.126-4.302 2.999-9.646 2.253-14.567h180.093c14.573 0 27.844 7.403 35.498 19.805zm-95.392 17.704c-4.303 0-7.804-3.501-7.804-7.804s3.501-7.804 7.804-7.804 7.804 3.501 7.804 7.804-3.501 7.804-7.804 7.804zm33.698-70.9c.244-.142.391-.057.489 0l25.325 14.617c1.677.968 2.965 2.439 3.746 4.152-1.115-.065-2.237-.102-3.365-.102h-26.439v-18.244c0-.112 0-.282.244-.423zm-151.591 1.187 136.624 13.862v3.619h-128.169c-.826-2.525-8.455-17.481-8.455-17.481zm-37.767 35.801c0-5.789 4.71-10.499 10.499-10.499s10.499 4.71 10.499 10.499c0 5.79-4.71 10.499-10.499 10.499s-10.499-4.709-10.499-10.499zm190.728 69.982 25.003 20.488c-3.69 5.589-6.07 12.111-6.706 19.132l-23.777-43.658c1.892 1.256 3.725 2.6 5.48 4.038zm32.84 130.84v-87.432c0-14.884 12.109-26.993 26.993-26.993h3.544v116.878h-28.083c-1.353.001-2.454-1.1-2.454-2.453zm-44.689 121.785c-18.05 0-32.735-14.685-32.735-32.735s14.685-32.735 32.735-32.735 32.735 14.685 32.735 32.735-14.685 32.735-32.735 32.735zm34.312 0c8.135-8.523 13.146-20.051 13.146-32.735 0-1.72-.097-3.417-.277-5.089h116.688c-.366 3.335-.366 6.844 0 10.179h-91.574c-4.066 0-7.362 3.296-7.362 7.362s3.296 7.362 7.362 7.362h95.647c2.211 4.791 5.196 9.151 8.796 12.923h-142.426zm176.74-65.471c18.05 0 32.735 14.685 32.735 32.735s-14.685 32.735-32.735 32.735-32.735-14.685-32.735-32.735 14.684-32.735 32.735-32.735zm-34.312 0c-3.6 3.772-6.585 8.131-8.796 12.923h-124.836c-2.211-4.791-5.196-9.151-8.796-12.923zm-30.451-14.723h-81.526v-24.414h81.526zm-1.854-109.431c0 2.622-.863 5.225-2.428 7.328l-46.891 62.966h-5.167v-116.878h52.032c1.353 0 2.454 1.101 2.454 2.454z"/><path d="m420.577 257.935v19.876c0 4.066 3.296 7.362 7.362 7.362s7.362-3.296 7.362-7.362v-19.876c0-4.066-3.296-7.362-7.362-7.362-4.066.001-7.362 3.297-7.362 7.362z"/><path d="m449.14 257.935v19.876c0 4.066 3.296 7.362 7.362 7.362s7.362-3.296 7.362-7.362v-19.876c0-4.066-3.296-7.362-7.362-7.362-4.066.001-7.362 3.297-7.362 7.362z"/></g></svg>