<svg id="Capa_1" enable-background="new 0 0 512 512" height="512" viewBox="0 0 512 512" width="512" xmlns="http://www.w3.org/2000/svg"><g><path d="m490.14 291.58v-100.551c0-25.683-21.098-46.578-47.03-46.578h-65.532l-24.055-24.055c-21.649-21.647-53.193-29.243-82.32-19.831l-20.442 6.607c-4.354 1.408-7.275 5.429-7.268 10.005s2.941 8.586 7.298 9.981l26.193 8.38c6.5 2.079 12.691 5.101 18.35 8.913h-57.591c.24-7.502-.628-15.097-3.715-22.007l-19.131-44.447c-3.452-8.775-16.895-9.041-20.569-.345l-20.749 44.067c-3.385 7.028-4.613 14.97-4.345 22.731h-18.485v-32.367l8.833-30.598c.687-2.38.687-4.895 0-7.276l-10.462-36.238c-1.611-5.581-6.793-9.478-12.602-9.478h-15.518c-5.809 0-10.991 3.898-12.601 9.478l-10.462 36.239c-.687 2.381-.687 4.897 0 7.275l9.257 32.069c-.01.154-.023.307-.023.463v30.434h-17.474l-11.522-39.914c-2.154-7.464-9.981-11.778-17.442-9.627l-44.356 12.805c-3.615 1.044-6.608 3.433-8.426 6.727-1.819 3.294-2.246 7.1-1.202 10.714l16.182 56.057c-.699 3.215-1.072 6.505-1.072 9.816v100.551c-12.053 0-21.859 9.807-21.859 21.86v148.208c0 12.053 9.806 21.86 21.86 21.86h143.521c4.024 0 7.287-3.262 7.287-7.287s-3.262-7.287-7.287-7.287h-143.521c-4.018 0-7.287-3.268-7.287-7.287v-13.58h365.055c4.025 0 7.287-3.262 7.287-7.287s-3.262-7.287-7.287-7.287h-64.597c8.13-1.979 15.728-4.381 22.625-7.179 9.979-4.049 18.088-8.796 24.166-14.054h135.604v21.233h-83.534c-4.025 0-7.287 3.262-7.287 7.287s3.262 7.287 7.287 7.287h83.534v13.58c0 4.018-3.268 7.287-7.287 7.287h-290.303c-4.024 0-7.287 3.262-7.287 7.287s3.262 7.287 7.287 7.287h290.304c12.053 0 21.86-9.806 21.86-21.86v-148.208c0-12.053-9.806-21.86-21.86-21.86zm-129.438 70.302c-5.942-4.883-13.667-9.305-23.046-13.111-8.037-3.261-17.031-5.979-26.704-8.121h186.474v21.232zm-156.302-271.41 8.571 19.914h-17.948zm14.844 34.487c1.959 4.24 3.665 8.839 3.862 13.523-1.51-1.078-3.334-1.672-5.223-1.672-2.581 0-5.04 1.11-6.747 3.046-1.862 2.112-4.54 3.324-7.347 3.324s-5.485-1.212-7.348-3.324c-1.706-1.935-4.165-3.045-6.747-3.045-2.14 0-4.195.763-5.808 2.126.266-4.898 2.069-9.646 4.274-13.977h31.084zm93.254 34.751-11.944 11.944h-62.811v-12.63h74.069zm-29.476 53.521 5.733 5.733-51.012 51.012v-83.749h48.237l-2.958 2.958c-6.629 6.63-6.629 17.416 0 24.046zm-113.788 55.753c-1.64-6.964-3.839-13.48-6.547-19.287-1.771-3.797-2.668-7.782-2.668-11.845v-44.528c0-2.65-.863-5.097-2.309-7.096h11.524zm-33.058-87.805h-14.431v-53.975h14.431zm-27.735 74.677c2.676-5.739 4.033-11.797 4.033-18.005v-42.1h32.972v42.1c0 6.208 1.357 12.265 4.034 18.005 4.631 9.93 7.538 22.428 8.371 35.724h-57.781c.833-13.297 3.74-25.794 8.371-35.724zm75.366-99.519c2.096-.746 4.079-1.775 5.898-3.073 4.083 2.893 8.997 4.488 14.084 4.488 5.09 0 10.006-1.596 14.089-4.491 1.64 1.166 3.419 2.112 5.291 2.837v128.452l-7.031 7.031h-32.332v-135.244zm53.936 134.249 61.317-61.317 25.545 25.545-36.765 36.766h-50.098v-.994zm97.168-25.466 5.733 5.733c6.329 6.595 17.717 6.595 24.046 0l9.517-9.517 10.011 10.01c-3.295 6.398-2.272 14.463 3.082 19.818l.415.415h-79.263zm87.401-75.935-2.958-2.958h23.756c2.898 0 5.254 2.154 5.254 4.802v50.551l-5.74-5.74c-3.212-3.211-7.481-4.979-12.022-4.979-2.76 0-5.415.662-7.798 1.895l-10.009-10.009 9.516-9.516c6.596-6.329 6.596-17.717.001-24.046zm-19.821 43.867 9.278 9.277-17.98 17.979-9.277-9.277zm5.833 58.528-10.72-10.719c-.947-.948-.947-2.489-.001-3.435l31.282-31.28c.947-.948 2.487-.946 3.434 0l38.311 38.311c.948.947.948 2.488 0 3.435l-3.687 3.688zm34.786-132.556c17.897 0 32.457 14.358 32.457 32.005v77.754l-12.63-12.63v-65.124c0-10.683-8.895-19.375-19.827-19.375h-38.329l-12.63-12.63zm-175.805-41.884 8.38-2.708c23.899-7.723 49.775-1.49 67.532 16.269l68.789 68.789c1.01 1.36 1.01 2.074 0 3.435l-57.622 57.622c-1.36 1.01-2.074 1.01-3.435 0l-57.622-57.622c-.948-.947-.948-2.488 0-3.435l31.88-31.88c4.356-4.357 4.356-11.445 0-15.802l-8.855-8.855c-9.737-9.736-21.815-17.101-34.929-21.296zm-98.071 41.884v12.63h-18.485v-12.63zm-47.138-115.958h13.326l10.041 34.782-10.041 34.783h-13.326l-10.041-34.783zm-14.925 115.958v12.63h-9.621l-3.646-12.63zm-42.862-49.977 33.592 116.365v12.439c0 4.065-.898 8.049-2.667 11.845-5.49 11.77-8.89 26.451-9.763 41.883h-15.511l-2.24-7.758 9.092-2.624c3.866-1.117 6.096-5.156 4.98-9.022s-5.153-6.095-9.022-4.98l-9.092 2.624-7.039-24.385 20.729-5.985c3.867-1.117 6.096-5.156 4.98-9.022s-5.154-6.093-9.021-4.98l-20.729 5.985-7.039-24.385 9.092-2.625c3.866-1.117 6.095-5.156 4.979-9.022s-5.154-6.094-9.022-4.98l-9.092 2.625-7.039-24.385 20.729-5.984c3.866-1.117 6.096-5.156 4.98-9.022s-5.152-6.093-9.021-4.98l-20.729 5.984-9.549-33.078zm-27.876 118.934 12.63 43.751v19.847h-12.63zm-14.573 78.172h468.28c4.018 0 7.287 3.268 7.287 7.287v12.637h-404.225c-4.024 0-7.287 3.262-7.287 7.287s3.262 7.287 7.287 7.287h107.845c-9.673 2.143-18.667 4.861-26.703 8.121-9.379 3.806-17.104 8.228-23.046 13.111h-136.725v-21.232h45.371c4.024 0 7.287-3.262 7.287-7.287s-3.262-7.287-7.287-7.287h-45.371v-12.637c0-4.018 3.269-7.287 7.287-7.287zm117.277 91.535h-124.564v-21.233h124.961c-1.604 3.577-2.426 7.287-2.426 11.088 0 3.469.691 6.86 2.029 10.145zm-124.564 35.807v-21.233h135.604c6.078 5.258 14.187 10.005 24.166 14.054 6.897 2.798 14.495 5.2 22.625 7.179zm241.427-7.955c-61.477 0-104.319-20.025-104.319-37.997 0-17.973 42.842-37.997 104.319-37.997 61.476 0 104.319 20.025 104.319 37.997 0 17.973-42.843 37.997-104.319 37.997zm116.863-27.852c1.338-3.285 2.029-6.676 2.029-10.145 0-3.802-.822-7.511-2.426-11.088h124.961v21.233z"/><path d="m287.703 364.563h-63.406c-4.024 0-7.287 3.262-7.287 7.287s3.262 7.287 7.287 7.287h63.406c4.025 0 7.287-3.262 7.287-7.287s-3.262-7.287-7.287-7.287z"/><path d="m287.703 393.699h-63.406c-4.024 0-7.287 3.262-7.287 7.287s3.262 7.287 7.287 7.287h63.406c4.025 0 7.287-3.262 7.287-7.287s-3.262-7.287-7.287-7.287z"/></g></svg>