<svg id="Capa_1" enable-background="new 0 0 512 512" height="512" viewBox="0 0 512 512" width="512" xmlns="http://www.w3.org/2000/svg"><g><path d="m370.67 343.147c-.922-3.917-4.841-6.344-8.762-5.424-3.917.921-6.346 4.845-5.424 8.762 6.83 29.03 6.743 59.698-.252 88.688l-11.166 46.276c-1.309 5.427-4.654 10.02-9.417 12.93-9.464 6.058-23.073 2.773-28.734-6.933-2.911-4.763-3.794-10.375-2.484-15.803l11.165-46.275c7.677-31.82 4.591-65.82-8.691-95.735l-4.822-10.861 7.011-32.523c2.542-11.789 10.824-21.271 21.498-25.754-2.629 6.188-2.716 13.354.159 19.832 0 0 15.249 34.369 15.68 35.386 1.569 3.708 5.845 5.439 9.551 3.871 3.706-1.569 5.439-5.845 3.87-9.551-.464-1.097-15.78-35.62-15.78-35.62-1.916-4.315-.662-9.369 3.048-12.288l15.773-12.411c12.132-8.731 5.248-29.207-9.659-28.781h-21.725v-12.703c0-7.127-5.798-12.924-12.925-12.924h-5.87c1.423-5.108 2.147-10.393 2.147-15.799l-.026-55.288c0-6.047-.901-12.044-2.678-17.824l-29.665-96.51c-1.816-5.912-7.193-9.885-13.379-9.885h-26.277c-6.184 0-11.561 3.972-13.379 9.885l-29.665 96.514c-1.777 5.779-2.678 11.777-2.678 17.824l.094 56.404c.092 5.017.793 9.928 2.118 14.682h-5.935c-7.127 0-12.925 5.797-12.925 12.924v12.703h-21.725c-14.908-.421-21.797 20.054-9.659 28.781l15.773 12.411c3.71 2.92 4.964 7.974 3.048 12.289l-14.359 32.341c-18.29 41.197-22.541 88.017-11.968 131.833l2.595 10.757c.945 3.913 4.88 6.318 8.793 5.375 3.912-.944 6.318-4.881 5.374-8.793l-2.595-10.757c-9.825-40.716-5.875-84.221 11.122-122.503l14.359-32.341c2.876-6.478 2.788-13.644.159-19.832 10.673 4.483 18.956 13.965 21.498 25.754l7.011 32.523-4.821 10.86c-13.282 29.915-16.369 63.915-8.692 95.736l11.166 46.275c1.309 5.427.427 11.039-2.484 15.803-8.86 15.734-34.548 11.694-38.151-5.997l-.953-3.951c-.944-3.912-4.88-6.316-8.793-5.375-3.912.944-6.319 4.881-5.375 8.793 1.888 10.625 7.516 20.319 16.937 25.899 16.129 10.291 39.141 4.7 48.769-11.767 4.942-8.085 6.44-17.611 4.217-26.821l-11.165-46.275c-6.93-28.72-4.144-59.404 7.844-86.404l19.987-45.018c7.414-16.699 11.685-34.284 12.759-52.39 3.227.277 6.475.278 9.702.005 1.074 18.104 5.346 35.688 12.759 52.385l19.987 45.019c11.987 26.999 14.773 57.683 7.843 86.403l-11.165 46.274c-2.223 9.211-.725 18.737 4.217 26.822 9.629 16.469 32.64 22.056 48.769 11.767 8.085-4.941 13.761-12.736 15.984-21.948l11.165-46.276c7.528-31.2 7.622-64.204.272-95.446zm-43.63-107.638h26.193c1.564.072 1.919 1.878.648 2.753l-6.165 4.851h-3.243c-23.749 0-44.619 16.85-49.624 40.067l-2.8 12.988-5.129-11.553c-7.821-17.615-11.786-36.318-11.786-55.589v-19.144h41.802v15.521c-.002 5.572 4.532 10.106 10.104 10.106zm-28.813-124.83c1.35 4.392 2.034 8.948 2.034 13.542v16.558c-8.445-9.635-19.971-16.497-33.032-19.027 8.834-4.219 14.953-13.239 14.953-23.663 0-11.922-8.005-22.003-18.92-25.168v-58.347h5.425zm-42.252-24.222c6.414 0 11.633 5.218 11.633 11.632 0 6.415-5.219 11.633-11.633 11.633s-11.633-5.218-11.633-11.633c0-6.413 5.218-11.632 11.633-11.632zm-88.471 156.656h-3.243l-6.165-4.851c-1.271-.877-.915-2.682.648-2.753h26.193c5.572 0 10.105-4.533 10.105-10.106v-15.521h41.802v19.144c0 19.271-3.965 37.975-11.786 55.589l-5.129 11.553-2.8-12.989c-5.006-23.216-25.876-40.066-49.625-40.066zm83.913-19.584v-15.297c0-2.953-1.007-5.67-2.68-7.849 2.282.799 4.732 1.238 7.283 1.238 2.519 0 4.939-.429 7.197-1.209-1.66 2.174-2.658 4.879-2.658 7.819v15.305c-3.032.307-6.11.304-9.142-.007zm-2.935-44.02c0-4.157 3.382-7.538 7.538-7.538 4.157 0 7.539 3.382 7.539 7.538s-3.382 7.538-7.539 7.538c-4.157.001-7.538-3.381-7.538-7.538zm25.001 15.799c-.762 0-1.504.079-2.229.206 4.233-4.031 6.879-9.713 6.879-16.005 0-12.192-9.92-22.112-22.113-22.112s-22.112 9.92-22.112 22.112c0 6.298 2.651 11.985 6.891 16.017-.75-.136-1.518-.218-2.306-.218h-23.831c-1.925-5.027-2.908-10.327-2.908-15.799 0-13.727 6.214-26.453 17.049-34.914 3.172-2.476 3.735-7.056 1.259-10.228-2.477-3.171-7.056-3.736-10.228-1.258-2.992 2.336-5.702 4.93-8.145 7.717v-16.605c0-4.594.685-9.15 2.034-13.542l29.54-96.106h5.425v58.348c-10.915 3.165-18.92 13.246-18.92 25.168 0 12.452 8.732 22.896 20.391 25.549-.892 1.209-1.426 2.699-1.426 4.317 0 4.025 3.263 7.287 7.287 7.287 24.064 0 43.691 19.304 44.241 43.239.143 5.782-.835 11.495-2.883 16.827z"/></g></svg>