<svg id="Capa_1" enable-background="new 0 0 512 512" height="512" viewBox="0 0 512 512" width="512" xmlns="http://www.w3.org/2000/svg"><g><path d="m231.067 133.041c0-4.076-3.304-7.38-7.38-7.38-14.168 0-25.695-11.526-25.695-25.694v-25.408c4.741 2.392 10.047 3.684 15.565 3.684 7.378 0 14.42-2.297 20.364-6.641.774-.564 1.772-.563 2.544-.001 5.944 4.345 12.986 6.642 20.365 6.642 7.378 0 14.42-2.297 20.364-6.642.773-.564 1.771-.562 2.543 0 5.944 4.345 12.986 6.642 20.364 6.642 5.518 0 10.824-1.292 15.565-3.684v25.409c0 14.168-11.526 25.694-25.694 25.694h-31.021c-4.076 0-7.38 3.304-7.38 7.38s3.304 7.38 7.38 7.38h31.021c22.306 0 40.454-18.148 40.454-40.454v-41.729c0-3.283-2.167-6.17-5.319-7.086-3.151-.917-6.529.357-8.29 3.128-3.661 5.763-9.91 9.203-16.716 9.203-4.225 0-8.255-1.314-11.655-3.798-5.971-4.365-13.993-4.365-19.963 0-3.399 2.484-7.429 3.798-11.655 3.798s-8.256-1.314-11.655-3.799c-5.97-4.363-13.992-4.364-19.963.001-3.399 2.484-7.429 3.798-11.655 3.798-6.806 0-13.055-3.44-16.716-9.203-1.76-2.769-5.14-4.045-8.29-3.128-3.152.916-5.319 3.803-5.319 7.086v41.729c0 22.306 18.147 40.454 40.454 40.454 4.079-.001 7.383-3.304 7.383-7.381z"/><path d="m420.064 259.068-7.039-4.144c-9.741-5.736-20.866-8.767-32.173-8.767h-12.964c-2.828-7.341-6.384-14.39-10.608-21.048l12.217-12.217c4.844-4.844 7.511-11.284 7.511-18.134s-2.668-13.291-7.511-18.135c-10-9.998-26.269-9.996-36.268 0l-12.025 12.025c-4.978-3.232-10.187-6.092-15.578-8.547 4.51-8.338 11.177-15.41 19.474-20.256 27.646-16.145 43.241-47.116 39.731-78.9l-3.86-34.956c-2.894-26.218-24.968-45.989-51.346-45.989h-107.251c-26.377 0-48.452 19.771-51.347 45.989l-3.86 34.956c-3.51 31.785 12.085 62.755 39.731 78.9 8.296 4.844 14.961 11.915 19.471 20.251-28.571 12.986-50.931 36.633-62.259 66.06h-6.403c-4.076 0-7.38 3.304-7.38 7.38s3.304 7.38 7.38 7.38h59.96c7.71 0 14.749-2.925 20.07-7.72-3.214 3.859-4.363 8.585-5.298 12.457-.833 3.837-1.634 5.904-3.806 9.19-2.34 3.775-5.253 8.473-5.253 14.394s2.913 10.618 5.254 14.394c2.171 3.286 2.972 5.352 3.805 9.189.935 3.872 2.085 8.6 5.3 12.459-5.321-4.796-12.361-7.722-20.072-7.722h-67.697c-8.006 0-15.965-2.002-23.018-5.79l-7.514-4.036c-.159-.086-.258-.251-.258-.432v-36.126c0-.182.1-.348.258-.433 0 0 8.61-4.61 9.163-4.881 3.662-1.79 5.178-6.21 3.387-9.872s-6.212-5.179-9.872-3.387c-.723.354-9.662 5.137-9.662 5.137-4.956 2.662-8.035 7.81-8.035 13.436v36.126c0 5.627 3.079 10.776 8.035 13.437l7.513 4.035c9.193 4.936 19.567 7.546 30.001 7.546h14.147c5.478 14.191 13.628 27.126 23.822 38.164-11.324 4.026-19.04 13.026-19.04 23.738 0 14.581 14.287 26.003 32.527 26.003 8.433 0 20.588-5.073 31.542-10.742.294 10.443 2.052 20.682 5.237 30.576 1.821 6.064 26.444 64.382 26.444 64.382 1.918 4.593 6.373 7.561 11.35 7.561 4.984.017 9.481-3.032 11.35-7.561 0 0 24.603-58.266 26.444-64.379 3.506-10.89 5.286-22.2 5.286-33.739v-5.194c16.855-6.501 32.207-16.861 44.594-30.14 2.78-2.981 2.618-7.651-.363-10.431-2.98-2.78-7.65-2.618-10.43.362-9.552 10.24-21.109 18.499-33.801 24.22v-22.011c12.809-7.47 23.344-18.026 30.798-30.811h22.013c-.759 1.686-1.546 3.358-2.39 4.996-1.867 3.623-.443 8.074 3.18 9.941 3.548 1.85 8.066.479 9.941-3.18 1.963-3.809 3.729-7.749 5.274-11.757h12.957c11.304 0 22.429-3.032 32.172-8.767l7.042-4.145c4.634-2.729 7.512-7.765 7.512-13.143v-34.05c.003-5.378-2.877-10.414-7.512-13.142zm-68.169-12.912h-15.662l10.318-10.318c1.974 3.341 3.754 6.786 5.344 10.318zm-8.229-59.095c4.052-4.223 11.343-4.223 15.394 0 4.244 4.244 4.244 11.15 0 15.394l-93.343 93.343c-6.407 6.884-18.919 1.7-18.582-7.696 0-2.908 1.132-5.642 3.188-7.697zm-49.807 102.175c0 1.715-1.545 4.207-3.038 6.616-2.646 3.824-4.739 9.012-5.608 13.503-1.179 6.453-2.641 7.915-9.093 9.093-4.492.87-9.678 2.962-13.503 5.609-5.358 3.811-7.874 3.81-13.232 0-3.824-2.646-9.012-4.739-13.502-5.609-6.453-1.178-7.915-2.64-9.094-9.092-.87-4.493-2.962-9.678-5.608-13.504-3.811-5.359-3.81-7.874 0-13.232 2.646-3.824 4.739-9.013 5.609-13.504 1.179-6.452 2.64-7.915 9.092-9.092 4.493-.871 9.679-2.963 13.505-5.61 2.409-1.493 4.9-3.037 6.615-3.037.584 0 1.263.189 1.993.484l-18.106 18.106c-9.999 9.999-9.999 26.269 0 36.268 10 9.999 26.268 9.998 36.268 0l17.64-17.64c.037.223.062.439.062.641zm-13.855 145.488c-1.624 5.555-6.243 15.909-8.471 21.383h-31.066c-2.251-5.531-6.827-15.777-8.472-21.387-1.473-4.737-2.574-9.58-3.294-14.498h54.599c-.721 4.919-1.822 9.764-3.296 14.502zm-24.004 58.59-9.371-22.447h18.743zm-28.32-87.851v-57.895c0-7.711-2.925-14.75-7.722-20.071 3.86 3.215 8.587 4.364 12.46 5.299 3.837.834 5.901 1.634 9.188 3.805 3.775 2.341 8.474 5.254 14.394 5.254s10.619-2.914 14.394-5.254c3.287-2.172 5.351-2.972 9.189-3.805 3.872-.935 8.599-2.084 12.458-5.298-4.796 5.321-7.721 12.36-7.721 20.07v57.895zm82.822-206.112-11.422 11.422v-4.752c0-4.114.465-8.161 1.35-12.075 3.451 1.612 6.812 3.423 10.072 5.405zm-.877-184.591c2.266 0 4.486.209 6.644.601l-1.986 8.012c-1.126 4.542-5.181 7.715-9.861 7.715h-95.185c-4.68 0-8.735-3.173-9.861-7.715l-2.05-8.267c1.652-.226 3.336-.345 5.047-.345h107.252zm-115.283 132.34c-22.616-13.208-35.375-38.539-32.504-64.535l3.86-34.956c1.306-11.83 8.083-21.817 17.645-27.573l1.708 6.888c2.763 11.142 12.709 18.923 24.187 18.923h95.185c11.479 0 21.425-7.782 24.187-18.923l1.483-5.98c8.801 5.866 14.97 15.435 16.209 26.664l3.86 34.956c2.871 25.995-9.888 51.327-32.504 64.535-20.563 12.009-33.337 34.586-33.337 58.921v19.512l-15.42 15.42c-3.503-2.12-7.736-4.336-12.9-4.336-5.92 0-10.618 2.913-14.393 5.253-3.287 2.17-5.354 2.972-9.192 3.806-3.871.934-8.597 2.084-12.456 5.297 4.795-5.321 7.72-12.359 7.72-20.069v-24.884c-.01-8.749-1.634-17.249-4.729-25.151-5.471-14.046-15.438-26.077-28.609-33.768zm17.228 46.848c.885 3.913 1.35 7.96 1.35 12.073v9.337c-12.803 7.461-23.336 17.991-30.8 30.799h-22.026c10.339-23.035 28.588-41.543 51.476-52.209zm-11.518 52.003c3.673-4.726 7.938-8.993 12.663-12.666-1.026 6.502-6.162 11.639-12.663 12.666zm12.669 99.273c-4.769-3.682-9.038-7.945-12.717-12.71 6.536 1.012 11.702 6.175 12.717 12.71zm-30.6-12.908c7.455 12.785 17.992 23.342 30.799 30.811v15.798c-10.262-5.324-18.765-8.674-25.422-10.021-11.611-10.006-21.032-22.499-27.39-36.589h22.013zm-18.462 61.903c0-5.975 8.264-11.217 17.701-11.241 7.029 5.615 14.692 10.458 22.858 14.388-10.167 5.105-18.461 8.097-22.792 8.097-9.464 0-17.767-5.255-17.767-11.244zm135.62-48.995c1.015-6.535 6.181-11.699 12.718-12.71-3.679 4.765-7.948 9.027-12.718 12.71zm113.54-38.963c0 .174-.094.336-.242.425l-7.04 4.144c-7.475 4.4-16.011 6.726-24.684 6.726h-66.521c-7.71 0-14.749 2.925-20.07 7.721 3.215-3.86 4.364-8.587 5.298-12.459.833-3.838 1.634-5.901 3.805-9.187 2.341-3.775 5.254-8.474 5.254-14.395 0-4.63-1.782-8.51-3.678-11.788l16.532-16.532h59.379c8.675 0 17.21 2.326 24.684 6.726l7.04 4.144c.149.088.242.251.242.424v34.051z"/></g></svg>