<svg id="Capa_1" enable-background="new 0 0 512 512" height="512" viewBox="0 0 512 512" width="512" xmlns="http://www.w3.org/2000/svg"><g><circle cx="291.408" cy="224.212" r="7.936"/><circle cx="328.179" cy="224.212" r="7.936"/><circle cx="112.266" cy="224.212" r="7.936"/><path d="m495.01 282.895h-7.714c-2.306-4.832-3.517-10.149-3.517-15.513v-8.447h15.726c6.692 0 12.136-5.444 12.136-12.136v-45.175c0-6.692-5.444-12.136-12.136-12.136h-16.719c-1.788-4.016-5.81-6.827-10.483-6.827h-105.714c-4.672 0-8.694 2.811-10.482 6.827h-91.177c-1.788-4.016-5.81-6.827-10.483-6.827h-46.456l.868-2.292c3.883.956 8.103-.514 10.553-3.785l15.74-21.008c1.484-1.98 2.374-4.331 2.575-6.8l2.123-26.164c.366-4.5-2.328-8.759-6.549-10.359 0 0-.001 0-.002 0l-11.526-4.364c-4.223-1.602-9.062-.195-11.771 3.419l-15.743 21.012c-1.483 1.98-2.372 4.33-2.573 6.796l-2.122 26.164c-.34 4.176 1.957 8.141 5.663 9.969l-13.216 34.901-6.566-2.486c-5.648-2.14-11.984.716-14.123 6.366l-9.501 25.09v-41.894h9.328c4.022 0 7.281-3.26 7.281-7.281s-3.26-7.281-7.281-7.281h-12.415c-4.672 0-8.694 2.811-10.483 6.827h-53.844c-1.845-7.906-8.935-13.82-17.395-13.82h-35.603c-9.857 0-17.877 8.02-17.877 17.878v23.384h-6.25c-4.022-.003-7.282 3.257-7.282 7.279 0 4.021 3.26 7.281 7.281 7.281h6.25v23.384c0 9.857 8.02 17.877 17.877 17.877h35.603c8.46 0 15.55-5.914 17.395-13.82h52.851v2.209c-4.74 6.328-8.919 13.767-12.219 21.802-8.908.516-16.002 7.905-16.002 16.94v31.88c0 4.021 3.26 7.281 7.281 7.281s7.281-3.26 7.281-7.281v-31.88c0-1.338 1.088-2.427 2.427-2.427h151.128c1.339 0 2.427 1.089 2.427 2.427v71.555c0 10.347-8.418 18.765-18.765 18.765h-14.312c1.179-2.812 1.837-5.896 1.837-9.132v-44.562c0-6.692-5.444-12.136-12.136-12.136h-69.232c-6.692 0-12.136 5.444-12.136 12.136v44.562c0 3.236.657 6.319 1.837 9.132h-14.311c-10.347 0-18.765-8.418-18.765-18.765v-4.603c0-4.021-3.26-7.281-7.281-7.281s-7.281 3.26-7.281 7.281v4.603c0 18.377 14.951 33.328 33.328 33.328h118.453c18.377 0 33.328-14.951 33.328-33.328v-71.555c0-9.368-7.622-16.99-16.99-16.99h-7.714c-2.307-4.831-3.518-10.149-3.518-15.513v-8.447h77.834c-2.298 6.316-3.555 13.127-3.555 20.228 0 1.369.052 2.742.145 4.108-7.677 1.632-13.456 8.459-13.456 16.615v71.555c0 18.377 14.951 33.328 33.328 33.328h118.453c18.377 0 33.328-14.951 33.328-33.328v-71.555c.001-9.369-7.621-16.991-16.989-16.991zm-325.608 98.178v-42.135h64.378v42.135c0 5.035-4.097 9.132-9.132 9.132h-46.114c-5.035 0-9.132-4.096-9.132-9.132zm327.676-136.701h-13.299v-40.321h13.299zm-27.862-47.148v70.158c0 5.275.842 10.515 2.453 15.513h-12.944c.078-1.244.117-2.491.117-3.733 0-32.709-26.61-59.32-59.32-59.32-10.877 0-21.071 2.956-29.845 8.087v-30.706h99.539zm-82.936 85.671c-.34-1.207-.522-2.459-.522-3.733 0-7.589 6.174-13.763 13.764-13.763 7.589 0 13.763 6.174 13.763 13.763 0 1.274-.182 2.525-.521 3.733zm13.242-32.058c-15.619 0-28.326 12.707-28.326 28.326 0 1.255.101 2.499.264 3.733h-16.522c-.102-1.239-.173-2.485-.173-3.733 0-24.679 20.078-44.757 44.757-44.757s44.757 20.078 44.757 44.757c0 1.244-.071 2.491-.173 3.733h-16.522c.163-1.234.263-2.478.263-3.733.001-15.619-12.706-28.326-28.325-28.326zm-193.355-110.125 13.519-18.043 5.383 2.038-1.823 22.471-13.518 18.043-5.383-2.039zm-43.15 109.96 10.645-28.113 20.002 7.574-10.646 28.113c-1.755 4.635-2.455 9.538-2.078 14.569.235 3.167.171 6.549-.161 10.079h-39.767c3.871-7.916 8.67-14.822 13.91-19.929 3.618-3.522 6.341-7.658 8.095-12.293zm-134.923-57.126c0-1.828 1.487-3.315 3.315-3.315h30.287c-4.656 1.698-7.996 6.157-7.996 11.393v15.306h-25.606zm0 61.331v-23.384h25.606v15.306c0 5.236 3.34 9.695 7.996 11.393h-30.287c-1.828 0-3.315-1.487-3.315-3.315zm40.169-10.505v-12.879h9.344c4.022 0 7.281-3.26 7.281-7.281s-3.26-7.281-7.281-7.281h-9.344v-12.879h68.995v40.321h-68.995zm127.144 38.523c.3-3.862.321-7.598.056-11.162-.217-2.897.178-5.7 1.174-8.33l11.925-31.49c2.137-5.649-.72-11.984-6.367-14.122l-6.566-2.486 6.847-18.082h48.884v70.158c0 5.275.842 10.515 2.454 15.513h-58.407zm70.516-38.523v-40.321h89.191v35.843c-1.269 1.433-2.468 2.927-3.595 4.478zm231.514 127.068c0 10.347-8.418 18.765-18.765 18.765h-14.314c1.18-2.813 1.839-5.896 1.839-9.132v-44.562c0-6.692-5.444-12.136-12.136-12.136h-12.006c-4.022 0-7.281 3.26-7.281 7.281s3.26 7.281 7.281 7.281h9.579v42.135c0 5.035-4.096 9.132-9.131 9.132h-46.115c-5.035 0-9.131-4.096-9.131-9.132v-42.135h18.803c4.022 0 7.281-3.26 7.281-7.281s-3.26-7.281-7.281-7.281h-21.23c-6.692 0-12.136 5.444-12.136 12.136v44.562c0 3.236.659 6.319 1.839 9.132h-14.313c-10.347 0-18.765-8.418-18.765-18.765v-71.555c0-1.338 1.088-2.427 2.427-2.427h151.128c1.339 0 2.427 1.089 2.427 2.427z"/></g></svg>