<svg id="Capa_1" enable-background="new 0 0 512 512" height="512" viewBox="0 0 512 512" width="512" xmlns="http://www.w3.org/2000/svg"><g><path d="m256.941 85.159c9.321 0 18.364-3.861 24.809-10.592 8.422-8.794 13.061-20.344 13.061-32.523v-4.45c0-5.082-4.134-9.216-9.215-9.216h-59.185c-5.081 0-9.215 4.134-9.215 9.215v4.451c0 12.176 4.639 23.726 13.061 32.521 6.877 7.236 16.745 11.01 26.684 10.594zm-25.264-42.31h48.654c-.198 8.133-3.388 15.815-9.032 21.709-7.841 8.303-22.748 8.304-30.589-.001-5.645-5.894-8.835-13.575-9.033-21.708z"/><path d="m337.587 407.582-4.306-25.646c-3.391-20.188-3.247-40.635.429-60.776.91-3.486.591-7.32-1.853-10.121-1.93-2.314-4.765-3.641-7.779-3.641h-37.947c-3.231 0-5.86-2.628-5.86-5.86v-104.463c0-3.996-3.239-7.235-7.235-7.235s-7.235 3.239-7.235 7.235v72.824h-19.589v-129.569h19.589v24.067c0 3.996 3.239 7.235 7.235 7.235s7.235-3.239 7.235-7.235v-28.499c.78-1.156 1.334-2.486 1.584-3.939l1.59-9.281c1.21-7.052 4.465-13.511 9.414-18.678 18.912-17.029 32.127-40.35 30.333-66.407-.002-20.729-16.866-37.593-37.595-37.593h-59.185c-20.729 0-37.594 16.865-37.594 37.594-1.796 26.055 11.425 49.382 30.333 66.406 4.949 5.167 8.204 11.627 9.412 18.678l1.591 9.28c.249 1.454.804 2.784 1.584 3.94v165.64c0 3.231-2.628 5.86-5.86 5.86-.372 0-38.649 0-38.649 0-3.052 0-5.912 1.356-7.843 3.719-1.931 2.365-2.691 5.436-2.082 8.429 4.327 21.26 4.699 42.888 1.107 64.283l-3.989 23.753c-3.779 22.503 4.058 45.081 20.962 60.397 2.952 2.677 7.531 2.465 10.22-.503 2.683-2.962 2.458-7.537-.503-10.22-13.232-11.988-19.366-29.662-16.408-47.277l3.989-23.753c3.595-21.409 3.521-43.032-.212-64.358h28.07l21.753 70.472c1.867 6.051 7.377 10.117 13.711 10.117h.001c6.333 0 11.843-4.065 13.712-10.117l21.752-70.472h27.431c-3.41 20.726-3.375 41.721.109 62.464l4.306 25.646c3.179 18.929-4.258 38.01-19.408 49.795l-47.904 37.268-26.567-20.669c-3.154-2.451-7.7-1.886-10.154 1.268-2.453 3.154-1.886 7.7 1.268 10.154l27.681 21.535c2.288 1.78 5.03 2.67 7.771 2.67 2.742 0 5.485-.89 7.773-2.67l49.016-38.134c19.356-15.056 28.856-39.431 24.796-63.613zm-107.984-313.591-9.389-9.805c-10.914-11.396-16.925-26.362-16.925-42.141-1.697-14.162 8.35-27.693 23.123-27.574h59.185c14.776-.117 24.818 13.412 23.122 27.574 0 15.779-6.011 30.745-16.925 42.142l-9.389 9.805c-6.952 7.261-11.525 16.334-13.224 26.242l-.964 5.626h-24.426l-.964-5.625c-1.699-9.909-6.271-18.983-13.224-26.244zm26.399 293.701-20.988-67.994c6.634-3.351 11.195-10.233 11.195-18.16v-17.168h19.589v17.167c0 7.927 4.56 14.809 11.195 18.16z"/><circle cx="256.004" cy="104.213" r="6.715"/></g></svg>