<svg id="Capa_1" enable-background="new 0 0 512 512" height="512" viewBox="0 0 512 512" width="512" xmlns="http://www.w3.org/2000/svg"><g><path d="m510.868 292.619c-2.261-7.998-6.684-15.19-12.807-20.817-4.481-4.028-5.625-10.344-3.767-15.947 1.45-5.877 3.251-13.176 1.003-20.117l-3.791-13.841c-1.865-7.997-7.746-13.287-12.604-18.337-3.587-3.742-4.884-9.148-3.388-14.109 2.404-7.962 2.521-16.396.418-24.437-1.315-5.03-3.628-8.905-7.636-11.476-3.983-2.555-8.68-3.256-13.177-1.989l-20.28 5.552c-3.868 1.059-6.145 5.054-5.086 8.922 1.059 3.869 5.051 6.145 8.922 5.087l20.334-5.568c1.579-.535 2.357 1.34 2.819 2.948 1.574 5.486 1.432 11.302-.217 16.766-3.008 9.97-.4 20.835 6.813 28.361 3.324 3.502 8.317 7.938 9.026 11.934l3.889 14.202c1.421 3.82-.618 10.172-1.692 14.876-2.372 10.141.919 20.819 8.587 27.867 4.202 3.862 7.327 8.784 8.727 14.317.428 1.693.714 3.656-.978 3.987l-36.868 10.094c-5.342 1.462-10.778-1.547-12.379-6.85-1.747-5.359 1.755-11.512 7.247-12.765 4.294-1.176 7.777-4.371 9.317-8.549 1.539-4.178.963-8.869-1.541-12.551l-13.915-20.455s0 0-.001 0c-3.259-4.791-4.989-10.388-5.001-16.185l-.049-23.786c-.009-4.307-1.97-8.285-5.381-10.915-3.412-2.631-7.759-3.515-11.927-2.426l-46.723 12.196c-7.343 1.918-12.468 8.557-12.464 16.146l.012 17.174c-4.762 1.41-9.981.844-13.881-2.39-3.38-2.717-5.319-6.762-5.319-11.099v-32.259l62.093-17c3.868-1.059 6.145-5.054 5.086-8.922-1.059-3.87-5.057-6.144-8.922-5.087l-101.821 27.877c-5.158 1.412-9.304 4.942-11.623 9.486l-190.329 52.11c-3.868 1.059-6.145 5.054-5.086 8.922 1.046 3.902 5.158 6.149 8.921 5.087l184.494-50.512.334 68.829c.026 5.272 2.304 10.301 6.249 13.796 0 0 46.368 41.055 46.627 41.261-2.583-.594-5.282-.39-7.784.641l-9.073 3.737-9.07-3.736c-3.171-1.308-6.664-1.307-9.836 0l-9.069 3.737-9.071-3.737c-3.171-1.305-6.663-1.307-9.833 0l-9.072 3.737-9.068-3.736c-3.169-1.306-6.663-1.308-9.837 0l-9.067 3.736-9.066-3.736c-3.173-1.307-6.664-1.307-9.836 0l-9.068 3.736-9.067-3.736c-3.171-1.307-6.664-1.307-9.838.001l-9.061 3.735-9.066-3.735c-3.171-1.306-6.663-1.308-9.838 0l-9.067 3.736-9.067-3.735c-3.169-1.306-6.663-1.308-9.837 0l-9.067 3.736-9.066-3.735c-3.173-1.308-6.665-1.307-9.837 0l-9.068 3.736-9.068-3.736c-3.171-1.307-6.664-1.307-9.836 0l-9.066 3.735-9.067-3.736c-3.173-1.307-6.666-1.307-9.836 0l-9.066 3.736-9.066-3.735c-3.171-1.308-6.664-1.307-9.836 0l-9.067 3.736-4.073-1.678v-50.98c0-.121.081-.227.198-.259l60.486-16.56c3.868-1.059 6.145-5.054 5.086-8.922-1.058-3.868-5.048-6.144-8.921-5.087l-60.486 16.56c-6.41 1.75-10.886 7.617-10.886 14.263v52.061c0 5.25 3.136 9.935 7.991 11.935l5.687 2.344c3.171 1.307 6.664 1.308 9.837 0l9.067-3.736 9.065 3.736c3.171 1.307 6.664 1.308 9.837 0l9.066-3.736 9.067 3.736c3.169 1.306 6.663 1.307 9.837 0l9.065-3.736 9.066 3.736c3.171 1.307 6.664 1.307 9.838.001l9.068-3.736 9.066 3.736c3.172 1.307 6.667 1.308 9.838 0l9.067-3.736 9.064 3.735c3.173 1.31 6.668 1.309 9.84.001l9.067-3.736 9.068 3.736c3.171 1.307 6.665 1.306 9.837 0l9.062-3.736 9.064 3.736c3.171 1.307 6.664 1.308 9.838.001l9.068-3.736 9.065 3.736c3.172 1.307 6.667 1.308 9.838 0l9.067-3.736 9.068 3.736c3.171 1.307 6.665 1.307 9.835 0l9.072-3.737 9.068 3.736c3.17 1.307 6.663 1.307 9.837 0l9.069-3.737 9.071 3.737c3.171 1.305 6.663 1.307 9.834 0l9.073-3.737 8.199 3.378c4.587 1.89 9.795.819 13.264-2.729l10.684-10.928h8.32c3.251 0 6.489-.435 9.623-1.294l109.407-29.955c4.568-1.213 8.254-4.209 10.38-8.437 2.138-4.255 2.496-7.969.724-13.766zm-128.439-69.959 45.84-11.965.047 22.874c.018 8.713 2.618 17.124 7.517 24.325l13.359 19.637-44.163 12.091c-.837.229-1.725-.063-2.26-.747l-15.783-20.144c-4.773-5.917-6.558-13.596-6.15-21.087l-.017-22.9c0-.98.662-1.837 1.61-2.084zm4.092 108.109c-1.885.516-3.833.778-5.788.778h-26.066c-.986 0-1.937-.361-2.675-1.015l-45.853-40.636c-.858-.76-1.353-1.853-1.359-2.998l-.369-75.931c-.008-1.821 1.212-3.429 2.968-3.909l25.204-6.901v28.282c0 8.76 3.917 16.932 10.745 22.42 6.609 5.324 15.163 7.426 23.382 5.829 1.032 7.62 4.079 14.92 8.843 21l15.783 20.144c4.154 5.331 11.14 7.57 17.529 5.798l23.198-6.351c-.572 3.615-.324 7.343.767 10.96.981 3.251 2.562 6.141 4.575 8.598z"/><path d="m240.326 273.209c-3.868 1.059-6.145 5.054-5.086 8.922 1.059 3.869 5.051 6.145 8.921 5.087l16.499-4.517c6.149-1.684 10.444-7.313 10.444-13.688v-20.141c.176-6.312-6.424-11.349-12.465-9.511l-77.324 21.17c-6.15 1.684-10.445 7.313-10.445 13.688v20.14c-.188 6.313 6.453 11.352 12.465 9.511l31.355-8.585c3.868-1.059 6.145-5.054 5.086-8.922-1.059-3.87-5.058-6.143-8.921-5.087l-25.461 6.971v-13.775l71.186-19.49v13.776z"/><circle cx="339.847" cy="281.087" r="9.471"/><ellipse cx="45.318" cy="309.922" rx="8.596" ry="8.596" transform="matrix(.987 -.16 .16 .987 -49.059 11.261)"/></g></svg>