<svg id="Capa_1" enable-background="new 0 0 512 512" height="512" viewBox="0 0 512 512" width="512" xmlns="http://www.w3.org/2000/svg"><g><path d="m470.219 499.503-9.509-46.194c-.87-4.455-4.555-8.089-9.016-8.892l-17.561-85.307c-.82-3.98-4.708-6.542-8.691-5.724-3.98.82-6.543 4.71-5.724 8.691l17.752 86.239-31.863 13.461-9.261-44.99h8.833c5.705.144 10.397-5.574 9.141-11.141l-5.929-29.772c-.958-4.802-5.207-8.288-10.103-8.288h-12.069l-12.86-62.474h7.279c5.705.144 10.396-5.572 9.141-11.139v-.001l-5.929-29.77c-.956-4.804-5.205-8.29-10.103-8.29h-10.517l-12.789-62.13h8.164c5.706.144 10.397-5.574 9.141-11.141l-5.929-29.771c-.958-4.802-5.207-8.288-10.103-8.288h-11.402l-7.504-36.454h34.634l45.653 221.772c.802 4.006 4.811 6.554 8.691 5.723 3.98-.819 6.543-4.71 5.724-8.69l-61.928-300.835c-3.113-15.122-16.579-26.098-32.019-26.098h-21.878c-4.064 0-7.358 3.294-7.358 7.358s3.294 7.358 7.358 7.358h21.878c8.489 0 15.893 6.035 17.605 14.35l13.246 64.346h-34.634l-7.674-37.278c-.892-4.342-4.758-7.495-9.192-7.495h-101.897c-5.769-.147-10.499 5.656-9.192 11.277l6.895 33.496h-34.634l-4.647-22.575c13.815-1.742 24.538-13.557 24.538-27.837 0-12.841-8.672-23.688-20.464-27.011 2.17-.819 4.522-1.273 6.952-1.273h95.701c4.064 0 7.358-3.294 7.358-7.358s-3.294-7.358-7.358-7.358h-95.701c-9.333 0-18.205 3.753-24.342 10.296-2.647 2.863-4.868 6.108-6.285 9.719-7.243 5.08-11.99 13.486-11.99 22.985 0 4.853 1.239 9.422 3.416 13.408l-22.537 109.48c-.819 3.98 1.743 7.871 5.724 8.691 3.88.829 7.889-1.717 8.691-5.724l12.501-60.729h16.45l9.096 44.188c-.011.051-.028.098-.039.15l-63.76 309.735-31.863-13.461 51.034-247.917c.819-3.98-1.743-7.871-5.724-8.691-3.98-.82-7.871 1.743-8.691 5.724l-50.723 246.405c-4.898.375-9.206 4.211-10.133 9.05l-9.509 46.195c-1.447 6.228 3.794 12.656 10.185 12.493h56.987c5.868 0 10.986-4.172 12.17-9.919l4.566-22.181c.921-4.471-.946-8.987-4.535-11.567l10.61-51.543h91.15l-5.701 27.693c-4.338.903-7.859 4.477-8.714 8.828l-9.508 46.193c-1.449 6.228 3.792 12.658 10.184 12.495h95.176c6.392.163 11.633-6.267 10.184-12.494l-9.509-46.194c-.871-4.458-4.56-8.094-9.025-8.894l-5.687-27.628h91.009l10.483 50.925c-4.209 2.424-6.492 7.331-5.493 12.184l4.566 22.181c1.183 5.748 6.301 9.92 12.17 9.92h56.987c6.391.164 11.63-6.265 10.183-12.493zm-321.548-406.091 5.163-25.082c.024.011.048.021.072.032l5.156 25.049h-10.391zm3.891-50.412c0-7.361 5.988-13.349 13.349-13.349s13.349 5.988 13.349 13.349-5.988 13.349-13.349 13.349c-7.36.001-13.349-5.988-13.349-13.349zm-45.477 454.281h-49.822l7.629-37.06 45.835 19.364zm263.041-226.653 3.937 19.769h-109.751l-4.069-19.769zm-3.921 72.722 4.989 24.237h-73.47l4.989-24.237zm-60.462-14.716 4.842-23.521h47.749l4.842 23.521zm-10.183-23.522-12.86 62.474h-2.515l-12.86-62.474zm-38.939-51.993-12.215-59.337h24.412zm14.202 2.793 13.021-62.13h34.634l-12.789 62.13zm49.89 0 12.789-62.13h1.914l12.789 62.13zm27.38-96.614 3.937 19.768h-110.636l-4.069-19.768zm-38.463-90.786 5.125 24.899h-10.251zm8.155 39.616 7.504 36.454h-31.318l7.504-36.454zm-22.118-44.773-16.721 81.226h-44.667l-16.721-81.226zm-117.998 130.427h2.054l12.79 62.13h-27.633zm-15.819 76.846h33.692l4.069 19.769h-41.831zm-7.099 34.484h47.889l4.84 23.512h-57.569zm-7.869 38.228h63.628l4.991 24.247h-73.61zm-12.09 58.731 4.069-19.768h79.669l4.069 19.768zm42.324-293.943h34.634l70.029 340.192-31.863 13.461zm53.511 371.768 3.579 17.385h-19.735l7.629-37.06 13.658 5.77.355 1.726c-4.205 2.426-6.485 7.329-5.486 12.179zm60.796-19.675 7.629 37.06h-49.822l-3.643-17.696zm-4.14-58.15-4.069-19.768h111.453l3.937 19.768zm117.632 95.21-3.642-17.697 45.835-19.363 7.629 37.06z"/><ellipse cx="116.58" cy="335.992" rx="7.575" ry="7.575" transform="matrix(.383 -.924 .924 .383 -238.449 315.119)"/><ellipse cx="240.426" cy="335.992" rx="7.575" ry="7.575" transform="matrix(.707 -.707 .707 .707 -167.163 268.417)"/></g></svg>