<svg id="Capa_1" enable-background="new 0 0 512 512" height="512" viewBox="0 0 512 512" width="512" xmlns="http://www.w3.org/2000/svg"><g><path d="m385.88 133.894c-4.079 0-7.386 3.307-7.386 7.386v19.312c0 3.334-.932 6.59-2.696 9.419l-91.063 91.168c.718-2.56 1.11-5.254 1.11-8.04 0-12.255-7.43-22.804-18.021-27.389l113.054-113.054c1.316 1.215 3.07 1.963 5.002 1.963 4.079 0 7.386-3.307 7.386-7.386 0-8.164-3.107-15.911-8.749-21.812l-30.127-31.512c-4.328-4.527-10.121-7.429-16.282-8.256v-38.307c0-4.079-3.307-7.386-7.386-7.386s-7.386 3.307-7.386 7.386v38.056h-15.076v-38.056c0-4.079-3.307-7.386-7.386-7.386s-7.386 3.307-7.386 7.386v38.056h-74.952v-38.056c0-4.079-3.307-7.386-7.386-7.386s-7.386 3.307-7.386 7.386v38.056h-15.077v-38.056c0-4.079-3.307-7.386-7.386-7.386s-7.386 3.307-7.386 7.386v38.307c-6.161.827-11.954 3.729-16.282 8.256l-30.123 31.51c-5.642 5.901-8.749 13.648-8.749 21.812v51.432c-.25 6.717 1.328 13.418 4.933 19.121l83.208 133.444c4.741 7.602 12.827 12.213 21.74 12.466l-.11 28.201c-.067 17.274 6.899 34.187 19.114 46.401l12.359 12.359c6.844 6.844 6.844 17.981 0 24.825-6.534 6.81-18.291 6.809-24.825 0l-29.791-29.791c-8.362-8.945-24.69-3.721-26.289 8.421-.903 5.444-1.27 11.027-1.092 16.593.693 21.658 9.665 42.004 25.262 57.289 31.41 32.023 86.75 31.938 117.996-.155 16.138-15.938 25.025-37.205 25.025-59.884l-.001-.328c-.041-10.872-3.003-21.662-8.564-31.206-2.054-3.524-6.575-4.715-10.1-2.662-3.524 2.054-4.716 6.575-2.662 10.1 4.257 7.305 6.524 15.543 6.555 23.832l.001.264c0 18.699-7.328 36.233-20.633 49.375-13.304 13.138-30.931 20.253-49.647 20.012-37.204-.464-67.279-29.942-68.469-67.11-.148-4.601.155-9.211.901-13.702-.109-.498 1.094-.843 1.273-.394l29.791 29.791c6.105 6.105 14.222 9.468 22.857 9.468 8.634 0 16.752-3.362 22.857-9.468 12.603-12.603 12.603-33.11 0-45.714l-12.359-12.359c-9.45-9.45-14.84-22.535-14.788-35.899l.111-28.234h24.481l.02 7.525c.023 8.411 3.302 16.326 9.235 22.286l28.332 28.467c2.878 2.892 7.554 2.902 10.445.025s2.902-7.554.025-10.445l-28.332-28.467c-3.169-3.185-4.921-7.413-4.933-11.906l-.02-7.487c9.198-.017 17.592-4.682 22.461-12.489l83.207-133.443c3.227-5.175 4.933-11.135 4.933-17.234v-19.312c-.003-4.078-3.309-7.385-7.388-7.385zm-129.867 134.304c-8.305 0-15.061-6.756-15.061-15.061s6.756-15.061 15.061-15.061 15.061 6.756 15.061 15.061-6.756 15.061-15.061 15.061zm119.26-170.788-126.887 126.887c-10.331 2.734-18.48 10.883-21.214 21.214l-27.02 27.02-15.99-25.644 22.874-22.874c2.884-2.884 2.884-7.561 0-10.445-2.884-2.885-7.56-2.885-10.445 0l-20.451 20.452-20.102-32.238 73.257-73.257c4.889 9.818 15.026 16.582 26.718 16.582 3.979 0 7.775-.789 11.249-2.209l-48.371 48.371c-2.884 2.884-2.884 7.561 0 10.445s7.561 2.884 10.445 0l125.707-125.708s19.79 20.799 20.23 21.404zm-119.26 2.804c8.305 0 15.061 6.756 15.061 15.061s-6.756 15.061-15.061 15.061-15.061-6.756-15.061-15.061 6.756-15.061 15.061-15.061zm88.82-34.887-61.197 61.197c1.42-3.474 2.209-7.27 2.209-11.249 0-11.692-6.764-21.829-16.582-26.718l28.345-28.344h36.88c4.067-.057 7.777 2.047 10.345 5.114zm-206.647 30.34 30.126-31.511c2.396-2.506 5.758-3.943 9.226-3.943h36.657l-40.057 40.057c-1.741-1.707-4.123-2.762-6.753-2.762-5.33 0-9.651 4.321-9.651 9.651 0 2.631 1.055 5.012 2.762 6.753l-26.964 26.964v-33.605c-.001-4.343 1.653-8.464 4.654-11.604zm-4.615 66.059 101.513-101.513h41.634l-25.647 25.646c-12.497 2.093-22.381 11.977-24.474 24.474l-55.623 55.624c-1.11-.446-2.32-.697-3.59-.697-5.33 0-9.651 4.321-9.651 9.651 0 1.27.252 2.479.697 3.59l-10.414 10.414-11.789-18.906c-1.562-2.506-2.469-5.349-2.656-8.283zm85.864 141.727-11.259-18.056 20.448-20.448c4.585 10.59 15.133 18.021 27.389 18.021 2.786 0 5.48-.392 8.04-1.11l-27.129 27.129h-7.513c-4.086 0-7.815-2.07-9.976-5.536zm73.156 0c-2.162 3.466-5.891 5.536-9.976 5.536h-24.802l83.213-83.213z"/><ellipse cx="344.641" cy="174.911" rx="9.651" ry="9.651" transform="matrix(.707 -.707 .707 .707 -22.738 294.929)"/><ellipse cx="344.641" cy="107.159" rx="9.651" ry="9.651" transform="matrix(.973 -.23 .23 .973 -15.401 82.049)"/></g></svg>