<svg id="Capa_1" enable-background="new 0 0 512 512" height="512" viewBox="0 0 512 512" width="512" xmlns="http://www.w3.org/2000/svg"><g><path d="m499.786 387.073h-1.852v-163.008c0-9.824-4.847-18.987-12.964-24.506l-139.416-94.899c-3.345-2.276-7.904-1.41-10.182 1.935-2.277 3.345-1.411 7.904 1.935 10.181l139.419 94.901c4.103 2.789 6.552 7.42 6.552 12.387v193.219h-24.428v-183.314c0-3.075-1.518-5.945-4.059-7.674l-193.62-131.794c-3.173-2.157-7.271-2.156-10.444.002l-193.616 131.791c-2.542 1.73-4.061 4.599-4.061 7.675v183.315h-24.427v-193.219c0-4.968 2.452-9.6 6.561-12.394l212.333-144.533c5.123-3.487 11.744-3.487 16.869.002l44.682 30.414c3.346 2.278 7.904 1.411 10.182-1.935 2.277-3.345 1.411-7.904-1.935-10.181l-44.682-30.414c-10.135-6.899-23.231-6.9-33.364-.001l-212.33 144.53c-8.124 5.525-12.973 14.688-12.973 24.512v163.008h-1.752c-6.735 0-12.214 5.479-12.214 12.213v50.651c0 6.735 5.479 12.214 12.214 12.214h113.16c4.047 0 7.328-3.281 7.328-7.328 0-4.048-3.281-7.328-7.328-7.328h-110.718v-23.758c1.665 4.768 6.195 8.203 11.523 8.203h29.313c6.735 0 12.214-5.479 12.214-12.214v-17.997h376.487v17.997c0 6.735 5.479 12.214 12.214 12.214h29.313c5.462 0 10.096-3.604 11.654-8.558l-.031 24.113h-336.775c-4.047 0-7.328 3.281-7.328 7.328 0 4.048 3.281 7.328 7.328 7.328h339.218c6.735 0 12.214-5.479 12.214-12.214v-50.651c0-6.734-5.479-12.213-12.214-12.213zm-115.95-191.346h-28.368l14.184-9.655zm-27.208-18.52-27.207 18.52h-43.411l48.913-33.295zm-73.808-50.239 39.079 26.6-39.079 26.601zm-39.084-9.977 12.214-8.314 12.214 8.314v78.736h-24.427v-78.736zm-14.656 9.977v52.467l-38.54-26.234zm-51.564 35.098 49.451 33.661h-43.411l-27.746-18.886zm-34.729 23.64 14.722 10.021h-29.445zm-75.08 63.762h44.938l-44.938 30.588zm0 48.318 70.912-48.318h43.484l-114.396 77.867zm89.22 89.287h-89.22v-41.933h89.22zm0-56.589h-67.799l35.887-24.427h31.912zm0-39.084h-10.38l10.38-7.065zm39.083 95.673h-24.427v-112.715l24.427-16.627zm106.3 0h-91.643v-41.933h91.643zm0-56.589h-91.643v-24.427h91.643zm0-39.084h-91.643v-41.932h6.982c4.047 0 7.328-3.281 7.328-7.328s-3.281-7.328-7.328-7.328h-147.004l35.887-24.427h298.837l35.887 24.427h-189.064c-4.047 0-7.328 3.281-7.328 7.328s3.281 7.328 7.328 7.328h50.118zm39.084 95.673h-24.427v-129.342l24.427 16.627zm102.8 0h-88.143v-41.933h88.143zm-56.232-81.017 35.887 24.427h-67.798v-24.427zm-31.911-14.656v-7.065l10.379 7.065zm88.143 35.202-113.32-77.135h43.411l69.909 47.585zm0-47.279-43.861-29.855h43.861z"/></g></svg>