<svg id="Capa_1" enable-background="new 0 0 512 512" height="512" viewBox="0 0 512 512" width="512" xmlns="http://www.w3.org/2000/svg"><g><path d="m167.658 104.605h40.318c4.062 0 7.355-3.292 7.355-7.355 0-4.062-3.292-7.355-7.355-7.355h-40.318c-4.062 0-7.355 3.292-7.355 7.355 0 4.062 3.293 7.355 7.355 7.355z"/><path d="m207.976 119.799h-40.318c-4.062 0-7.355 3.292-7.355 7.355 0 4.062 3.292 7.355 7.355 7.355h40.318c4.062 0 7.355-3.292 7.355-7.355s-3.292-7.355-7.355-7.355z"/><path d="m207.976 149.703h-40.318c-4.062 0-7.355 3.292-7.355 7.355s3.292 7.355 7.355 7.355h40.318c4.062 0 7.355-3.292 7.355-7.355s-3.292-7.355-7.355-7.355z"/><path d="m475.226 36.957h-211.864c-15.952 0-29.558 10.212-34.64 24.44h-108.946c-6.145 0-12.162 2.126-16.943 5.987l-12.31 9.941c-4.227 3.414-6.991 8.175-7.885 13.427h-9.918c-9.463 0-17.161 7.699-17.161 17.161v11.884h-48.204c-4.062 0-7.355 3.292-7.355 7.355 0 4.062 3.292 7.355 7.355 7.355h48.205v11.884c0 9.463 7.699 17.161 17.161 17.161h9.918c.893 5.252 3.658 10.013 7.886 13.428l12.309 9.94c4.781 3.861 10.798 5.987 16.943 5.987h108.946c2.878 8.06 8.489 14.83 15.717 19.185v18.538c0 7.3 5.938 13.239 13.239 13.239h7.95c3.395 10.146 3.001 21.347-1.207 31.24-1.541 3.622-1.165 7.744 1.006 11.026 2.17 3.283 5.816 5.243 9.752 5.243h23.499c.843 6.493 6.396 11.528 13.115 11.528 5.936 0 11.275 3.88 12.984 9.437 4.007 13.03 9.914 25.412 17.557 36.803l15.383 22.926c5.063 7.271 6.688 16.153 6.254 24.884h-36.043c-16.127 0-31.433 7.776-40.943 20.801l-24.182 33.121c-3.392 4.647-3.88 10.719-1.275 15.848s7.799 8.315 13.552 8.315h111.597c4.062 0 7.355-3.292 7.355-7.355 0-4.062-3.292-7.355-7.355-7.355h-111.598c-.134 0-.301 0-.438-.269-.136-.268-.038-.402.041-.51l24.182-33.121c6.75-9.246 17.614-14.766 29.062-14.766h135.987c6.759 0 12.258 5.499 12.258 12.258v33.957c0 1.352-1.099 2.452-2.452 2.452h-53.395c-4.062 0-7.355 3.292-7.355 7.355 0 4.062 3.292 7.355 7.355 7.355h53.395c9.463 0 17.161-7.699 17.161-17.161v-33.957c0-13.847-10.493-25.285-23.944-26.794.155-10.159-.491-20.448-2.423-30.43-.752-3.992-4.594-6.622-8.59-5.865-3.991.753-6.617 4.599-5.865 8.59 1.751 9.024 2.311 18.346 2.168 27.531h-73.547c.531-11.677-2.082-23.368-8.749-33.079l-15.383-22.926c-6.841-10.196-12.128-21.275-15.711-32.931-3.503-11.389-13.671-19.189-25.573-19.786v-45.835c0-7.3-5.938-13.239-13.239-13.239h-40.876v-12.059c1.384.159 2.788.249 4.214.249h143.511v53.879c0 10.274 3.025 20.213 8.75 28.744l15.381 22.925c3.85 5.737 7.244 11.834 10.089 18.121 1.678 3.739 6.119 5.329 9.733 3.669 3.701-1.675 5.344-6.032 3.669-9.733-3.18-7.027-6.974-13.841-11.274-20.252l-15.383-22.925c-4.091-6.098-6.254-13.204-6.254-20.548v-53.88h53.644c20.277 0 36.774-16.497 36.774-36.774v-106.845c-.003-20.277-16.5-36.774-36.777-36.774zm-176.672 239.713h-19.002c3.558-10.57 4.005-22.004 1.37-32.8h17.632zm-228.284-130.278v-38.478c0-1.352 1.099-2.452 2.452-2.452h9.602v43.381h-9.602c-1.353.001-2.452-1.099-2.452-2.451zm41.805 29.086-12.308-9.939c-1.737-1.404-2.734-3.49-2.734-5.722v-65.326c0-2.233.997-4.319 2.733-5.722l12.309-9.94c2.174-1.755 4.908-2.722 7.701-2.722h15.265v102.092h-15.265c-2.793 0-5.527-.966-7.701-2.721zm37.676-99.371h76.837v102.092h-76.837zm325.475 126.534h-161.963v-33.195c0-4.062-3.292-7.355-7.355-7.355s-7.355 3.292-7.355 7.355v33.195h-.42-34.771c-12.166 0-22.064-9.898-22.064-22.064v-106.846c0-12.166 9.898-22.064 22.064-22.064h34.771.42v84.008c0 4.062 3.292 7.355 7.355 7.355s7.355-3.292 7.355-7.355v-84.008h161.963c12.166 0 22.064 9.898 22.064 22.064v16.164h-14.005c-4.062 0-7.355 3.292-7.355 7.355 0 4.062 3.292 7.355 7.355 7.355h14.005v15.194h-14.005c-4.062 0-7.355 3.292-7.355 7.355 0 4.062 3.292 7.355 7.355 7.355h14.005v15.194h-14.005c-4.062 0-7.355 3.292-7.355 7.355s3.292 7.355 7.355 7.355h14.005v16.164c0 12.165-9.898 22.064-22.064 22.064z"/><path d="m377.883 73.439h-27.459c-12.268 0-22.248 9.981-22.248 22.248s9.981 22.248 22.248 22.248h27.459c12.268 0 22.248-9.981 22.248-22.248s-9.981-22.248-22.248-22.248zm0 29.787h-27.459c-4.157 0-7.539-3.381-7.539-7.539s3.381-7.539 7.539-7.539h27.459c4.157 0 7.539 3.381 7.539 7.539s-3.382 7.539-7.539 7.539z"/><path d="m326.918 437.4c0 5.597 4.537 10.134 10.134 10.134s10.134-4.537 10.134-10.134-4.537-10.134-10.134-10.134-10.134 4.537-10.134 10.134z"/><path d="m361.941 437.4c0 5.597 4.537 10.134 10.134 10.134s10.134-4.537 10.134-10.134-4.537-10.134-10.134-10.134-10.134 4.537-10.134 10.134z"/><path d="m427.558 74.6c-11.948 0-21.668 9.72-21.668 21.668s9.72 21.668 21.668 21.668 21.668-9.72 21.668-21.668-9.72-21.668-21.668-21.668zm0 28.626c-3.836 0-6.958-3.122-6.958-6.958s3.122-6.958 6.958-6.958 6.958 3.122 6.958 6.958-3.122 6.958-6.958 6.958z"/></g></svg>