<svg id="Capa_1" enable-background="new 0 0 512 512" height="512" viewBox="0 0 512 512" width="512" xmlns="http://www.w3.org/2000/svg"><g><path d="m245.108 356.782c16.216 0 29.408-13.192 29.408-29.407s-13.192-29.408-29.408-29.408h-35.672c-16.215 0-29.408 13.192-29.408 29.408 0 16.215 13.192 29.407 29.408 29.407zm-50.737-29.407c0-8.307 6.758-15.065 15.065-15.065h35.672c8.307 0 15.065 6.758 15.065 15.065s-6.758 15.065-15.065 15.065h-35.672c-8.307 0-15.065-6.758-15.065-15.065z"/><circle cx="213.011" cy="327.375" r="7.126"/><circle cx="241.534" cy="327.375" r="7.126"/><path d="m388.58 300.824h-25.816c-3.961 0-7.171 3.211-7.171 7.171s3.21 7.171 7.171 7.171h25.816c3.961 0 7.171-3.211 7.171-7.171s-3.21-7.171-7.171-7.171z"/><path d="m512 307.995c0-2.966-1.156-5.756-3.253-7.852l-10.466-10.466 1.375-4.741c1.705-5.881-1.692-12.052-7.573-13.759l-7.759-2.249-.969-8.327c-.708-6.082-6.229-10.454-12.314-9.746l-6.057.705-4.389-7.601c-2.878-5.232-10.062-7.157-15.17-4.066l-7.436 4.293-8.07-8.071c-4.328-4.326-11.373-4.328-15.705.002l-4.647 4.647-4.648-4.649c-4.328-4.326-11.373-4.327-15.705.001l-4.773 4.774-4.774-4.774c-4.159-4.303-11.674-4.304-15.832 0l-4.775 4.775-4.774-4.774c-4.134-4.308-11.571-4.308-15.706 0l-4.647 4.648-4.647-4.648c-4.134-4.308-11.571-4.308-15.706 0l-4.837 4.838-4.84-4.839c-1.976-1.975-4.519-3.038-7.111-3.21-.156-.663-.348-1.315-.582-1.953 8.966-11.541 14.057-25.907 14.057-41.135v-36.885c0-3.96-3.21-7.171-7.171-7.171s-7.171 3.211-7.171 7.171v36.885c0 11.419-3.643 22.222-10.096 31.07-2.328-.853-5.012-.945-7.488-.884v-6.956c0-11.863-9.651-21.513-21.513-21.513h-19.053l18.056-31.274c3.859-6.376 1.456-15.347-5.074-18.939l-18.376-10.61c-6.62-3.824-15.116-1.547-18.939 5.074l-27.876 48.283c-.374-.37-.739-.749-1.09-1.142-7.609-8.508-18.519-13.388-29.934-13.388h-31.758c-3.462 0-6.902.442-10.224 1.315-3.83 1.006-6.12 4.927-5.114 8.758 1.006 3.83 4.926 6.122 8.757 5.114 2.133-.56 4.347-.844 6.581-.844h31.758c7.338 0 14.352 3.137 19.243 8.606 1.374 1.536 2.875 2.948 4.465 4.253l-65.957 114.24h-8.155c-3.954 0-7.171-3.217-7.171-7.171v-94.112c0-3.057.527-6.045 1.566-8.881 1.362-3.719-.548-7.838-4.267-9.2-3.717-1.361-7.837.548-9.2 4.267-1.62 4.421-2.441 9.069-2.441 13.814v49.865c-10.639 0-21.671 3.57-30.293 9.802l-31.63 22.861c-12.383 8.949-20.094 23.148-20.626 37.982-1.553 26.714 21.803 50.93 48.54 50.345h119.051c3.96 0 7.171-3.211 7.171-7.171s-3.211-7.171-7.171-7.171h-7.022v-36.926c0-2.718.718-5.398 2.077-7.751l25.518-44.199c14.879 1.625 28.039-11.179 26.778-26.103l23.435-13.883c3.318-1.965 7.109-3.004 10.965-3.004h22.024c-1.284.812-41.751 21.885-41.751 21.885-3.516 1.824-4.888 6.152-3.064 9.667 1.832 3.55 6.224 4.871 9.667 3.064l37.781-19.596c3.118-1.617 6.064-3.461 8.838-5.492v119.947c0 1.318-1.072 2.39-2.39 2.39h-80.714c-3.96 0-7.171 3.211-7.171 7.171s3.211 7.171 7.171 7.171h80.714c2.443 0 4.759-.539 6.854-1.484 4.219 4.982 11.882 5.522 16.532.826l4.837-4.838 4.838 4.838c4.134 4.308 11.571 4.308 15.705 0l4.648-4.648 4.647 4.647c4.134 4.308 11.571 4.308 15.705 0l4.775-4.775 4.774 4.774c4.176 4.31 11.698 4.316 15.832 0l4.774-4.774 4.775 4.776c4.328 4.326 11.373 4.327 15.705-.001l4.646-4.647 4.649 4.649c4.328 4.326 11.373 4.327 15.705-.001l8.068-8.069 7.437 4.294c5.106 3.091 12.293 1.165 15.169-4.065l4.389-7.602 6.057.705c6.081.703 11.605-3.665 12.315-9.747l.968-8.327 7.759-2.249c5.881-1.706 9.278-7.878 7.573-13.759l-1.38-4.76 10.47-10.47c2.095-2.094 3.251-4.884 3.251-7.85zm-50.001-2.332.72.209c-.273 1.409-.271 2.861.004 4.269-5.398 1.23-9.086 6.226-8.715 11.579-4.164.524-7.718 3.391-9.102 7.367-4.215-.405-8.524 1.805-10.606 5.514l-2.45 4.242-1.932-1.932c-4.328-4.326-11.373-4.327-15.705.001l-4.646 4.647-4.649-4.649c-4.328-4.326-11.373-4.327-15.705.001l-4.773 4.774-4.774-4.774c-4.159-4.318-11.674-4.319-15.832 0l-4.775 4.775-4.774-4.774c-4.134-4.308-11.571-4.308-15.705 0l-4.648 4.648-4.647-4.647c-4.331-4.33-11.375-4.33-15.706 0l-4.838 4.838-4.839-4.839c-1.859-1.858-4.22-2.913-6.651-3.175v-51.458c2.432-.262 4.793-1.317 6.653-3.177l4.837-4.838 4.838 4.837c4.132 4.309 11.573 4.308 15.705.001l4.648-4.648 4.647 4.647c4.132 4.309 11.573 4.308 15.705.001l4.775-4.775 4.774 4.774c4.159 4.318 11.674 4.318 15.832 0l4.774-4.774 4.774 4.775c4.332 4.329 11.376 4.328 15.706-.001l4.647-4.647 4.647 4.648c4.332 4.329 11.376 4.328 15.706-.001l1.931-1.931 2.448 4.242c1.484 2.569 3.878 4.407 6.743 5.175 1.28.343 2.586.455 3.864.34 1.384 3.976 4.937 6.843 9.102 7.367-.322 5.079 2.906 9.895 7.992 11.369zm-438.011 50.067c-14.632-14.538-11.952-40.093 5.112-51.879l31.631-22.861c6.162-4.454 13.226-6.808 21.892-6.808v22.589h-9.255c-6.534 0-12.787 2.023-18.082 5.85l-18.323 13.243c-7.459 5.392-10.235 15.122-6.749 23.663 3.06 7.497 10.418 12.342 18.744 12.342h25.538c12.39 0 22.47-10.08 22.47-22.47v-5.31c2.207.783 4.578 1.216 7.048 1.23-3.492 5.531-5.624 11.909-5.569 18.485v22.406h-49.83c-9.36.002-18.106-3.72-24.627-10.48zm58.635-44.616v18.287c0 4.481-3.646 8.127-8.127 8.127h-25.538c-5.503.235-8.018-6.954-3.594-10.04l18.323-13.242c2.835-2.049 6.182-3.132 9.681-3.132zm67.675 3.25c-2.616 4.531-3.999 9.691-3.999 14.923v36.926h-33.514v-22.406c0-3.269.864-6.492 2.498-9.322l110.338-191.111 17.549 10.132-44.198 76.553c-2.596-.943-5.396-1.459-8.314-1.459-13.47 0-24.429 10.959-24.429 24.429 0 7.483 3.385 14.187 8.7 18.672zm40.361-51.249c-5.562 0-10.087-4.525-10.087-10.087s4.525-10.087 10.087-10.087 10.087 4.525 10.087 10.087c-.001 5.562-4.525 10.087-10.087 10.087zm40.481-38.104-19.29 11.428 17.644-30.561h27.334c3.954 0 7.171 3.217 7.171 7.171v6.956h-14.584c-6.427-.001-12.746 1.731-18.275 5.006zm255.127 93.033c-2.547 2.549-3.504 6.28-2.501 9.735l1.213 4.184-7.499 2.175c-3.827 1.11-6.599 4.386-7.059 8.345l-.938 8.056-5.758-.67c-3.921-.455-7.725 1.458-9.695 4.873l-4.238 7.34-6.699-3.868c-4.396-2.539-9.97-1.804-13.559 1.785l-7.467 7.468-4.559-4.559c-4.181-4.357-11.705-4.356-15.885.001l-4.557 4.558-4.686-4.686c-4.379-4.377-11.504-4.377-15.885.001l-4.747 4.748-4.748-4.748c-4.179-4.358-11.706-4.358-15.884-.001l-4.686 4.685-4.558-4.557c-4.178-4.358-11.705-4.358-15.884-.001l-4.559 4.558-4.748-4.748c-4.18-4.358-11.706-4.358-15.885 0l-3.782 3.783c.142-.875.235-1.765.235-2.679v-13.28l3.547 3.548c4.181 4.358 11.704 4.358 15.886 0l4.747-4.748 4.558 4.557c4.179 4.358 11.706 4.358 15.884.001l4.559-4.558 4.685 4.684c4.179 4.358 11.706 4.358 15.884.001l4.749-4.749 4.748 4.749c4.379 4.377 11.504 4.377 15.885-.001l4.684-4.685 4.558 4.557c4.18 4.359 11.704 4.358 15.886 0l4.557-4.558 2.508 2.509c4.926 5.209 14.259 3.979 17.67-2.326l2.945-5.1c2.501.873 5.264.711 7.682-.506 2.952-1.484 4.953-4.316 5.364-7.591 3.403.517 6.861-.736 9.09-3.382 2.297-2.689 2.919-6.391 1.777-9.722l2.8-.812c3.39-.983 5.939-3.611 6.817-7.03.659-2.563.281-5.189-1.002-7.394 1.268-2.199 1.64-4.812.983-7.363-1.019-4.613-5.278-6.977-9.599-7.835 1.142-3.33.522-7.031-1.776-9.721-2.228-2.648-5.677-3.904-9.091-3.384-.412-3.274-2.412-6.107-5.364-7.591-2.417-1.216-5.181-1.379-7.682-.506l-2.945-5.101c-3.413-6.304-12.738-7.534-17.67-2.325l-2.508 2.508-4.558-4.559c-4.181-4.357-11.706-4.356-15.885.001l-4.558 4.558-4.685-4.686c-4.379-4.377-11.504-4.377-15.885.001l-4.747 4.748-4.748-4.748c-4.178-4.358-11.705-4.358-15.884-.001l-4.686 4.685-4.558-4.557c-4.178-4.358-11.705-4.358-15.884-.001l-4.559 4.558-4.748-4.749c-4.181-4.357-11.705-4.356-15.885.001l-3.547 3.548v-15.723l3.547 3.547c4.18 4.359 11.704 4.358 15.886 0l4.747-4.748 4.558 4.558c4.379 4.379 11.506 4.379 15.885 0l4.558-4.558 4.685 4.684c2.121 2.122 4.941 3.29 7.942 3.29s5.821-1.169 7.941-3.29l4.749-4.749 4.748 4.749c4.379 4.377 11.504 4.377 15.885-.001l4.684-4.685 4.558 4.558c4.379 4.379 11.505 4.379 15.886 0l4.558-4.558 7.467 7.468c3.588 3.588 9.163 4.324 13.559 1.785l6.7-3.868 4.236 7.338c1.972 3.418 5.779 5.329 9.698 4.874l5.757-.67.938 8.057c.46 3.959 3.232 7.234 7.06 8.345l7.498 2.173-1.209 4.169c-1.002 3.46-.042 7.19 2.503 9.734l10.042 10.042z"/></g></svg>