<svg id="Capa_1" enable-background="new 0 0 512 512" height="512" viewBox="0 0 512 512" width="512" xmlns="http://www.w3.org/2000/svg"><g><path d="m416.622 83.296h-47.128c-5.473 0-10.332 3.481-12.091 8.663l-12.785 37.642-13.956-37.942c-1.839-5.002-6.655-8.363-11.984-8.363h-86.128c-4.018 0-7.275 3.257-7.275 7.275s3.257 7.275 7.275 7.275h84.885l17.053 46.363c1.605 4.364 5.621 7.162 10.258 7.162.048 0 .097 0 .145-.001 4.698-.059 8.709-2.972 10.219-7.419l15.66-46.106h44.071v122.82h-228.04v-29.122c12.425-1.533 22.074-12.154 22.074-24.986v-42.421c0-26.591-5.088-52.559-15.124-77.184l-14.972-36.737c-2.529-6.204-8.495-10.215-15.198-10.215s-12.669 4.011-15.198 10.218l-6.364 15.617c-1.517 3.721.271 7.967 3.992 9.482 3.721 1.518 7.967-.272 9.482-3.992l6.364-15.617c.314-.769.893-1.159 1.724-1.159s1.411.389 1.724 1.159l14.972 36.737c9.321 22.873 14.047 46.994 14.047 71.693v4.35h-61.487c-.155-12.274.639-24.603 2.758-36.626 1.799-10.437 4.473-20.724 8.015-30.788 1.335-3.79-.657-7.943-4.448-9.277-3.787-1.334-7.943.657-9.277 4.448-3.122 8.87-5.608 17.903-7.474 27.051h-27.033c-7.041 0-12.77 5.728-12.77 12.77v147.878c0 14.941 10.703 27.526 25.45 29.923l32.303 5.253v41.873c0 11.452-2.036 22.695-6.05 33.419l-6.911 18.464c-2.252 6.016-.771 12.839 3.77 17.379l18.201 18.2c3.917 3.918 9.063 5.878 14.209 5.877 5.146 0 10.292-1.958 14.21-5.876l18.2-18.2c4.543-4.542 6.023-11.366 3.77-17.381l-6.911-18.464c-4.014-10.722-6.049-21.967-6.049-33.419v-34.32l5.638.917c7.003 1.14 13.049 5.319 16.587 11.467 10.282 17.866 15.717 38.206 15.717 58.821.004 9.033-.571 17.959-1.652 26.819-2.683 21.822-8.646 43.027-17.857 63.306-3.53 7.771-2.126 16.896 3.576 23.248l29.494 32.855c4.503 5.018 10.954 7.895 17.695 7.895 6.742 0 13.192-2.877 17.695-7.895l29.496-32.855c5.7-6.353 7.103-15.477 3.574-23.248-9.213-20.284-15.175-41.494-17.858-63.32-1.08-8.855-1.654-17.777-1.65-26.805 0-20.615 5.436-40.955 15.717-58.821 3.538-6.148 9.584-10.327 16.586-11.467l34.606-5.627c3.965-.644 6.658-4.382 6.012-8.349-.644-3.965-4.375-6.66-8.349-6.012l-34.606 5.627c-11.34 1.844-21.13 8.613-26.861 18.57-9.924 17.242-15.815 36.537-17.282 56.316h-34.162c-1.467-19.779-7.359-39.074-17.282-56.316-5.73-9.957-15.52-16.725-26.862-18.57l-7.973-1.296v-36.714h228.04v8.726c0 7.77-5.566 14.315-13.236 15.562l-18.253 2.968c-3.965.644-6.658 4.382-6.012 8.348 1.572 11.172 20.12 3.041 26.601 3.046 14.747-2.398 25.451-14.982 25.451-29.923v-147.879c.002-7.041-5.727-12.77-12.768-12.77zm-143.059 294.54h-35.125c.428-5.03.692-10.088.794-15.172h33.537c.102 5.084.366 10.142.794 15.172zm18.799 83.695-29.495 32.855c-1.773 1.975-4.213 3.064-6.868 3.064-2.654 0-5.094-1.088-6.867-3.064l-29.494-32.855c-1.842-2.053-2.295-5.001-1.156-7.511 8.994-19.801 15.081-40.431 18.246-61.634h38.543c3.165 21.202 9.251 41.832 18.245 61.634 1.14 2.51.687 5.459-1.154 7.511zm-98.037-318.492v23.52c0 5.859-4.767 10.626-10.626 10.626-6.313 0-11.448 5.135-11.448 11.448v123.467h-17.339v-123.466c0-6.313-5.135-11.448-11.448-11.448-5.859 0-10.626-4.767-10.626-10.626v-23.52h61.487zm-74.344-45.192c-1.125 8.692-1.694 17.467-1.694 26.292v42.421c0 12.832 9.649 23.453 22.074 24.986v29.122h-43.202v-122.821zm-9.588 161.659c-7.668-1.248-13.235-7.792-13.235-15.562v-8.726h43.202v29.162zm75.31 120.46-18.2 18.201c-2.161 2.163-5.679 2.164-7.842-.001l-18.202-18.202c-.52-.519-.689-1.301-.431-1.989l6.91-18.462c3.964-10.589 6.241-21.619 6.816-32.862h17.656c.575 11.243 2.851 22.273 6.815 32.861l6.911 18.465c.257.689.088 1.468-.433 1.989z"/><path d="m256 431.393c-12.561 0-22.781 10.219-22.781 22.781 0 12.561 10.219 22.78 22.781 22.78 12.561 0 22.78-10.218 22.78-22.78s-10.219-22.781-22.78-22.781zm0 31.01c-4.538 0-8.23-3.692-8.23-8.229 0-4.538 3.692-8.23 8.23-8.23s8.229 3.692 8.229 8.23c0 4.537-3.691 8.229-8.229 8.229z"/><path d="m247.81 168.618v-51.129c0-4.018-3.257-7.275-7.275-7.275s-7.275 3.257-7.275 7.275v51.129c0 4.018 3.257 7.275 7.275 7.275s7.275-3.256 7.275-7.275z"/><path d="m278.78 199.616v-82.127c0-4.018-3.257-7.275-7.275-7.275s-7.275 3.257-7.275 7.275v82.127c0 4.018 3.257 7.275 7.275 7.275s7.275-3.257 7.275-7.275z"/><path d="m324.72 199.616v-19.643c0-4.018-3.257-7.275-7.275-7.275s-7.275 3.257-7.275 7.275v19.643c0 4.018 3.257 7.275 7.275 7.275s7.275-3.257 7.275-7.275z"/><path d="m380.188 199.616v-40.819c0-4.018-3.257-7.275-7.275-7.275s-7.275 3.257-7.275 7.275v40.819c0 4.018 3.257 7.275 7.275 7.275 4.019 0 7.275-3.257 7.275-7.275z"/></g></svg>