<svg id="Capa_1" enable-background="new 0 0 512 512" height="512" viewBox="0 0 512 512" width="512" xmlns="http://www.w3.org/2000/svg"><g><path d="m349.988 50.5c-1.705-3.663-6.057-5.249-9.722-3.544-3.663 1.706-5.251 6.059-3.544 9.722 11.079 23.713 5.192 51.711-14.403 69.088-21.144 19.504-33.272 47.188-33.272 75.954v126.613c0 30.218 1.309 60.812 3.892 90.93l3.072 35.814c.943 11.001-2.649 21.54-10.115 29.674-7.468 8.135-17.66 12.614-28.702 12.614s-21.235-4.48-28.701-12.614c-7.467-8.135-11.059-18.673-10.116-29.674l3.071-35.812c2.582-30.113 3.892-60.707 3.892-90.933v-119.215c0-33.329-16.2-64.78-43.335-84.13-5.329-3.801-8.907-9.44-10.074-15.88l-2.074-11.436h111.619c9.414 0 17.073-7.659 17.073-17.073v-63.73c6.806.174 13.209 3.533 17.215 9.061l3.337 4.604c5.463 7.769 17.532-.987 11.848-8.59l-3.337-4.603c-6.86-9.464-17.934-15.113-29.622-15.113-6.763-.977-14.163 2.655-14.076 10.244v68.127c0 1.345-1.094 2.439-2.439 2.439h-79.023v-21.054c0-13.055 6.257-25.498 16.736-33.283l13.139-9.762c3.482-2.587 7.643-4.065 11.938-4.278v43.607c0 4.042 3.276 7.317 7.317 7.317 4.042 0 7.317-3.276 7.317-7.317v-47.921c.029-5.986-5.23-10.641-11.139-10.267-8.635-.572-17.209 1.947-24.16 7.111l-13.14 9.762c-14.179 10.534-22.643 27.367-22.643 45.031v21.053h-18.546c-8.566-.212-15.654 8.281-13.92 16.67l2.178 12.01c1.852 10.213 7.526 19.158 15.977 25.185 23.292 16.61 37.198 43.606 37.198 72.215v119.215c0 29.81-1.291 59.984-3.839 89.683l-3.071 35.812c-1.279 14.914 3.793 29.792 13.915 40.82 10.124 11.03 24.515 17.354 39.484 17.354 14.97 0 29.361-6.325 39.483-17.352 10.123-11.028 15.194-25.906 13.916-40.82l-3.072-35.814c-2.547-29.705-3.839-59.877-3.839-89.68v-126.614c0-24.692 10.41-48.456 28.561-65.198 24.298-21.707 31.521-56.517 17.746-86.022z"/><path d="m257.193 482.959c15.231 0 27.622-12.391 27.622-27.622s-12.391-27.622-27.622-27.622-27.622 12.391-27.622 27.622 12.391 27.622 27.622 27.622zm0-40.61c7.162 0 12.988 5.826 12.988 12.988s-5.826 12.988-12.988 12.988-12.988-5.826-12.988-12.988c0-7.161 5.826-12.988 12.988-12.988z"/><path d="m281.096 126.088c0-6.724-5.471-12.195-12.195-12.195h-27.38c-6.724 0-12.195 5.471-12.195 12.195v52.035c0 6.724 5.471 12.195 12.195 12.195h27.38c6.724 0 12.195-5.471 12.195-12.195zm-14.634 2.439v18.811l-3.091-5.761c-1.617-3.013-4.745-4.885-8.164-4.886-.002 0-.002 0-.003 0-3.418 0-6.548 1.871-8.166 4.884l-3.077 5.732v-18.78zm-22.501 47.157v-6.96c3.242-.156 6.173-1.976 7.718-4.854l3.524-6.565 3.524 6.566c1.55 2.884 4.487 4.703 7.735 4.854v6.96h-22.501z"/><path d="m241.316 348.4c-4.041 0-7.317 3.276-7.317 7.317v49.721c-.142 5.369 5.539 9.598 10.635 7.95 7.432-2.183 15.427-2.352 23.022-.439 5.048 1.413 10.457-2.794 10.316-8.036v-173.24c0-12.124-9.864-21.987-21.987-21.987s-21.987 9.864-21.987 21.987v92.754c0 4.042 3.276 7.317 7.317 7.317s7.317-3.276 7.317-7.317v-92.754c0-4.055 3.298-7.353 7.353-7.353 4.054 0 7.352 3.298 7.352 7.353v165.662c-4.9-.542-9.855-.454-14.706.244v-41.862c.002-4.041-3.274-7.317-7.315-7.317z"/></g></svg>