<svg id="Capa_1" enable-background="new 0 0 512 512" height="512" viewBox="0 0 512 512" width="512" xmlns="http://www.w3.org/2000/svg"><g><path d="m425.413 275.692c4.079 0 7.385-3.306 7.385-7.385v-33.6h3.893c6.787 0 12.308-5.521 12.308-12.308v-21.662c0-6.787-5.521-12.308-12.308-12.308h-4.582c-2.371-19.121-10.946-37.062-24.478-50.955-13.494-13.854-31.137-22.89-50.109-25.794v-4.68c0-6.787-5.521-12.308-12.308-12.308h-21.662c-6.787 0-12.308 5.521-12.308 12.308v3.646h-92.748v-95.877h44.308v66.829c0 4.078 3.306 7.385 7.385 7.385s7.385-3.306 7.385-7.385v-69.29c-.001-6.787-5.522-12.308-12.309-12.308h-49.231c-6.787 0-12.308 5.521-12.308 12.308v98.338h-3.438v-3.646c0-6.787-5.521-12.308-12.308-12.308h-18.733v-21.075c0-6.787-5.521-12.308-12.308-12.308h-3.892v-49.001c.001-6.787-5.52-12.308-12.307-12.308h-49.23c-6.787 0-12.308 5.521-12.308 12.308v49.001h-3.892c-6.787 0-12.308 5.521-12.308 12.308v21.662c0 6.787 5.521 12.308 12.308 12.308h4.691c5.168 38.927 35.252 69.712 74.011 75.8v5.245c0 6.787 5.521 12.308 12.308 12.308h21.662c6.787 0 12.308-5.521 12.308-12.308v-4.138h3.438v55.631h-2.999v-3.625c0-6.787-5.521-12.308-12.308-12.308h-21.662c-6.787 0-12.308 5.521-12.308 12.308v4.578c-39.302 5.763-70.145 37.612-74.679 77.069h-4.023c-6.787 0-12.308 5.521-12.308 12.308v21.662c0 6.787 5.521 12.308 12.308 12.308h3.425l.028 135.271c0 6.787 5.521 12.308 12.308 12.308h49.231c6.787 0 12.308-5.521 12.308-12.308v-29.196c0-8.216 6.684-14.9 14.9-14.9h17.808c2.351 3.505 5.064 6.837 8.159 9.932 12.886 12.885 29.811 19.327 46.735 19.327 16.925 0 33.85-6.442 46.735-19.327 3.076-3.075 5.807-6.403 8.183-9.932h15.677v4.012c0 6.787 5.521 12.308 12.308 12.308h21.662c6.787 0 12.308-5.521 12.308-12.308v-5.049c38.923-5.906 69.336-36.783 74.502-75.963h4.667c6.787 0 12.308-5.521 12.308-12.308v-21.662c0-6.787-5.521-12.308-12.308-12.308h-3.893v-29.408c0-4.078-3.306-7.385-7.385-7.385s-7.385 3.306-7.385 7.385v29.408h-44.31v-97.616h44.308v33.6c0 4.08 3.306 7.386 7.385 7.386zm8.816-55.754h-76.708v-16.738h76.708zm-17.017-31.507h-45.587c-2.658-6.677-7.691-12.193-14.105-15.468v-46.324c31.147 5.671 55.082 30.427 59.692 61.792zm-91.199-78.969h16.738v76.708h-16.738zm-232.042-94.693h44.308v46.54h-44.308zm-16.2 61.309h76.708v16.738h-76.708zm17.149 31.508h45.825c2.673 6.116 7.378 11.197 13.266 14.344v46.485c-30.54-5.781-54.177-30.083-59.091-60.829zm90.599 78.583h-16.738v-76.708h16.738zm14.769-60.754h110.956v44.308h-58.41c-4.079 0-7.385 3.306-7.385 7.385 0 4.078 3.306 7.385 7.385 7.385h9.969v63.015c0 12.216-9.938 22.154-22.154 22.154-12.215 0-22.154-9.938-22.154-22.154v-63.069c3.675-.424 6.53-3.542 6.53-7.331 0-4.078-3.306-7.385-7.385-7.385h-17.353v-44.308zm4.182 129.477c3.431 16.833 18.349 29.538 36.18 29.538s32.75-12.706 36.18-29.538h47.245v44.308h-123.347v-44.308zm-35.25-15.932h16.738v76.708h-16.738zm-14.769 17.057v46.178c-6.646 3.283-11.8 9.017-14.377 15.95h-45.43c4.341-31.347 28.675-56.614 59.807-62.128zm-76.24 76.896h76.708v16.738h-76.708zm60.04 31.508v22.45c-18.252 6.501-33.768 18.816-44.308 34.707v-57.156h44.308zm29.697 76.41c-16.36 0-29.669 13.31-29.669 29.669v26.731h-44.308v-26.731c0-40.791 33.187-73.977 73.978-73.977h10.488c-5.092 14.293-5.125 29.999-.09 44.308zm124.026-22.034c0 7.75-1.709 15.237-4.944 22.034h-13.903l-6.616-6.616c2.701-4.513 4.258-9.787 4.258-15.418s-1.557-10.905-4.258-15.418l6.856-6.856h13.541c3.311 6.861 5.066 14.432 5.066 22.274zm-51.324 15.351c-8.464 0-15.351-6.886-15.351-15.35s6.887-15.351 15.351-15.351 15.351 6.887 15.351 15.351-6.887 15.35-15.351 15.35zm26.6-52.394h-53.199l-4.096-4.096c8.817-6.607 19.48-10.185 30.694-10.185 11.216 0 21.879 3.577 30.696 10.185zm-59.318 14.769 6.856 6.856c-2.701 4.514-4.258 9.787-4.258 15.418 0 5.632 1.557 10.905 4.258 15.418l-6.616 6.616h-13.869c-6.63-13.981-6.589-30.355.119-44.308zm2.029 63.406 4.329-4.329h52.719l4.329 4.329c-18.13 13.545-43.245 13.546-61.377 0zm93.031-19.098c2.463-6.984 3.751-14.409 3.751-22.034 0-7.711-1.312-15.221-3.83-22.274h8.331v44.308zm39.76 16.32h-16.738v-76.708h16.738zm14.769-17.545v-46.323c6.154-3.138 11.041-8.331 13.779-14.681h45.785c-4.918 30.981-28.837 55.385-59.564 61.004zm76.708-75.774h-76.708v-16.738h76.708zm-75.278-31.508h-3.891c-6.787 0-12.308 5.521-12.308 12.308v21.042h-19.2c-6.787 0-12.308 5.521-12.308 12.308v3.772h-15.847c-2.337-3.439-5.008-6.687-8.013-9.691-12.484-12.484-29.081-19.359-46.736-19.359-17.654 0-34.251 6.875-46.735 19.359-3.023 3.023-5.678 6.275-7.991 9.691h-17.974c-5.087 0-10.073.436-14.929 1.262v-18.595h4.36c6.787 0 12.308-5.521 12.308-12.308v-21.662c0-.005-.001-.01-.001-.015h18.733c6.787 0 12.308-5.521 12.308-12.308v-4.16h125.809c6.787 0 12.308-5.521 12.308-12.308v-49.231c0-6.787-5.521-12.308-12.308-12.308h-48.963v-55.631h33.671v4.138c0 6.787 5.521 12.308 12.308 12.308h19.2v21.464c0 6.787 5.521 12.308 12.308 12.308h3.891z"/></g></svg>