<svg id="Capa_1" enable-background="new 0 0 512 512" height="512" viewBox="0 0 512 512" width="512" xmlns="http://www.w3.org/2000/svg"><g><path d="m188.742 193.674h-100.572c-4.103 0-7.429 3.326-7.429 7.429 0 4.104 3.326 7.429 7.429 7.429h100.572c4.103 0 7.429-3.326 7.429-7.429s-3.326-7.429-7.429-7.429z"/><path d="m188.742 226.355h-100.572c-4.103 0-7.429 3.326-7.429 7.429 0 4.104 3.326 7.429 7.429 7.429h100.572c4.103 0 7.429-3.326 7.429-7.429s-3.326-7.429-7.429-7.429z"/><path d="m326.028 183.207h-87.951c-6.828 0-12.382 5.555-12.382 12.382v40.369c0 6.828 5.555 12.382 12.382 12.382h87.951c6.828 0 12.382-5.555 12.382-12.382v-40.369c0-6.828-5.555-12.382-12.382-12.382zm-2.477 50.274h-82.998v-35.416h82.998z"/><path d="m423.47 183.207h-54.426c-6.828 0-12.382 5.555-12.382 12.382v40.369c0 6.828 5.555 12.382 12.382 12.382h54.426c6.828 0 12.382-5.555 12.382-12.382v-40.369c0-6.828-5.554-12.382-12.382-12.382zm-2.476 50.274h-49.473v-35.416h49.473z"/><ellipse cx="396.258" cy="215.773" rx="9.503" ry="9.503" transform="matrix(.973 -.23 .23 .973 -38.974 96.813)"/><ellipse cx="300.347" cy="215.773" rx="9.503" ry="9.503" transform="matrix(.973 -.23 .23 .973 -41.54 74.778)"/><ellipse cx="263.757" cy="215.773" rx="9.503" ry="9.503" transform="matrix(.973 -.23 .23 .973 -42.519 66.371)"/><path d="m213.761 335.769c12.982 0 23.543-10.562 23.543-23.543s-10.562-23.542-23.543-23.542-23.543 10.562-23.543 23.542c0 12.981 10.561 23.543 23.543 23.543zm0-32.228c4.789 0 8.685 3.896 8.685 8.684s-3.896 8.685-8.685 8.685c-4.788 0-8.684-3.896-8.684-8.685s3.896-8.684 8.684-8.684z"/><path d="m7.429 244.007c4.103 0 7.429-3.326 7.429-7.429v-136.313c0-32.772 26.662-59.434 59.434-59.434h250.976c4.103 0 7.429-3.326 7.429-7.429s-3.326-7.429-7.429-7.429h-250.975c-40.965-.001-74.293 33.327-74.293 74.292v136.312c0 4.104 3.326 7.43 7.429 7.43z"/><path d="m437.707 25.972h-77.893c-4.103 0-7.429 3.326-7.429 7.429s3.326 7.429 7.429 7.429h77.893c32.772 0 59.434 26.662 59.434 59.434v250.023c0 32.772-26.662 59.434-59.434 59.434h-200.078c.254-6.713-.517-13.482-1.97-19.811h202.048c21.848 0 39.623-17.775 39.623-39.623v-250.022c0-21.848-17.775-39.623-39.623-39.623h-363.414c-21.848 0-39.623 17.775-39.623 39.623v250.023c0 21.848 17.775 39.623 39.623 39.623h8.474c-1.31 5.676-2.025 11.577-2.025 17.645 0 .726.035 1.444.055 2.166h-6.503c-32.772 0-59.434-26.662-59.434-59.434v-76.94c0-4.104-3.326-7.429-7.429-7.429s-7.431 3.325-7.431 7.429v76.94c0 40.965 33.328 74.293 74.293 74.293h8.33c7.8 35.108 39.168 61.447 76.59 61.447s68.79-26.339 76.59-61.447h201.905c40.965 0 74.293-33.327 74.293-74.293v-250.023c-.001-40.965-33.329-74.293-74.294-74.293zm-324.471 318.05-36.53-32.135c-2.672-2.351-4.204-5.739-4.204-9.297v-17.783h205.848v42.187h-21.564c-9.769 0-17.717 7.949-17.717 17.718v8.718h-23.121c-14.3-14.982-34.438-24.345-56.735-24.345-17.164-.001-33.046 5.553-45.977 14.937zm-63.708-176.264h412.943v102.19h-412.943zm137.359-82.106v16.949h-41.001v-16.949zm160.786 31.808c1.181 2.244 2.383 4.2 3.409 5.863 1.144 1.854 2.873 4.657 2.826 5.451-.001.008-.167.823-1.951 2.608-1.833 1.832-1.942 1.943-7.931-1.835-4.752-2.999-11.261-7.105-19.832-7.105-9.384 0-14.472 2.668-18.559 4.813-5.379 4.039-17.935 4.039-23.314 0-4.088-2.145-9.175-4.813-18.56-4.813-9.384 0-14.472 2.668-18.559 4.813-5.38 4.04-17.937 4.037-23.316 0-4.088-2.145-9.176-4.813-18.561-4.813-8.572 0-15.081 4.106-19.834 7.105-5.991 3.778-6.1 3.668-7.935 1.834-1.833-1.833-1.943-1.942 1.836-7.931 1.139-1.804 2.37-3.791 3.496-5.99zm-216.121 0h32.069c-3.687 6.089-7.865 15.136 1.43 24.429 10.339 10.337 20.374 4.007 26.369.224 6.813-5.69 17.178-6.116 23.565-1.701 4.088 2.145 9.176 4.813 18.561 4.813 9.384 0 14.471-2.668 18.559-4.813 5.379-4.039 17.936-4.039 23.315 0 4.088 2.145 9.175 4.813 18.559 4.813s14.471-2.668 18.559-4.813c6.39-4.417 16.745-3.989 23.56 1.701 3.571 2.253 8.575 5.41 14.223 5.41 3.834 0 7.964-1.455 12.144-5.636 9.807-9.809 6.211-18.087 2.444-24.428h15.54c9.667 0 19.117 3.364 26.608 9.474l21.968 17.918c2.737 2.232 5.015 4.985 6.752 8.047h-359.552c1.736-3.061 4.011-5.813 6.751-8.047l21.968-17.918c7.491-6.109 16.94-9.473 26.608-9.473zm211.068 235.97s-.1-10.644-.252-11.577h50.486v11.577zm-88.693-8.718c0-1.577 1.282-2.859 2.859-2.859h68.116c1.576 0 2.859 1.283 2.859 2.859v30.34h-73.834zm138.926-59.905v11.882h-99.645v-11.882zm-99.645 42.187v-15.447h99.645v15.447zm114.504-42.187h31.787v43.118c0 14.063-11.441 25.505-25.505 25.505h-6.282zm-180.603 83.481h11.96v6.764h-8.462c-1.059-2.317-2.227-4.573-3.498-6.764zm210.598 6.764h-95.087v-6.764h71.374c22.256 0 40.363-18.107 40.363-40.364v-43.118h8.115v65.481c0 13.656-11.109 24.765-24.765 24.765zm24.765-274.787v52.635h-10.451c-2.615-7.615-7.354-14.464-13.605-19.563l-21.968-17.917c-10.135-8.266-22.92-12.818-35.999-12.818h-178.704v-19.545c0-2.851-.986-5.471-2.624-7.556h238.587c13.655 0 24.764 11.109 24.764 24.764zm-388.179-24.764h59.359c-1.638 2.085-2.624 4.705-2.624 7.556v19.556c-12.896.12-25.475 4.652-35.474 12.807l-21.969 17.918c-6.257 5.104-10.986 11.946-13.601 19.562h-10.456v-52.635c0-13.655 11.109-24.764 24.765-24.764zm0 299.551c-13.655 0-24.764-11.109-24.764-24.764v-65.481h8.115v17.783c0 7.827 3.371 15.281 9.248 20.453l35.11 30.886c-5.805 6.189-10.614 13.313-14.184 21.124h-13.525zm84.92 96.117c-35.076 0-63.613-28.537-63.613-63.613s28.537-63.613 63.613-63.613 63.613 28.537 63.613 63.613-28.537 63.613-63.613 63.613z"/><path d="m159.213 365.023c-4.103 0-7.429 3.326-7.429 7.429s3.326 7.429 7.429 7.429c15.259 0 27.674 12.415 27.674 27.674s-12.415 27.674-27.674 27.674-27.674-12.415-27.674-27.674c0-4.938 1.315-9.784 3.802-14.01 2.081-3.536.901-8.09-2.635-10.171-3.534-2.08-8.089-.901-10.171 2.635-3.83 6.508-5.855 13.959-5.855 21.546 0 23.452 19.08 42.533 42.533 42.533s42.533-19.08 42.533-42.533c-.001-23.451-19.081-42.532-42.533-42.532z"/><ellipse cx="159.213" cy="407.556" rx="9.499" ry="9.499" transform="matrix(.707 -.707 .707 .707 -241.553 231.951)"/></g></svg>