<svg id="Capa_1" enable-background="new 0 0 512 512" height="512" viewBox="0 0 512 512" width="512" xmlns="http://www.w3.org/2000/svg"><g><path d="m277.672 249.852c-19.996 0-34.509 8.582-34.509 20.408 0 11.825 14.514 20.408 34.509 20.408 19.997 0 34.51-8.582 34.51-20.408.001-11.825-14.513-20.408-34.51-20.408zm0 26.131c-11.765 0-18.568-3.893-19.733-5.723 1.165-1.83 7.969-5.723 19.733-5.723s18.568 3.893 19.734 5.723c-1.165 1.83-7.969 5.723-19.734 5.723z"/><path d="m507.68 435.645-28.916-32.756c-5.48-6.207-13.371-9.767-21.652-9.767h-15.074v-8.013c0-6.438-2.312-12.672-6.51-17.554l-48.319-56.187c-5.679-6.602-13.93-10.389-22.639-10.389h-7.161v-97.87c16.61-1.041 29.805-14.886 29.805-31.754v-34.389c0-17.544-14.273-31.817-31.817-31.817h-155.423c-17.544 0-31.817 14.273-31.817 31.817v7.769h-9.481v-12.297c0-7.943-6.137-14.468-13.916-15.11l96.197-55.748c3.508-2.034 4.704-6.526 2.671-10.035-2.034-3.51-6.527-4.703-10.035-2.671l-118.012 68.39h-13.4c-8.367 0-15.174 6.807-15.174 15.174v12.297h-2.413c-9.087 0-16.523 7.116-17.078 16.065h-50.384c-9.446.001-17.132 7.686-17.132 17.133 0 4.056 3.287 7.342 7.342 7.342s7.342-3.287 7.342-7.342c0-1.35 1.098-2.447 2.447-2.447h50.33v47.835h-50.33c-1.349 0-2.447-1.098-2.447-2.447v-10.727c0-4.056-3.287-7.342-7.342-7.342s-7.342 3.285-7.342 7.341v10.727c0 9.447 7.686 17.132 17.132 17.132h50.385c.555 8.949 7.992 16.065 17.078 16.065h113.339v46.909h-7.16c-8.709 0-16.96 3.787-22.639 10.389l-48.319 56.187c-4.198 4.882-6.51 11.116-6.51 17.554v8.013h-15.074c-8.281 0-16.172 3.56-21.651 9.767l-28.916 32.757c-4.517 5.117-5.58 12.161-2.773 18.383s8.791 10.087 15.616 10.087h250.383c4.056 0 7.342-3.287 7.342-7.342s-3.287-7.342-7.342-7.342h-250.382c-1.375 0-1.988-.902-2.231-1.441-.243-.538-.514-1.596.396-2.626l28.916-32.757c2.693-3.051 6.571-4.8 10.642-4.8h63.316c4.055 0 7.342-3.287 7.342-7.342 0-4.056-3.287-7.342-7.342-7.342h-33.558v-8.013c0-2.926 1.051-5.759 2.959-7.978l12.92-15.023h267.606l12.92 15.023c1.908 2.218 2.959 5.052 2.959 7.978v8.013h-232.582c-4.055 0-7.342 3.287-7.342 7.342 0 4.056 3.287 7.342 7.342 7.342h262.341c4.07 0 7.949 1.75 10.642 4.801l28.916 32.755c.91 1.032.64 2.089.396 2.627-.242.538-.855 1.441-2.23 1.441h-151.458c-4.056 0-7.342 3.287-7.342 7.342s3.287 7.342 7.342 7.342h151.456c6.825 0 12.809-3.865 15.616-10.086 2.809-6.222 1.746-13.267-2.771-18.385zm-307.706-315.811h34.462v22.96c0 4.056 3.287 7.342 7.342 7.342s7.342-3.287 7.342-7.342v-22.96h21.222v22.96c0 4.056 3.287 7.342 7.342 7.342s7.342-3.287 7.342-7.342v-22.96h21.209v22.96c0 4.056 3.287 7.342 7.342 7.342s7.342-3.287 7.342-7.342v-22.96h34.476c9.447 0 17.132 7.686 17.132 17.132v34.389c0 9.447-7.686 17.132-17.159 17.132-6.972 0-12.646 5.673-12.646 12.646v16.08h-109.608v-18.37c0-28.545-22.222-51.981-50.273-53.956v-7.92c.001-9.447 7.686-17.133 17.133-17.133zm-98.282 12.605c0-.27.219-.489.489-.489h41.32c.27 0 .49.22.49.489v12.297h-42.299zm-19.544 104.499v-75.07c0-1.35 1.098-2.447 2.447-2.447h94.412c21.738 0 39.422 17.685 39.422 39.422v38.095c0 1.35-1.098 2.447-2.447 2.447h-131.387c-1.349 0-2.447-1.097-2.447-2.447zm130.471 17.132h3.363c9.447 0 17.132-7.686 17.132-17.132v-5.04h109.611v69.082h-130.106zm-56.121 93.353 22.771-26.479c2.886-3.356 7.079-5.28 11.505-5.28h173.797c4.426 0 8.62 1.925 11.505 5.28l22.771 26.479z"/></g></svg>