<svg id="Capa_1" enable-background="new 0 0 512 512" height="512" viewBox="0 0 512 512" width="512" xmlns="http://www.w3.org/2000/svg"><g><path d="m512 182.014c0-24.445-8.981-47.937-25.289-66.149l-37.105-41.439c-5.723-6.656-16.63-7.263-23.054-1.27-16.668 14.925-18.085 40.629-3.16 57.298l20.929 23.373c6.949 7.759 10.776 17.77 10.776 28.187v96.553h-40.403c-4.064 0-7.358 3.294-7.358 7.358s3.294 7.358 7.358 7.358h34.155v135.002h-125.11c-14.719 0-27.395-10.496-30.141-24.957l-5.582-29.408c-2.916-15.361-16.381-26.511-32.016-26.511s-29.1 11.149-32.016 26.511l-5.583 29.408c-2.745 14.461-15.421 24.957-30.14 24.957h-125.108v-107.666c0-4.064-3.294-7.358-7.358-7.358s-7.358 3.294-7.358 7.358v107.666h-3.279c-7.432 0-13.754-5.065-15.375-12.317l-13.607-60.862c-3.71-16.592-.231-34.089 9.545-48.002 6.081-8.654 16.025-13.821 26.602-13.821h328.523c4.064 0 7.358-3.294 7.358-7.358s-3.294-7.358-7.358-7.358h-323.942v-96.553c0-10.417 3.827-20.429 10.776-28.188l20.928-23.372c7.23-8.074 10.884-18.481 10.287-29.303-.596-10.823-5.372-20.765-13.447-27.995-6.708-6.007-17.049-5.436-23.055 1.271l-23.91 26.701c-2.711 3.028-2.454 7.679.573 10.39 3.028 2.711 7.678 2.455 10.39-.573l23.909-26.7c.592-.664 1.613-.718 2.274-.126 5.146 4.608 8.19 10.944 8.57 17.842s-1.948 13.53-6.556 18.676l-20.928 23.371c-9.37 10.463-14.53 23.96-14.53 38.006v97.677c-10.863 2.393-20.643 8.573-27.471 17.568v-115.245c0-17.281 5.195-33.908 15.023-48.083 2.315-3.34 1.485-7.924-1.854-10.239-3.341-2.319-7.925-1.486-10.24 1.854-11.541 16.649-17.643 36.176-17.643 56.468 0 0 .045 163.203.118 163.618.208 4.244.757 8.488 1.695 12.686l13.607 60.862c3.136 14.026 15.364 23.822 29.737 23.822h143.104c21.78 0 40.537-15.531 44.598-36.929l5.583-29.408c1.599-8.424 8.983-14.538 17.557-14.538 8.575 0 15.959 6.115 17.558 14.538l5.582 29.408c4.062 21.398 22.819 36.929 44.599 36.929h143.104c14.373 0 26.603-9.797 29.738-23.822l13.607-60.862c1.269-5.675 1.813-8.94 1.776-17.163.037-11.645.037-159.141.037-159.141zm-77.645-61.377c-9.513-10.623-8.61-27.005 2.014-36.518.662-.593 1.681-.534 2.274.126l37.105 41.438c13.887 15.51 21.535 35.515 21.535 56.332v115.244c-6.827-8.995-16.607-15.174-27.471-17.567v-97.677c0-14.046-5.16-27.544-14.53-38.005zm61.47 234.469-13.607 60.863c-1.621 7.252-7.944 12.316-15.376 12.316h-3.279v-134.767c9.09 1.097 17.388 6.002 22.717 13.586 9.776 13.914 13.255 31.41 9.545 48.002z"/><path d="m298.642 316.934c-2.406 2.932-3.924 6.386-4.475 10.001h-76.334c-.551-3.615-2.07-7.07-4.476-10.002-4.186-5.101-10.463-8.026-17.221-8.026h-99.723c-12.094 0-21.933 9.462-21.933 21.094v60.828c0 11.631 9.839 21.094 21.933 21.094h87.621c10.508 0 19.568-7.203 21.543-17.126l10.574-53.145h79.701l10.574 53.145c1.974 9.923 11.035 17.126 21.542 17.126h87.621c12.094 0 21.934-9.462 21.934-21.094v-60.828c0-11.631-9.84-21.094-21.934-21.094h-99.723c-6.76 0-13.038 2.926-17.224 8.027zm-95.397 14.162-12.103 60.828c-.609 3.061-3.599 5.282-7.109 5.282h-87.62c-3.979 0-7.217-2.861-7.217-6.377v-60.828c0-3.516 3.237-6.377 7.217-6.377h99.724c4.134.218 7.66 2.57 7.108 7.472zm219.56-1.095v60.828c0 3.516-3.237 6.377-7.217 6.377h-87.621c-3.51 0-6.5-2.221-7.109-5.282l-12.103-60.828c-.553-4.901 2.975-7.254 7.109-7.472h99.723c3.981 0 7.218 2.861 7.218 6.377z"/></g></svg>