<svg id="Capa_1" enable-background="new 0 0 512 512" height="512" viewBox="0 0 512 512" width="512" xmlns="http://www.w3.org/2000/svg"><g><path d="m339.206 211.403-6.192-61.265c-.499-4.928-2.887-9.368-6.724-12.501-3.839-3.134-8.671-4.581-13.594-4.086l-16.606 1.679-4.861-50.852c-.483-5.176-3.77-9.577-8.602-11.499v-.803c0-6.297-3.043-12.266-8.138-15.965l-73.864-53.619c-4.286-3.113-9.98-3.344-14.55-.498-3.884 2.42-6.103 6.806-6.103 11.382v126.451c-4.637 5.77-7.274 13.023-7.274 20.569v85.062c0 6.74 1.552 13.489 4.487 19.516 6.05 12.421 9.382 28.763 9.382 46.018-.136 9.258 14.403 9.253 14.267 0 0-19.376-3.843-37.937-10.822-52.265-1.994-4.092-3.047-8.681-3.047-13.269v-28.168l41.16-29.88v164.25c0 2.277-1.101 4.436-2.943 5.773l-38.217 27.743v-8.651c0-4.588 1.053-9.177 3.047-13.269 2.539-5.214 4.686-11.031 6.379-17.29 1.028-3.803-1.22-7.72-5.024-8.749-3.799-1.025-7.72 1.22-8.748 5.023-1.459 5.393-3.287 10.362-5.434 14.769-2.935 6.027-4.487 12.776-4.487 19.516v104.563c0 17.072 13.839 30.911 30.911 30.911h40.51c14.604 0 27.013-9.958 30.177-24.214l35.028-157.826 2.481-12.27c.586-2.896.784-5.857.589-8.805l-.664-10.058-6.25-65.375 16.724-1.69c4.627-.468 9.022-2.482 12.172-5.905 3.645-3.962 5.366-9.148 4.83-14.453zm-70.846-136.18-48.631 34.712v-61.35l10.053-7.298 19.868 14.422-10.988 7.977c-3.188 2.315-3.896 6.775-1.582 9.963 2.329 3.209 6.807 3.881 9.963 1.582l14.749-10.707 4.314 3.132c2.506 1.581 2.329 4.986 2.254 7.567zm-62.897 12.563-11.225 8.148v-28.844l11.225-8.149zm-11.224 25.778 11.225-8.148v14.703l-11.225 8.012zm11.224-89.932v17.679l-11.225 8.149v-33.976zm54.904 461.063c-1.703 7.677-8.385 13.039-16.249 13.039h-40.51c-9.192 0-16.644-7.452-16.644-16.644v-78.282l46.598-33.827c5.528-4.013 8.828-10.487 8.828-17.319v-168.914c0-4.493-2.486-8.552-6.489-10.592-4.003-2.039-8.748-1.668-12.385.971l-36.553 26.535v-39.265c0-5.92 2.86-11.531 7.605-14.975l82.532-58.91 12.342 129.108-26.578 19.293c-3.188 2.315-3.896 6.775-1.582 9.963 2.328 3.209 6.808 3.881 9.963 1.582l19.772-14.353 1.596 16.694-29.75 21.596c-3.188 2.315-3.896 6.775-1.582 9.963 2.328 3.209 6.808 3.881 9.963 1.582l22.944-16.656 1.628 17.029-32.954 23.922c-3.188 2.315-3.896 6.775-1.582 9.963 2.329 3.209 6.807 3.881 9.963 1.582l26.148-18.982 1.04 10.884c.154 1.613.054 3.241-.297 4.823zm63.703-268.721c-.724.885-1.748 1.436-2.885 1.551l-17.063 1.725-6.675-69.819 16.684-1.686c2.285-.275 4.504 1.533 4.689 3.828l6.192 61.264c.115 1.138-.22 2.251-.942 3.137z"/><path d="m226.483 419.068c-15.372 0-27.878 12.506-27.878 27.878s12.506 27.877 27.878 27.877 27.877-12.505 27.877-27.877-12.505-27.878-27.877-27.878zm0 41.489c-7.506 0-13.612-6.106-13.612-13.611 0-7.506 6.106-13.612 13.612-13.612 7.505 0 13.611 6.106 13.611 13.612 0 7.505-6.106 13.611-13.611 13.611z"/></g></svg>