<svg id="Capa_1" enable-background="new 0 0 512 512" height="512" viewBox="0 0 512 512" width="512" xmlns="http://www.w3.org/2000/svg"><g><path d="m511.97 310.33c-.623-14.253-12.409-25.657-26.812-25.657h-67.724l23.682-8.99c5.42-2.058 10.255-5.493 13.984-9.933l48.392-57.636c7.919-9.433 10.124-22.445 5.753-33.959l-33.313-87.762c-4.371-11.515-14.655-19.786-26.839-21.587l-74.448-11.007c-5.737-.849-11.632-.209-17.055 1.849l-78.177 29.676c-5.42 2.057-10.255 5.492-13.985 9.933l-48.392 57.637c-.5.596-.977 1.207-1.431 1.83-4.014-5.289-10.364-8.712-17.5-8.712h-94.644c-9.137 0-17.558 4.578-22.526 12.246l-17.57 27.116c-2.199 3.393-1.231 7.926 2.163 10.124 3.391 2.198 7.925 1.231 10.124-2.163l17.57-27.116c2.258-3.485 6.086-5.566 10.239-5.566h52.688v69.764c0 4.037-3.284 7.321-7.321 7.321h-101.946l10.724-16.55c2.199-3.393 1.231-7.926-2.163-10.124-3.392-2.198-7.926-1.231-10.124 2.163l-11.761 18.151c-4.882 7.534-7.463 16.261-7.463 25.238v15.769c-14.573 1.101-26.095 13.302-26.095 28.153 0 14.85 11.522 27.051 26.095 28.154v13.652c0 8.191 3.666 15.826 10.059 20.947l26.034 20.859v13.701c0 6.728 5.473 12.201 12.201 12.201h12.109c4.112 27.42 27.822 48.515 56.37 48.515 28.549 0 52.258-21.095 56.371-48.515h12.109c6.728 0 12.201-5.473 12.201-12.201v-2.576h89.003v2.576c0 6.728 5.473 12.201 12.201 12.201h12.109c4.112 27.42 27.822 48.515 56.37 48.515 8.646 0 16.954-1.888 24.693-5.612 3.643-1.753 5.176-6.128 3.422-9.771-1.752-3.644-6.13-5.173-9.77-3.422-5.742 2.763-11.914 4.165-18.344 4.165-23.359 0-42.364-19.004-42.364-42.364s19.005-42.364 42.364-42.364c23.36 0 42.365 19.004 42.365 42.364 0 6.611-1.478 12.94-4.393 18.81-1.798 3.621-.319 8.014 3.302 9.812 3.62 1.799 8.013.319 9.812-3.301 2.659-5.355 4.408-10.994 5.276-16.832h12.118c6.728 0 12.201-5.473 12.201-12.201v-2.576h21.009c9.419 0 17.081-7.663 17.081-17.081v-67.267c-.004-.203-.018-.4-.034-.597zm-497.329-9.792c0-6.768 4.974-12.381 11.454-13.416v26.832c-6.48-1.036-11.454-6.649-11.454-13.416zm432.311-221.249c6.942 1.026 12.801 5.739 15.292 12.3l33.313 87.762c2.491 6.56 1.234 13.974-3.278 19.348l-45.255 53.9-69.694-183.603zm-218.703 83.02 47.323-56.365 11.141 29.351c1.431 3.818 5.76 5.673 9.441 4.246 3.78-1.435 5.681-5.662 4.246-9.442l-12.303-32.411 73.824-28.024 73.133 192.659-58.205 22.35h-17.773l-47.217-124.388c-1.436-3.78-5.663-5.681-9.442-4.246s-5.68 5.662-4.246 9.442l45.244 119.192h-49.856l-19.985-2.955c-6.941-1.026-12.8-5.739-15.291-12.3l-33.314-87.761c-2.488-6.56-1.231-13.975 3.28-19.348zm-8.183 47.681 13.747 36.216-13.747 4.92zm0 56.686 18.945-6.78 5.587 14.718c1.417 3.733 3.464 7.117 5.987 10.059h-30.518v-17.997zm-179.33 59.792v-69.852c0-1.425.105-2.838.293-4.236h107.8c12.109 0 21.962-9.852 21.962-21.962v-69.764h27.315c4.037 0 7.321 3.284 7.321 7.321v158.853h-5.092c-4.986-7.134-13.214-11.489-22.002-11.489h-70.928c-8.789 0-17.017 4.355-22.002 11.489h-44.667zm26.092 32.304c-1.406 2.436-2.49 5.033-3.265 7.719l-18.255-14.626c-3.167-2.504-4.778-6.392-4.572-10.396h36.084zm76.039 85.153c-23.359 0-42.364-19.004-42.364-42.364s19.005-42.364 42.364-42.364c23.36 0 42.365 19.004 42.365 42.364-.001 23.359-19.005 42.364-42.365 42.364zm66.039-48.515h-9.37c-3.078-28.55-27.314-50.854-56.669-50.854-29.354 0-53.59 22.304-56.668 50.854h-9.37v-19.313c0-3.507.927-6.967 2.68-10.005l17.328-30.013c2.172-3.763 6.221-6.1 10.566-6.1h70.928c4.345 0 8.393 2.338 10.566 6.1l17.327 30.013c1.754 3.037 2.681 6.497 2.681 10.004v19.314zm108.285-36.638c-3.036 5.261-4.641 11.251-4.641 17.324v4.536h-89.003v-4.536c0-6.074-1.605-12.065-4.643-17.325l-9.99-17.303h118.268zm142.077 36.638h-9.371c-3.078-28.55-27.314-50.854-56.669-50.854-29.354 0-53.59 22.304-56.668 50.854h-9.37v-19.313c0-3.507.927-6.967 2.68-10.005l17.328-30.013c2.172-3.763 6.222-6.1 10.566-6.1h70.928c4.345 0 8.393 2.338 10.566 6.1l17.327 30.013c1.754 3.037 2.681 6.497 2.681 10.004v19.314zm38.091-17.218c0 1.345-1.094 2.44-2.44 2.44h-21.009v-4.536c0-6.074-1.605-12.065-4.643-17.325l-9.99-17.303h38.082zm0-51.365h-46.664c-4.986-7.134-13.214-11.489-22.002-11.489h-70.928c-8.789 0-17.017 4.355-22.002 11.489h-115.697v-27.513h265.092c6.728 0 12.201 5.473 12.201 12.201z"/><path d="m142.867 374.366c-14.995 0-27.194 12.199-27.194 27.195 0 14.995 12.199 27.194 27.194 27.194s27.195-12.199 27.195-27.194c-.001-14.995-12.201-27.195-27.195-27.195zm0 39.748c-6.921 0-12.553-5.631-12.553-12.553s5.631-12.554 12.553-12.554 12.554 5.631 12.554 12.554c-.001 6.922-5.632 12.553-12.554 12.553z"/><path d="m366.035 401.561c0 14.995 12.199 27.194 27.194 27.194s27.195-12.199 27.195-27.194-12.2-27.195-27.195-27.195-27.194 12.2-27.194 27.195zm39.748 0c0 6.922-5.631 12.553-12.554 12.553-6.921 0-12.553-5.631-12.553-12.553s5.631-12.554 12.553-12.554 12.554 5.632 12.554 12.554z"/><path d="m120.451 283.798h21.413c4.043 0 7.321-3.278 7.321-7.321s-3.277-7.321-7.321-7.321h-21.413c-4.043 0-7.321 3.278-7.321 7.321s3.278 7.321 7.321 7.321z"/></g></svg>