<svg id="Capa_1" enable-background="new 0 0 512 512" height="512" viewBox="0 0 512 512" width="512" xmlns="http://www.w3.org/2000/svg"><g><path d="m443.517 103.486c-.078-21.66-17.763-39.282-39.422-39.282-11.853-.077-23.121 5.294-30.599 14.48 0 0-.072-41.391-.214-42.765-.408-3.962-3.956-6.844-7.913-6.433-5.419.506-7.134 5.874-6.296 10.575v32.34h-50.002v-32.976c0-13.524 10.995-24.738 24.51-24.996 3.778-.086 7.469.726 10.906 2.373 3.589 1.722 7.898.208 9.62-3.385 1.722-3.592.206-7.899-3.385-9.62-5.486-2.63-11.342-3.903-17.417-3.789-14.88.285-27.822 8.986-34.281 21.47-1.95-3.748-4.486-7.201-7.539-10.196-7.614-7.471-17.56-11.48-28.071-11.274-21.316.408-38.658 18.091-38.658 39.417v4.01c-1.1-1.416-2.297-2.763-3.586-4.028-7.614-7.47-17.562-11.475-28.071-11.274-21.316.408-38.658 18.091-38.658 39.456l.245 45.569c.022 3.97 3.246 7.173 7.211 7.173h.039c3.983-.022 7.195-3.268 7.173-7.25l-.245-45.531c0-13.524 10.995-24.738 24.511-24.996 13.663-.606 25.766 12.083 25.491 25.633v116.745c0 3.773-.978 7.506-2.829 10.793l-11.603 20.606c-5.33 9.465-8.147 20.211-8.147 31.074v59.114c0 5.538-.932 10.997-2.768 16.223l-16.562 47.108c-2.224-2.803-4.778-5.368-7.638-7.608l-34.078-26.695c-14.663-11.486-25.417-26.933-31.1-44.671l-20.29-63.328c-4.127-12.881 2.922-26.914 15.716-31.283 12.848-4.715 28.218 3.628 32.096 16.632l20.095 62.724c.708 2.208 3.606 8.701 4.477 10.638 1.397 3.108 4.78 4.807 8.109 4.089 3.33-.724 5.698-3.68 5.679-7.088l-.753-135.339c-.023-3.969-3.246-7.171-7.211-7.171-.014 0-.027 0-.041 0-3.982.023-7.193 3.269-7.171 7.252l.51 91.577-9.958-31.083c-3.275-10.222-10.683-18.865-20.324-23.711-9.53-4.791-20.246-5.561-30.171-2.171-20.177 6.892-31.297 29.023-24.79 49.333l20.29 63.328c6.568 20.499 18.996 38.351 35.941 51.625l34.078 26.695c7.539 5.905 12.048 14.998 12.064 24.314v87.645c0 14.58 11.863 26.443 26.443 26.443h174.115c14.58 0 26.443-11.863 26.443-26.443v-86.456c-.426-17.988 5.313-35.975 11.848-52.566 5.152-14.117 7.763-28.895 7.763-43.92v-42.015c0-6.181 1.117-12.241 3.323-18.013l14.22-37.231c4.773-12.501 7.162-25.611 7.1-38.958zm-57.169-17.538c4.705-4.721 10.965-7.321 17.629-7.321h.118c13.734 0 24.948 11.174 24.998 24.911l.121 33.618h-50.003l-.121-33.554c-.024-6.663 2.554-12.933 7.258-17.654zm-122.658-71.519c.156-.004.31-.005.466-.005 6.414 0 12.515 2.53 17.228 7.153 4.955 4.861 7.798 11.599 7.798 18.485v32.34h-50.002v-32.977c0-13.524 10.995-24.738 24.51-24.996zm-76.778 471.128v-87.657c-.006-3.275-.395-6.525-1.119-9.697l17.871-50.829h48.407c3.983 0 7.212-3.228 7.212-7.212 0-3.983-3.228-7.212-7.212-7.212h-43.536c1.44-5.353 2.177-10.858 2.177-16.429v-50.74h194.158c-.118 1.599-.193 46.833-.193 46.833 0 6.854-.623 13.648-1.839 20.336h-116.331c-3.983 0-7.212 3.228-7.212 7.212 0 3.983 3.228 7.212 7.212 7.212h112.716c-3.834 11.446-9.671 25.004-11.743 36.96h-154.705c-11.929 0-21.635 9.706-21.635 21.635v94.395c0 2.528.44 4.955 1.241 7.212h-13.449c-6.628 0-12.02-5.391-12.02-12.019zm198.154 0c0 6.628-5.392 12.02-12.02 12.02h-140.271c-3.977 0-7.212-3.235-7.212-7.212v-77.031h6.19c3.983 0 7.212-3.228 7.212-7.212 0-3.983-3.228-7.212-7.212-7.212h-6.19v-2.941c0-3.977 3.235-7.212 7.212-7.212h152.712c-.277 3.432-.422 6.88-.422 10.343v86.457zm38.102-285.347c-.425 1.209-16.062 41.746-15.558 41.148h-196.515c.787-6.29 2.786-12.404 5.908-17.949 0 0 13.119-23.548 13.726-25.083 4.776-.724 8.451-4.846 8.451-9.82v-101.681h50.002v101.68c0 5.483 4.461 9.944 9.944 9.944 5.484 0 9.945-4.461 9.945-9.944v-101.68h50.002v96.756c0 3.943 2.814 7.324 6.693 8.038 3.877.706 7.712-1.441 9.115-5.121 2.618-6.27 4.593-13.001 4.438-19.834l-.054-15.084h50.003l.054 14.878c.052 11.566-2.017 22.922-6.154 33.752z"/><path d="m263.968 63.957c3.983 0 7.212-3.228 7.212-7.212v-16.226c0-3.983-3.228-7.212-7.212-7.212s-7.212 3.228-7.212 7.212v16.226c0 3.984 3.229 7.212 7.212 7.212z"/><path d="m326.86 40.519v16.226c0 3.983 3.228 7.212 7.212 7.212 3.983 0 7.212-3.228 7.212-7.212v-16.226c0-3.983-3.228-7.212-7.212-7.212s-7.212 3.229-7.212 7.212z"/><path d="m404.166 128.445c3.983 0 7.212-3.228 7.212-7.212v-16.226c0-3.983-3.228-7.212-7.212-7.212-3.983 0-7.212 3.228-7.212 7.212v16.226c0 3.984 3.229 7.212 7.212 7.212z"/><path d="m230.1 266.563h-21.105c-3.983 0-7.212 3.228-7.212 7.212 0 3.983 3.228 7.212 7.212 7.212h21.105c3.983 0 7.212-3.228 7.212-7.212-.001-3.984-3.229-7.212-7.212-7.212z"/><path d="m327.947 280.987h21.104c3.983 0 7.212-3.228 7.212-7.212 0-3.983-3.228-7.212-7.212-7.212h-21.104c-3.983 0-7.212 3.228-7.212 7.212 0 3.983 3.229 7.212 7.212 7.212z"/><path d="m268.47 280.987h21.105c3.983 0 7.212-3.228 7.212-7.212 0-3.983-3.228-7.212-7.212-7.212h-21.105c-3.983 0-7.212 3.228-7.212 7.212.001 3.983 3.229 7.212 7.212 7.212z"/><path d="m387.645 280.987h21.104c3.983 0 7.212-3.228 7.212-7.212 0-3.983-3.228-7.212-7.212-7.212h-21.104c-3.983 0-7.212 3.228-7.212 7.212.001 3.983 3.229 7.212 7.212 7.212z"/><path d="m300.081 406.122c0-3.983-3.228-7.212-7.212-7.212h-21.686c-3.983 0-7.212 3.228-7.212 7.212 0 3.983 3.228 7.212 7.212 7.212h21.686c3.983 0 7.212-3.229 7.212-7.212z"/><path d="m361.195 406.122c0-3.983-3.228-7.212-7.212-7.212h-21.685c-3.983 0-7.212 3.228-7.212 7.212 0 3.983 3.228 7.212 7.212 7.212h21.685c3.983 0 7.212-3.229 7.212-7.212z"/><path d="m370.761 472.354h-19.218c-3.983 0-7.212 3.228-7.212 7.212 0 3.983 3.228 7.212 7.212 7.212h19.218c3.983 0 7.212-3.228 7.212-7.212s-3.229-7.212-7.212-7.212z"/><path d="m316.6 472.354h-19.218c-3.983 0-7.212 3.228-7.212 7.212 0 3.983 3.228 7.212 7.212 7.212h19.218c3.983 0 7.212-3.228 7.212-7.212s-3.229-7.212-7.212-7.212z"/><path d="m262.44 472.354h-19.218c-3.983 0-7.212 3.228-7.212 7.212 0 3.983 3.228 7.212 7.212 7.212h19.218c3.983 0 7.212-3.228 7.212-7.212s-3.228-7.212-7.212-7.212z"/><path d="m200.975 84.511v-16.227c0-3.983-3.228-7.212-7.212-7.212s-7.212 3.228-7.212 7.212v16.226c0 3.983 3.228 7.212 7.212 7.212s7.212-3.228 7.212-7.211z"/><path d="m105.843 217.141c-3.795 1.209-5.891 5.266-4.681 9.061l4.927 15.46c.977 3.067 3.813 5.024 6.869 5.024.726 0 1.464-.11 2.192-.343 3.795-1.209 5.891-5.266 4.681-9.061l-4.927-15.46c-1.208-3.796-5.269-5.894-9.061-4.681z"/></g></svg>