<svg id="Capa_1" enable-background="new 0 0 512.001 512.001" height="512" viewBox="0 0 512.001 512.001" width="512" xmlns="http://www.w3.org/2000/svg"><g><path d="m507.689 277.549c-4.613-5.273-9.54-10.368-14.65-15.15-2.961-2.771-7.675-2.911-10.52-.022-2.922 2.966-2.805 7.738.22 10.559 4.863 4.535 9.55 9.376 13.929 14.389.389.446.602 1.019.602 1.61v25.88h-47.317c-8.348-35.319-40.118-61.689-77.952-61.689-2.619 0-5.206.136-7.761.382 2.231-1.314 3.636-3.707 3.636-6.334v-26.049c19.614 2.175 28.64 4.462 49.227 11.359 14.542 5.39 28.455 12.479 41.342 21.149 3.331 2.254 7.938 1.401 10.223-2 2.271-3.375 1.375-7.952-2-10.223-15.053-10.127-31.41-18.24-48.521-24.189v-17.541l11.886-9.433c3.159-2.507 3.983-7.127 1.573-10.36-2.494-3.346-7.241-3.949-10.488-1.372l-12.315 9.774c-3.404 2.701-5.388 6.809-5.388 11.154v13.231c-11.617-3.142-23.551-5.203-35.54-6.366v-93.076c3.608-.732 6.259-4.102 5.851-8.009-.395-3.787-3.757-6.575-7.565-6.575h-100.01c-4.151 0-7.756 3.397-7.656 7.546.058 2.409 1.276 4.528 3.114 5.829l-6.481 15.444c-1.56 3.718-.056 8.162 3.613 9.833 3.798 1.73 8.249-.028 9.852-3.85l8.424-20.072h22.472v107.972h-66.082c.191-3.137.898-6.197 2.122-9.115l20.325-48.431c1.561-3.719.054-8.164-3.617-9.833-3.799-1.728-8.246.031-9.849 3.851l-20.444 48.714c-2.208 5.264-3.328 10.825-3.328 16.532v38.508c0 7.865 6.376 14.241 14.241 14.241h2.264v22.302h-13.945c-8.846-15.817-23.369-27.615-40.228-33.284-7.28-2.46-14.953-3.733-22.803-3.75-26.365 0-50.282 14.123-63.044 37.034h-19.657c-8.407 0-15.223 6.815-15.223 15.223v39.799c0 7.154 4.967 13.155 11.629 14.776l-12.271 3.282c-.502-1.462-1.172-2.887-2.05-4.234l-24.313-37.286c-1.974-3.027-5.31-4.834-8.923-4.834h-8.082c-2.739 0-5.445.921-7.46 2.776-3.319 3.054-4.317 7.716-2.738 11.755 2.516 6.429 3.792 13.222 3.792 20.191 0 10.248-2.818 20.254-8.153 28.946-1.537 2.505-2.072 5.548-1.308 8.386 1.29 4.796 5.586 7.948 10.321 7.948h22.318c3.515 0 6.917-1.234 9.615-3.487l11.18-9.337c1.788-1.493 3.23-3.257 4.329-5.181l41.68-11.147c13.454 18.551 34.937 29.703 58.358 29.703 25.836.038 50.371-14.316 63.031-37.034h13.945v.15c0 3.415 2.288 6.493 5.616 7.259 4.828 1.111 9.115-2.526 9.115-7.164v-.245h23.896v.151c0 3.415 2.289 6.493 5.617 7.258 4.828 1.11 9.114-2.527 9.114-7.165v-.245h11.534c13.039 26.617 40.404 44.992 71.987 44.992s58.947-18.376 71.987-44.992h14.996c5.116 0 10.073-1.775 14.026-5.022l33.792-27.756c3.305-2.716 5.2-6.727 5.2-11.004v-35.645c0-4.195-1.55-8.23-4.312-11.387zm-207.675 20.569h-11.534v-22.302h17.329c4.004.172 8.082-.357 11.911-1.432-7.274 6.714-13.306 14.752-17.706 23.734zm-26.265 32.094h-23.896v-17.363h23.896zm0-32.134h-23.604v-22.263h23.604zm79.395-184.699v129.064l-36.39 16.639c-.83.379-1.676.699-2.534.971v-146.674zm-119.795 122.703h66.14v25.002h-66.14zm-29.79 62.036h-18.334v-15.455c7.077 3.797 13.352 9.053 18.334 15.455zm-33.066-20.935v20.935h-24.696v-20.971c4.001-.872 8.134-1.331 12.348-1.331 4.197 0 8.334.471 12.348 1.367zm-39.428 5.38v15.554h-18.367c5.002-6.492 11.271-11.767 18.367-15.554zm-86.729 98.151-11.255 9.4h-15.533c4.589-9.482 6.989-19.914 6.989-30.549 0-6.829-.971-13.53-2.89-19.99h.436l23.107 35.435c1.201 1.842.834 4.294-.854 5.704zm70.995-9.178c2.647-.763 8.091-1.954 10.497-3.174h5.237v15.555c-5.901-3.149-11.229-7.329-15.734-12.381zm30.466 17.797v-20.971h24.696v20.935c-4.015.895-8.151 1.367-12.348 1.367-4.214 0-8.347-.459-12.348-1.331zm39.428-5.516v-15.456h18.335c-4.983 6.403-11.258 11.659-18.335 15.456zm-46.609-30.187c.667-2.196 1.041-4.508 1.041-6.89v-13.708c0-4.068-3.298-7.366-7.366-7.366s-7.366 3.298-7.366 7.366v13.708c0 2.712-1.212 5.201-3.174 6.89h-46.307c-.271 0-.491-.22-.491-.491v-39.799c0-.271.22-.491.491-.491h159.677v40.781zm111.237 0v-8.687h23.896v8.687zm38.628 0v-40.781h6.044c-1.716 6.514-2.638 13.346-2.638 20.39s.922 13.877 2.638 20.39h-6.044zm83.52 44.992c-36.052 0-65.383-29.331-65.383-65.383s29.33-65.382 65.383-65.382 65.383 29.33 65.383 65.382-29.33 65.383-65.383 65.383zm91.658-46.666c-1.315 1.079-2.975 1.674-4.677 1.674h-9.505c2.018-7.62 2.951-15.945 2.544-24.083h38.919z"/><path d="m372.001 298.078c-3.984 0-7.895.663-11.626 1.97-3.839 1.345-5.861 5.547-4.516 9.387 1.345 3.839 5.545 5.862 9.387 4.516 2.162-.757 4.435-1.141 6.756-1.141 11.265 0 20.43 9.165 20.43 20.43s-9.165 20.43-20.43 20.43-20.43-9.165-20.43-20.43c0-4.068-3.297-7.366-7.366-7.366s-7.366 3.298-7.366 7.366c0 19.388 15.773 35.162 35.161 35.162s35.161-15.774 35.161-35.162-15.773-35.162-35.161-35.162z"/><path d="m457.402 299.564c0 4.068 3.297 7.366 7.366 7.366h13.074c4.069 0 7.366-3.298 7.366-7.366s-3.297-7.366-7.366-7.366h-13.074c-4.069 0-7.366 3.298-7.366 7.366z"/></g></svg>