<svg id="Capa_1" enable-background="new 0 0 512 512" height="512" viewBox="0 0 512 512" width="512" xmlns="http://www.w3.org/2000/svg"><g><path d="m391.931 0h-18.648c-4.074 0-7.376 3.302-7.376 7.376s3.302 7.376 7.376 7.376h18.648c20.026 0 36.32 16.293 36.32 36.32v94.634c-10.566-3.017-19.506-10.458-24.295-20.615-2.587-5.487-5.693-10.774-9.231-15.718v-39.045c0-9.49-7.721-17.21-17.21-17.21h-130.165c-9.49 0-17.21 7.721-17.21 17.21v39.044c-3.543 4.952-6.643 10.228-9.23 15.717-4.79 10.157-13.73 17.598-24.296 20.615v-94.633c0-20.026 16.293-36.32 36.32-36.32h106.609c4.074 0 7.376-3.302 7.376-7.376s-3.304-7.375-7.378-7.375h-106.608c-28.161 0-51.071 22.91-51.071 51.071v64.904h-14.705c-10.28 0-18.908 7.183-21.144 16.792-13.03 5.15-22.276 17.861-22.276 32.7v33.59h-10.715c-7.321 0-13.277 5.955-13.277 13.277v42.724c0 3.102.473 6.096 1.348 8.914-8.105 7.793-12.698 18.466-12.698 29.837 0 17.609 22.193 48.409 32.071 61.245-4.27 5.534-11.799 15.543-19.848 27.421-2.285 3.372-1.404 7.958 1.969 10.244 3.372 2.284 7.959 1.405 10.244-1.969 6.488-9.573 12.725-18.022 17.025-23.685 16.731 21.969 46.071 64.549 46.071 84.096 0 25.413-20.676 46.088-46.089 46.088s-46.088-20.675-46.088-46.088c0-4.909 2.078-14.57 11.977-32.723 1.95-3.577.632-8.057-2.945-10.007-3.578-1.948-8.057-.632-10.007 2.945-9.271 17-13.777 30.015-13.777 39.786 0 33.547 27.293 60.84 60.84 60.84 33.548 0 60.841-27.293 60.841-60.84 0-27.57-38.557-79.514-51.458-96.122 9.883-12.844 32.061-43.627 32.061-61.23 0-11.303-4.671-22.072-12.701-29.828.878-2.821 1.351-5.818 1.351-8.924v-42.724c0-7.321-5.955-13.277-13.277-13.277h-8.165v-33.59c0-7.302 3.869-13.703 9.653-17.308 3.702 6.697 10.836 11.244 19.015 11.244h14.705v180.953c0 18.015 5.476 35.328 15.836 50.068l31.001 44.107c10.272 14.614 27.069 23.34 44.932 23.34h77.603c17.863 0 34.661-8.725 44.932-23.34l31.001-44.107c10.36-14.739 15.836-32.053 15.836-50.068v-289.285c-.001-28.161-22.912-51.071-51.073-51.071zm-262.094 342.987c-12.075-16.177-26.691-39.066-26.691-49.178 0-6.251 2.157-12.174 6.034-16.899 5.394 5.102 12.664 8.24 20.656 8.24 7.988 0 15.254-3.134 20.647-8.23 3.853 4.721 6.045 10.68 6.045 16.889.001 10.112-14.616 33.001-26.691 49.178zm15.342-87.93c0 8.459-6.882 15.341-15.342 15.341-8.459 0-15.341-6.881-15.341-15.341v-41.248h30.682v41.248zm99.712-184.729c0-1.356 1.103-2.459 2.459-2.459h130.164c1.356 0 2.459 1.103 2.459 2.459v148.772c0 1.356-1.103 2.459-2.459 2.459h-130.164c-1.356 0-2.459-1.103-2.459-2.459zm-77.735 74.323c-1.391 0-2.686-.414-3.774-1.121 1.751-1.348 2.884-3.46 2.884-5.841s-1.133-4.493-2.884-5.841c1.089-.706 2.383-1.121 3.774-1.121h14.705v13.924zm247.942 237.29-31.001 44.107c-7.513 10.688-19.799 17.07-32.864 17.07h-77.603c-13.065 0-25.351-6.382-32.864-17.07l-31.001-44.107c-8.604-12.243-13.153-26.622-13.153-41.585v-179.475c13.663-2.767 25.714-10.804 33.527-22.307v80.527c0 9.49 7.721 17.21 17.21 17.21h130.164c9.49 0 17.21-7.721 17.21-17.21v-80.527c7.812 11.503 19.863 19.54 33.527 22.307v179.475c.001 14.963-4.548 29.342-13.152 41.585z"/><path d="m252.851 261.861c-15.049 0-27.291 12.242-27.291 27.291s12.242 27.291 27.291 27.291 27.291-12.242 27.291-27.291-12.242-27.291-27.291-27.291zm0 39.83c-6.914 0-12.539-5.625-12.539-12.539s5.625-12.539 12.539-12.539 12.539 5.625 12.539 12.539-5.625 12.539-12.539 12.539z"/><path d="m372.012 261.861c-15.049 0-27.291 12.242-27.291 27.291s12.242 27.291 27.291 27.291 27.291-12.242 27.291-27.291-12.242-27.291-27.291-27.291zm0 39.83c-6.914 0-12.539-5.625-12.539-12.539s5.625-12.539 12.539-12.539 12.539 5.625 12.539 12.539-5.625 12.539-12.539 12.539z"/><path d="m252.851 338.27c-15.049 0-27.291 12.242-27.291 27.291s12.242 27.291 27.291 27.291 27.291-12.242 27.291-27.291-12.242-27.291-27.291-27.291zm0 39.83c-6.914 0-12.539-5.625-12.539-12.539s5.625-12.539 12.539-12.539 12.539 5.625 12.539 12.539-5.625 12.539-12.539 12.539z"/><path d="m372.012 338.27c-15.049 0-27.291 12.242-27.291 27.291 0 4.074 3.302 7.376 7.376 7.376s7.376-3.302 7.376-7.376c0-6.914 5.625-12.539 12.539-12.539s12.539 5.625 12.539 12.539-5.625 12.539-12.539 12.539c-4.074 0-7.376 3.302-7.376 7.376s3.302 7.376 7.376 7.376c15.049 0 27.291-12.242 27.291-27.291s-12.242-27.291-27.291-27.291z"/><path d="m312.432 299.681c-15.049 0-27.291 12.242-27.291 27.291s12.242 27.291 27.291 27.291 27.291-12.242 27.291-27.291-12.243-27.291-27.291-27.291zm0 39.829c-6.914 0-12.539-5.625-12.539-12.539s5.625-12.539 12.539-12.539 12.539 5.625 12.539 12.539-5.625 12.539-12.539 12.539z"/><path d="m276.496 146.25c-.785 3.997 1.819 7.873 5.817 8.658 3.999.788 7.873-1.821 8.658-5.817.414-2.109 2.282-3.641 4.442-3.641 6.869 1.2 4.594 6.775.685 12.196-7.345 10.495-11.725 16.23-14.078 19.311-3.056 4-4.9 6.416-3.683 10.372.72 2.34 2.557 4.206 4.909 4.99.979.327 19.459.536 26.135.451 4.073-.051 7.334-3.395 7.282-7.468-.051-4.041-3.343-7.283-7.373-7.283-.032 0-.063 0-.095.001-3.178.039-6.503.07-9.6.088 2.279-3.103 5.11-7.035 8.588-12.003 3.89-5.779 6.162-10.244 6.51-16.128 0-10.631-8.648-19.28-19.279-19.28-9.193.002-17.149 6.542-18.918 15.553z"/><path d="m345.442 193.6c11.484 0 20.828-9.344 20.828-20.828v-21.513c0-11.485-9.344-20.828-20.828-20.828-11.485 0-20.828 9.344-20.828 20.828v21.513c0 11.484 9.343 20.828 20.828 20.828zm-6.077-42.341c0-3.351 2.726-6.076 6.076-6.076 3.351 0 6.076 2.726 6.076 6.076v21.513c0 3.351-2.726 6.076-6.076 6.076-3.351 0-6.076-2.726-6.076-6.076z"/><path d="m264.968 98.704h18.765c4.074 0 7.376-3.302 7.376-7.376s-3.302-7.376-7.376-7.376h-18.765c-4.074 0-7.376 3.302-7.376 7.376s3.302 7.376 7.376 7.376z"/></g></svg>