<svg id="Capa_1" enable-background="new 0 0 512 512" height="512" viewBox="0 0 512 512" width="512" xmlns="http://www.w3.org/2000/svg"><g><path d="m454.947 161.989h-22.554v-7.581c0-58.624-34.613-111.893-88.179-135.712-56.062-24.927-120.366-24.927-176.427 0-53.567 23.818-88.179 77.088-88.179 135.712v7.581h-22.554c-6.765 0-12.268 5.503-12.268 12.268v36.84c0 6.765 5.503 12.268 12.268 12.268h22.554v38.911c0 7.154 2.084 14.091 6.026 20.063 22.261 33.711 34.027 72.883 34.027 113.279 0 64.173 52.208 116.381 116.381 116.381h39.916c64.173 0 116.381-52.209 116.381-116.382 0-40.396 11.766-79.568 34.026-113.278 3.943-5.971 6.027-12.909 6.027-20.063v-38.911h22.554c6.765 0 12.268-5.503 12.268-12.268v-36.84c.001-6.765-5.503-12.268-12.267-12.268zm-395.44 46.654v-31.933h20.101v31.933zm358.164 53.633c0 4.261-1.242 8.394-3.59 11.951-12.741 19.295-22.271 40.261-28.388 62.204-33.534 20.282-75.979 30.568-126.227 30.568-13.246 0-26.134-.73-38.306-2.17-4.037-.473-7.697 2.409-8.175 6.446-.477 4.037 2.408 7.697 6.446 8.175 12.744 1.508 26.214 2.272 40.035 2.272 47.189 0 88.055-8.73 121.77-25.968-2.397 13.071-3.618 26.405-3.618 39.866 0 56.055-45.604 101.659-101.66 101.659h-39.916c-56.055 0-101.659-45.604-101.659-101.659 0-14.899-1.494-29.643-4.426-44.046 13.069 7.431 27.4 13.54 42.793 18.244l2.902 29.076c.427 4.283 3.996 7.514 8.301 7.514s7.874-3.231 8.301-7.513l5.912-59.234c.378-3.789 2.391-7.173 5.36-9.364 15.837 4.357 33.472 6.564 52.475 6.564 84.047 0 116.555-42.607 126.631-60.925 2.714-4.933 4.243-10.473 4.489-16.114.051-.667.086-132.613.086-132.613 0-12.176-9.906-22.083-22.083-22.083h-218.246c-12.177 0-22.083 9.907-22.083 22.083v130.595c.052 6.314 1.504 12.611 4.574 18.131 4.542 8.259 12.477 19.49 25.673 30.151l-8.619 2.321c-3.635.979-6.174 4.291-6.174 8.056 0 3.764 2.539 7.076 6.173 8.055l13.569 3.654c5.287 1.424 9.205 6.041 9.749 11.489l1.409 14.119c-16.516-5.779-33.247-14.241-46.479-22.915-6.127-19.922-15.092-38.979-26.751-56.635-2.348-3.558-3.59-7.691-3.59-11.952v-107.87c0-26.719 7.992-52.195 22.127-73.634h61.385c4.065 0 7.361-3.295 7.361-7.361s-3.296-7.361-7.361-7.361h-50.158c12.508-14.233 28.109-25.911 46.084-33.903 26.131-11.62 54.182-17.429 82.233-17.429s56.102 5.809 82.232 17.428c17.975 7.992 33.576 19.67 46.084 33.903h-173.261c-4.065 0-7.361 3.295-7.361 7.361s3.296 7.361 7.361 7.361h184.489c14.135 21.439 22.127 46.915 22.127 73.634zm-196.188 46.131-13.643-3.674c-5.259-1.416-9.173-6.006-9.741-11.422l-.996-9.499h161.957c-15.336 17.266-45.787 38.327-103.059 38.327-10.215 0-19.957-.701-29.186-2.045.538-1.108.842-2.341.842-3.631-.001-3.765-2.54-7.078-6.174-8.056zm150.942-49.451c-.579 5.684-5.394 10.134-11.228 10.134h-165.638l-1.053-10.039h152.11c8.388 0 15.213-6.824 15.213-15.213v-75.388c0-8.388-6.824-15.213-15.213-15.213h-21.161c-4.065 0-7.361 3.295-7.361 7.361s3.296 7.361 7.361 7.361h21.161c.271 0 .491.22.491.491v75.388c0 .27-.22.491-.491.491h-153.654l-.712-6.79c-.446-4.261-4.013-7.474-8.297-7.474s-7.851 3.213-8.297 7.472l-.712 6.792h-9.559c-.271 0-.491-.22-.491-.491v-75.388c0-.27.22-.491.491-.491h126.693c4.065 0 7.361-3.295 7.361-7.361s-3.296-7.361-7.361-7.361h-126.694c-8.388 0-15.213 6.824-15.213 15.213v75.388c0 8.388 6.824 15.213 15.213 15.213h8.015l-1.053 10.039h-21.543c-6.359.033-11.453-5.342-11.287-11.567v-130.314c0-4.059 3.302-7.361 7.361-7.361h218.245c4.059 0 7.361 3.302 7.361 7.361.001 0-.05 131.504-.058 131.747zm-201.622 24.856-.996 9.499c-.167 1.597-.632 3.118-1.33 4.511-6.376-4.646-11.486-9.484-15.506-14.01zm13.15 14.089c1.744 7.911 6.898 14.704 13.92 18.57-7.091 3.93-12.257 10.84-13.92 18.875-1.663-8.034-6.828-14.945-13.92-18.875 7.022-3.866 12.176-10.659 13.92-18.57zm268.54-89.258h-20.1v-31.933h20.1z"/><path d="m208.474 406.083-4.141 22.446c-.443 2.4-2.252 4.361-4.608 4.995l-12.893 3.471c-3.546.951-6.022 4.18-6.022 7.851s2.477 6.9 6.015 7.849l12.717 3.425c2.409.649 4.226 2.658 4.63 5.117l4.274 26.03c.648 3.947 4.022 6.811 8.021 6.811 4 0 7.373-2.864 8.021-6.812l4.274-26.028c.404-2.46 2.221-4.469 4.63-5.118l12.71-3.423c3.546-.951 6.022-4.18 6.022-7.851s-2.477-6.9-6.015-7.849l-12.899-3.473c-2.357-.634-4.166-2.595-4.609-4.995l-4.14-22.444c-.711-3.857-4.072-6.656-7.994-6.656-3.921 0-7.282 2.8-7.993 6.654zm7.994 31.58c1.624 2.887 3.91 5.366 6.656 7.217-2.774 1.907-5.061 4.455-6.656 7.42-1.595-2.965-3.882-5.513-6.656-7.42 2.746-1.851 5.032-4.331 6.656-7.217z"/></g></svg>