<svg id="Layer_1" enable-background="new 0 0 512 512" height="512" viewBox="0 0 512 512" width="512" xmlns="http://www.w3.org/2000/svg"><path d="m64 260h240v144h-240z" fill="#a67c52"/><circle cx="64" cy="348" fill="#998675" r="56"/><circle cx="304" cy="348" fill="#998675" r="56"/><path d="m281.491 204h-113.491v88h136v-65.491c0-12.431-10.078-22.509-22.509-22.509z" fill="#22b573"/><path d="m153.302 108h-57.076c-17.798 0-32.226 14.428-32.226 32.227v151.773h128v-145.302c0-21.372-17.326-38.698-38.698-38.698z" fill="#009245"/><path d="m119.623 148c-8.628 0-15.623 6.995-15.623 15.623v8.755c0 8.628 6.995 15.623 15.623 15.623h72.377v-40h-72.377z" fill="#29abe2"/><path d="m176 332c-8.837 0-16 7.164-16 16 0 8.836 7.163 16 16 16h248v-32z" fill="#009245"/><path d="m478.939 378.94c-14.958-14.958-25.153-34.008-29.302-54.75l-6.856-34.28c-1.617-8.087-8.718-13.909-16.966-13.909h-.514c-9.556 0-17.302 7.746-17.302 17.302v93.585c0 9.451 7.662 17.113 17.113 17.113h78.888z" fill="#009245"/><g><path d="m509.657 398.343-25.061-25.061c-13.887-13.887-23.262-31.406-27.114-50.663l-6.856-34.281c-2.357-11.784-12.792-20.338-24.81-20.338h-.514c-13.952 0-25.302 11.35-25.302 25.302v30.698h-36.671c-8.673-21.357-28.523-36.568-51.329-39.487v-58.003c0-16.823-13.687-30.51-30.51-30.51h-17.49v-39.213c0-8.688 3.383-16.856 9.527-23l4.13-4.13c3.125-3.124 3.125-8.189 0-11.313-3.124-3.124-8.189-3.124-11.313 0l-4.13 4.13c-9.166 9.165-14.214 21.351-14.214 34.313v39.213h-48v-8-40-1.302c0-25.75-20.949-46.698-46.698-46.698h-57.075c-22.182 0-40.227 18.046-40.227 40.227v144.291c-31.525 3.951-56 30.904-56 63.482 0 35.29 28.71 64 64 64h240c26.074 0 49.656-16.178 59.329-40h36.671v14.887c0 13.848 11.266 25.113 25.113 25.113h78.887c3.236 0 6.153-1.949 7.391-4.938s.554-6.43-1.734-8.719zm-164.099-74.343h-83.116c8.454-14.528 24.276-24 41.558-24s33.104 9.472 41.558 24zm-64.068-112c8 0 14.51 6.509 14.51 14.51v57.49h-96v-72zm-97.49-32h-64.377c-4.203 0-7.623-3.419-7.623-7.623v-8.755c0-4.203 3.419-7.623 7.623-7.623h64.377zm-112-39.773c0-13.359 10.868-24.227 24.227-24.227h57.075c14.626 0 26.888 10.285 29.953 24h-63.633c-13.025 0-23.622 10.597-23.622 23.623v8.755c0 13.025 10.597 23.622 23.623 23.622h64.377v88h-16-96zm-56 207.773c0-26.467 21.533-48 48-48s48 21.533 48 48-21.533 48-48 48-48-21.533-48-48zm90.264 48c13.314-11.737 21.736-28.898 21.736-48s-8.422-36.263-21.736-48h61.736 24 69.788c-7.391 6.477-13.322 14.652-17.117 24h-68.671c-6.403 0-12.429 2.491-16.986 7.033-4.523 4.538-7.014 10.564-7.014 16.967 0 13.234 10.766 24 24 24h68.671c3.796 9.348 9.726 17.523 17.117 24zm197.736 0c-17.282 0-33.104-9.472-41.558-24h83.116c-8.454 14.528-24.276 24-41.558 24zm53.629-40c-.027 0-.054 0-.081 0h-107.116c-.01 0-.019 0-.029 0h-74.403c-4.411 0-8-3.589-8-8 0-2.14.833-4.154 2.328-5.653 1.518-1.513 3.532-2.347 5.672-2.347h74.38.065 107.207c.008 0 .016.002.024.002.009 0 .018-.002.027-.002h42.297v16zm67.484 40c-5.025 0-9.113-4.088-9.113-9.113v-93.585c0-5.129 4.173-9.302 9.302-9.302h.514c4.418 0 8.254 3.145 9.121 7.478l6.856 34.28c4.473 22.365 15.362 42.711 31.49 58.838l11.404 11.404z"/><path d="m52.68 325.366c-3.128-3.121-8.193-3.114-11.314.013-6.04 6.055-9.366 14.088-9.366 22.621s3.326 16.566 9.366 22.621c1.563 1.566 3.613 2.35 5.664 2.35 2.044 0 4.089-.779 5.65-2.336 3.127-3.121 3.134-8.186.013-11.314-3.026-3.035-4.693-7.055-4.693-11.321s1.667-8.286 4.693-11.32c3.121-3.128 3.115-8.193-.013-11.314z"/><path d="m75.32 370.634c1.562 1.558 3.606 2.336 5.65 2.336 2.05 0 4.101-.784 5.664-2.35 6.04-6.053 9.366-14.087 9.366-22.62s-3.326-16.566-9.366-22.621c-3.122-3.128-8.187-3.134-11.314-.013s-3.134 8.186-.013 11.314c3.026 3.034 4.693 7.054 4.693 11.32s-1.667 8.286-4.693 11.32c-3.121 3.128-3.115 8.193.013 11.314z"/></g></svg>