<svg id="Layer_1" enable-background="new 0 0 512 512" height="512" viewBox="0 0 512 512" width="512" xmlns="http://www.w3.org/2000/svg"><path d="m8 156v56l56 80h248l16-136z" fill="#f7931e"/><path d="m485.58 175.16c-3.42-6.84-10.411-11.16-18.057-11.16h-76.787c-12.557 0-22.736 10.179-22.736 22.736v169.264h136v-104z" fill="#00a99d"/><path d="m490.58 196h-44.37c-12.27 0-22.21 9.94-22.21 22.21v3.58c0 12.27 9.94 22.21 22.21 22.21h55.87z" fill="#29abe2"/><path d="m288 324-40-32h-168l-40 32h-16v32h344v-32z" fill="#a67c52"/><g fill="#998675"><circle cx="448" cy="356" r="40"/><circle cx="224" cy="356" r="40"/><circle cx="112" cy="356" r="40"/></g><g><path d="m511.78 250.135-13.36-55.731c-.007-.034-.017-.067-.024-.102l-5.036-21.007c-.142-.593-.352-1.167-.625-1.713-4.805-9.611-14.467-15.582-25.215-15.582h-76.78c-16.95 0-30.74 13.79-30.74 30.74v129.26h-69.194l-20-16h41.194c4.057 0 7.471-3.036 7.945-7.065l15.876-134.948 13.595-33.987h82.584c4.418 0 8-3.582 8-8s-3.582-8-8-8h-88c-3.271 0-6.213 1.992-7.428 5.029l-13.988 34.971h-314.584c-4.418 0-8 3.582-8 8v56c0 1.641.505 3.243 1.446 4.588l56 80c.491.702 1.093 1.3 1.761 1.801l-22.013 17.611h-13.194c-4.418 0-8 3.582-8 8v32c0 4.418 3.582 8 8 8h40.679c3.821 22.671 23.58 40 47.321 40s43.499-17.329 47.321-40h17.359c3.821 22.671 23.58 40 47.321 40s43.499-17.329 47.321-40h96.678 32.679c3.821 22.671 23.58 40 47.321 40s43.499-17.329 47.321-40h8.679c4.418 0 8-3.582 8-8v-104c0-.628-.074-1.254-.22-1.865zm-19.842-14.135h-45.728c-7.835 0-14.21-6.375-14.21-14.21v-3.58c0-7.835 6.375-14.21 14.21-14.21h38.057zm-475.938-26.522v-45.478h303.004l-14.118 120h-56.886-168-11.835zm16 122.522h8c1.816 0 3.579-.618 4.998-1.753l37.808-30.247h162.388l37.809 30.247c1.418 1.135 3.181 1.753 4.998 1.753h72v16h-88.679c-3.821-22.671-23.58-40-47.321-40s-43.499 17.329-47.321 40h-17.359c-3.821-22.671-23.58-40-47.321-40s-43.499 17.329-47.321 40h-32.679zm80 56c-17.645 0-32-14.355-32-32s14.355-32 32-32 32 14.355 32 32-14.355 32-32 32zm112 0c-17.645 0-32-14.355-32-32s14.355-32 32-32 32 14.355 32 32-14.355 32-32 32zm224 0c-17.645 0-32-14.355-32-32s14.355-32 32-32 32 14.355 32 32-14.355 32-32 32zm48-40h-.679c-3.821-22.671-23.58-40-47.321-40s-43.499 17.329-47.321 40h-24.679v-24-137.26c0-8.128 6.612-14.74 14.74-14.74h76.78c4.378 0 8.339 2.291 10.521 6.029l2.39 9.971h-34.221c-16.658 0-30.21 13.552-30.21 30.21v3.58c0 16.658 13.552 30.21 30.21 30.21h49.563l.227.945z"/><path d="m264 268c4.418 0 8-3.582 8-8v-72c0-4.418-3.582-8-8-8s-8 3.582-8 8v72c0 4.418 3.582 8 8 8z"/><path d="m216 268c4.418 0 8-3.582 8-8v-72c0-4.418-3.582-8-8-8s-8 3.582-8 8v72c0 4.418 3.582 8 8 8z"/><path d="m168 268c4.418 0 8-3.582 8-8v-72c0-4.418-3.582-8-8-8s-8 3.582-8 8v72c0 4.418 3.582 8 8 8z"/><path d="m120 268c4.418 0 8-3.582 8-8v-72c0-4.418-3.582-8-8-8s-8 3.582-8 8v72c0 4.418 3.582 8 8 8z"/><path d="m80 236v-48c0-4.418-3.582-8-8-8s-8 3.582-8 8v48c0 4.418 3.582 8 8 8s8-3.582 8-8z"/></g></svg>