<svg id="Layer_1" enable-background="new 0 0 512 512" height="512" viewBox="0 0 512 512" width="512" xmlns="http://www.w3.org/2000/svg"><path d="m78.578 220c-9.482 0-18.726 2.962-26.441 8.474l-25.087 17.919c-11.955 8.539-19.05 22.326-19.05 37.018v48.589h184l64-48v-64z" fill="#f7931e"/><path d="m395.245 254.497c-12.628-6.888-26.782-10.497-41.166-10.497h-98.079v32h98.079c14.384 0 28.538 3.609 41.166 10.497l68.755 37.503v-32z" fill="#f7931e"/><path d="m203.113 132c-14.974 0-27.113 12.139-27.113 27.113v92.887h80l16-120z" fill="#fbb03b"/><path d="m228 164c-8.837 0-16 7.164-16 16 0 8.836 7.163 16 16 16h35.467l4.267-32z" fill="#29abe2"/><g fill="#998675"><circle cx="456" cy="332" r="48"/><circle cx="184" cy="332" r="48"/><circle cx="56" cy="332" r="48"/></g><g fill="#a67c52"><circle cx="456" cy="332" r="16"/><circle cx="184" cy="332" r="16"/><circle cx="56" cy="332" r="16"/></g><g><path d="m80 244c-4.418 0-8 3.582-8 8v8c0 4.418 3.582 8 8 8s8-3.582 8-8v-8c0-4.418-3.582-8-8-8z"/><path d="m112 244c-4.418 0-8 3.582-8 8v8c0 4.418 3.582 8 8 8s8-3.582 8-8v-8c0-4.418-3.582-8-8-8z"/><path d="m144 244c-4.418 0-8 3.582-8 8v8c0 4.418 3.582 8 8 8s8-3.582 8-8v-8c0-4.418-3.582-8-8-8z"/><path d="m456 276c-1.444 0-2.871.073-4.288.181l-52.638-28.702c-13.755-7.51-29.314-11.479-44.994-11.479h-87.876l5.192-38.939c0-.001 0-.002 0-.003l4.267-32v-.001l4.266-31.999c.305-2.286-.392-4.593-1.911-6.327-1.518-1.736-3.712-2.731-6.018-2.731h-68.887c-19.361 0-35.113 15.752-35.113 35.113v52.887h-40v-16.095c0-12.394-4.826-24.046-13.59-32.81l-4.753-4.753c-3.125-3.123-8.19-3.124-11.314.001-3.124 3.124-3.124 8.189 0 11.313l4.753 4.753c5.741 5.741 8.903 13.375 8.903 21.495v16.096h-33.419c-11.221 0-21.973 3.444-31.089 9.96l-25.092 17.921c-14.026 10.023-22.399 26.296-22.399 43.529v48.59c0 30.879 25.122 56 56 56 28.162 0 51.525-20.898 55.419-48h17.161c3.895 27.102 27.258 48 55.419 48 30.878 0 56-25.121 56-56 0-7.987-1.692-15.582-4.718-22.463l25.519-19.137c2.015-1.511 3.2-3.882 3.2-6.4h16v48c0 3.443 2.204 6.501 5.47 7.59l18.97 6.323c2.867 19.262 19.513 34.087 39.56 34.087 4.418 0 8-3.582 8-8s-3.582-8-8-8c-13.233 0-24-10.767-24-24s10.767-24 24-24c4.418 0 8-3.582 8-8s-3.582-8-8-8c-18.379 0-33.893 12.465-38.558 29.381l-9.442-3.147v-42.234h58.08c13.009 0 25.917 3.293 37.329 9.522l16.874 9.206c-5.248 8.524-8.283 18.549-8.283 29.272 0 30.879 25.122 56 56 56s56-25.121 56-56-25.122-56-56-56zm-272-116.887c0-10.539 8.574-19.113 19.113-19.113h59.749l-2.133 16h-32.729c-13.234 0-24 10.767-24 24s10.766 24 24 24h26.329l-5.333 40h-64.996zm72.462 28.887h-28.462c-4.411 0-8-3.589-8-8s3.589-8 8-8h30.596zm-200.462 184c-22.056 0-40-17.944-40-40s17.944-40 40-40 40 17.944 40 40-17.944 40-40 40zm128 0c-22.056 0-40-17.944-40-40s17.944-40 40-40 40 17.944 40 40-17.944 40-40 40zm64-92-21.223 15.915c-10.281-12.168-25.638-19.915-42.777-19.915-28.162 0-51.525 20.898-55.419 48h-17.161c-3.895-27.102-27.258-48-55.419-48-15.658 0-29.828 6.467-40 16.861v-9.451c0-12.079 5.87-23.485 15.699-30.511l25.092-17.921c6.388-4.565 13.922-6.978 21.788-6.978h89.42v24c0 4.418 3.582 8 8 8h72v16zm106.08-12h-90.08v-15.47l.071-.53h90.009c13.009 0 25.917 3.293 37.33 9.523l38.457 20.97c-4.014 2.127-7.74 4.727-11.103 7.728l-19.69-10.742c-13.755-7.51-29.314-11.479-44.994-11.479zm101.92 104c-22.056 0-40-17.944-40-40s17.944-40 40-40 40 17.944 40 40-17.944 40-40 40z"/><path d="m456 308c-13.234 0-24 10.767-24 24s10.766 24 24 24 24-10.767 24-24-10.766-24-24-24zm0 32c-4.411 0-8-3.589-8-8s3.589-8 8-8 8 3.589 8 8-3.589 8-8 8z"/><path d="m184 308c-13.234 0-24 10.767-24 24s10.766 24 24 24 24-10.767 24-24-10.766-24-24-24zm0 32c-4.411 0-8-3.589-8-8s3.589-8 8-8 8 3.589 8 8-3.589 8-8 8z"/><path d="m56 308c-13.234 0-24 10.767-24 24s10.766 24 24 24 24-10.767 24-24-10.766-24-24-24zm0 32c-4.411 0-8-3.589-8-8s3.589-8 8-8 8 3.589 8 8-3.589 8-8 8z"/></g></svg>