<svg id="Layer_1" enable-background="new 0 0 512 512" height="512" viewBox="0 0 512 512" width="512" xmlns="http://www.w3.org/2000/svg"><path d="m48 403.794h288v80h-288z" fill="#a67c52"/><g fill="#998675"><circle cx="48" cy="443.794" r="40"/><circle cx="336" cy="443.794" r="40"/></g><path d="m328.924 307.794h-136.924l-16-80h-150.83c-9.483 0-17.17 7.687-17.17 17.17v109.66c0 9.483 7.687 17.17 17.17 17.17h303.755c12.744 0 23.076-10.331 23.076-23.076v-17.849c-.001-12.744-10.332-23.075-23.077-23.075z" fill="#22b573"/><path d="m372.53 96.238c-45.184 15.129-83.29 46.234-107.162 87.473l-67.159 116.02 55.39 32.063 72.737-125.657c17.959-31.026 44.101-56.518 75.569-73.691l70.095-38.255 2.4-32.062z" fill="#22b573"/><path d="m251.123 89.027c-1.794-12.196-12.257-21.233-24.585-21.233h-153.689c-13.724 0-24.849 11.125-24.849 24.849v247.151h240z" fill="#009245"/><path d="m253.882 107.794h-205.882v176h231.765z" fill="#29abe2"/><path d="m454.07 36.392-39.331 244.861c-1.401 8.725 4.535 16.934 13.26 18.335s16.934-4.535 18.335-13.26l17.762-110.583 20.872-29.058 19.032-118.48z" fill="#009245"/><path d="m450.755 299.794h-18.755v64l-24 32h42.755c24.988 0 45.245-20.257 45.245-45.245v-5.51c0-24.989-20.257-45.245-45.245-45.245z" fill="#998675"/><path d="m136 371.794h96v32h-96z" fill="#a67c52"/><g><path d="m471.696 178.88 19.77-27.524c.725-1.009 1.205-2.172 1.401-3.398l19.031-118.48c.408-2.539-.43-5.119-2.251-6.935s-4.399-2.648-6.941-2.229l-49.93 8.185c-3.398.557-6.059 3.226-6.604 6.626l-4.757 29.612-71.425 23.911c-40.366 13.518-75.241 39.238-100.045 73.391l-10.908-74.176c-2.353-16.002-16.325-28.069-32.499-28.069h-153.689c-18.113 0-32.849 14.736-32.849 32.848v15.151 112h-14.83c-13.879 0-25.17 11.291-25.17 25.17v109.66c0 13.879 11.291 25.17 25.17 25.17h102.83v16h-80c-26.467 0-48 21.532-48 48s21.533 48 48 48h288c26.468 0 48-21.532 48-48s-21.532-48-48-48h-96v-16h88.92c17.138 0 31.08-13.942 31.08-31.08v-17.84c0-17.138-13.942-31.08-31.08-31.08h-38.716l-1.791-12.179 44.85-77.473c17.237-29.771 42.3-54.21 72.479-70.676l25.944-14.158-24.845 154.677c-1.017 6.329.492 12.676 4.249 17.87 3.204 4.431 7.723 7.556 12.91 9.015v54.257l-22.4 29.867c-1.817 2.424-2.11 5.667-.755 8.378 1.355 2.71 4.125 4.422 7.155 4.422h42.755c29.359 0 53.245-23.886 53.245-53.245v-5.51c0-28.562-22.608-51.936-50.867-53.185.486-1.371.864-2.79 1.099-4.257zm-224.723-63.086 10.242 69.644c.004.022.006.045.01.068l1.513 10.288 11.765 80h-110.503v-160zm-102.973 160h-88v-160h88zm-88 16h216.855l5.882 40h-222.737zm16.849-216h153.689c8.296 0 15.463 6.189 16.669 14.397l1.412 9.603h-188.619v-7.151c0-9.291 7.559-16.849 16.849-16.849zm227.412 336c-7.617 8.499-12.261 19.715-12.261 32s4.644 23.501 12.261 32h-216.522c7.618-8.499 12.261-19.715 12.261-32s-4.644-23.501-12.261-32h52.261 96zm-284.261 32c0-17.645 14.355-32 32-32s32 14.355 32 32-14.355 32-32 32-32-14.356-32-32zm352 0c0 17.645-14.355 32-32 32s-32-14.355-32-32 14.355-32 32-32 32 14.355 32 32zm-144-48h-80v-16h80zm104.92-80c8.315 0 15.08 6.765 15.08 15.08v17.84c0 8.315-6.765 15.08-15.08 15.08h-96.92-96-110.83c-5.056 0-9.17-4.113-9.17-9.17v-109.66c0-5.057 4.114-9.17 9.17-9.17h14.83v48 56c0 4.418 3.582 8 8 8h240c2.325 0 4.535-1.012 6.055-2.771 1.52-1.76 2.198-4.094 1.86-6.394l-3.358-22.836h36.363zm69.158-190.372c-32.754 17.871-59.955 44.395-78.662 76.704l-34.748 60.023-8.416-57.227-2.813-19.128c22.971-38.618 58.975-67.689 101.631-81.974l63.481-21.252-3.656 22.762zm24.56 157.1 33.778-210.287c.012-.066.021-.133.032-.2l4.607-28.681 33.286-5.456-16.972 105.656-19.77 27.524c-.725 1.009-1.205 2.172-1.401 3.398l-17.762 110.584c-.339 2.109-1.479 3.961-3.211 5.213-1.731 1.253-3.847 1.754-5.957 1.417-2.109-.339-3.961-1.479-5.213-3.211-1.253-1.731-1.756-3.847-1.417-5.957zm65.362 62.517v5.51c0 20.537-16.708 37.245-37.245 37.245h-26.755l14.4-19.2c1.038-1.385 1.6-3.068 1.6-4.8v-56h10.755c20.537 0 37.245 16.708 37.245 37.245z"/><path d="m120 443.794c0 4.418 3.582 8 8 8h128c4.418 0 8-3.582 8-8s-3.582-8-8-8h-128c-4.418 0-8 3.582-8 8z"/></g></svg>