<svg id="Layer_1" enable-background="new 0 0 512 512" height="512" viewBox="0 0 512 512" width="512" xmlns="http://www.w3.org/2000/svg"><path d="m93.57 243.9h144v64h-144z" fill="#998675"/><path d="m259.801 133.207-140.543-35.21-102.655 42.588-8.603 63.419 87.602 68.396 144.844 3.5 45.014-34.261 8.602-63.419z" fill="#fcc062"/><path d="m485.58 191.06c-3.42-6.84-10.411-11.16-18.058-11.16h-76.787c-12.557 0-22.736 10.179-22.736 22.736v169.264h136v-104z" fill="#22b573"/><path d="m501.791 257.693-10.642-44.42c-.193-.805-.913-1.373-1.741-1.373h-41.168c-13.255 0-24 10.745-24 24 0 13.255 10.745 24 24 24h51.811c1.156 0 2.009-1.082 1.74-2.207z" fill="#29abe2"/><path d="m304 339.9-24-32h-216l-32 32h-16v32h352v-32z" fill="#8c6239"/><g fill="#998675"><circle cx="448" cy="371.9" r="40"/><circle cx="213.57" cy="371.9" r="40"/><circle cx="101.57" cy="371.9" r="40"/></g><path d="m119.26 98-23.66 174.4 144.85 3.5 19.35-142.69z" fill="#fbb03b"/><path d="m511.779 267.085-18.42-76.839c-.142-.592-.352-1.167-.624-1.711-4.805-9.612-14.467-15.583-25.215-15.583h-76.78c-16.95 0-30.74 13.79-30.74 30.74v129.26h-54.43l-21.6-28.8c-1.511-2.015-3.882-3.2-6.4-3.2h-32v-17.846l44.734-34.049c1.688-1.285 2.797-3.188 3.082-5.291l8.603-63.419c.285-2.103-.276-4.232-1.562-5.92l-34.261-45.014c-1.1-1.445-2.66-2.474-4.421-2.915l-140.542-35.21c-1.667-.418-3.423-.287-5.01.371l-47.018 19.506.368-2.714c.594-4.378-2.474-8.409-6.852-9.002-4.372-.596-8.409 2.474-9.002 6.852l-1.623 11.962-38.529 15.985c-2.628 1.09-4.479 3.495-4.862 6.314l-8.602 63.419c-.383 2.819.761 5.63 3.004 7.381l32.879 25.671-1.623 11.962c-.594 4.378 2.474 8.409 6.852 9.003.365.049.727.073 1.085.073 3.94 0 7.373-2.913 7.917-6.926l.368-2.714 35.014 27.337v25.183h-24c-2.122 0-4.157.843-5.657 2.343l-29.657 29.657h-12.685c-4.418 0-8 3.582-8 8v32c0 4.418 3.582 8 8 8h40.68c3.821 22.671 23.58 40 47.321 40s43.499-17.329 47.321-40h17.359c3.821 22.671 23.58 40 47.321 40s43.499-17.329 47.321-40h107.107 32.679c3.821 22.671 23.58 40 47.321 40s43.499-17.329 47.321-40h8.679c4.418 0 8-3.582 8-8v-104c0-.628-.074-1.255-.221-1.866zm-19.841-14.133h-45.728c-7.835 0-14.21-6.375-14.21-14.21v-3.58c0-7.835 6.375-14.21 14.21-14.21h38.057zm-365.954-143.972 124.448 31.178-17.595 128.607-128.107-3.095zm151.993 129.352-27.712 21.092 14.436-105.519 20.987 27.575zm-261.432-36.754 7.367-54.313 25.664-10.647-11.13 82.059zm50.14-72.058 42.774-17.746-19.912 146.8-36.501-28.498zm34.885 152.079 128 3.093v16.26h-128zm-80 67.353h8c2.122 0 4.157-.843 5.657-2.343l29.657-29.657h28.686 144 36l21.6 28.8c1.511 2.015 3.882 3.2 6.4 3.2h58.43v16h-99.109c-3.821-22.671-23.58-40-47.321-40s-43.499 17.329-47.321 40h-17.359c-3.821-22.671-23.58-40-47.321-40s-43.499 17.329-47.321 40h-32.678zm80 56c-17.645 0-32-14.355-32-32s14.355-32 32-32 32 14.355 32 32-14.355 32-32 32zm112 0c-17.645 0-32-14.355-32-32s14.355-32 32-32 32 14.355 32 32-14.355 32-32 32zm234.43 0c-17.645 0-32-14.355-32-32s14.355-32 32-32 32 14.355 32 32-14.355 32-32 32zm48-40h-.679c-3.821-22.671-23.58-40-47.321-40s-43.499 17.329-47.321 40h-24.679v-24-137.26c0-8.128 6.612-14.74 14.74-14.74h76.78c4.378 0 8.34 2.291 10.521 6.03l2.39 9.97h-34.221c-16.658 0-30.21 13.552-30.21 30.21v3.58c0 16.658 13.552 30.21 30.21 30.21h49.563l.227.946z"/></svg>