<svg id="Layer_1" enable-background="new 0 0 512 512" height="512" viewBox="0 0 512 512" width="512" xmlns="http://www.w3.org/2000/svg"><g fill="#fbb03b"><circle cx="416" cy="368" r="88"/><circle cx="96" cy="368" r="88"/></g><path d="m449.566 216h-387.132c-30.063 0-54.434 24.371-54.434 54.434v53.086h176.921c9.169 0 17.479 4.536 21.203 11.575l22.167 41.896c2.255 4.262 7.287 7.009 12.839 7.009h29.738c5.553 0 10.584-2.747 12.839-7.009l22.167-41.896c3.724-7.039 12.034-11.575 21.203-11.575h176.923v-53.086c0-30.063-24.371-54.434-54.434-54.434z" fill="#f7931e"/><path d="m321.309 63.852c-.756-4.531-4.676-7.852-9.269-7.852h-112.08c-4.593 0-8.513 3.321-9.268 7.852l-22.692 136.148v48h176v-48z" fill="#fbb03b"/><path d="m325.33 88h-69.33-69.33l-16 96h85.33 85.33z" fill="#29abe2"/><g><path d="m512 323.52v-53.09c0-34.424-28.006-62.43-62.43-62.43h-97.57v-8c0-.44-.036-.88-.108-1.315l-22.692-136.148c-1.403-8.423-8.62-14.537-17.16-14.537h-112.08c-8.539 0-15.755 6.113-17.16 14.536l-22.691 136.149c-.072.435-.109.875-.109 1.315v8h-97.57c-34.424 0-62.43 28.006-62.43 62.43v53.09c0 4.152 3.163 7.564 7.212 7.96-4.737 11.52-7.212 23.933-7.212 36.52 0 52.935 43.065 96 96 96s96-43.065 96-96c0-12.573-2.47-24.971-7.196-36.48h.116c6.137 0 11.815 2.938 14.129 7.311l22.174 41.908c3.629 6.841 11.443 11.261 19.907 11.261h29.74c8.464 0 16.278-4.42 19.911-11.269l22.17-41.9c2.313-4.374 7.992-7.312 14.129-7.312h.115c-4.725 11.51-7.195 23.908-7.195 36.481 0 52.935 43.065 96 96 96s96-43.065 96-96c0-12.588-2.475-25-7.212-36.52 4.048-.396 7.212-3.808 7.212-7.96zm-176-122.858v39.338h-160v-39.338l1.444-8.662h157.113zm-142.556-104.662h54.556v80h-67.89zm138.446 80h-67.89v-80h54.556zm-131.93-112h112.08c.686 0 1.265.491 1.377 1.167l2.472 14.833h-119.779l2.472-14.833c.113-.676.692-1.167 1.378-1.167zm-23.96 304c0 44.112-35.888 80-80 80s-80-35.888-80-80c0-12.738 3.036-25.255 8.797-36.48h39.203v28.48c0 17.645 14.355 32 32 32s32-14.355 32-32v-28.48h39.203c5.761 11.225 8.797 23.742 8.797 36.48zm-96-36.48h32v28.48c0 8.822-7.178 16-16 16s-16-7.178-16-16zm218.809-.171-22.166 41.893c-.705 1.329-2.812 2.759-5.772 2.759h-29.74c-2.961 0-5.068-1.43-5.769-2.751l-22.17-41.901c-5.088-9.615-16.186-15.828-28.271-15.828h-168.921v-45.09c0-25.602 20.829-46.431 46.43-46.431h97.57v24c0 4.418 3.582 8 8 8h176c4.418 0 8-3.582 8-8v-24h97.57c25.602 0 46.43 20.829 46.43 46.43v45.09h-168.92c-12.086 0-23.184 6.213-28.271 15.829zm101.191.171h32v28.48c0 8.822-7.178 16-16 16s-16-7.178-16-16zm16 116.48c-44.112 0-80-35.888-80-80 0-12.739 3.036-25.256 8.797-36.48h39.203v28.48c0 17.645 14.355 32 32 32s32-14.355 32-32v-28.48h39.203c5.761 11.224 8.797 23.741 8.797 36.48 0 44.112-35.888 80-80 80z"/><path d="m264 336h-16c-4.418 0-8 3.582-8 8s3.582 8 8 8h16c4.418 0 8-3.582 8-8s-3.582-8-8-8z"/><path d="m272 304h-32c-4.418 0-8 3.582-8 8s3.582 8 8 8h32c4.418 0 8-3.582 8-8s-3.582-8-8-8z"/><path d="m280 272h-48c-4.418 0-8 3.582-8 8s3.582 8 8 8h48c4.418 0 8-3.582 8-8s-3.582-8-8-8z"/></g></svg>