<svg id="Layer_1" enable-background="new 0 0 512 512" height="512" viewBox="0 0 512 512" width="512" xmlns="http://www.w3.org/2000/svg"><g><path d="m65.274 212c-25.41 0-46.009 20.599-46.009 46.009v105.991h248.604v-152z" fill="#f7931e"/></g><g><ellipse cx="96" cy="364" fill="#998675" rx="87.98" ry="88.019" transform="matrix(.707 -.707 .707 .707 -229.269 174.495)"/></g><g><circle cx="96" cy="364" fill="#534741" r="40"/></g><g><circle cx="392" cy="356" fill="#f7931e" r="96"/></g><g><path d="m482.53 324h-181.06-37.47-9.6c-10.6 0-20.2 3.58-27.15 9.37s-11.25 13.79-11.25 22.63c0 2.76.42 5.44 1.21 8 4.26 13.8 19.29 24 37.19 24h47.07 181.06 21.47v-64z" fill="#fbb03b"/></g><g><path d="m264.055 64h-100.64c-6.304 0-11.415 5.111-11.415 11.415v165.17c0 6.304 5.111 11.415 11.415 11.415h137.17c6.304 0 11.415-5.111 11.415-11.415v-66.539c0-1.353-.241-2.696-.711-3.965l-36.53-98.631c-1.658-4.478-5.929-7.45-10.704-7.45z" fill="#fbb03b"/></g><g><path d="m283.43 92h-131.43v80h160z" fill="#29abe2"/></g><g><path d="m100.382 316.196c-29.903-2.666-54.851 22.279-52.186 52.183 2.042 22.922 20.5 41.382 43.423 43.426 29.903 2.666 54.851-22.279 52.186-52.183-2.043-22.923-20.501-41.382-43.423-43.426zm-.909 79.62c-20.366 2.157-37.448-14.927-35.288-35.292 1.573-14.839 13.503-26.767 28.342-28.339 20.366-2.157 37.448 14.927 35.288 35.292-1.573 14.838-13.503 26.767-28.342 28.339z"/><path d="m504 316h-15.999c-16.037-38.503-53.906-64-96.001-64s-79.964 25.497-96.001 64h-20.129v-56h36.13c4.418 0 8-3.582 8-8v-80c0-.917-.158-1.827-.466-2.691l-35.559-99.566c-3.79-10.613-13.909-17.743-25.179-17.743h-88.061c-14.765 0-26.735 11.97-26.735 26.736v125.264h-40v-18.434c0-21.053-8.363-41.243-23.25-56.129l-2.879-2.879c-2.892-2.892-7.557-3.403-10.777-.88-3.859 3.023-4.109 8.622-.752 11.979l3.093 3.093c11.888 11.886 18.565 28.007 18.565 44.816v18.434h-22.73c-29.829 0-54.01 24.181-54.01 54.01v60.919c-7.497 14.038-11.612 30.143-11.236 47.222 1.112 50.505 41.756 91.85 92.237 93.777 51.914 1.982 95.223-37.508 99.403-87.929h20.191c7.26 14.38 23.883 24 42.545 24h41.599c16.037 38.503 53.906 64 96.001 64s79.964-25.497 96.001-64h15.999c4.418 0 8-3.582 8-8v-64c0-4.417-3.582-7.999-8-7.999zm-112-48c33.328 0 63.524 18.887 78.389 48h-156.778c14.865-29.113 45.061-48 78.389-48zm-232-24v-64h144v64zm0-80v-64h72v64zm140.648 0h-52.648v-64h29.791zm-129.912-96h88.061c4.537 0 8.585 2.852 10.111 7.125l3.169 8.875h-112.077v-5.264c0-5.929 4.807-10.736 10.736-10.736zm-70.981 375.914c-47.07 2.164-85.832-36.598-83.668-83.668 1.887-41.038 35.121-74.272 76.159-76.159 47.07-2.164 85.832 36.598 83.668 83.668-1.887 41.038-35.121 74.272-76.159 76.159zm108.245-87.914h-16.336c-4.079-49.205-45.424-88-95.664-88-26.924 0-51.291 11.146-68.74 29.061v-39.051c0-20.992 17.018-38.01 38.01-38.01h78.73v32c0 4.418 3.582 8 8 8h107.87v56h-5.47c-12.122 0-23.583 3.986-32.271 11.224-9.111 7.59-14.129 17.81-14.129 28.776zm184 88c-33.328 0-63.524-18.887-78.389-48h156.778c-14.865 29.113-45.061 48-78.389 48zm104-64h-241.6c-14.059 0-26.208-7.55-29.546-18.359-.566-1.836-.854-3.735-.854-5.641 0-6.133 2.973-11.986 8.371-16.483 5.818-4.847 13.642-7.517 22.029-7.517h241.6z"/></g></svg>