<svg id="Layer_1" enable-background="new 0 0 512 512" height="512" viewBox="0 0 512 512" width="512" xmlns="http://www.w3.org/2000/svg"><g fill="#fbb03b"><path d="m368 240h128v64h-128z"/><path d="m328 160c-38.7 0-70.98 27.48-78.39 64h42.39c7.41-14.13 24.32-24 44-24 26.51 0 48 17.91 48 40h24c0-44.18-35.82-80-80-80z"/><path d="m112 224-56 72h-48v24h216l72-40v-56z"/></g><path d="m461.151 176c-11.681 0-21.151 9.47-21.151 21.151v42.849h56l8-64z" fill="#f7931e"/><path d="m294.9 211.999c-3.213-8.231-12.491-12.299-20.723-9.086l-223.567 87.278 11.637 29.809 223.568-87.278c8.231-3.214 12.299-12.492 9.085-20.723z" fill="#f7931e"/><path d="m481.189 208c-5.075 0-9.189 4.114-9.189 9.188v22.812h24l4-32z" fill="#29abe2"/><g fill="#998675"><circle cx="80" cy="312" r="40"/><circle cx="424" cy="312" r="40"/></g><path d="m509.997 170.706c-1.518-1.721-3.702-2.706-5.997-2.706h-42.849c-16.074 0-29.151 13.077-29.151 29.151v34.849h-16.367c-4.056-44.788-41.806-80-87.633-80-18.083 0-35.457 5.445-50.244 15.747-13.457 9.375-23.915 22.136-30.423 37.056l-28.683 11.197h-106.65c-2.469 0-4.8 1.14-6.315 3.089l-35.76 45.984c-13.425 2.879-24.776 11.388-31.467 22.927h-30.458c-4.418 0-8 3.582-8 8v24c0 4.418 3.582 8 8 8h26.752c6.605 18.623 24.389 32 45.248 32s38.643-13.377 45.248-32h98.752c1.359 0 2.696-.347 3.885-1.007l72-40c2.54-1.411 4.115-4.088 4.115-6.993v-56c0-.782-.117-1.535-.326-2.249.034-.211.063-.424.092-.637 7.556-8.249 19.417-13.114 32.234-13.114 18.604 0 34.282 10.214 38.734 24h-6.734c-4.418 0-8 3.582-8 8v64c0 4.418 3.582 8 8 8h8c0 26.468 21.532 48 48 48s48-21.532 48-48h24c4.418 0 8-3.582 8-8v-63.5l3.938-31.508 4-32c.285-2.276-.422-4.566-1.941-6.286zm-21.059 61.294h-8.938v-14.812c0-.655.533-1.188 1.188-1.188h9.749zm-40.938-34.849c0-7.252 5.899-13.151 13.151-13.151h33.786l-2 16h-11.749c-9.478 0-17.188 7.711-17.188 17.188v14.812h-16zm-165.1 28.117-161.235 62.945c-2.826-4.931-6.496-9.316-10.82-12.953l112.404-43.88c.01-.004.021-.008.032-.012l53.806-21.005c4.108-1.602 8.758.435 10.367 4.561.362.923.546 1.894.546 2.886 0 3.326-1.997 6.252-5.1 7.458zm-166.987 6.732h61.751l-85.787 33.489c-.563-.144-1.132-.27-1.702-.394zm-99.913 80v-8h16.679c-.439 2.604-.679 5.273-.679 8zm64 32c-17.645 0-32-14.355-32-32s14.355-32 32-32 32 14.355 32 32-14.355 32-32 32zm141.927-32h-93.927c0-2.995-.289-5.921-.816-8.766l160.816-62.781v34.84zm114.073-120c-13.629 0-26.577 4.239-36.629 11.682-2.47-3.397-5.785-6.111-9.735-7.843-5.83-2.558-12.303-2.705-18.243-.425 13.382-17.096 33.967-27.414 56.607-27.414 36.997 0 67.565 28.051 71.559 64h-8.336c-4.457-22.673-27.524-40-55.223-40zm88 152c-17.645 0-32-14.355-32-32s14.355-32 32-32 32 14.355 32 32-14.355 32-32 32zm64-48h-18.752c-6.605-18.623-24.389-32-45.248-32s-38.643 13.377-45.248 32h-2.752v-48h8 24 32 32 16z"/></svg>