<svg id="Layer_1" enable-background="new 0 0 504 504" height="512" viewBox="0 0 504 504" width="512" xmlns="http://www.w3.org/2000/svg"><path d="m409.299 297.963c-1.347-5.827-6.506-9.965-12.487-9.965-7.076 0-12.812 5.736-12.812 12.812v92.848c0 12.338 10.002 22.34 22.34 22.34h89.66c-20.257-.001-77.363-77.643-86.701-118.035z" fill="#fbb03b"/><path d="m253.992 263.932-20.427-163.416c-.894-7.152-6.974-12.52-14.182-12.52h-84.883c-21.263 0-38.5 17.237-38.5 38.5v139.208c0 7.894 6.399 14.292 14.292 14.292h129.518c8.597.001 15.248-7.533 14.182-16.064z" fill="#fbb03b"/><path d="m236 119.997h-66.698c-13.974 0-25.302 11.328-25.302 25.302v70.698h104z" fill="#29abe2"/><path d="m328 207.997-304-24v32l272 24 64 136h24z" fill="#f7931e"/><path d="m80 255.997-16-80h-56v176h264v-80z" fill="#fbb03b"/><g fill="#998675"><circle cx="248" cy="351.997" r="64"/><circle cx="72" cy="351.997" r="64"/></g><g fill="#a67c52"><circle cx="72" cy="351.997" r="24"/><circle cx="248" cy="351.997" r="24"/></g><g><path d="m496 407.997c-3.659-.021-18.504-9.986-41.038-40.66-18.982-25.841-33.847-53.778-37.869-71.176-2.2-9.518-10.54-16.164-20.281-16.164-11.476 0-20.812 9.337-20.812 20.813v25.889l-40.411-121.231c-1.016-3.048-3.757-5.192-6.959-5.445l-75.31-5.945-9.382-75.072c-.004-.035-.013-.068-.018-.103l-2.422-19.373c-1.386-11.135-10.895-19.532-22.119-19.532h-84.879c-25.64 0-46.5 20.86-46.5 46.5v54.53l-15.073-1.189-1.082-5.411c-.748-3.739-4.031-6.43-7.844-6.43h-56.001c-4.418 0-8 3.582-8 8v176c0 39.701 32.299 72 72 72 36.996 0 67.551-28.052 71.545-64h32.91c3.994 35.948 34.549 64 71.545 64 39.701 0 72-32.299 72-72 0-28.21-16.316-52.669-40-64.473v-15.527c0-4.16-3.189-7.627-7.335-7.973l-10.717-.893c-.008-.065-.011-.13-.019-.196l-2.262-18.109 31.052 2.736 62.042 131.841c1.32 2.804 4.14 4.594 7.239 4.594h16v9.66c0 16.729 13.61 30.34 30.34 30.34h89.66c.026 0 .058.013.078 0 4.382-.042 7.922-3.607 7.922-8 0-4.419-3.582-8.001-8-8.001zm-258.966-215.205-85.034-6.712v-40.783c0-9.539 7.761-17.3 17.3-17.3h59.634zm-133.034-66.295c0-16.818 13.682-30.5 30.5-30.5h84.88c3.167 0 5.851 2.368 6.242 5.514l1.311 10.486h-57.633c-18.362 0-33.3 14.938-33.3 33.3v39.52l-32-2.526zm-17.336 122.027-3.862-19.308 5.198.458v18.961zm-14.664 159.473c-30.878 0-56-25.121-56-56s25.122-56 56-56 56 25.121 56 56-25.122 56-56 56zm232-56c0 30.879-25.122 56-56 56s-56-25.121-56-56 25.122-56 56-56 56 25.121 56 56zm-40-70.185c-5.15-1.174-10.5-1.814-16-1.814-36.996 0-67.551 28.052-71.545 64h-32.91c-3.994-35.948-34.549-64-71.545-64-22.6 0-42.79 10.475-56 26.815v-122.816h41.443l7.58 37.901c.011.054.02.108.032.161l7.101 35.507c.7 3.496 3.628 6.107 7.182 6.403l173.271 14.438c.02.001.04.003.06.005l11.331.946zm-160-31.844v-18.883l139.361 12.293 2.298 18.396zm261.077 118.029-61.838-131.406c-1.212-2.576-3.701-4.313-6.537-4.563l-45.096-3.974c-.133-.019-.268-.034-.403-.046l-154.373-13.617c-.011-.001-.022-.002-.034-.003l-17.265-1.523-3.344-16.72 245.899 19.411 50.814 152.441zm41.263 40c-7.907 0-14.34-6.433-14.34-14.34v-92.847c0-2.653 2.159-4.813 4.812-4.813 2.25 0 4.18 1.549 4.692 3.768 5.434 23.504 24.538 55.238 40.604 77.1 6.687 9.099 16.385 21.386 26.508 31.133h-62.276z"/><path d="m72 319.997c-17.645 0-32 14.355-32 32s14.355 32 32 32 32-14.355 32-32-14.355-32-32-32zm0 48c-8.822 0-16-7.178-16-16s7.178-16 16-16 16 7.178 16 16-7.178 16-16 16z"/><path d="m216 351.997c0 17.645 14.355 32 32 32s32-14.355 32-32-14.355-32-32-32-32 14.356-32 32zm48 0c0 8.822-7.178 16-16 16s-16-7.178-16-16 7.178-16 16-16 16 7.178 16 16z"/></g></svg>