<svg id="Layer_1" enable-background="new 0 0 512 512" height="512" viewBox="0 0 512 512" width="512" xmlns="http://www.w3.org/2000/svg"><path d="m416 208h-200v120h255.396v-64.604c0-30.594-24.802-55.396-55.396-55.396z" fill="#f7931e"/><path d="m235.636 100.428c0-15.7-10.847-28.428-24.228-28.428h-115.18c-13.381 0-24.228 12.728-24.228 28.428v227.572h200z" fill="#fbb03b"/><path d="m236.21 104h-68.21c-11.27 0-20.4 9.13-20.4 20.4v31.2c0 11.27 9.13 20.4 20.4 20.4h79.71z" fill="#29abe2"/><circle cx="120" cy="328" fill="#998675" r="112"/><path d="m208 328h296v48h-296z" fill="#a67c52"/><circle cx="408" cy="376" fill="#998675" r="64"/><g fill="#f7931e"><circle cx="120" cy="328" r="56"/><circle cx="408" cy="376" r="32"/></g><g><path d="m120 264c-35.29 0-64 28.71-64 64s28.71 64 64 64 64-28.71 64-64-28.71-64-64-64zm0 112c-26.467 0-48-21.533-48-48s21.533-48 48-48 48 21.533 48 48-21.533 48-48 48z"/><path d="m504 320h-24.6v-56.6c0-34.959-28.441-63.4-63.4-63.4h-64v-48.114c0-8.107 3.157-15.729 8.89-21.462l12.767-12.767c3.125-3.124 3.125-8.189 0-11.313-3.124-3.124-8.189-3.124-11.313 0l-12.767 12.767c-8.756 8.754-13.577 20.394-13.577 32.775v48.114h-76.35l-16.015-100.238c-.317-19.781-14.651-35.762-32.225-35.762h-115.18c-17.772 0-32.23 16.342-32.23 36.43v121.466c-38.03 20.153-64 60.15-64 106.104 0 66.168 53.832 120 120 120 45.954 0 85.951-25.97 106.104-64h110.351c3.994 35.948 34.549 64 71.545 64s67.551-28.052 71.545-64h24.455c4.418 0 8-3.582 8-8v-48c0-4.418-3.582-8-8-8zm-88-104c26.136 0 47.4 21.264 47.4 47.4v56.6h-10.215c-12.365-9.996-28.084-16-45.185-16s-32.82 6.004-45.185 16h-83.992l-16.617-104zm-186.613-104 8.947 56h-70.334c-6.837 0-12.4-5.563-12.4-12.4v-31.2c0-6.837 5.563-12.4 12.4-12.4zm-149.387-11.57c0-11.265 7.281-20.43 16.23-20.43h115.18c7.74 0 14.221 6.86 15.835 16h-59.245c-15.66 0-28.4 12.74-28.4 28.4v31.2c0 15.66 12.74 28.4 28.4 28.4h72.891l21.729 136h-22.893c-4.132-62.452-56.248-112-119.727-112-14.02 0-27.482 2.425-40 6.864zm40 331.57c-57.346 0-104-46.654-104-104s46.654-104 104-104 104 46.654 104 104-46.654 104-104 104zm119.727-96h32.273 76.167c-6.275 9.355-10.407 20.256-11.712 32h-103.319c3.588-10.117 5.853-20.852 6.591-32zm168.273 96c-30.878 0-56-25.122-56-56s25.122-56 56-56 56 25.122 56 56-25.122 56-56 56zm88-64h-16.455c-1.305-11.744-5.437-22.645-11.712-32h3.567 24.6z"/><path d="m360 280c4.418 0 8-3.582 8-8v-24c0-4.418-3.582-8-8-8s-8 3.582-8 8v24c0 4.418 3.582 8 8 8z"/><path d="m328 280c4.418 0 8-3.582 8-8v-24c0-4.418-3.582-8-8-8s-8 3.582-8 8v24c0 4.418 3.582 8 8 8z"/><path d="m392 280c4.418 0 8-3.582 8-8v-24c0-4.418-3.582-8-8-8s-8 3.582-8 8v24c0 4.418 3.582 8 8 8z"/><path d="m423.396 280c4.418 0 8-3.582 8-8v-24c0-4.418-3.582-8-8-8s-8 3.582-8 8v24c0 4.418 3.582 8 8 8z"/><path d="m408 336c-22.056 0-40 17.944-40 40s17.944 40 40 40 40-17.944 40-40-17.944-40-40-40zm0 64c-13.233 0-24-10.767-24-24s10.767-24 24-24 24 10.767 24 24-10.767 24-24 24z"/></g></svg>