<svg id="Layer_1" enable-background="new 0 0 512 512" height="512" viewBox="0 0 512 512" width="512" xmlns="http://www.w3.org/2000/svg"><path d="m371.434 68h-334.868c-15.777 0-28.566 12.79-28.566 28.566v174.868c0 15.776 12.789 28.566 28.566 28.566h334.868c15.777 0 28.566-12.79 28.566-28.566v-174.868c0-15.776-12.789-28.566-28.566-28.566z" fill="#1e88e5"/><path d="m32 300h344v48h-344z" fill="#8c6239"/><g fill="#998675"><circle cx="320" cy="388" r="56"/><circle cx="88" cy="388" r="56"/></g><g fill="#8c6239"><circle cx="88" cy="388" r="24"/><circle cx="320" cy="388" r="24"/></g><g><path d="m504 300h-32c-4.418 0-8 3.582-8 8v8h-80v-10.225c13.991-5.136 24-18.591 24-34.341v-174.868c0-20.163-16.403-36.566-36.566-36.566h-334.868c-20.163 0-36.566 16.403-36.566 36.566v174.868c0 15.75 10.009 29.206 24 34.341v42.225c0 4.418 3.582 8 8 8h.61c-5.464 9.421-8.61 20.347-8.61 32 0 35.29 28.71 64 64 64s64-28.71 64-64c0-11.653-3.146-22.579-8.61-32h121.22c-5.464 9.421-8.61 20.347-8.61 32 0 35.29 28.71 64 64 64s64-28.71 64-64c0-11.653-3.146-22.579-8.61-32h.61c4.418 0 8-3.582 8-8v-16h88c4.418 0 8-3.582 8-8v-8h24c4.418 0 8-3.582 8-8s-3.582-8-8-8zm-184 24c-16.188 0-30.982 6.053-42.265 16h-147.47c-11.283-9.947-26.076-16-42.265-16s-30.982 6.053-42.265 16h-5.735v-32h328v32h-5.735c-11.283-9.947-26.077-16-42.265-16zm-304-52.566v-174.868c0-11.34 9.226-20.566 20.566-20.566h334.867c11.341 0 20.567 9.226 20.567 20.566v174.868c0 11.341-9.226 20.566-20.566 20.566h-334.868c-11.34 0-20.566-9.226-20.566-20.566zm72 164.566c-26.468 0-48-21.532-48-48s21.532-48 48-48 48 21.532 48 48-21.532 48-48 48zm232 0c-26.468 0-48-21.532-48-48s21.532-48 48-48 48 21.532 48 48-21.532 48-48 48z"/><path d="m64 140h280c4.418 0 8-3.582 8-8s-3.582-8-8-8h-280c-4.418 0-8 3.582-8 8s3.582 8 8 8z"/><path d="m64 180h280c4.418 0 8-3.582 8-8s-3.582-8-8-8h-280c-4.418 0-8 3.582-8 8s3.582 8 8 8z"/><path d="m64 220h280c4.418 0 8-3.582 8-8s-3.582-8-8-8h-280c-4.418 0-8 3.582-8 8s3.582 8 8 8z"/><path d="m88 356c-17.645 0-32 14.355-32 32s14.355 32 32 32 32-14.355 32-32-14.355-32-32-32zm0 48c-8.822 0-16-7.178-16-16s7.178-16 16-16 16 7.178 16 16-7.178 16-16 16z"/><path d="m320 356c-17.645 0-32 14.355-32 32s14.355 32 32 32 32-14.355 32-32-14.355-32-32-32zm0 48c-8.822 0-16-7.178-16-16s7.178-16 16-16 16 7.178 16 16-7.178 16-16 16z"/></g></svg>