<svg id="Layer_1" enable-background="new 0 0 512 512" height="512" viewBox="0 0 512 512" width="512" xmlns="http://www.w3.org/2000/svg"><path d="m280 324h144v32h-144z" fill="#8c6239"/><path d="m32 284h144v64h-144z" fill="#8c6239"/><path d="m304 284h32v48h-32z" fill="#998675"/><path d="m344.906 124h-305.812c-17.173 0-31.094 13.921-31.094 31.094v136.906h368v-136.906c0-17.173-13.921-31.094-31.094-31.094z" fill="#1e88e5"/><path d="m479.566 196h-61.755c-5.419 0-9.811 4.393-9.811 9.812v150.188h96v-135.566c0-13.495-10.939-24.434-24.434-24.434z" fill="#22b573"/><path d="m438.189 140h-22.189v56h64v-14.188c0-23.092-18.719-41.812-41.811-41.812z" fill="#009245"/><g fill="#998675"><ellipse cx="474.17" cy="356" rx="29.83" ry="29.83" transform="matrix(.987 -.16 .16 .987 -50.902 80.55)"/><circle cx="336" cy="356" r="32"/></g><g fill="#998675"><circle cx="152" cy="356" r="32"/><circle cx="56" cy="356" r="32"/></g><path d="m479.773 228c-8.711 0-15.773 7.062-15.773 15.773v.453c0 8.711 7.062 15.773 15.773 15.773h24.227v-32h-24.227z" fill="#29abe2"/><path d="m488 189.798v-7.986c0-27.467-22.346-49.812-49.812-49.812h-22.188c-4.418 0-8 3.582-8 8v51.632c-4.835 3.488-8 9.154-8 15.558v108.81h-56v-16h32c4.418 0 8-3.582 8-8v-136.906c0-21.556-17.538-39.094-39.095-39.094h-305.81c-21.557 0-39.095 17.538-39.095 39.094v136.906c0 4.418 3.582 8 8 8h16v32.028c-5.021 6.685-8 14.987-8 23.972 0 22.056 17.944 40 40 40s40-17.944 40-40h16c0 22.056 17.944 40 40 40s40-17.944 40-40c0-8.985-2.979-17.287-8-23.972v-32.028h112v16h-16c-4.418 0-8 3.582-8 8v32c0 4.418 3.582 8 8 8h16.805c3.717 18.235 19.878 32 39.195 32s35.479-13.765 39.195-32h32.805 29.199c3.682 17.029 18.856 29.83 36.971 29.83 20.859 0 37.83-16.971 37.83-37.83v-32-64-32-4.94c0-15.468-10.073-28.619-24-33.262zm8 62.202h-16.227c-4.286 0-7.773-3.487-7.773-7.773v-.453c0-4.286 3.487-7.773 7.773-7.773h16.227zm-72-104h14.188c18.644 0 33.812 15.168 33.812 33.812v6.188h-48zm-24 200h-24.805c-1.204-5.908-3.716-11.347-7.217-16h32.022zm-384-192.906c0-12.734 10.36-23.094 23.095-23.094h305.811c12.734 0 23.094 10.36 23.094 23.094v128.906h-192-144-16zm40 224.906c-13.233 0-24-10.767-24-24s10.767-24 24-24c10.425 0 19.315 6.684 22.621 15.991v.009c0 1.421.374 2.752 1.024 3.909.229 1.331.355 2.696.355 4.091 0 13.233-10.767 24-24 24zm96 0c-13.233 0-24-10.767-24-24 0-1.395.126-2.76.356-4.091.65-1.157 1.024-2.488 1.024-3.909 0-.003 0-.006 0-.009 3.305-9.307 12.195-15.991 22.62-15.991 13.233 0 24 10.767 24 24s-10.767 24-24 24zm16-60.65c-4.903-2.149-10.313-3.35-16-3.35-16.369 0-30.465 9.888-36.65 24h-22.7c-6.185-14.112-20.281-24-36.65-24-5.687 0-11.097 1.201-16 3.35v-19.35h128zm144-19.35h16v16h-16zm-24 32h16.022c-3.501 4.653-6.013 10.092-7.217 16h-8.805zm48 48c-13.233 0-24-10.767-24-24s10.767-24 24-24 24 10.767 24 24-10.767 24-24 24zm80-172.81c0-1.759 1.432-3.19 3.19-3.19h57.75c9.466 0 17.319 6.943 18.791 16h-15.958c-13.108 0-23.773 10.665-23.773 23.773v.453c0 13.109 10.665 23.774 23.773 23.774h16.227v56 1.133c-6.173-4.378-13.703-6.963-21.83-6.963-18.115 0-33.289 12.801-36.971 29.83h-21.199zm58.17 170.64c-12.037 0-21.83-9.793-21.83-21.83s9.793-21.83 21.83-21.83 21.83 9.793 21.83 21.83-9.793 21.83-21.83 21.83z"/></svg>