<svg id="Layer_1" enable-background="new 0 0 512 512" height="512" viewBox="0 0 512 512" width="512" xmlns="http://www.w3.org/2000/svg"><path d="m368 303.999h-336v96h384v-48z" fill="#22b573"/><path d="m502.909 72.871c-3.94-12.656-17.393-19.721-30.049-15.781l-145.13 45.181 14.268 45.831 145.13-45.181c12.655-3.94 19.721-17.394 15.781-30.05z" fill="#cec5bd"/><path d="m378.821 77.987-305.537 95.117c-16.874 5.253-26.295 23.191-21.042 40.065 5.253 16.875 23.191 26.295 40.065 21.042l305.537-95.117z" fill="#22b573"/><path d="m120 247.999-32-48h-53.377c-14.704 0-26.623 11.919-26.623 26.622v77.377h176v-56h-64z" fill="#009245"/><g fill="#998675"><circle cx="328" cy="399.999" r="56"/><circle cx="112" cy="399.999" r="56"/></g><path d="m280 159.999h-67.528c-15.724 0-28.472 12.747-28.472 28.472v115.528h144v-64z" fill="#009245"/><g fill="#a67c52"><ellipse cx="328" cy="399.999" rx="20.094" ry="20.094" transform="matrix(.383 -.924 .924 .383 -167.071 549.958)"/><ellipse cx="112" cy="399.999" rx="20.094" ry="20.094" transform="matrix(.383 -.924 .924 .383 -300.411 350.4)"/></g><path d="m299.2 191.999h-43.2c-13.255 0-24 10.745-24 24 0 13.255 10.745 24 24 24h72z" fill="#29abe2"/><g><path d="m488 185.375v-9.376-64.972l1.508-.469c13.453-4.189 22.492-16.465 22.492-30.549 0-3.217-.488-6.418-1.452-9.519-5.247-16.844-23.22-26.283-40.067-21.04l-84.023 26.162v-.001c-.631-2.025-2.04-3.718-3.919-4.705-1.879-.986-4.073-1.185-6.098-.556l-305.542 95.121c-12.762 3.978-22.522 14.028-26.342 26.527h-9.935c-19.09.001-34.622 15.533-34.622 34.624v77.377c0 4.418 3.582 8 8 8h16v88c0 4.418 3.582 8 8 8h16.518c3.951 31.525 30.903 56 63.482 56s59.531-24.475 63.482-56h89.036c3.951 31.525 30.903 56 63.482 56s59.531-24.475 63.482-56h24.518c4.418 0 8-3.582 8-8v-48c0-2.122-.843-4.156-2.343-5.657l-48-48c-1.5-1.5-3.535-2.343-5.657-2.343h-32v-56c0-.017-.003-.033-.003-.049-.001-.222-.025-.443-.045-.664-.012-.132-.013-.265-.031-.396-.033-.238-.09-.472-.145-.706-.026-.111-.04-.225-.071-.334-.073-.262-.171-.518-.271-.772-.031-.078-.05-.158-.083-.235-.141-.328-.304-.648-.49-.959l-28.8-48c0-.001-.001-.001-.001-.002l-5.981-9.969 100.141-31.174c4.218-1.313 6.574-5.798 5.261-10.017v-.001l66.519-20.713v59.991 16c0 4.418 3.582 8 8 8 4.411 0 8 3.589 8 8s-3.589 8-8 8-8-3.589-8-8c0-4.418-3.582-8-8-8s-8 3.582-8 8c0 13.233 10.766 24 24 24s24-10.767 24-24c0-10.429-6.689-19.322-16-22.624zm-472 110.624v-69.377c0-10.269 8.354-18.623 18.623-18.623h49.096l29.625 44.438c1.483 2.226 3.981 3.563 6.656 3.563h56v40h-144-16zm104.216-62.098 55.784-17.364v23.461h-51.719zm-8.216 214.098c-26.467 0-48-21.532-48-48s21.533-48 48-48 48 21.532 48 48-21.533 48-48 48zm216 0c-26.467 0-48-21.532-48-48s21.533-48 48-48 48 21.532 48 48-21.533 48-48 48zm36.686-136 43.314 43.313v36.687h-16.518c-3.951-31.525-30.903-56-63.482-56s-59.531 24.475-63.482 56h-89.036c-3.951-31.525-30.903-56-63.482-56s-59.531 24.475-63.482 56h-8.518v-80h144 144zm-44.686-16h-128v-48-59.529c0-11.288 9.184-20.472 20.472-20.472h62.999l9.6 16h-29.071c-17.645 0-32 14.355-32 32s14.355 32 32 32h64zm-6.129-64h-57.871c-8.822 0-16-7.178-16-16s7.178-16 16-16h38.671zm-22.266-68.208-4.745-7.909c-1.446-2.409-4.05-3.884-6.86-3.884h-67.528c-20.11 0-36.472 16.361-36.472 36.472v11.31l-65.036 20.243-16.308-24.461c-1.483-2.226-3.981-3.563-6.656-3.563h-26.162c2.947-5.284 7.831-9.385 13.82-11.251l297.901-92.742 14.255 45.801c.003.01.005.02.008.03v.001zm193.147-68.511-7.093 2.208c-.025.007-.05.015-.075.023l-76.861 23.929-9.509-30.551 84.023-26.163c8.424-2.622 17.412 2.099 20.034 10.517.484 1.557.729 3.16.729 4.765 0 7.041-4.52 13.178-11.248 15.272z"/><path d="m200 343.999h40c4.418 0 8-3.582 8-8s-3.582-8-8-8h-40c-4.418 0-8 3.582-8 8s3.582 8 8 8z"/><path d="m200 375.999h40c4.418 0 8-3.582 8-8s-3.582-8-8-8h-40c-4.418 0-8 3.582-8 8s3.582 8 8 8z"/><path d="m328 371.904c-15.491 0-28.094 12.604-28.094 28.095s12.603 28.095 28.094 28.095 28.094-12.604 28.094-28.095-12.603-28.095-28.094-28.095zm0 40.19c-6.669 0-12.094-5.426-12.094-12.095s5.425-12.095 12.094-12.095 12.094 5.426 12.094 12.095-5.425 12.095-12.094 12.095z"/><path d="m112 371.904c-15.491 0-28.094 12.604-28.094 28.095s12.603 28.095 28.094 28.095 28.094-12.604 28.094-28.095-12.603-28.095-28.094-28.095zm0 40.19c-6.669 0-12.094-5.426-12.094-12.095s5.425-12.095 12.094-12.095 12.094 5.426 12.094 12.095-5.425 12.095-12.094 12.095z"/></g></svg>