<svg height="512" viewBox="0 0 64 64" width="512" xmlns="http://www.w3.org/2000/svg"><g id="_17" data-name="17"><path d="m54 43.15h-7v-1h8a1 1 0 0 0 1-1v-8a1 1 0 0 0 -1-1h-16v-4a1 1 0 0 0 -1-1h-7a7 7 0 0 0 -2.81.6l-11.73-16.6a2.87 2.87 0 0 0 -1.18-1l-.16-.07s0 0-.07 0h-.11a3 3 0 0 0 -3.67 1.47l-6.34 12.45a3 3 0 0 0 1.07 3.85v3.15a1 1 0 0 0 .55.89l.21.11-2.21 1.11a1 1 0 0 0 0 1.78l2.21 1.11-2.21 1.11a1 1 0 0 0 0 1.78l2.21 1.11-2.21 1.11a1 1 0 0 0 0 1.78l2.21 1.11-.21.11a1 1 0 0 0 -.55.89v3a1 1 0 0 0 2 0v-2.38l1.45-.73a1 1 0 0 0 0-1.78l-2.21-1.11 2.21-1.11a1 1 0 0 0 0-1.78l-2.21-1.11 2.21-1.11a1 1 0 0 0 0-1.78l-2.21-1.11 2.21-1.11a1 1 0 0 0 0-1.78l-1.45-.73v-2.07a3.49 3.49 0 0 0 .54-.12 3 3 0 0 0 1.74-1.5l4.1-8.08 9.83 13.92a7.34 7.34 0 0 0 -.21 1.62v7a1 1 0 0 0 1 1h10v1h-11a5 5 0 0 0 0 10h30a5 5 0 0 0 0-10z" fill="#263238"/><path d="m49 34.15h5v6h-8v-2.88l.78-3.12z" fill="#ffb74d"/><path d="m44.72 34.15-.72 2.76a1 1 0 0 0 0 .24v3h-5v-6z" fill="#ffb74d"/><path d="m32 29.15v7h-6v-2a5 5 0 0 1 .24-1.53 5.05 5.05 0 0 1 2.18-2.75l.09-.05a4.77 4.77 0 0 1 2.49-.67z" fill="#ffe0b2"/><path d="m26.48 28.81a.46.46 0 0 1 -.07.07c-.26.28-1.22 1.36-1.29 1.47l-11.93-16.89a1 1 0 0 1 .25-1.4 1.15 1.15 0 0 1 .25-.12h.07a.69.69 0 0 1 .2 0h.09.19.08l.11.05a.86.86 0 0 1 .37.32z" fill="#fb8c00"/><path d="m8.5 25.79a1 1 0 0 1 -1.35.44 1 1 0 0 1 -.44-1.35l5.06-10 1.31 1.84z" fill="#fb8c00"/><path d="m26 38.15h6v2h-6z" fill="#ffb74d"/><path d="m34 29.15h3v11h-3z" fill="#ffb74d"/><path d="m37 42.15h1 7v1h-8z" fill="#fb8c00"/><path d="m54 51.15h-30a3 3 0 0 1 0-6h30a3 3 0 0 1 0 6z" fill="#b0bec5"/><path d="m54 47.15h-30a1 1 0 0 0 0 2h30a1 1 0 0 0 0-2z" fill="#263238"/></g></svg>