<svg height="512" viewBox="0 0 64 64" width="512" xmlns="http://www.w3.org/2000/svg"><g id="_18" data-name="18"><path d="m58 44h-7v-1h8a1 1 0 0 0 1-1v-8a1 1 0 0 0 -1-1h-16v-4a1 1 0 0 0 -1-1h-7a7 7 0 0 0 -1.77.23l-23.31-17.94a3.13 3.13 0 0 0 -4.24.49 3 3 0 0 0 .39 4.22l.93.79v16.29a7 7 0 1 0 2 0v-14.56l19.11 16.29a6.75 6.75 0 0 0 -.11 1.19v7a1 1 0 0 0 1 1h10v1h-11a5 5 0 0 0 0 10h30a5 5 0 0 0 0-10z" fill="#263238"/><circle cx="8" cy="39" fill="#b0bec5" r="5"/><path d="m53 35h5v6h-8v-2.88l.78-3.12z" fill="#ffb74d"/><path d="m48.72 35-.72 2.76a1 1 0 0 0 0 .24v3h-5v-6z" fill="#ffb74d"/><path d="m36 30v7h-6v-2a5 5 0 0 1 .24-1.53 5.05 5.05 0 0 1 2.18-2.75h.09a4.86 4.86 0 0 1 2.49-.72z" fill="#ffe0b2"/><path d="m7.24 12a1.07 1.07 0 0 1 1.45-.16l22.48 17.3a7 7 0 0 0 -2.37 2.6l-21.43-18.24a1.05 1.05 0 0 1 -.13-1.5z" fill="#fb8c00"/><path d="m30 39h6v2h-6z" fill="#ffb74d"/><path d="m38 30h3v11h-3z" fill="#ffb74d"/><path d="m41 43h1 7v1h-8z" fill="#fb8c00"/><path d="m58 52h-30a3 3 0 0 1 0-6h30a3 3 0 0 1 0 6z" fill="#b0bec5"/><path d="m58 48h-30a1 1 0 0 0 0 2h30a1 1 0 0 0 0-2z" fill="#263238"/></g></svg>