<svg viewBox="0 0 64 64" xmlns="http://www.w3.org/2000/svg"><g id="_01" data-name="01"><path d="m61 38.41v-6.41a1 1 0 0 0 -1-1h-5v-2a1 1 0 0 0 -1-1h-4v-12a1 1 0 0 0 -1-1h-11a5 5 0 0 0 -5 5v5h-10a9 9 0 0 0 -9 9v5h-2v-10a1 1 0 0 0 -2-.27l-2.2 7.84a30.77 30.77 0 0 1 -5.58 10.81 1 1 0 0 0 -.09 1.11 1 1 0 0 0 .87.51h.12l8-1a1 1 0 0 0 .88-1v-2h4.69a7 7 0 0 0 6.31 4h32a7 7 0 0 0 6-10.59z" fill="#263238"/><path d="m10 46.12-4.8.6a32.76 32.76 0 0 0 4.52-9.6l.28-1z" fill="#fb8c00"/><path d="m55 33h4v3.26a7 7 0 0 0 -4-1.26z" fill="#fb8c00"/><path d="m46 17h2v11h-2z" fill="#ffb74d"/><path d="m35 20a3 3 0 0 1 3-3h6v11h-9z" fill="#ffe0b2"/><path d="m35 30h8.13l-.66 1h-7.47z" fill="#ffb74d"/><path d="m43 33a1 1 0 0 0 .83-.45l1.71-2.55h7.46v5h-20v-2z" fill="#ffb74d"/><path d="m16.69 39h-.69v-5a7 7 0 0 1 7-7h10v4h-1a1 1 0 0 0 -1 1v3h-8a7 7 0 0 0 -6.31 4z" fill="#fb8c00"/><path d="m12 41h23v2h-23z" fill="#ffb74d"/><path d="m55 47h-32a5 5 0 0 1 -4-2h17a1 1 0 0 0 1-1v-1h3.14a4 4 0 0 0 7.72 0h2.28a4 4 0 1 0 0-2h-2.28a4 4 0 0 0 -7.72 0h-3.14v-1a1 1 0 0 0 -1-1h-17a5 5 0 0 1 4-2h32a5 5 0 0 1 0 10z" fill="#b0bec5"/><circle cx="44" cy="42" fill="#ffe0b2" r="2"/><circle cx="54" cy="42" fill="#ffe0b2" r="2"/><g fill="#263238"><path d="m23 30h4a1 1 0 0 0 0-2h-4a1 1 0 0 0 0 2z"/><path d="m27 33a1 1 0 0 0 0-2h-4a1 1 0 0 0 0 2z"/></g></g></svg>