<svg height="512" viewBox="0 0 64 64" width="512" xmlns="http://www.w3.org/2000/svg"><g id="_06" data-name="06"><path d="m61 36h-5v-11s0 0 0-.06l.08-.05a3 3 0 0 0 1.23-3.55l-2.31-6.4a3 3 0 0 0 -3.2-2l-14 1.72a11.1 11.1 0 0 0 -5.42 2.25l-4.16 3.25a3 3 0 0 0 -1 3.37l1.34 3.77-2 .73a1 1 0 0 0 -.56.97v7h-5v-15a1 1 0 0 0 -1-1h-9a9 9 0 0 0 -9 9v16a1 1 0 0 0 1 1h6.1a5 5 0 0 0 9.8 0h3.1v1a1 1 0 0 0 1 1h8a1 1 0 0 0 1-1v-1h2.1a5 5 0 0 0 9.8 0h3.2a5 5 0 0 0 9.8 0h4.1a1 1 0 0 0 1-1v-8a1 1 0 0 0 -1-1zm-7 0h-26v-6.3l1.32-.49 1 2.94a3 3 0 0 0 2.83 2h.06l5.31-.15a11 11 0 0 0 5.63-1.68l9.85-6.13z" fill="#263238"/><path d="m52.08 15h.12a1 1 0 0 1 .94.66l2.28 6.34a1 1 0 0 1 -.42 1.19l-.81.52-3-8.64z" fill="#ffb74d"/><path d="m29.52 21.77 4.16-3.25a9 9 0 0 1 4.44-1.84l11-1.36 3.34 9.48-9.36 5.87a8.93 8.93 0 0 1 -4.62 1.33l-5.27.11a1 1 0 0 1 -1-.67l-3.01-8.55a1 1 0 0 1 .32-1.12z" fill="#fb8c00"/><path d="m4 34h8a1 1 0 0 0 .83-.45l1.71-2.55h4.46v5h-15z" fill="#ffb74d"/><path d="m15 22h4v7h-4z" fill="#ffb74d"/><path d="m11 22h2v7.7l-1.54 2.3h-7.46v-3a7 7 0 0 1 7-7z" fill="#ffe0b2"/><circle cx="14" cy="45" fill="#90a4ae" r="3"/><path d="m30 46h-6v-1-1h6v1z" fill="#fb8c00"/><circle cx="39" cy="45" fill="#90a4ae" r="3"/><circle cx="52" cy="45" fill="#90a4ae" r="3"/><g fill="#263238"><path d="m14 44a1 1 0 1 0 1 1 1 1 0 0 0 -1-1z"/><path d="m39 44a1 1 0 1 0 1 1 1 1 0 0 0 -1-1z"/><path d="m52 44a1 1 0 1 0 1 1 1 1 0 0 0 -1-1z"/></g><path d="m60 38v6h-3.1a5 5 0 0 0 -9.8 0h-3.2a5 5 0 0 0 -9.8 0h-2.1v-1a1 1 0 0 0 -1-1h-8a1 1 0 0 0 -1 1v1h-3.1a5 5 0 0 0 -9.8 0h-5.1v-6z" fill="#ffb74d"/></g></svg>