<svg height="512" viewBox="0 0 64 64" width="512" xmlns="http://www.w3.org/2000/svg"><g id="_09" data-name="09"><path d="m61 47h-6v-2h5a1 1 0 0 0 1-1v-12a1 1 0 0 0 -1-1h-1l-43.23-26.49a6 6 0 0 0 -8.26 2 1 1 0 0 0 -.12.76 1 1 0 0 0 .45.62l.16.11v11.18a3 3 0 1 0 3.7 4.13 1 1 0 1 0 -1.8-.87 1 1 0 1 1 -.9-1.44 1 1 0 0 0 1-1v-10.81l35.58 21.81h-.58a9 9 0 0 0 -9 9v4a1 1 0 0 0 1 1h5v2h-22v-15a1 1 0 0 0 -1-1h-8a9 9 0 0 0 -9 9v15a1 1 0 0 0 1 1h6.1a5 5 0 0 0 9.8 0h3.1v1a1 1 0 0 0 1 1h8a1 1 0 0 0 1-1v-1h2.1a5 5 0 0 0 9.8 0h3.2a5 5 0 0 0 9.8 0h4.1a1 1 0 0 0 1-1v-7a1 1 0 0 0 -1-1z" fill="#263238"/><path d="m59 43h-15v-2h6a1 1 0 0 0 1-1v-7h8z" fill="#ffb74d"/><path d="m10 6.82a.8.8 0 0 0 0-.15 4.09 4.09 0 0 1 4.79-.46l40.37 24.79h-5.75z" fill="#fb8c00"/><path d="m38 40a7 7 0 0 1 7-7h3.85l.15.09v5.91h-6a1 1 0 0 0 -1 1v3h-4z" fill="#ffe0b2"/><path d="m44 45h9v2h-9z" fill="#fb8c00"/><path d="m4 45h8a1 1 0 0 0 .83-.45l1.71-2.55h3.46v5h-14z" fill="#ffb74d"/><path d="m15 33h3v7h-3z" fill="#ffb74d"/><path d="m11 33h2v7.7l-1.54 2.3h-7.46v-3a7 7 0 0 1 7-7z" fill="#ffe0b2"/><circle cx="14" cy="55" fill="#b0bec5" r="3"/><circle cx="39" cy="55" fill="#b0bec5" r="3"/><circle cx="52" cy="55" fill="#b0bec5" r="3"/><g fill="#263238"><path d="m14 54a1 1 0 1 0 1 1 1 1 0 0 0 -1-1z"/><path d="m39 54a1 1 0 1 0 1 1 1 1 0 0 0 -1-1z"/><path d="m52 54a1 1 0 1 0 1 1 1 1 0 0 0 -1-1z"/></g><path d="m60 49v5h-3.1a5 5 0 0 0 -9.8 0h-3.2a5 5 0 0 0 -9.8 0h-2.1v-1a1 1 0 0 0 -1-1h-8a1 1 0 0 0 -1 1v1h-3.1a5 5 0 0 0 -9.8 0h-5.1v-5z" fill="#ffb74d"/><path d="m24 54h6v2h-6z" fill="#fb8c00"/></g></svg>