<svg height="512" viewBox="0 0 64 64" width="512" xmlns="http://www.w3.org/2000/svg"><g id="_03" data-name="03"><path d="m61.79 40.56-7-9.17a1 1 0 0 0 -1.34-.22l-5 3.31a3 3 0 0 0 -1.31 2.86v.39a14 14 0 0 1 -2.67-1.23 7 7 0 0 0 -4.47-4.19 13.68 13.68 0 0 1 -1.72-3.44l-.28-1.18a1 1 0 0 0 -1-.69h-7l-1.75-7h1.75a1 1 0 0 0 0-2h-13a1 1 0 0 0 0 2h1v4h-.19a22.35 22.35 0 0 0 -6.81 1.08v-4.08a1 1 0 0 0 -1-1h-2a1 1 0 0 0 0 2h1v3.81a22.79 22.79 0 0 0 -5.64 3.42 1 1 0 0 0 -.35.66l-1 9a1 1 0 0 0 .24.78 1 1 0 0 0 .75.33h3.08a7 7 0 0 0 13.84 0h11.16a7 7 0 0 0 13.92-1 16.25 16.25 0 0 0 2.48.89 5 5 0 0 0 6.15 4.11l7.6-1.9a1 1 0 0 0 .56-1.58z" fill="#263238"/><path d="m28.72 30h-8.72v-2h8.22z" fill="#fb8c00"/><path d="m26.22 20 1.5 6h-7.72v-6z" fill="#ffe0b2"/><path d="m5 30.52a20.58 20.58 0 0 1 12.81-4.52h.19v5a1 1 0 0 0 1 1h11a1 1 0 0 0 .79-.38 1 1 0 0 0 .18-.86l-.44-1.76h5.75l.16.49a15.6 15.6 0 0 0 1.09 2.51h-5.53a1 1 0 0 0 0 2h1.11a7 7 0 0 0 -2 4h-11.19a7 7 0 0 0 -6.92-6h-6a1 1 0 0 0 0 2h1.11a7 7 0 0 0 -2 4h-2z" fill="#ffb74d"/><circle cx="13" cy="39" fill="#b0bec5" r="5"/><circle cx="38" cy="39" fill="#b0bec5" r="5"/><path d="m53.14 42.1a3 3 0 0 1 -3.7-2.55l-.3-2.45a1 1 0 0 1 .44-1l4.19-2.8 5.51 7.22z" fill="#fb8c00"/><circle cx="13" cy="39" fill="#263238" r="3"/><circle cx="13" cy="39" fill="#ffe0b2" r="1"/><circle cx="38" cy="39" fill="#263238" r="3"/><circle cx="38" cy="39" fill="#ffe0b2" r="1"/></g></svg>