<svg viewBox="0 0 64 64" xmlns="http://www.w3.org/2000/svg"><g id="_01" data-name="01"><path d="m60.83 36.17a4.06 4.06 0 0 0 -2.58-1.17 11 11 0 0 0 -20.49 0h-.76v-4a1 1 0 0 0 -1-1h-7v-8a7 7 0 0 0 -2.11-5h4.11a1 1 0 0 0 0-2h-20a1 1 0 0 0 0 2h2v13h-4a1.19 1.19 0 0 0 -.32.05l-6 2a1 1 0 0 0 -.68.95v8a3 3 0 0 0 3 3h1.26a8 8 0 0 0 15.74-2 7.62 7.62 0 0 0 -.08-1.08v.08h9.08v1a1 1 0 0 0 1 1h5.76a11 11 0 0 0 20.49 0 4 4 0 0 0 2.58-6.8z" fill="#263238"/><path d="m48 30a9 9 0 0 1 8.06 5h-16.12a9 9 0 0 1 8.06-5z" fill="#fb8c00"/><path d="m48 48a9 9 0 0 1 -8.06-5h16.12a9 9 0 0 1 -8.06 5z" fill="#fb8c00"/><path d="m58 41h-25v-9h2v4a1 1 0 0 0 1 1h22a1.76 1.76 0 0 1 2 2 2 2 0 0 1 -2 2z" fill="#ffb74d"/><path d="m48 38a1 1 0 0 0 0 2 1 1 0 0 0 0-2z" fill="#263238"/><path d="m20 17h2a5 5 0 0 1 5 5v5h-5.46l-1.54-2.3z" fill="#ffe0b2"/><path d="m15 17h3v6.99l-3-.03z" fill="#ffb74d"/><path d="m15 26h3.46l1.71 2.55a1 1 0 0 0 .83.45h6v1h-12z" fill="#ffb74d"/><circle cx="14" cy="42" fill="#90a4ae" r="6"/><path d="m31 39h-5.15l5.15-2.42z" fill="#fb8c00"/><path d="m31 34.37-9.63 4.53a8 8 0 0 0 -7.37-4.9h-7a1 1 0 0 0 0 2h1.73a8 8 0 0 0 -2.73 6h-1a1 1 0 0 1 -1-1v-7.28l5.16-1.72h21.84z" fill="#ffb74d"/><circle cx="14" cy="42" fill="#263238" r="3"/><circle cx="14" cy="42" fill="#ffe0b2" r="1"/></g></svg>