<svg height="512" viewBox="0 0 64 64" width="512" xmlns="http://www.w3.org/2000/svg"><g id="_04" data-name="04"><path d="m59.21 35.66-.79-.15a11 11 0 0 0 -20.21-1.51h-3.21v-2a1 1 0 0 0 1-1v-5a1.12 1.12 0 0 0 0-.31l-2.87-8.69h2.87a1 1 0 0 0 0-2h-17a1 1 0 0 0 0 2h2l-.87 8a24.15 24.15 0 0 0 -5.1.66v-3.66a1 1 0 0 0 -1-1h-2.03a1 1 0 0 0 0 2h1v3.22a24.47 24.47 0 0 0 -10.75 7.12 1 1 0 0 0 -.25.66v8a1 1 0 0 0 1 1h4.15a8.49 8.49 0 0 0 16.71 0h6.93a2.94 2.94 0 0 0 2.21 1h5.21a11 11 0 0 0 20.21-1.51l.79-.15a3.39 3.39 0 0 0 0-6.68z" fill="#263238"/><path d="m48 30a9 9 0 0 1 8.11 5.09l-5.93-1.09h-.18-9.48a9 9 0 0 1 7.48-4z" fill="#fb8c00"/><path d="m31.02 17 2.98 9.16v3.84h-3v-13z" fill="#ffe0b2"/><path d="m22 28h7v2h-7z" fill="#ffb74d"/><path d="m29 17v9h-6.99l.97-9z" fill="#ffe0b2"/><path d="m15.5 48a6.5 6.5 0 0 1 -6.5-6.12c0-.13 0-.25 0-.38a6.5 6.5 0 0 1 13 0v.38a.13.13 0 0 0 0 .06 6.48 6.48 0 0 1 -6.5 6.06z" fill="#b0bec5"/><path d="" fill="#b0bec5"/><path d="m28 41v-9h5v2a3 3 0 0 0 -3 3v4z" fill="#fb8c00"/><path d="m48 48a9 9 0 0 1 -7.48-4h9.48.18l5.93-1.07a9 9 0 0 1 -8.11 5.07z" fill="#fb8c00"/><path d="m58.85 40.38-1.37.25-7.57 1.37h-16.91a1 1 0 0 1 -.87-.51 1 1 0 0 1 -.13-.49v-4a1 1 0 0 1 1-1h16.91l7.56 1.37 1.37.25a1.4 1.4 0 0 1 0 2.76z" fill="#ffb74d"/><circle cx="15.5" cy="41.5" fill="#263238" r="3.5"/><circle cx="15.5" cy="41.5" fill="#ffe0b2" r="1.5"/><path d="m50 38h-4a1 1 0 0 0 0 2h4a1 1 0 0 0 0-2z" fill="#263238"/><path d="m26 32v9h-2a8.51 8.51 0 0 0 -8.49-8h-7.51a1 1 0 0 0 0 2h2a8.45 8.45 0 0 0 -3 6h-3v-6.62a22.41 22.41 0 0 1 10.09-6.38.89.89 0 0 0 .39-.12 22.15 22.15 0 0 1 5.52-.88v4a1 1 0 0 0 1 1z" fill="#ffb74d"/></g></svg>