<svg height="512" viewBox="0 0 64 64" width="512" xmlns="http://www.w3.org/2000/svg"><g id="_01" data-name="01"><path d="m62 22h-60a1 1 0 0 0 -1 1v16a1 1 0 0 0 1 1h1.67a3.47 3.47 0 0 0 6.79.86 3.46 3.46 0 0 0 6.78-.86h.76a1 1 0 0 0 1-1v-3.67l2-2.66v2.33a1 1 0 0 0 .11.45l2 4a1 1 0 0 0 .89.55h2v.1 4.9a1 1 0 0 0 2 0v-3h2v3a1 1 0 0 0 2 0v-4.9-.1h2a1 1 0 0 0 .83-.45l2-3a1 1 0 0 0 .17-.55v-3.52l1 .41s0 .11 0 .11v6a1 1 0 0 0 1 1h8.76a3.46 3.46 0 0 0 6.78.86 3.47 3.47 0 0 0 6.79-.86h.67a1 1 0 0 0 1-1v-16a1 1 0 0 0 -1-1zm-37.38 16-1.62-3.24v-2.76h2v3s0 .07 0 .11a.27.27 0 0 0 0 .09l.56 2.8zm10.38-2.3-1.54 2.3h-1l.54-2.8a.27.27 0 0 0 0-.09s0-.11 0-.11v-3h2z" fill="#263238"/><path d="m3 24h58v10h-6.78l-16.79-7.9a.94.94 0 0 0 -.43-.1h-18a1 1 0 0 0 -.8.4l-5.7 7.6h-1.5v-6a1 1 0 0 0 -1-1h-4a1 1 0 0 0 -1 1v6h-2z" fill="#ffb74d"/><path d="m7 29h2v5h-2z" fill="#ffe0b2"/><path d="m3 36h3 4 7v2h-.89-4.67-1.96-4.67-1.81z" fill="#fb8c00"/><path d="m7.14 41.34a1.49 1.49 0 0 1 -1.47-1.34h2.95a1.49 1.49 0 0 1 -1.48 1.34z" fill="#90a4ae"/><path d="m13.77 41.34a1.51 1.51 0 0 1 -1.48-1.34h3a1.49 1.49 0 0 1 -1.52 1.34z" fill="#90a4ae"/><path d="m17.5 34h-2.5l4.5-6h17.28l12.75 6h-3.34l-9.82-3.93a.94.94 0 0 0 -.37-.07h-15a1 1 0 0 0 -.8.4z" fill="#ffb74d"/><g fill="#fb8c00"><path d="m27 32h4v2h-4z"/><path d="m28 40a1.36 1.36 0 0 0 0-.2l-.78-3.8h3.56l-.78 3.8a1.36 1.36 0 0 0 0 .2z"/><path d="m40 33.68 5 2v2.32h-5z"/><path d="m47 36h14v2h-.81-4.67-1.96-4.67-1.89z"/></g><path d="m51.23 41.34a1.49 1.49 0 0 1 -1.48-1.34h3a1.51 1.51 0 0 1 -1.52 1.34z" fill="#90a4ae"/><path d="m57.86 41.34a1.49 1.49 0 0 1 -1.48-1.34h2.95a1.49 1.49 0 0 1 -1.47 1.34z" fill="#90a4ae"/><rect fill="#263238" height="6" rx="1" width="10" x="49" y="25"/><path d="m51 27h6v2h-6z" fill="#ffe0b2"/></g></svg>