<svg height="512" viewBox="0 0 64 64" width="512" xmlns="http://www.w3.org/2000/svg"><g id="_15" data-name="15"><path d="m59 36h-4v-1h4a1 1 0 0 0 1-1v-8a1 1 0 0 0 -1-1h-12v-4a1 1 0 0 0 -1-1h-7a6.88 6.88 0 0 0 -3.55 1l-.1.06a6.8 6.8 0 0 0 -2.09 2 1.19 1.19 0 0 0 -.26-.06h-4a1 1 0 0 0 -1 1v1h-3v-1a1 1 0 0 0 -2 0v1h-2v-1a1 1 0 0 0 -2 0v1h-2v-1a1 1 0 0 0 -2 0v1h-2v-1a1 1 0 0 0 -2 0v1h-2v-1a1 1 0 0 0 -2 0v1a4 4 0 0 0 -1.34.25l-1-1a1 1 0 0 0 -1.42 1.42l.7.69a4 4 0 0 0 -.8 1.64h-1.14a1 1 0 0 0 0 2h1.14a4 4 0 0 0 .86 1.6l-.7.69a1 1 0 0 0 0 1.42 1 1 0 0 0 1.42 0l1-1a4 4 0 0 0 1.28.29v1a1 1 0 0 0 2 0v-1h2v1a1 1 0 0 0 2 0v-1h2v1a1 1 0 0 0 2 0v-1h2v1a1 1 0 0 0 2 0v-1h2v1a1 1 0 0 0 2 0v-1h3v1a1 1 0 0 0 1 1h8v1h-6a4 4 0 0 0 0 8h28a4 4 0 0 0 0-8z" fill="#263238"/><path d="m47 27h11v6h-11z" fill="#ffb74d"/><path d="m45 26v7h-3v-11h3z" fill="#ffb74d"/><path d="m36.42 22.72h.09a4.86 4.86 0 0 1 2.49-.72h1v7h-6v-2a5 5 0 0 1 .24-1.53 5.09 5.09 0 0 1 2.18-2.75z" fill="#ffe0b2"/><path d="m7 31a2 2 0 0 1 0-4h21v4z" fill="#fb8c00"/><path d="m30 32v-6-1h2v2 6h-2z" fill="#ffb74d"/><path d="m34 31h6v2h-6z" fill="#ffb74d"/><path d="m39 35h7 7v1h-14z" fill="#fb8c00"/><path d="m59 42h-28a2 2 0 0 1 0-4h28a2 2 0 0 1 0 4z" fill="#b0bec5"/><path d="m58 39h-26a1 1 0 0 0 0 2h26a1 1 0 0 0 0-2z" fill="#263238"/></g></svg>