<svg height="512" viewBox="0 0 32 32" width="512" xmlns="http://www.w3.org/2000/svg"><g id="Layer_6" data-name="Layer 6"><path d="m17 3.68v5l-5-1v-3z" fill="#b3b3b3"/><path d="m12 4.68v1.14l4-.8v3.46l1 .2v-5z" fill="#808080"/><path d="m17 9.18h-.1l-5-1a.5.5 0 0 1 -.4-.49v-3a.5.5 0 0 1 .4-.49l5-1a.51.51 0 0 1 .42.1.5.5 0 0 1 .18.39v5a.5.5 0 0 1 -.5.5zm-4.5-1.91 4 .8v-3.78l-4 .8z"/><path d="m17 3.68h5v5h-5z" fill="#ff0"/><path d="m17 3.68v1.5h3.67v3.5h1.33v-5z" fill="#f7931e"/><path d="m22 9.18h-5a.5.5 0 0 1 -.5-.5v-5a.5.5 0 0 1 .5-.5h5a.5.5 0 0 1 .5.5v5a.5.5 0 0 1 -.5.5zm-4.5-1h4v-4h-4z"/><path d="m26 15.68v5h-1a5 5 0 0 0 -5 5h11v-10z" fill="#ff0"/><path d="m29.25 15.68v9.7h-9.25v.3h11v-10z" fill="#f7931e"/><path d="m31 26.18h-11a.5.5 0 0 1 -.5-.5 5.49 5.49 0 0 1 .16-1.34.5.5 0 1 1 1 .24 4.57 4.57 0 0 0 -.11.6h10v-9h-4v4.5a.5.5 0 0 1 -.5.5h-1.05a4.62 4.62 0 0 0 -.73.06 4.33 4.33 0 0 0 -.62.15 4.24 4.24 0 0 0 -.48.18 4.5 4.5 0 0 0 -.47.25.5.5 0 1 1 -.51-.86 5.63 5.63 0 0 1 .58-.3 5.22 5.22 0 0 1 .59-.22 5.45 5.45 0 0 1 .76-.18 5.61 5.61 0 0 1 .89-.07h.5v-4.5a.5.5 0 0 1 .5-.5h5a.5.5 0 0 1 .5.5v10a.5.5 0 0 1 -.51.49z"/><path d="m20.69 23.64a.5.5 0 0 1 -.43-.75 5.48 5.48 0 0 1 .39-.58.5.5 0 1 1 .79.61 4.64 4.64 0 0 0 -.32.47.5.5 0 0 1 -.43.25z"/><path d="m31 15.25h-7v-5.79h-2v-5.78h6.5a2.62 2.62 0 0 1 2.45 2.32l.05 9.22" fill="#b3b3b3"/><path d="m30.95 6a2.62 2.62 0 0 0 -2.45-2.32h-6.5v1.5h4.5a2.62 2.62 0 0 1 2.45 2.31v7.76h2z" fill="#808080"/><path d="m31 15.72a.5.5 0 0 1 -.5-.5l-.05-9.22a2.11 2.11 0 0 0 -1.95-1.82.5.5 0 0 1 0-1 3.13 3.13 0 0 1 2.94 2.72l.06 9.31a.5.5 0 0 1 -.5.5z"/><path d="m27.31 4.18h-.81a.5.5 0 0 1 0-1h.81a.5.5 0 0 1 0 1z"/><path d="m31 15.75h-7a.5.5 0 0 1 -.5-.5v-5.25h-1.5a.5.5 0 0 1 -.5-.5v-5.82a.5.5 0 0 1 .5-.5h2.83a.5.5 0 0 1 0 1h-2.33v4.82h1.5a.5.5 0 0 1 .5.5v5.29h6.5a.5.5 0 0 1 0 1z"/><path d="m22 8.68h2.46a6.54 6.54 0 0 1 6.54 6.54v2.46a0 0 0 0 1 0 0h-8a1 1 0 0 1 -1-1v-8a0 0 0 0 1 0 0z" fill="#b3b3b3"/><path d="m24.46 8.68h-2.46v.62h.71a6.54 6.54 0 0 1 6.54 6.54v1.83h1.75v-2.45a6.54 6.54 0 0 0 -6.54-6.54z" fill="#808080"/><path d="m31 18.18h-8a1.51 1.51 0 0 1 -1.51-1.51v-8a.5.5 0 0 1 .5-.5h2.46a7 7 0 0 1 7 7v2.46a.5.5 0 0 1 -.45.55zm-8.5-9v7.49a.51.51 0 0 0 .51.51h7.49v-2a6 6 0 0 0 -6-6z"/><path d="m24.89 11.68h-2.89v5a1 1 0 0 0 1 1h1v-2h1a2 2 0 0 0 2-2.34 2.07 2.07 0 0 0 -2.11-1.66z" fill="#ff0"/><path d="m27 13.34a2.07 2.07 0 0 0 -2.08-1.66h-.17a1.84 1.84 0 0 1 .25.66 2 2 0 0 1 -2 2.34h-1v2a1 1 0 0 0 1 1h1v-2h1a2 2 0 0 0 2-2.34z" fill="#f7931e"/><path d="m24 18.18h-1a1.51 1.51 0 0 1 -1.51-1.51v-5a.5.5 0 0 1 .5-.5h2.89a2.58 2.58 0 0 1 2.57 2.08 2.5 2.5 0 0 1 -2.45 2.93h-.5v1.5a.5.5 0 0 1 -.5.5zm-1.5-6v4.49a.51.51 0 0 0 .51.51h.49v-1.5a.5.5 0 0 1 .5-.5h1a1.5 1.5 0 0 0 1.48-1.76 1.57 1.57 0 0 0 -1.59-1.24z"/><path d="m19 5.86h-2a.5.5 0 0 1 0-1h2a.5.5 0 0 1 0 1z"/><path d="m19 7.18h-2a.5.5 0 0 1 0-1h2a.5.5 0 0 1 0 1z"/><path d="m12 5.18v2h-8.59a3.41 3.41 0 0 1 -2.41-1 3.41 3.41 0 0 1 2.41-1z" fill="#b3b3b3"/><path d="m12 7.68h-8.59a3.94 3.94 0 0 1 -2.76-1.15.5.5 0 0 1 0-.71 3.89 3.89 0 0 1 2.76-1.14h8.59a.5.5 0 0 1 .5.5v2a.5.5 0 0 1 -.5.5zm-10.22-1.5a2.94 2.94 0 0 0 1.63.5h8.09v-1h-8.09a2.89 2.89 0 0 0 -1.63.5z"/><path d="m12 7.68a.5.5 0 0 1 -.35-.15l-2-2a.5.5 0 0 1 .71-.71l2 2a.5.5 0 0 1 -.35.85z"/><path d="m10 7.68a.5.5 0 0 1 -.35-.15l-2-2a.5.5 0 0 1 .71-.71l2 2a.5.5 0 0 1 -.35.85z"/><path d="m8 7.68a.5.5 0 0 1 -.35-.15l-2-2a.5.5 0 0 1 .71-.71l2 2a.5.5 0 0 1 -.36.86z"/><path d="m6 7.68a.5.5 0 0 1 -.35-.15l-2-2a.5.5 0 0 1 .71-.71l2 2a.5.5 0 0 1 -.36.86z"/><path d="m4 7.68a.5.5 0 0 1 -.35-.15l-1.78-1.78a.5.5 0 0 1 .7-.75l1.78 1.82a.5.5 0 0 1 -.35.86z"/></g></svg>