<svg height="512" viewBox="0 0 32 32" width="512" xmlns="http://www.w3.org/2000/svg"><g id="Layer_12" data-name="Layer 12"><path d="m6.35 8.07h8.69v3.86h-8.69z" fill="#f7931e"/><path d="m13.03 8.07h1.93v3.86h-1.93z" fill="#f15a24"/><path d="m15 12.43h-8.65a.5.5 0 0 1 -.5-.5v-3.86a.5.5 0 0 1 .5-.5h8.65a.5.5 0 0 1 .5.5v3.86a.5.5 0 0 1 -.5.5zm-8.19-1h7.69v-2.86h-7.65z"/><path d="m16.97 8.07h8.69v3.86h-8.69z" fill="#f7931e"/><path d="m23.65 8.07h1.93v3.86h-1.93z" fill="#f15a24"/><path d="m25.65 12.43h-3.3a.5.5 0 0 1 0-1h2.8v-2.86h-7.68v2.86h3.35a.5.5 0 0 1 0 1h-3.82a.5.5 0 0 1 -.5-.5v-3.86a.5.5 0 0 1 .5-.5h8.69a.5.5 0 0 1 .5.5v3.86a.5.5 0 0 1 -.54.5z"/><path d="m6.35 20.07h8.69v3.86h-8.69z" fill="#f7931e"/><path d="m13.03 20.07h1.93v3.86h-1.93z" fill="#f15a24"/><path d="m15 24.43h-8.65a.5.5 0 0 1 -.5-.5v-3.86a.5.5 0 0 1 .5-.5h1.23a.5.5 0 1 1 0 1h-.73v2.86h7.69v-2.86h-5.16a.5.5 0 0 1 0-1h5.62a.5.5 0 0 1 .5.5v3.86a.5.5 0 0 1 -.5.5z"/><path d="m16.97 20.07h8.69v3.86h-8.69z" fill="#f7931e"/><path d="m23.65 20.07h1.93v3.86h-1.93z" fill="#f15a24"/><path d="m25.65 24.43h-8.65a.5.5 0 0 1 -.5-.5v-3.86a.5.5 0 0 1 .5-.5h8.69a.5.5 0 0 1 .5.5v3.86a.5.5 0 0 1 -.54.5zm-8.19-1h7.69v-2.86h-7.68z"/><path d="m1.04 2h8.69v3.86h-8.69z" fill="#f7931e"/><path d="m7.73 2h1.93v3.86h-1.93z" fill="#f15a24"/><path d="m9.73 6.36h-8.73a.5.5 0 0 1 -.5-.5v-3.86a.5.5 0 0 1 .5-.5h3.17a.5.5 0 0 1 0 1h-2.63v2.86h7.69v-2.86h-3.32a.5.5 0 0 1 0-1h3.82a.5.5 0 0 1 .5.5v3.86a.5.5 0 0 1 -.5.5z"/><path d="m11.66 2h8.69v3.86h-8.69z" fill="#f7931e"/><path d="m18.35 2h1.93v3.86h-1.93z" fill="#f15a24"/><path d="m20.35 6.36h-8.69a.5.5 0 0 1 -.5-.5v-3.86a.5.5 0 0 1 .5-.5h8.69a.5.5 0 0 1 .5.5v3.86a.5.5 0 0 1 -.5.5zm-8.19-1h7.69v-2.86h-7.69z"/><path d="m22.28 2h8.69v3.86h-8.69z" fill="#f7931e"/><path d="m28.97 2h1.93v3.86h-1.93z" fill="#f15a24"/><path d="m31 6.36h-8.72a.5.5 0 0 1 -.5-.5v-3.86a.5.5 0 0 1 .5-.5h8.72a.5.5 0 0 1 .5.5v3.86a.5.5 0 0 1 -.5.5zm-8.19-1h7.69v-2.86h-7.72z"/><path d="m1.04 26.14h8.69v3.86h-8.69z" fill="#f7931e"/><path d="m7.73 26.14h1.93v3.86h-1.93z" fill="#f15a24"/><path d="m9.73 30.5h-8.73a.5.5 0 0 1 -.5-.5v-3.86a.5.5 0 0 1 .5-.5h8.73a.5.5 0 0 1 .5.5v3.86a.5.5 0 0 1 -.5.5zm-8.19-1h7.69v-2.86h-7.69z"/><path d="m11.66 26.14h8.69v3.86h-8.69z" fill="#f7931e"/><path d="m18.35 26.14h1.93v3.86h-1.93z" fill="#f15a24"/><path d="m20.35 30.5h-8.69a.5.5 0 0 1 -.5-.5v-3.86a.5.5 0 0 1 .5-.5h8.69a.5.5 0 0 1 .5.5v3.86a.5.5 0 0 1 -.5.5zm-8.19-1h7.69v-2.86h-7.69z"/><path d="m22.28 26.14h8.69v3.86h-8.69z" fill="#f7931e"/><path d="m28.97 26.14h1.93v3.86h-1.93z" fill="#f15a24"/><path d="m31 30.5h-8.72a.5.5 0 0 1 -.5-.5v-3.86a.5.5 0 0 1 .5-.5h2a.5.5 0 0 1 0 1h-1.5v2.86h7.69v-2.86h-4.15a.5.5 0 0 1 0-1h4.68a.5.5 0 0 1 .5.5v3.86a.5.5 0 0 1 -.5.5z"/><path d="m1.04 14.07h8.69v3.86h-8.69z" fill="#f7931e"/><path d="m7.72 14.07h1.93v3.86h-1.93z" fill="#f15a24"/><path d="m9.72 18.43h-8.72a.5.5 0 0 1 -.5-.5v-3.86a.5.5 0 0 1 .5-.5h8.72a.5.5 0 0 1 .5.5v3.86a.5.5 0 0 1 -.5.5zm-8.19-1h7.69v-2.86h-7.68z"/><path d="m11.66 14.07h8.69v3.86h-8.69z" fill="#f7931e"/><path d="m18.34 14.07h1.93v3.86h-1.93z" fill="#f15a24"/><path d="m20.34 18.43h-3.7a.5.5 0 1 1 0-1h3.2v-2.86h-7.68v2.86h2.84a.5.5 0 1 1 0 1h-3.34a.5.5 0 0 1 -.5-.5v-3.86a.5.5 0 0 1 .5-.5h8.69a.5.5 0 0 1 .5.5v3.86a.5.5 0 0 1 -.51.5z"/><path d="m22.28 14.07h8.69v3.86h-8.69z" fill="#f7931e"/><path d="m28.96 14.07h1.93v3.86h-1.93z" fill="#f15a24"/><path d="m31 18.43h-8.72a.5.5 0 0 1 -.5-.5v-3.86a.5.5 0 0 1 .5-.5h8.72a.5.5 0 0 1 .5.5v3.86a.5.5 0 0 1 -.5.5zm-8.19-1h7.69v-2.86h-7.72z"/></g></svg>