<svg height="512" viewBox="0 0 32 32" width="512" xmlns="http://www.w3.org/2000/svg"><g id="Layer_11" data-name="Layer 11"><path d="m19.28 17.01h-5.7l1.6-6.84h4.1z" fill="#999"/><path d="m17.28 10.17h2v6.84h-2z" fill="#808080"/><path d="m19.28 17.51h-5.7a.5.5 0 0 1 -.49-.61l1.59-6.84a.5.5 0 0 1 .49-.39h4.1a.5.5 0 0 1 .5.5v6.83a.5.5 0 0 1 -.49.51zm-5.07-1h4.57v-5.84h-3.21z"/><path d="m9.33 17.01h6.76v4.56h-6.76z" fill="#999"/><path d="m16.08 22.07h-6.75a.5.5 0 0 1 -.5-.5v-4.57a.5.5 0 0 1 .5-.5h6.76a.5.5 0 0 1 .5.5v4.56a.5.5 0 0 1 -.51.51zm-6.26-1h5.76v-3.56h-5.75z"/><rect fill="#ccc" height="14.53" rx="1" transform="matrix(.882 -.471 .471 .882 -5.19 4.74)" width="2.24" x="5.75" y="5.47"/><path d="m10.8 17.74-5.9-11.06a1 1 0 0 0 -1.35-.41 1 1 0 0 1 .4.38l5.85 11.09a1 1 0 0 1 -.41 1.35l-.16.09a1 1 0 0 0 1 0l.21-.11a1 1 0 0 0 .36-1.33z" fill="#808080"/><path d="m9.72 19.82a1.5 1.5 0 0 1 -1.33-.82l-5.91-11a1.5 1.5 0 0 1 .62-2l.21-.11a1.5 1.5 0 0 1 2 .62l2.17 4.06a.5.5 0 0 1 -.88.47l-2.14-4.12a.5.5 0 0 0 -.68-.21l-.21.11a.5.5 0 0 0 -.21.68l5.91 11.06a.5.5 0 0 0 .68.21l.21-.11a.5.5 0 0 0 .21-.68l-2.09-3.9a.5.5 0 1 1 .88-.47l2.09 3.9a1.5 1.5 0 0 1 -.62 2l-.21.11a1.49 1.49 0 0 1 -.7.2z"/><path d="m8.13 13.24a.5.5 0 0 1 -.44-.24l-.37-.7a.5.5 0 0 1 .88-.47l.37.7a.5.5 0 0 1 -.44.74z"/><path d="m31.13 21.57h-11.85v-6.38h8.38l3.47 3.47z" fill="#ff0"/><path d="m27.66 15.18h-2l3.47 3.47v2.91h2v-2.91z" fill="#f7931e"/><path d="m31.13 22.07h-11.85a.5.5 0 0 1 -.5-.5v-6.38a.5.5 0 0 1 .5-.5h8.38a.5.5 0 0 1 .35.15l1.19 1.16a.5.5 0 0 1 -.71.71l-1-1h-7.71v5.38h10.85v-2.2l-.86-.89a.5.5 0 1 1 .71-.71l1 1a.5.5 0 0 1 .15.35v2.91a.5.5 0 0 1 -.5.52z"/><path d="m21.1 21.57h-9.1v-3.31l1.24-1.26h7.86z" fill="#ff0"/><path d="m19.1 17.01h2v4.56h-2z" fill="#f7931e"/><path d="m21.1 22.07h-9.1a.5.5 0 0 1 -.5-.5v-3.31a.5.5 0 0 1 .15-.35l1.25-1.25a.5.5 0 0 1 .35-.15h7.85a.5.5 0 0 1 .5.5v4.56a.5.5 0 0 1 -.5.5zm-8.61-1h8.11v-3.56h-7.16l-1 1z"/><path d="m27.21 19.86h.38a3 3 0 0 1 3 3v.14a0 0 0 0 1 0 0h-6.38a0 0 0 0 1 0 0v-.19a3 3 0 0 1 3-2.95z" fill="#ff0"/><path d="m30.6 23.55h-6.39a.5.5 0 0 1 -.5-.5v-.19a3.5 3.5 0 0 1 3.5-3.5h.38a3.5 3.5 0 0 1 3.5 3.5v.14a.5.5 0 0 1 -.49.55zm-5.86-1h5.34a2.5 2.5 0 0 0 -2.48-2.19h-.38a2.5 2.5 0 0 0 -2.49 2.19z"/><path d="m25.99 15.07h-1.78v-4.25h.83z" fill="#f7931e"/><path d="m26 15.57h-1.79a.5.5 0 0 1 -.5-.5v-4.25a.5.5 0 0 1 .5-.5h.79a.5.5 0 0 1 .49.39l1 4.25a.5.5 0 0 1 -.49.61zm-1.27-1h.65l-.65-2.9z"/><path d="m15.52 19.86h.38a3 3 0 0 1 3 3v.14a0 0 0 0 1 0 0h-6.38a0 0 0 0 1 0 0v-.19a3 3 0 0 1 3-2.95z" fill="#ff0"/><path d="m18.9 23.55h-6.38a.5.5 0 0 1 -.52-.55v-.19a3.5 3.5 0 0 1 3.5-3.5h.38a3.5 3.5 0 0 1 3.5 3.5v.19a.5.5 0 0 1 -.48.55zm-5.86-1h5.34a2.5 2.5 0 0 0 -2.48-2.19h-.38a2.5 2.5 0 0 0 -2.52 2.19z"/><path d="m6.93 26.43-6.13-2.72 2.27-5.11 3.06 1.36z" fill="#ccc"/><path d="m4.13 19.96.69 5.53 2.11.94-.8-6.47-3.06-1.36-.33.74z" fill="#808080"/><path d="m6.93 26.93a.5.5 0 0 1 -.2 0l-6.13-2.76a.5.5 0 0 1 -.25-.66l2.26-5.11a.5.5 0 0 1 .66-.25l3.07 1.35a.5.5 0 0 1 .29.4l.8 6.47a.5.5 0 0 1 -.5.56zm-5.47-3.47 4.87 2.16-.66-5.32-2.35-1z"/><rect fill="#ccc" height="14.53" rx="1" width="2.24" x="2.75" y="6.25"/><path d="m4 6.25h-.25a1 1 0 0 0 -.38.08 1 1 0 0 1 .63.92v12.53a1 1 0 0 1 -.62.92 1 1 0 0 0 .38.08h.24a1 1 0 0 0 1-1v-12.53a1 1 0 0 0 -1-1z" fill="#808080"/><path d="m4 21.28h-.25a1.5 1.5 0 0 1 -1.5-1.5v-2.78a.5.5 0 0 1 1 0v2.77a.5.5 0 0 0 .5.5h.25a.5.5 0 0 0 .5-.5v-12.52a.5.5 0 0 0 -.5-.5h-.25a.5.5 0 0 0 -.5.5v8.13a.5.5 0 0 1 -1 0v-8.13a1.5 1.5 0 0 1 1.5-1.5h.25a1.5 1.5 0 0 1 1.5 1.5v12.53a1.5 1.5 0 0 1 -1.5 1.5z"/><path d="m17.49 10.36v2.91a1.1 1.1 0 0 1 -1.1 1.1h-2.19l1-4.2h2.32z" fill="#0ff"/><path d="m16.39 14.87h-2.19a.5.5 0 0 1 -.49-.61l1-4.2a.5.5 0 0 1 .49-.39h2.32a.5.5 0 0 1 .5.5v3.1a1.6 1.6 0 0 1 -1.63 1.6zm-1.57-1h1.57a.6.6 0 0 0 .6-.6v-2.6h-1.42z"/><path d="m10.56 21.78a.5.5 0 0 1 -.5-.5v-2a.5.5 0 0 1 1 0v2a.5.5 0 0 1 -.5.5z"/><path d="m23.29 19.1a.5.5 0 0 1 -.5-.5v-1.39a.5.5 0 0 1 1 0v1.39a.5.5 0 0 1 -.5.5z"/><path d="m24.94 19.1a.5.5 0 0 1 -.5-.5v-1.39a.5.5 0 1 1 1 0v1.39a.5.5 0 0 1 -.5.5z"/><path d="m26.58 19.1a.5.5 0 0 1 -.5-.5v-1.39a.5.5 0 0 1 1 0v1.39a.5.5 0 0 1 -.5.5z"/><circle cx="15.71" cy="24.11" fill="#999" r="2.13"/><path d="m15.71 22a2.11 2.11 0 0 0 -.5.07 2.12 2.12 0 0 1 0 4.12 2.12 2.12 0 1 0 .5-4.19z" fill="#666"/><path d="m15.71 26.74a2.63 2.63 0 1 1 2.63-2.63 2.63 2.63 0 0 1 -2.63 2.63zm0-4.25a1.63 1.63 0 1 0 1.63 1.63 1.63 1.63 0 0 0 -1.63-1.64z"/><path d="m15.71 25.14a.5.5 0 0 1 -.5-.5v-1.06a.5.5 0 0 1 1 0v1.06a.5.5 0 0 1 -.5.5z"/><circle cx="27.41" cy="24.11" fill="#999" r="2.13"/><path d="m27.41 22a2.11 2.11 0 0 0 -.5.07 2.12 2.12 0 0 1 0 4.12 2.12 2.12 0 1 0 .5-4.19z" fill="#666"/><path d="m27.41 26.74a2.63 2.63 0 1 1 2.59-2.63 2.63 2.63 0 0 1 -2.59 2.63zm0-4.25a1.63 1.63 0 1 0 1.59 1.62 1.63 1.63 0 0 0 -1.59-1.63z"/><path d="m27.41 25.14a.5.5 0 0 1 -.5-.5v-1.06a.5.5 0 0 1 1 0v1.06a.5.5 0 0 1 -.5.5z"/><path d="m19.09 21.61h4.94v1.81h-4.94z" fill="#999"/><path d="m24 23.92h-4.91a.5.5 0 0 1 -.5-.5v-1.81a.5.5 0 0 1 .5-.5h4.91a.5.5 0 0 1 .5.5v1.81a.5.5 0 0 1 -.5.5zm-4.44-1h3.94v-.81h-3.91z"/><path d="m15.84 8.76h-.93-1.95v1.41h6.32v4.9h1.41v-4.9-1.41h-.67-.74-.53" fill="#f7931e"/><path d="m20.69 15.57h-1.41a.5.5 0 0 1 -.5-.5v-4.4h-5.78a.5.5 0 0 1 -.5-.5v-1.41a.5.5 0 0 1 .5-.5h2.89a.5.5 0 0 1 0 1h-2.43v.41h5.82a.5.5 0 0 1 .5.5v4.4h.41v-5.31h-1.44a.5.5 0 0 1 0-1h1.94a.5.5 0 0 1 .5.5v6.31a.5.5 0 0 1 -.5.5z"/><path d="m19.67 19.5h-1.84a.5.5 0 0 1 -.49-.4l-.34-1.69a.5.5 0 0 1 1-.2l.26 1.28h.92v-1.28a.5.5 0 0 1 1 0v1.79a.5.5 0 0 1 -.51.5z"/><path d="m17.7 9.26h-.58a.5.5 0 0 1 0-1h.58a.5.5 0 0 1 0 1z"/><circle cx="4.01" cy="7.39" fill="#666" r="1.26"/><path d="m4 9.15a1.76 1.76 0 1 1 1.76-1.76 1.76 1.76 0 0 1 -1.76 1.76zm0-2.52a.76.76 0 1 0 .76.76.76.76 0 0 0 -.76-.76z"/><path d="m29.09 27.54h-24.57a.5.5 0 0 1 0-1h24.57a.5.5 0 0 1 0 1z"/><path d="m2.63 27.51h-.63a.5.5 0 0 1 0-1h.6a.5.5 0 0 1 0 1z"/><path d="m30.84 27.51h-.24a.5.5 0 0 1 0-1h.24a.5.5 0 0 1 0 1z"/></g></svg>