<svg height="512" viewBox="0 0 32 32" width="512" xmlns="http://www.w3.org/2000/svg"><g id="Layer_10" data-name="Layer 10"><path d="m20.38 6.08h-.86-3.02v1.72h11.22v11.22h1.72v-3.29-1.02-1.01-.67-.76-4.47-1.72h-1.72-3.2-.73" fill="#f7931e"/><path d="m29.44 19.52h-1.72a.5.5 0 0 1 -.5-.5v-10.72h-10.72a.5.5 0 0 1 -.5-.5v-1.72a.5.5 0 0 1 .5-.5h3.88a.5.5 0 0 1 0 1h-3.38v.72h10.72a.5.5 0 0 1 .5.5v10.72h.73v-11.94h-5.16a.5.5 0 0 1 0-1h5.65a.5.5 0 0 1 .5.5v12.92a.5.5 0 0 1 -.5.52z"/><path d="m22.58 6.58h-.58a.5.5 0 0 1 0-1h.6a.5.5 0 0 1 0 1z"/><rect fill="#ccc" height="7.05" rx=".9" transform="matrix(-.707 .707 -.707 -.707 30.68 15.89)" width="1.8" x="11.15" y="10.77"/><path d="m13.91 17.55a1.39 1.39 0 0 1 -1-.41l-3.7-3.71a1.4 1.4 0 0 1 0-2 1.43 1.43 0 0 1 2 0l3.71 3.71a1.4 1.4 0 0 1 -1 2.39zm-4-5.39a.4.4 0 0 0 0 .56l3.71 3.71a.41.41 0 0 0 .56 0 .4.4 0 0 0 0-.56l-3.71-3.71a.41.41 0 0 0 -.56 0z"/><path d="m21.68 7.8v5.2h-7.19l-2.3 2.3v3.7h15.53v-11.2z" fill="#ff0"/><path d="m24.72 7.8h3v11.22h-3z" fill="#f7931e"/><path d="m27.72 19.52h-15.54a.5.5 0 0 1 -.5-.5v-3.74a.5.5 0 0 1 .15-.35l2.3-2.3a.5.5 0 0 1 .35-.15h6.69v-4.68a.5.5 0 0 1 .5-.5h6a.5.5 0 0 1 .5.5v11.2a.5.5 0 0 1 -.45.52zm-15-1h14.5v-10.22h-5v4.7a.5.5 0 0 1 -.5.5h-7l-2 2z"/><path d="m21.68 14.71h-4.32v-4.41l2.5-2.5h1.82z" fill="#666"/><path d="m21.68 15.21h-4.32a.5.5 0 0 1 -.5-.5v-4.41a.5.5 0 0 1 .14-.35l2.5-2.5a.5.5 0 0 1 .35-.15h1.81a.5.5 0 0 1 .5.5v6.9a.5.5 0 0 1 -.48.51zm-3.81-1h3.31v-5.91h-1.11l-2.21 2.21z"/><path d="m21.68 11.25h-4.32v-.86l.07-.5 2.09-2.09h2.16z" fill="#0ff"/><path d="m21.68 11.75h-4.32a.5.5 0 0 1 -.5-.5v-.86l.08-.57a.5.5 0 0 1 .14-.28l2.09-2.09a.5.5 0 0 1 .35-.15h2.16a.5.5 0 0 1 .5.5v3.45a.5.5 0 0 1 -.5.5zm-3.82-1h3.32v-2.45h-1.45l-1.83 1.82v.34z"/><rect fill="#ccc" height="7.05" rx=".9" transform="matrix(.707 .707 -.707 .707 12.59 -1.8)" width="1.8" x="7.57" y="10.77"/><path d="m6.61 17.55a1.39 1.39 0 0 1 -1-.41 1.4 1.4 0 0 1 0-2l3.71-3.71a1.43 1.43 0 0 1 2 0 1.4 1.4 0 0 1 0 2l-3.72 3.71a1.39 1.39 0 0 1 -.99.41zm-.28-1.12a.41.41 0 0 0 .56 0l3.71-3.71a.4.4 0 0 0 0-.56.41.41 0 0 0 -.56 0l-3.71 3.71a.4.4 0 0 0 0 .57z"/><path d="m17.36 19.02h8.63v1.73h-8.63z" fill="#666"/><path d="m26 21.25h-8.64a.5.5 0 0 1 -.5-.5v-1.75a.5.5 0 0 1 .5-.5h8.64a.5.5 0 0 1 .5.5v1.73a.5.5 0 0 1 -.5.52zm-8.13-1h7.63v-.73h-7.64z"/><path d="m7.11 20.19h-4.4l1.89-7.37h2.51z" fill="#999"/><path d="m7.11 20.19v1.26h-5.02l-1.26-1.26z" fill="#999"/><path d="m5.11 12.82h2v7.37h-2z" fill="#666"/><path d="m7.11 20.69h-4.4a.5.5 0 0 1 -.48-.62l.87-3.39a.5.5 0 1 1 1 .25l-.71 2.77h3.22v-6.38h-1.61l-.49 1.9a.5.5 0 0 1 -1-.25l.58-2.28a.5.5 0 0 1 .48-.38h2.54a.5.5 0 0 1 .5.5v7.37a.5.5 0 0 1 -.5.51z"/><path d="m7.11 21.95h-5a.5.5 0 0 1 -.35-.15l-1.28-1.25a.5.5 0 0 1 .35-.85h6.28a.5.5 0 0 1 .5.5v1.26a.5.5 0 0 1 -.5.49zm-4.81-1h4.31v-.26h-4.61z"/><path d="m15.55 15.41-.88-.87-3.14 3.23-4.45.05.02 1.24 4.96-.06v-.08l.03.04z" fill="#666"/><path d="m7.1 19.56a.5.5 0 0 1 -.5-.49v-1.24a.5.5 0 0 1 .49-.51l4.24-.05 3-3.07a.5.5 0 0 1 .71 0l.89.87a.5.5 0 0 1 0 .71l-3.46 3.55a.51.51 0 0 1 -.18.12.41.41 0 0 1 -.21.07l-5 .06zm.49-1.25v.24l4.25-.05 3-3.08-.17-.17-2.79 2.86a.5.5 0 0 1 -.35.15z"/><rect fill="#666" height="5.18" rx="2.59" width="19.85" x="11.32" y="20.75"/><path d="m28.58 24.53h-14.67a2.58 2.58 0 0 1 -2.48-1.89 2.56 2.56 0 0 0 -.11.7 2.59 2.59 0 0 0 2.59 2.59h14.67a2.59 2.59 0 0 0 2.59-2.59 2.56 2.56 0 0 0 -.11-.7 2.58 2.58 0 0 1 -2.48 1.89z" fill="#ccc"/><path d="m20.51 26.42h-.7a.5.5 0 0 1 0-1h.7a.5.5 0 0 1 0 1z"/><path d="m28.58 26.42h-6.87a.5.5 0 0 1 0-1h6.87a2.09 2.09 0 0 0 0-4.18h-14.67a2.09 2.09 0 0 0 0 4.18h4.53a.5.5 0 0 1 0 1h-4.53a3.09 3.09 0 0 1 0-6.18h14.67a3.09 3.09 0 0 1 0 6.18z"/><circle cx="14.93" cy="23.34" fill="#999" r="1.16"/><path d="m14.93 25a1.66 1.66 0 1 1 1.66-1.66 1.66 1.66 0 0 1 -1.66 1.66zm0-2.32a.66.66 0 1 0 .66.66.66.66 0 0 0 -.66-.66z"/><path d="m14.93 25.46a.5.5 0 0 1 -.5-.5v-.46a.5.5 0 0 1 1 0v.5a.5.5 0 0 1 -.5.46z"/><path d="m14.93 22.68a.5.5 0 0 1 -.5-.5v-.46a.5.5 0 0 1 1 0v.46a.5.5 0 0 1 -.5.5z"/><path d="m16.56 23.84h-.46a.5.5 0 0 1 0-1h.46a.5.5 0 1 1 0 1z"/><path d="m13.77 23.84h-.46a.5.5 0 0 1 0-1h.46a.5.5 0 1 1 0 1z"/><path d="m16.08 22.19-.33.32" fill="#999"/><path d="m15.75 23a.5.5 0 0 1 -.35-.85l.33-.32a.5.5 0 0 1 .71.71l-.33.32a.5.5 0 0 1 -.36.14z"/><path d="m14.11 24.16-.32.32" fill="#999"/><path d="m13.79 25a.5.5 0 0 1 -.35-.85l.33-.32a.5.5 0 0 1 .71.71l-.33.32a.5.5 0 0 1 -.36.14z"/><path d="m16.08 24.48-.33-.32" fill="#999"/><path d="m16.08 25a.5.5 0 0 1 -.35-.15l-.33-.32a.5.5 0 0 1 .71-.71l.33.32a.5.5 0 0 1 -.35.85z"/><path d="m14.11 22.51-.32-.32" fill="#999"/><path d="m14.11 23a.5.5 0 0 1 -.35-.15l-.33-.32a.5.5 0 0 1 .71-.71l.33.32a.5.5 0 0 1 -.35.85z"/><circle cx="21.43" cy="23.34" fill="#999" r="1.16"/><path d="m21.43 25a1.66 1.66 0 1 1 1.66-1.66 1.66 1.66 0 0 1 -1.66 1.66zm0-2.32a.66.66 0 1 0 .66.66.66.66 0 0 0 -.66-.66z"/><path d="m21.43 25.46a.5.5 0 0 1 -.5-.5v-.46a.5.5 0 0 1 1 0v.5a.5.5 0 0 1 -.5.46z"/><path d="m21.43 22.68a.5.5 0 0 1 -.5-.5v-.46a.5.5 0 0 1 1 0v.46a.5.5 0 0 1 -.5.5z"/><path d="m23.05 23.84h-.46a.5.5 0 0 1 0-1h.46a.5.5 0 1 1 0 1z"/><path d="m20.27 23.84h-.47a.5.5 0 0 1 0-1h.46a.5.5 0 0 1 0 1z"/><path d="m22.58 22.19-.33.32" fill="#999"/><path d="m22.25 23a.5.5 0 0 1 -.35-.85l.33-.32a.5.5 0 0 1 .71.71l-.33.32a.5.5 0 0 1 -.36.14z"/><path d="m20.61 24.16-.33.32" fill="#999"/><path d="m20.28 25a.5.5 0 0 1 -.35-.85l.33-.32a.5.5 0 0 1 .71.71l-.33.32a.5.5 0 0 1 -.36.14z"/><path d="m22.58 24.48-.33-.32" fill="#999"/><path d="m22.58 25a.5.5 0 0 1 -.35-.15l-.33-.32a.5.5 0 0 1 .71-.71l.33.32a.5.5 0 0 1 -.35.85z"/><path d="m20.61 22.51-.33-.32" fill="#999"/><path d="m20.61 23a.5.5 0 0 1 -.35-.15l-.33-.32a.5.5 0 0 1 .71-.71l.33.32a.5.5 0 0 1 -.35.85z"/><circle cx="27.93" cy="23.34" fill="#999" r="1.16"/><path d="m27.93 25a1.66 1.66 0 1 1 1.66-1.66 1.66 1.66 0 0 1 -1.66 1.66zm0-2.32a.66.66 0 1 0 .66.66.66.66 0 0 0 -.66-.66z"/><path d="m27.93 25.46a.5.5 0 0 1 -.5-.5v-.46a.5.5 0 0 1 1 0v.5a.5.5 0 0 1 -.5.46z"/><path d="m27.93 22.68a.5.5 0 0 1 -.5-.5v-.46a.5.5 0 0 1 1 0v.46a.5.5 0 0 1 -.5.5z"/><path d="m29.55 23.84h-.46a.5.5 0 0 1 0-1h.46a.5.5 0 0 1 0 1z"/><path d="m26.77 23.84h-.47a.5.5 0 0 1 0-1h.46a.5.5 0 0 1 0 1z"/><path d="m29.07 22.19-.32.32" fill="#999"/><path d="m28.75 23a.5.5 0 0 1 -.35-.85l.32-.32a.5.5 0 1 1 .71.71l-.32.32a.5.5 0 0 1 -.36.14z"/><path d="m27.11 24.16-.33.32" fill="#999"/><path d="m26.78 25a.5.5 0 0 1 -.35-.85l.32-.32a.5.5 0 1 1 .71.71l-.32.32a.5.5 0 0 1 -.36.14z"/><path d="m29.07 24.48-.32-.32" fill="#999"/><path d="m29.07 25a.5.5 0 0 1 -.35-.15l-.32-.32a.5.5 0 1 1 .71-.71l.32.32a.5.5 0 0 1 -.35.85z"/><path d="m27.11 22.51-.33-.32" fill="#999"/><path d="m27.11 23a.5.5 0 0 1 -.35-.15l-.32-.32a.5.5 0 1 1 .71-.71l.32.32a.5.5 0 0 1 -.35.85z"/><path d="m20.27 23.84h-4.18a.5.5 0 0 1 0-1h4.18a.5.5 0 1 1 0 1z"/><path d="m31.16 23.84h-2.07a.5.5 0 0 1 0-1h2.07a.5.5 0 1 1 0 1z"/><path d="m26.77 23.84h-4.18a.5.5 0 0 1 0-1h4.18a.5.5 0 0 1 0 1z"/><path d="m13.77 23.84h-2.3a.5.5 0 0 1 0-1h2.3a.5.5 0 1 1 0 1z"/><path d="m23.05 12.29a.5.5 0 0 1 -.5-.5v-1.08a.5.5 0 1 1 1 0v1.08a.5.5 0 0 1 -.5.5z"/><path d="m24.68 12.29a.5.5 0 0 1 -.5-.5v-1.08a.5.5 0 1 1 1 0v1.08a.5.5 0 0 1 -.5.5z"/><path d="m26.31 12.29a.5.5 0 0 1 -.5-.5v-1.08a.5.5 0 0 1 1 0v1.08a.5.5 0 0 1 -.5.5z"/><path d="m23.4 14.83h4.32v4.23h-4.32z" fill="#999"/><path d="m25.72 14.83h2v4.23h-2z" fill="#666"/><path d="m27.72 19.56h-4.32a.5.5 0 0 1 -.5-.5v-1.58a.5.5 0 1 1 1 0v1.08h3.31v-3.23h-3.31v.79a.5.5 0 0 1 -1 0v-1.29a.5.5 0 0 1 .5-.5h4.31a.5.5 0 0 1 .5.5v4.23a.5.5 0 0 1 -.49.5z"/><path d="m28.68 27.56h-24.57a.5.5 0 0 1 0-1h24.57a.5.5 0 1 1 0 1z"/><path d="m2.21 27.52h-.6a.5.5 0 0 1 0-1h.6a.5.5 0 0 1 0 1z"/><path d="m30.42 27.52h-.24a.5.5 0 0 1 0-1h.24a.5.5 0 0 1 0 1z"/></g></svg>