<svg height="512" viewBox="0 0 32 32" width="512" xmlns="http://www.w3.org/2000/svg"><g id="Layer_8" data-name="Layer 8"><path d="m15.34 1.49-7.91 23.12a.73.73 0 0 0 .66 1h15.82a.73.73 0 0 0 .66-1l-7.91-23.12a.73.73 0 0 0 -1.32 0z" fill="#f7931e"/><path d="m24.57 24.61-7.91-23.12a.73.73 0 0 0 -1.33 0l-.92 2.71 7 20.41a.73.73 0 0 1 -.66 1h3.18a.73.73 0 0 0 .64-1z" fill="#f15a24"/><path d="m23.91 26.13h-15.82a1.23 1.23 0 0 1 -1.09-1.72l6.2-18.14a.5.5 0 0 1 .95.32l-6.25 18.18a.26.26 0 0 0 0 .26.22.22 0 0 0 .19.1h15.82a.23.23 0 0 0 .21-.32l-3.56-10.37a.5.5 0 0 1 .95-.32l3.49 10.33a1.2 1.2 0 0 1 -.11 1.13 1.22 1.22 0 0 1 -.98.55z"/><path d="m20.58 13.46a.5.5 0 0 1 -.47-.34l-3.92-11.47c-.07-.15-.29-.19-.4 0l-1.17 3.48a.5.5 0 1 1 -.95-.32l1.19-3.48a1.23 1.23 0 0 1 2.26 0l3.94 11.47a.5.5 0 0 1 -.31.63z"/><rect fill="#f7931e" height="5.31" rx="2.5" width="24.42" x="3.79" y="25.63"/><path d="m7 28.29a2.65 2.65 0 0 1 2.65-2.65h-3.2a2.65 2.65 0 1 0 0 5.31h3.18a2.65 2.65 0 0 1 -2.63-2.66z" fill="#fbb03b"/><path d="m25.55 25.63h-5.3a2.65 2.65 0 1 1 0 5.31h5.31a2.65 2.65 0 0 0 0-5.31z" fill="#f15a24"/><path d="m14.41 31.44h-.64a.5.5 0 1 1 0-1h.64a.5.5 0 0 1 0 1z"/><path d="m25.55 31.44h-9.73a.5.5 0 0 1 0-1h9.73a2.15 2.15 0 0 0 0-4.31h-19.1a2.15 2.15 0 0 0 0 4.31h5.62a.5.5 0 0 1 0 1h-5.62a3.15 3.15 0 0 1 0-6.31h19.1a3.15 3.15 0 0 1 0 6.31z"/><path d="m12.85 8.76h6.2l1.19 3.18h-8.48z" fill="#b3b3b3"/><path d="m12.85 8.76-1.09 3.18h2.13l1.08-3.18z" fill="#ccc"/><path d="m19.05 8.76h-3.19l1.19 3.18h3.19z" fill="#999"/><path d="m21 12.44h-9.94l1.43-4.18h6.9zm-8.5-1h7.05l-.85-2.18h-5.49z"/><path d="m22.12 17.46h-12.19l-1.44 4.04h15.01z" fill="#b3b3b3"/><path d="m9.93 17.46-1.44 4.04h2.13l1.43-4.04z" fill="#ccc"/><path d="m22.12 17.46h-3.18l1.38 4.04h3.18z" fill="#999"/><path d="m24.2 22h-16.41l1.79-5h12.9zm-15-1h13.6l-1-3h-11.52z"/></g></svg>