<svg height="512" viewBox="0 0 32 32" width="512" xmlns="http://www.w3.org/2000/svg"><g id="Layer_9" data-name="Layer 9"><path d="m18.55 26.8h5.26a0 0 0 0 1 0 0v4.11a0 0 0 0 1 0 0h-9.26a0 0 0 0 1 0 0v-.11a4 4 0 0 1 4-4z" fill="#b3b3b3"/><path d="m21.75 26.8h2.06v4.11h-2.06z" fill="#808080"/><path d="m23.81 31.42h-9.26a.5.5 0 0 1 -.5-.5 4.62 4.62 0 0 1 4.61-4.62h5.14a.5.5 0 0 1 .5.5v1.57a.5.5 0 0 1 -1 0v-1.07h-4.63a3.62 3.62 0 0 0 -3.58 3.12h8.22v-.42a.5.5 0 0 1 1 0v.94a.5.5 0 0 1 -.5.48z"/><path d="m19.7 10.34h4.11v16.46h-4.11z" fill="#ff0"/><path d="m21.75 10.34h2.06v16.46h-2.06z" fill="#d9e021"/><path d="m23.81 27.3h-4.11a.5.5 0 0 1 -.5-.5v-16.46a.5.5 0 0 1 .5-.5h4.11a.5.5 0 0 1 .5.5v16.46a.5.5 0 0 1 -.5.5zm-3.61-1h3.11v-15.46h-3.11z"/><path d="m18.67 6.23h6.17v4.11h-6.17z" fill="#b3b3b3"/><path d="m21.75 6.23h3.09v4.11h-3.09z" fill="#808080"/><path d="m24.84 10.84h-6.17a.5.5 0 0 1 -.5-.5v-1a.5.5 0 0 1 1 0v.53h5.17v-3.14h-5.17v1.27a.5.5 0 1 1 -1 0v-1.77a.5.5 0 0 1 .5-.5h6.17a.5.5 0 0 1 .5.5v4.11a.5.5 0 0 1 -.5.5z"/><path d="m2.21 3.14h27.78v3.09h-27.78z" fill="#ff0"/><path d="m21.75 3.14h8.23v3.09h-8.23z" fill="#d9e021"/><path d="m30 6.73h-27.79a.5.5 0 0 1 -.5-.5v-3.09a.5.5 0 0 1 .5-.5h27.79a.5.5 0 0 1 .5.5v3.09a.5.5 0 0 1 -.5.5zm-27.28-1h26.76v-2.09h-26.77z"/><path d="m5.29 6.23h3.09v3.09h-3.09z" fill="#b3b3b3"/><path d="m8.38 9.81h-3.09a.5.5 0 0 1 -.5-.5v-3.08a.5.5 0 0 1 .5-.5h3.09a.5.5 0 0 1 .5.5v3.08a.5.5 0 0 1 -.5.5zm-2.59-1h2.09v-2.08h-2.09z"/><path d="m5.87 15.47a1.47 1.47 0 0 1 -1.46-1.47v-.32a.5.5 0 0 1 1 0v.32a.46.46 0 1 0 .93 0v-4.69a.5.5 0 0 1 1 0v4.69a1.47 1.47 0 0 1 -1.47 1.47z"/><path d="m21.75 3.64a.5.5 0 0 1 -.5-.5v-2.06a.5.5 0 1 1 1 0v2.06a.5.5 0 0 1 -.5.5z"/><path d="m30 3.64h-.12l-8.14-2-2.5.26a.5.5 0 1 1 -.11-1l2.57-.31a.47.47 0 0 1 .17 0l8.23 2.06a.5.5 0 0 1 -.12 1z"/><path d="m2.21 3.64a.5.5 0 0 1 -.05-1l14.66-1.54a.49.49 0 0 1 .55.44.5.5 0 0 1 -.44.55l-14.67 1.55z"/><path d="m3.24 6.73a.5.5 0 0 1 -.34-.86l3.1-2.95a.5.5 0 0 1 .69 0l2.21 2.08 2.23-2.12a.5.5 0 0 1 .69 0l2.74 2.61 2.74-2.61a.5.5 0 0 1 .69 0l2.74 2.61 2.74-2.61a.5.5 0 0 1 .69 0l2.59 2.47 2.74-2.61a.5.5 0 0 1 .69.72l-3.09 2.99a.5.5 0 0 1 -.69 0l-2.59-2.45-2.74 2.59a.5.5 0 0 1 -.69 0l-2.74-2.59-2.74 2.59a.5.5 0 0 1 -.69 0l-2.74-2.59-2.23 2.1a.5.5 0 0 1 -.69 0l-2.23-2.1-2.74 2.59a.5.5 0 0 1 -.34.14z"/><path d="m23.52 26a.49.49 0 0 1 -.28-.09l-3.33-2.29a.5.5 0 0 1 0-.82l2.73-1.88-2.73-1.92a.5.5 0 0 1 0-.82l2.73-1.88-2.64-1.8a.5.5 0 0 1 0-.81l3.26-2.46a.5.5 0 0 1 .6.8l-2.71 2 2.69 1.85a.5.5 0 0 1 0 .82l-2.73 1.88 2.73 1.88a.5.5 0 0 1 0 .82l-2.73 1.88 2.73 1.88a.5.5 0 0 1 -.28.91z"/><path d="m2.85 18.06h7.1v5.05h-7.1z" fill="#f7931e"/><path d="m8.46 18.06h1.49v5.05h-1.49z" fill="#f15a24"/><path d="m10 23.6h-7.15a.5.5 0 0 1 -.5-.5v-5a.5.5 0 0 1 .5-.5h7.15a.5.5 0 0 1 .5.5v5a.5.5 0 0 1 -.5.5zm-6.6-1h6.1v-4h-6.15z"/><path d="m4.47 23.11h3.86v7.81h-3.86" fill="#b3b3b3"/><path d="m7.07 23.1h1.26v7.81h-1.26z" fill="#808080"/><path d="m4.47 28.63a.5.5 0 0 1 -.5-.5v-.51a.5.5 0 0 1 1 0v.51a.5.5 0 0 1 -.5.5z"/><path d="m8.33 31.42h-3.86a.5.5 0 0 1 -.5-.5v-1.51a.5.5 0 0 1 1 0v1h2.86v-6.81h-2.83v2.62a.5.5 0 0 1 -1 0v-3.12a.5.5 0 0 1 .5-.5h3.83a.5.5 0 0 1 .5.5v7.81a.5.5 0 0 1 -.5.51z"/></g></svg>