<svg height="512" viewBox="0 0 32 32" width="512" xmlns="http://www.w3.org/2000/svg"><g id="Layer_7" data-name="Layer 7"><path d="m19.08 6.6h.35a3.64 3.64 0 0 1 3.64 3.64v9.71a0 0 0 0 1 0 0h-7.63a0 0 0 0 1 0 0v-9.71a3.64 3.64 0 0 1 3.64-3.64z" fill="#4d4d4d"/><path d="m17.44 18.95v-9.71a3.62 3.62 0 0 1 1.08-2.58 3.63 3.63 0 0 0 -3.08 3.58v9.71h7.62v-1z" fill="#808080"/><path d="m22.16 8.33a.5.5 0 0 1 -.37-.17l-.22-.23a.5.5 0 1 1 .68-.73 4.11 4.11 0 0 1 .29.3.5.5 0 0 1 -.37.83z"/><path d="m23.07 20.45h-7.63a.5.5 0 0 1 -.5-.5v-9.71a4.14 4.14 0 0 1 4.14-4.14h.35a4.11 4.11 0 0 1 1.49.28.5.5 0 1 1 -.36.93 3.23 3.23 0 0 0 -.47-.14 3.19 3.19 0 0 0 -.67-.07h-.35a3.14 3.14 0 0 0 -3.14 3.14v9.21h6.62v-9.21a3.19 3.19 0 0 0 -.08-.72 3.13 3.13 0 0 0 -.15-.47.5.5 0 1 1 .93-.38 4.12 4.12 0 0 1 .2.62 4.18 4.18 0 0 1 .11.94v9.71a.5.5 0 0 1 -.49.51z"/><path d="m22.94 14.23h.26a2.73 2.73 0 0 1 2.73 2.77v3a0 0 0 0 1 0 0h-5.72a0 0 0 0 1 0 0v-3a2.73 2.73 0 0 1 2.73-2.73z" fill="#ff0"/><path d="m23.2 14.23h-.26a2.7 2.7 0 0 0 -.87.15 2.72 2.72 0 0 1 1.86 2.62v3h2v-3a2.73 2.73 0 0 0 -2.73-2.77z" fill="#f7931e"/><path d="m25.93 20.45h-5.72a.5.5 0 0 1 -.5-.5v-2.95a3.23 3.23 0 0 1 3.23-3.23h.26a3.23 3.23 0 0 1 3.23 3.23v3a.5.5 0 0 1 -.5.45zm-5.22-1h4.72v-2.45a2.23 2.23 0 0 0 -2.23-2.23h-.26a2.23 2.23 0 0 0 -2.23 2.23z"/><rect fill="#b3b3b3" height="12.56" rx="1.06" width="2.23" x="11.31" y="7.82"/><path d="m12.48 7.82h-.1a1 1 0 0 0 -.45.11 1.06 1.06 0 0 1 .62 1v10.38a1.06 1.06 0 0 1 -.62 1 1 1 0 0 0 .45.11h.1a1.06 1.06 0 0 0 1.06-1.06v-10.48a1.06 1.06 0 0 0 -1.06-1.06z" fill="#4d4d4d"/><path d="m11.31 15.59a.5.5 0 0 1 -.5-.5v-.77a.5.5 0 0 1 1 0v.77a.5.5 0 0 1 -.5.5z"/><path d="m12.48 20.88h-.1a1.57 1.57 0 0 1 -1.56-1.56v-3a.5.5 0 0 1 1 0v3a.57.57 0 0 0 .56.56h.1a.57.57 0 0 0 .56-.56v-10.44a.57.57 0 0 0 -.56-.56h-.1a.57.57 0 0 0 -.56.56v3.69a.5.5 0 0 1 -1 0v-3.69a1.57 1.57 0 0 1 1.56-1.56h.1a1.57 1.57 0 0 1 1.52 1.56v10.43a1.57 1.57 0 0 1 -1.52 1.57z"/><rect fill="#b3b3b3" height="4.77" rx="2.27" width="19.06" x="9.57" y="19.95"/><path d="m26.35 25.21h-14.51a2.78 2.78 0 0 1 -2.77-2.77v-.22a2.78 2.78 0 0 1 2.77-2.77h14.51a2.78 2.78 0 0 1 2.77 2.77v.22a2.78 2.78 0 0 1 -2.77 2.77zm-14.51-4.76a1.78 1.78 0 0 0 -1.77 1.77v.22a1.78 1.78 0 0 0 1.77 1.77h14.51a1.78 1.78 0 0 0 1.77-1.77v-.22a1.78 1.78 0 0 0 -1.77-1.77z"/><rect fill="#b3b3b3" height="11.9" rx="1.06" transform="matrix(.707 -.707 .707 .707 -1.31 8.01)" width="2.23" x="7.89" y="-.37"/><path d="m12.43 10.64a1.55 1.55 0 0 1 -1.11-.46l-6.91-6.91a1.57 1.57 0 0 1 0-2.21l.07-.06a1.57 1.57 0 0 1 2.22 0l6.91 6.9a1.57 1.57 0 0 1 0 2.21l-.07.07a1.55 1.55 0 0 1 -1.11.46zm-6.84-9.11a.56.56 0 0 0 -.4.17l-.07.07a.57.57 0 0 0 0 .8l6.88 6.91a.58.58 0 0 0 .8 0l.07-.07a.57.57 0 0 0 0-.8l-6.87-6.91a.56.56 0 0 0 -.41-.17z"/><path d="m4.49 6.66v-4.47a1.06 1.06 0 0 1 1.06-1.07h.1a1.06 1.06 0 0 1 1.07 1.07v9.81a1.06 1.06 0 0 1 -1.06 1h-.1a1.06 1.06 0 0 1 -1.07-1v-1.13" fill="#b3b3b3"/><path d="m5.66 13.53h-.1a1.57 1.57 0 0 1 -1.56-1.53v-1.12a.5.5 0 0 1 1 0v1.12a.57.57 0 0 0 .56.56h.1a.57.57 0 0 0 .56-.56v-9.81a.57.57 0 0 0 -.56-.56h-.1a.57.57 0 0 0 -.56.56v4.47a.5.5 0 0 1 -1 0v-4.47a1.57 1.57 0 0 1 1.55-1.57h.1a1.57 1.57 0 0 1 1.57 1.57v9.81a1.57 1.57 0 0 1 -1.56 1.53z"/><path d="m4.49 8.85v-.64" fill="#b3b3b3"/><path d="m4.49 9.35a.5.5 0 0 1 -.5-.5v-.64a.5.5 0 0 1 1 0v.65a.5.5 0 0 1 -.5.49z"/><path d="m5.5 12.19h.21a2.13 2.13 0 0 1 2.13 2.13v2.85a0 0 0 0 1 0 0h-4.47a0 0 0 0 1 0 0v-2.85a2.13 2.13 0 0 1 2.13-2.13z" fill="#ff0"/><path d="m5.71 12.19h-.21a2.11 2.11 0 0 0 -.67.12 2.12 2.12 0 0 1 1.49 2v2.84h1.52v-2.83a2.13 2.13 0 0 0 -2.13-2.13z" fill="#f7931e"/><path d="m7.84 17.67h-4.47a.5.5 0 0 1 -.5-.5v-2.85a2.63 2.63 0 0 1 2.63-2.63h.21a2.63 2.63 0 0 1 2.63 2.63v2.85a.5.5 0 0 1 -.5.5zm-4-1h3.5v-2.35a1.63 1.63 0 0 0 -1.63-1.63h-.21a1.63 1.63 0 0 0 -1.63 1.63z"/><path d="m4.49 17.49h2.23v3.72h-2.23z" fill="#4d4d4d"/><path d="m6.72 21.71h-2.23a.5.5 0 0 1 -.5-.5v-3.72a.5.5 0 0 1 .5-.5h2.23a.5.5 0 0 1 .5.5v3.72a.5.5 0 0 1 -.5.5zm-1.72-1h1.22v-2.71h-1.22z"/><path d="m5.6 31a4.52 4.52 0 0 1 -1.39-3.1l-.28-6.57h3.35l-.28 6.57a4.52 4.52 0 0 1 -1.4 3.1z" fill="#b3b3b3"/><path d="m5.6 31.47a.5.5 0 0 1 -.35-.14 5 5 0 0 1 -1.55-3.41l-.28-6.57a.5.5 0 0 1 .5-.52h3.36a.5.5 0 0 1 .5.52l-.28 6.57a5 5 0 0 1 -1.55 3.41.5.5 0 0 1 -.35.14zm-1.15-9.65.26 6.05a4 4 0 0 0 .89 2.36 4 4 0 0 0 .89-2.36l.26-6.05z"/><path d="m7.28 21.32-3.22 3.22" fill="#b3b3b3"/><path d="m4.06 25a.5.5 0 0 1 -.35-.85l3.22-3.15a.5.5 0 0 1 .71.71l-3.22 3.18a.5.5 0 0 1 -.36.11z"/><path d="m7.17 23.95-3 3" fill="#b3b3b3"/><path d="m4.17 27.45a.5.5 0 0 1 -.35-.85l3-3a.5.5 0 0 1 .71.71l-3 3a.5.5 0 0 1 -.36.14z"/><path d="m7.06 26.58-2.61 2.6" fill="#b3b3b3"/><path d="m4.46 29.68a.5.5 0 0 1 -.35-.85l2.6-2.6a.5.5 0 0 1 .71.71l-2.6 2.6a.5.5 0 0 1 -.36.14z"/><circle cx="12.43" cy="9.02" fill="#ff0" r="1.12"/><path d="m12.43 10.64a1.62 1.62 0 1 1 1.57-1.64 1.62 1.62 0 0 1 -1.57 1.64zm0-2.23a.62.62 0 1 0 .57.59.62.62 0 0 0 -.57-.59z"/><circle cx="5.6" cy="2.18" fill="#ff0" r="1.12"/><path d="m5.6 3.8a1.62 1.62 0 1 1 1.62-1.62 1.62 1.62 0 0 1 -1.62 1.62zm0-2.23a.62.62 0 1 0 .62.62.62.62 0 0 0 -.62-.62z"/><circle cx="13.12" cy="22.33" fill="#4d4d4d" r="1"/><path d="m13.12 23.83a1.5 1.5 0 1 1 1.5-1.5 1.5 1.5 0 0 1 -1.5 1.5zm0-2a.5.5 0 1 0 .5.5.5.5 0 0 0 -.5-.5z"/><circle cx="17.19" cy="22.33" fill="#4d4d4d" r="1"/><path d="m17.19 23.83a1.5 1.5 0 1 1 1.5-1.5 1.5 1.5 0 0 1 -1.5 1.5zm0-2a.5.5 0 1 0 .5.5.5.5 0 0 0 -.5-.5z"/><circle cx="21.27" cy="22.33" fill="#4d4d4d" r="1"/><path d="m21.27 23.83a1.5 1.5 0 1 1 1.5-1.5 1.5 1.5 0 0 1 -1.5 1.5zm0-2a.5.5 0 1 0 .5.5.5.5 0 0 0 -.5-.5z"/><circle cx="25.34" cy="22.33" fill="#4d4d4d" r="1"/><path d="m25.34 23.83a1.5 1.5 0 1 1 1.5-1.5 1.5 1.5 0 0 1 -1.5 1.5zm0-2a.5.5 0 1 0 .5.5.5.5 0 0 0 -.5-.5z"/><path d="m16.19 22.83h-2.08a.5.5 0 1 1 0-1h2.08a.5.5 0 0 1 0 1z"/><path d="m24.34 22.83h-2.07a.5.5 0 0 1 0-1h2.07a.5.5 0 0 1 0 1z"/><path d="m28.62 22.83h-2.28a.5.5 0 0 1 0-1h2.28a.5.5 0 1 1 0 1z"/><path d="m20.26 22.83h-2.07a.5.5 0 0 1 0-1h2.07a.5.5 0 0 1 0 1z"/><path d="m12.11 22.83h-2.26a.5.5 0 1 1 0-1h2.27a.5.5 0 0 1 0 1z"/><path d="m28.66 25.23h-21.53a.5.5 0 0 1 0-1h21.53a.5.5 0 0 1 0 1z"/><path d="m3.71 25.2h-2.12a.5.5 0 0 1 0-1h2.12a.5.5 0 1 1 0 1z"/><path d="m30.41 25.2h-.24a.5.5 0 0 1 0-1h.24a.5.5 0 0 1 0 1z"/><path d="m15.44 17.06a3.51 3.51 0 0 0 0-7z" fill="#0ff"/><path d="m15.44 17.56a.5.5 0 0 1 -.5-.5v-7.06a.5.5 0 0 1 .5-.5 4 4 0 1 1 0 8zm.5-7v5.94a3 3 0 0 0 0-5.94z"/></g></svg>