<?xml version="1.0"?>
<svg xmlns="http://www.w3.org/2000/svg" viewBox="0 0 32 32" width="512" height="512"><defs><style>.cls-1{fill:#ff0;}.cls-2,.cls-4{fill:#f7931e;}.cls-3,.cls-9{fill:none;}.cls-3,.cls-4,.cls-5,.cls-6,.cls-9{stroke:#000;}.cls-3,.cls-4,.cls-5,.cls-6{stroke-linecap:round;stroke-linejoin:round;}.cls-5{fill:aqua;}.cls-6,.cls-7{fill:#999;}.cls-8{fill:#666;}.cls-9{stroke-miterlimit:10;}.cls-10{fill:#ccc;}</style></defs><g id="Layer_9" data-name="Layer 9"><path class="cls-1" d="M16.79,9.75h0a3.48,3.48,0,0,1,3.48,3.48v7.55a.28.28,0,0,1-.28.28h-6.4a.28.28,0,0,1-.28-.28V13.23a3.48,3.48,0,0,1,3.48-3.48Z"/><path class="cls-1" d="M16.79,9.75h0a3.48,3.48,0,0,1,3.48,3.48v7.55a.28.28,0,0,1-.28.28h-6.4a.28.28,0,0,1-.28-.28V13.23a3.48,3.48,0,0,1,3.48-3.48Z"/><path class="cls-2" d="M16.79,9.75a3.46,3.46,0,0,0-.79.1,3.47,3.47,0,0,1,2.68,3.38v7.55a.28.28,0,0,1-.28.28H20a.28.28,0,0,0,.28-.28V13.23A3.48,3.48,0,0,0,16.79,9.75Z"/><path class="cls-3" d="M16.79,9.75h0a3.48,3.48,0,0,1,3.48,3.48v7.55a.28.28,0,0,1-.28.28h-6.4a.28.28,0,0,1-.28-.28V13.23a3.48,3.48,0,0,1,3.48-3.48Z"/><path class="cls-4" d="M26.19,10.31l-.35-.47L24.25,11a.56.56,0,0,0-.15,0,.58.58,0,0,0-.58.58v2.9a.58.58,0,1,0,1.16,0V12.15Z"/><path class="cls-5" d="M13.33,12.74a3.19,3.19,0,0,1,3.45.71,3.19,3.19,0,0,1,.94,2.15.3.3,0,0,1-.07.2l-4.33,5.26Z"/><path class="cls-1" d="M20.27,14.1h6a1.79,1.79,0,0,1,1.79,1.79v3.37a1.79,1.79,0,0,1-1.79,1.79h-6a0,0,0,0,1,0,0v-7A0,0,0,0,1,20.27,14.1Z"/><path class="cls-1" d="M20.27,14.1h6a1.79,1.79,0,0,1,1.79,1.79v3.37a1.79,1.79,0,0,1-1.79,1.79h-6a0,0,0,0,1,0,0v-7A0,0,0,0,1,20.27,14.1Z"/><path class="cls-2" d="M26.31,14.1H25a1.79,1.79,0,0,1,1.79,1.79v3.37A1.79,1.79,0,0,1,25,21.06h1.33a1.79,1.79,0,0,0,1.79-1.79V15.89A1.79,1.79,0,0,0,26.31,14.1Z"/><path class="cls-3" d="M28.1,18.05v1.22a1.79,1.79,0,0,1-1.79,1.79h-6v-7h6a1.79,1.79,0,0,1,1.79,1.79v.47"/><line class="cls-3" x1="22.27" y1="16.71" x2="22.27" y2="18.45"/><line class="cls-3" x1="24.01" y1="16.71" x2="24.01" y2="18.45"/><line class="cls-3" x1="25.75" y1="16.71" x2="25.75" y2="18.45"/><path class="cls-6" d="M15.21,4.51h0a3,3,0,0,1,3,3v2a0,0,0,0,1,0,0h-3a0,0,0,0,1,0,0v-5A0,0,0,0,1,15.21,4.51Z"/><path class="cls-7" d="M9.21-1.49h2.25a.75.75,0,0,1,.75.75V10.51a3,3,0,0,1-3,3h0a0,0,0,0,1,0,0v-15A0,0,0,0,1,9.21-1.49Z" transform="translate(4.69 16.72) rotate(-90)"/><path class="cls-7" d="M9.21-1.49h2.25a.75.75,0,0,1,.75.75V10.51a3,3,0,0,1-3,3h0a0,0,0,0,1,0,0v-15A0,0,0,0,1,9.21-1.49Z" transform="translate(4.69 16.72) rotate(-90)"/><path class="cls-8" d="M13.71,5.9a3,3,0,0,1,2.64,1.61h1.86a3,3,0,0,0-3-3h-12V5.9Z"/><line class="cls-3" x1="10.66" y1="7.52" x2="9.87" y2="7.52"/><path class="cls-3" d="M8.6,7.51H3.21V5.26A.75.75,0,0,1,4,4.51H15.21a3,3,0,0,1,3,3H11.83"/><path class="cls-9" d="M3.21,4.51h3a0,0,0,0,1,0,0V14.76a.75.75,0,0,1-.75.75H3.21a0,0,0,0,1,0,0v-11A0,0,0,0,1,3.21,4.51Z" transform="translate(9.41 20.03) rotate(180)"/><path class="cls-7" d="M3.21,4.51h3a0,0,0,0,1,0,0V14.76a.75.75,0,0,1-.75.75H3.21a0,0,0,0,1,0,0v-11A0,0,0,0,1,3.21,4.51Z" transform="translate(9.41 20.03) rotate(180)"/><path class="cls-8" d="M3.21,5.26V15.51h1.5V5.26A.75.75,0,0,0,4,4.51H4A.75.75,0,0,0,3.21,5.26Z"/><path class="cls-9" d="M3.21,4.51h3a0,0,0,0,1,0,0V14.76a.75.75,0,0,1-.75.75H3.21a0,0,0,0,1,0,0v-11A0,0,0,0,1,3.21,4.51Z" transform="translate(9.41 20.03) rotate(180)"/><path class="cls-6" d="M3.6,19.56a4.31,4.31,0,0,0,5.92-1L6.06,16l1-1.38L5,13.08,4,14.47,1.92,17.23l-.52.69.8.6.34.25"/><path class="cls-3" d="M6.71,4.29h0A3.22,3.22,0,0,1,9.58,2.51h2.25a3.22,3.22,0,0,1,2.88,1.78h0"/><path class="cls-3" d="M3,15.4H3a3.22,3.22,0,0,1-1.78-2.88V10.28A3.22,3.22,0,0,1,3,7.4H3"/><path d="M27.42,26.74H12.75a3.09,3.09,0,1,1,0-6.18H27.42a3.09,3.09,0,0,1,0,6.18ZM12.75,21.56a2.09,2.09,0,1,0,0,4.18H27.42a2.09,2.09,0,0,0,0-4.18Z"/><path class="cls-8" d="M12.75,26.24a2.59,2.59,0,0,1-2.59-2.59h0a2.59,2.59,0,0,1,2.59-2.59H27.42A2.59,2.59,0,0,1,30,23.65h0a2.59,2.59,0,0,1-2.59,2.59"/><path class="cls-8" d="M12.75,26.24a2.59,2.59,0,0,1-2.59-2.59h0a2.59,2.59,0,0,1,2.59-2.59H27.42A2.59,2.59,0,0,1,30,23.65h0a2.59,2.59,0,0,1-2.59,2.59"/><path class="cls-10" d="M27.42,26.24A2.59,2.59,0,0,0,30,23.65a2.56,2.56,0,0,0-.11-.7,2.58,2.58,0,0,1-2.48,1.89H12.75A2.58,2.58,0,0,1,10.27,23a2.56,2.56,0,0,0-.11.7,2.59,2.59,0,0,0,2.59,2.59"/><path d="M27.42,26.74H18a.5.5,0,1,1,0-1h9.43a2.09,2.09,0,0,0,0-4.18H12.75a2.09,2.09,0,1,0,0,4.18h3.63a.5.5,0,1,1,0,1H12.75a3.09,3.09,0,1,1,0-6.18H27.42a3.09,3.09,0,0,1,0,6.18Z"/><circle class="cls-7" cx="13.77" cy="23.65" r="1.16"/><path d="M13.77,25.31a1.66,1.66,0,1,1,1.66-1.66A1.66,1.66,0,0,1,13.77,25.31Zm0-2.32a.66.66,0,1,0,.66.66A.66.66,0,0,0,13.77,23Z"/><path d="M13.77,25.77a.5.5,0,0,1-.5-.5v-.46a.5.5,0,0,1,1,0v.46A.5.5,0,0,1,13.77,25.77Z"/><path d="M13.77,23a.5.5,0,0,1-.5-.5V22a.5.5,0,0,1,1,0v.46A.5.5,0,0,1,13.77,23Z"/><path d="M15.4,24.15h-.46a.5.5,0,0,1,0-1h.46a.5.5,0,1,1,0,1Z"/><path d="M12.61,24.15h-.46a.5.5,0,0,1,0-1h.46a.5.5,0,1,1,0,1Z"/><line class="cls-7" x1="14.92" y1="22.5" x2="14.59" y2="22.83"/><path d="M14.59,23.33a.5.5,0,0,1-.35-.85l.32-.32a.5.5,0,0,1,.71.71l-.32.32A.5.5,0,0,1,14.59,23.33Z"/><line class="cls-7" x1="12.95" y1="24.47" x2="12.62" y2="24.79"/><path d="M12.63,25.29a.5.5,0,0,1-.35-.85l.32-.33a.5.5,0,1,1,.71.71l-.32.33A.5.5,0,0,1,12.63,25.29Z"/><line class="cls-7" x1="14.92" y1="24.79" x2="14.59" y2="24.47"/><path d="M14.92,25.29a.5.5,0,0,1-.35-.15l-.32-.33a.5.5,0,1,1,.71-.71l.32.33a.5.5,0,0,1-.35.85Z"/><line class="cls-7" x1="12.95" y1="22.83" x2="12.62" y2="22.5"/><path d="M12.95,23.33a.5.5,0,0,1-.35-.15l-.32-.32a.5.5,0,0,1,.71-.71l.32.32a.5.5,0,0,1-.35.85Z"/><circle class="cls-7" cx="20.27" cy="23.65" r="1.16"/><path d="M20.27,25.31a1.66,1.66,0,1,1,1.66-1.66A1.66,1.66,0,0,1,20.27,25.31Zm0-2.32a.66.66,0,1,0,.66.66A.66.66,0,0,0,20.27,23Z"/><path d="M20.27,25.77a.5.5,0,0,1-.5-.5v-.46a.5.5,0,0,1,1,0v.46A.5.5,0,0,1,20.27,25.77Z"/><path d="M20.27,23a.5.5,0,0,1-.5-.5V22a.5.5,0,0,1,1,0v.46A.5.5,0,0,1,20.27,23Z"/><path d="M21.89,24.15h-.46a.5.5,0,0,1,0-1h.46a.5.5,0,0,1,0,1Z"/><path d="M19.11,24.15h-.46a.5.5,0,0,1,0-1h.46a.5.5,0,0,1,0,1Z"/><line class="cls-7" x1="21.42" y1="22.5" x2="21.09" y2="22.83"/><path d="M21.09,23.33a.5.5,0,0,1-.35-.85l.33-.32a.5.5,0,0,1,.71.71l-.33.32A.5.5,0,0,1,21.09,23.33Z"/><line class="cls-7" x1="19.45" y1="24.47" x2="19.12" y2="24.79"/><path d="M19.12,25.29a.5.5,0,0,1-.35-.85l.33-.33a.5.5,0,0,1,.71.71l-.33.33A.5.5,0,0,1,19.12,25.29Z"/><line class="cls-7" x1="21.42" y1="24.79" x2="21.09" y2="24.47"/><path d="M21.42,25.29a.5.5,0,0,1-.35-.15l-.33-.33a.5.5,0,0,1,.71-.71l.33.33a.5.5,0,0,1-.35.85Z"/><line class="cls-7" x1="19.45" y1="22.83" x2="19.12" y2="22.5"/><path d="M19.45,23.33a.5.5,0,0,1-.35-.15l-.33-.32a.5.5,0,0,1,.71-.71l.33.32a.5.5,0,0,1-.35.85Z"/><circle class="cls-7" cx="26.77" cy="23.65" r="1.16"/><path d="M26.77,25.31a1.66,1.66,0,1,1,1.66-1.66A1.66,1.66,0,0,1,26.77,25.31Zm0-2.32a.66.66,0,1,0,.66.66A.66.66,0,0,0,26.77,23Z"/><path d="M26.77,25.77a.5.5,0,0,1-.5-.5v-.46a.5.5,0,0,1,1,0v.46A.5.5,0,0,1,26.77,25.77Z"/><path d="M26.77,23a.5.5,0,0,1-.5-.5V22a.5.5,0,0,1,1,0v.46A.5.5,0,0,1,26.77,23Z"/><path d="M28.39,24.15h-.46a.5.5,0,0,1,0-1h.46a.5.5,0,0,1,0,1Z"/><path d="M25.61,24.15h-.46a.5.5,0,0,1,0-1h.46a.5.5,0,0,1,0,1Z"/><line class="cls-7" x1="27.91" y1="22.5" x2="27.59" y2="22.83"/><path d="M27.59,23.33a.5.5,0,0,1-.35-.85l.33-.32a.5.5,0,1,1,.71.71l-.33.32A.5.5,0,0,1,27.59,23.33Z"/><line class="cls-7" x1="25.95" y1="24.47" x2="25.62" y2="24.79"/><path d="M25.62,25.29a.5.5,0,0,1-.35-.85l.33-.33a.5.5,0,0,1,.71.71l-.33.33A.5.5,0,0,1,25.62,25.29Z"/><line class="cls-7" x1="27.91" y1="24.79" x2="27.59" y2="24.47"/><path d="M27.91,25.29a.5.5,0,0,1-.35-.15l-.33-.33a.5.5,0,0,1,.71-.71l.33.33a.5.5,0,0,1-.35.85Z"/><line class="cls-7" x1="25.95" y1="22.83" x2="25.62" y2="22.5"/><path d="M25.95,23.33a.5.5,0,0,1-.35-.15l-.33-.32a.5.5,0,0,1,.71-.71l.33.32a.5.5,0,0,1-.35.85Z"/><path d="M19.11,24.15H14.93a.5.5,0,1,1,0-1h4.18a.5.5,0,0,1,0,1Z"/><path d="M30,24.15H27.93a.5.5,0,0,1,0-1H30a.5.5,0,0,1,0,1Z"/><path d="M25.61,24.15H21.43a.5.5,0,0,1,0-1h4.18a.5.5,0,0,1,0,1Z"/><path d="M12.61,24.15h-2.3a.5.5,0,1,1,0-1h2.3a.5.5,0,0,1,0,1Z"/><path d="M28.66,27.86H4.09a.5.5,0,1,1,0-1H28.66a.5.5,0,0,1,0,1Z"/><path d="M2.2,27.83h-.6a.5.5,0,0,1,0-1h.6a.5.5,0,0,1,0,1Z"/><path d="M30.41,27.83h-.24a.5.5,0,0,1,0-1h.24a.5.5,0,0,1,0,1Z"/></g></svg>
