<svg height="512" viewBox="0 0 32 32" width="512" xmlns="http://www.w3.org/2000/svg"><g id="Layer_13" data-name="Layer 13"><rect fill="#b3b3b3" height="6.41" rx=".94" width="3.2" x="6.31" y="1.05"/><path d="m8.58 8h-1.33a1.44 1.44 0 0 1 -1.44-1.48v-4.52a1.44 1.44 0 0 1 1.44-1.45h1.33a1.44 1.44 0 0 1 1.42 1.45v4.52a1.44 1.44 0 0 1 -1.42 1.48zm-1.33-6.45a.44.44 0 0 0 -.44.45v4.52a.44.44 0 0 0 .44.48h1.33a.44.44 0 0 0 .42-.48v-4.52a.44.44 0 0 0 -.44-.44z"/><path d="m8.52 1h-1.21-.12a1 1 0 0 1 .88 1v4.45a1 1 0 0 1 -.88 1h.12 1.2a1 1 0 0 0 1-1v-4.45a1 1 0 0 0 -.99-1z" fill="#666"/><path d="m8.58 8h-1.33a1.44 1.44 0 0 1 -1.44-1.48v-4.52a1.44 1.44 0 0 1 1.44-1.45h1.33a1.44 1.44 0 0 1 1.42 1.45v4.52a1.44 1.44 0 0 1 -1.42 1.48zm-1.33-6.45a.44.44 0 0 0 -.44.45v4.52a.44.44 0 0 0 .44.48h1.33a.44.44 0 0 0 .42-.48v-4.52a.44.44 0 0 0 -.44-.44z"/><path d="m9.52 2.12h3.2v4.27h-3.2z" fill="#666"/><path d="m12.72 6.89h-3.2a.5.5 0 0 1 -.5-.5v-4.27a.5.5 0 0 1 .5-.5h3.2a.5.5 0 0 1 .5.5v4.27a.5.5 0 0 1 -.5.5zm-2.7-1h2.2v-3.27h-2.22z"/><rect fill="#b3b3b3" height="6.41" rx="1.16" width="7.48" x="12.72" y="1.05"/><path d="m19 1h-1a1.23 1.23 0 0 1 .79 1.15v3.98a1.23 1.23 0 0 1 -1.23 1.23h-4a1.22 1.22 0 0 0 .44.09h5a1.23 1.23 0 0 0 1.2-1.23v-3.94a1.23 1.23 0 0 0 -1.2-1.28z" fill="#666"/><path d="m19 8h-5a1.74 1.74 0 0 1 -1.74-1.73v-3.99a1.74 1.74 0 0 1 1.74-1.73h1.4a.5.5 0 0 1 0 1h-1.4a.74.74 0 0 0 -.74.73v3.94a.74.74 0 0 0 .74.78h5a.74.74 0 0 0 .73-.73v-3.99a.74.74 0 0 0 -.73-.73h-2a.5.5 0 0 1 0-1h2a1.74 1.74 0 0 1 1.7 1.73v3.94a1.74 1.74 0 0 1 -1.7 1.78z"/><path d="m20.2 2.12h1.26a4.68 4.68 0 0 1 3.31 1.37 3.12 3.12 0 0 1 .79 3.06l-.56 2h-2.67v-3.23h-2.13z" fill="#666"/><path d="m25 9h-2.67a.5.5 0 0 1 -.5-.5v-2.68h-1.63a.5.5 0 0 1 -.5-.5v-3.2a.5.5 0 0 1 .5-.5h1.26a5.15 5.15 0 0 1 3.67 1.52 3.62 3.62 0 0 1 .87 3.55l-.56 2a.5.5 0 0 1 -.44.31zm-2.17-1h1.79l.46-1.61a2.62 2.62 0 0 0 -.67-2.57 4.16 4.16 0 0 0 -3-1.23h-.71v2.2h1.64a.5.5 0 0 1 .5.5z"/><path d="m14.86 10.66h3.2v7.48h-3.2z" fill="#666"/><path d="m16.72 10.66h1.34v7.48h-1.34z" fill="#b3b3b3"/><path d="m18.06 18.64h-3.2a.5.5 0 0 1 -.5-.5v-2.45a.5.5 0 0 1 1 0v1.94h2.2v-6.47h-2.2v2.07a.5.5 0 0 1 -1 0v-2.57a.5.5 0 0 1 .5-.5h3.2a.5.5 0 0 1 .5.5v7.48a.5.5 0 0 1 -.5.5z"/><path d="m13.79 7.46h5.34v3.2h-5.34z" fill="#b3b3b3"/><path d="m19.13 11.16h-5.34a.5.5 0 0 1 -.5-.5v-3.2a.5.5 0 0 1 .5-.5h5.34a.5.5 0 0 1 .5.5v3.2a.5.5 0 0 1 -.5.5zm-4.84-1h4.34v-2.16h-4.34z"/><path d="m14.32 18.14h4.28a0 0 0 0 1 0 0v10.86a2 2 0 0 1 -2 2h-.27a2 2 0 0 1 -2-2v-10.86a0 0 0 0 1 0 0z" fill="#ff0"/><path d="m17 18.14v10.68a2.13 2.13 0 0 1 -1.34 2 2.13 2.13 0 0 0 2.94-2v-10.68z" fill="#f7931e"/><path d="m16.46 31.45a2.64 2.64 0 0 1 -2.64-2.64v-10.67a.5.5 0 0 1 .5-.5h4.28a.5.5 0 0 1 .5.5v5.29a.5.5 0 0 1 -1 0v-4.79h-3.28v10.18a1.64 1.64 0 1 0 3.27 0v-1.62a.5.5 0 0 1 1 0v1.62a2.64 2.64 0 0 1 -2.63 2.63z"/><path d="m18.6 26.1a.5.5 0 0 1 -.5-.5v-.68a.5.5 0 0 1 1 0v.68a.5.5 0 0 1 -.5.5z"/><path d="m7.16 30.16-.57-.5-.93-10h3l-.94 10z" fill="#b3b3b3"/><path d="m5.66 19.66v.05h2.06l-.94 10-.06.06.44.39.56-.5.94-10z" fill="#666"/><path d="m7.16 30.66a.5.5 0 0 1 -.33-.12l-.57-.54a.5.5 0 0 1 -.17-.33l-.35-3.79a.5.5 0 1 1 1-.09l.34 3.59.08.07.08-.07.87-9.26h-1.9l.36 3.88a.5.5 0 0 1 -.45.54.49.49 0 0 1 -.54-.45l-.42-4.39a.5.5 0 0 1 .5-.55h3a.5.5 0 0 1 .5.55l-.94 10a.5.5 0 0 1 -.22.3l-.56.5a.5.5 0 0 1 -.28.16z"/><rect fill="#666" height="2" rx="1" width="7.5" x="3.41" y="17.91"/><path d="m9.91 20.41h-5.5a1.5 1.5 0 0 1 0-3h5.5a1.5 1.5 0 0 1 0 3zm-5.5-2a.5.5 0 0 0 0 1h5.5a.5.5 0 0 0 0-1z"/><path d="m24.84 30.16-.56-.5-.94-16h3l-.32 5.55-.09 1.52-.05.93-.47 8z" fill="#b3b3b3"/><path d="m24.84 30.66a.5.5 0 0 1 -.33-.12l-.51-.54a.5.5 0 0 1 -.17-.35l-.94-16a.5.5 0 0 1 .5-.53h3a.5.5 0 0 1 .5.53l-.94 16a.5.5 0 0 1 -.17.35l-.56.5a.5.5 0 0 1 -.38.16zm-.08-1.23.08.07.08-.07.89-15.27h-1.94z"/><path d="m26.2 11.91h1.39a1 1 0 0 1 1 1 1 1 0 0 1 -1 1h-5.5a1 1 0 0 1 -1-1 1 1 0 0 1 1-1h2.91" fill="#b3b3b3"/><path d="m27.59 14.41h-5.5a1.5 1.5 0 0 1 0-3h2.91a.5.5 0 0 1 0 1h-2.91a.5.5 0 0 0 0 1h5.5a.5.5 0 0 0 0-1h-1.39a.5.5 0 0 1 0-1h1.39a1.5 1.5 0 0 1 0 3z"/><path d="m23.64 19.18a.5.5 0 0 1 -.35-.85l2.56-2.57a.5.5 0 1 1 .71.71l-2.56 2.53a.5.5 0 0 1 -.36.18z"/><path d="m23.82 22.32a.5.5 0 0 1 -.35-.85l2.17-2.17a.5.5 0 0 1 .71.71l-2.17 2.17a.5.5 0 0 1 -.36.14z"/><path d="m24 25.46a.5.5 0 0 1 -.35-.85l1.79-1.79a.5.5 0 0 1 .71.71l-1.79 1.79a.5.5 0 0 1 -.36.14z"/><path d="m24.19 28.6a.5.5 0 0 1 -.35-.85l1.39-1.4a.5.5 0 1 1 .71.71l-1.39 1.4a.5.5 0 0 1 -.36.14z"/></g></svg>