<svg height="512" viewBox="0 0 32 32" width="512" xmlns="http://www.w3.org/2000/svg"><g id="Layer_12" data-name="Layer 12"><path d="m20.14 1.12-1.98 3.42-.77 1.34-.01.02-1.37 2.38-1.37-2.38-.01-.02-.77-1.34-1.99-3.42z" fill="#4d4d4d"/><path d="m16 8.78a.5.5 0 0 1 -.43-.25l-4.13-7.16a.5.5 0 0 1 .43-.75h8.27a.5.5 0 0 1 .43.75l-4.13 7.16a.5.5 0 0 1 -.44.25zm-3.26-7.16 3.26 5.66 3.27-5.65z"/><path d="m1 4.54h13.64a0 0 0 0 1 0 0v19.84a6.5 6.5 0 0 1 -6.5 6.5h-7.14a0 0 0 0 1 0 0v-26.34a0 0 0 0 1 0 0z" fill="#f7931e"/><path d="m12.64 4.54v19.84a6.52 6.52 0 0 1 -6.5 6.5h2a6.52 6.52 0 0 0 6.5-6.5v-19.84z" fill="#f15a24"/><path d="m8.14 31.38h-7.14a.5.5 0 0 1 -.5-.5v-5.88a.5.5 0 0 1 1 0v5.38h6.64a6 6 0 0 0 6-6v-19.38h-12.68v18.22a.5.5 0 0 1 -1 0v-18.68a.5.5 0 0 1 .54-.54h13.64a.5.5 0 0 1 .5.5v19.88a7 7 0 0 1 -7 7z"/><path d="m17.38 4.54h7.18a6.5 6.5 0 0 1 6.5 6.5v19.84a0 0 0 0 1 0 0h-13.68a0 0 0 0 1 0 0v-26.34a0 0 0 0 1 0 0z" fill="#f7931e" transform="matrix(-1 0 0 -1 48.43 35.42)"/><path d="m29.05 4.54h2v26.34h-2z" fill="#f15a24"/><path d="m31.05 13.79a.5.5 0 0 1 -.5-.5v-2a.5.5 0 0 1 1 0v2a.5.5 0 0 1 -.5.5z"/><path d="m31.05 31.38h-7.17a7 7 0 0 1 -7-7v-19.84a.5.5 0 0 1 .5-.5h13.67a.5.5 0 0 1 .5.5v4.63a.5.5 0 0 1 -1 0v-4.17h-12.67v19.38a6 6 0 0 0 6 6h6.68v-15.51a.5.5 0 1 1 1 0v16a.5.5 0 0 1 -.51.51z"/><path d="m5.07 6.12h2.79v13.16h-2.79z" fill="#ff0"/><path d="m7.85 19.78h-2.78a.5.5 0 0 1 -.5-.5v-13.16a.5.5 0 0 1 .5-.5h2.78a.5.5 0 0 1 .5.5v13.16a.5.5 0 0 1 -.5.5zm-2.29-1h1.79v-12.16h-1.78z"/><path d="m24.22 6.12h2.79v13.16h-2.79z" fill="#ff0"/><path d="m27 19.78h-2.79a.5.5 0 0 1 -.5-.5v-13.16a.5.5 0 0 1 .5-.5h2.79a.5.5 0 0 1 .5.5v13.16a.5.5 0 0 1 -.5.5zm-2.29-1h1.79v-12.16h-1.79z"/><path d="m17.38 1.12h2.62a7 7 0 0 1 7 7v5.31a0 0 0 0 1 0 0h-8.28a1.34 1.34 0 0 1 -1.34-1.34v-11a0 0 0 0 1 0 .03z" fill="#f15a24" transform="matrix(-1 0 0 -1 44.33 14.55)"/><path d="m19.38 6.43v-5.31h-2v5.31a7 7 0 0 0 7 7h2a7 7 0 0 1 -7-7z" fill="#fbb03b"/><path d="m27 13.93h-2.62a7.51 7.51 0 0 1 -7.5-7.5v-5.31a.5.5 0 0 1 .5-.5h8.23a1.85 1.85 0 0 1 1.84 1.84v11a.5.5 0 0 1 -.45.47zm-9.12-12.31v4.81a6.51 6.51 0 0 0 6.5 6.5h2.07v-10.47a.85.85 0 0 0 -.84-.84z"/><path d="m6.41 1.12h8.23a0 0 0 0 1 0 0v5.31a7 7 0 0 1 -7 7h-2.57a0 0 0 0 1 0 0v-11a1.34 1.34 0 0 1 1.34-1.31z" fill="#f15a24"/><path d="m7.09 3a1.34 1.34 0 0 1 1.34-1.38h6.21v-.5h-8.23a1.34 1.34 0 0 0 -1.34 1.34v11h2z" fill="#fbb03b"/><path d="m8.53 1.62h-.53a.5.5 0 0 1 0-1h.53a.5.5 0 0 1 0 1z"/><path d="m7.64 13.93h-2.57a.5.5 0 0 1 -.5-.5v-11a1.85 1.85 0 0 1 1.84-1.81.5.5 0 1 1 0 1 .85.85 0 0 0 -.84.84v10.47h2.07a6.51 6.51 0 0 0 6.5-6.5v-4.81h-4a.5.5 0 0 1 0-1h4.49a.5.5 0 0 1 .5.5v5.31a7.51 7.51 0 0 1 -7.49 7.5z"/><rect fill="#4d4d4d" height="3.22" rx="1.45" width="6.32" x="12.84" y="12.99"/><path d="m14.85 14.77v-.33a1.45 1.45 0 0 1 1.45-1.44h-2a1.45 1.45 0 0 0 -1.45 1.45v.33a1.45 1.45 0 0 0 1.45 1.45h2a1.45 1.45 0 0 1 -1.45-1.46z" fill="#999"/><path d="m17.72 16.71h-3.42a2 2 0 0 1 -1.95-1.95v-.33a2 2 0 0 1 1.95-1.95h3.42a2 2 0 0 1 1.95 1.95v.33a2 2 0 0 1 -1.95 1.95zm-3.42-3.22a1 1 0 0 0 -.95.95v.33a1 1 0 0 0 .95.95h3.42a1 1 0 0 0 .95-.95v-.33a1 1 0 0 0 -.95-.95z"/><path d="m4.5 22.2h-.98-2.56v-2.62h30.09v2.62h-21.55" fill="#ff0"/><path d="m31.05 22.7h-21.55a.5.5 0 1 1 0-1h21.05v-1.62h-29.09v1.62h3a.5.5 0 0 1 0 1h-3.46a.5.5 0 0 1 -.5-.5v-2.62a.5.5 0 0 1 .5-.5h30.05a.5.5 0 0 1 .5.5v2.62a.5.5 0 0 1 -.5.5z"/><path d="m7.5 22.7h-.73a.5.5 0 1 1 0-1h.73a.5.5 0 0 1 0 1z"/><rect fill="#4d4d4d" height="3.22" rx="1.45" width="6.32" x="12.83" y="19.28"/><path d="m14.83 21.05v-.33a1.45 1.45 0 0 1 1.45-1.45h-2a1.45 1.45 0 0 0 -1.45 1.45v.33a1.45 1.45 0 0 0 1.45 1.45h2a1.45 1.45 0 0 1 -1.45-1.45z" fill="#999"/><path d="m17.7 23h-3.43a2 2 0 0 1 -1.95-1.94v-.33a2 2 0 0 1 1.95-1.94h3.43a2 2 0 0 1 1.95 1.94v.33a2 2 0 0 1 -1.95 1.94zm-3.42-3.22a1 1 0 0 0 -.95.94v.33a1 1 0 0 0 .95.94h3.42a1 1 0 0 0 .95-.94v-.33a1 1 0 0 0 -.95-.94z"/><path d="m27.87 25.56h.97 2.2v2.63h-30.09v-2.63h20.18.89.89" fill="#ff0"/><path d="m31 28.69h-30.05a.5.5 0 0 1 -.5-.5v-2.63a.5.5 0 0 1 .5-.5h22a.5.5 0 0 1 0 1h-21.5v1.62h29.09v-1.62h-2.67a.5.5 0 0 1 0-1h3.13a.5.5 0 0 1 .5.5v2.62a.5.5 0 0 1 -.5.51z"/><path d="m26.13 26.06h-.83a.5.5 0 0 1 0-1h.83a.5.5 0 0 1 0 1z"/><rect fill="#4d4d4d" height="3.22" rx="1.45" width="6.32" x="12.72" y="25.27"/><path d="m14.72 27v-.33a1.45 1.45 0 0 1 1.45-1.45h-2a1.45 1.45 0 0 0 -1.45 1.45v.33a1.45 1.45 0 0 0 1.45 1.45h2a1.45 1.45 0 0 1 -1.45-1.45z" fill="#999"/><path d="m17.59 29h-3.43a2 2 0 0 1 -1.94-2v-.33a2 2 0 0 1 1.95-1.95h3.42a2 2 0 0 1 1.95 1.95v.33a2 2 0 0 1 -1.95 2zm-3.42-3.22a1 1 0 0 0 -.95.95v.27a1 1 0 0 0 .95.94h3.42a1 1 0 0 0 .95-.94v-.33a1 1 0 0 0 -.95-.95z"/></g></svg>