<svg height="512" viewBox="0 0 32 32" width="512" xmlns="http://www.w3.org/2000/svg"><g id="Layer_13" data-name="Layer 13"><path d="m8 19.78h-5.8l1.28-8.14h6.4v6.36a1.83 1.83 0 0 1 -1.88 1.78z" fill="#ff0"/><path d="m8.3 11.64v6.36a1.83 1.83 0 0 1 -1.83 1.83h1.53a1.83 1.83 0 0 0 1.88-1.83v-6.36z" fill="#f15a24"/><path d="m8 20.28h-5.8a.5.5 0 0 1 -.49-.58l1.29-8.14a.5.5 0 0 1 .49-.42h6.4a.5.5 0 0 1 .5.5v6.36a2.33 2.33 0 0 1 -2.39 2.28zm-5.26-1h5.26a1.33 1.33 0 0 0 1.38-1.28v-5.86h-5.47z"/><path d="m4 17.64h-1.45l.9-5.79h3.55v2.79a3 3 0 0 1 -3 3z" fill="#0ff"/><path d="m4 18.14h-1.45a.5.5 0 0 1 -.49-.58l.94-5.78a.5.5 0 0 1 .49-.42h3.51a.5.5 0 0 1 .5.5v2.79a3.5 3.5 0 0 1 -3.5 3.49zm-.89-1h.89a2.5 2.5 0 0 0 2.5-2.5v-2.29h-2.63z"/><rect fill="#4d4d4d" height="20.87" rx=".67" transform="matrix(0 -1 1 0 -7.42 39.27)" width="2.97" x="14.44" y="12.92"/><path d="m25.69 25.33h-19.53a1.17 1.17 0 0 1 -1.16-1.16v-1.64a1.17 1.17 0 0 1 1.17-1.17h19.52a1.17 1.17 0 0 1 1.17 1.17v1.64a1.17 1.17 0 0 1 -1.17 1.16zm-19.54-3a.17.17 0 0 0 -.17.17v1.64a.17.17 0 0 0 .17.17h19.54a.17.17 0 0 0 .17-.17v-1.61a.17.17 0 0 0 -.17-.17z"/><path d="m2.1 19.67h10.32a0 0 0 0 1 0 0v2.19a0 0 0 0 1 0 0h-10.32a1.07 1.07 0 0 1 -1.1-1.07v-.05a1.07 1.07 0 0 1 1.1-1.07z" fill="#ff0"/><path d="m10.79 19.67h1.63v2.19h-1.63z" fill="#f15a24"/><path d="m12.42 22.36h-10.32a1.6 1.6 0 0 1 0-3.19h10.32a.5.5 0 0 1 .5.5v2.19a.5.5 0 0 1 -.5.5zm-10.32-2.19a.57.57 0 0 0 -.57.57.58.58 0 0 0 .57.62h9.82v-1.19z"/><path d="m6.37 21h1.49a2.68 2.68 0 0 1 2.68 2.68v.75a0 0 0 0 1 0 0h-6.86a0 0 0 0 1 0 0v-.75a2.68 2.68 0 0 1 2.69-2.68z" fill="#ff0"/><path d="m10.54 25h-6.86a.5.5 0 0 1 -.5-.5v-.75a3.19 3.19 0 0 1 3.18-3.18h1.5a3.19 3.19 0 0 1 3.14 3.14v.75a.5.5 0 0 1 -.46.54zm-6.36-1h5.82v-.25a2.19 2.19 0 0 0 -2.18-2.18h-1.45a2.19 2.19 0 0 0 -2.18 2.18z"/><path d="m15.02 19.78h11.18v2.79h-11.18z" fill="#808080"/><path d="m15.02 19.78v1.12h9.18v1.67h2v-2.79z" fill="#4d4d4d"/><path d="m26.2 23.07h-11.2a.5.5 0 0 1 -.5-.5v-2.79a.5.5 0 0 1 .5-.5h11.2a.5.5 0 0 1 .5.5v2.79a.5.5 0 0 1 -.5.5zm-10.68-1h10.18v-1.79h-10.18z"/><circle cx="18.13" cy="24.45" fill="#b3b3b3" r="2.14"/><path d="m18.13 27.09a2.64 2.64 0 1 1 2.64-2.64 2.65 2.65 0 0 1 -2.64 2.64zm0-4.29a1.64 1.64 0 1 0 1.64 1.64 1.65 1.65 0 0 0 -1.64-1.63z"/><path d="m18.13 25.42a.5.5 0 0 1 -.5-.5v-.92a.5.5 0 1 1 1 0v1a.5.5 0 0 1 -.5.42z"/><path d="m4.24 10.59h-1.35a.86.86 0 1 0 0 1.71h6.86v6a1.71 1.71 0 0 0 1.71 1.7h.86v2.14a1.29 1.29 0 1 0 2.57 0v-2.14h11.11l2.6 1.3a1 1 0 0 0 1.3-.43 1 1 0 0 0 -.42-1.29l-.38-.2-.36-.19-.35-.19-.39-.18-.41-.22-.26-.14a.83.83 0 0 0 -.19-.1.83.83 0 0 0 -.24 0h-14.16a1.27 1.27 0 0 1 -1.28-1.36v-4.69a1.71 1.71 0 0 0 -1.71-1.71h-1.94" fill="#ff0"/><path d="m13.6 24a1.79 1.79 0 0 1 -1.79-1.79v-1.69h-.36a2.22 2.22 0 0 1 -2.21-2.21v-5.5h-6.35a1.36 1.36 0 0 1 0-2.71h1.35a.5.5 0 1 1 0 1h-1.35a.36.36 0 0 0 0 .71h6.86a.5.5 0 0 1 .5.5v6a1.22 1.22 0 0 0 1.21 1.21h.86a.5.5 0 0 1 .5.5v2.14a.79.79 0 0 0 1.57 0v-2.16a.5.5 0 0 1 .5-.5h11.11a.5.5 0 0 1 .22.05l2.56 1.28a.47.47 0 0 0 .43-.83l-2.09-1.1-.12-.06h-.1-14.16a1.78 1.78 0 0 1 -1.74-1.84v-4.69a1.22 1.22 0 0 0 -1.21-1.21h-1.98a.5.5 0 0 1 0-1h1.94a2.22 2.22 0 0 1 2.25 2.21v4.69a.77.77 0 0 0 .77.77h14.12a1.11 1.11 0 0 1 .3 0 .49.49 0 0 1 .18.05 1.24 1.24 0 0 1 .26.14l2.08 1.09a1.47 1.47 0 0 1 -1.34 2.61l-2.46-1.23h-10.52v1.64a1.79 1.79 0 0 1 -1.79 1.93z"/><circle cx="25.66" cy="24.44" fill="#b3b3b3" r="2.14"/><path d="m25.66 27.08a2.64 2.64 0 1 1 2.64-2.64 2.65 2.65 0 0 1 -2.64 2.64zm0-4.29a1.64 1.64 0 1 0 1.64 1.64 1.65 1.65 0 0 0 -1.64-1.63z"/><path d="m25.66 25.42a.5.5 0 0 1 -.5-.5v-.92a.5.5 0 0 1 1 0v1a.5.5 0 0 1 -.5.42z"/><circle cx="7.11" cy="24.45" fill="#b3b3b3" r="2.14"/><path d="m7.11 27.09a2.64 2.64 0 1 1 2.64-2.64 2.65 2.65 0 0 1 -2.64 2.64zm0-4.29a1.64 1.64 0 1 0 1.64 1.64 1.65 1.65 0 0 0 -1.64-1.63z"/><path d="m7.11 25.43a.5.5 0 0 1 -.5-.5v-.93a.5.5 0 0 1 1 0v1a.5.5 0 0 1 -.5.43z"/><path d="m6.26 11.09h-.7a.5.5 0 0 1 0-1h.7a.5.5 0 0 1 0 1z"/><path d="m16.04 15.55-1.71-4.75 6.49-5.39 3.66 10.18z" fill="#f7931e"/><path d="m15.54 11.37 5.71-4.76-.43-1.2-6.49 5.39 1.71 4.75 1 .01z" fill="#f15a24"/><path d="m24.48 16.09h-8.44a.5.5 0 0 1 -.47-.33l-1.71-4.76a.5.5 0 0 1 .15-.55l6.49-5.45a.5.5 0 0 1 .79.22l3.71 10.2a.5.5 0 0 1 -.47.67zm-8.09-1h7.38l-3.18-8.84-5.67 4.75z"/><path d="m29.26 5.44 1.71 4.75-6.49 5.4-3.66-10.18 4.98.01z" fill="#f7931e"/><path d="m28.26 6.44 1.66 4.62 1.05-.87-1.71-4.75-2.7-.01-5.74-.02.36 1z" fill="#f15a24"/><path d="m24.48 16.09h-.13a.5.5 0 0 1 -.34-.31l-3.66-10.21a.5.5 0 0 1 .47-.67h4.41a.5.5 0 0 1 0 1h-3.7l3.18 8.84 5.67-4.74-1.47-4.06h-1.91a.5.5 0 0 1 0-1h2.28a.5.5 0 0 1 .47.33l1.69 4.73a.5.5 0 0 1 -.15.55l-6.49 5.45a.5.5 0 0 1 -.32.09z"/><path d="m19.38 9a.83.83 0 0 1 .83.83v5.77a0 0 0 0 1 0 0h-1.66a0 0 0 0 1 0 0v-5.78a.83.83 0 0 1 .83-.82z" fill="#b3b3b3"/><path d="m20.26 16.09h-1.71a.5.5 0 0 1 -.5-.5v-5.77a1.35 1.35 0 0 1 2.71 0v5.77a.5.5 0 0 1 -.5.5zm-1.21-1h.71v-5.27a.33.33 0 0 0 -.33-.33.34.34 0 0 0 -.37.33z"/><path d="m18.55 15.55h5.93v2.4h-5.93z" fill="#b3b3b3"/><path d="m24.48 18.44h-5.93a.5.5 0 0 1 -.5-.5v-2.4a.5.5 0 0 1 .5-.5h5.93a.5.5 0 0 1 .5.5v2.4a.5.5 0 0 1 -.5.5zm-5.43-1h4.95v-1.44h-4.95z"/><path d="m8.47 17.58h-.73a.5.5 0 1 1 0-1h.73a.5.5 0 1 1 0 1z"/><circle cx="25.66" cy="16.48" fill="#b3b3b3" r="1.06"/><path d="m25.66 18a1.56 1.56 0 1 1 1.56-1.56 1.56 1.56 0 0 1 -1.56 1.56zm0-2.12a.56.56 0 1 0 .56.56.56.56 0 0 0 -.56-.52z"/><circle cx="17.05" cy="16.61" fill="#b3b3b3" r="1.06"/><path d="m17.05 18.17a1.56 1.56 0 1 1 1.56-1.56 1.56 1.56 0 0 1 -1.56 1.56zm0-2.12a.56.56 0 1 0 .56.56.56.56 0 0 0 -.56-.61z"/><path d="m28.66 27.38h-24.57a.5.5 0 0 1 0-1h24.57a.5.5 0 0 1 0 1z"/><path d="m2.2 27.34h-.6a.5.5 0 0 1 0-1h.6a.5.5 0 0 1 0 1z"/><path d="m30.41 27.34h-.24a.5.5 0 0 1 0-1h.24a.5.5 0 0 1 0 1z"/></g></svg>