<svg height="512" viewBox="0 0 32 32" width="512" xmlns="http://www.w3.org/2000/svg"><g id="Layer_4" data-name="Layer 4"><path d="m3 11.53h10.74a0 0 0 0 1 0 0v3.27a4.77 4.77 0 0 1 -4.74 4.77h-1.22a4.77 4.77 0 0 1 -4.78-4.77v-3.27a0 0 0 0 1 0 0z" fill="#808080"/><path d="m8.46 18.85a5.37 5.37 0 0 1 -5.37-5.37v.89a5.37 5.37 0 0 0 10.73 0v-.89a5.37 5.37 0 0 1 -5.36 5.37z" fill="#b3b3b3"/><path d="m8.87 20.24h-.87a5.46 5.46 0 0 1 -5.46-5.46v-3.09a.5.5 0 0 1 .5-.5h10.78a.5.5 0 0 1 .5.5v3.09a5.47 5.47 0 0 1 -.6 2.5.5.5 0 0 1 -.89-.46 4.4 4.4 0 0 0 .49-2v-2.63h-9.73v2.59a4.46 4.46 0 0 0 4.41 4.46h.82a4.43 4.43 0 0 0 1.67-.33l.3-.13.29-.16a.5.5 0 1 1 .51.86l-.36.19-.37.16a5.41 5.41 0 0 1 -1.99.41z"/><path d="m12.42 18.74a.5.5 0 0 1 -.36-.85 4.79 4.79 0 0 0 .32-.37.5.5 0 1 1 .79.62 5.34 5.34 0 0 1 -.39.45.5.5 0 0 1 -.36.15z"/><path d="m8.46 31.09a1.21 1.21 0 0 1 -1.21-1.33l.76-10h.89l.76 10a1.21 1.21 0 0 1 -1.2 1.33z" fill="#f7931e"/><path d="m8.91 19.74h-.91l.76 10a1.21 1.21 0 0 1 -.76 1.26 1.21 1.21 0 0 0 1.66-1.24z" fill="#f15a24"/><path d="m8.46 31.59a1.71 1.71 0 0 1 -1.71-1.88l.76-10a.5.5 0 0 1 .5-.46h.89a.5.5 0 0 1 .5.46l.33 4.67a.5.5 0 1 1 -1 .07l-.28-4-.71 9.31a.71.71 0 0 0 .18.56.73.73 0 0 0 1.06 0 .71.71 0 0 0 .18-.55l-.25-1.69a.5.5 0 0 1 1-.16l.26 1.75a1.71 1.71 0 0 1 -1.7 1.89z"/><path d="m9.34 27.08a.5.5 0 0 1 -.5-.48v-.78a.5.5 0 0 1 .47-.52.48.48 0 0 1 .52.47v.78a.5.5 0 0 1 -.47.52z"/><path d="m3.32 14.37h1.78v.89a.89.89 0 0 0 .89.89h.01a.89.89 0 0 0 .89-.89v-.89h1.79v2.68a.89.89 0 0 0 .89.89.89.89 0 0 0 .89-.89v-2.68h3.14v-2.68h-10.28z" fill="#ff0"/><g fill="#f7931e"><path d="m6 15.27a.88.88 0 0 1 -.45.76.87.87 0 0 0 .45.14.89.89 0 0 0 .89-.89v-.89h-.89z"/><path d="m12.71 11.69h.89v2.68h-.89z"/><path d="m9.58 17.06a.88.88 0 0 1 -.45.76.87.87 0 0 0 .45.14.89.89 0 0 0 .89-.89v-2.7h-.89z"/></g><path d="m9.58 18.45a1.4 1.4 0 0 1 -1.39-1.39v-2.18h-.8v.39a1.39 1.39 0 1 1 -2.79 0v-.39h-1.28a.5.5 0 0 1 -.5-.5v-2.69a.5.5 0 0 1 .5-.5h10.28a.5.5 0 0 1 .5.5v2.68a.5.5 0 0 1 -.5.5h-2.6v2.18a1.4 1.4 0 0 1 -1.42 1.4zm-2.69-4.57h1.79a.5.5 0 0 1 .5.5v2.68a.39.39 0 0 0 .79 0v-2.68a.5.5 0 0 1 .5-.5h2.63v-1.69h-9.28v1.68h1.28a.5.5 0 0 1 .5.5v.89a.39.39 0 1 0 .79 0v-.89a.5.5 0 0 1 .5-.49z"/><rect fill="#f7931e" height="5.31" rx="2.5" width="16.99" x="10.91" y="1.14"/><path d="m25.4 1.14h-3a2.48 2.48 0 0 1 .51 1.5v.31a2.5 2.5 0 0 1 -2.5 2.5h-9a2.49 2.49 0 0 0 2 1h12a2.5 2.5 0 0 0 2.5-2.5v-.31a2.5 2.5 0 0 0 -2.51-2.5z" fill="#f15a24"/><path d="m25.4 6.95h-12a3 3 0 0 1 -3-3v-.31a3 3 0 0 1 3-3h12a3 3 0 0 1 3 3v.31a3 3 0 0 1 -3 3zm-12-5.31a2 2 0 0 0 -2 2v.31a2 2 0 0 0 2 2h12a2 2 0 0 0 2-2v-.31a2 2 0 0 0 -2-2z"/><ellipse cx="25.78" cy="3.79" fill="#f15a24" rx="2.12" ry="2.65"/><path d="m25.78 6.95a2.93 2.93 0 0 1 -2.62-3.15 2.93 2.93 0 0 1 2.62-3.16 2.93 2.93 0 0 1 2.62 3.15 2.93 2.93 0 0 1 -2.62 3.16zm0-5.31c-.9 0-1.62 1-1.62 2.15s.73 2.15 1.62 2.15 1.62-.94 1.62-2.15-.73-2.15-1.62-2.15z"/><path d="m18.35 21.81a.5.5 0 0 1 -.5-.5v-4a1.9 1.9 0 0 1 1.9-1.9h1.5a.5.5 0 0 1 0 1h-1.5a.9.9 0 0 0 -.9.9v4a.5.5 0 0 1 -.5.5z"/><path d="m24.31 16.42h-.59a.5.5 0 0 1 0-1h.59a.5.5 0 0 1 0 1z"/><path d="m29.69 16.42h-4.06a.5.5 0 0 1 0-1h4.06a.9.9 0 0 0 .79-.46.5.5 0 0 1 .87.49 1.91 1.91 0 0 1 -1.66.97z"/><path d="m31.09 14.09a.5.5 0 0 1 -.5-.5v-1a.5.5 0 0 1 1 0v1a.5.5 0 0 1 -.5.5z"/><path d="m31.09 11.56a.5.5 0 0 1 -.5-.5v-5.87a.9.9 0 0 0 -.9-.9h-3.91a.5.5 0 0 1 0-1h3.91a1.9 1.9 0 0 1 1.9 1.9v5.87a.5.5 0 0 1 -.5.5z"/><path d="m16.75 21.31h3.19a0 0 0 0 1 0 0v8.06a1.5 1.5 0 0 1 -1.5 1.5h-.19a1.5 1.5 0 0 1 -1.5-1.5v-8.06a0 0 0 0 1 0 0z" fill="#808080"/><path d="m18 29.4v-8.05h1.9-3.15v8.06a1.5 1.5 0 0 0 1.5 1.5h.19a1.49 1.49 0 0 0 .49-.09 1.5 1.5 0 0 1 -.93-1.42z" fill="#b3b3b3"/><path d="m18.44 31.36h-.19a2 2 0 0 1 -2-2v-8.05a.5.5 0 0 1 .5-.5h3.19a.5.5 0 0 1 .5.5v3a.5.5 0 0 1 -1 0v-2.5h-2.19v7.55a1 1 0 0 0 1 1h.19a1 1 0 0 0 1-1v-1.61a.5.5 0 0 1 1 0v1.61a2 2 0 0 1 -2 2z"/><path d="m19.94 26.88a.5.5 0 0 1 -.5-.5v-.78a.5.5 0 0 1 1 0v.77a.5.5 0 0 1 -.5.51z"/><path d="m13.32 9.65h2.07v1a1 1 0 0 0 1 1 1 1 0 0 0 1-1v-1h2.07v3.1a1 1 0 0 0 1 1 1 1 0 0 0 1-1v-3.1h3.62v-3.1h-11.76z" fill="#ff0"/><path d="m16.43 10.69a1 1 0 0 1 -.52.88 1 1 0 0 0 .52.16 1 1 0 0 0 1-1v-1h-1z" fill="#f7931e"/><path d="m24.18 6.55h1.03v3.1h-1.03z" fill="#f7931e"/><path d="m20.56 12.76a1 1 0 0 1 -.52.88 1 1 0 0 0 .52.16 1 1 0 0 0 1-1v-3.15h-1z" fill="#f7931e"/><path d="m20.56 14.29a1.54 1.54 0 0 1 -1.56-1.53v-2.6h-1v.54a1.53 1.53 0 0 1 -3.07 0v-.54h-1.61a.5.5 0 0 1 -.5-.5v-3.11a.5.5 0 0 1 .5-.5h11.9a.5.5 0 0 1 .5.5v3.1a.5.5 0 0 1 -.5.5h-3.12v2.6a1.54 1.54 0 0 1 -1.54 1.54zm-3.1-5.14h2.07a.5.5 0 0 1 .5.5v3.1a.53.53 0 1 0 1.07 0v-3.1a.5.5 0 0 1 .5-.5h3.12v-2.1h-10.9v2.1h1.57a.5.5 0 0 1 .5.5v1a.53.53 0 0 0 1.07 0v-1a.5.5 0 0 1 .5-.5z"/></g></svg>