<svg height="512" viewBox="0 0 32 32" width="512" xmlns="http://www.w3.org/2000/svg"><g id="Layer_2" data-name="Layer 2"><rect fill="#f7931e" height="5.31" rx="2.5" width="16.99" x="5.91" y="1.14"/><path d="m20.4 1.14h-3a2.48 2.48 0 0 1 .51 1.5v.31a2.5 2.5 0 0 1 -2.5 2.5h-9a2.49 2.49 0 0 0 2 1h12a2.5 2.5 0 0 0 2.5-2.5v-.31a2.5 2.5 0 0 0 -2.51-2.5z" fill="#f15a24"/><path d="m20.4 6.95h-12a3 3 0 0 1 -3-3v-.31a3 3 0 0 1 3-3h12a3 3 0 0 1 3 3v.31a3 3 0 0 1 -3 3zm-12-5.31a2 2 0 0 0 -2 2v.31a2 2 0 0 0 2 2h12a2 2 0 0 0 2-2v-.31a2 2 0 0 0 -2-2z"/><ellipse cx="20.78" cy="3.79" fill="#f15a24" rx="2.12" ry="2.65"/><path d="m20.78 6.95a2.93 2.93 0 0 1 -2.62-3.15 2.93 2.93 0 0 1 2.62-3.16 2.93 2.93 0 0 1 2.62 3.15 2.93 2.93 0 0 1 -2.62 3.16zm0-5.31c-.89 0-1.62 1-1.62 2.15s.73 2.15 1.62 2.15 1.62-.94 1.62-2.15-.73-2.15-1.62-2.15z"/><path d="m13.35 21.81a.5.5 0 0 1 -.5-.5v-4a1.9 1.9 0 0 1 1.9-1.9h1.5a.5.5 0 0 1 0 1h-1.5a.91.91 0 0 0 -.3.05.9.9 0 0 0 -.6.85v4a.5.5 0 0 1 -.5.5z"/><path d="m19.31 16.42h-.59a.5.5 0 1 1 0-1h.59a.5.5 0 0 1 0 1z"/><path d="m24.68 16.42h-4.05a.5.5 0 0 1 0-1h4.06a.9.9 0 0 0 .79-.46.5.5 0 0 1 .87.49 1.9 1.9 0 0 1 -1.67.97z"/><path d="m26.09 14.09a.5.5 0 0 1 -.5-.5v-1a.5.5 0 0 1 1 0v1a.5.5 0 0 1 -.5.5z"/><path d="m26.09 11.56a.5.5 0 0 1 -.5-.5v-5.87a.9.9 0 0 0 -.9-.9h-3.91a.5.5 0 0 1 0-1h3.91a1.9 1.9 0 0 1 1.9 1.9v5.87a.5.5 0 0 1 -.5.5z"/><path d="m11.75 21.31h3.19a0 0 0 0 1 0 0v8.06a1.5 1.5 0 0 1 -1.5 1.5h-.19a1.5 1.5 0 0 1 -1.5-1.5v-8.06a0 0 0 0 1 0 0z" fill="#808080"/><path d="m13 29.4v-8.05h1.9-3.15v8.06a1.5 1.5 0 0 0 1.5 1.5h.19a1.49 1.49 0 0 0 .49-.09 1.5 1.5 0 0 1 -.93-1.42z" fill="#b3b3b3"/><path d="m13.44 31.36h-.19a2 2 0 0 1 -2-2v-8.05a.5.5 0 0 1 .5-.5h3.19a.5.5 0 0 1 .5.5v3a.5.5 0 0 1 -1 0v-2.5h-2.19v7.55a1 1 0 0 0 1 1h.19a1 1 0 0 0 1-1v-1.61a.5.5 0 0 1 1 0v1.61a2 2 0 0 1 -2 2z"/><path d="m14.94 26.88a.5.5 0 0 1 -.5-.5v-.78a.5.5 0 0 1 1 0v.77a.5.5 0 0 1 -.5.51z"/><path d="m8.32 9.65h2.07v1a1 1 0 0 0 1 1 1 1 0 0 0 1-1v-1h2.07v3.1a1 1 0 0 0 1 1 1 1 0 0 0 1-1v-3.1h3.62v-3.1h-11.76z" fill="#ff0"/><g fill="#f7931e"><path d="m11.43 10.69a1 1 0 0 1 -.52.88 1 1 0 0 0 .52.16 1 1 0 0 0 1-1v-1h-1z"/><path d="m19.18 6.55h1.03v3.1h-1.03z"/><path d="m15.56 12.76a1 1 0 0 1 -.52.88 1 1 0 0 0 .52.16 1 1 0 0 0 1-1v-3.15h-1z"/></g><path d="m15.56 14.29a1.54 1.54 0 0 1 -1.56-1.53v-2.6h-1v.54a1.53 1.53 0 0 1 -3.07 0v-.54h-1.61a.5.5 0 0 1 -.5-.5v-3.11a.5.5 0 0 1 .5-.5h11.9a.5.5 0 0 1 .5.5v3.1a.5.5 0 0 1 -.5.5h-3.12v2.6a1.54 1.54 0 0 1 -1.54 1.54zm-3.1-5.14h2.07a.5.5 0 0 1 .5.5v3.1a.53.53 0 1 0 1.07 0v-3.1a.5.5 0 0 1 .5-.5h3.12v-2.1h-10.9v2.1h1.57a.5.5 0 0 1 .5.5v1a.53.53 0 0 0 1.07 0v-1a.5.5 0 0 1 .5-.5z"/></g></svg>