<svg height="512" viewBox="0 0 32 32" width="512" xmlns="http://www.w3.org/2000/svg"><g id="Layer_6" data-name="Layer 6"><rect fill="#f7931e" height="5.31" rx="2.5" width="16.99" x="10.91" y="1.14"/><path d="m25.4 1.14h-3a2.48 2.48 0 0 1 .51 1.5v.31a2.5 2.5 0 0 1 -2.5 2.5h-9a2.49 2.49 0 0 0 2 1h12a2.5 2.5 0 0 0 2.5-2.5v-.31a2.5 2.5 0 0 0 -2.51-2.5z" fill="#f15a24"/><path d="m25.4 6.94h-12a3 3 0 0 1 -3-3v-.3a3 3 0 0 1 3-3h12a3 3 0 0 1 3 3v.31a3 3 0 0 1 -3 2.99zm-12-5.31a2 2 0 0 0 -2 2v.31a2 2 0 0 0 2 2h12a2 2 0 0 0 2-2v-.3a2 2 0 0 0 -2-2z"/><ellipse cx="25.78" cy="3.79" fill="#f15a24" rx="2.12" ry="2.65"/><path d="m25.78 6.94a2.93 2.93 0 0 1 -2.62-3.15 2.93 2.93 0 0 1 2.62-3.15 2.93 2.93 0 0 1 2.62 3.15 2.93 2.93 0 0 1 -2.62 3.15zm0-5.31c-.9 0-1.62 1-1.62 2.15s.73 2.15 1.62 2.15 1.62-.93 1.62-2.14-.73-2.15-1.62-2.15z"/><path d="m18.35 21.81a.5.5 0 0 1 -.5-.5v-4a1.9 1.9 0 0 1 1.9-1.9h1.5a.5.5 0 0 1 0 1h-1.5a.9.9 0 0 0 -.9.9v4a.5.5 0 0 1 -.5.5z"/><path d="m24.31 16.42h-.59a.5.5 0 0 1 0-1h.59a.5.5 0 0 1 0 1z"/><path d="m29.69 16.42h-4.06a.5.5 0 0 1 0-1h4.06a.9.9 0 0 0 .79-.46.5.5 0 1 1 .87.49 1.9 1.9 0 0 1 -1.66.97z"/><path d="m31.09 14.09a.5.5 0 0 1 -.5-.5v-1a.5.5 0 0 1 1 0v1a.5.5 0 0 1 -.5.5z"/><path d="m31.09 11.56a.5.5 0 0 1 -.5-.5v-5.87a.9.9 0 0 0 -.9-.9h-3.91a.5.5 0 0 1 0-1h3.91a1.9 1.9 0 0 1 1.9 1.9v5.87a.5.5 0 0 1 -.5.5z"/><path d="m16.75 21.31h3.19a0 0 0 0 1 0 0v8.06a1.5 1.5 0 0 1 -1.5 1.5h-.19a1.5 1.5 0 0 1 -1.5-1.5v-8.06a0 0 0 0 1 0 0z" fill="#808080"/><path d="m18 29.4v-8.05h1.9-3.15v8.06a1.5 1.5 0 0 0 1.5 1.5h.19a1.49 1.49 0 0 0 .49-.09 1.5 1.5 0 0 1 -.93-1.42z" fill="#b3b3b3"/><path d="m18.44 31.36h-.19a2 2 0 0 1 -2-2v-8.05a.5.5 0 0 1 .5-.5h3.19a.5.5 0 0 1 .5.5v3a.5.5 0 0 1 -1 0v-2.5h-2.19v7.55a1 1 0 0 0 1 1h.19a1 1 0 0 0 1-1v-1.61a.5.5 0 0 1 1 0v1.61a2 2 0 0 1 -2 2z"/><path d="m19.94 26.88a.5.5 0 0 1 -.5-.5v-.78a.5.5 0 0 1 1 0v.77a.5.5 0 0 1 -.5.51z"/><path d="m13.32 9.65h2.07v1a1 1 0 0 0 1 1 1 1 0 0 0 1-1v-1h2.07v3.1a1 1 0 0 0 1 1 1 1 0 0 0 1-1v-3.1h3.62v-3.1h-11.76z" fill="#ff0"/><g fill="#f7931e"><path d="m16.43 10.69a1 1 0 0 1 -.52.88 1 1 0 0 0 .52.16 1 1 0 0 0 1-1v-1h-1z"/><path d="m24.18 6.55h1.03v3.1h-1.03z"/><path d="m20.56 12.76a1 1 0 0 1 -.52.88 1 1 0 0 0 .52.16 1 1 0 0 0 1-1v-3.15h-1z"/></g><path d="m20.56 14.29a1.54 1.54 0 0 1 -1.56-1.53v-2.6h-1v.53a1.53 1.53 0 1 1 -3.07 0v-.53h-1.61a.5.5 0 0 1 -.5-.5v-3.11a.5.5 0 0 1 .5-.5h11.9a.5.5 0 0 1 .5.5v3.1a.5.5 0 0 1 -.5.5h-3.12v2.6a1.54 1.54 0 0 1 -1.54 1.54zm-3.1-5.14h2.07a.5.5 0 0 1 .5.5v3.1a.53.53 0 0 0 1.07 0v-3.1a.5.5 0 0 1 .5-.5h3.12v-2.1h-10.9v2.1h1.57a.5.5 0 0 1 .5.5v1a.53.53 0 1 0 1.07 0v-1a.5.5 0 0 1 .5-.5z"/><path d="m11.81 30.67h-7.52a1.94 1.94 0 0 1 -1.94-1.8l-1.1-15.53h13.61l-1.11 15.52a1.94 1.94 0 0 1 -1.94 1.81z" fill="#b3b3b3"/><path d="m12.3 13.34-1 14.28a1.94 1.94 0 0 1 -1.94 1.8h-6.87a1.93 1.93 0 0 0 1.8 1.24h7.52a1.94 1.94 0 0 0 1.94-1.8l1.11-15.52z" fill="#999"/><path d="m2 23.94a.5.5 0 0 1 -.5-.46v-.54a.5.5 0 1 1 1-.07v.54a.5.5 0 0 1 -.46.54z"/><path d="m11.81 31.17h-7.52a2.45 2.45 0 0 1 -2.43-2.27l-.27-3.76a.5.5 0 0 1 .46-.53.49.49 0 0 1 .53.46l.27 3.76a1.45 1.45 0 0 0 1.44 1.34h7.52a1.45 1.45 0 0 0 1.44-1.34l1.07-15h-12.53l.51 7.17a.5.5 0 1 1 -1 .07l-.55-7.69a.5.5 0 0 1 .5-.54h13.61a.5.5 0 0 1 .5.54l-1.11 15.52a2.45 2.45 0 0 1 -2.44 2.27z"/><path d="m13.62 17.06h-1.24v2.47a1.24 1.24 0 0 1 -1.24 1.24 1.24 1.24 0 0 1 -1.24-1.24v-2.47h-2.47v3.71a1.24 1.24 0 0 1 -1.23 1.23 1.24 1.24 0 0 1 -1.2-1.23v-3.71a3.71 3.71 0 0 1 -3.71-3.71h13.57l-.27 3.71z" fill="#ff0"/><path d="m13.62 13.35-.26 3.71h.26.97l.27-3.71z" fill="#f15a24"/><path d="m6.2 20.77a1.22 1.22 0 0 1 -.62 1 1.2 1.2 0 0 0 .62.23 1.24 1.24 0 0 0 1.24-1.24v-3.7h-1.24z" fill="#f15a24"/><path d="m11.15 19.53a1.22 1.22 0 0 1 -.62 1 1.2 1.2 0 0 0 .62.19 1.24 1.24 0 0 0 1.24-1.24v-2.42h-1.24z" fill="#f15a24"/><path d="m6.2 22.51a1.74 1.74 0 0 1 -1.74-1.74v-3.24a4.22 4.22 0 0 1 -3.71-4.18v-.5h14.65l-.34 4.71h-2.18v2a1.74 1.74 0 1 1 -3.47 0v-2h-1.48v3.21a1.74 1.74 0 0 1 -1.73 1.74zm-4.41-8.66a3.22 3.22 0 0 0 3.21 2.71h.5v4.21a.74.74 0 1 0 1.47 0v-4.21h3.47v3a.74.74 0 1 0 1.47 0v-3h2.24l.19-2.71z"/></g></svg>