<svg height="512" viewBox="0 0 32 32" width="512" xmlns="http://www.w3.org/2000/svg"><g id="Layer_9" data-name="Layer 9"><path d="m3.99 3.49 25.02 25.02h-25.02z" fill="#b3b3b3"/><path d="m3.99 3.49v2l23.02 23.02h2z" fill="#808080"/><path d="m29 29h-25a.5.5 0 0 1 -.5-.5v-25a.5.5 0 0 1 .85-.35l9.12 9.12a.5.5 0 0 1 -.71.71l-8.27-8.28v23.3h23.31l-11.37-11.36a.5.5 0 0 1 .71-.71l12.22 12.23a.5.5 0 0 1 -.36.84z"/><path d="m14.74 14.74a.5.5 0 0 1 -.35-.15l-.51-.51a.5.5 0 0 1 .71-.71l.51.51a.5.5 0 0 1 -.35.85z"/><path d="m7.83 12.17 12.5 12.5h-12.5z" fill="#ccc"/><path d="m7.83 12.17v3l9.5 9.5h3z" fill="#999"/><path d="m20.33 25.17h-12.5a.5.5 0 0 1 -.5-.5v-12.5a.5.5 0 0 1 .85-.35l12.5 12.5a.5.5 0 0 1 -.35.85zm-12-1h10.79l-10.79-10.79z"/><path d="m1 1h3v30h-3z" fill="#ff0"/><path d="m3 1h1v30h-1z" fill="#f7931e"/><path d="m4 31.5h-3a.5.5 0 0 1 -.5-.5v-9.9a.5.5 0 0 1 1 0v9.4h2v-29h-2v17.38a.5.5 0 0 1 -1 0v-17.88a.5.5 0 0 1 .5-.5h3a.5.5 0 0 1 .5.5v30a.5.5 0 0 1 -.5.5z"/><path d="m5.5 8h-1.5a.5.5 0 0 1 0-1h1.5a.5.5 0 0 1 0 1z"/><path d="m5.5 10h-1.5a.5.5 0 0 1 0-1h1.5a.5.5 0 0 1 0 1z"/><path d="m5.5 12h-1.5a.5.5 0 0 1 0-1h1.5a.5.5 0 0 1 0 1z"/><path d="m5.5 14h-1.5a.5.5 0 0 1 0-1h1.5a.5.5 0 0 1 0 1z"/><path d="m5.5 16h-1.5a.5.5 0 0 1 0-1h1.5a.5.5 0 0 1 0 1z"/><path d="m5.5 18h-1.5a.5.5 0 0 1 0-1h1.5a.5.5 0 0 1 0 1z"/><path d="m5.5 20h-1.5a.5.5 0 0 1 0-1h1.5a.5.5 0 0 1 0 1z"/><path d="m5.5 22h-1.5a.5.5 0 0 1 0-1h1.5a.5.5 0 0 1 0 1z"/><path d="m5.5 24h-1.5a.5.5 0 0 1 0-1h1.5a.5.5 0 0 1 0 1z"/><path d="m5.5 26h-1.5a.5.5 0 0 1 0-1h1.5a.5.5 0 0 1 0 1z"/><path d="m6.75 28.71a.5.5 0 0 1 -.5-.5v-1.5a.5.5 0 0 1 1 0v1.5a.5.5 0 0 1 -.5.5z"/><path d="m8.75 28.71a.5.5 0 0 1 -.5-.5v-1.5a.5.5 0 0 1 1 0v1.5a.5.5 0 0 1 -.5.5z"/><path d="m10.75 28.71a.5.5 0 0 1 -.5-.5v-1.5a.5.5 0 0 1 1 0v1.5a.5.5 0 0 1 -.5.5z"/><path d="m12.75 28.71a.5.5 0 0 1 -.5-.5v-1.5a.5.5 0 0 1 1 0v1.5a.5.5 0 0 1 -.5.5z"/><path d="m14.75 28.71a.5.5 0 0 1 -.5-.5v-1.5a.5.5 0 0 1 1 0v1.5a.5.5 0 0 1 -.5.5z"/><path d="m16.75 28.71a.5.5 0 0 1 -.5-.5v-1.5a.5.5 0 0 1 1 0v1.5a.5.5 0 0 1 -.5.5z"/><path d="m18.75 28.71a.5.5 0 0 1 -.5-.5v-1.5a.5.5 0 0 1 1 0v1.5a.5.5 0 0 1 -.5.5z"/><path d="m20.75 28.71a.5.5 0 0 1 -.5-.5v-1.5a.5.5 0 0 1 1 0v1.5a.5.5 0 0 1 -.5.5z"/><path d="m22.75 28.71a.5.5 0 0 1 -.5-.5v-1.5a.5.5 0 0 1 1 0v1.5a.5.5 0 0 1 -.5.5z"/><path d="m24.75 28.71a.5.5 0 0 1 -.5-.5v-1.5a.5.5 0 0 1 1 0v1.5a.5.5 0 0 1 -.5.5z"/></g></svg>