<svg height="512" viewBox="0 0 32 32" width="512" xmlns="http://www.w3.org/2000/svg"><g id="Layer_8" data-name="Layer 8"><path d="m24.61 5-3.61-3.58h-11.64v29.41h6.54v-22.83h8.71z" fill="#4d4d4d"/><path d="m11.54 9.58v-6.58h11.09l-1.63-1.58h-11.64v29.41h2.18z" fill="#666"/><path d="m15.38 1.92h-.67a.5.5 0 0 1 0-1h.67a.5.5 0 0 1 0 1z"/><path d="m15.9 22.29a.5.5 0 0 1 -.5-.5v-13.79a.5.5 0 0 1 .5-.5h8.21v-2.27l-3.31-3.31h-4.13a.5.5 0 0 1 0-1h4.33a.5.5 0 0 1 .35.15l3.65 3.6a.5.5 0 0 1 .15.35v2.98a.5.5 0 0 1 -.5.5h-8.25v13.29a.5.5 0 0 1 -.5.5z"/><path d="m15.9 31.33h-6.54a.5.5 0 0 1 -.5-.5v-29.41a.5.5 0 0 1 .5-.5h3.64a.5.5 0 0 1 0 1h-3.14v28.41h5.54v-6.89a.5.5 0 0 1 1 0v7.39a.5.5 0 0 1 -.5.5z"/><path d="m19.17 10.13h-6.54v9.8h6.54v-4.35h2.58l2.86-2.86v-2.59z" fill="#666"/><path d="m14.42 18.39v-5.12-3.14h-1.79v5.45 4.36h6.54v-1.55z" fill="#808080"/><path d="m22.11 13.27v2l2-2z" fill="#808080"/><path d="m21.25 10.63h-.52a.5.5 0 1 1 0-1h.52a.5.5 0 1 1 0 1z"/><path d="m19.17 20.44h-6.54a.5.5 0 0 1 -.5-.5v-9.8a.5.5 0 0 1 .5-.5h6.54a.5.5 0 1 1 0 1h-6v8.8h5.54v-3.86a.5.5 0 0 1 .5-.5h2.37l2.57-2.57v-1.88h-1.32a.5.5 0 1 1 0-1h1.78a.5.5 0 0 1 .5.5v2.58a.5.5 0 0 1 -.15.35l-2.86 2.87a.5.5 0 0 1 -.35.15h-2.08v3.86a.5.5 0 0 1 -.5.5z"/><path d="m9.36 25.38h6.54v5.45h-6.54z" fill="#f7931e"/><path d="m9.36 25.38h2.22v5.45h-2.22z" fill="#fbb03b"/><path d="m15.9 31.33h-6.54a.5.5 0 0 1 -.5-.5v-5.45a.5.5 0 0 1 .5-.5h6.54a.5.5 0 0 1 .5.5v5.45a.5.5 0 0 1 -.5.5zm-6-1h5.5v-4.45h-5.54z"/><path d="m10.45 5.05h-1.09a.5.5 0 0 1 0-1h1.09a.5.5 0 0 1 0 1z"/><path d="m10.45 7.37h-1.09a.5.5 0 0 1 0-1h1.09a.5.5 0 0 1 0 1z"/><path d="m10.45 9.68h-1.09a.5.5 0 0 1 0-1h1.09a.5.5 0 0 1 0 1z"/><path d="m10.45 12h-1.09a.5.5 0 0 1 0-1h1.09a.5.5 0 0 1 0 1z"/><path d="m10.45 14.31h-1.09a.5.5 0 0 1 0-1h1.09a.5.5 0 0 1 0 1z"/><path d="m10.45 16.63h-1.09a.5.5 0 0 1 0-1h1.09a.5.5 0 1 1 0 1z"/><path d="m10.45 18.94h-1.09a.5.5 0 0 1 0-1h1.09a.5.5 0 0 1 0 1z"/><path d="m10.45 21.25h-1.09a.5.5 0 0 1 0-1h1.09a.5.5 0 0 1 0 1z"/><path d="m10.45 23.57h-1.09a.5.5 0 0 1 0-1h1.09a.5.5 0 0 1 0 1z"/></g></svg>