<svg height="512" viewBox="0 0 32 32" width="512" xmlns="http://www.w3.org/2000/svg"><g id="Layer_10" data-name="Layer 10"><rect fill="#808080" height="19.2" rx="1.25" width="30.5" x=".75" y="8.73"/><path d="m30 8.73h-28a1.25 1.25 0 0 0 -1.25 1.27v1a1.25 1.25 0 0 1 1.25-1.27h28a1.25 1.25 0 0 1 1.25 1.27v-1a1.25 1.25 0 0 0 -1.25-1.27z" fill="#b3b3b3"/><path d="m30 28.43h-1.5a.5.5 0 0 1 0-1h1.5a.75.75 0 0 0 .75-.75v-16.68a.75.75 0 0 0 -.75-.77h-12.36a.5.5 0 0 1 0-1h12.36a1.75 1.75 0 0 1 1.75 1.77v16.7a1.75 1.75 0 0 1 -1.75 1.73z"/><path d="m27.15 28.43h-.71a.5.5 0 0 1 0-1h.71a.5.5 0 0 1 0 1z"/><path d="m18.67 28.43h-1.42a.5.5 0 0 1 0-1h1.42a.5.5 0 0 1 0 1z"/><path d="m15.5 28.43h-13.5a1.75 1.75 0 0 1 -1.75-1.75v-16.68a1.75 1.75 0 0 1 1.75-1.77h11.59a.5.5 0 0 1 0 1h-11.59a.75.75 0 0 0 -.75.75v16.7a.75.75 0 0 0 .75.75h13.5a.5.5 0 0 1 0 1z"/><path d="m16.25 9.23h-1.25a.5.5 0 0 1 0-1h1.27a.5.5 0 0 1 0 1z"/><path d="m3.32 13.81h1.68a1.34 1.34 0 0 1 1.3 1.34v3.17a0 0 0 0 1 0 0h-4.3a0 0 0 0 1 0 0v-3.17a1.34 1.34 0 0 1 1.32-1.34z" fill="#808080"/><path d="m6.3 18.83h-4.3a.5.5 0 0 1 -.5-.5v-3.18a1.85 1.85 0 0 1 1.84-1.84h1.66a1.85 1.85 0 0 1 1.8 1.84v3.17a.5.5 0 0 1 -.5.51zm-3.82-1h3.32v-2.68a.84.84 0 0 0 -.8-.84h-1.68a.84.84 0 0 0 -.84.84z"/><path d="m27 13.81h1.63a1.34 1.34 0 0 1 1.37 1.34v3.17a0 0 0 0 1 0 0h-4.3a0 0 0 0 1 0 0v-3.17a1.34 1.34 0 0 1 1.3-1.34z" fill="#808080"/><path d="m30 18.83h-4.3a.5.5 0 0 1 -.5-.5v-3.18a1.85 1.85 0 0 1 1.8-1.84h1.63a1.85 1.85 0 0 1 1.84 1.84v3.17a.5.5 0 0 1 -.47.51zm-3.82-1h3.32v-2.68a.84.84 0 0 0 -.84-.84h-1.66a.84.84 0 0 0 -.84.84z"/><path d="m7.42 4.07h1.64a1.34 1.34 0 0 1 1.34 1.34v3.18a0 0 0 0 1 0 0h-4.32a0 0 0 0 1 0 0v-3.18a1.34 1.34 0 0 1 1.34-1.34z" fill="#808080"/><path d="m9.06 4.07h-1.25a1.34 1.34 0 0 1 1.34 1.34v3.18h1.25v-3.18a1.34 1.34 0 0 0 -1.34-1.34z" fill="#666"/><path d="m10.4 9.09h-4.32a.5.5 0 0 1 -.5-.5v-3.18a1.85 1.85 0 0 1 1.84-1.84h1.64a1.85 1.85 0 0 1 1.84 1.84v3.18a.5.5 0 0 1 -.5.5zm-3.82-1h3.32v-2.68a.84.84 0 0 0 -.84-.84h-1.64a.84.84 0 0 0 -.84.84z"/><path d="m22.94 4.21h1.63a1.34 1.34 0 0 1 1.34 1.34v3.18a0 0 0 0 1 0 0h-4.31a0 0 0 0 1 0 0v-3.18a1.34 1.34 0 0 1 1.34-1.34z" fill="#808080"/><path d="m24.58 4.21h-1.25a1.34 1.34 0 0 1 1.34 1.34v3.18h1.25v-3.18a1.34 1.34 0 0 0 -1.34-1.34z" fill="#666"/><path d="m25.92 9.23h-4.32a.5.5 0 0 1 -.5-.5v-3.18a1.85 1.85 0 0 1 1.84-1.84h1.63a1.85 1.85 0 0 1 1.84 1.84v3.18a.5.5 0 0 1 -.49.5zm-3.82-1h3.32v-2.68a.84.84 0 0 0 -.84-.84h-1.64a.84.84 0 0 0 -.84.84z"/><path d="m.75 16.63h30.5v3.39h-30.5z" fill="#ff0"/><path d="m.75 16.63h30.5v1h-30.5z" fill="#f7931e"/><path d="m31.25 20.52h-30.5a.5.5 0 0 1 -.5-.5v-3.39a.5.5 0 0 1 .5-.5h30.5a.5.5 0 0 1 .5.5v3.37a.5.5 0 0 1 -.5.52zm-30-1h29.5v-2.39h-29.5z"/><rect fill="#b3b3b3" height="12.43" rx="2.5" width="5.65" x="7.53" y="12.12"/><path d="m10.68 25h-.68a3 3 0 0 1 -3-3v-7.38a3 3 0 0 1 3-3h.65a3 3 0 0 1 3 3v7.38a3 3 0 0 1 -2.97 3zm-.68-12.38a2 2 0 0 0 -2 2v7.38a2 2 0 0 0 2 2h.65a2 2 0 0 0 2-2v-7.38a2 2 0 0 0 -2-2z"/><rect fill="#b3b3b3" height="12.43" rx="2.5" width="5.65" x="13.18" y="12.12"/><path d="m16.32 12.12h-.65a2.49 2.49 0 0 0 -.39 0 2.49 2.49 0 0 1 2.11 2.46v7.42a2.49 2.49 0 0 1 -2.11 2.46 2.49 2.49 0 0 0 .39 0h.65a2.5 2.5 0 0 0 2.5-2.5v-7.34a2.5 2.5 0 0 0 -2.5-2.5z" fill="#666"/><path d="m16.32 25h-.65a3 3 0 0 1 -3-3v-7.38a3 3 0 0 1 3-3h.65a3 3 0 0 1 3 3v7.38a3 3 0 0 1 -3 3zm-.65-12.43a2 2 0 0 0 -2 2v7.43a2 2 0 0 0 2 2h.65a2 2 0 0 0 2-2v-7.38a2 2 0 0 0 -2-2z"/><rect fill="#b3b3b3" height="12.43" rx="2.5" width="5.65" x="18.82" y="12.12"/><path d="m22 25h-.65a3 3 0 0 1 -3-3v-7.38a3 3 0 0 1 3-3h.65a3 3 0 0 1 3 3v7.38a3 3 0 0 1 -3 3zm-.65-12.43a2 2 0 0 0 -2 2v7.43a2 2 0 0 0 2 2h.65a2 2 0 0 0 2-2v-7.38a2 2 0 0 0 -2-2z"/><circle cx="4.14" cy="12.12" fill="#f7931e" r="1.13"/><path d="m4.14 13.75a1.63 1.63 0 1 1 1.63-1.63 1.63 1.63 0 0 1 -1.63 1.63zm0-2.26a.63.63 0 1 0 .63.63.63.63 0 0 0 -.63-.63z"/><circle cx="4.14" cy="24.54" fill="#f7931e" r="1.13"/><path d="m4.14 26.17a1.63 1.63 0 1 1 1.63-1.63 1.63 1.63 0 0 1 -1.63 1.63zm0-2.26a.63.63 0 1 0 .63.63.63.63 0 0 0 -.63-.63z"/><circle cx="27.86" cy="12.12" fill="#f7931e" r="1.13"/><path d="m27.86 13.75a1.63 1.63 0 1 1 1.63-1.63 1.63 1.63 0 0 1 -1.63 1.63zm0-2.26a.63.63 0 1 0 .63.63.63.63 0 0 0 -.63-.63z"/><circle cx="27.86" cy="24.54" fill="#f7931e" r="1.13"/><path d="m27.86 26.17a1.63 1.63 0 1 1 1.63-1.63 1.63 1.63 0 0 1 -1.63 1.63zm0-2.26a.63.63 0 1 0 .63.63.63.63 0 0 0 -.63-.63z"/><path d="m13.18 27.93h-.7-4.95v-3.7-1.39-.4-.53-1.89h5.65z" fill="#666"/><path d="m13.18 28.43h-5.65a.5.5 0 0 1 -.5-.5v-7.93a.5.5 0 0 1 .5-.5h5.65a.5.5 0 0 1 .5.5v7.91a.5.5 0 0 1 -.5.52zm-5.18-1h4.65v-6.91h-4.65z"/><path d="m24.47 23.41v-.81-2.58h-5.65v7.91h5.65v-2.55" fill="#666"/><path d="m24.47 28.43h-5.65a.5.5 0 0 1 -.5-.5v-7.93a.5.5 0 0 1 .5-.5h5.65a.5.5 0 0 1 .5.5v3.39a.5.5 0 0 1 -1 0v-2.87h-4.65v6.91h4.68v-2.05a.5.5 0 0 1 1 0v2.56a.5.5 0 0 1 -.53.49z"/><circle cx="16" cy="18.33" fill="#0ff" r="1.13"/><path d="m16 20a1.63 1.63 0 1 1 1.63-1.63 1.63 1.63 0 0 1 -1.63 1.63zm0-2.26a.63.63 0 1 0 .63.63.63.63 0 0 0 -.63-.67z"/><circle cx="10.35" cy="15.06" fill="#0ff" r="1.13"/><path d="m10.35 16.69a1.63 1.63 0 1 1 1.65-1.63 1.63 1.63 0 0 1 -1.65 1.63zm0-2.26a.63.63 0 1 0 .63.63.63.63 0 0 0 -.63-.62z"/><circle cx="21.65" cy="15.06" fill="#0ff" r="1.13"/><path d="m21.65 16.69a1.63 1.63 0 1 1 1.63-1.63 1.63 1.63 0 0 1 -1.63 1.63zm0-2.26a.63.63 0 1 0 .63.63.63.63 0 0 0 -.63-.62z"/><path d="m10.35 28.43a.5.5 0 0 1 -.5-.5v-7.93a.5.5 0 0 1 1 0v7.91a.5.5 0 0 1 -.5.52z"/><path d="m21.65 28.43a.5.5 0 0 1 -.5-.5v-7.93a.5.5 0 0 1 1 0v7.91a.5.5 0 0 1 -.5.52z"/></g></svg>