<svg height="512" viewBox="0 0 32 32" width="512" xmlns="http://www.w3.org/2000/svg"><g id="Layer_10" data-name="Layer 10"><g transform="matrix(.403 -.915 .915 .403 -5.04 24.53)"><circle cx="16.28" cy="16.13" fill="#333" r="12.68"/><circle cx="16.28" cy="16.13" fill="#666" r="12.68"/><circle cx="16.28" cy="16.13" fill="#333" r="10.88"/></g><path d="m25.78 25a.5.5 0 0 1 -.37-.83l.38-.45.29-.38a12.28 12.28 0 0 0 1.35-2.34 12.18 12.18 0 0 0 -18.13-14.85.5.5 0 0 1 -.57-.82 13.18 13.18 0 0 1 19.62 16.11 13.29 13.29 0 0 1 -1.47 2.56l-.32.41-.41.48a.5.5 0 0 1 -.37.11z"/><path d="m7.64 7.35a.5.5 0 0 1 -.34-.87l.44-.39a.5.5 0 0 1 .65.76l-.39.36a.5.5 0 0 1 -.36.14z"/><path d="m16.27 29.3a13.17 13.17 0 0 1 -12-18.49 13.4 13.4 0 0 1 1.13-2.12q.22-.33.46-.64l.45-.54a.5.5 0 1 1 .76.65l-.41.5c-.15.19-.29.39-.43.59a12.41 12.41 0 0 0 -1.09 2 12.18 12.18 0 0 0 6.24 16.06 12.25 12.25 0 0 0 12-1.22c.21-.15.41-.3.61-.46a.5.5 0 1 1 .63.78q-.32.26-.66.5a13.24 13.24 0 0 1 -7.69 2.39z"/><path d="m28.66 21.58a1.59 1.59 0 0 0 -.81-2.1l-1.17-.48a1.57 1.57 0 0 1 -.93-1.63 9.47 9.47 0 0 0 0-2 1.57 1.57 0 0 1 1-1.59l1.25-.49a1.59 1.59 0 0 0 .91-2.06 1.59 1.59 0 0 0 -2.06-.91l-1.19.46a1.57 1.57 0 0 1 -1.81-.5 9.47 9.47 0 0 0 -1.38-1.44 1.57 1.57 0 0 1 -.47-1.84l.52-1.17a1.59 1.59 0 0 0 -.81-2.1 1.59 1.59 0 0 0 -2.1.81l-.52 1.17a1.57 1.57 0 0 1 -1.63.93 9.47 9.47 0 0 0 -2 0 1.57 1.57 0 0 1 -1.59-1l-.46-1.19a1.59 1.59 0 0 0 -2.06-.91 1.59 1.59 0 0 0 -.91 2.06l.46 1.19a1.57 1.57 0 0 1 -.5 1.81 9.47 9.47 0 0 0 -1.4 1.4 1.57 1.57 0 0 1 -1.83.42l-1.17-.56a1.59 1.59 0 0 0 -2.1.81 1.59 1.59 0 0 0 .81 2.1l1.17.52a1.57 1.57 0 0 1 .93 1.63 9.47 9.47 0 0 0 0 2 1.57 1.57 0 0 1 -1 1.59l-1.23.49a1.59 1.59 0 0 0 -.9 2 1.59 1.59 0 0 0 2.06.91l1.19-.46a1.57 1.57 0 0 1 1.81.5 9.47 9.47 0 0 0 1.38 1.44 1.57 1.57 0 0 1 .42 1.83l-.54 1.18a1.59 1.59 0 0 0 .81 2.1 1.59 1.59 0 0 0 2.1-.81l.52-1.17a1.57 1.57 0 0 1 1.63-.93 9.47 9.47 0 0 0 2 0 1.57 1.57 0 0 1 1.59 1l.46 1.19a1.59 1.59 0 0 0 2.06.91 1.59 1.59 0 0 0 .91-2.06l-.46-1.19a1.57 1.57 0 0 1 .5-1.81 9.47 9.47 0 0 0 1.44-1.38 1.57 1.57 0 0 1 1.83-.42l1.17.52a1.59 1.59 0 0 0 2.1-.77z" fill="#4d4d4d"/><path d="m20.6 29.34a2.1 2.1 0 0 1 -1.94-1.34l-.46-1.19a1.08 1.08 0 0 0 -1.09-.69 9.92 9.92 0 0 1 -2.09 0 1.09 1.09 0 0 0 -1.11.64l-.51 1.17a2.09 2.09 0 0 1 -3.84-1.73l.51-1.2a1.08 1.08 0 0 0 -.28-1.25 10 10 0 0 1 -1.45-1.51 1.07 1.07 0 0 0 -1.24-.34l-1.19.46a2.09 2.09 0 1 1 -1.51-3.86l1.19-.5a1.07 1.07 0 0 0 .68-1.08 10 10 0 0 1 0-2.1 1.08 1.08 0 0 0 -.64-1.11l-1.17-.52a2.09 2.09 0 1 1 1.75-3.79l1.17.52a1.08 1.08 0 0 0 1.25-.28 10 10 0 0 1 1.51-1.45 1.07 1.07 0 0 0 .34-1.24l-.48-1.19a2.09 2.09 0 1 1 3.9-1.51l.46 1.19a1.06 1.06 0 0 0 1.09.69 10.08 10.08 0 0 1 2.09 0 1.07 1.07 0 0 0 1.11-.64l.51-1.17a2.09 2.09 0 0 1 3.84 1.68l-.5 1.22a1.08 1.08 0 0 0 .28 1.25 10 10 0 0 1 1.44 1.53 1.07 1.07 0 0 0 1.24.34l1.19-.46a2.09 2.09 0 1 1 1.51 3.9l-1.16.44a1.07 1.07 0 0 0 -.69 1.08 10 10 0 0 1 0 2.1 1.08 1.08 0 0 0 .64 1.11l1.05.49a2.09 2.09 0 1 1 -1.69 3.83l-1.17-.52a1.08 1.08 0 0 0 -1.25.28 10 10 0 0 1 -1.51 1.45 1.08 1.08 0 0 0 -.34 1.24l.46 1.19a2.09 2.09 0 0 1 -2 2.85zm-3.41-4.21a2.09 2.09 0 0 1 1.93 1.33l.46 1.19a1.09 1.09 0 1 0 2-.79l-.46-1.19a2.08 2.08 0 0 1 .66-2.39 9 9 0 0 0 1.4-1.28 2.08 2.08 0 0 1 2.42-.55l1.17.52a1.09 1.09 0 0 0 .88-2l-1.17-.52a2.08 2.08 0 0 1 -1.23-2.15 9.07 9.07 0 0 0 0-1.89 2.06 2.06 0 0 1 1.32-2.1l1.19-.46a1.09 1.09 0 1 0 -.79-2l-1.19.46a2.06 2.06 0 0 1 -2.39-.66 9 9 0 0 0 -1.3-1.36 2.08 2.08 0 0 1 -.55-2.42l.51-1.17a1.09 1.09 0 1 0 -2-.88l-.51 1.17a2.08 2.08 0 0 1 -2.16 1.23 8.88 8.88 0 0 0 -1.88 0 2.06 2.06 0 0 1 -2.1-1.32l-.4-1.3a1.09 1.09 0 1 0 -2 .79l.46 1.19a2.06 2.06 0 0 1 -.71 2.42 9 9 0 0 0 -1.36 1.3 2.08 2.08 0 0 1 -2.39.53l-1.2-.52a1.09 1.09 0 0 0 -.88 2l1.17.52a2.08 2.08 0 0 1 1.23 2.17 9.07 9.07 0 0 0 0 1.89 2.06 2.06 0 0 1 -1.32 2.11l-1.19.46a1.09 1.09 0 1 0 .79 2l1.14-.46a2.06 2.06 0 0 1 2.39.66 9 9 0 0 0 1.31 1.34 2.08 2.08 0 0 1 .56 2.44l-.51 1.17a1.09 1.09 0 1 0 2 .88l.51-1.17a2.1 2.1 0 0 1 2.16-1.23 8.88 8.88 0 0 0 1.88 0z"/><circle cx="16.28" cy="16.13" fill="#808080" r="5.57" transform="matrix(.403 -.915 .915 .403 -5.04 24.53)"/><path d="m18.53 11a5.54 5.54 0 0 0 -3.26-.38 5.57 5.57 0 0 1 0 11 5.57 5.57 0 0 0 3.26-10.62z" fill="#333"/><path d="m11.09 18.62a.5.5 0 0 1 -.47-.32 6 6 0 0 1 -.22-.71.5.5 0 0 1 1-.24 5.13 5.13 0 0 0 .19.59.5.5 0 0 1 -.47.68z"/><path d="m16.28 22.2a6.09 6.09 0 0 1 -4.82-2.39.5.5 0 1 1 .79-.61 5.06 5.06 0 1 0 -.94-4.08 5.17 5.17 0 0 0 -.09.74.49.49 0 0 1 -.53.47.5.5 0 0 1 -.47-.53 6.06 6.06 0 0 1 .11-.88 6.14 6.14 0 0 1 .4-1.25 6.07 6.07 0 1 1 5.55 8.52z"/><path d="m28.63 29.34h-24.57a.5.5 0 0 1 0-1h24.57a.5.5 0 0 1 0 1z"/><path d="m2.17 29.31h-.6a.5.5 0 0 1 0-1h.6a.5.5 0 1 1 0 1z"/><path d="m30.38 29.31h-.24a.5.5 0 0 1 0-1h.24a.5.5 0 0 1 0 1z"/></g></svg>