<svg height="512" viewBox="0 0 32 32" width="512" xmlns="http://www.w3.org/2000/svg"><g id="Layer_11" data-name="Layer 11"><path d="m3.79 7.85h3.33v16.3h-3.33z" fill="#b3b3b3"/><path d="m5.61 7.85h1.51v16.3h-1.51z" fill="#666"/><path d="m3.79 20.13a.5.5 0 0 1 -.5-.5v-11.78a.5.5 0 0 1 .5-.5h3.34a.5.5 0 0 1 .5.5v5.46a.5.5 0 0 1 -1 0v-5h-2.34v11.32a.5.5 0 0 1 -.5.5z"/><path d="m7.13 24.65h-3.34a.5.5 0 0 1 -.5-.5v-2.74a.5.5 0 0 1 1 0v2.24h2.34v-6.27a.5.5 0 0 1 1 0v6.77a.5.5 0 0 1 -.5.5z"/><path d="m7.13 16.63a.5.5 0 0 1 -.5-.5v-1a.5.5 0 0 1 1 0v1a.5.5 0 0 1 -.5.5z"/><path d="m1.25 5.91-.24 1.1 4.45 2.56 4.44-2.56-1.1-5.13-1.62-.94 1.1 4.11-2.82 1.62-2.83-1.62 1.11-4.11-1.62.94-.32 1.47-.07.33-.08.37-.09.42" fill="#b3b3b3"/><path d="m5.46 10.07a.5.5 0 0 1 -.25-.07l-4.45-2.56a.5.5 0 0 1 -.24-.54l.24-1.1a.5.5 0 0 1 1 .21l-.16.75 3.86 2.24 3.88-2.24-1-4.56-.34-.2.79 2.94a.5.5 0 0 1 -.23.56l-2.85 1.61a.5.5 0 0 1 -.5 0l-2.83-1.63a.5.5 0 0 1 -.23-.56l.79-2.92-.38.22-.56 2.36a.5.5 0 0 1 -.55.42.5.5 0 0 1 -.38-.59l.56-2.6a.5.5 0 0 1 .24-.33l1.62-.97a.5.5 0 0 1 .73.56l-1 3.74 2.24 1.29 2.24-1.29-1-3.74a.5.5 0 0 1 .73-.56l1.57.93a.5.5 0 0 1 .24.33l1.1 5.13a.5.5 0 0 1 -.24.54l-4.39 2.56a.5.5 0 0 1 -.25.07z"/><path d="m3.74 31.06-1.11-4.11 2.83-1.62 2.82 1.62-1.1 4.11 1.62-.93 1.1-5.14-4.44-2.56-4.45 2.56 1.11 5.14z" fill="#b3b3b3"/><path d="m7.18 31.56a.5.5 0 0 1 -.48-.63l1-3.74-2.24-1.29-2.24 1.29 1 3.74a.5.5 0 0 1 -.73.56l-1.62-.93a.5.5 0 0 1 -.24-.33l-1.11-5.13a.5.5 0 0 1 .24-.54l4.45-2.56a.5.5 0 0 1 .5 0l4.45 2.57a.5.5 0 0 1 .24.54l-1.1 5.13a.5.5 0 0 1 -.24.33l-1.62.93a.49.49 0 0 1 -.26.06zm-1.72-6.73a.5.5 0 0 1 .25.07l2.82 1.63a.5.5 0 0 1 .23.56l-.76 2.91.38-.22 1-4.56-3.92-2.22-3.88 2.24 1 4.56.38.22-.79-2.94a.5.5 0 0 1 .23-.56l2.82-1.63a.5.5 0 0 1 .24-.06z"/><rect fill="#b3b3b3" height="6.41" rx=".94" width="3.2" x="11.8" y="1.05"/><path d="m14.07 8h-1.33a1.44 1.44 0 0 1 -1.44-1.48v-4.52a1.44 1.44 0 0 1 1.44-1.45h1.33a1.44 1.44 0 0 1 1.43 1.45v4.52a1.44 1.44 0 0 1 -1.43 1.48zm-1.33-6.45a.44.44 0 0 0 -.44.45v4.52a.44.44 0 0 0 .44.44h1.33a.44.44 0 0 0 .44-.44v-4.52a.44.44 0 0 0 -.44-.44z"/><path d="m14 1h-1.2-.12a1 1 0 0 1 .88 1v4.45a1 1 0 0 1 -.88 1h.12 1.2a1 1 0 0 0 1-1v-4.45a1 1 0 0 0 -1-1z" fill="#666"/><path d="m14.07 8h-1.33a1.44 1.44 0 0 1 -1.44-1.48v-4.52a1.44 1.44 0 0 1 1.44-1.45h1.33a1.44 1.44 0 0 1 1.43 1.45v4.52a1.44 1.44 0 0 1 -1.43 1.48zm-1.33-6.45a.44.44 0 0 0 -.44.45v4.52a.44.44 0 0 0 .44.44h1.33a.44.44 0 0 0 .44-.44v-4.52a.44.44 0 0 0 -.44-.44z"/><path d="m15 2.12h3.2v4.27h-3.2z" fill="#666"/><path d="m18.21 6.89h-3.21a.5.5 0 0 1 -.5-.5v-4.27a.5.5 0 0 1 .5-.5h3.2a.5.5 0 0 1 .5.5v4.27a.5.5 0 0 1 -.49.5zm-2.7-1h2.2v-3.27h-2.21z"/><rect fill="#b3b3b3" height="6.41" rx="1.16" width="7.48" x="18.21" y="1.05"/><path d="m24.45 1h-1a1.23 1.23 0 0 1 .79 1.15v3.98a1.23 1.23 0 0 1 -1.24 1.24h-4a1.22 1.22 0 0 0 .44.09h5a1.23 1.23 0 0 0 1.23-1.23v-3.95a1.23 1.23 0 0 0 -1.22-1.28z" fill="#666"/><path d="m24.45 8h-5a1.74 1.74 0 0 1 -1.74-1.73v-3.99a1.74 1.74 0 0 1 1.73-1.73h1.4a.5.5 0 0 1 0 1h-1.4a.74.74 0 0 0 -.74.73v3.94a.74.74 0 0 0 .74.73h5a.74.74 0 0 0 .74-.73v-3.94a.74.74 0 0 0 -.74-.73h-1.91a.5.5 0 0 1 0-1h1.92a1.74 1.74 0 0 1 1.74 1.73v3.94a1.74 1.74 0 0 1 -1.74 1.78z"/><path d="m25.68 2.12h1.26a4.68 4.68 0 0 1 3.31 1.37 3.12 3.12 0 0 1 .79 3.06l-.56 2h-2.66v-3.23h-2.14z" fill="#666"/><path d="m30.49 9h-2.67a.5.5 0 0 1 -.5-.5v-2.68h-1.64a.5.5 0 0 1 -.5-.5v-3.2a.5.5 0 0 1 .5-.5h1.26a5.15 5.15 0 0 1 3.67 1.52 3.62 3.62 0 0 1 .92 3.55l-.56 2a.5.5 0 0 1 -.48.31zm-2.17-1h1.79l.46-1.61a2.62 2.62 0 0 0 -.67-2.57 4.16 4.16 0 0 0 -3-1.23h-.76v2.2h1.64a.5.5 0 0 1 .5.5z"/><path d="m20.34 10.66h3.2v7.48h-3.2z" fill="#666"/><path d="m22.21 10.66h1.34v7.48h-1.34z" fill="#b3b3b3"/><path d="m23.55 18.64h-3.2a.5.5 0 0 1 -.5-.5v-2.45a.5.5 0 1 1 1 0v1.94h2.15v-6.47h-2.2v2.07a.5.5 0 1 1 -1 0v-2.57a.5.5 0 0 1 .5-.5h3.2a.5.5 0 0 1 .5.5v7.48a.5.5 0 0 1 -.45.5z"/><path d="m19.28 7.46h5.34v3.2h-5.34z" fill="#b3b3b3"/><path d="m24.62 11.16h-5.34a.5.5 0 0 1 -.5-.5v-3.2a.5.5 0 0 1 .5-.5h5.34a.5.5 0 0 1 .5.5v3.2a.5.5 0 0 1 -.5.5zm-4.84-1h4.34v-2.16h-4.34z"/><path d="m19.81 18.14h4.27a0 0 0 0 1 0 0v10.86a2 2 0 0 1 -2 2h-.27a2 2 0 0 1 -2-2v-10.86a0 0 0 0 1 0 0z" fill="#ff0"/><path d="m22.48 18.14v10.68a2.13 2.13 0 0 1 -1.34 2 2.13 2.13 0 0 0 2.94-2v-10.68z" fill="#f7931e"/><path d="m21.95 31.45a2.64 2.64 0 0 1 -2.64-2.64v-10.67a.5.5 0 0 1 .5-.5h4.27a.5.5 0 0 1 .5.5v5.29a.5.5 0 0 1 -1 0v-4.79h-3.27v10.18a1.64 1.64 0 1 0 3.27 0v-1.62a.5.5 0 0 1 1 0v1.62a2.64 2.64 0 0 1 -2.63 2.63z"/><path d="m24.08 26.1a.5.5 0 0 1 -.5-.5v-.68a.5.5 0 0 1 1 0v.68a.5.5 0 0 1 -.5.5z"/></g></svg>