<svg height="512" viewBox="0 0 32 32" width="512" xmlns="http://www.w3.org/2000/svg"><g id="Layer_11" data-name="Layer 11"><path d="m31.25 17.67-1.17-8.2h-19.39l-2.28 8.2h4.45v2.89h13.94v-2.89z" fill="#ff0"/><path d="m28.08 10.47 1.03 7.2h2.14l-1.17-8.2h-19.39l-.28 1z" fill="#f7931e"/><path d="m24.8 18.67h2v1.89h-2z" fill="#f7931e"/><path d="m26.8 21.06h-13.94a.5.5 0 0 1 -.5-.5v-2.39h-4a.5.5 0 0 1 -.48-.63l2.28-8.2a.5.5 0 0 1 .53-.34h19.39a.5.5 0 0 1 .5.43l.18 1.23a.5.5 0 0 1 -1 .14l-.11-.8h-18.58l-2 7.2h3.79a.5.5 0 0 1 .5.5v2.39h12.94v-2.42a.5.5 0 0 1 .5-.5h3.88l-.6-4.17a.5.5 0 0 1 .42-.57.51.51 0 0 1 .57.42l.67 4.69a.5.5 0 0 1 -.5.57h-4v2.39a.5.5 0 0 1 -.44.56z"/><path d="m24.49 12.28h-9.32l2.28-9a2.47 2.47 0 0 1 2.39-1.86h4.66z" fill="#666"/><path d="m17.16 12 2.28-9a2.46 2.46 0 0 1 1.19-1.55h-.8a2.47 2.47 0 0 0 -2.39 1.86l-2.28 9h9.33v-.31z" fill="#999"/><path d="m24.49 12.78h-9.32a.5.5 0 0 1 -.48-.62l2.28-9a3 3 0 0 1 2.87-2.24h4.66a.5.5 0 0 1 .5.5v1.39a.5.5 0 1 1 -1 0v-.89h-4.16a2 2 0 0 0 -1.91 1.48l-2.12 8.37h8.19v-5.77a.5.5 0 0 1 1 0v6.28a.5.5 0 0 1 -.51.5z"/><path d="m24.49 5.37a.5.5 0 0 1 -.5-.5v-.87a.5.5 0 0 1 1 0v.83a.5.5 0 0 1 -.5.54z"/><path d="m19.46 9.47h-3.58l1.37-6.12a2.47 2.47 0 0 1 2.41-1.93h3v4.89a3.16 3.16 0 0 1 -3.2 3.16z" fill="#0ff"/><path d="m19.46 10h-3.58a.5.5 0 0 1 -.49-.61l1.37-6.12a3 3 0 0 1 2.89-2.35h3a.5.5 0 0 1 .5.5v4.89a3.66 3.66 0 0 1 -3.69 3.69zm-3-1h3a2.66 2.66 0 0 0 2.66-2.66v-4.42h-2.47a2 2 0 0 0 -1.92 1.54z"/><path d="m13.77 20.56h12.13v3.5h-12.13z" fill="#666"/><path d="m13.77 22.06h12.13v2h-12.13z" fill="#b3b3b3"/><path d="m25.89 24.56h-12.12a.5.5 0 0 1 -.5-.5v-3.5a.5.5 0 0 1 .5-.5h12.12a.5.5 0 0 1 .5.5v3.5a.5.5 0 0 1 -.5.5zm-11.62-1h11.12v-2.5h-11.12z"/><path d="m30.68 5.91-2.68-.75a1.47 1.47 0 0 0 -1.47 1.47v2.85h1.47v-2.59h2.63z" fill="#666"/><path d="m28 10h-1.42a.5.5 0 0 1 -.5-.5v-2.87a2 2 0 0 1 2-2h.14l2.63.74a.5.5 0 0 1 .36.48v1a.5.5 0 0 1 -.5.5h-2.16v2.13a.5.5 0 0 1 -.55.52zm-1-1h.46v-2.11a.5.5 0 0 1 .5-.5h2.13v-.11l-2.09-.62a1 1 0 0 0 -.9 1z"/><path d="m18 22.08a.53.53 0 0 0 -.53-.53h-.47a.52.52 0 0 1 -.5-.37 3.15 3.15 0 0 0 -.25-.61.52.52 0 0 1 .09-.62l.3-.3a.53.53 0 0 0 0-.75.53.53 0 0 0 -.75 0l-.3.3a.52.52 0 0 1 -.62.09 3.15 3.15 0 0 0 -.61-.25.52.52 0 0 1 -.37-.5v-.44a.53.53 0 0 0 -.53-.53.53.53 0 0 0 -.53.53v.43a.52.52 0 0 1 -.37.5 3.15 3.15 0 0 0 -.61.25.52.52 0 0 1 -.62-.09l-.3-.3a.53.53 0 0 0 -.75 0 .53.53 0 0 0 0 .75l.3.3a.52.52 0 0 1 .09.62 3.15 3.15 0 0 0 -.25.61.52.52 0 0 1 -.5.37h-.41a.53.53 0 0 0 -.53.53h.02a.53.53 0 0 0 .53.53h.43a.52.52 0 0 1 .5.37 3.15 3.15 0 0 0 .25.61.52.52 0 0 1 -.09.62l-.3.3a.53.53 0 0 0 0 .75.53.53 0 0 0 .75 0l.3-.3a.52.52 0 0 1 .62-.09 3.15 3.15 0 0 0 .61.25.52.52 0 0 1 .37.5v.39a.53.53 0 0 0 .53.53.53.53 0 0 0 .5-.53v-.43a.52.52 0 0 1 .37-.5 3.15 3.15 0 0 0 .61-.25.52.52 0 0 1 .62.09l.3.3a.53.53 0 0 0 .75 0 .53.53 0 0 0 0-.75l-.3-.3a.52.52 0 0 1 -.09-.62 3.15 3.15 0 0 0 .25-.61.52.52 0 0 1 .5-.37h.43a.53.53 0 0 0 .56-.48z" fill="#4d4d4d"/><path d="m13.48 27.08a1 1 0 0 1 -1-1v-.43a5.34 5.34 0 0 1 -.72-.32l-.33.31a1 1 0 0 1 -.73.3 1 1 0 0 1 -.73-1.76l.3-.3a5.38 5.38 0 0 1 -.29-.74h-.47a1 1 0 0 1 0-2.06h.43a5.4 5.4 0 0 1 .32-.72l-.32-.36a1 1 0 0 1 .73-1.76 1 1 0 0 1 .73.3l.3.3a5.6 5.6 0 0 1 .74-.29v-.45a1 1 0 1 1 2.06 0v.43a5.42 5.42 0 0 1 .72.32l.33-.31a1.05 1.05 0 0 1 1.46 0 1 1 0 0 1 -.01 1.46l-.3.3a5.48 5.48 0 0 1 .3.7h.45a1 1 0 0 1 0 2.06h-.45a5.61 5.61 0 0 1 -.32.72l.31.33a1 1 0 0 1 0 1.46 1.05 1.05 0 0 1 -1.46 0l-.3-.3a5.48 5.48 0 0 1 -.74.29v.44a1 1 0 0 1 -1.01 1.08zm-1.76-2.77a1 1 0 0 1 .48.12 2.64 2.64 0 0 0 .51.21 1 1 0 0 1 .73 1v.36l.06-.43a1 1 0 0 1 .73-1 2.62 2.62 0 0 0 .52-.21 1 1 0 0 1 1.21.18l.3.3-.26-.27a1 1 0 0 1 -.18-1.21 2.68 2.68 0 0 0 .21-.51 1 1 0 0 1 1-.73h.45a0 0 0 0 0 0 0h-.48a1 1 0 0 1 -1-.73 2.69 2.69 0 0 0 -.21-.52 1 1 0 0 1 .21-1.28l.3-.3-.34.26a1 1 0 0 1 -1.21.18 2.64 2.64 0 0 0 -.52-.21 1 1 0 0 1 -.73-1v-.42l-.06.43a1 1 0 0 1 -.73 1 2.66 2.66 0 0 0 -.51.21 1 1 0 0 1 -1.2-.19l-.3-.3.26.34a1 1 0 0 1 .18 1.21 2.62 2.62 0 0 0 -.21.51 1 1 0 0 1 -1 .73h-.42l.43.06a1 1 0 0 1 1 .73 2.65 2.65 0 0 0 .21.52 1 1 0 0 1 -.15 1.21l-.3.3.34-.26a1 1 0 0 1 .68-.29z"/><circle cx="13.48" cy="22.08" fill="#808080" r="1.85"/><path d="m13.48 24.43a2.35 2.35 0 1 1 2.35-2.35 2.36 2.36 0 0 1 -2.35 2.35zm0-3.71a1.35 1.35 0 1 0 1.35 1.35 1.36 1.36 0 0 0 -1.35-1.35z"/><path d="m30.68 22.08a.53.53 0 0 0 -.53-.53h-.43a.52.52 0 0 1 -.5-.37 3.15 3.15 0 0 0 -.25-.61.52.52 0 0 1 .09-.62l.3-.3a.53.53 0 0 0 0-.75.53.53 0 0 0 -.75 0l-.3.3a.52.52 0 0 1 -.62.09 3.15 3.15 0 0 0 -.61-.25.52.52 0 0 1 -.37-.5v-.44a.53.53 0 0 0 -.53-.53.53.53 0 0 0 -.53.53v.43a.52.52 0 0 1 -.37.5 3.15 3.15 0 0 0 -.61.25.52.52 0 0 1 -.62-.09l-.3-.3a.53.53 0 0 0 -.75 0 .53.53 0 0 0 0 .75l.3.3a.52.52 0 0 1 .09.62 3.15 3.15 0 0 0 -.25.61.52.52 0 0 1 -.5.37h-.44a.53.53 0 0 0 -.53.53.53.53 0 0 0 .53.53h.43a.52.52 0 0 1 .5.37 3.15 3.15 0 0 0 .25.61.52.52 0 0 1 -.09.62l-.3.3a.53.53 0 0 0 0 .75.53.53 0 0 0 .75 0l.26-.25a.52.52 0 0 1 .62-.09 3.15 3.15 0 0 0 .61.25.52.52 0 0 1 .37.5v.34a.53.53 0 0 0 .53.53.53.53 0 0 0 .57-.53v-.43a.52.52 0 0 1 .37-.5 3.15 3.15 0 0 0 .61-.25.52.52 0 0 1 .62.09l.3.3a.53.53 0 0 0 .75 0 .53.53 0 0 0 0-.75l-.3-.3a.52.52 0 0 1 -.09-.62 3.15 3.15 0 0 0 .25-.61.52.52 0 0 1 .5-.37h.43a.53.53 0 0 0 .54-.48z" fill="#4d4d4d"/><path d="m26.17 27.08a1 1 0 0 1 -1-1v-.43a5.33 5.33 0 0 1 -.72-.32l-.33.31a1 1 0 0 1 -.73.3 1 1 0 0 1 -.73-1.76l.3-.3a5.67 5.67 0 0 1 -.29-.74h-.47a1 1 0 1 1 0-2.06h.42a5.61 5.61 0 0 1 .32-.72l-.3-.36a1 1 0 0 1 .73-1.76 1 1 0 0 1 .73.3l.3.3a5.38 5.38 0 0 1 .74-.29v-.45a1 1 0 1 1 2.06 0v.43a5.35 5.35 0 0 1 .72.32l.33-.31a1 1 0 0 1 .73-.3 1 1 0 0 1 .73 1.76l-.3.3a5.67 5.67 0 0 1 .29.74h.45a1 1 0 1 1 0 2.06h-.42a5.61 5.61 0 0 1 -.32.72l.31.33a1 1 0 0 1 -.72 1.77 1 1 0 0 1 -.73-.3l-.3-.3a5.32 5.32 0 0 1 -.74.29v.39a1 1 0 0 1 -1.06 1.08zm-1.76-2.77a1 1 0 0 1 .48.12 2.6 2.6 0 0 0 .51.21 1 1 0 0 1 .73 1v.36l.06-.43a1 1 0 0 1 .73-1 2.6 2.6 0 0 0 .52-.21 1 1 0 0 1 1.21.18l.3.3-.26-.34a1 1 0 0 1 -.18-1.21 2.67 2.67 0 0 0 .21-.52 1 1 0 0 1 1-.73h.46a0 0 0 0 0 0 0h-.42a1 1 0 0 1 -1-.73 2.69 2.69 0 0 0 -.21-.52 1 1 0 0 1 .18-1.21l.3-.3-.34.26a1 1 0 0 1 -1.21.18 2.63 2.63 0 0 0 -.52-.21 1 1 0 0 1 -.73-1v-.41l-.06.43a1 1 0 0 1 -.73 1 2.65 2.65 0 0 0 -.51.21 1 1 0 0 1 -1.21-.18l-.3-.3.26.34a1 1 0 0 1 .18 1.21 2.69 2.69 0 0 0 -.21.52 1 1 0 0 1 -1 .73h-.45l.42.06a1 1 0 0 1 1 .73 2.69 2.69 0 0 0 .21.52 1 1 0 0 1 -.18 1.21l-.3.3.34-.26a1 1 0 0 1 .73-.31z"/><circle cx="26.18" cy="22.08" fill="#808080" r="1.85"/><path d="m26.17 24.43a2.35 2.35 0 1 1 2.35-2.35 2.36 2.36 0 0 1 -2.35 2.35zm0-3.71a1.35 1.35 0 1 0 1.35 1.35 1.36 1.36 0 0 0 -1.35-1.35z"/><path d="m3.91 13.63v1.52l-3.17 4 3.26-.02h1.16 2l-.1-9.65c-2.28.02-3.17 1.88-3.15 4.15z" fill="#b3b3b3"/><path d="m7.06 9.48a3.1 3.1 0 0 0 -1.5.36l.07 9.26h-2-1.18-1.68l3.23.03h1.16 2z" fill="#666"/><path d="m.75 19.69a.5.5 0 0 1 -.39-.81l1.57-2a.5.5 0 1 1 .79.62l-.92 1.17 4.83-.06-.07-8.61a2.16 2.16 0 0 0 -1.56 1 4.71 4.71 0 0 0 -.63 2.64v1.52a.5.5 0 0 1 -.11.31l-.68.86a.5.5 0 1 1 -.79-.62l.63-.71v-1.36a5.68 5.68 0 0 1 .8-3.21 3.29 3.29 0 0 1 2.83-1.43.5.5 0 0 1 .5.5l.07 9.63a.5.5 0 0 1 -.5.5l-6.38.08z"/><path d="m7.13 14.27h3.53l.83-2.56h1.23v4.28h-5.59z" fill="#b3b3b3"/><path d="m12.73 16.49h-5.6a.5.5 0 0 1 -.5-.5v-1.72a.5.5 0 0 1 .5-.5h3.17l.7-2.21a.5.5 0 0 1 .48-.35h1.23a.5.5 0 0 1 .5.5v4.29a.5.5 0 0 1 -.48.49zm-5.09-1h4.59v-3.28h-.37l-.72 2.21a.5.5 0 0 1 -.48.35h-3z"/><path d="m12.73 13.85h2.62v2.13h-2.62z" fill="#b3b3b3"/><path d="m15.34 16.48h-2.61a.5.5 0 0 1 -.5-.5v-2.13a.5.5 0 0 1 .5-.5h2.62a.5.5 0 0 1 .5.5v2.15a.5.5 0 0 1 -.51.48zm-2.12-1h1.62v-1.13h-1.61z"/><path d="m30.68 16.49h-2.35a.5.5 0 0 1 0-1h2.35a.5.5 0 0 1 0 1z"/><path d="m30.51 14.35h-2.35a.5.5 0 0 1 0-1h2.35a.5.5 0 0 1 0 1z"/><path d="m18.42 16.79h2.82v3.76h-2.82z" fill="#666"/><path d="m21.24 21.06h-2.82a.5.5 0 0 1 -.5-.5v-3.77a.5.5 0 0 1 .5-.5h2.82a.5.5 0 0 1 .5.5v3.76a.5.5 0 0 1 -.5.51zm-2.32-1h1.82v-2.77h-1.82z"/><path d="m28.54 27.36h-24.54a.5.5 0 0 1 0-1h24.54a.5.5 0 0 1 0 1z"/><path d="m2.07 27.33h-.6a.5.5 0 0 1 0-1h.6a.5.5 0 0 1 0 1z"/><path d="m30.28 27.33h-.28a.5.5 0 0 1 0-1h.24a.5.5 0 0 1 0 1z"/></g></svg>