<svg height="512" viewBox="0 0 32 32" width="512" xmlns="http://www.w3.org/2000/svg"><g id="Layer_3" data-name="Layer 3"><path d="m9.87 20.85h-7.58a1 1 0 0 1 -1-1.35l2.57-8h6z" fill="#b3b3b3"/><path d="m8.53 11.51h1.35v9.33h-1.35z" fill="#808080"/><path d="m9.87 21.34h-7.58a1.53 1.53 0 0 1 -1.46-2l2.57-8a.5.5 0 0 1 .47-.34h6a.5.5 0 0 1 .5.5v9.33a.5.5 0 0 1 -.5.51zm-5.63-9.34-2.46 7.65a.53.53 0 0 0 .51.69h7.08v-8.34z"/><rect fill="#4d4d4d" height="2" rx="1" width="24.37" x="6.37" y="19.18"/><path d="m29.75 19.18h-22.38a1 1 0 0 0 -1 1h22.38a1 1 0 0 1 1 1 1 1 0 0 0 0-2z" fill="#808080"/><path d="m29.75 21.68h-22.38a1.5 1.5 0 0 1 0-3h22.38a1.5 1.5 0 0 1 0 3zm-22.37-2a.5.5 0 0 0 0 1h22.37a.5.5 0 0 0 0-1z"/><path d="m14.67 20.68h11.4a3.42 3.42 0 0 1 3.42 3.42 0 0 0 0 1 0 0h-18.23a0 0 0 0 1 0 0 3.42 3.42 0 0 1 3.41-3.42z" fill="#4d4d4d"/><path d="m29.48 24.59h-18.22a.5.5 0 0 1 -.5-.5 3.92 3.92 0 0 1 3.92-3.92h11.39a3.92 3.92 0 0 1 3.93 3.92.5.5 0 0 1 -.52.5zm-17.68-1h17.14a2.92 2.92 0 0 0 -2.87-2.42h-11.4a2.92 2.92 0 0 0 -2.87 2.42z"/><path d="m2.37 16.18h3.48a1.65 1.65 0 0 0 1.65-1.65v-3h-3.63z" fill="#0ff"/><path d="m5.85 16.68h-3.48a.5.5 0 0 1 -.47-.68l1.5-4.67a.5.5 0 0 1 .47-.33h3.63a.5.5 0 0 1 .5.5v3a2.15 2.15 0 0 1 -2.15 2.18zm-2.79-1h2.79a1.15 1.15 0 0 0 1.15-1.15v-2.53h-2.76z"/><path d="m13.36 11.18v-3h-11a1 1 0 0 0 -1 1 1 1 0 0 0 1 1h9v9h18v-8z" fill="#ff0"/><rect fill="#f7931e" height="4" rx="1" width="2" x="15.36" y="13.18"/><path d="m16.36 17.68a1.5 1.5 0 0 1 -1.5-1.5v-2a1.5 1.5 0 0 1 3 0v2a1.5 1.5 0 0 1 -1.5 1.5zm0-4a.5.5 0 0 0 -.5.5v2a.5.5 0 1 0 1 0v-2a.5.5 0 0 0 -.5-.5z"/><rect fill="#f7931e" height="4" rx="1" width="2" x="19.36" y="13.18"/><path d="m20.36 17.68a1.5 1.5 0 0 1 -1.5-1.5v-2a1.5 1.5 0 0 1 3 0v2a1.5 1.5 0 0 1 -1.5 1.5zm0-4a.5.5 0 0 0 -.5.5v2a.5.5 0 1 0 1 0v-2a.5.5 0 0 0 -.5-.5z"/><rect fill="#f7931e" height="4" rx="1" width="2" x="23.36" y="13.18"/><path d="m24.36 17.68a1.5 1.5 0 0 1 -1.5-1.5v-2a1.5 1.5 0 0 1 3 0v2a1.5 1.5 0 0 1 -1.5 1.5zm0-4a.5.5 0 0 0 -.5.5v2a.5.5 0 1 0 1 0v-2a.5.5 0 0 0 -.5-.5z"/><path d="m13.36 11.18v-3h-11a1 1 0 0 0 -1 1 1 1 0 0 0 1 1h9v9h18v-8z" fill="#ff0"/><path d="m13.36 11.18v-3h-11a1 1 0 0 0 -1 1h11v3h16v7h1v-8z" fill="#f7931e"/><path d="m20.41 11.68h-.51a.5.5 0 0 1 0-1h.51a.5.5 0 0 1 0 1z"/><path d="m29.36 13.83a.5.5 0 0 1 -.5-.5v-1.65h-7a.5.5 0 0 1 0-1h7.53a.5.5 0 0 1 .5.5v2.15a.5.5 0 0 1 -.53.5z"/><path d="m29.36 19.68h-18a.5.5 0 0 1 -.5-.5v-8.5h-8.5a1.5 1.5 0 0 1 0-3h.8a.5.5 0 0 1 0 1h-.8a.5.5 0 0 0 0 1h9a.5.5 0 0 1 .5.5v8.5h17v-3.4a.5.5 0 0 1 1 0v3.9a.5.5 0 0 1 -.5.5z"/><path d="m5.73 8.68h-.45a.5.5 0 0 1 0-1h.45a.5.5 0 0 1 0 1z"/><path d="m18.19 11.68h-4.83a.5.5 0 0 1 -.5-.5v-2.5h-5.61a.5.5 0 0 1 0-1h6.11a.5.5 0 0 1 .5.5v2.5h4.33a.5.5 0 0 1 0 1z"/><rect fill="#f7931e" height="4" rx="1" width="2" x="15.36" y="13.18"/><path d="m16.36 17.68a1.5 1.5 0 0 1 -1.5-1.5v-2a1.5 1.5 0 0 1 3 0v2a1.5 1.5 0 0 1 -1.5 1.5zm0-4a.5.5 0 0 0 -.5.5v2a.5.5 0 1 0 1 0v-2a.5.5 0 0 0 -.5-.5z"/><rect fill="#f7931e" height="4" rx="1" width="2" x="19.36" y="13.18"/><path d="m20.36 17.68a1.5 1.5 0 0 1 -1.5-1.5v-2a1.5 1.5 0 0 1 3 0v2a1.5 1.5 0 0 1 -1.5 1.5zm0-4a.5.5 0 0 0 -.5.5v2a.5.5 0 1 0 1 0v-2a.5.5 0 0 0 -.5-.5z"/><rect fill="#f7931e" height="4" rx="1" width="2" x="23.36" y="13.18"/><path d="m24.36 17.68a1.5 1.5 0 0 1 -1.5-1.5v-2a1.5 1.5 0 0 1 3 0v2a1.5 1.5 0 0 1 -1.5 1.5zm0-4a.5.5 0 0 0 -.5.5v2a.5.5 0 1 0 1 0v-2a.5.5 0 0 0 -.5-.5z"/><circle cx="15.5" cy="23.9" fill="#b3b3b3" r="2.14"/><path d="m15.5 26.55a2.64 2.64 0 1 1 2.64-2.64 2.65 2.65 0 0 1 -2.64 2.64zm0-4.29a1.64 1.64 0 1 0 1.64 1.64 1.65 1.65 0 0 0 -1.64-1.64z"/><circle cx="25.5" cy="23.9" fill="#b3b3b3" r="2.14"/><path d="m25.5 26.55a2.64 2.64 0 1 1 2.64-2.64 2.65 2.65 0 0 1 -2.64 2.64zm0-4.29a1.64 1.64 0 1 0 1.64 1.64 1.65 1.65 0 0 0 -1.64-1.64z"/><path d="m3.82 20.85h-1.46a1 1 0 0 1 -1-1.39l.48-1.27h2v2.67" fill="#f7931e"/><path d="m3.87 21.34h-1.51a1.53 1.53 0 0 1 -1.43-2.07l.47-1.27a.5.5 0 0 1 .47-.32h2a.5.5 0 0 1 .5.5v2.67a.5.5 0 0 1 -.5.49zm-1.65-2.66-.36.95a.53.53 0 0 0 .5.72h1v-1.67z"/><path d="m5.7 19.48h1.49a2.68 2.68 0 0 1 2.68 2.68v.75a0 0 0 0 1 0 0h-6.87a0 0 0 0 1 0 0v-.75a2.68 2.68 0 0 1 2.7-2.68z" fill="#ff0"/><path d="m7.19 19.48h-1.49a2.68 2.68 0 0 0 -2.7 2.68v.75a2.67 2.67 0 0 1 2.7-2.43h1.49a2.67 2.67 0 0 1 2.65 2.42v-.75a2.68 2.68 0 0 0 -2.65-2.67z" fill="#f7931e"/><circle cx="6.46" cy="23.9" fill="#b3b3b3" r="2.14"/><path d="m6.46 26.55a2.64 2.64 0 1 1 2.65-2.65 2.65 2.65 0 0 1 -2.65 2.65zm0-4.29a1.64 1.64 0 1 0 1.65 1.64 1.65 1.65 0 0 0 -1.65-1.64z"/><path d="m9.87 23.4h-6.87a.5.5 0 0 1 -.5-.5v-.75a3.19 3.19 0 0 1 3.2-3.15h1.49a3.19 3.19 0 0 1 3.18 3.18v.75a.5.5 0 0 1 -.5.47zm-6.36-1h5.86v-.25a2.19 2.19 0 0 0 -2.18-2.15h-1.49a2.19 2.19 0 0 0 -2.18 2.18z"/><circle cx="6.46" cy="23.9" fill="#b3b3b3" r="2.14"/><path d="m6.46 26.55a2.64 2.64 0 1 1 2.65-2.65 2.65 2.65 0 0 1 -2.65 2.65zm0-4.29a1.64 1.64 0 1 0 1.65 1.64 1.65 1.65 0 0 0 -1.65-1.64z"/><path d="m9.65 18.12h-2.08a.5.5 0 0 1 0-1h2.08a.5.5 0 1 1 0 1z"/><path d="m19.29 20.64h2.42v3.5h-2.42z" fill="#ff0"/><path d="m21.7 24.64h-2.41a.5.5 0 0 1 -.5-.5v-3.5a.5.5 0 0 1 .5-.5h2.41a.5.5 0 0 1 .5.5v3.5a.5.5 0 0 1 -.5.5zm-1.92-1h1.42v-2.5h-1.41z"/><path d="m6.46 24.77a.5.5 0 0 1 -.5-.5v-.73a.5.5 0 0 1 1 0v.73a.5.5 0 0 1 -.5.5z"/><path d="m15.5 24.77a.5.5 0 0 1 -.5-.5v-.73a.5.5 0 1 1 1 0v.73a.5.5 0 0 1 -.5.5z"/><path d="m25.5 24.78a.5.5 0 0 1 -.5-.5v-.73a.5.5 0 0 1 1 0v.73a.5.5 0 0 1 -.5.5z"/><path d="m28.79 27.46h-24.57a.5.5 0 0 1 0-1h24.57a.5.5 0 0 1 0 1z"/><path d="m2.32 27.43h-.6a.5.5 0 0 1 0-1h.6a.5.5 0 1 1 0 1z"/><path d="m30.53 27.43h-.24a.5.5 0 0 1 0-1h.24a.5.5 0 0 1 0 1z"/></g></svg>