<svg height="512" viewBox="0 0 32 32" width="512" xmlns="http://www.w3.org/2000/svg"><g id="Layer_13" data-name="Layer 13"><path d="m11.75 16h8.5a3.87 3.87 0 0 1 3.87 3.87v11.3a0 0 0 0 1 0 0h-16.24a0 0 0 0 1 0 0v-11.29a3.87 3.87 0 0 1 3.87-3.88z" fill="#ccc"/><path d="m20.25 16h-2a3.87 3.87 0 0 1 3.88 3.88v11.29h2v-11.29a3.87 3.87 0 0 0 -3.88-3.88z" fill="#999"/><path d="m7.88 25.81a.5.5 0 0 1 -.5-.5v-1a.5.5 0 1 1 1 0v1a.5.5 0 0 1 -.5.5z"/><path d="m24.13 31.67h-16.25a.5.5 0 0 1 -.5-.5v-4.17a.5.5 0 1 1 1 0v3.65h15.25v-1.75a.5.5 0 0 1 1 0v2.27a.5.5 0 0 1 -.5.5z"/><path d="m24.13 27.33a.5.5 0 0 1 -.5-.5v-7a3.38 3.38 0 0 0 -3.37-3.37h-8.5a3.38 3.38 0 0 0 -3.37 3.38v2.26a.5.5 0 0 1 -1 0v-2.22a4.38 4.38 0 0 1 4.38-4.37h8.5a4.38 4.38 0 0 1 4.38 4.38v7a.5.5 0 0 1 -.52.44z"/><path d="m12.75 6.25h6.5a0 0 0 0 1 0 0v3.5a3 3 0 0 1 -3 3h-.5a3 3 0 0 1 -3-3v-3.5a0 0 0 0 1 0 0z" fill="#c69c6d"/><path d="m12.75 6.25h6.5a0 0 0 0 1 0 0v3.5a3 3 0 0 1 -3 3h-.5a3 3 0 0 1 -3-3v-3.5a0 0 0 0 1 0 0z" fill="#c69c6d"/><path d="m17.25 6.25v3.5a3 3 0 0 1 -2.25 2.89 3 3 0 0 0 .75.11h.5a3 3 0 0 0 3-3v-3.5z" fill="#8c6239"/><path d="m16.25 13.25h-.5a3.5 3.5 0 0 1 -3.5-3.5v-3.5a.5.5 0 0 1 .5-.5h6.5a.5.5 0 0 1 .5.5v3.5a3.5 3.5 0 0 1 -3.5 3.5zm-3-6.5v3a2.5 2.5 0 0 0 2.5 2.5h.5a2.5 2.5 0 0 0 2.5-2.5v-3z"/><path d="m15.67 2.46h.67a4 4 0 0 1 4 4v1.42a0 0 0 0 1 0 0h-8.67a0 0 0 0 1 0 0v-1.42a4 4 0 0 1 4-4z" fill="#ff0"/><path d="m16.33 2.46h-.67a4 4 0 0 0 -.67.07 4 4 0 0 1 3.33 3.93v1.42h2v-1.42a4 4 0 0 0 -3.99-4z" fill="#d9e021"/><path d="m20.33 8.38h-8.66a.5.5 0 0 1 -.5-.5v-1.42a4.5 4.5 0 0 1 4.5-4.46h.67a4.51 4.51 0 0 1 2.86 1 4.57 4.57 0 0 1 .62.62.5.5 0 0 1 -.77.63 3.57 3.57 0 0 0 -.48-.48 3.51 3.51 0 0 0 -2.24-.77h-.67a3.5 3.5 0 0 0 -3.5 3.5v.92h7.67v-.96a3.5 3.5 0 0 0 -.15-1 .5.5 0 1 1 1-.29 4.48 4.48 0 0 1 .19 1.3v1.41a.5.5 0 0 1 -.54.5z"/><path d="m16 17.08-1.62-1.62v-2.71h3.25v2.71z" fill="#c69c6d"/><path d="m16 12.75v2.71l-.81.81.81.81 1.63-1.62v-2.71z" fill="#8c6239"/><path d="m16 17.58a.5.5 0 0 1 -.35-.15l-1.65-1.62a.5.5 0 0 1 -.15-.35v-2.71a.5.5 0 0 1 .5-.5h3.25a.5.5 0 0 1 .5.5v2.71a.5.5 0 0 1 -.15.35l-1.62 1.63a.5.5 0 0 1 -.33.14zm-1.12-2.33 1.12 1.13 1.13-1.12v-2h-2.25z"/><path d="m11.13 16h2.17v7.58h-2.17z" fill="#ff0"/><path d="m13.29 24.08h-2.16a.5.5 0 0 1 -.5-.5v-7.58a.5.5 0 0 1 .5-.5h2.17a.5.5 0 0 1 .5.5v7.58a.5.5 0 0 1 -.51.5zm-1.67-1h1.17v-6.58h-1.16z"/><path d="m18.71 16h2.17v7.58h-2.17z" fill="#ff0"/><path d="m20.88 24.08h-2.17a.5.5 0 0 1 -.5-.5v-7.58a.5.5 0 0 1 .5-.5h2.17a.5.5 0 0 1 .5.5v7.58a.5.5 0 0 1 -.5.5zm-1.67-1h1.17v-6.58h-1.17z"/><path d="m17.42 31.17h-2.84c-1.82-1.82-2.85-.68-4.67-2.5v-6.17h12.18v6.16c-1.82 1.83-2.84.68-4.67 2.51z" fill="#f7931e"/><path d="m20.09 22.5v6.16c-1.82 1.82-2.85.68-4.67 2.5h2c1.82-1.82 2.85-.68 4.67-2.5v-6.16z" fill="#f15a24"/><path d="m17.42 31.67h-2.84a.5.5 0 0 1 -.35-.15 3.7 3.7 0 0 0 -2.1-1.12 4.7 4.7 0 0 1 -2.58-1.4.5.5 0 0 1 -.15-.35v-6.15a.5.5 0 0 1 .5-.5h12.19a.5.5 0 0 1 .5.5v6.16a.5.5 0 0 1 -.15.35 4.7 4.7 0 0 1 -2.57 1.38 3.7 3.7 0 0 0 -2.1 1.12.5.5 0 0 1 -.35.16zm-2.65-1h2.44a4.67 4.67 0 0 1 2.42-1.24 3.68 3.68 0 0 0 2-1v-5.43h-11.22v5.45a3.68 3.68 0 0 0 2 1 4.67 4.67 0 0 1 2.37 1.22z"/><path d="m13.29 25.75h5.42v5.42h-5.42z" fill="#ff0"/><path d="m16.71 25.75h2v5.42h-2z" fill="#d9e021"/><path d="m18.71 31.67h-5.42a.5.5 0 0 1 -.5-.5v-5.42a.5.5 0 0 1 .5-.5h5.42a.5.5 0 0 1 .5.5v5.42a.5.5 0 0 1 -.5.5zm-4.92-1h4.42v-4.42h-4.42z"/><path d="m12.72 14.35h2.01v3.63h-2.01z" fill="#ccc" transform="matrix(.707 -.707 .707 .707 -7.41 14.44)"/><path d="m14.3 18.66a.5.5 0 0 1 -.35-.15l-2.57-2.57a.5.5 0 0 1 0-.71l1.42-1.42a.5.5 0 0 1 .71 0l2.57 2.57a.5.5 0 0 1 0 .71l-1.42 1.42a.5.5 0 0 1 -.36.15zm-1.86-3.07 1.86 1.86.71-.71-1.86-1.86z"/><path d="m17.27 14.35h2.01v3.63h-2.01z" fill="#ccc" transform="matrix(-.707 -.707 .707 -.707 19.77 40.52)"/><path d="m17.7 18.66a.5.5 0 0 1 -.35-.15l-1.42-1.42a.5.5 0 0 1 0-.71l2.57-2.57a.5.5 0 0 1 .71 0l1.42 1.42a.5.5 0 0 1 0 .71l-2.57 2.57a.5.5 0 0 1 -.36.15zm-.7-1.92.71.71 1.86-1.86-.71-.71z"/><path d="m15.92.83h.17a1 1 0 0 1 1 1v2.25a0 0 0 0 1 0 0h-2.17a0 0 0 0 1 0 0v-2.25a1 1 0 0 1 1-1z" fill="#f7931e"/><path d="m17.08 4.58h-2.16a.5.5 0 0 1 -.5-.5v-2.25a1.5 1.5 0 0 1 1.5-1.5h.17a1.5 1.5 0 0 1 1.5 1.5v2.25a.5.5 0 0 1 -.51.5zm-1.67-1h1.17v-1.75a.5.5 0 0 0 -.5-.5h-.17a.5.5 0 0 0 -.5.5z"/><path d="m20.33 24.25h-1.08a.5.5 0 0 1 0-1h1.08a.5.5 0 0 1 0 1z"/><path d="m12.75 24.25h-1.08a.5.5 0 0 1 0-1h1.08a.5.5 0 0 1 0 1z"/></g></svg>