<svg height="512" viewBox="0 0 32 32" width="512" xmlns="http://www.w3.org/2000/svg"><g id="Layer_8" data-name="Layer 8"><path d="m11.75 16h8.5a3.87 3.87 0 0 1 3.87 3.87v11.3a0 0 0 0 1 0 0h-16.24a0 0 0 0 1 0 0v-11.29a3.87 3.87 0 0 1 3.87-3.88z" fill="#f7931e"/><path d="m20.25 16h-2a3.87 3.87 0 0 1 3.88 3.88v11.29h2v-11.29a3.87 3.87 0 0 0 -3.88-3.88z" fill="#f15a24"/><path d="m24.13 31.67h-16.25a.5.5 0 0 1 -.5-.5v-9.69a.5.5 0 0 1 1 0v9.18h15.25v-9.6a.5.5 0 1 1 1 0v10.11a.5.5 0 0 1 -.5.5z"/><path d="m24.13 20.38a.5.5 0 0 1 -.5-.5 3.37 3.37 0 0 0 -.08-.73.5.5 0 0 1 1-.21 4.36 4.36 0 0 1 .1.94.5.5 0 0 1 -.52.5z"/><path d="m7.88 20.71a.5.5 0 0 1 -.5-.5v-.33a4.38 4.38 0 0 1 4.38-4.37h8.5a4.34 4.34 0 0 1 2.67.91 4.44 4.44 0 0 1 .47.42.5.5 0 0 1 -.71.7 3.36 3.36 0 0 0 -.36-.32 3.27 3.27 0 0 0 -.36-.24 3.37 3.37 0 0 0 -1.7-.46h-8.5a3.38 3.38 0 0 0 -3.37 3.38v.33a.5.5 0 0 1 -.52.48z"/><path d="m12.75 6.25h6.5a0 0 0 0 1 0 0v3.5a3 3 0 0 1 -3 3h-.5a3 3 0 0 1 -3-3v-3.5a0 0 0 0 1 0 0z" fill="#c69c6d"/><path d="m17.25 6.25v3.5a3 3 0 0 1 -2.25 2.89 3 3 0 0 0 .75.11h.5a3 3 0 0 0 3-3v-3.5z" fill="#8c6239"/><path d="m16.25 13.25h-.5a3.5 3.5 0 0 1 -3.5-3.5v-3.5a.5.5 0 0 1 .5-.5h6.5a.5.5 0 0 1 .5.5v3.5a3.5 3.5 0 0 1 -3.5 3.5zm-3-6.5v3a2.5 2.5 0 0 0 2.5 2.5h.5a2.5 2.5 0 0 0 2.5-2.5v-3z"/><path d="m7.88 22.29h16.23v2.29h-16.23z" fill="#ff0"/><path d="m7.88 22.29h16.23v1h-16.23z" fill="#d9e021"/><path d="m24.12 25.08h-16.24a.5.5 0 0 1 -.5-.5v-2.29a.5.5 0 0 1 .5-.5h16.24a.5.5 0 0 1 .5.5v2.29a.5.5 0 0 1 -.5.5zm-15.73-1h15.23v-1.29h-15.24z"/><path d="m15.67 2.46h.67a4 4 0 0 1 4 4v1.42a0 0 0 0 1 0 0h-8.67a0 0 0 0 1 0 0v-1.42a4 4 0 0 1 4-4z" fill="#ff0"/><path d="m16.33 2.46h-.67a4 4 0 0 0 -.67.07 4 4 0 0 1 3.33 3.93v1.42h2v-1.42a4 4 0 0 0 -3.99-4z" fill="#d9e021"/><path d="m20.33 8.38h-8.66a.5.5 0 0 1 -.5-.5v-1.42a4.52 4.52 0 0 1 .11-1 4.58 4.58 0 0 1 .16-.55.5.5 0 0 1 .94.34 3.34 3.34 0 0 0 -.13.43 3.53 3.53 0 0 0 -.08.76v.92h7.67v-.9a3.5 3.5 0 0 0 -3.51-3.46h-.67a3.49 3.49 0 0 0 -2.66 1.18.5.5 0 0 1 -.76-.65 4.51 4.51 0 0 1 3.43-1.53h.67a4.5 4.5 0 0 1 4.5 4.5v1.38a.5.5 0 0 1 -.51.5z"/><path d="m7.88 26.67h16.23v2.29h-16.23z" fill="#ff0"/><path d="m7.88 26.67h16.23v1h-16.23z" fill="#d9e021"/><path d="m24.12 29.46h-16.24a.5.5 0 0 1 -.5-.5v-2.29a.5.5 0 0 1 .5-.5h16.24a.5.5 0 0 1 .5.5v2.33a.5.5 0 0 1 -.5.46zm-15.73-1h15.23v-1.29h-15.24z"/><path d="m12.71 22.51h14.98v2.29h-14.98z" fill="#ff0" transform="matrix(0 1 -1 0 43.86 3.46)"/><path d="m20.34 16.17h1v14.98h-1z" fill="#d9e021"/><path d="m21.34 31.65h-2.29a.5.5 0 0 1 -.5-.5v-15a.5.5 0 0 1 .5-.5h2.29a.5.5 0 0 1 .5.5v15a.5.5 0 0 1 -.5.5zm-1.79-1h1.29v-14h-1.29z"/><path d="m4.34 22.48h14.92v2.29h-14.92z" fill="#ff0" transform="matrix(0 1 -1 0 35.43 11.82)"/><path d="m11.95 16.17h1v14.92h-1z" fill="#d9e021"/><path d="m12.95 31.58h-2.29a.5.5 0 0 1 -.5-.5v-14.91a.5.5 0 0 1 .5-.5h2.29a.5.5 0 0 1 .5.5v14.91a.5.5 0 0 1 -.5.5zm-1.79-1h1.29v-13.91h-1.29z"/><path d="m16 17.08-1.62-1.62v-2.71h3.25v2.71z" fill="#c69c6d"/><path d="m16 12.75v2.71l-.81.81.81.81 1.63-1.62v-2.71z" fill="#8c6239"/><path d="m16 17.58a.5.5 0 0 1 -.35-.15l-1.65-1.62a.5.5 0 0 1 -.15-.35v-2.71a.5.5 0 0 1 .5-.5h3.25a.5.5 0 0 1 .5.5v2.71a.5.5 0 0 1 -.15.35l-1.62 1.62a.5.5 0 0 1 -.33.15zm-1.12-2.33 1.12 1.13 1.13-1.12v-2h-2.25z"/><path d="m12.72 14.35h2.01v3.63h-2.01z" fill="#ccc" transform="matrix(.707 -.707 .707 .707 -7.41 14.44)"/><path d="m14.3 18.66a.5.5 0 0 1 -.35-.15l-2.57-2.57a.5.5 0 0 1 0-.71l1.42-1.42a.5.5 0 0 1 .71 0l2.57 2.57a.5.5 0 0 1 0 .71l-1.42 1.42a.5.5 0 0 1 -.36.15zm-1.86-3.07 1.86 1.86.71-.71-1.86-1.86z"/><path d="m17.27 14.35h2.01v3.63h-2.01z" fill="#ccc" transform="matrix(-.707 -.707 .707 -.707 19.77 40.52)"/><path d="m17.7 18.66a.5.5 0 0 1 -.35-.15l-1.42-1.42a.5.5 0 0 1 0-.71l2.57-2.57a.5.5 0 0 1 .71 0l1.42 1.42a.5.5 0 0 1 0 .71l-2.57 2.57a.5.5 0 0 1 -.36.15zm-.7-1.92.71.71 1.86-1.86-.71-.71z"/><path d="m15.92.83h.17a1 1 0 0 1 1 1v2.25a0 0 0 0 1 0 0h-2.17a0 0 0 0 1 0 0v-2.25a1 1 0 0 1 1-1z" fill="#f7931e"/><path d="m17.08 4.58h-2.16a.5.5 0 0 1 -.5-.5v-2.25a1.5 1.5 0 0 1 1.5-1.5h.17a1.5 1.5 0 0 1 1.5 1.5v2.25a.5.5 0 0 1 -.51.5zm-1.67-1h1.17v-1.75a.5.5 0 0 0 -.5-.5h-.17a.5.5 0 0 0 -.5.5z"/><path d="m16 20.71a.5.5 0 0 1 -.5-.5v-3.13a.5.5 0 1 1 1 0v3.13a.5.5 0 0 1 -.5.5z"/></g></svg>