<svg id="Layer_1" enable-background="new 0 0 24 24" height="512" viewBox="0 0 24 24" width="512" xmlns="http://www.w3.org/2000/svg"><g><path d="m22.805 9.189h-3.28v-5.189h.78c.425 0 .77-.345.77-.77 0-1.708-1.382-3.094-3.09-3.1h-10.84c-1.712 0-3.1 1.388-3.1 3.1.005.427.353.771.78.77h.775v6.1c-.254.131-.45.352-.55.62l-.22.6v-4.061c-.001-1.071-.869-1.939-1.94-1.94h-1.165c-.431.001-.779.349-.78.78v.77c.001.431.349.779.78.78h.775v4.63h-.327c-.203-.001-.376.15-.4.352l-.137 1.127c-.001.029.001.058.006.086l-.351 2.656c-.262.367-.469.772-.612 1.2h-.244c-.221 0-.4.179-.4.4v2.232c0 .221.179.4.4.4h.237c.821 2.418 3.446 3.712 5.864 2.891 1.35-.459 2.414-1.515 2.881-2.862h4.715c.085.298.203.586.352.858.007.035.019.068.035.1.012.02.033.029.047.047.487.815 1.233 1.444 2.12 1.784.017.012.035.023.054.033.038.013.078.02.118.021.859.313 1.8.313 2.659 0 .041-.001.081-.008.12-.021.019-.01.037-.021.055-.033.886-.34 1.632-.968 2.119-1.783.015-.017.036-.027.047-.047.017-.033.029-.068.035-.105.149-.272.267-.559.352-.857h.562c.638-.001 1.154-.517 1.155-1.155v-7.7-.013l.003-1.531c.001-.642-.518-1.165-1.16-1.17zm-5.596-3.09c-.001 0-.003 0-.004 0h-.77c-.427-.004-.776.339-.78.766v.004 3.87h-1.71c-.535-.003-1.002.361-1.13.88l-.17.67h-.47v-3.03c.003-.406-.201-.786-.54-1.01l.29-.48.18-.32.15-.26.26.15.16.09c.19.113.435.051.548-.139.004-.007.008-.014.012-.021.021-.041.034-.085.04-.13.015-.081.005-.165-.03-.24-.034-.081-.094-.148-.17-.19l-1.52-.88h-.01c-.184-.111-.424-.052-.535.132-.002.003-.003.005-.005.008-.083.127-.086.289-.01.42l.01.01c.036.056.084.104.14.14l.4.24-.57.97-.03.04c-.176-.091-.372-.139-.57-.14-.464-.002-.889.257-1.1.67l-.82 1.65h-2.09v-5.969h12.39v8.287h-.77v-5.418c-.002-.427-.349-.772-.776-.77zm-1.334 7.733v-.002h-5.775v-.762h7.7v2.342c-.395.032-.784.12-1.155.262v-1.072c-.002-.424-.346-.767-.77-.768zm-3.63.88v2.134h-2.133v-2.132zm4.96-3.195v.77h-3.76l.12-.48c.045-.173.202-.292.38-.29zm-.77-.78v-3.868h.77v3.87zm2.135 3.863h4.622v.77h-4.622zm0-.771v-.762h4.235c.015 0 .027-.008.042-.008h.345v.77zm4.235-3.862c.211.001.381.173.38.384v.006 1.543c.004.211-.163.385-.374.39-.002 0-.004 0-.006 0h-3.28v-2.321zm-17.98-6.738c.001-1.282 1.037-2.323 2.32-2.329h10.84c1.283.005 2.32 1.047 2.32 2.33zm.94 7.76c.061-.151.207-.25.37-.25h2.565c.212.004.381.178.38.39v1.16h-2.715-.048c-.02-.006-.041-.011-.062-.013h-.972zm-4.035-4.12v-.769h1.16c.64.001 1.159.52 1.16 1.16v5.02h-.77v-4.631c-.001-.43-.349-.779-.78-.78zm3.319 8.503h.005c1.534.004 2.92.919 3.527 2.328h-.837c-.831-1.488-2.712-2.021-4.201-1.19-.499.279-.911.691-1.19 1.19h-.828c.601-1.412 1.989-2.329 3.524-2.328zm1.723 2.328h-3.446c.834-.952 2.281-1.047 3.233-.213.076.066.147.138.213.213zm-1.723 5.372c-1.538-.004-2.925-.923-3.53-2.337h.834c.826 1.489 2.703 2.026 4.191 1.201.505-.28.921-.696 1.201-1.201h.426v.029h.4c-.613 1.4-1.994 2.305-3.522 2.308zm-1.725-2.337h.938c.203.002.375-.149.4-.35.016-.227.213-.398.44-.382.205.014.368.177.382.382.026.201.198.351.4.349h.9c-.837.956-2.29 1.052-3.246.215-.076-.066-.147-.138-.214-.214zm5.937-.8h-3.085c-.257-.611-.961-.898-1.572-.64-.289.122-.519.352-.64.64h-3.129v-1.435h8.426zm.065-2.514c-.21-.511-.512-.98-.89-1.384l.875-.875v2.087c.002.025.007.051.015.075zm0-3.363-1.463 1.463c-1.678-1.278-4.006-1.264-5.668.034l.223-1.671c0-.011.013-.017.015-.028l.099-.777h3.723c.016-.002.032-.006.048-.01h3.023zm-.081-3.941.72-1.45c.113-.206.364-.293.58-.2.03-.001.058.01.08.03l.57.38c.021.008.038.022.05.04.101.084.16.209.16.34v3.03h-1.55v-1.16c0-.424-.235-.812-.61-1.01zm4.745 9.876h-3.929v-.77h3.929c-.012.129-.039.253-.039.385s.027.256.039.385zm.142-1.54h-4.032v-.8h2.548c.221 0 .4-.179.4-.4v-2.653h2.828v1.466c-.083.078-.173.147-.269.207-.716.546-1.234 1.312-1.475 2.18zm7.21 2.513-.285-.164c-.191-.11-.436-.045-.547.146-.11.191-.045.436.147.547l.276.159c-.319.425-.731.771-1.206 1.01l-.108-.3c-.076-.208-.305-.315-.513-.239s-.315.305-.239.513l.111.3c-.517.133-1.06.133-1.577 0l.111-.3c.076-.208-.031-.437-.239-.513s-.437.031-.513.239l-.108.3c-.475-.239-.888-.585-1.206-1.01l.276-.159c.191-.11.257-.355.147-.547-.11-.191-.355-.257-.547-.146l-.285.164c-.186-.429-.282-.891-.282-1.358 0-.067.016-.13.02-.2l.312.055c.023.004.046.006.069.006.221.001.4-.178.401-.399 0-.195-.139-.361-.331-.395l-.31-.055c.151-.51.418-.977.781-1.366l.206.246c.076.091.189.143.307.143.221 0 .4-.179.4-.4 0-.093-.033-.184-.093-.256l-.21-.251c.447-.289.955-.47 1.484-.528v.315c0 .221.18.4.401.399.22 0 .399-.179.399-.399v-.315c.529.058 1.037.239 1.484.528l-.211.251c-.142.17-.12.422.05.564s.422.12.564-.05l.207-.247c.363.388.631.856.781 1.366l-.31.055c-.218.038-.363.245-.325.463.034.192.2.331.395.331.023 0 .046-.002.069-.006l.312-.055c0 .066.02.129.02.2-.002.468-.099.93-.285 1.358zm1.85-1.358c0 .213-.172.385-.385.385h-.421c.012-.129.039-.253.039-.385-.005-.222-.027-.444-.067-.663.002-.024.002-.048 0-.072-.003-.011-.007-.021-.012-.031-.038-.141-.06-.285-.1-.426-.041-.141-.09-.28-.146-.416-.112-.268-.251-.523-.416-.762-.128-.181-.269-.352-.422-.511-.1-.109-.206-.217-.318-.315-.054-.047-.11-.088-.167-.131s-.105-.1-.165-.14h2.582z"/><path d="m18.188 19.223c-.213 0-.385.172-.385.385s.172.385.385.385.385-.172.385-.385c0-.212-.172-.385-.385-.385z"/><path d="m18.187 17.668c-1.071.001-1.94.87-1.939 1.941s.87 1.94 1.941 1.939 1.939-.869 1.939-1.94c-.002-1.071-.87-1.939-1.941-1.94zm0 3.081c-.63 0-1.141-.511-1.141-1.141s.511-1.141 1.141-1.141 1.141.511 1.141 1.141c-.001.63-.511 1.141-1.141 1.141z"/></g></svg>