<svg id="Layer_1" enable-background="new 0 0 24 24" height="512" viewBox="0 0 24 24" width="512" xmlns="http://www.w3.org/2000/svg"><g><path d="m8.934 19.752c-.641.002-1.16.523-1.158 1.164s.523 1.16 1.164 1.158c.64-.002 1.158-.521 1.158-1.161-.001-.642-.522-1.161-1.164-1.161zm0 1.548c-.214 0-.387-.173-.387-.387s.173-.387.387-.387.387.173.387.387-.173.387-.387.387z"/><path d="m17.063 20.913c0 .641.52 1.161 1.161 1.161s1.161-.52 1.161-1.161-.52-1.161-1.161-1.161c-.641.001-1.16.52-1.161 1.161zm1.161-.387c.214.001.386.173.387.387 0 .214-.173.387-.387.387s-.387-.173-.387-.387.173-.387.387-.387z"/><path d="m15.898 16.268h2.323c.428.001.776-.345.777-.773v-.001-.775c-.001-.427-.347-.773-.774-.774h-2.326c-.427.001-.773.347-.774.774v.775c0 .427.347.774.774.774zm1.549-1.549h.774v.775h-.774zm-1.549 0h.775v.775h-.775z"/><path d="m23.847 4.377c-.128-.592-.599-1.048-1.194-1.158-.199-.043-.404-.059-.607-.047-.041 0-.082 0-.123 0h-12.084c-.189 0-.189 0-.189-.187 0-.16 0-.32 0-.48 0-.091-.023-.133-.122-.132-.335 0-1.539 0-2.243 0v-1.596c0-.221-.179-.4-.4-.4h-6.387c-.221 0-.4.179-.4.4v7.134c0 .221.179.4.4.4h6.388c.221 0 .4-.179.4-.4v-.8h2.239c.1 0 .125-.037.124-.129 0-.3 0-.585 0-.9 0-.133.042-.172.173-.172h6.92l-1.744 1.008-2.5 1.44c-.308.178-2.245 1.3-2.913 1.681-.524-.22-1.12-.191-1.621.078-.562.285-.952.824-1.048 1.447-.009.1-.009.2 0 .3-.01.739.401 1.42 1.059 1.756.4.229 1.3.757 1.9 1.109l-.484 1.291c-.202.54.072 1.14.612 1.342.116.043.24.066.364.066h.506v1.548h-.042c-1.069-1.048-2.785-1.032-3.834.037-1.048 1.069-1.032 2.785.037 3.834 1.069 1.048 2.785 1.032 3.834-.037.403-.411.665-.941.748-1.511h3.933c.213 1.48 1.586 2.508 3.066 2.295s2.508-1.586 2.295-3.066c-.171-1.189-1.105-2.124-2.295-2.295v-.805h.506c.575-.001 1.041-.467 1.042-1.042v-2.56c0-.433-.234-1.042-.642-1.042h-5.11l-1.44-.831c1.141-.663 3.385-1.954 4.1-2.368.783-.452 1.566-.905 2.349-1.358.832-.481 1.668-.955 2.5-1.441.471-.245.928-.518 1.367-.816.504-.359.728-.997.56-1.593zm-22.949-1.577h2.374v1.163h-2.374zm0 1.937h2.374v1.163h-2.374zm5.588 2.774h-5.588v-.839h5.588zm0-1.611h-2.44v-1.163h2.44zm0-1.937h-2.44v-1.163h2.44zm0-1.928h-1.488-1.935l-2.165-.006v-.852h5.588zm2.375 4.239c-.025.044-.073.068-.122.061h-.005-1.448v-3.189h1.454c.048-.008.096.014.121.056zm2.008 14.639c-.001 1.068-.867 1.934-1.935 1.935-1.069.001-1.936-.866-1.937-1.935s.866-1.936 1.935-1.937 1.936.866 1.937 1.935zm-1.245-15.748v-1.223h10.529l-2.086 1.204zm.332 8.711c-.579-.334-1.166-.654-1.734-1-.406-.233-.623-.695-.544-1.156.049-.457.363-.842.8-.982.416-.127.868-.045 1.212.222.829.487 1.663.963 2.5 1.443l.669.386-1.539-.005c-.434.002-.822.271-.976.677l-.2.524zm5.589 6.65h-.005-3.928c-.038-.268-.117-.529-.234-.774h4.4c-.116.245-.194.506-.233.774zm-3.905-1.549v-1.548h6.194v.805c-.568.081-1.096.342-1.506.743zm8.519 1.936h-.003c-.001 1.069-.867 1.935-1.936 1.934s-1.935-.867-1.934-1.936c.001-1.068.867-1.934 1.935-1.934 1.07 0 1.937.866 1.938 1.936zm-1.042-7.355c.148 0 .268.12.268.268h-.003v2.561c-.001.148-.12.267-.268.268h-8.751c-.148-.001-.267-.12-.268-.268 0-.032.006-.065.017-.095l.96-2.56c.04-.104.139-.173.251-.174zm3.871-8.417c-.035.058-.076.112-.125.16-.182.157-.383.29-.6.394-.652.374-1.304.748-1.955 1.123-.75.432-1.5.865-2.25 1.3-.822.475-1.643.951-2.464 1.428-.451.261-2.872 1.658-3.407 1.96-.429-.248-.857-.5-1.288-.744-.168-.1-.334-.2-.5-.3 1.187-.683 3.269-1.88 3.963-2.281 1.162-.672 2.323-1.345 3.484-2.02.783-.453 1.569-.9 2.353-1.352.4-.231.789-.489 1.2-.692.403-.232.894-.251 1.313-.051.373.22.496.701.276 1.075z"/><path d="m8.859 11.471c-.215 0-.389.174-.389.389s.174.389.389.389.389-.174.389-.389-.174-.389-.389-.389z"/></g></svg>