<svg id="Layer_1" enable-background="new 0 0 24 24" height="512" viewBox="0 0 24 24" width="512" xmlns="http://www.w3.org/2000/svg"><g><path d="m20.615 10.87c.228-.001.413-.186.414-.414v-1.028c0-.229-.186-.414-.415-.413-.228 0-.413.185-.413.413v1.028c0 .229.186.414.414.414z"/><path d="m22.086 10.87c.228-.001.413-.186.413-.414v-1.028c-.011-.228-.205-.404-.434-.393-.213.01-.383.181-.393.393v1.028c0 .229.186.414.414.414z"/><path d="m15.292 11.531h-.973c-.221 0-.4.179-.4.4s.179.4.4.4h.973c.221 0 .4-.179.4-.4s-.179-.4-.4-.4z"/><path d="m20.309 17.344c-.327-.001-.593.263-.594.59 0 .081.016.161.048.235.02.04.045.077.074.111.016.027.034.053.053.078.022.017.046.033.07.047.263.194.633.138.826-.124.074-.1.114-.22.116-.344 0-.327-.265-.593-.593-.593z"/><path d="m20.306 15.78c-1.193 0-2.16.967-2.16 2.16s.967 2.16 2.16 2.16 2.16-.967 2.16-2.16c-.002-1.192-.968-2.157-2.16-2.16zm0 3.52c-.751 0-1.36-.609-1.36-1.36s.609-1.36 1.36-1.36 1.36.609 1.36 1.36-.609 1.36-1.36 1.36z"/><path d="m7.678 17.695c-.103.002-.202.035-.286.094-.156.095-.252.263-.254.446 0 .298.242.54.54.54s.54-.242.54-.54-.241-.54-.54-.54z"/><path d="m7.676 16.25c-1.096-.003-1.987.884-1.99 1.98s.884 1.987 1.98 1.99 1.987-.884 1.99-1.98c.002-1.095-.884-1.986-1.98-1.99zm0 3.17c-.652 0-1.18-.528-1.18-1.18s.528-1.18 1.18-1.18 1.18.528 1.18 1.18c-.001.652-.528 1.179-1.18 1.18z"/><path d="m21.429 12.952c.018 0 .03.02.049.02.178 0 .323-.145.323-.323s-.145-.323-.323-.323v.006c-.131.006-.244.094-.28.22-.013.035-.043.063-.043.1.006.154.122.281.274.3z"/><path d="m20.259 12.952c.019 0 .031.021.05.021.178 0 .323-.145.323-.323s-.145-.323-.323-.323v.005c-.131.006-.244.094-.28.22-.014.036-.043.063-.043.1.005.154.121.281.273.3z"/><path d="m19.089 12.952c.019 0 .031.021.05.021.178 0 .323-.145.323-.323s-.145-.323-.323-.323v.005c-.131.006-.244.094-.28.22-.014.036-.043.063-.043.1.005.154.121.281.273.3z"/><path d="m21.428 13.91c.019 0 .031.021.05.021.178 0 .323-.144.323-.323 0-.178-.144-.323-.323-.323v.001c-.133.006-.247.096-.282.224-.012.035-.041.061-.041.1.005.154.121.281.273.3z"/><path d="m20.258 13.911c.019 0 .031.021.051.021.178 0 .323-.144.323-.323 0-.178-.144-.323-.323-.323-.133.006-.247.097-.282.225-.012.034-.041.06-.041.1.005.153.12.28.272.3z"/><path d="m19.088 13.911c.019 0 .031.021.051.021.178 0 .323-.145.323-.323s-.145-.323-.323-.323c-.133.006-.247.097-.282.225-.012.034-.041.06-.041.1.005.153.12.28.272.3z"/><path d="m24.001 11.67v-3.1c.001-.457-.369-.829-.826-.83-.001 0-.003 0-.004 0h-.511v-1.909c.001-.42.341-.759.76-.76.221 0 .4-.179.4-.4s-.179-.4-.4-.4c-.862.001-1.56.698-1.561 1.56v1.909h-1.127v-.734h.218c.221 0 .4-.179.4-.4s-.179-.4-.4-.4h-1.257c-.221 0-.4.179-.4.4s.179.4.4.4h.238v.734h-.905v-4.545c.002-.455-.365-.827-.82-.83h-5.8c-.455.003-.822.375-.82.83v2.563h-2.511c-.216.001-.39.175-.39.391v1.39h-1.55v-.39c0-.216-.174-.39-.39-.391h-1.55c-.212.005-.381.179-.38.391v4.153l-.679.848-1.28 1.59-1.33-1.33c-.032-.032-.069-.059-.11-.08-.048-.02-.099-.03-.15-.03-.008-.008-.019-.011-.03-.01h-.83c-.229 0-.415.186-.415.415s.186.415.415.415h.42v4.55h-.42c-.226.001-.409.184-.41.41 0 .228.182.414.41.42h2.07c.457.001.829-.369.83-.826 0-.001 0-.003 0-.004v-.675l3.92-4.7h1.46v1.79c-.008.015-.012.033-.01.05v.9c-.323-.108-.66-.166-1-.17-1.867-.009-3.387 1.497-3.396 3.364s1.497 3.387 3.364 3.396c1.718.008 3.169-1.274 3.372-2.98h5.67c.39 2.003 2.329 3.31 4.331 2.92 1.734-.337 2.986-1.854 2.989-3.62v-6.22c.004-.018.003-.037-.005-.055zm-21.52 6h-.82v-3.97l.82.83zm9.925-14.475h5.8v.82h-5.8zm0 6.119 1.45-1.45.34.34c.167.157.429.153.59-.01.152-.169.148-.427-.01-.59l-1.25-1.24c-.169-.154-.431-.141-.585.028-.145.16-.143.404.005.562l.33.33-.87.86v-3.3h5.8v3.705l-1.42 1.41h-4.38zm-2.941-2.77h2.121v1.2h-2.121zm-2.33 1.771 1.551-.001v.78.721h-1.551zm-1.548-.776.779.005v2.266c-.238.01-.461.123-.609.31l-.17.21zm1.64 3.926c-.247 0-.482.11-.64.3l-3.28 3.94v-1.2l2.15-2.68.13-.17.78-.97.04-.05h2.28v.83zm.449 9.355.001.005c-1.425 0-2.58-1.155-2.58-2.58s1.155-2.58 2.58-2.58 2.58 1.155 2.58 2.58c-.006 1.422-1.159 2.573-2.581 2.575zm8.961-3.105c0 .04-.01.08-.01.13h-5.61c-.116-1.008-.682-1.908-1.54-2.45v-.707h.04v-.15h3.75v1.87c0 .221.179.4.4.4h2.97zm-2.571-1.72v-1.47h2.56v1.47zm2.705-4.361v-.003c-.088.124-.136.273-.135.426v1.67h-7.12v-5.157h2.07v1.389c-.002.455.365.827.82.83h3.831c.228.011.457-.001.683-.035.448-.09.753-.5 1.061-.81l.8-.8c.156-.148.243-.354.24-.569h4.14v2.75h-5.432c-.175-.016-.352-.008-.525.023-.17.048-.322.148-.433.286zm6.435 6.307c-.001 1.597-1.296 2.89-2.893 2.889-.002 0-.005 0-.007 0v.001c-1.602 0-2.9-1.298-2.9-2.9s1.298-2.9 2.9-2.9 2.9 1.298 2.9 2.9zm0-2.27c-1.226-1.6-3.516-1.903-5.116-.677-.245.187-.464.405-.654.647v-3.58h5.77z"/></g></svg>