<svg id="Layer_1" enable-background="new 0 0 24 24" height="512" viewBox="0 0 24 24" width="512" xmlns="http://www.w3.org/2000/svg"><g><path d="m9.09 16.125c-.685 0-1.24.555-1.24 1.24s.555 1.24 1.24 1.24 1.24-.555 1.24-1.24-.555-1.24-1.24-1.24zm.002 1.65c-.001 0-.001 0-.002 0-.224.002-.408-.178-.41-.402 0-.003 0-.005 0-.008-.004-.229.178-.417.407-.421h.003c.232.002.419.189.42.421-.002.228-.189.412-.418.41z"/><path d="m20.27 15.296c-.914-.003-1.657.736-1.66 1.65s.736 1.657 1.65 1.66 1.657-.736 1.66-1.65c0-.004 0-.007 0-.011-.003-.91-.74-1.647-1.65-1.649zm0 2.479v.001c-.456.003-.827-.364-.83-.82s.364-.827.82-.83c.455-.003.827.364.83.819.001.455-.365.825-.82.83z"/><path d="m20.105 11.06c.014.001.027.001.041 0h1.775c.228.011.423-.165.434-.393s-.165-.423-.393-.434c-.014-.001-.027-.001-.041 0h-1.775c-.228-.011-.423.165-.434.393s.165.422.393.434z"/><path d="m21.921 11.644h-1.775c-.229 0-.414.185-.414.414s.185.414.414.414h1.775c.229 0 .414-.185.414-.414s-.185-.414-.414-.414z"/><path d="m23.016 14.467-.001-.002h.145c.457.001.829-.369.83-.826 0-.002 0-.003 0-.005v-4.13c.001-.457-.37-.828-.827-.829-.001 0-.002 0-.003 0h-.51v-1.908c.001-.419.34-.759.76-.76.221 0 .4-.179.4-.4s-.179-.4-.4-.4c-.862.001-1.56.698-1.561 1.56v1.908h-1.122v-.733h.218c.221 0 .4-.179.4-.4s-.179-.4-.4-.4h-1.257c-.221 0-.4.179-.4.4s.179.4.4.4h.238v.733h-.906v-4.55c.002-.455-.365-.827-.82-.83h-5.799c-.455.003-.822.375-.82.83v2.571h-2.511c-.216 0-.39.175-.39.391v1.39h-1.55v-.39c0-.216-.174-.39-.39-.391h-1.55c-.212.005-.381.179-.38.391v4.15l-.68.85-1.28 1.59-1.33-1.33c-.032-.032-.069-.06-.11-.081-.048-.019-.099-.029-.15-.029-.008-.008-.019-.011-.03-.01h-.829c-.229 0-.415.186-.415.415s.186.415.415.415h.42v4.55h-.42c-.226.001-.408.183-.41.409 0 .228.182.415.41.421h2.07c.458.001.829-.37.83-.828 0-.001 0-.001 0-.002v-.68l3.92-4.7h1.46v.86c-1.813.228-3.098 1.882-2.87 3.694.228 1.813 1.881 3.098 3.694 2.87 1.656-.208 2.897-1.616 2.896-3.284h4.215c.204 2.038 2.021 3.524 4.059 3.32s3.524-2.021 3.32-4.059c-.081-.809-.425-1.568-.979-2.161zm-20.546 4.138h-.82v-3.971l.82.831zm9.931-14.48h5.8v.819h-5.8zm0 6.79 1.45-1.45.34.34c.167.156.428.152.59-.01.152-.169.148-.427-.01-.591l-1.25-1.239c-.169-.154-.431-.141-.585.028-.145.16-.143.404.005.562l.33.329-.87.861v-3.97h5.8v4.38l-1.42 1.409h-4.38zm-2.941-3.44h2.121v1.2h-2.121zm-2.33 1.77h1.551v1.5h-1.551zm-1.549-.77h.78v2.27c-.239.008-.462.122-.61.31l-.17.209zm1.639 3.921c-.247 0-.482.11-.64.3l-3.279 3.938v-1.2l2.15-2.681.13-.169.78-.97.04-.051h2.28v.83zm4.173 5.908c-.202-.089-.438.003-.527.206-.071.161-.028.35.106.464-.194.224-.428.412-.689.553v.002c-.1-.191-.336-.265-.528-.165-.158.083-.24.262-.199.436-.154.03-.31.046-.466.047-.14-.002-.28-.017-.418-.043.045-.211-.089-.419-.3-.464-.176-.038-.355.049-.434.211-.265-.139-.502-.325-.7-.549.168-.118.22-.343.12-.522-.11-.192-.354-.258-.546-.148h-.006c-.118-.284-.182-.588-.189-.895h.027c.023.004.047.006.07.006.221 0 .4-.179.4-.4 0-.194-.14-.36-.331-.394l-.052-.003c.093-.304.245-.587.446-.834l.047.056c.149.164.402.176.565.027.154-.14.175-.375.048-.54l-.057-.068c.274-.173.58-.29.9-.343v.09c0 .221.179.4.4.4s.4-.179.4-.4v-.087c.319.05.624.162.9.329l-.047.055c-.142.169-.121.422.048.564.169.143.422.121.564-.048l.044-.053c.204.242.36.52.459.821l-.041.007c-.218.038-.363.245-.325.463.034.191.2.331.394.331.023 0 .046-.002.069-.007h.031c-.004.307-.066.61-.183.895zm5.228-1.767h-2.561-1.77c-.068-.261-.169-.512-.3-.748h4.8c-.082.242-.139.493-.169.748zm-5.242-1.551c-.509-.493-1.163-.811-1.865-.906v-.006-4.57h2.07v2.06c-.004.455.362.828.817.832v-.002h4.33c.254 0 .498-.101.677-.281l1.373-1.371c.16-.154.247-.368.24-.59v-.648h4.14v4.13h-1.274c-1.688-.824-3.725-.241-4.721 1.352zm11.55 3.027c-.191-.11-.436-.045-.547.146s-.045.436.146.547l.07.04c-.252.327-.57.597-.934.792v-.001l-.025-.069c-.075-.208-.305-.315-.513-.24s-.315.305-.24.513l.031.084c-.404.093-.824.095-1.229.006l.027-.076c.075-.208-.032-.437-.24-.512s-.437.032-.513.24l-.024.065c-.362-.191-.68-.456-.933-.778l.051-.03c.191-.11.257-.355.146-.546-.11-.191-.355-.257-.547-.147l-.063.036c-.144-.349-.219-.722-.22-1.1 0-.033.009-.062.01-.094l.058.01c.022.004.045.006.068.006.221.003.403-.173.406-.394.003-.199-.141-.37-.337-.401l-.053-.01c.125-.388.329-.745.6-1.049l.033.039c.138.172.39.2.562.062s.2-.39.062-.562c-.004-.005-.009-.011-.013-.016l-.038-.045c.344-.219.731-.362 1.135-.42v.052c0 .221.179.4.399.401.221 0 .4-.179.401-.399v-.001-.064c.405.051.795.188 1.144.4l-.04.048c-.143.168-.123.421.045.564s.421.123.564-.045c.001-.001.003-.003.004-.004l.046-.055c.278.303.489.661.619 1.051l-.068.012c-.218.038-.363.245-.325.463.034.192.2.331.395.331.024 0 .047-.002.071-.006l.077-.014c0 .046.013.09.013.137-.001.369-.074.735-.213 1.077z"/><path d="m16.413 13.121h-.973c-.221 0-.4.179-.4.4s.179.4.4.4h.973c.221 0 .4-.179.4-.4s-.179-.4-.4-.4z"/></g></svg>