<svg id="Layer_1" enable-background="new 0 0 24 24" height="512" viewBox="0 0 24 24" width="512" xmlns="http://www.w3.org/2000/svg"><g><path d="m21.045 22.55c.831 0 1.505-.674 1.505-1.505s-.674-1.505-1.505-1.505-1.505.674-1.505 1.505.674 1.505 1.505 1.505zm0-2.19c.376 0 .68.304.68.68s-.304.68-.68.68-.68-.304-.68-.68c.004-.374.306-.676.68-.68z"/><path d="m8.555 20.54c-.068.158-.103.328-.1.5 0 .828.672 1.5 1.5 1.5s1.5-.672 1.5-1.5-.672-1.5-1.5-1.5c-.633-.002-1.197.4-1.4 1zm2.08.5c0 .376-.304.68-.68.68s-.68-.304-.68-.68.304-.68.68-.68c.375.001.679.305.68.68z"/><path d="m17.345 22.55c.831 0 1.505-.674 1.505-1.505s-.674-1.505-1.505-1.505-1.505.674-1.505 1.505.674 1.505 1.505 1.505zm0-2.19c.376 0 .68.304.68.68s-.304.68-.68.68-.68-.304-.68-.68.304-.68.68-.68z"/><path d="m13.649 22.55h.006c.831-.003 1.503-.679 1.5-1.51s-.679-1.503-1.51-1.5c-.827.003-1.497.673-1.5 1.5-.002.832.672 1.508 1.504 1.51zm.006-2.19c.376 0 .68.304.68.68s-.304.68-.68.68-.68-.304-.68-.68.304-.68.68-.68z"/><path d="m21.685 11.81h-.133v-1.692c0-.42.341-.761.761-.761.221 0 .4-.179.4-.4s-.179-.4-.4-.4c-.862.001-1.56.699-1.562 1.561v1.662h-.616v-1.16c0-.215-.175-.39-.39-.39h-3.09c-.215 0-.39.175-.39.39v1.16h-.78v-2.66c.007-.23-.174-.423-.404-.43-.002 0-.004 0-.006 0h-.36c-.23-.01-.49-.01-.77-.01s-.57 0-.87.01l-4.65-6.68c0-.03.01-.05.01-.07-.002-1.074-.875-1.942-1.948-1.94-.001 0-.002 0-.002 0-.543.002-1.059.235-1.42.64h-3.77c-.718 0-1.3.582-1.3 1.3s.582 1.299 1.3 1.3h1.439v3.43c-.908.198-1.557 1-1.56 1.93-.004.399.115.79.34 1.12l-.86.67c-.101.08-.16.201-.16.33v1.39c.003.063.02.125.05.18l1.82 3.73c.069.141.213.23.37.23h.82c.157 0 .301-.089.37-.23l1.82-3.73c.03-.055.047-.117.05-.18v-1.39c0-.129-.059-.25-.16-.33l-.87-.67c.228-.329.35-.72.35-1.12-.003-.93-.652-1.732-1.56-1.93v-3.43h1.5c.284.315.663.529 1.08.61l1.971 4.25.33.73.46.98c-.006 0-.01.004-.01.01-.157.244-.265.515-.32.8-.029.128-.043.259-.04.39v5.8c-.004.211.163.385.374.39h.006 2.065v.88h-1.015c-1.635 0-2.96 1.325-2.961 2.959s1.325 2.961 2.96 2.961h.001 11.09c1.635 0 2.96-1.326 2.959-2.961 0-1.634-1.325-2.959-2.959-2.959h-1.013v-.88h3.583c.212.003.387-.166.39-.378 0-.004 0-.008 0-.012v-2.32c-.005-1.344-.991-2.483-2.32-2.68zm-18.951 0-.37.75c-.061.12-.057.263.01.38l.36.63v1.33l-1.42-2.89v-1.09l.81-.64c.184.124.392.209.61.25zm2.23-.89v1.09l-1.41 2.89v-1.44c0-.071-.021-.141-.06-.2l-.3-.53.32-.64c.023-.057.036-.118.04-.18v-1.38c.216-.044.422-.125.61-.24zm-.67-2.32c0 .635-.515 1.15-1.15 1.15s-1.15-.515-1.15-1.15.515-1.15 1.15-1.15c.633.005 1.145.517 1.15 1.15zm.321-6.18h-3.32c-.265 0-.48-.215-.48-.48s.215-.48.48-.48h3.32c-.044.156-.068.318-.07.48.002.162.026.324.07.48zm12.42 8.59h2.32v.77h-2.32zm-11.67-9.07c0-.619.501-1.12 1.12-1.12s1.12.501 1.12 1.12-.501 1.12-1.12 1.12c-.618-.003-1.117-.503-1.12-1.12zm3.44 5.72-1.78-3.86c.446-.129.833-.413 1.09-.8l3.97 5.7c-.31 0-.6.01-.87.02-.1.01-.2.01-.29.02l-.65-1.32c-.095-.198-.331-.283-.53-.19zm.68 1.48-.09-.2-.25-.54.07-.03.5-.23.35.71c-.167.057-.328.131-.48.22-.036.02-.069.043-.1.07zm11.56 9.77c1.176.001 2.129.954 2.13 2.13.003 1.174-.946 2.127-2.12 2.13-.003 0-.007 0-.01 0h-11.09c-1.176 0-2.13-.953-2.13-2.13 0-1.176.953-2.13 2.13-2.13zm-9.275-.83v-.88h7.462v.88zm11.465-1.65h-13.94v-.78h13.94zm-12.39-4.34v-1.08h.3.91 1.11v3.87h-2.32v-2.33zm12.39 2.79h-9.29v-3.51-.75c-.005-.213-.177-.385-.39-.39h-.41-1.48-.82c-.03-.002-.061.002-.09.01-.246.025-.465.166-.59.38-.055.105-.086.221-.09.34-.008.015-.012.033-.01.05v1.35 2.52h-.77v-3.92c.002-.077.008-.154.02-.23.023-.11.056-.217.1-.32.019-.052.043-.102.07-.15.044-.083.098-.16.16-.23.042-.06.092-.114.15-.16l.02-.02c.129-.111.274-.202.43-.27.051-.023.105-.039.16-.05.141-.049.29-.073.44-.07h.44 1.33 1 1.1v2.76c.002.187.153.338.34.34h2.757v2.319h.774v-2.319h.774v2.319h.774v-2.319h1.161c.029-.002.057-.002.086 0l.1.01c.994.089 1.755.922 1.754 1.92z"/><path d="m2.733 8.6c0 .226.184.41.41.41s.41-.184.41-.41-.184-.41-.41-.41-.41.184-.41.41z"/></g></svg>