<svg id="Layer_1" enable-background="new 0 0 24 24" height="512" viewBox="0 0 24 24" width="512" xmlns="http://www.w3.org/2000/svg"><g><path d="m6.215 10.712c-.221 0-.4.179-.4.4v.644c0 .221.179.4.4.4s.4-.179.4-.4v-.644c0-.221-.179-.4-.4-.4z"/><path d="m23.707 5.466-6.193-1.548c-.031-.007-.062-.011-.094-.011h-3.1v.009c-.026-.003-.051-.003-.077 0l-3.222.774c-.18.037-.31.196-.31.38v.387h-1.157c-.214 0-.387.173-.387.387v1.156h-.767v-.83c0-.442-.358-.8-.8-.8h-4.94c-.315-.003-.602.182-.73.47l-1.86 4.093c-.044.105-.068.217-.07.33v6.11c0 .442.358.8.8.8h.76c-.04.174-.06.352-.06.53 0 1.32 1.07 2.39 2.39 2.39s2.39-1.07 2.39-2.39c0-.178-.02-.356-.06-.53h6.231c-.04.174-.06.352-.06.53-.001 1.317 1.067 2.385 2.384 2.386s2.385-1.067 2.386-2.384v-.001-.001c0-.178-.021-.356-.062-.529h.122c-.04.174-.06.352-.06.53 0 1.317 1.068 2.385 2.385 2.385s2.385-1.068 2.385-2.385c0-.178-.02-.356-.06-.53h.68c.442 0 .8-.358.8-.8v-1.6c0-.442-.358-.8-.8-.8h-14.151v-3.874h.767v1.16c0 .214.173.387.387.387h1.161v.387c0 .184.13.343.31.38l3.222.774c.025.005.051.008.077.008h3.1c.032 0 .063-.004.094-.012l6.193-1.548c.171-.045.29-.199.289-.376v-5.418c0-.178-.121-.333-.293-.376zm-22.907 6.29h.732c.221 0 .4-.179.4-.4s-.179-.4-.4-.4h-.732v-.692l1.86-4.091h4.94v7.8h-6.8zm3.09 7.537c-.449.002-.878-.187-1.18-.52-.264-.295-.409-.677-.41-1.073-.004-.182.03-.362.1-.53.109-.335.337-.62.64-.8.583-.376 1.345-.323 1.87.13.211.161.37.38.46.63v.01c.073.178.11.368.11.56-.001.878-.712 1.591-1.59 1.593zm10.885 0c-.001 0-.003 0-.004 0-.875-.003-1.582-.715-1.58-1.59-.001-.04.002-.081.01-.12.01-.14.04-.279.09-.41.107-.334.335-.616.64-.79.01 0 .01-.01.02-.01.167-.11.354-.185.55-.22.09-.012.18-.018.27-.02h.03c.284.001.562.085.8.24.01 0 .01.01.02.01.161.089.301.212.41.36.102.128.18.274.23.43.042.106.072.217.09.33.008.066.012.133.01.2.001.877-.709 1.589-1.586 1.59zm6.356-1.59c0 .875-.709 1.585-1.585 1.585-.875 0-1.585-.709-1.585-1.585-.001-.04.002-.081.01-.12.01-.14.04-.279.09-.41.07-.217.194-.413.36-.57.082-.087.176-.161.28-.22.01 0 .01-.01.02-.01.167-.11.354-.185.55-.22.09-.012.18-.018.27-.02.294-.004.583.08.83.24.01 0 .01.01.02.01.305.174.533.456.64.79.068.167.102.346.1.527zm1.42-2.93v1.6h-1.04c-.731-1.088-2.205-1.377-3.293-.647-.177.119-.338.262-.477.424-.055.072-.106.146-.153.223h-.847c-.079-.122-.169-.236-.27-.34-.446-.459-1.06-.716-1.7-.71-.639-.001-1.252.255-1.7.71-.095.107-.182.221-.262.34h-6.939c-.442-.661-1.185-1.059-1.98-1.06-.438-.001-.867.121-1.24.35h-.01c-.287.18-.532.419-.72.7v.01h-1.12v-1.6zm-13.384-5.448h-.767v-1.548h.767zm1.548 1.548h-.774v-4.644h.774zm3.222 1.463-2.447-.619v-6.332l2.447-.619zm.774.086v-7.741h2.322l.004 7.741zm8.519-1.464-5.419 1.355v-7.524l5.419 1.355z"/><path d="m6.2 6.573h-2.467c-.24 0-.457.143-.552.364l-1.028 2.4c-.13.304.011.656.315.787.075.032.156.049.237.049h3.495c.331 0 .6-.269.6-.6v-2.4c0-.331-.269-.6-.6-.6zm-.2 2.8h-2.991l.859-2h2.132z"/><path d="m4.04 17.033c-.05 0-.1-.01-.15-.01-.154-.004-.304.049-.42.15-.166.125-.263.322-.26.53.004.376.311.677.687.673.375-.004.677-.311.673-.687-.003-.315-.223-.586-.53-.656z"/><path d="m14.771 17.023c-.153.001-.301.054-.42.15-.166.125-.263.322-.26.53-.004.377.299.686.676.69h.004c.381-.001.689-.309.69-.69.003-.208-.094-.405-.26-.53-.123-.095-.274-.148-.43-.15z"/><path d="m19.541 17.023c-.153.001-.301.054-.42.15-.166.125-.263.322-.26.53-.004.377.299.686.676.69h.004c.381-.001.689-.309.69-.69.003-.208-.094-.405-.26-.53-.123-.095-.274-.148-.43-.15z"/></g></svg>