<svg id="Layer_1" enable-background="new 0 0 24 24" height="512" viewBox="0 0 24 24" width="512" xmlns="http://www.w3.org/2000/svg"><g><path d="m3.218 12.571h-1.417c-.221 0-.4.179-.4.4s.179.4.4.4h1.418c.221 0 .4-.179.4-.4s-.18-.4-.401-.4z"/><path d="m3.218 11.262h-1.417c-.221 0-.4.179-.4.4s.179.4.4.4h1.418c.221 0 .4-.179.4-.4s-.18-.4-.401-.4z"/><path d="m3.218 9.953h-1.417c-.221 0-.4.179-.4.4s.179.4.4.4h1.418c.221 0 .4-.179.4-.4s-.18-.4-.401-.4z"/><path d="m23.433 3.971c-.002 0-.005 0-.007 0-.221 0-.4.179-.4.4v3.094h-1.173v-3.372c0-.012.007-.022.007-.035v-2.831c.019-.645-.489-1.184-1.134-1.203-.645-.019-1.184.489-1.203 1.134-.001.023-.001.046 0 .068v2.831c0 .013.007.023.008.036v4.19h-1.339l-1.747-6.291c-.145-.515-.615-.872-1.15-.874h-4.725c-.536.002-1.006.36-1.151.876l-1.745 6.29h-1.3v-6.869-.188c.019-.645-.489-1.184-1.134-1.203-.646-.019-1.185.489-1.204 1.134-.001.023-.001.046 0 .068v2.831c.002.025.007.051.015.075v2.032h-.392c-.103 0-.202.041-.274.114l-3.1 3.1c-.073.072-.113.17-.113.273v4.645c0 .214.173.387.387.387h3.487v.775h-.387c-.214 0-.387.173-.387.387v1.548c.001.06.016.119.044.172l.737 1.474c-1.23.853-1.535 2.542-.682 3.771.853 1.23 2.541 1.535 3.771.682s1.535-2.542.682-3.771c-.185-.266-.416-.497-.682-.682l.63-1.261h9.973l.63 1.261c-1.23.853-1.535 2.542-.682 3.771.853 1.23 2.542 1.535 3.771.682 1.23-.853 1.535-2.542.682-3.771-.185-.266-.416-.497-.682-.682l.63-1.261h.148c.214 0 .387-.173.387-.387v-1.549c0-.214-.173-.387-.387-.387h-.387v-7.19h1.172v3.211c0 .221.18.4.401.399.221 0 .399-.179.399-.399v-7.1c.003-.221-.174-.403-.394-.405zm-3.133.183c.011-.032.017-.066.019-.1l.006-2.827c0-.203.165-.368.368-.368s.368.165.368.368v2.831c.002.034.008.068.019.1v11.3h-.78zm-1.213 4.929h.447v2.874.3h-.447zm-.918 3.981h1.362v2.393h-2.262zm-1.653 2.125c-.059.155-.207.258-.373.258h-6.422c-.165-.001-.313-.103-.372-.258l-.8-2.126h.367 7.984.416zm-6.329-12.98c.047-.173.204-.293.383-.294h4.723c.179 0 .335.119.384.291l.14.5h-5.77zm-.361 1.3h6.21l1.326 4.775h-8.862zm-2.25 5.969c.003-.213.171-.386.383-.395h.96 7.981 1c.212.009.38.182.383.395v2.388c0 .221-.179.4-.4.4h-9.907c-.221 0-.4-.179-.4-.4zm-1.208-.395h.41v3.181h-.41zm0 3.981h1.332l.9 2.393h-2.232zm-1.548-8.949c.005-.017.008-.035.011-.053v-2.835c-.01-.204.146-.377.35-.388s.377.146.388.349c.001.013.001.026 0 .038v2.831c.001.044.01.088.026.13v11.268h-.775zm-1.161 9.792h-2.709v-4.1l2.87-2.87h.227v6.968zm3.872 7.355c.001 1.069-.866 1.936-1.935 1.937s-1.936-.866-1.937-1.935.866-1.936 1.935-1.937h.001c1.068.001 1.933.866 1.936 1.935zm-3.245-3.484h2.614l-.387.774h-1.841zm17.566 3.484c.001 1.069-.866 1.936-1.935 1.937s-1.936-.866-1.937-1.935.866-1.936 1.935-1.937h.002c1.068.001 1.934.867 1.935 1.935zm-3.243-3.484h2.618l-.387.774h-1.84zm3.243-.774h-17.806v-.774h17.806z"/><path d="m5.594 20.101c-.641 0-1.161.52-1.161 1.161s.52 1.161 1.161 1.161 1.161-.52 1.161-1.161c-.001-.641-.52-1.16-1.161-1.161zm0 1.548c-.214 0-.387-.173-.387-.387s.173-.387.387-.387.387.173.387.387c0 .213-.173.387-.387.387z"/><path d="m19.917 20.101c-.641 0-1.161.52-1.161 1.161s.52 1.161 1.161 1.161 1.161-.52 1.161-1.161c-.001-.641-.52-1.16-1.161-1.161zm0 1.548c-.214 0-.387-.173-.387-.387s.173-.387.387-.387.387.173.387.387c0 .213-.173.387-.387.387z"/></g></svg>