<svg id="Layer_1" enable-background="new 0 0 24 24" height="512" viewBox="0 0 24 24" width="512" xmlns="http://www.w3.org/2000/svg"><g><path d="m23.982 13.359v-7.661c0-.214-.173-.387-.387-.387h-15.845c-.214 0-.387.173-.387.387v7.885c0 .26.21.47.47.47h15.354v2.315h-.8c-.22-1.041-1.241-1.706-2.282-1.487-.746.157-1.329.741-1.487 1.487h-.391c-.218-1.04-1.239-1.707-2.279-1.489-.751.158-1.337.747-1.491 1.499h-8.108c-.214-1.041-1.232-1.711-2.272-1.497-.753.155-1.342.744-1.497 1.497h-1.798v-.754c.011.003.022.005.033.006h.682c.221 0 .4-.179.4-.4s-.179-.4-.4-.4h-.684c-.011.001-.022.003-.033.006v-1.369h1.17c.221 0 .4-.179.4-.4v-1.88l.46-.23h3c.212.003.387-.166.39-.378 0-.004 0-.008 0-.012v-2.71h1.16v-.77h-3.09c-1.068-.004-1.937.858-1.94 1.926v.004 1.31l-.87.44-.38.19c-.658.325-1.073.996-1.07 1.73v4.08c.001.211.173.381.384.38h.006 2.182c.213 1.041 1.229 1.712 2.27 1.5.755-.154 1.345-.744 1.5-1.5h8.11c.185.896.975 1.54 1.89 1.54.905.001 1.686-.634 1.87-1.52h.41c.218 1.036 1.234 1.698 2.269 1.481.744-.156 1.324-.737 1.481-1.481h1.209c.221 0 .4-.179.4-.4v-3.36c-.002-.016-.005-.032-.009-.048zm-20.872-4.342c.001-.64.52-1.159 1.16-1.16h1.16v2.32h-2.32zm-1.678 2.63.12-.06-.002 1.08h-.768c.012-.434.262-.825.65-1.02zm4.087 5.5c-.161.446-.586.743-1.06.74-.472.002-.894-.295-1.05-.74-.048-.121-.072-.25-.07-.38-.003-.133.021-.266.07-.39.212-.582.855-.883 1.438-.671.312.113.558.359.671.671.049.124.073.257.07.39.002.13-.021.259-.069.38zm10.83.74c-.621.003-1.127-.499-1.13-1.12s.499-1.127 1.12-1.13 1.127.499 1.13 1.12c.002.621-.499 1.126-1.12 1.13zm5.282-1.119c-.003.618-.504 1.118-1.122 1.119-.618-.003-1.12-.501-1.128-1.119v-.011c0-.621.504-1.125 1.125-1.125s1.125.504 1.125 1.125zm1.575-3.491h-1.549-13.519v-5.807-1.387h15.068z"/><path d="m5.096 11.567c-.221 0-.4.179-.4.4s.179.4.4.4h.548c.221 0 .4-.179.4-.4s-.179-.4-.4-.4z"/><path d="m10.253 12.698c.221 0 .4-.179.4-.4v-5.231c0-.221-.179-.4-.4-.4s-.4.179-.4.4v5.231c.001.221.18.4.4.4z"/><path d="m12.424 12.698c.221 0 .4-.179.4-.4v-5.231c0-.221-.179-.4-.4-.4s-.4.179-.4.4v5.231c0 .221.179.4.4.4z"/><path d="m14.594 12.698c.221 0 .4-.179.4-.4v-5.231c0-.221-.179-.4-.4-.4s-.4.179-.4.4v5.231c.001.221.18.4.4.4z"/><path d="m16.765 12.697c.22 0 .399-.179.399-.399v-5.231c0-.221-.179-.4-.4-.4s-.4.179-.4.4v5.231c.001.221.18.4.401.399z"/><path d="m18.935 12.697c.22 0 .399-.179.399-.399v-5.231c0-.221-.179-.4-.4-.4s-.4.179-.4.4v5.231c.001.221.18.4.401.399z"/><path d="m21.105 12.697c.221 0 .399-.179.399-.399v-5.231c0-.221-.179-.4-.4-.4s-.4.179-.4.4v5.231c.001.221.18.4.401.399z"/></g></svg>