<svg id="Layer_1" enable-background="new 0 0 24 24" height="512" viewBox="0 0 24 24" width="512" xmlns="http://www.w3.org/2000/svg"><g><path d="m4.167 11.944c0 .189.113.36.287.434.058.025.121.038.185.038.261 0 .472-.211.472-.472s-.211-.472-.472-.472c-.26 0-.472.211-.472.472z"/><path d="m22.963 4.264-8.072-4.228c-.094-.043-.202-.049-.3-.016v-.011l-12.015 4.265c-.054.018-.104.048-.146.088l-2.323 2.327c-.151.151-.151.396 0 .547.072.073.171.114.274.114h2.919l.216 1.754c.029.199.199.348.4.35h.33v.359c-.844.188-1.446.935-1.45 1.8v2.1c0 .221.179.4.4.4h1.05v.335c-.93.216-1.507 1.146-1.291 2.075s1.145 1.507 2.075 1.291c.783-.182 1.337-.881 1.336-1.686 0-.221-.179-.4-.4-.4s-.4.179-.4.4c-.003.511-.419.923-.93.92s-.923-.419-.92-.93c.003-.507.413-.917.92-.92.108-.003.211-.046.29-.12.075-.074.118-.174.12-.28v-.685h1.04c.221 0 .4-.179.4-.4v-2.1c-.001-.861-.599-1.605-1.44-1.79v-.367h.31c.203.002.375-.149.4-.35l.215-1.756h5.329c-.046.124-.071.255-.072.387-.002.642.517 1.164 1.159 1.167h.388v8.9 3.873h-.44c-.166 0-.332 0-.5 0-.141-.014-.284-.007-.423.021-.21.079-.19.436-.19.616v1.3c.001.214.174.387.388.387h6.2c.214 0 .387-.173.387-.387v-1.486c.01-.164-.074-.319-.217-.4-.136-.048-.282-.063-.425-.045-.156 0-.313 0-.469 0h-.438v-3.872c0-.006 0-.012 0-.017v-8.89h.387c.636.006 1.156-.504 1.162-1.14.001-.14-.023-.278-.071-.409h3.556v1.157c.001.214.174.387.388.387h1.549c.214 0 .387-.173.387-.387v-3.098c-.001-.594-.452-1.091-1.043-1.15zm-10.176-1.174c-.384.282-.65.696-.748 1.162h-3.2l3.936-1.389v.227zm-.012 3.098h3.1c.212-.001.383-.172.385-.384l.004-.003v-2.324h.388v3.065l-.034.034h-3.843zm2.325-4.705.775.968v.253h-.775zm.388 1.994v1.937h-2.713v-.775c.001-.641.521-1.161 1.162-1.162zm-1.164-.773h-.387c-.13 0-.26.013-.388.039v-.292l.775-.968zm-.764-1.5-.631.789-6.417 2.259h-1.558zm-11.031 5.372h-1.213l1.363-1.363.2-.187h1.2zm2.852 4.296c.198.196.308.464.305.743v1.7h-2.086v-1.7c.006-.048.016-.096.03-.143.066-.509.496-.893 1.01-.9.277-.002.544.106.741.3zm-.366-2.285-.009.069h-.735l-.161-1.306h1.06zm-.125-2.011h-1.231l1.541-1.537v-.013h1.24zm1.131 0 1.537-1.537.009-.013h1.233l-1.547 1.55zm3.32 0h-.957l1.536-1.537.009-.013h1.236l-1.55 1.55zm2.659 0h-.44-.814l1.254-1.254zm5.422 15.879v.774h-5.422v-.774zm-2.13-2.394-1.742 1.025v-2.006zm-1.153-1.568 1.734-1v1.972zm1.736 2.153v1.034h-.002-1.756zm-1.736-5.33 1.734-.971v1.973zm0-3.172 1.734-.946v1.345.625zm1.734-2.697v.574l-1.849-1.117h1.849zm-.581 1.157-1.742.949v-.878-1.129zm0 3.152-1.742.975v-.958l-.001-.001v-1.048zm0 3.148-1.742 1v-1.032h-.001v-.968zm1.743-8.779h-4.648c-.214-.011-.379-.193-.368-.407.01-.199.169-.358.368-.368h4.648c.214.011.379.193.368.407-.01.199-.169.358-.368.368zm.827-1.549h-.116l1.537-1.537.009-.013h.872l-1.55 1.55zm-.44-.808v-.742h.742zm3.099.808h-.775l.775-.774zm-3.099-2.324v-1.162c0-.214-.173-.387-.387-.387h-.387v-.388c0-.088-.03-.173-.085-.242l-.4-.495 5.107 2.674zm5.81 3.873h-.775v-1.162c0-.214-.173-.387-.387-.387h-.77v-1.55h1.549c.214 0 .388.174.388.388z"/></g></svg>