<svg id="Layer_1" enable-background="new 0 0 24 24" height="512" viewBox="0 0 24 24" width="512" xmlns="http://www.w3.org/2000/svg"><g><path d="m12 13.376h4.645c.214 0 .387-.173.387-.387v-3.871c0-.214-.173-.387-.387-.387h-3.484c-.147 0-.282.083-.348.214l-1.161 2.323c-.027.054-.04.113-.039.173v1.548c0 .214.173.387.387.387zm.387-1.844 1.013-2.026h2.857v3.1h-3.87z"/><path d="m19.537 18.499c0 .828.672 1.5 1.5 1.5s1.5-.672 1.5-1.5-.672-1.5-1.5-1.5c-.827.004-1.497.673-1.5 1.5zm2.179 0c.001.374-.303.678-.677.679s-.678-.303-.679-.677c0-.001 0-.001 0-.002.002-.374.307-.677.681-.675l-.004-.002c.374 0 .678.303.679.677z"/><path d="m9.951 16.999c-.828 0-1.5.672-1.5 1.5s.672 1.5 1.5 1.5 1.5-.672 1.5-1.5c-.003-.827-.673-1.496-1.5-1.5zm.677 1.504c-.002.373-.304.675-.677.676v.002c-.374.001-.678-.303-.679-.677s.303-.678.677-.679.678.303.679.678z"/><path d="m17.344 16.999c-.828 0-1.5.672-1.5 1.5s.672 1.5 1.5 1.5 1.5-.672 1.5-1.5c-.003-.827-.673-1.496-1.5-1.5zm0 2.18v.002c-.374 0-.678-.304-.678-.678s.304-.678.678-.678.678.304.678.678c-.001.374-.304.676-.678.676z"/><path d="m13.647 16.999c-.828 0-1.5.672-1.5 1.5s.672 1.5 1.5 1.5 1.5-.672 1.5-1.5c-.003-.827-.673-1.496-1.5-1.5zm0 2.18v.002c-.374 0-.678-.304-.678-.678s.304-.678.678-.678.678.304.678.678c-.001.374-.304.676-.678.676z"/><path d="m16.562 14.137h-1.021c-.221 0-.4.179-.4.4s.179.4.4.4h1.021c.221 0 .4-.179.4-.4 0-.22-.179-.4-.4-.4z"/><path d="m23.613 7.957c.214 0 .387-.173.387-.386v-3.872c0-.214-.173-.387-.387-.387h-21.29v-.387c-.001-.213-.174-.387-.388-.387h-1.548c-.214 0-.387.174-.387.387v3.875c0 .214.173.387.387.387h.387v4.645h-.387c-.213 0-.385.171-.387.384v1.549c0 .214.173.387.387.387h1.536v.833c-.853.22-1.366 1.09-1.145 1.943.22.853 1.09 1.366 1.943 1.145.704-.182 1.196-.817 1.196-1.545 0-.221-.179-.4-.4-.4s-.4.179-.4.4c.001.439-.355.795-.794.796s-.795-.354-.796-.794c-.001-.439.355-.795.794-.796h.002c.221 0 .4-.179.4-.4v-1.183h1.535c.214 0 .387-.173.387-.387v-1.549c0-.214-.173-.387-.387-.387h-.387v-5.418h16.258v1.161c0 .214.173.387.387.387h.384v2.323h-.387c-.214 0-.387.173-.387.387v.387h-1.545v-3.484c0-.214-.173-.387-.387-.387h-6.194c-.153 0-.292.09-.354.23l-1.438 3.237-.143.951v1.692h-.638v-1.533c-.001-.862-.699-1.56-1.561-1.561-.221 0-.4.179-.4.4s.179.4.4.4c.42.001.76.341.76.761v1.533h-.445c-.221 0-.4.179-.4.4v2.813c-1.109 1.191-1.042 3.056.149 4.165.549.511 1.271.793 2.021.79h11.088c1.628.007 2.953-1.307 2.96-2.936.005-1.088-.59-2.09-1.547-2.606v-.993h1.161c.214 0 .387-.173.387-.387v-.001-3.871c0-.214-.173-.387-.387-.387h-.387v-2.324zm-22.839-4.644h.774v.387c0 .214.173.387.387.387h1.165v1.549h-1.165c-.214 0-.387.173-.387.387v.387h-.774zm2.326 3.097v5.419h-1.552v-4.646h.387c.213 0 .386-.171.388-.384v-.389zm.774 6.19v.777h-3.1v-.777zm-.003-6.964v-1.549h.229l1.546 1.549zm2.87 0-1.548-1.549h1.227l1.549 1.549zm2.322 0-1.548-1.549h1.228l1.548 1.549zm2.323 0-1.548-1.549h1.228l1.548 1.549zm2.323 0-1.549-1.549h1.228l1.549 1.549zm2.322 0-1.548-1.549h1.228l1.548 1.549zm2.323 0-1.549-1.549h1.228l1.549 1.549zm2.322 0-1.548-1.549h1.228l1.544 1.549zm1.001 4.644v-2.323h.775v2.323zm.226.774-1 1v-1zm-1.003-3.871v-.773h2.323v.774h-2.323zm-.771 6.193v1.162c0 .214.173.387.387.387h1.161v.692c-.209-.048-.423-.073-.638-.074v-.002h-2.458v-2.165zm-.004-1.547v.771h-1.544l-.004-.771zm-7.878-3.872h5.555v7.586h-6.189v-1.005c0-.103-.041-.201-.113-.274l-.661-.661-.004-2.467zm-3.666 6.14.429-.004c.011.005.023.005.034 0h1.189l.606.606v.845h-.887c-.479.003-.95.125-1.371.353zm14.592 4.402c-.002 1.178-.956 2.132-2.134 2.133h-11.087c-1.178.026-2.153-.909-2.179-2.086s.909-2.153 2.086-2.179c.031-.001.062-.001.092 0h11.087c1.178.002 2.133.955 2.135 2.132zm.053-4.35h-1l1-1zm.001-3.099-.001 1-2.1 2.1h-.226v-1l2.1-2.1zm-.227-5.414-1.549-1.549h1.778v1.549z"/></g></svg>