<svg id="Layer_1" enable-background="new 0 0 24 24" height="512" viewBox="0 0 24 24" width="512" xmlns="http://www.w3.org/2000/svg"><g><path d="m5.644 14.144h-.545c-.017.002-.034.006-.051.011-.215.022-.372.214-.35.43.019.185.165.332.35.35.017.004.034.008.051.01h.548c.055 0 .11-.011.16-.034.146-.063.241-.207.241-.366-.001-.046-.01-.091-.027-.133-.056-.161-.207-.268-.377-.268z"/><path d="m23.591 15.177c-.001 0-.001 0-.002 0-.221 0-.4.179-.4.4v.129h-7.8v-1.172h1.694c.607 0 1.1-.492 1.1-1.1v-3.23c1.213-.141 2.132-1.162 2.144-2.383-.001-.547-.196-1.077-.55-1.494l2.1-2.039v4.139h-.436c-.229.011-.406.206-.395.436.01.214.181.385.395.395h.4v2.07c.014.224.192.402.416.416.437-.008.799.339.809.776.014.414-.31.761-.724.775-.017.001-.034.001-.051 0-.22.006-.432-.08-.586-.238-.141-.155-.21-.363-.19-.572-.011-.229-.206-.406-.436-.395-.214.01-.385.181-.395.395-.019.888.686 1.623 1.574 1.642h.033c.896.018 1.637-.694 1.655-1.59.015-.761-.5-1.431-1.24-1.61v-1.7h.4c.23 0 .416-.187.416-.416s-.186-.415-.416-.416h-.4v-5.1c.002-.166-.099-.316-.253-.377-.154-.068-.333-.036-.454.081l-2.885 2.785c-.363-.23-.785-.353-1.215-.353-1.19-.003-2.203.865-2.38 2.042h-5.656c-.592-.015-1.085.453-1.1 1.045v.055 4.868c-.016.592.451 1.084 1.043 1.1h.057 1.661v1.172h-3.386v-5.814-2.177c0-.214-.173-.387-.387-.387s-.387.173-.387.387v8.288c0 .26.21.47.47.47h15.354v2.319h-.8c-.218-1.041-1.239-1.707-2.279-1.489-.748.157-1.332.741-1.489 1.489h-.389c-.217-1.04-1.236-1.708-2.276-1.491-.753.157-1.34.747-1.493 1.501h-8.113c-.213-1.041-1.229-1.712-2.27-1.5-.755.154-1.345.745-1.5 1.5h-1.8v-.76c.012 0 .022.007.034.007h.686c.221 0 .4-.18.399-.401 0-.221-.179-.399-.399-.399h-.686c-.012 0-.022.006-.034.007v-2.148c.001-.442.253-.845.65-1.04l1.38-.69h3.005c.212.003.387-.166.39-.378 0-.004 0-.008 0-.012v-2.71h1.157v-.77h-3.092c-1.068-.004-1.936.858-1.94 1.926v.004 1.31l-1.25.63c-.658.325-1.073.996-1.07 1.73v4.084c.001.211.173.381.384.38h.006.092 2.088c.213 1.041 1.229 1.712 2.27 1.5.755-.154 1.345-.744 1.5-1.5h8.114c.214 1.041 1.231 1.713 2.273 1.499.747-.153 1.333-.733 1.494-1.478h.4c.225 1.039 1.249 1.698 2.287 1.474.738-.16 1.314-.736 1.474-1.474h1.2c.221 0 .4-.179.4-.4v-3.623c0-.221-.179-.4-.4-.4zm-7.285-7.356c0-.861.698-1.559 1.559-1.559s1.559.698 1.559 1.559-.698 1.559-1.559 1.559h-.001c-.861-.001-1.558-.698-1.559-1.559zm-2.452.518h1.667c.199.9.894 1.608 1.791 1.822v3.277c.012.135-.088.253-.223.265-.014.001-.028.001-.042 0h-.075v.034h-3.118zm-4.255.231c.012-.141.124-.253.265-.265h3.159v2.981h-3.424zm.264 5.129c-.135.011-.254-.09-.265-.225-.001-.013-.001-.026 0-.04v-1.317h3.424v1.582zm4.693 2.007h-2.2v-1.172h2.2zm-11.447-4.261c.024-.631.529-1.136 1.16-1.16h1.165v2.32h-2.325zm2.41 8.13c-.161.446-.586.743-1.06.74-.472.002-.893-.295-1.05-.74-.048-.121-.072-.25-.07-.38-.003-.133.021-.266.07-.39.161-.442.58-.736 1.05-.74.473.003.894.297 1.06.74.049.124.073.257.07.39.002.13-.022.259-.07.38zm11.955-.384c-.002.62-.504 1.122-1.124 1.123v.001c-.621.001-1.125-.503-1.126-1.124s.503-1.125 1.124-1.126 1.125.503 1.126 1.124zm4.157 0c-.001.62-.504 1.122-1.124 1.123v.001c-.621.001-1.125-.503-1.126-1.124s.503-1.125 1.124-1.126 1.125.503 1.126 1.124z"/><path d="m10.97 12.495h-.579c-.234-.014-.435.163-.449.397 0 .006-.001.012-.001.018-.009.221.163.407.383.416h.033.613c.229-.011.406-.206.395-.436-.01-.214-.181-.385-.395-.395z"/></g></svg>