<svg id="Layer_1" enable-background="new 0 0 24 24" height="512" viewBox="0 0 24 24" width="512" xmlns="http://www.w3.org/2000/svg"><g><path d="m5.545 11.203h1.23c.221 0 .4-.179.4-.4s-.179-.4-.4-.4h-1.23c-.221 0-.4.179-.4.4s.179.4.4.4z"/><path d="m23.915 3.434c-.078-.101-.198-.161-.326-.161h-13.932l-.151-.333c-.067-.147-.213-.242-.374-.242h-6.9c-.227 0-.411.184-.411.411s.184.411.411.411h6.635l4.189 9.219h-1.023l-3.792-8.293c-.065-.143-.207-.234-.364-.234h-1.821c-.019.002-.038.006-.056.011h-2.516c-1.068.001-1.934.867-1.936 1.935v2.749c-.9.185-1.547.978-1.548 1.897v3.1c0 .103.041.201.113.274l2.253 2.252c-.028.189-.042.38-.043.571-.01 2.352 1.888 4.266 4.239 4.277 2.216.01 4.069-1.682 4.261-3.89h3.135c.19 2.344 2.244 4.09 4.588 3.9s4.09-2.244 3.9-4.588c-.128-1.573-1.115-2.947-2.565-3.569-.701-.299-1.466-.414-2.224-.337-.151.016-.301.04-.45.073-.221.054-.437.128-.645.22-.073.031-.148.059-.22.094-.227.108-.443.236-.647.383l-.708-.708c-.039-.038-.086-.068-.137-.086l.15-.091.831-.444.946-.506 1.01-.54 1.024-.547.987-.527.9-.481.761-.406.572-.306.2-.107c.126-.056.245-.125.356-.206.152-.178.246-.398.271-.63l.237-.879.294-1.094.289-1.073c.074-.272.147-.545.22-.817l.088-.325c.033-.124.007-.256-.071-.357zm-21.592 3.112h4.341v2.322h-4.341zm0 8.743-.775-.775-.376-.376h.816c.221 0 .4-.179.4-.4s-.179-.4-.4-.4h-1.214v-.559h2.214c.221 0 .4-.179.4-.4s-.179-.4-.4-.4h-2.214v-1.562c0-.472.671-.773 1.161-.775h5.116c.214 0 .387-.173.387-.387v-3.1c0-.214-.173-.387-.387-.387h-4.657c.163-.462.6-.772 1.09-.774h2.5c.024.007.049.013.074.015h1.563l3.533 7.727h-1.089c-.103 0-.201.041-.274.113l-.707.708c-.405-.296-.86-.518-1.342-.656l-.774-.145c-.128-.012-.257-.02-.387-.02-1.791.002-3.39 1.125-4 2.809zm4.258 5.19c-1.924 0-3.484-1.56-3.484-3.484s1.56-3.484 3.484-3.484 3.484 1.56 3.484 3.484-1.56 3.484-3.484 3.484zm5.419-3.869h-1.181c-.087-.952-.493-1.846-1.152-2.539l.558-.558h1.775zm6.136-3.096h.031v-.004c1.933-.009 3.508 1.55 3.517 3.483s-1.55 3.508-3.483 3.517-3.508-1.55-3.517-3.483c0-.002 0-.005 0-.007-.015-1.921 1.531-3.491 3.452-3.506zm-3.028.553c-.66.692-1.066 1.587-1.153 2.539h-1.181v-3.1h1.775zm6.9-6.109-.2.109-1.459-3.238c-.085-.211-.324-.313-.535-.228s-.313.324-.228.535c.004.011.009.022.015.032l1.5 3.3-1.337.745-1.97-4.387c-.088-.209-.329-.307-.538-.219s-.307.329-.219.538c.003.006.006.013.009.019l2 4.45-1.322.736-2.494-5.52c-.088-.209-.329-.307-.538-.219s-.307.329-.219.538c.003.006.006.013.009.019l2.518 5.588-1.307.728-3.038-6.655c-.103-.203-.35-.284-.552-.181-.19.096-.275.322-.196.52l3.063 6.717-1.117.622-3.824-8.412h13.024z"/><path d="m6.581 14.287c-1.497-.001-2.71 1.212-2.711 2.709s1.212 2.71 2.709 2.711 2.71-1.212 2.711-2.709v-.001c0-1.496-1.213-2.71-2.709-2.71zm1.935 2.71c0 1.069-.866 1.935-1.935 1.936s-1.936-.866-1.937-1.935.866-1.936 1.935-1.937 1.936.866 1.937 1.936c0-.001 0 0 0 0z"/><path d="m18.192 19.707h.002c1.497 0 2.71-1.213 2.71-2.71s-1.213-2.71-2.71-2.71-2.71 1.213-2.71 2.71c-.001 1.496 1.212 2.709 2.708 2.71zm-1.934-2.71c0-1.069.866-1.935 1.935-1.935h.001c1.069 0 1.936.867 1.936 1.936s-.867 1.936-1.936 1.936-1.936-.867-1.936-1.937z"/></g></svg>