<svg id="Layer_1" enable-background="new 0 0 24 24" height="512" viewBox="0 0 24 24" width="512" xmlns="http://www.w3.org/2000/svg"><g><path d="m21.039 17.984c-.831 0-1.505.674-1.505 1.505s.674 1.505 1.505 1.505 1.505-.674 1.505-1.505-.673-1.505-1.505-1.505zm0 2.18c-.376 0-.68-.304-.68-.68.002-.376.304-.68.68-.684v.004c.376 0 .68.304.68.68s-.304.68-.68.68z"/><path d="m9.949 17.984c-.633-.002-1.197.4-1.4 1-.069.158-.103.328-.1.5 0 .828.672 1.5 1.5 1.5s1.5-.672 1.5-1.5-.671-1.5-1.5-1.5zm0 2.18c-.376 0-.68-.304-.68-.68s.304-.68.68-.68c.375.001.679.305.68.68 0 .375-.304.68-.68.68z"/><path d="m17.339 17.984c-.831 0-1.505.674-1.505 1.505s.674 1.505 1.505 1.505 1.505-.674 1.505-1.505-.673-1.505-1.505-1.505zm0 2.18c-.376 0-.68-.304-.68-.68s.304-.68.68-.68.68.304.68.68-.304.68-.68.68z"/><path d="m13.639 17.984c-.827.003-1.497.673-1.5 1.5-.002.832.672 1.508 1.504 1.51h.006c.831-.003 1.503-.679 1.5-1.51s-.678-1.503-1.51-1.5zm.01 2.18c-.376 0-.68-.304-.68-.68s.304-.68.68-.68.68.304.68.68-.304.68-.68.68z"/><path d="m21.04 16.524h-.001-1.012v-.88h3.582c.212.003.387-.166.39-.378 0-.004 0-.008 0-.012v-2.32c-.005-1.344-.991-2.483-2.32-2.68h-.133v-1.692c0-.42.341-.761.761-.761.221 0 .4-.179.4-.4s-.179-.4-.4-.4c-.862.001-1.56.699-1.562 1.561v1.662h-.616v-1.16c0-.215-.175-.39-.39-.39h-3.09c-.215 0-.39.175-.39.39v1.16h-.78v-2.66c.007-.23-.174-.423-.404-.43-.002 0-.004 0-.006 0h-.36c-.157-.008-.34-.009-.532-.01l-6.258-4.34c-.217-.592-.779-.987-1.41-.99-.143.002-.284.026-.42.07l-1.07-.28c-.226-.06-.466-.02-.66.11-.197.116-.338.307-.39.53l-2.99 11.76-.72 1.39c-.08.157-.143.321-.19.49-.167.677-.029 1.394.38 1.96.441.588 1.135.93 1.87.92.37-.001.735-.083 1.07-.24l2.02-.91c.405-.183.585-.66.401-1.065-.099-.219-.29-.382-.521-.445-.011.001-.022-.002-.03-.01-.02 0-.04-.01-.06-.01-.395-.014-.78-.128-1.12-.33l-1.42-1.07 2.01-4.99c.2-.51.37-1.03.53-1.56l1.48 4.03c.022.067.064.127.12.17l1.72 1.386.77.63v-.236h.98 12.96v.78h-12-1.27-.67v-.54l-.77-.63v1.55c-.004.211.163.385.374.39h.006 2.01l.06.05v.83h-1.02c-1.635 0-2.96 1.326-2.959 2.961 0 1.634 1.325 2.959 2.959 2.96h11.09c1.635 0 2.96-1.325 2.961-2.96 0-1.636-1.325-2.961-2.96-2.961zm-4.011-7.07h2.32v.77h-2.32zm-9.08-5.73 4.63 3.409c-.453.006-.9.016-1.29.031l-3.75-2.77c.193-.185.334-.415.41-.67zm1.09 4.3c-.059.076-.112.156-.16.24-.157.244-.265.515-.32.8-.029.128-.043.259-.04.39v1l.18.36-.18-.36-2.57-5.2.13-.51c.139.044.284.067.43.07.074-.002.147-.009.22-.02l1.79 1.33 1.58 1.16c-.182.056-.356.133-.52.23-.075.043-.145.093-.21.15-.087.069-.167.146-.24.23-.032.041-.062.085-.09.13zm-2.53-5.43c.392 0 .71.318.71.71s-.318.71-.71.71-.71-.318-.71-.71c.002-.392.319-.709.71-.71zm-2.91 13.78c.438.289.946.454 1.47.48l-2.01.92c-.669.336-1.482.166-1.96-.41-.354-.469-.404-1.1-.13-1.62l.5-.97.46.35h.02zm1.01-9.09c-.181.711-.409 1.409-.68 2.09l-1.93 4.8-.21-.16 2.96-11.59c0-.01.08-.06.08-.07l.42.12c-.373.561-.324 1.303.12 1.81zm2.78 4.48-1.83-4.98.09-.34 2.38 4.84c.041.071.099.129.17.17l.32.18v1.05zm5.77 1.56h-1.24-.36-.72v-.4-.91-2.56h2.32zm.78-.004v-4.256c-.005-.213-.177-.385-.39-.39h-2.71c-.41-.001-.749.32-.77.73-.008.015-.012.033-.01.05v2.12.92.83h-.74l-.03-.02v-1.24-.92-1.744c.02-.605.391-1.143.95-1.376.189-.082.394-.123.6-.12h.1.98v-.004h2.79v2.76c.002.187.153.338.34.34h2.757v2.318h.774v-2.318h.774v2.318h.774v-2.318h1.161.085l.1.01c.994.089 1.756.922 1.756 1.92v.39zm-2.17 2.564v-.24h.15 7.307v.88h-7.457zm9.28 5.73c-.003 0-.007 0-.01 0h-11.09c-1.176 0-2.13-.954-2.13-2.13s.954-2.13 2.13-2.13h11.09c1.176.001 2.129.954 2.13 2.13.003 1.173-.946 2.127-2.12 2.13z"/></g></svg>