<svg id="Layer_1" enable-background="new 0 0 24 24" height="512" viewBox="0 0 24 24" width="512" xmlns="http://www.w3.org/2000/svg"><g><path d="m20.615 19.546c-.828 0-1.5.672-1.5 1.5.003.827.673 1.497 1.5 1.5.828 0 1.5-.672 1.5-1.5s-.671-1.5-1.5-1.5zm.002 2.174c-.374.001-.678-.303-.679-.677 0-.001 0-.001 0-.002.001-.374.303-.676.677-.677s.678.303.679.677-.302.678-.677.679z"/><path d="m9.52 19.541c-.827.003-1.497.673-1.5 1.5 0 .828.672 1.5 1.5 1.5s1.5-.672 1.5-1.5-.671-1.5-1.5-1.5zm.005 2.179c-.374.001-.678-.303-.679-.677s.303-.678.677-.679h.001c.374.001.677.303.678.677s-.302.678-.677.679z"/><path d="m16.918 19.546c-.828 0-1.5.672-1.5 1.5.003.827.673 1.497 1.5 1.5.828 0 1.5-.672 1.5-1.5s-.671-1.5-1.5-1.5zm0 2.174c-.374 0-.678-.304-.678-.678v-.001c.001-.374.304-.677.678-.677s.678.304.678.678-.303.678-.678.678z"/><path d="m13.221 19.546c-.828 0-1.5.672-1.5 1.5.003.827.673 1.497 1.5 1.5.828 0 1.5-.672 1.5-1.5s-.671-1.5-1.5-1.5zm.002 2.174c-.374.001-.678-.303-.679-.677 0-.001 0-.001 0-.002.001-.374.303-.676.677-.677s.678.303.679.677-.302.678-.677.679z"/><path d="m20.722 18.083c-.036-.001-.073-.001-.109 0h-1.012v-.883h3.583c.212.003.387-.166.39-.378 0-.004 0-.008 0-.012v-2.32c-.005-1.344-.991-2.483-2.32-2.68l-.133-.005v-1.687c0-.42.34-.76.76-.761.221 0 .4-.179.4-.4s-.179-.4-.4-.4c-.861.002-1.559.7-1.561 1.561v1.662h-.616v-1.16c0-.215-.175-.39-.39-.39h-3.09c-.215 0-.39.175-.39.39v1.16h-.78v-2.66c.007-.23-.174-.423-.404-.43-.002 0-.004 0-.006 0-.28 0-.68-.01-1.13-.01-.653 0-1.411.006-2.088.021l-.001-.001-5.111-5.08c.279-.383.43-.846.43-1.32.006-1.265-1.016-2.295-2.281-2.3-.952-.004-1.808.581-2.149 1.47-.676.258-1.125.906-1.13 1.63l.6 11.48h-.57c-.221 0-.4.179-.4.4v1.49c-.001.16.093.306.24.37l-.43.83c-.073.148-.133.302-.18.46-.169.676-.034 1.392.37 1.96.439.583 1.13.921 1.86.91.366.002.728-.077 1.06-.23l2-.9c.308-.141.493-.462.46-.8-.024-.333-.257-.615-.58-.7-.005-.006-.012-.009-.02-.01-.022-.008-.046-.012-.07-.01-.391-.017-.773-.131-1.11-.33l-1.53-1.15h1.85c.221 0 .4-.179.4-.4v-1.49c0-.221-.179-.4-.4-.4h-.573l.36-6.84 3.57 3.57v5.5c-.004.211.163.385.374.39h.006 2.065v.883h-1.01c-1.634-.03-2.983 1.27-3.013 2.904s1.271 2.983 2.904 3.013c.036.001.073.001.109 0h11.087c1.634.03 2.983-1.27 3.013-2.904s-1.27-2.983-2.904-3.013zm-4.118-7.073h2.32v.77h-2.32zm-6.28-2.26c-.212.008-.423.035-.63.08-.09.034-.178.073-.263.117l.53.529c-.003 0-.003.003-.006.003l-.524-.532-.007-.007-4.44-4.42c.273-.063.531-.179.76-.34zm-.995 1.152c-.015.013-.031.024-.045.038l-.001-.001c.014-.014.031-.024.046-.037zm-7.155-7.382c.094.957.778 1.753 1.71 1.99l-.53 10.07h-.77l-.6-11.5c0-.202.067-.399.19-.56zm1.76 16.14c.436.285.94.451 1.46.48l-1.99.9c-.665.333-1.472.158-1.94-.42-.269-.369-.36-.837-.25-1.28.028-.104.068-.205.12-.3l.5-.96.42.32.03.03zm.39-3.28v.69h-2.71v-.69zm.12-11.59c-.828 0-1.5-.672-1.5-1.5s.672-1.5 1.5-1.5 1.5.672 1.5 1.5-.671 1.5-1.5 1.5zm.13 2.88.07-1.35 2.91 2.9 1.16 1.14.04.04c-.015.017-.035.032-.05.049-.032.042-.062.085-.09.13-.059.076-.113.156-.16.24-.093.152-.169.314-.227.482l-.001-.001zm3.866 3.846.424.423v.02c.014-.428.207-.83.531-1.11.004-.003.008-.007.012-.01.019-.016.036-.032.056-.047.107-.085.224-.156.35-.209.005-.003.007-.007.012-.01.187-.079.387-.12.59-.117h.625l.004.004h.22l.006-.004h3.015v2.76c.002.187.153.338.34.34h2.756v2.319h.774v-2.315h.775v2.319h.774v-2.319h1.157c1.068-.004 1.936.858 1.94 1.926v.004.39h-13.94v-2.8-1.12-.02zm.421 5.914v-.78h13.94v.78zm9.939.77-.003.883h-7.458v-.883zm3.944 3.841c-.002 1.178-.956 2.132-2.134 2.133h-11.084c-1.178.026-2.153-.909-2.179-2.086-.025-1.178.909-2.153 2.086-2.179.031-.001.062-.001.092 0h11.087c1.177.001 2.132.955 2.134 2.132z"/><path d="m10.413 11.008h2.322v3.871h.774v-4.258c0-.214-.173-.387-.387-.387h-2.709c-.427-.001-.774.346-.775.773v.001 3.871h.775z"/></g></svg>