<svg id="Layer_1" enable-background="new 0 0 24 24" height="512" viewBox="0 0 24 24" width="512" xmlns="http://www.w3.org/2000/svg"><g><path d="m20.459 22.458c.851 0 1.541-.69 1.541-1.541s-.69-1.541-1.541-1.541-1.541.69-1.541 1.541c.001.851.69 1.541 1.541 1.541zm-.693-1.54c.001-.383.31-.692.693-.693s.694.31.695.693-.31.694-.693.695-.694-.31-.695-.693c0-.001 0-.002 0-.002z"/><path d="m9.102 19.378c-.85.001-1.54.69-1.541 1.54-.001.851.689 1.541 1.54 1.542s1.541-.689 1.542-1.54c.001-.852-.689-1.542-1.541-1.542zm.695 1.54h-.002c.001.383-.31.694-.693.695s-.694-.31-.695-.693.31-.694.693-.695h.002c.383-.001.695.309.695.693z"/><path d="m16.673 22.458c.851.001 1.541-.689 1.542-1.54s-.689-1.541-1.54-1.542-1.541.689-1.542 1.54v.001c.001.851.69 1.54 1.54 1.541zm-.694-1.54c.001-.383.311-.693.694-.693s.694.311.694.694-.311.694-.694.694-.694-.311-.694-.695z"/><path d="m12.887 22.458c.851.001 1.541-.689 1.542-1.54s-.689-1.541-1.54-1.542-1.541.689-1.542 1.54v.001c.001.851.69 1.54 1.54 1.541zm-.693-1.54c.001-.383.31-.692.693-.693s.694.31.695.693-.31.694-.693.695-.694-.31-.695-.693c0-.001 0-.002 0-.002z"/><path d="m21.114 11.46-.136-.005v-1.723c0-.43.349-.779.779-.78.226.011.419-.163.43-.389s-.163-.419-.389-.43c-.013-.001-.027-.001-.04 0-.884 0-1.6.716-1.6 1.6v1.7h-.631v-1.191c0-.221-.179-.4-.4-.4h-3.164c-.221 0-.4.179-.4.4v1.188h-.8v-2.724c.008-.236-.177-.433-.413-.441-.002 0-.005 0-.007 0h-.368c-.236-.01-.5-.01-.789-.01h-.702l-5.861-5.715-1.557-2.304c-.075-.114-.202-.183-.338-.185h-1.4c-.198 0-.367.143-.4.338l-.84 4.864-.8 4.629-.225 1.311c-.731.721-.738 1.897-.018 2.628.249.252.564.428.909.506v.635h-.646c-.226.001-.409.183-.41.409v2.11c.002.163.097.311.246.379.052.021.108.031.164.031h.645v1.833l-.85.5c-.195.11-.264.358-.154.553.075.127.211.205.359.205.07-.002.138-.019.2-.051l.44-.256v.911l-.256.154h-.005l-.584.348c-.195.11-.264.358-.154.553.076.125.213.201.359.2.07-.002.138-.019.2-.051l.44-.256v.932c.011.226.204.4.43.389.211-.01.379-.179.389-.389v-1.407l.85-.5c.197-.112.267-.361.159-.56-.083-.144-.245-.223-.41-.2-.054.006-.106.023-.153.051l-.441.256v-.907l.85-.5c.01-.01.031-.021.041-.031.166-.124.214-.351.113-.532-.057-.107-.166-.178-.287-.185-.094-.022-.192-.007-.276.041l-.441.256v-1.357h.645c.226-.001.409-.184.41-.41v-2.11c-.001-.226-.184-.409-.41-.409h-.645v-.635c.808-.184 1.394-.883 1.434-1.711l2.079-3.737 1.352 3.287.06.152v.002l-.061-.154v4.414c-.005.216.166.395.382.4h.007 2.115v.908h-1.037c-1.673-.001-3.031 1.355-3.031 3.029s1.355 3.031 3.029 3.031h.002 11.354c1.673.001 3.031-1.355 3.031-3.029.001-1.673-1.355-3.03-3.029-3.031-.001 0-.002 0-.002 0h-1.036v-.908h3.669c.217.004.396-.169.4-.386 0-.005 0-.009 0-.014v-2.375c-.005-1.377-1.015-2.543-2.376-2.745zm-4.762-.821h2.375v.789h-2.375zm2.38 1.589v2.372h-.792v-2.372zm-12.035-8.49 4.629 4.536.47.46-.004.001-.471-.461h-.338c-.2.011-.409.011-.594.021-.153.01-.286.02-.419.02-.236.012-.47.043-.7.094-.019.01-.048.019-.069.029l-1.196-1.138c.149-.273.227-.58.226-.891 0-.914-.64-1.703-1.534-1.892zm-4.7 6.903.092-.543.492-2.9.665.164-.655 3.318c-.199-.032-.403-.025-.6.02zm1.011 5.141h.003v1.29h-1.294v-1.29zm.389-3.268v.01c.015.571-.436 1.047-1.008 1.061-.571.015-1.047-.436-1.061-1.008-.001-.021 0-.042 0-.064-.003-.098.014-.196.051-.287.091-.346.361-.616.707-.706.089-.029.183-.043.277-.041.567.001 1.028.457 1.034 1.024zm.512-1.034c-.146-.204-.326-.381-.533-.523l.748-3.83c.044-.215-.093-.425-.307-.471l-1.1-.266.1-.614.267-1.526.589-3.38h.84l1.362 2.008v1.638c-1.045.219-1.715 1.243-1.496 2.288.144.687.648 1.242 1.318 1.45zm2.376-3.942c-.621-.002-1.125-.505-1.127-1.126-.001-.623.504-1.128 1.126-1.128.622-.001 1.127.503 1.128 1.126s-.504 1.127-1.127 1.128zm1.875 1.638c-.06.078-.115.16-.164.245-.141.224-.243.47-.304.728l-.772-1.904c.11-.038.216-.087.317-.145.088-.049.17-.108.246-.174l.86.82.113.1v.01l.573.543c.11-.093.234-.168.368-.222.149-.065.309-.104.471-.113.046-.008.093-.012.14-.01h3.963v2.826c.002.192.156.346.348.348h2.828v2.372h-3.96v-4.358c-.006-.217-.183-.389-.4-.389h-2.774c-.052-.003-.104.003-.154.02h-.01c-.083.012-.163.04-.236.082-.231.13-.378.37-.389.635-.008.016-.012.033-.01.051v3.959h-.789v-4.01c.015-.465.235-.9.6-1.188l-.573-.544c-.071.056-.138.117-.2.184-.03.042-.061.082-.092.134zm4.228 1.465v3.959h-2.375v-3.959zm8.069 8.092c1.206 0 2.184.978 2.184 2.184s-.978 2.184-2.184 2.184h-11.354c-1.206 0-2.184-.978-2.184-2.184s.978-2.184 2.184-2.184zm-9.5-.846v-.907h7.64v.908h-7.64zm11.74-1.699h-14.275v-.8h14.275zm.006-1.583h-3.178v-2.378h1.189c.065 0 .126.014.189.02 1.016.089 1.796.938 1.8 1.958z"/><path d="m6.286 5.999c-.227 0-.411.183-.412.409s.183.41.409.411.41-.183.411-.409v-.001c.001-.225-.182-.409-.408-.41z"/><path d="m2.364 12.107c-.227 0-.411.184-.411.41s.184.41.41.41.41-.184.41-.41v-.001c0-.226-.183-.409-.409-.409z"/></g></svg>