<svg id="Layer_1" enable-background="new 0 0 24 24" height="512" viewBox="0 0 24 24" width="512" xmlns="http://www.w3.org/2000/svg"><g fill="rgb(0,0,0)"><path d="m22.043 18.532h-.001c-.214.001-.387.174-.386.388s.174.387.388.386c.213-.001.386-.174.386-.387s-.173-.387-.387-.387z"/><path d="m11.588 16.212c-.853.003-1.543.697-1.54 1.55s.697 1.543 1.55 1.54 1.543-.697 1.54-1.55c-.005-.852-.698-1.54-1.55-1.54zm.002 2.32c-.001 0-.001 0-.002 0-.428-.003-.773-.352-.77-.78s.352-.773.78-.77c.424.003.767.346.77.77.001.431-.348.78-.778.78z"/><path d="m22.818 6.142h-1.1l-.056.78h1.16c.212-.001.386.168.39.38v6.583h-.78v-4.253c0-.641-.519-1.16-1.159-1.161-.641 0-1.16.519-1.161 1.16v.001 2.71h-1.16c-.637-.008-1.161.501-1.169 1.139-.008.591.432 1.092 1.019 1.161l-.79.79h-2.16v-1.16c0-.101-.039-.198-.11-.27l-.39-.39-.002-.002.011-.011.49-.48.47-.47.21.21.13.13c.167.157.429.153.59-.01.031-.035.055-.076.07-.12.043-.098.047-.209.01-.31-.012-.062-.043-.118-.09-.16l-1.25-1.24c-.069-.067-.163-.104-.26-.1-.113-.017-.228.02-.31.1-.091.084-.136.207-.12.33-.007.024-.003.049.01.07.013.072.048.139.1.19l.32.32.01.01-.8.79-.09.09-.082.08-.077-.077-.5-.5c-.072-.071-.169-.11-.27-.11h-1.05l.63-3.52c.177-.989.966-1.754 1.96-1.9h6.196l.056-.78h-.056-1.586-.001v-.171c-.001-.733-.595-1.327-1.328-1.326-.732.001-1.325.594-1.326 1.326v.171h-1.959v.001c-1.366.156-2.469 1.187-2.716 2.539l-1.08 5.98h-.07c-.191.002-.382.022-.569.06-.003.001-.007.001-.01.002v-.439-6.978-1.67c-.001-.431-.349-.779-.78-.78h-2.76c-.431.001-.779.349-.78.78v5.848h-2.768v-.552c0-.126-.102-.228-.228-.228h-3.447c-.126 0-.228.102-.228.228v1.885c0 .126.102.228.228.228h3.45c.126 0 .228-.102.228-.228v-.552h.772v5.462h-.78v-.543c0-.126-.102-.228-.228-.228h-3.442c-.126 0-.228.102-.228.228v1.88c0 .126.102.228.228.228h3.45c.126 0 .228-.102.228-.228v-.552h4.67c-.063-.255-.094-.518-.09-.781h-1.036v-12.095h1.2v11.093c.162-.456.43-.867.781-1.2v-.526h.779l.581-.239c.002 0 .004-.001.005-.001l-.576.237-.2.081c-.21.125-.405.274-.58.445-.8.77-1.13 1.908-.864 2.986v.019l.31.77c.851 1.482 2.742 1.994 4.224 1.143.724-.415 1.249-1.105 1.456-1.913h5.56c-.231 1.043.428 2.075 1.471 2.306s2.075-.428 2.306-1.471c.005-.022.009-.043.013-.065.028-.125.041-.252.04-.38v-11.62c-.001-.64-.52-1.159-1.16-1.16zm-4.599-.171c0-.29.235-.526.526-.526s.526.235.526.526v.171h-1.052-.002zm-15.075 6.299h-2.344v-.78h2.344zm0 6.242h-2.344v-.78h2.344zm3.548-.78h-1.171l-.036-5.462h1.207zm3.546-3.447h-.78v-.845h.78zm0-1.626h-.78v-.78h.78zm0-1.56h-.78v-.78h.78zm0-1.561h-.78v-.78h.78zm0-1.56h-.78v-.78h.78zm0-1.561h-.78v-.78h.78zm10.64 3.215c0-.215.175-.39.39-.39s.39.175.39.39v2.71h-.78zm-2.32 3.876c0-.002 0-.004 0-.006-.003-.212.166-.387.378-.39h.012 2.71v.77h-2.71c-.211.005-.386-.163-.39-.374zm-5.83-.396h1.03l.97.97.35.35v1h-1.45c-.348-.31-.762-.535-1.21-.66zm-1.125 6.973c-.005 0-.01 0-.015 0v-.003c-1.284-.003-2.323-1.046-2.32-2.33s1.046-2.323 2.33-2.32c1.28.003 2.317 1.04 2.32 2.32.005 1.284-1.032 2.328-2.315 2.333zm10.446 0c-.004 0-.007 0-.011 0v-.003c-.643-.003-1.163-.527-1.16-1.17s.527-1.163 1.17-1.16 1.163.527 1.16 1.17c.001.641-.518 1.162-1.159 1.163zm1.159-2.703c-.833-.646-2.032-.495-2.678.338-.001.001-.001.001-.002.002-.01.01-.02.02-.02.03h-5.82c.002-.542-.143-1.074-.42-1.54h8.94zm0-1.95h-4.1l.77-.77h3.33z"/><path d="m18.745 4.349c.221 0 .4-.179.4-.4v-.433c0-.221-.179-.4-.399-.401-.221 0-.4.179-.401.399v.001.433c0 .222.179.401.4.401z"/><path d="m17.1 4.696c.142.169.394.192.564.05s.192-.394.05-.564l-.278-.332c-.143-.168-.396-.189-.564-.045-.167.142-.188.391-.049.559z"/><path d="m20.084 4.833c.118 0 .231-.052.307-.143l.278-.332c.141-.17.117-.422-.054-.563-.169-.139-.418-.117-.559.049l-.278.332c-.141.169-.119.421.05.563.071.061.162.095.256.094z"/></g></svg>