<svg id="Layer_1" enable-background="new 0 0 24 24" height="512" viewBox="0 0 24 24" width="512" xmlns="http://www.w3.org/2000/svg"><g><path d="m23.613 14.161h-2.713v-1.042c2.416-.86 3.678-3.516 2.818-5.933-.658-1.846-2.403-3.081-4.363-3.086h-3.648v-1.216c0-.221-.179-.4-.4-.4h-6.614c-.221 0-.4.179-.4.4v1.216h-3.648c-2.565.007-4.638 2.092-4.631 4.656.005 1.96 1.24 3.705 3.086 4.362v1.042h-2.713c-.214.001-.387.174-.387.388v3.871c.001.641.52 1.16 1.161 1.161h.039c.212 1.264 1.408 2.116 2.672 1.904.976-.164 1.74-.928 1.904-1.904h.844c.214 1.263 1.411 2.114 2.674 1.901.973-.165 1.736-.927 1.901-1.901h1.615c.214 1.263 1.411 2.114 2.674 1.901.973-.165 1.736-.927 1.901-1.901h.845c.214 1.263 1.411 2.114 2.674 1.901.973-.165 1.736-.927 1.901-1.901h.034c.641-.001 1.16-.52 1.161-1.161v-3.871c0-.214-.173-.387-.387-.387zm-10.452-7.838v.096.562h-2.322v-.658zm-2.322-.774v-.679h2.322v.227.452zm2.322 2.206v.212.445h-2.322v-.657zm0 1.431v.329.329h-2.322v-.658zm0 1.432v.446.212h-2.322v-.658zm0 1.432v.562h-2.322v-.562zm4.258 1.336v.775h-10.838v-.775zm2.71.775h-1.935v-1.936c0-.214.173-.387.387-.387h1.161c.214 0 .387.173.387.387zm-2.71-9.291c.52 0 1.042-.02 1.564 0 .436-.006.872.032 1.3.115 2.076.51 3.344 2.607 2.834 4.682-.288 1.171-1.105 2.141-2.21 2.623v-.062c-.002-.334-.147-.651-.4-.87-.256-.187-.567-.283-.883-.272-.351-.028-.704-.024-1.054.012-.171.006-.34.04-.5.1-.13.059-.247.144-.344.25-.192.213-.299.489-.3.776v.387h-3.491v-7.741zm-8.326-1.586h5.814v.816h-5.814zm-6 8.941v.062c-1.959-.857-2.852-3.139-1.996-5.098.483-1.103 1.451-1.919 2.62-2.207.428-.083.864-.121 1.3-.115.522-.017 1.044 0 1.564 0h3.484v7.742h-3.484v-.387c-.001-.287-.108-.563-.3-.776-.097-.106-.214-.191-.344-.25-.16-.06-.329-.094-.5-.1-.35-.036-.703-.04-1.054-.012-.316-.011-.627.085-.883.272-.252.219-.398.535-.4.869zm.778 0c0-.214.173-.387.387-.387h1.161c.214 0 .387.173.387.387v1.936h-1.932zm1.161 6.968c-.001.854-.694 1.547-1.548 1.548-.855.001-1.549-.693-1.55-1.548-.001-.856.693-1.549 1.548-1.55s1.549.693 1.55 1.548zm5.42 0c-.001.855-.694 1.548-1.549 1.548s-1.549-.694-1.549-1.549.694-1.549 1.549-1.549c.856 0 1.549.694 1.549 1.549zm6.193 0c-.001.853-.692 1.545-1.545 1.548h-.003c-.856.001-1.549-.693-1.55-1.548-.001-.856.693-1.549 1.548-1.55s1.549.693 1.55 1.548zm5.42 0c-.001.855-.694 1.548-1.549 1.548-.856 0-1.549-.694-1.549-1.549s.693-1.549 1.549-1.549c.855 0 1.549.694 1.549 1.549zm1.161-.774c-.001.214-.173.386-.387.387h-.039c-.212-1.264-1.408-2.116-2.672-1.904-.976.164-1.74.928-1.904 1.904h-.843c-.212-1.264-1.408-2.116-2.672-1.904-.976.164-1.74.928-1.904 1.904h-1.614c-.212-1.264-1.408-2.116-2.672-1.904-.976.164-1.74.928-1.904 1.904h-.843c-.212-1.264-1.408-2.116-2.672-1.904-.976.164-1.74.928-1.904 1.904h-.035c-.214-.001-.386-.174-.387-.387v-1.936h22.452zm0-2.71h-22.452v-.774h22.452z"/><path d="m3.486 18.419c-.001 0-.001 0-.002 0-.427 0-.774.347-.774.774s.347.774.774.774.774-.347.774-.774c.001-.427-.345-.774-.772-.774z"/><path d="m8.9 18.419c-.427 0-.774.347-.774.774s.346.774.774.774.774-.347.774-.774c0-.428-.347-.774-.774-.774z"/><path d="m15.102 18.419c-.001 0-.001 0-.002 0-.427 0-.774.347-.774.774s.346.774.774.774.774-.347.774-.774c.001-.427-.345-.774-.772-.774z"/><path d="m20.516 18.419c-.427 0-.774.347-.774.774s.347.774.774.774.774-.347.774-.774c0-.428-.347-.774-.774-.774z"/><path d="m5.419 10.792c1.5-.001 2.715-1.216 2.716-2.716 0-1.5-1.216-2.716-2.716-2.716s-2.716 1.216-2.716 2.716 1.216 2.716 2.716 2.716zm-1.919-2.716h.004c0-1.058.858-1.916 1.916-1.916s1.916.858 1.916 1.916-.858 1.916-1.916 1.916h-.001c-1.059.001-1.918-.856-1.919-1.916z"/><path d="m5.385 9.644c.648.019 1.189-.491 1.208-1.139.001-.023.001-.046 0-.068-.147-.634-.437-1.225-.85-1.728-.144-.18-.405-.208-.583-.065-.023.019-.045.04-.064.064-.413.503-.703 1.094-.85 1.728-.019.648.491 1.189 1.139 1.208zm.034-1.983c.167.236.293.498.374.775-.011.206-.187.365-.393.354-.191-.01-.344-.163-.354-.354.081-.277.207-.539.373-.775z"/><path d="m18.581 10.792c1.5 0 2.716-1.216 2.716-2.716s-1.216-2.716-2.716-2.716-2.716 1.216-2.716 2.716c.002 1.499 1.217 2.714 2.716 2.716zm-1.916-2.716c.001-1.058.858-1.914 1.916-1.915 1.058 0 1.916.858 1.916 1.916s-.858 1.916-1.916 1.916-1.916-.858-1.916-1.917z"/><path d="m18.581 9.61c.648-.001 1.172-.526 1.173-1.174-.147-.634-.437-1.225-.85-1.728-.144-.179-.405-.207-.583-.064-.023.019-.045.04-.064.064-.413.503-.703 1.094-.85 1.728.001.648.526 1.173 1.174 1.174zm0-1.948c.166.236.292.498.373.775-.011.206-.187.365-.393.354-.191-.01-.344-.163-.354-.354.081-.277.207-.539.374-.775z"/></g></svg>