<svg id="Layer_1" enable-background="new 0 0 24 24" height="512" viewBox="0 0 24 24" width="512" xmlns="http://www.w3.org/2000/svg"><g><path d="m3.517 18.836c-.287 0-.519.232-.519.519s.232.519.519.519.519-.232.519-.519c0-.286-.232-.519-.519-.519z"/><path d="m20.483 18.836c-.287 0-.519.232-.519.519s.232.519.519.519.519-.232.519-.519c0-.286-.232-.519-.519-.519z"/><path d="m16.646 18.955h-9.291c-.221 0-.4.18-.399.401 0 .22.179.399.399.399h9.291c.221 0 .4-.18.399-.401 0-.22-.179-.398-.399-.399z"/><path d="m23.609 3.1h-1.157v-2.709c0-.216-.175-.391-.391-.391h-1.928c-.216 0-.391.175-.391.391v1.609c-2.359-1.337-5.03-2.027-7.742-2-2.712-.027-5.383.663-7.742 2v-1.609c0-.216-.175-.391-.391-.391h-1.928c-.216 0-.391.175-.391.391v2.709h-1.157c-.214 0-.389.173-.391.387v6.574c0 .216.175.391.391.391h1.157v2.213c-.488.363-.775.936-.774 1.545v4.758c.003 1.346.993 2.487 2.326 2.678v1.193c0 .64.518 1.159 1.158 1.161h1.548c.641.001 1.161-.519 1.162-1.16v-.001-1.162h10.064v1.162c0 .641.52 1.161 1.161 1.161h.001 1.548c.64-.002 1.158-.521 1.158-1.161v-1.193c1.332-.193 2.32-1.333 2.323-2.678v-4.758c.001-.609-.286-1.182-.774-1.545v-2.213h1.157c.216.002.392-.172.394-.388 0-.001 0-.002 0-.003v-6.574c-.002-.214-.177-.387-.391-.387zm-3.093-2.326h1.161v1.161h-1.161zm0 1.936h1.161v1.161h-1.161zm0 3.1v-1.165h1.161v3.168c-.124-.046-.255-.07-.387-.071h-.49l-.14-1.364c-.023-.198-.077-.391-.159-.572zm1.161 3.087v.003.01 3.37l-.413-.165-.379-3.6h.4c.214-.002.389.169.392.382zm-17.419-5.984c2.326-1.431 5.011-2.173 7.742-2.139 2.731-.03 5.414.711 7.742 2.139v2.014c-.303-.185-.652-.282-1.007-.282h-.541v-.855c-.002-.382-.312-.69-.694-.69h-.937c-.383 0-.693.31-.693.693v.855h-7.741v-.858c-.002-.381-.311-.69-.693-.69h-.936c-.383 0-.693.31-.693.693v.855h-.542c-.355 0-.704.097-1.007.282zm13.161.958v.774h-.774v-.774zm-10.064 0v.774h-.774v-.774zm-3.245 2.588c.061-.592.56-1.041 1.155-1.04h13.47c.595-.001 1.094.448 1.155 1.04l.561 5.33-1.234-.489c-.133-.337-.357-.629-.648-.844h.012v-3.488c-.001-.428-.347-.774-.775-.774h-11.612c-.428 0-.774.346-.775.774v3.484h.012c-.291.215-.515.507-.648.844l-1.234.493zm2.471 4.38h10.838c.641.001 1.161.52 1.162 1.161v5.032h-13.162v-5.032c.001-.641.521-1.16 1.162-1.161zm-.387-.739v-3.132h11.612v3.132c-.127-.026-.257-.039-.387-.039h-10.838c-.13 0-.26.013-.387.039zm-3.871-9.326h1.161v1.161h-1.161zm0 1.936h1.161v1.161h-1.161zm0 1.935h1.161v1.161h.016c-.081.182-.135.375-.158.572l-.142 1.364h-.49c-.132.002-.263.026-.387.071zm0 4.645v-.39c0-.214.173-.387.387-.387h.405l-.379 3.6-.413.166zm-1.549.387v-5.806h.774v5.806zm.774 4.533c-.001-.475.288-.903.73-1.079l2.367-.946v4.847h-3.1zm4.646 8.629c-.001.214-.174.387-.388.387h-1.548c-.214-.001-.386-.173-.387-.387v-1.162h2.323zm13.935 0c-.001.214-.174.386-.387.387h-1.548c-.214 0-.387-.173-.388-.387v-1.162h2.323zm.387-1.939h-17.032c-1.068-.001-1.934-.867-1.936-1.935v-1.159h20.9l.004 1.162c-.003 1.068-.869 1.931-1.936 1.932zm1.936-3.868h-3.1v-4.847l2.367.946c.442.176.731.604.73 1.079zm.774-7.355h-.774v-5.806h.774z"/><path d="m3.1 13.763c-.718 0-1.3.582-1.3 1.3s.582 1.3 1.3 1.3 1.3-.582 1.3-1.3-.582-1.3-1.3-1.3zm0 1.799v.001c-.276 0-.5-.224-.5-.5s.224-.5.5-.5.5.224.5.5c-.001.276-.224.499-.5.499z"/><path d="m20.863 13.763c-.718 0-1.3.582-1.3 1.3s.582 1.3 1.3 1.3 1.3-.582 1.3-1.3-.582-1.3-1.3-1.3zm0 1.799v.001c-.276 0-.5-.224-.5-.5s.224-.5.5-.5.5.224.5.5c-.001.276-.224.499-.5.499z"/><path d="m7.052 12.529h9.9c.221 0 .4-.179.4-.4s-.179-.4-.4-.4h-9.9c-.221 0-.4.179-.4.4s.179.4.4.4z"/><path d="m7.052 14.336h9.9c.221 0 .4-.179.4-.4s-.179-.4-.4-.4h-9.9c-.221 0-.4.179-.4.4s.179.4.4.4z"/><path d="m7.052 16.143h9.9c.221 0 .4-.179.4-.4s-.179-.4-.4-.4h-9.9c-.221 0-.4.179-.4.4s.179.4.4.4z"/><path d="m14.323 3.275c.269-.001.487-.219.486-.488s-.219-.487-.488-.486-.486.218-.486.487c.001.27.219.487.488.487z"/><path d="m12 2.5c.269 0 .487-.218.487-.487s-.218-.487-.487-.487-.487.218-.487.487c.001.269.218.487.487.487z"/><path d="m9.677 3.275h.001c.269-.001.487-.219.486-.488s-.219-.487-.488-.486-.486.219-.486.487c0 .269.218.487.487.487z"/></g></svg>