<svg id="Layer_1" enable-background="new 0 0 24 24" height="512" viewBox="0 0 24 24" width="512" xmlns="http://www.w3.org/2000/svg"><g><path d="m21.04 22.083c.831 0 1.505-.674 1.505-1.505s-.674-1.505-1.505-1.505-1.505.674-1.505 1.505.674 1.505 1.505 1.505zm0-2.185v-.005c.376 0 .68.304.68.68s-.304.68-.68.68-.68-.304-.68-.68c.006-.372.308-.672.68-.675z"/><path d="m8.55 20.073c-.069.158-.103.328-.1.5 0 .828.672 1.5 1.5 1.5s1.5-.672 1.5-1.5-.672-1.5-1.5-1.5c-.633-.003-1.197.4-1.4 1zm2.08.5c0 .376-.304.68-.68.68s-.68-.304-.68-.68.304-.68.68-.68c.375 0 .679.304.68.68z"/><path d="m17.34 22.083c.831 0 1.505-.674 1.505-1.505s-.674-1.505-1.505-1.505-1.505.674-1.505 1.505.674 1.505 1.505 1.505zm0-2.19c.376 0 .68.304.68.68s-.304.68-.68.68-.68-.304-.68-.68.304-.68.68-.68z"/><path d="m13.644 22.083h.006c.831-.003 1.503-.679 1.5-1.51s-.679-1.503-1.51-1.5c-.827.003-1.497.673-1.5 1.5-.002.832.672 1.508 1.504 1.51zm.006-2.19c.376 0 .68.304.68.68s-.304.68-.68.68-.68-.304-.68-.68.304-.68.68-.68z"/><path d="m21.68 11.343h-.133v-1.692c0-.42.341-.761.761-.761.221 0 .4-.179.4-.4s-.179-.4-.4-.4c-.862.001-1.56.699-1.562 1.561v1.662h-.616v-1.16c0-.215-.175-.39-.39-.39h-3.09c-.215 0-.39.175-.39.39v1.16h-.78v-2.66c.001-.011-.002-.022-.01-.03.008-.041.001-.084-.02-.12-.039-.124-.136-.221-.26-.26l-.8-.8-.71-.71.35-.35c.133-.177.097-.427-.08-.56-.142-.107-.338-.107-.48 0l-.36.35-.87-.87.36-.35c.157-.157.157-.413 0-.57s-.413-.157-.57 0l-.35.35-.87-.87.35-.35c.155-.148.16-.393.013-.547-.004-.004-.008-.009-.013-.013-.155-.157-.408-.159-.566-.004-.001.001-.003.003-.004.004l-.35.35-.87-.87.35-.36c.177-.133.213-.384.08-.56-.133-.177-.383-.213-.56-.081-.03.023-.057.05-.08.08l-.36.35-1.08-1.08c-.464-.421-1.174-.414-1.63.015-.087.085-.155.187-.2.3l-.07-.07c-.357-.36-.843-.563-1.35-.565h-4.07c-.221 0-.4.179-.4.4v3.25c0 .221.179.4.4.4h.38l.31 2.53c.029.199.199.348.4.35h.33v1.17c-.844.188-1.446.935-1.45 1.8v2.1c0 .221.179.4.4.4h1.05v.7c-.929.216-1.507 1.146-1.291 2.075s1.146 1.507 2.075 1.291c.784-.182 1.337-.881 1.336-1.686 0-.221-.179-.4-.4-.4s-.4.179-.4.4c-.003.511-.419.923-.93.92s-.923-.419-.92-.93c.003-.507.413-.917.92-.92.108-.003.211-.046.29-.12.075-.074.119-.174.12-.28v-1.05h1.04c.221 0 .4-.179.4-.4v-2.1c-.001-.861-.599-1.605-1.44-1.79v-1.174h.31c.203.002.375-.149.4-.35l.31-2.53h.27l4.92 4.92c-.132.222-.223.466-.27.72-.029.128-.043.259-.04.39v5.8c-.004.211.163.386.374.39h.006 2.065v.88h-1.015c-1.635 0-2.96 1.325-2.961 2.959s1.325 2.96 2.959 2.961h.001 11.09c1.635 0 2.96-1.326 2.959-2.961 0-1.634-1.325-2.959-2.959-2.959h-1.013v-.88l3.583-.005c.212.003.387-.166.39-.378 0-.004 0-.008 0-.012v-2.32c-.004-1.344-.99-2.483-2.319-2.68zm-18.42-.981v1.7h-2.09v-1.7c0-.577.468-1.045 1.045-1.045.577.001 1.045.469 1.045 1.045zm-.68-3.765h-.73l-.26-2.08h1.25zm-1.78-2.884v-2.45h2.12c-.529.757-.45 1.783.19 2.45zm16.23 6.829h2.32v.77h-2.32zm-3.92-3.24.91.91h-.08c-.29 0-.6 0-.92.01l-.41-.41zm-1.43-1.44.87.87-.51.52-.87-.88zm-1.44-1.43.87.87-.51.51-.87-.87zm-1.44-1.435.87.87-.5.51-.87-.869zm-2.14-1.645c.116-.141.324-.161.464-.046.017.015.032.03.046.046l1.07 1.08-.51.51-1.08-1.09c-.063-.064-.099-.15-.1-.24 0-.097.04-.191.11-.26zm-2.29 2.481c-.011-.001-.019-.009-.02-.02-.011-.01-.025-.018-.04-.02l-.63-.63c-.42-.443-.42-1.137 0-1.58.211-.194.484-.308.77-.32h.03c.289.001.565.116.77.32l.85.86-1.56 1.56zm4.96 4.964h-.01l-.11-.11-1.08-1.085-3.03-3.029 1.56-1.57.5.5-.33.33c-.152.156-.152.404 0 .56.076.078.181.121.29.12.104-.002.203-.041.28-.11l.33-.34.87.88-.33.33c-.155.147-.16.392-.013.547.004.004.009.008.013.013.074.075.174.118.28.12.109.001.214-.042.29-.12l.33-.33.87.87-.33.33c-.157.158-.156.415.003.572.074.074.173.116.277.118.106.001.208-.043.28-.12l.33-.33.87.87-.33.33c-.032.03-.056.068-.07.11v.01c-.319.006-.637.04-.95.1-.189.059-.37.14-.54.24-.075.043-.145.094-.21.15-.01.01-.03.02-.04.04l.54.54c.114-.089.238-.162.37-.22.189-.082.394-.123.6-.12h3.87v2.76c.002.187.153.338.34.34h2.757v2.319h.774v-2.314h.774v2.319h-5.415v-4.26c-.005-.213-.177-.385-.39-.39h-2.71c-.148-.002-.293.04-.417.119l-.003-.003c-.209.134-.34.362-.35.61-.008.015-.012.033-.01.05v.12l.23.23.32-.4.188-.228.002.002-.19.23-.32.4-.23-.23v3.75h-.77v-3.919c.004-.087.014-.174.03-.26.019-.081.042-.161.07-.24 0-.015.01-.025.01-.035.023-.055.049-.109.08-.16.031-.06.068-.117.11-.17.038-.058.081-.111.13-.16.047-.049.098-.096.15-.14zm3.83 1.745v3.87h-2.32v-3.87zm7.88 7.901c1.176.001 2.129.954 2.13 2.13.003 1.174-.946 2.127-2.12 2.13-.003 0-.007 0-.01 0h-11.09c-1.176 0-2.13-.954-2.13-2.13s.954-2.13 2.13-2.13zm-9.275-.831v-.88h7.462v.88zm11.465-1.649h-13.94v-.78h13.94zm0-1.546h-3.101v-2.319h1.161c.028-.001.056-.001.084 0l.1.01c.994.088 1.756.921 1.756 1.919z"/><path d="m1.741 10.692c0 .261.211.472.472.472s.472-.211.472-.472-.211-.472-.472-.472-.472.211-.472.472z"/></g></svg>