<svg id="Layer_1" enable-background="new 0 0 24 24" height="512" viewBox="0 0 24 24" width="512" xmlns="http://www.w3.org/2000/svg"><g><path d="m23.621 15.089h-.286v-2.367c0-.103-.04-.202-.111-.276l-2.358-2.469c-.075-.079-.18-.124-.289-.124h-5.116v-6.009c0-.21-.17-.38-.38-.38h-7.74c-.215.001-.389.175-.39.39v1.55c-.001.212.168.386.38.39h.34l-.29 2.32h-1.993v-2.678c-.001-.862-.699-1.56-1.561-1.561-.221 0-.4.179-.4.4s.179.4.4.4c.42 0 .761.341.761.761v2.678h-1.507c-.104 0-.204.039-.28.11l-1.93 1.94c-.073.071-.116.168-.12.27v.78h-.38c-.211-.004-.385.163-.39.374v.006 3.1c0 .215.175.39.39.39h1.48c-.856 1.955.034 4.233 1.989 5.09 1.277.56 2.757.388 3.871-.45h5.82c.215 0 .39-.175.39-.39v-1.145h1.08c.844 1.966 3.121 2.875 5.087 2.031.912-.392 1.64-1.119 2.031-2.031h1.5c.221 0 .4-.179.4-.4v-2.3c0-.22-.178-.399-.398-.4zm-8.47-3.015c.199-.199.31-.469.31-.75v-.671h4.945l2.129 2.23v2.206h-.424c-.84-1.963-3.112-2.874-5.075-2.034-.914.391-1.643 1.12-2.034 2.034h-1.081v-1.785zm6.073 3.015h-5.335c.845-1.473 2.724-1.983 4.197-1.138.474.272.866.665 1.138 1.138zm-10.973-5.125-1.25-1.24c-.169-.153-.431-.141-.585.029-.145.16-.143.404.005.562l.33.33-.8.79-.09.09.008-.066v-.024l.1-.77v-.018l.432-3.479.05-.369h6.24v5.42h-6.36l.53-.52.26-.26.21-.21.21.21.13.13c.167.157.429.153.59-.01.031-.035.055-.076.07-.12.078-.159.046-.35-.08-.475zm-2.53-5.72h6.97v.77h-6.97zm-6.19 6.355 1.708-1.713.002-.002h4.04l-.289 2.325h-5.461zm5.91 8.355-.11.09c-1.329 1.037-3.247.8-4.284-.529s-.8-3.247.529-4.284 3.247-.8 4.284.529c1.003 1.286.818 3.133-.419 4.194zm5.7 0h-4.65c.012-.01.02-.024.02-.04.169-.229.312-.476.425-.737h4.205zm-3.96-1.555c.308-1.466-.266-2.978-1.47-3.869h5.43v3.869zm4.19-4.645h-8.36v.02c-1.073.115-2.05.668-2.7 1.53h-1.56v-2.32h13.39zm5.191 6.98c-1.103-.001-2.121-.59-2.672-1.545h5.343c-.55.955-1.569 1.544-2.671 1.545zm4.659-2.346h-1.351c-.019-.002-.037-.002-.056 0h-6.506c-.018-.002-.037-.002-.055 0h-1.332v-1.5h1.318.022.013 7.947z"/><circle cx="18.613" cy="16.639" r=".328"/><path d="m12.135 14.342c-.014-.001-.027-.001-.041 0h-1.775c-.228-.011-.423.165-.434.393s.165.423.393.434c.014.001.027.001.041 0h1.775c.228.011.423-.165.434-.393s-.165-.422-.393-.434z"/><path d="m12.094 15.753h-1.775c-.229 0-.414.185-.414.414s.185.414.414.414h1.775c.229 0 .414-.185.414-.414 0-.228-.185-.414-.414-.414z"/><path d="m5.401 14.304c-1.284-.003-2.327 1.036-2.33 2.32s1.036 2.327 2.32 2.33 2.327-1.036 2.33-2.32c0-.003 0-.007 0-.01-.001-1.281-1.039-2.319-2.32-2.32zm1.426 2.927c-.333.788-1.241 1.157-2.03.824-.575-.243-.948-.807-.946-1.431.01-.85.7-1.535 1.55-1.54.496.001.961.239 1.252.64.322.436.388 1.01.174 1.507z"/></g></svg>