<svg id="Layer_1" enable-background="new 0 0 24 24" height="512" viewBox="0 0 24 24" width="512" xmlns="http://www.w3.org/2000/svg"><g><path d="m4.194 21.29c-.001-.641-.521-1.16-1.162-1.161-.642 0-1.162.52-1.162 1.162s.52 1.162 1.162 1.162 1.162-.52 1.162-1.163zm-1.162.387c-.214 0-.387-.173-.387-.387s.173-.387.387-.387.387.173.387.387-.173.387-.387.387z"/><path d="m20.031 21.29c-.001.642.519 1.162 1.161 1.163s1.162-.519 1.163-1.161c0-.001 0-.001 0-.002-.001-.641-.52-1.16-1.161-1.161-.642-.001-1.162.519-1.163 1.161zm1.163-.387c.214 0 .387.173.387.387-.001.214-.174.386-.387.387-.214 0-.387-.173-.387-.387s.173-.387.387-.387z"/><path d="m23.226 12.387c.427-.001.773-.347.774-.774v-.774c-.001-.427-.347-.773-.774-.774h-1.549c-1.282.001-2.321 1.04-2.322 2.322v4.645h-2.338c.008-.045.013-.09.015-.136 0-.546-.342-1.033-.854-1.22l-2.658-.966 2.658-.967c.672-.252 1.013-1.002.76-1.674-.189-.503-.667-.838-1.204-.843h-.09-.033v-.015l-2.1-.762 2.658-.967c.512-.187.853-.674.854-1.219-.001-.194-.046-.384-.131-.558l.758-1.514h.535c.641-.019 1.146-.554 1.127-1.196-.018-.615-.512-1.109-1.127-1.127v-2.707c0-.638-.515-1.157-1.153-1.161h-14.709c-.641-.001-1.161.519-1.162 1.16v.001 2.71c-.641.019-1.146.554-1.127 1.196.018.615.512 1.109 1.127 1.127h.539l.757 1.514c-.085.174-.129.365-.13.558.001.545.342 1.032.854 1.219l2.658.967-2.658.966c-.672.252-1.012 1.002-.76 1.674.189.503.667.838 1.204.843h.085l2.13.775-2.659.966c-.512.187-.854.674-.854 1.22.002.046.007.091.014.136h-1.241c-.427.001-.773.347-.774.774v.775c.001.427.347.773.774.774h.04c-1.069 1.04-1.093 2.749-.053 3.818.017.018.035.036.053.053h1.892c-1.069 0-1.936-.867-1.936-1.936s.867-1.936 1.936-1.936 1.936.867 1.936 1.936c-.001 1.069-.867 1.935-1.936 1.936h-2.645c-.214 0-.387.173-.387.387s.173.387.387.387h2.682 11.366.178.71.838.774.41 3.586 2.682c.214 0 .387-.173.387-.387s-.173-.387-.387-.387h-.527c1.069-1.04 1.092-2.749.053-3.818-.003-.003-.006-.007-.01-.01v-1.592c-.001-.427-.347-.773-.774-.774h-.678v-4.645zm-6.291 5.419h.775v1.549h-.775zm-1.291-5.806h.09c.289.001.523.236.523.525-.001.219-.138.415-.344.491l-3.526 1.284-1.577-.574 4.656-1.693c.057-.021.117-.033.178-.033zm-5.967 1.313-2.012-.732 2.012-.732 2.013.732zm4.723-1.713-1.577.574-2.013-.732 1.577-.574zm-12.465-10.439c.001-.214.174-.387.388-.387h14.709c.214 0 .387.173.387.387v2.71h-.774v-2.323h-13.935v2.323h-.775zm13.936 1.162v1.548h-2.323v-1.548zm-3.1 0v1.548h-.771v-1.548zm-1.548 0v1.548h-3.1v-1.548zm-3.871 0v1.548h-.771v-1.548zm-1.549 0v1.548h-2.319v-1.548zm-4.645 3.1c-.214 0-.387-.173-.387-.387s.173-.387.387-.387h17.036c.214 0 .387.173.387.387s-.173.387-.387.387zm1.4.775h14.235l-.387.774h-13.457zm10.729 1.544-3.61 1.313-3.609-1.313zm-9.845 1.016c-.272-.1-.411-.401-.312-.672.076-.206.272-.343.491-.344h.09c.061 0 .122.01.179.031l4.655 1.693-1.577.574zm.269 4.403v-.003h-.09c-.289.001-.524-.233-.525-.521-.001-.221.138-.419.346-.494l12.024-4.37c.057-.021.117-.031.178-.031h.09c.289.001.523.236.523.525-.001.219-.138.415-.344.491l-12.023 4.372c-.057.021-.118.031-.179.031zm1.244.402 1.577-.573 9.381 3.41c.207.075.345.272.345.492-.003.046-.012.092-.028.136h-1.743zm11.203 4.243v1.549h-.774v-1.549zm-1.548 0v1.549h-.774v-1.549zm-2.387-.777h-5.09l2.545-.925zm-8.781-.629 3.526-1.282 1.577.573-3.677 1.341h-1.744c-.014-.043-.022-.087-.024-.132-.003-.222.134-.423.342-.5zm-.41 2.181h-1.932v-.775h11.965v1.549c.001.427.347.773.774.774h4.91c-.174.362-.264.759-.265 1.161.001.13.012.259.031.387h-12.804c.019-.128.03-.257.031-.387-.002-1.496-1.214-2.707-2.71-2.709zm14.313 4.645h-.022-.388-.774-1.548-.178-9.51c.228-.224.415-.486.552-.774h13.272c.137.289.324.551.552.774zm5.784-1.937s0 .001 0 0c-.001 1.069-.867 1.935-1.935 1.937-1.069.001-1.936-.866-1.937-1.935s.866-1.936 1.935-1.937 1.936.866 1.937 1.935zm-.774-3.483v1.04c-1.024-.491-2.245-.287-3.054.509h-.817v-1.549zm-1.455-5.42v.001 4.645h-.774v-4.645c.001-.855.693-1.547 1.548-1.548h1.549v.774h-1.546c-.428-.001-.776.345-.777.773z"/></g></svg>