<svg id="Layer_1" enable-background="new 0 0 24 24" height="512" viewBox="0 0 24 24" width="512" xmlns="http://www.w3.org/2000/svg"><g><path d="m21.04 18.938c-.831 0-1.505.674-1.505 1.505s.674 1.505 1.505 1.505 1.505-.674 1.505-1.505-.674-1.505-1.505-1.505zm0 2.18c-.376 0-.68-.304-.68-.68.004-.374.306-.676.68-.68.376 0 .68.304.68.68s-.305.68-.68.68z"/><path d="m9.95 18.938c-.633-.002-1.197.4-1.4 1-.068.158-.103.328-.1.5 0 .828.672 1.5 1.5 1.5s1.5-.672 1.5-1.5-.672-1.5-1.5-1.5zm0 2.18c-.376 0-.68-.304-.68-.68s.304-.68.68-.68c.375.001.679.305.68.68 0 .376-.305.68-.68.68z"/><path d="m17.34 18.938c-.831 0-1.505.674-1.505 1.505s.674 1.505 1.505 1.505 1.505-.674 1.505-1.505-.674-1.505-1.505-1.505zm0 2.18c-.376 0-.68-.304-.68-.68s.304-.68.68-.68.68.304.68.68-.305.68-.68.68z"/><path d="m13.64 18.938c-.827.003-1.497.673-1.5 1.5-.002.832.672 1.508 1.504 1.51h.006c.831-.003 1.503-.679 1.5-1.51s-.679-1.503-1.51-1.5zm.01 2.18c-.376 0-.68-.304-.68-.68s.304-.68.68-.68.68.304.68.68-.305.68-.68.68z"/><path d="m21.041 17.477h-.001-1.013v-.877h3.583c.212.003.387-.166.39-.378 0-.004 0-.008 0-.012v-2.32c-.005-1.344-.991-2.483-2.32-2.68h-.133v-1.693c0-.42.341-.761.761-.762.221 0 .4-.179.4-.4s-.179-.4-.4-.4c-.862.001-1.561.699-1.562 1.561v1.661h-.616v-1.16c0-.215-.175-.39-.39-.39h-3.09c-.215 0-.39.175-.39.39v1.16h-.78v-2.659c.002-.104-.038-.205-.11-.28l-.03-.03-.63-.76-.12-.14-.45-.54c0-.01 0-.01-.01-.01l-2.18-2.61c-.078-.091-.191-.145-.31-.148h-.66l-4.2-3.162c-.473-.355-1.137-.304-1.55.12-.367-.236-.795-.357-1.23-.35-.638-.01-1.253.235-1.71.68-.453.465-.702 1.091-.69 1.74l.13 1.09-.83.29c-.177.06-.289.234-.27.42l1.03 8.08h-1.26c-.221 0-.4.179-.4.4s.179.4.4.4h2.13c.019.071.042.142.07.21-1.667.789-2.378 2.78-1.589 4.447.43.907 1.245 1.573 2.219 1.813.032.011.066.017.1.02.184-.005.343-.131.39-.31.05-.215-.084-.43-.299-.48-1.361-.336-2.193-1.712-1.857-3.073.2-.811.786-1.471 1.567-1.767.259.196.575.302.9.3.328 0 .647-.105.91-.3 1.312.496 1.973 1.961 1.477 3.273-.295.781-.956 1.367-1.767 1.567-.215.049-.35.264-.3.479.047.179.206.305.39.31.034-.003.068-.009.1-.02 1.789-.44 2.883-2.247 2.443-4.036-.241-.979-.911-1.796-1.823-2.224.028-.068.051-.139.07-.21h2.03c.221 0 .4-.179.4-.4s-.179-.4-.4-.4h-2.031c-.06-.235-.177-.451-.34-.63l.62-4.86h3.65l.749.789c-.03.004-.06.011-.089.02-.188.059-.37.14-.54.24-.075.044-.145.095-.21.151-.087.069-.167.146-.24.23-.032.042-.062.085-.09.13-.059.076-.112.156-.16.24-.157.244-.265.515-.32.8-.029.128-.043.259-.04.39v5.8c-.004.211.163.385.374.39h.006 2.065v.88h-1.015c-1.635 0-2.96 1.326-2.959 2.961 0 1.634 1.325 2.959 2.959 2.959h11.09c1.635 0 2.96-1.325 2.961-2.959-.001-1.635-1.326-2.96-2.96-2.961zm-.912-5.519h1.161.086l.1.01c.994.089 1.756.921 1.756 1.919v.39h-3.103zm-3.099-1.548h2.32v.77h-2.32zm2.325 1.548v2.319h-.774v-2.319zm-5.415-4.18.26.3h-.26c-.86 0-1.91.01-2.71.04l-.67-.7h3.08zm-7.64-6.3 3.35 2.522h-1.31l-2.05-1.552c-.085-.35-.245-.678-.47-.96.137-.118.338-.122.48-.01zm.72 2.522h-.78l.06-.54zm-4.49 8.908v.002h-.06l-1-7.85.37-.13.94 7.46c-.113.157-.198.332-.25.518zm2.26.41v.002c-.011.413-.347.744-.76.75-.417-.003-.753-.343-.75-.76s.343-.753.76-.75c.413.003.747.337.75.75h-.01c.005 0 .009.004.01.008zm-.35-1.498c-.133-.04-.271-.06-.41-.06-.174-.001-.347.029-.51.09l-1.13-8.872c.003-.424.172-.829.47-1.13.522-.507 1.322-.594 1.94-.21.476.281.763.797.75 1.35l-.12 1.012h-1.4c-.221 0-.4.179-.4.4v2.62c0 .221.179.4.4.4h.97zm-.01-5.2v-1.82h6.41v.01c.005 0 .01-.004.01-.01h.61l1.51 1.82zm4.86 3.737c.018-.607.39-1.146.95-1.38.185-.082.386-.123.589-.12l.001.001h1.1 2.78v2.76c.002.187.153.338.34.34h2.757v2.319h-3.867v-4.26c-.005-.213-.177-.385-.39-.39h-.88l.001.001h-.001-.436-.664v-.001h-.73c-.41-.001-.749.32-.77.73-.008.015-.012.033-.01.05v3.87h-.77zm3.02.051h.85v.889.001 2.979h-2.32v-3.87h1.469zm-3.02 5.422v-.78h13.94v.78zm9.937.77v.88h-7.462v-.88zm1.823 5.97c-.003 0-.007 0-.01 0h-11.09c-1.176 0-2.13-.953-2.13-2.13 0-1.176.953-2.13 2.13-2.13h11.09c1.175.001 2.128.953 2.13 2.128v.002c.002 1.174-.947 2.127-2.12 2.13z"/><path d="m4.029 3.383c.268 0 .486-.218.486-.486s-.218-.486-.486-.486-.486.218-.486.486v.003c.002.267.219.483.486.483z"/><path d="m8.077 5.225c-.268 0-.486.218-.486.486s.218.486.486.486.486-.218.486-.486c-.001-.268-.218-.485-.486-.486z"/><path d="m5.8 5.225c-.268 0-.486.218-.486.486s.217.486.486.486c.268 0 .486-.218.486-.486-.001-.268-.218-.485-.486-.486z"/><path d="m10.357 5.225c-.268 0-.486.218-.486.486s.218.486.486.486.486-.218.486-.486c-.001-.268-.218-.485-.486-.486z"/></g></svg>