<svg id="Layer_1" enable-background="new 0 0 24 24" height="512" viewBox="0 0 24 24" width="512" xmlns="http://www.w3.org/2000/svg"><g><path d="m4.262 15.866h-.001c-1.069.002-1.933.87-1.931 1.939s.87 1.933 1.939 1.931c1.068-.002 1.933-.87 1.931-1.938-.002-1.069-.869-1.934-1.938-1.932zm.002 3.096c-.001 0-.002 0-.003 0v.004c-.641 0-1.161-.52-1.161-1.161s.52-1.161 1.161-1.161c.638 0 1.157.516 1.161 1.154.002.641-.517 1.162-1.158 1.164z"/><path d="m18.968 19.736s.001 0 0 0c1.497-.001 2.71-1.214 2.709-2.71s-1.214-2.709-2.71-2.708-2.708 1.213-2.708 2.709 1.213 2.709 2.709 2.709zm0-4.644h.001c1.069.001 1.935.867 1.934 1.936s-.867 1.935-1.936 1.934c-1.068-.001-1.934-.867-1.934-1.935 0-1.069.866-1.935 1.935-1.935z"/><path d="m17.159 11.221h4.359l1.821 1.822c.151.151.396.152.547.001.073-.073.114-.172.114-.275v-2.322c0-.102-.041-.201-.113-.273l-1.162-1.162c-.072-.072-.171-.113-.273-.113h-2.307v-3.122h-.015v-1.522h.387c.212-.003.383-.175.383-.387v-1.549c-.001-.214-.173-.386-.387-.387h-10.059c-.214 0-.387.173-.387.387v1.549c0 .214.173.387.387.387h.327l-.663 4.643v.774h-1.137v-2.561c-.001-.862-.7-1.561-1.562-1.561-.221 0-.4.179-.4.4s.179.4.4.4c.42 0 .761.341.761.761v2.562h-1.98c-1.712 0-3.1 1.388-3.1 3.1v.939c-2.263.64-3.578 2.994-2.938 5.256.64 2.263 2.994 3.578 5.256 2.938 1.697-.48 2.923-1.957 3.082-3.714h5.578c.65 2.693 3.36 4.349 6.053 3.699s4.349-3.36 3.699-6.053-3.36-4.349-6.053-3.699c-2.258.545-3.846 2.569-3.839 4.892 0 .131.01.259.02.387h-.794v-3.29zm1.81 1.548c2.352 0 4.258 1.906 4.258 4.258s-1.906 4.258-4.258 4.258-4.258-1.906-4.258-4.258 1.906-4.258 4.258-4.258zm3.323-3.096.934.934v1.228l-1.275-1.274c-.072-.073-.17-.114-.273-.114h-6.193v-.774zm-11.451-6.966h9.289v.774h-9.289zm0 7.791 2-1.972.21-.21.21.21.13.13c.167.157.429.153.59-.01.031-.035.055-.076.07-.12.076-.158.044-.346-.08-.47l-1.25-1.24c-.169-.154-.431-.141-.585.028-.145.16-.143.404.005.562l.33.33-1.63 1.609v-.031l.723-5.058h7.792v4.642h-2.664c-1.808 0-1.981.173-1.981.387v1.548c0 .214.173.387.387.387h.745l-1.064.778h-3.938zm-6.967 2.272h.774v.794c-.128-.011-.256-.02-.387-.02s-.259.009-.387.02zm.392 8.514c-.002 0-.003 0-.005 0v.001c-1.924 0-3.483-1.559-3.483-3.483s1.559-3.483 3.483-3.483c1.922 0 3.481 1.557 3.483 3.479.002 1.923-1.555 3.484-3.478 3.486zm8.124-3.87h-3.89c-.036-.345-.114-.685-.232-1.011h4.122zm.159-3.8c-.1.073-.159.19-.159.314v1.67h-4.49c-.558-.922-1.444-1.598-2.48-1.894v-1.322c-.002-.212-.173-.383-.385-.384h-1.026c.327-.929 1.206-1.551 2.191-1.551h3.922v1.87c0 .25.202.452.452.452h3.144z"/><path d="m7.259 11.081c-.001 0-.003 0-.004 0-.229 0-.414.185-.414.414v1.775c-.011.228.165.423.393.434s.423-.165.434-.393c.001-.014.001-.027 0-.041v-1.772c.002-.228-.181-.415-.409-.417z"/><path d="m8.793 11.081c-.001 0-.002 0-.003 0-.229 0-.414.185-.414.414v1.775c0 .229.185.414.414.414s.414-.185.414-.414v-1.772c.002-.229-.182-.415-.411-.417z"/></g></svg>