<svg id="Layer_1" enable-background="new 0 0 24 24" height="512" viewBox="0 0 24 24" width="512" xmlns="http://www.w3.org/2000/svg"><g><path d="m7.634 2.463c-.336 0-.608.272-.608.608s.272.608.608.608.608-.272.608-.608-.272-.608-.608-.608z"/><path d="m16.355 2.463c-.336 0-.608.272-.608.608s.272.608.608.608.608-.272.608-.608-.272-.608-.608-.608z"/><path d="m4.06 2.691c-.321 0-.58.26-.58.58s.26.58.58.58.58-.259.58-.58-.259-.58-.58-.58z"/><path d="m19.94 2.691c-.321 0-.581.259-.581.58 0 .32.259.58.58.58.32 0 .58-.259.58-.58.001-.321-.258-.58-.579-.58z"/><path d="m22.06 5.401h-.38v-2.71c-.001-.64-.52-1.159-1.16-1.16h-2.52c-.078-.909-.877-1.582-1.786-1.504-.801.068-1.436.704-1.504 1.504h-5.42c-.078-.909-.877-1.582-1.786-1.505-.8.069-1.436.704-1.504 1.505h-2.52c-.64 0-1.16.519-1.16 1.16v2.71h-.38c-1.069 0-1.935.866-1.935 1.935s.866 1.935 1.935 1.935h.38v.39c.001.64.52 1.159 1.16 1.16h.39v2.71c0 .215.175.39.39.39h1.55c.212-.004.381-.178.38-.39v-.78h.39v1.15c-.006.021-.011.043-.013.065v1.068c0 .221.179.4.4.4h.389v.5c-.312.072-.6.222-.837.436-.384.351-.605.844-.613 1.364v2.1c0 .221.179.4.4.4h1.05v.335c-.929.216-1.507 1.145-1.291 2.075.216.929 1.146 1.507 2.075 1.291.784-.182 1.337-.881 1.336-1.686 0-.221-.179-.4-.4-.4s-.4.179-.4.4c-.003.511-.419.923-.93.92s-.923-.419-.92-.93c.003-.507.413-.917.92-.92.108-.003.211-.046.29-.12.075-.074.119-.174.12-.28v-.685h1.044c.221 0 .4-.179.4-.4v-2.1c-.002-.352-.106-.695-.3-.988-.087-.139-.194-.266-.316-.376-.235-.211-.52-.358-.828-.426v-.51h.38c.221 0 .4-.179.4-.4v-1.066c-.001-.056-.013-.111-.036-.162v-1.055h.46c.206.602.861.923 1.463.717.337-.115.602-.38.717-.717h.92c.206.602.861.923 1.463.717.337-.115.602-.38.717-.717h.53c.206.602.861.923 1.463.717.337-.115.602-.38.717-.717h.46v.78c-.001.212.168.386.38.39h1.55c.215 0 .39-.175.39-.39v-2.71h.39c.64-.001 1.159-.52 1.16-1.16v-.39h.38c1.069 0 1.935-.866 1.935-1.935s-.866-1.935-1.935-1.935zm-19.74 3.1h-.38c-.643 0-1.165-.521-1.165-1.165 0-.643.521-1.165 1.165-1.165h.38zm13.18-6.82c-.003-.051.004-.102.02-.15.064-.409.416-.71.83-.71.416-.001.771.3.84.71.016.048.023.099.02.15v3.2h-1.71zm-6.2.62h5.4v1.55h-5.4zm-2.51-.62c-.003-.051.004-.102.02-.15.068-.41.424-.711.84-.71.414 0 .766.301.83.71.016.048.023.099.02.15v3.2h-1.71zm-2.92 5.647v.012 2.7h-.39c-.21 0-.38-.17-.38-.38v-6.97c-.001-.212.168-.386.38-.39h2.51v1.55h-.96c-.211.002-.381.174-.38.384v.006 2.71h-.39c-.212-.003-.387.166-.39.378zm1.55 5.813h-.77v-5.42h.77zm1.16-4.257v3.1h-.39v-3.103h.39zm.77 5.001v-5.384c.001-.215.175-.389.39-.39.052 0 .104.01.153.03.145.06.239.203.237.36v6.134h-.763v-.667c-.003-.029-.008-.056-.017-.083zm1.457 3.956c0 .268-.007 1.332-.014 1.595h-2.087v-1.114c-.052-.388.013-.783.186-1.134.133-.204.331-.358.561-.438.086-.03.177-.047.268-.05h.025c.604.03 1.074.536 1.061 1.141zm.483-8.957v3.1h-.39v-3.103h.39zm1.55 3.487c0 .102-.041.199-.114.27-.154.145-.395.145-.549 0-.074-.07-.116-.167-.117-.269v-3.871c.001-.215.175-.389.39-.39.052 0 .104.01.152.03.146.059.241.202.238.36zm1.55-.39h-.78v-3.1h.78zm1.55.39c0 .102-.043.199-.117.269s-.171.11-.273.111c-.103.001-.202-.039-.276-.111-.073-.07-.114-.168-.114-.269v-3.87c-.003-.158.092-.301.238-.36.048-.02.1-.03.152-.03.215.001.389.175.39.39zm1.16-.39h-.39v-3.1h.39zm1.55.39c0 .102-.043.199-.117.269-.154.146-.396.146-.55 0-.072-.071-.113-.168-.113-.269v-3.87c-.002-.157.092-.3.237-.36.049-.02.101-.03.153-.03.215.001.389.175.39.39zm1.16-.39h-.39v-3.1h.39zm0-4.647v.006.77h-.46c-.213-.602-.873-.918-1.475-.705-.329.116-.589.375-.705.705h-.53c-.213-.602-.873-.918-1.475-.705-.329.116-.589.375-.705.705h-.92c-.213-.602-.873-.918-1.475-.705-.33.117-.589.376-.705.706h-.53c-.213-.602-.873-.918-1.475-.705-.329.116-.589.375-.705.705h-.46v-.77c.004-.211-.163-.385-.374-.39-.002 0-.004 0-.006 0h-.39v-2.32h.57v.65c0 .221.179.4.4.4h2.51c.221 0 .4-.179.4-.4v-.65h5.4v.65c0 .221.179.4.4.4h2.51c.221 0 .4-.179.4-.4v-.65h.57v2.32h-.39c-.211.001-.381.172-.38.383zm1.54 5.807h-.77v-5.42h.77zm1.55-3.48c0 .21-.17.38-.38.38h-.39v-2.7c.003-.212-.166-.387-.378-.39-.004 0-.008 0-.012 0h-.39v-2.71c.004-.211-.163-.385-.374-.39-.002 0-.004 0-.006 0h-.96v-1.55h2.51c.212.004.381.178.38.39zm1.16-1.16h-.38v-2.33h.38c.643 0 1.165.521 1.165 1.165 0 .643-.521 1.164-1.165 1.165z"/><path d="m7.277 18.147c0 .26.212.471.472.47.26 0 .471-.212.47-.472s-.212-.471-.472-.47c-.125 0-.245.05-.333.139-.088.088-.137.208-.137.333z"/></g></svg>