<svg id="Layer_1" enable-background="new 0 0 24 24" height="512" viewBox="0 0 24 24" width="512" xmlns="http://www.w3.org/2000/svg"><g><path d="m21.016 18.882c-.828 0-1.5.672-1.5 1.5.003.827.673 1.497 1.5 1.5.828 0 1.5-.672 1.5-1.5s-.672-1.5-1.5-1.5zm.002 2.174c-.374.001-.678-.303-.679-.677 0-.001 0-.001 0-.002.002-.373.304-.674.677-.675v-.002c.374-.001.678.303.679.677s-.303.678-.677.679z"/><path d="m9.926 18.877c-.829.001-1.501.671-1.505 1.5 0 .828.672 1.5 1.5 1.5s1.5-.672 1.5-1.5c0-.827-.669-1.497-1.495-1.5zm0 2.179c-.374.001-.678-.303-.679-.677s.302-.679.677-.679h.002c.374.001.676.303.677.677 0 .374-.303.678-.677.679z"/><path d="m17.318 18.882c-.828 0-1.5.672-1.5 1.5.003.827.673 1.497 1.5 1.5.828 0 1.5-.672 1.5-1.5s-.671-1.5-1.5-1.5zm.002 2.174c-.374.001-.678-.303-.679-.677 0-.001 0-.001 0-.002.002-.373.304-.674.677-.675v-.002c.374-.001.678.303.679.677s-.302.678-.677.679z"/><path d="m13.622 18.882c-.828 0-1.5.672-1.5 1.5.004.827.673 1.496 1.5 1.5.828 0 1.5-.672 1.5-1.5s-.672-1.5-1.5-1.5zm.002 2.174c-.374.001-.678-.303-.679-.677 0-.001 0-.001 0-.002.002-.373.304-.674.677-.675v-.002c.374-.001.678.303.679.677 0 .374-.303.678-.677.679z"/><path d="m2.724 13.864c0-.253-.205-.458-.458-.458s-.458.205-.458.458c.001 1.075.872 1.946 1.947 1.947.253 0 .458-.205.458-.458s-.205-.458-.458-.458c-.57-.001-1.031-.462-1.031-1.031z"/><path d="m21.122 17.415c-.036-.001-.073-.001-.109 0h-1.012v-.883l3.583.004c.212.003.387-.166.39-.378 0-.004 0-.008 0-.012v-2.32c-.005-1.344-.991-2.483-2.32-2.68l-.133-.005v-1.687c0-.42.341-.761.761-.761.221 0 .4-.179.4-.4s-.179-.4-.4-.4c-.862.001-1.561.699-1.562 1.561v1.662h-.616v-1.16c0-.215-.175-.39-.39-.39h-3.09c-.215 0-.39.175-.39.39v1.16h-.78v-2.66c.007-.23-.174-.423-.404-.43-.002 0-.004 0-.006 0-.28 0-.68-.01-1.13-.01-.87 0-1.93.01-2.73.04l-5.11-7.2c-.134-.181-.378-.24-.58-.14l-1.95 1.01c-.152.081-.248.238-.25.41v7.98c-.074.008-.148.022-.22.04-.236.037-.468.101-.69.19-1.946.756-2.91 2.947-2.154 4.893.372.957 1.117 1.721 2.064 2.117h.01c.459.193.952.291 1.45.29h.02c2.087-.01 3.771-1.711 3.76-3.798-.009-1.902-1.432-3.501-3.32-3.732v-6.17l.43.79 3.85 7.066v4.34c-.004.211.163.385.374.39h.006 2.065v.883h-1.012c-1.634-.03-2.983 1.27-3.013 2.904s1.27 2.983 2.904 3.013c.036.001.073.001.109 0h11.087c1.634.03 2.983-1.27 3.013-2.904.029-1.634-1.271-2.983-2.905-3.013zm-14.507-3.549c-.003 1.58-1.285 2.858-2.865 2.855s-2.858-1.285-2.855-2.865c.002-1.008.534-1.94 1.4-2.455.2-.131.419-.229.65-.29.262-.08.536-.121.81-.12 1.583.005 2.863 1.292 2.86 2.875zm10.39-3.52h2.32v.77h-2.32zm-6.19-1.55h.9 2.97v2.76c.002.187.153.338.34.34h2.757v2.319h.774v-2.319h.774v2.319h.774v-2.319h1.161c1.068-.004 1.936.858 1.94 1.926v.004.39h-13.94v-3.92c.018-.607.39-1.146.95-1.38.189-.082.393-.123.6-.12zm-5.87-5.42-.56-1.05 1.17-.61 1.22 1.71h-1.8zm.529.96h1.95l.97 1.38h-2.17zm1.25 2.29h2.32l.98 1.376h-2.55zm2.13 2.53c-.157.244-.265.515-.32.8l-.56-1.04h1.04c-.059.076-.112.156-.16.24zm.411 6.61v-.78h13.94v.78zm9.937.77v.883h-7.462v-.883zm1.811 5.974h-11.086c-1.178.026-2.153-.909-2.179-2.086s.909-2.153 2.086-2.179c.031-.001.062-.001.092 0h11.087c1.177.001 2.132.955 2.134 2.132-.001 1.178-.956 2.132-2.134 2.133z"/><path d="m10.814 10.344h2.322v3.871h.775v-4.258c0-.214-.173-.387-.387-.387h-2.71c-.427-.001-.773.345-.774.772v.002 3.871h.774z"/></g></svg>