<svg id="Capa_1" enable-background="new 0 0 512 512" height="512" viewBox="0 0 512 512" width="512" xmlns="http://www.w3.org/2000/svg"><g><path d="m54.369 458.577c0 11.026 8.97 19.996 19.996 19.996h246.117c11.026 0 19.997-8.97 19.997-19.996s-8.97-19.996-19.997-19.996h-246.117c-11.026 0-19.996 8.97-19.996 19.996zm19.996-4.996h246.117c2.755 0 4.997 2.241 4.997 4.996s-2.241 4.996-4.997 4.996h-246.117c-2.755 0-4.996-2.241-4.996-4.996s2.241-4.996 4.996-4.996z"/><path d="m223.16 179.073h-21.97c-15.251 0-27.66 12.408-27.66 27.66v56.987c0 13.296 10.817 24.114 24.113 24.114h12.526c7.355 0 13.34 5.989 13.34 13.35v25.746c0 13.296 10.817 24.114 24.114 24.114h30.396c9.375 0 15.103-5.174 17.683-8.258.004-.005.008-.009.012-.014 2.571-3.088 6.636-9.645 4.976-18.866l-17.1-94.37c-5.299-29.24-30.713-50.463-60.43-50.463zm62.769 147.499c.551 3.06-.64 5.276-1.738 6.597-1.102 1.313-3.064 2.874-6.17 2.874h-30.396c-5.025 0-9.114-4.088-9.114-9.114v-25.746c0-15.632-12.713-28.35-28.34-28.35h-12.526c-5.025 0-9.113-4.088-9.113-9.114v-56.987c0-6.981 5.679-12.66 12.66-12.66h21.97c22.458 0 41.666 16.039 45.67 38.137z"/><path d="m511.837 265.197-17.207-81.346c4.381-7.87 6.69-16.739 6.69-25.849 0-14.223-5.535-27.592-15.586-37.643l-51.11-51.11c-2.929-2.929-7.678-2.929-10.606 0-2.929 2.929-2.929 7.678 0 10.606l51.11 51.11c7.218 7.218 11.193 16.82 11.193 27.037 0 .366-.028.729-.039 1.094-6.157-8.265-16.007-13.523-26.774-13.523-17.976 0-32.609 14.07-33.315 32.032l-.45 11.445c-1.655-1.196-3.225-2.528-4.698-4.001l-104.333-104.341c-7.225-7.221-11.205-16.823-11.205-27.037 0-10.21 3.977-19.81 11.196-27.035l.01-.01c7.221-7.221 16.823-11.198 27.037-11.198s19.815 3.977 27.037 11.198l32.05 32.05c2.929 2.929 7.678 2.929 10.606 0 2.929-2.929 2.929-7.678 0-10.606l-32.05-32.05c-10.054-10.055-23.423-15.593-37.643-15.593s-27.589 5.537-37.643 15.592c-.005.005-.01.01-.015.015l-130.042 130.043h-26.499c-19.528 0-36.854 13.13-42.136 31.93l-26.4 93.974h-24.983c-30.896-.001-56.032 25.135-56.032 56.032s25.136 56.032 56.032 56.032h63.305v21.538h-29.967c-4.142 0-7.5 3.358-7.5 7.5s3.358 7.5 7.5 7.5h231.11c10.152 0 19.694 3.95 26.867 11.123 7.179 7.179 11.133 16.721 11.133 26.867 0 20.953-17.047 38-38 38h-246.11c-10.154 0-19.695-3.953-26.87-11.137-7.177-7.168-11.13-16.709-11.13-26.863 0-16.223 10.303-30.666 25.638-35.938 3.917-1.347 6.001-5.614 4.654-9.531s-5.613-6.001-9.531-4.654c-21.39 7.354-35.761 27.496-35.761 50.123 0 14.165 5.515 27.474 15.523 37.47 10.002 10.015 23.312 15.53 37.477 15.53h246.11c29.224 0 53-23.776 53-53 0-14.153-5.514-27.461-15.527-37.473-10.006-10.006-23.314-15.517-37.473-15.517h-44.969v-21.538h2.513c16.656 0 32.331-7.332 43.007-20.116s15.097-29.516 12.127-45.905l-17.097-94.366c-3.134-17.296-10.859-32.755-21.765-45.245l49.451-49.451 66.689 66.695c4.319 4.319 9.228 7.79 14.638 10.375l-2.091 53.218h-30.522c-3.541-19.353-20.529-34.066-40.889-34.066-4.142 0-7.5 3.358-7.5 7.5v49.675c0 46.297 37.666 83.963 83.963 83.963s83.965-37.668 83.965-83.965v-15.608c0-.533-.057-1.051-.163-1.552zm-251.326 140.384h-126.174v-21.536h126.174zm57.888-84.883c2.174 12.002-1.062 24.254-8.881 33.616-7.818 9.362-19.297 14.731-31.494 14.731h-221.992c-22.625 0-41.032-18.407-41.032-41.033s18.407-41.032 41.032-41.032h30.667c3.361 0 6.312-2.236 7.221-5.472l27.937-99.445c3.471-12.357 14.86-20.987 27.695-20.987h73.61c38.427 0 71.289 27.444 78.14 65.255zm-34.822-152.778c-16.48-13.72-37.624-21.843-60.415-21.843h-25.899l93.265-93.265c-.005.287-.021.572-.021.86 0 14.222 5.541 27.591 15.599 37.644l27.036 27.039zm156.684 33.658c.007-.112.011-.224.013-.336l.906-23.047c.388-9.881 8.438-17.621 18.327-17.621 8.615 0 16.161 6.117 17.944 14.545l17.797 84.13h-57.252zm56.739 80.779c0 38.026-30.937 68.963-68.963 68.963s-68.963-30.937-68.963-68.963v-41.097c11.008 3.245 19.066 13.444 19.066 25.489 0 4.142 3.358 7.5 7.5 7.5h111.36z"/><path d="m345.31 27.372c-14.744 0-26.74 11.995-26.74 26.74s11.996 26.74 26.74 26.74 26.74-11.995 26.74-26.74-11.996-26.74-26.74-26.74zm0 38.48c-6.473 0-11.74-5.266-11.74-11.74s5.267-11.74 11.74-11.74 11.74 5.266 11.74 11.74-5.267 11.74-11.74 11.74z"/><path d="m165.922 294.952c-5.099 0-9.772 1.84-13.404 4.884-3.632-3.044-8.306-4.884-13.404-4.884s-9.772 1.84-13.404 4.884c-3.632-3.044-8.306-4.884-13.404-4.884-11.527 0-20.904 9.377-20.904 20.904v21.683c0 11.527 9.377 20.904 20.904 20.904 5.099 0 9.772-1.84 13.404-4.884 3.632 3.044 8.306 4.884 13.404 4.884s9.772-1.84 13.404-4.884c3.632 3.044 8.306 4.884 13.404 4.884 11.527 0 20.904-9.377 20.904-20.904v-21.683c0-11.526-9.377-20.904-20.904-20.904zm-53.617 48.491c-3.256 0-5.904-2.648-5.904-5.904v-21.683c0-3.256 2.648-5.904 5.904-5.904s5.904 2.648 5.904 5.904v21.683c0 3.255-2.648 5.904-5.904 5.904zm26.808 0c-3.256 0-5.904-2.648-5.904-5.904v-21.683c0-3.256 2.648-5.904 5.904-5.904s5.904 2.648 5.904 5.904v21.683c.001 3.255-2.648 5.904-5.904 5.904zm32.713-5.904c0 3.256-2.648 5.904-5.904 5.904s-5.904-2.648-5.904-5.904v-21.683c0-3.256 2.648-5.904 5.904-5.904s5.904 2.648 5.904 5.904z"/></g></svg>