<svg id="Capa_1" enable-background="new 0 0 512 512" height="512" viewBox="0 0 512 512" width="512" xmlns="http://www.w3.org/2000/svg"><g><path d="m499.383 377.645c-8.136-8.136-18.951-12.616-30.453-12.616h-55.912l-91.408-33.368 101.662-37.106c8.839-3.226 14.778-11.719 14.778-21.136 0-9.416-5.939-17.91-14.778-21.135l-101.664-37.107 96.824-35.346h16.108c20.584 0 37.33-16.746 37.33-37.33 0-9.961-3.879-19.333-10.932-26.397-7.056-7.043-16.431-10.922-26.398-10.922h-1.74v-42.99h4.911c12.406 0 22.5-10.093 22.5-22.5s-10.094-22.5-22.5-22.5h-363.422c-12.406 0-22.5 10.093-22.5 22.5s10.094 22.5 22.5 22.5h4.911v42.988h-1.74c-20.584 0-37.33 16.742-37.33 37.32 0 9.968 3.879 19.343 10.932 26.408 7.056 7.043 16.431 10.922 26.398 10.922h16.109l96.811 35.347-101.651 37.106c-8.839 3.226-14.778 11.719-14.778 21.135 0 9.417 5.939 17.911 14.777 21.136l101.649 37.107-91.393 33.368h-55.914c-23.749-.001-43.07 19.321-43.07 43.069 0 11.514 4.482 22.331 12.617 30.454 8.136 8.136 18.951 12.616 30.453 12.616h8.547c.013 24.065 19.595 43.64 43.663 43.64s43.65-19.574 43.664-43.638h175.686c4.143 0 7.5-3.358 7.5-7.5s-3.357-7.5-7.5-7.5h-178.33c-6.124-16.724-22.2-28.691-41.019-28.691-18.818 0-34.893 11.966-41.018 28.689h-11.193c-7.495 0-14.544-2.92-19.851-8.227-5.301-5.292-8.22-12.34-8.22-19.843 0-15.478 12.592-28.07 28.07-28.07h425.861c7.495 0 14.544 2.92 19.847 8.223s8.224 12.352 8.224 19.847c0 15.478-12.592 28.07-28.07 28.07h-11.192c-6.125-16.723-22.2-28.689-41.018-28.689-18.819 0-34.895 11.967-41.019 28.691h-31.07c-4.143 0-7.5 3.358-7.5 7.5s3.357 7.5 7.5 7.5h28.426c.014 24.064 19.596 43.638 43.664 43.638s43.65-19.575 43.664-43.64h8.546c23.749 0 43.07-19.321 43.07-43.07-.002-11.501-4.482-22.316-12.619-30.453zm-404.103 44.834c15.806 0 28.665 12.859 28.665 28.665s-12.859 28.665-28.665 28.665-28.664-12.859-28.664-28.665c0-1.997.207-3.947.597-5.83.013-.06.029-.118.041-.178 2.77-12.931 14.281-22.657 28.026-22.657zm322.849-156.105c2.943 1.074 4.921 3.905 4.921 7.044s-1.978 5.971-4.921 7.045l-118.392 43.213-21.86-7.98 96.506-35.232c2.959-1.081 4.928-3.895 4.928-7.045s-1.969-5.965-4.928-7.045l-96.506-35.232 21.859-7.98zm-162.125-27.25 93.936 34.294-93.935 34.294-93.944-34.294zm161.796-133.944h-15v-42.988h15zm-205.73-42.988v42.988h-15v-42.988zm15 0h57.859v42.988h-57.859zm72.86 0h15v42.988h-15zm30 0h57.87v42.988h-57.87zm-263.141-22.5c0-4.136 3.364-7.5 7.5-7.5h363.422c4.136 0 7.5 3.364 7.5 7.5s-3.364 7.5-7.5 7.5h-363.422c-4.136 0-7.5-3.364-7.5-7.5zm27.411 22.5h15v42.988h-15zm-32.532 96.109c-4.216-4.224-6.538-9.835-6.538-15.801 0-12.307 10.018-22.32 22.33-22.32h61.11c4.143 0 7.5-3.358 7.5-7.5s-3.357-7.5-7.5-7.5h-14.37v-42.988h57.87v42.988h-13.5c-4.143 0-7.5 3.358-7.5 7.5s3.357 7.5 7.5 7.5h265.97c5.966 0 11.577 2.322 15.792 6.529 4.216 4.224 6.538 9.832 6.538 15.791 0 12.313-10.018 22.33-22.33 22.33h-357.08c-5.966 0-11.577-2.322-15.792-6.529zm194.334 32.923-31.211-11.394h62.421zm-74.954-11.394 53.083 19.379-21.876 7.987-74.951-27.366zm-92.098 93.588c0-3.14 1.978-5.97 4.921-7.044l237.081-86.543h43.736l-237.07 86.542c-2.959 1.081-4.928 3.895-4.928 7.045s1.969 5.965 4.928 7.045l231.655 84.565h-43.746l-66.939-24.436c-.05-.018-.099-.037-.149-.054l-164.568-60.075c-2.943-1.074-4.921-3.905-4.921-7.045zm192.833 91.61h-51.576l25.788-9.414zm-69.537-25.384 21.877 7.986-47.66 17.398h-43.744zm204.474 140.164c-15.806 0-28.665-12.859-28.665-28.665s12.859-28.665 28.665-28.665c13.745 0 25.256 9.726 28.026 22.656.012.06.028.119.041.178.391 1.883.597 3.833.597 5.83 0 15.807-12.859 28.666-28.664 28.666z"/></g></svg>