<svg id="Capa_1" enable-background="new 0 0 512 512" height="512" viewBox="0 0 512 512" width="512" xmlns="http://www.w3.org/2000/svg"><g><path d="m365.32 40.283c37.888 27.655 63.732 68.08 72.775 113.827.706 3.573 3.841 6.047 7.35 6.047.481 0 .972-.047 1.462-.144 4.063-.803 6.707-4.749 5.903-8.812-9.775-49.455-37.706-93.15-78.646-123.034-3.347-2.442-8.039-1.71-10.479 1.636-2.443 3.346-1.71 8.038 1.635 10.48z"/><path d="m69.331 140.049c.742.231 1.492.34 2.229.34 3.197 0 6.16-2.061 7.159-5.274 16.256-52.26 54.537-94.481 105.029-115.838 3.814-1.614 5.6-6.014 3.985-9.829-1.614-3.816-6.015-5.6-9.829-3.986-54.565 23.08-95.938 68.713-113.507 125.198-1.23 3.955.979 8.159 4.934 9.389z"/><path d="m482.87 434.648v-165.817c0-19.525-13.991-35.836-32.47-39.448v-11.021c0-16.524-11.33-30.451-26.627-34.417-1.101-29.278-9.779-57.67-25.279-82.481-16.162-25.872-39.04-46.876-66.16-60.742-3.685-1.885-8.207-.425-10.092 3.264-1.886 3.688-.425 8.206 3.264 10.092 49.188 25.148 80.538 73.985 83.19 128.734h-61.937c-3.827-46.715-43.068-83.56-90.759-83.56s-86.932 36.845-90.759 83.56h-61.955c3.923-80.839 70.919-145.401 152.714-145.401 14.819 0 29.461 2.113 43.519 6.281 3.975 1.178 8.146-1.088 9.322-5.059 1.178-3.971-1.087-8.145-5.059-9.323-15.442-4.578-31.519-6.899-47.782-6.899-90.448 0-164.407 71.893-167.768 161.533-15.3 3.964-26.633 17.892-26.633 34.418v11.021c-18.479 3.612-32.47 19.923-32.47 39.448v112.64c0 4.142 3.357 7.5 7.5 7.5s7.5-3.358 7.5-7.5v-112.64c0-13.896 11.301-25.2 25.19-25.2h373.361c13.89 0 25.19 11.305 25.19 25.2v165.042h-423.74v-22.402c0-4.142-3.357-7.5-7.5-7.5s-7.5 3.358-7.5 7.5v23.177c-16.613 3.471-29.13 18.227-29.13 35.855 0 20.198 16.432 36.63 36.63 36.63h438.74c20.198 0 36.63-16.432 36.63-36.63 0-17.628-12.517-32.385-29.13-35.855zm-226.87-320.395c39.414 0 71.917 30.128 75.697 68.56h-31.171c-3.584-21.343-22.18-37.66-44.526-37.66s-40.942 16.317-44.526 37.66h-31.171c3.78-38.432 36.283-68.56 75.697-68.56zm29.216 68.56h-58.431c3.343-13.014 15.174-22.66 29.216-22.66s25.872 9.646 29.215 22.66zm-188.076 15h317.72c11.326 0 20.54 9.219 20.54 20.55v10.269h-358.8v-10.269c0-11.332 9.213-20.55 20.54-20.55zm378.23 294.32h-438.74c-11.927 0-21.63-9.703-21.63-21.63s9.703-21.63 21.63-21.63h438.74c11.927 0 21.63 9.703 21.63 21.63 0 11.926-9.703 21.63-21.63 21.63z"/><path d="m308.918 73.997c0 4.142 3.357 7.5 7.5 7.5s7.5-3.358 7.5-7.5v-.5c0-4.142-3.357-7.5-7.5-7.5s-7.5 3.358-7.5 7.5z"/><path d="m341.611 90.309v-.5c0-4.142-3.357-7.5-7.5-7.5s-7.5 3.358-7.5 7.5v.5c0 4.142 3.357 7.5 7.5 7.5s7.5-3.358 7.5-7.5z"/><path d="m306.282 94.327v.5c0 4.142 3.357 7.5 7.5 7.5s7.5-3.358 7.5-7.5v-.5c0-4.142-3.357-7.5-7.5-7.5s-7.5 3.358-7.5 7.5z"/><path d="m118.801 162.344v.5c0 4.142 3.357 7.5 7.5 7.5s7.5-3.358 7.5-7.5v-.5c0-4.142-3.357-7.5-7.5-7.5s-7.5 3.358-7.5 7.5z"/><path d="m148.859 139.503v-.5c0-4.142-3.357-7.5-7.5-7.5s-7.5 3.358-7.5 7.5v.5c0 4.142 3.357 7.5 7.5 7.5s7.5-3.358 7.5-7.5z"/><path d="m151.9 167.709c4.143 0 7.5-3.358 7.5-7.5v-.5c0-4.142-3.357-7.5-7.5-7.5s-7.5 3.358-7.5 7.5v.5c0 4.142 3.358 7.5 7.5 7.5z"/><path d="m424.995 424.053c18.441 0 33.444-15.003 33.444-33.445v-95.631c0-18.441-15.003-33.445-33.444-33.445h-39.593c-18.441 0-33.444 15.003-33.444 33.445v95.631c0 18.442 15.003 33.445 33.444 33.445zm-58.037-33.445v-95.631c0-10.17 8.274-18.445 18.444-18.445h39.593c10.17 0 18.444 8.274 18.444 18.445v95.631c0 10.17-8.274 18.445-18.444 18.445h-39.593c-10.17 0-18.444-8.275-18.444-18.445z"/><path d="m405.198 337.276c15.346 0 27.83-12.484 27.83-27.829s-12.484-27.829-27.83-27.829c-15.345 0-27.829 12.484-27.829 27.829s12.485 27.829 27.829 27.829zm0-40.658c7.074 0 12.83 5.755 12.83 12.829s-5.756 12.829-12.83 12.829-12.829-5.755-12.829-12.829 5.755-12.829 12.829-12.829z"/><path d="m405.198 403.968c15.346 0 27.83-12.484 27.83-27.829s-12.484-27.829-27.83-27.829c-15.345 0-27.829 12.484-27.829 27.829s12.485 27.829 27.829 27.829zm0-40.659c7.074 0 12.83 5.755 12.83 12.829s-5.756 12.829-12.83 12.829-12.829-5.755-12.829-12.829 5.755-12.829 12.829-12.829z"/><path d="m125.642 375.715v-65.835c0-11.527-9.378-20.904-20.904-20.904s-20.904 9.378-20.904 20.904v65.835c0 11.527 9.378 20.904 20.904 20.904s20.904-9.378 20.904-20.904zm-26.809 0v-65.835c0-3.256 2.648-5.904 5.904-5.904s5.904 2.649 5.904 5.904v65.835c0 3.256-2.648 5.904-5.904 5.904s-5.904-2.649-5.904-5.904z"/><path d="m177.895 375.715v-65.835c0-11.527-9.378-20.904-20.904-20.904s-20.904 9.378-20.904 20.904v65.835c0 11.527 9.378 20.904 20.904 20.904s20.904-9.378 20.904-20.904zm-26.809 0v-65.835c0-3.256 2.648-5.904 5.904-5.904s5.904 2.649 5.904 5.904v65.835c0 3.256-2.648 5.904-5.904 5.904s-5.904-2.649-5.904-5.904z"/><path d="m230.146 375.715v-65.835c0-11.527-9.378-20.904-20.904-20.904s-20.904 9.378-20.904 20.904v65.835c0 11.527 9.378 20.904 20.904 20.904s20.904-9.378 20.904-20.904zm-26.808 0v-65.835c0-3.256 2.648-5.904 5.904-5.904s5.904 2.649 5.904 5.904v65.835c0 3.256-2.648 5.904-5.904 5.904s-5.904-2.649-5.904-5.904z"/></g></svg>