<svg id="Capa_1" enable-background="new 0 0 512 512" height="512" viewBox="0 0 512 512" width="512" xmlns="http://www.w3.org/2000/svg"><g><path d="m228.859 124.169c15.866 0 28.774-12.908 28.774-28.775 0-15.866-12.908-28.774-28.774-28.774s-28.774 12.908-28.774 28.774c0 15.867 12.908 28.775 28.774 28.775zm0-42.549c7.595 0 13.774 6.179 13.774 13.774 0 7.596-6.179 13.775-13.774 13.775s-13.774-6.179-13.774-13.775c0-7.595 6.179-13.774 13.774-13.774z"/><path d="m468.93 401.371h-274.82v-10.613c0-4.73-.417-9.443-1.238-14.008-.733-4.077-4.632-6.79-8.71-6.053-4.077.734-6.787 4.633-6.053 8.71.664 3.69 1.001 7.509 1.001 11.351v10.61h-128.54v-10.61c0-35.438 28.832-64.27 64.27-64.27 21.262 0 41.122 10.5 53.125 28.088 2.335 3.421 7.001 4.302 10.423 1.967 3.421-2.335 4.302-7.001 1.967-10.423-4.482-6.567-9.858-12.327-15.897-17.174.506-2.885.762-5.814.762-8.756v-110.644l57.697-43.515c1.961.164 3.94.268 5.942.268 31.762 0 58.713-20.992 67.708-49.831h12.973v2.08c0 10.7 7.335 19.717 17.238 22.286v28.806c0 13.627 11.087 24.714 24.714 24.714h14.986v28.075c0 13.627 11.087 24.714 24.714 24.714s24.714-11.087 24.714-24.714v-28.075h14.987c13.627 0 24.714-11.087 24.714-24.714v-28.807c9.906-2.57 17.242-11.587 17.242-22.285v-53.04c0-12.693-10.327-23.02-23.02-23.02h-21.97c-4.142 0-7.5 3.358-7.5 7.5s3.358 7.5 7.5 7.5h21.97c4.422 0 8.02 3.598 8.02 8.02v53.04c0 4.422-3.598 8.02-8.02 8.02h-117.279c-4.417 0-8.01-3.598-8.01-8.02v-53.04c0-4.422 3.593-8.02 8.01-8.02h65.31c4.142 0 7.5-3.358 7.5-7.5s-3.358-7.5-7.5-7.5h-65.31c-12.688 0-23.01 10.327-23.01 23.02v2.08h-15.462c-10.834-25.314-35.986-43.098-65.218-43.098-23.099 0-43.648 11.107-56.602 28.256l-53.085.744c-39.179.56-71.053 32.845-71.053 71.969 0 2.302.112 4.658.335 7.023 1.65 17.034-4.345 33.739-16.448 45.833l-1.35 1.35c-12.718 12.718-20.186 29.617-21.027 47.585-.841 17.966 5.013 35.49 16.484 49.342l38.421 46.391c.111 2.021.337 4.03.688 6.018-18.063 14.542-29.652 36.815-29.652 61.756v11.281c-20.185 3.561-35.571 21.213-35.571 42.403 0 23.749 19.321 43.07 43.07 43.07h425.86c23.749 0 43.07-19.321 43.07-43.07s-19.321-43.07-43.07-43.07zm-68.023-178.942c0 5.356-4.358 9.714-9.714 9.714s-9.714-4.358-9.714-9.714v-28.075h19.429v28.075zm29.987-43.075h-79.402c-5.356 0-9.714-4.358-9.714-9.714v-28.072h98.831v28.072c-.001 5.356-4.359 9.714-9.715 9.714zm-277.69 20.467c-1.879 1.417-2.984 3.634-2.984 5.988v114.017c-10.832-5.404-22.909-8.338-35.38-8.338-12.714 0-24.729 3.026-35.39 8.369v-135.418c0-11.045 5.265-21.605 14.086-28.252l65.364-49.301c4.125 25.198 21.574 45.963 44.857 54.808zm156.336-117.234v18.88h-10.054c.171-2.004.278-4.026.278-6.074 0-4.374-.419-8.649-1.181-12.807h10.957zm-80.681-43.098c30.826 0 55.905 25.079 55.905 55.905s-25.079 55.905-55.905 55.905-55.905-25.079-55.905-55.905 25.079-55.905 55.905-55.905zm-187.596 150.783 1.348-1.348c15.286-15.274 22.858-36.374 20.775-57.868-.177-1.879-.267-3.762-.267-5.597 0-30.97 25.241-56.527 56.265-56.971l44.131-.618c-2.733 6.465-4.527 13.419-5.226 20.687l-73.784 55.652c-12.559 9.463-20.057 24.502-20.057 40.23v114.926l-26.784-32.34c-18.89-22.813-17.344-55.81 3.599-76.753zm427.667 282.239h-425.86c-15.478 0-28.07-12.592-28.07-28.07s12.592-28.07 28.07-28.07h425.86c15.478 0 28.07 12.592 28.07 28.07 0 15.477-12.592 28.07-28.07 28.07z"/></g></svg>