<svg id="Capa_1" enable-background="new 0 0 512 512" height="512" viewBox="0 0 512 512" width="512" xmlns="http://www.w3.org/2000/svg"><g><path d="m54.369 431.986c0 11.026 8.97 19.996 19.996 19.996h246.117c11.026 0 19.997-8.97 19.997-19.996s-8.97-19.996-19.997-19.996h-246.117c-11.026 0-19.996 8.97-19.996 19.996zm271.11 0c0 2.755-2.241 4.996-4.997 4.996h-246.117c-2.755 0-4.996-2.241-4.996-4.996s2.241-4.996 4.996-4.996h246.117c2.756 0 4.997 2.241 4.997 4.996z"/><path d="m246.825 324.452h7.951c15.254 0 27.664-12.41 27.664-27.664v-112.306c0-20.551-16.719-37.27-37.27-37.27h-60.14c-20.551 0-37.27 16.719-37.27 37.27v29.6c0 15.362 12.498 27.86 27.86 27.86 7.091 0 12.86 5.769 12.86 12.86v11.305c0 32.172 26.173 58.345 58.345 58.345zm-71.205-97.51c-7.091 0-12.86-5.769-12.86-12.86v-29.6c0-12.28 9.99-22.27 22.27-22.27h60.14c12.28 0 22.27 9.99 22.27 22.27v112.306c0 6.983-5.681 12.664-12.664 12.664h-7.951c-23.9 0-43.345-19.444-43.345-43.345v-11.305c0-15.362-12.498-27.86-27.86-27.86z"/><path d="m512 278.312v-63.81c0-.333-.029-.658-.071-.979-.402-5.871-2.039-11.882-4.301-17.323l-56.51-136.298c-5.443-13.139-15.678-23.37-28.819-28.808-13.138-5.437-27.609-5.433-40.752.011l-191.526 79.409c-2.509 1.039-4.952 2.286-7.295 3.708h-12.696c-38.747 0-70.27 31.523-70.27 70.27v14.1h-14.26c-15.94 0-31.491 4.417-44.972 12.775-3.521 2.183-4.605 6.806-2.422 10.327 2.183 3.52 6.805 4.604 10.327 2.422 11.105-6.885 23.923-10.524 37.068-10.524h21.76c4.142 0 7.5-3.358 7.5-7.5v-21.6c0-30.476 24.794-55.27 55.27-55.27h75.14c30.476 0 55.27 24.794 55.27 55.27v128.69c0 16.14-13.13 29.27-29.272 29.27l-232.759.078c-12.908 0-23.41-10.506-23.41-23.42v-35.02c0-15.062 4.681-29.428 13.535-41.545 2.444-3.344 1.714-8.037-1.63-10.48-3.345-2.445-8.038-1.714-10.48 1.63-10.745 14.703-16.425 32.13-16.425 50.395v35.02c0 21.185 17.231 38.42 38.413 38.42l80.924-.028v21.487h-44.972c-29.222 0-52.996 23.774-52.996 52.996s23.774 52.996 52.996 52.996h246.117c29.222 0 52.996-23.774 52.996-52.996s-23.774-52.996-52.996-52.996h-44.972v-21.755c22.381-2.189 39.929-21.109 39.929-44.055v-128.689c0-3.528-.268-6.994-.773-10.384l58.49-24.245 25.43 61.328c-13.572 6.679-22.937 20.65-22.937 36.773v30.35c0 18.556 8.425 35.964 22.515 47.525-2.668 3.634-4.249 8.114-4.249 12.958 0 10.845 7.911 19.873 18.265 21.629v84.057c0 1.592.507 3.143 1.447 4.428l24.14 33c1.412 1.93 3.661 3.071 6.052 3.072h.001c2.392 0 4.64-1.141 6.052-3.071l24.15-33c.941-1.285 1.448-2.836 1.448-4.429v-26.69c0-4.142-3.358-7.5-7.5-7.5s-7.5 3.358-7.5 7.5v24.239l-16.649 22.75-16.641-22.75v-81.29h33.29v27.05c0 4.142 3.358 7.5 7.5 7.5s7.5-3.358 7.5-7.5v-27.367c10.353-1.756 18.263-10.783 18.263-21.628 0-4.844-1.581-9.323-4.249-12.957 14.091-11.561 22.516-28.97 22.516-47.526zm-153.521 153.674c0 20.951-17.045 37.996-37.996 37.996h-246.118c-20.951 0-37.996-17.045-37.996-37.996s17.045-37.996 37.996-37.996h246.117c20.952 0 37.997 17.045 37.997 37.996zm-224.142-52.996v-21.492l126.174-.043v21.536h-126.174zm341.541-61.75c-1.325-.251-2.69-.388-4.087-.388h-52.317l77.526-58.331v19.791c0 15.742-8.023 30.392-21.122 38.928zm-165.06-157.776c-10.107-26.423-35.714-45.244-65.648-45.244h-24.926l132.853-55.082c-.115.266-.24.525-.351.792-5.439 13.142-5.433 27.613.016 40.744l14.65 35.33zm55.799-64.536c-3.913-9.431-3.917-19.823-.011-29.261 3.906-9.437 11.252-16.791 20.682-20.704l.005-.002c9.439-3.91 19.834-3.912 29.271-.007 9.438 3.906 16.789 11.253 20.699 20.691l56.513 136.307c.687 1.652 1.249 3.339 1.695 5.05h-78.871c-1.162 0-2.309.061-3.447.156zm49.983 127.074h28.927l-54.877 41.286v-15.326c0-14.315 11.641-25.96 25.95-25.96zm-25.793 59.938 79.67-59.939h26.523v17.747l-93.628 70.447c-7.219-7.646-11.727-17.597-12.565-28.255zm80.984 63.797h-55.933c-3.828 0-6.942-3.115-6.942-6.943s3.114-6.942 6.942-6.942h55.933c3.828 0 6.942 3.114 6.942 6.942s-3.114 6.943-6.942 6.943z"/><path d="m75.273 307.425c3.632 3.044 8.306 4.884 13.404 4.884s9.772-1.84 13.404-4.884c3.632 3.044 8.306 4.884 13.404 4.884 11.526 0 20.904-9.377 20.904-20.904v-21.683c0-11.527-9.377-20.904-20.904-20.904-5.099 0-9.772 1.84-13.404 4.884-3.632-3.044-8.306-4.884-13.404-4.884s-9.772 1.84-13.404 4.884c-3.632-3.044-8.306-4.884-13.404-4.884-11.527 0-20.904 9.377-20.904 20.904v21.683c0 11.527 9.377 20.904 20.904 20.904 5.099 0 9.772-1.84 13.404-4.884zm40.213-43.607c3.255 0 5.904 2.648 5.904 5.904v21.683c0 3.256-2.648 5.904-5.904 5.904s-5.904-2.648-5.904-5.904v-21.683c0-3.256 2.648-5.904 5.904-5.904zm-26.808 0c3.256 0 5.904 2.648 5.904 5.904v21.683c0 3.256-2.648 5.904-5.904 5.904s-5.904-2.648-5.904-5.904v-21.683c-.001-3.256 2.648-5.904 5.904-5.904zm-32.713 27.587v-21.683c0-3.256 2.648-5.904 5.904-5.904s5.904 2.648 5.904 5.904v21.683c0 3.256-2.648 5.904-5.904 5.904s-5.904-2.648-5.904-5.904z"/><path d="m427.18 79.872c0-13.421-10.919-24.34-24.34-24.34s-24.34 10.919-24.34 24.34 10.919 24.34 24.34 24.34 24.34-10.919 24.34-24.34zm-24.34 9.34c-5.15 0-9.34-4.19-9.34-9.34s4.19-9.34 9.34-9.34 9.34 4.19 9.34 9.34-4.19 9.34-9.34 9.34z"/></g></svg>