<svg id="Capa_1" enable-background="new 0 0 512 512" height="512" viewBox="0 0 512 512" width="512" xmlns="http://www.w3.org/2000/svg"><g><path d="m512 74.768c0-38.003-30.917-68.92-68.92-68.92h-19.56c-4.142 0-7.5 3.358-7.5 7.5v20.078c-3.947-2.102-8.446-3.299-13.221-3.299-15.561 0-28.221 12.66-28.221 28.221v18.325h-170.658c-4.142 0-7.5 3.358-7.5 7.5s3.358 7.5 7.5 7.5h170.658v37.81h-237.156v-37.81h36.498c4.142 0 7.5-3.358 7.5-7.5s-3.358-7.5-7.5-7.5h-36.498v-18.325c0-15.561-12.66-28.221-28.221-28.221-4.775 0-9.274 1.196-13.221 3.299v-20.078c0-4.142-3.358-7.5-7.5-7.5h-19.56c-38.003 0-68.92 30.917-68.92 68.919v423.885c0 4.142 3.358 7.5 7.5 7.5h388.53c4.142 0 7.5-3.358 7.5-7.5s-3.358-7.5-7.5-7.5h-381.03v-25.64h482v25.64h-70.97c-4.142 0-7.5 3.358-7.5 7.5s3.358 7.5 7.5 7.5h78.47c4.142 0 7.5-3.358 7.5-7.5zm-109.201-29.641c7.29 0 13.221 5.931 13.221 13.221v104.458c0 7.29-5.931 13.221-13.221 13.221s-13.221-5.931-13.221-13.221v-104.458c0-7.291 5.931-13.221 13.221-13.221zm-28.221 99.356v18.323c0 15.561 12.66 28.221 28.221 28.221 4.775 0 9.274-1.196 13.221-3.299v33.202c0 13.817-11.241 25.058-25.058 25.058h-38.902v-87.885c0-4.142-3.358-7.5-7.5-7.5-21.816 0-39.992 15.892-43.564 36.71h-10.706c-14.689 0-26.64 11.951-26.64 26.64v32.035h-142.612c-13.817 0-25.058-11.241-25.058-25.058v-33.202c3.947 2.102 8.446 3.299 13.221 3.299 15.561 0 28.221-12.66 28.221-28.221v-18.323zm-95.928 101.505v-32.035c0-6.418 5.222-11.64 11.64-11.64h17.57c4.142 0 7.5-3.358 7.5-7.5 0-13.514 9.221-24.914 21.7-28.233v79.408zm-169.449-200.861c7.29 0 13.221 5.931 13.221 13.221v104.458c0 7.29-5.931 13.221-13.221 13.221s-13.221-5.931-13.221-13.221v-104.458c0-7.291 5.931-13.221 13.221-13.221zm-94.201 29.64c0-29.731 24.188-53.92 53.92-53.92h12.06v200.083c0 22.088 17.97 40.058 40.058 40.058h269.924c22.088 0 40.058-17.97 40.058-40.058v-200.082h12.06c29.731 0 53.92 24.188 53.92 53.92v375.74h-482z"/><path d="m230.055 289.878h-115.63c-18.441 0-33.445 15.003-33.445 33.445v39.593c0 18.441 15.003 33.445 33.445 33.445h115.63c18.441 0 33.445-15.003 33.445-33.445v-39.593c0-18.442-15.003-33.445-33.445-33.445zm18.445 73.037c0 10.17-8.274 18.445-18.445 18.445h-115.63c-10.17 0-18.445-8.274-18.445-18.445v-39.593c0-10.17 8.274-18.445 18.445-18.445h115.63c10.17 0 18.445 8.274 18.445 18.445z"/><path d="m138.895 315.289c-15.345 0-27.83 12.484-27.83 27.829s12.484 27.83 27.83 27.83 27.829-12.484 27.829-27.83-12.484-27.829-27.829-27.829zm0 40.659c-7.074 0-12.83-5.755-12.83-12.83s5.755-12.829 12.83-12.829 12.829 5.755 12.829 12.829-5.755 12.83-12.829 12.83z"/><path d="m205.585 315.289c-15.345 0-27.829 12.484-27.829 27.829s12.484 27.83 27.829 27.83 27.83-12.484 27.83-27.83-12.484-27.829-27.83-27.829zm0 40.659c-7.074 0-12.829-5.755-12.829-12.83s5.755-12.829 12.829-12.829 12.83 5.755 12.83 12.829-5.755 12.83-12.83 12.83z"/><path d="m314.814 289.297c-11.527 0-20.904 9.378-20.904 20.904v65.835c0 11.527 9.377 20.904 20.904 20.904s20.904-9.378 20.904-20.904v-65.835c.001-11.526-9.377-20.904-20.904-20.904zm5.905 86.739c0 3.256-2.648 5.904-5.904 5.904s-5.904-2.649-5.904-5.904v-65.835c0-3.256 2.648-5.904 5.904-5.904s5.904 2.649 5.904 5.904z"/><path d="m367.067 289.297c-11.527 0-20.904 9.378-20.904 20.904v65.835c0 11.527 9.377 20.904 20.904 20.904s20.904-9.378 20.904-20.904v-65.835c0-11.526-9.377-20.904-20.904-20.904zm5.904 86.739c0 3.256-2.648 5.904-5.904 5.904s-5.904-2.649-5.904-5.904v-65.835c0-3.256 2.648-5.904 5.904-5.904s5.904 2.649 5.904 5.904z"/><path d="m419.319 289.297c-11.527 0-20.904 9.378-20.904 20.904v65.835c0 11.527 9.377 20.904 20.904 20.904s20.904-9.378 20.904-20.904v-65.835c.001-11.526-9.377-20.904-20.904-20.904zm5.905 86.739c0 3.256-2.648 5.904-5.904 5.904s-5.904-2.649-5.904-5.904v-65.835c0-3.256 2.648-5.904 5.904-5.904s5.904 2.649 5.904 5.904z"/></g></svg>