<svg id="Capa_1" enable-background="new 0 0 511.999 511.999" height="512" viewBox="0 0 511.999 511.999" width="512" xmlns="http://www.w3.org/2000/svg"><g><path d="m286.214 238.08c-6.305-10.924-17.601-17.446-30.215-17.446s-23.91 6.522-30.215 17.445l-47.04 81.48c-2.071 3.587-.842 8.174 2.745 10.245s8.175.841 10.245-2.745l47.04-81.48c3.595-6.227 10.033-9.945 17.225-9.945s13.63 3.718 17.225 9.945l66.61 115.381c3.595 6.224 3.595 13.657.001 19.884-3.595 6.227-10.034 9.945-17.226 9.945h-133.22c-7.191 0-13.631-3.718-17.226-9.945-3.594-6.227-3.594-13.66 0-19.883l4.6-7.96c2.072-3.586.845-8.174-2.742-10.246-3.586-2.073-8.174-.846-10.246 2.741l-4.601 7.961c-6.307 10.92-6.307 23.961-.001 34.885s17.602 17.446 30.216 17.446h133.221c12.614 0 23.91-6.522 30.216-17.446s6.306-23.965-.001-34.884z"/><path d="m261.372 261.977c-7.508-2.801-15.644.034-19.784 6.894l-27.853 46.138c-3.991 6.613-4.108 14.577-.312 21.303s10.675 10.742 18.398 10.742h9.646l-2.951 13.799c-1.63 7.621 2.014 14.969 9.067 18.284 2.32 1.09 4.739 1.618 7.114 1.618 4.848 0 9.509-2.199 12.748-6.305l29.312-37.153c5.058-6.41 5.987-14.956 2.426-22.302-3.562-7.347-10.846-11.911-19.011-11.911h-12.329l3.962-22.939c1.364-7.897-2.926-15.368-10.433-18.168zm18.801 56.106c3.465 0 5.01 2.416 5.513 3.454.504 1.039 1.442 3.748-.703 6.468l-29.312 37.153c-.226.285-.69.879-1.707.402-1.014-.476-.855-1.216-.779-1.571l3.528-16.495c.811-3.788-.121-7.688-2.557-10.701-2.437-3.013-6.056-4.741-9.93-4.741h-12.404c-3.229 0-4.807-2.179-5.336-3.115-.528-.937-1.578-3.414.091-6.178l27.853-46.138c.211-.35.604-.999 1.699-.592 1.096.409.966 1.158.896 1.561l-4.413 25.551c-.642 3.72.385 7.51 2.816 10.397 2.433 2.888 5.992 4.543 9.767 4.543h14.978z"/><path d="m442.963 417.683v-209.198c16-1.216 28.649-14.614 28.649-30.92 0-17.104-13.915-31.019-31.02-31.019h-22.778v-10.453h16.823c4.143 0 7.5-3.358 7.5-7.5 0-11.486-3.814-22.367-10.533-31.152h3.033c4.143 0 7.5-3.358 7.5-7.5 0-11.486-3.814-22.367-10.532-31.152h3.034c4.143 0 7.5-3.358 7.5-7.5 0-15.822-7.133-30.515-19.568-40.312-3.254-2.562-7.97-2.003-10.533 1.25s-2.003 7.969 1.25 10.533c6.796 5.354 11.354 12.772 13.08 21.028h-71.005c3.443-16.071 17.69-28.41 34.69-28.782 4.142-.09 7.425-3.521 7.334-7.662-.09-4.141-3.528-7.452-7.662-7.334-13.465.295-26.074 5.758-35.505 15.383-9.447 9.642-14.65 22.389-14.65 35.896 0 4.142 3.357 7.5 7.5 7.5h3.037c-6.718 8.785-10.532 19.666-10.532 31.152 0 4.142 3.357 7.5 7.5 7.5h3.032c-6.719 8.785-10.532 19.666-10.532 31.152 0 4.142 3.357 7.5 7.5 7.5h16.823v10.453h-80.94v-10.453h16.823c4.143 0 7.5-3.358 7.5-7.5 0-11.486-3.814-22.367-10.533-31.152h3.033c4.143 0 7.5-3.358 7.5-7.5 0-11.488-3.815-22.37-10.535-31.156h3.039c4.143 0 7.5-3.358 7.5-7.5.001-28.279-23.006-51.285-51.285-51.285s-51.285 23.006-51.285 51.285c0 4.142 3.357 7.5 7.5 7.5h3.039c-6.72 8.786-10.535 19.668-10.535 31.156 0 4.142 3.357 7.5 7.5 7.5h3.032c-6.719 8.785-10.532 19.666-10.532 31.152 0 4.142 3.357 7.5 7.5 7.5h16.823v10.453h-80.94v-10.453h16.823c4.143 0 7.5-3.358 7.5-7.5 0-11.486-3.814-22.367-10.533-31.152h3.033c4.143 0 7.5-3.358 7.5-7.5 0-11.488-3.815-22.37-10.535-31.156h3.039c4.143 0 7.5-3.358 7.5-7.5 0-28.279-23.007-51.285-51.285-51.285s-51.285 23.006-51.285 51.285c0 4.142 3.357 7.5 7.5 7.5h3.039c-6.72 8.786-10.535 19.668-10.535 31.156 0 4.142 3.357 7.5 7.5 7.5h3.032c-6.719 8.785-10.532 19.666-10.532 31.152 0 4.142 3.357 7.5 7.5 7.5h16.823v10.453h-22.78c-17.104 0-31.02 13.915-31.02 31.019 0 16.306 12.649 29.704 28.649 30.92v209.198c-16 1.216-28.649 14.614-28.649 30.92 0 13.801 9.062 25.52 21.546 29.534v6.86c0 14.889 12.113 27.001 27.002 27.001h38.83c14.889 0 27.001-12.113 27.001-27.001v-5.375h202.469v5.375c0 14.889 12.112 27.001 27.001 27.001h38.83c14.889 0 27.002-12.113 27.002-27.001v-6.86c12.484-4.014 21.546-15.733 21.546-29.534 0-16.306-12.649-29.704-28.65-30.92zm-358.927-209.099h343.928v208.999h-343.928zm325.422-149.795c8.771 5.236 14.838 13.834 16.902 23.652h-71.006c2.064-9.817 8.13-18.415 16.9-23.652zm-37.203 38.652h37.202c8.771 5.236 14.839 13.834 16.903 23.652h-71.006c2.064-9.817 8.13-18.416 16.901-23.652zm6.644 38.652h23.916v10.453h-23.916zm-122.899-121.093c17.438 0 32.041 12.364 35.506 28.785h-71.012c3.465-16.421 18.069-28.785 35.506-28.785zm18.594 43.785c8.775 5.236 14.844 13.836 16.909 23.656h-71.006c2.064-9.82 8.133-18.419 16.907-23.656zm-37.195 38.656h37.202c8.771 5.236 14.839 13.834 16.903 23.652h-71.006c2.064-9.817 8.13-18.416 16.901-23.652zm6.643 38.652h23.916v10.453h-23.916zm-122.898-121.093c17.438 0 32.041 12.364 35.506 28.785h-71.012c3.465-16.421 18.069-28.785 35.506-28.785zm18.594 43.785c8.775 5.236 14.844 13.836 16.909 23.656h-71.006c2.064-9.82 8.133-18.419 16.907-23.656zm-37.196 38.656h37.202c8.771 5.236 14.839 13.834 16.903 23.652h-71.006c2.064-9.817 8.13-18.416 16.901-23.652zm6.644 38.652h23.916v10.453h-23.916zm-53.8 41.472c0-8.833 7.187-16.019 16.02-16.019h369.188c8.833 0 16.02 7.186 16.02 16.019s-7.187 16.02-16.02 16.02h-369.188c-8.833-.001-16.02-7.187-16.02-16.02zm84.379 307.433c0 6.618-5.384 12.001-12.001 12.001h-38.83c-6.618 0-12.002-5.384-12.002-12.001v-5.375h62.833zm295.302 0c0 6.618-5.384 12.001-12.002 12.001h-38.83c-6.617 0-12.001-5.384-12.001-12.001v-5.375h62.833zm5.526-20.376h-369.187c-8.833 0-16.02-7.186-16.02-16.019s7.187-16.02 16.02-16.02h5.13 358.928 5.13c8.833 0 16.02 7.187 16.02 16.02s-7.188 16.019-16.021 16.019z"/></g></svg>