<svg id="Capa_1" enable-background="new 0 0 512 512" height="512" viewBox="0 0 512 512" width="512" xmlns="http://www.w3.org/2000/svg"><g><path d="m490.835 200.797 17.319-70.182c3.633-14.722-5.388-29.655-20.112-33.289-14.721-3.63-29.652 5.394-33.286 20.111l-10.746 43.545c-8.904-4.229-18.305-7.339-27.977-9.245 2.676-4.222 4.241-9.216 4.241-14.574 0-7.792-3.28-14.833-8.532-19.814 5.252-4.981 8.532-12.022 8.532-19.815 0-7.792-3.28-14.833-8.532-19.814 5.252-4.981 8.532-12.022 8.532-19.814 0-15.061-12.253-27.314-27.314-27.314h-68.947c-15.061 0-27.314 12.253-27.314 27.314 0 .129.008.256.01.385h-27.109v-.629c0-31.794-25.866-57.66-57.66-57.66h-102.9c-25.437 0-47.578 16.317-55.095 40.602-1.225 3.957.99 8.158 4.947 9.382 3.958 1.224 8.157-.989 9.382-4.947 5.562-17.966 21.944-30.038 40.766-30.038h2.501v134.48h-2.501c-23.523 0-42.66-19.137-42.66-42.66v-34.16c0-4.142-3.358-7.5-7.5-7.5s-7.5 3.358-7.5 7.5v34.16c0 20.97 11.256 39.356 28.04 49.448-46.219 16.362-79.42 60.499-79.42 112.252v75.91c0 44.506 24.294 84.625 63.554 105.316 19.343 36.964 58.073 62.25 102.603 62.25 38.773 0 73.151-19.169 94.161-48.526h128.282v17.897c0 16.889 13.741 30.63 30.63 30.63s30.63-13.741 30.63-30.63v-32.378c7.684-4.183 14.938-9.227 21.608-15.082 3.113-2.733 3.421-7.471.689-10.584-2.733-3.113-7.472-3.42-10.584-.689-18.981 16.661-43.348 25.837-68.612 25.837h-123.54c7.964-15.692 12.46-33.429 12.46-52.197 0-63.81-51.913-115.723-115.723-115.723s-115.724 51.912-115.724 115.722c0 10.242 1.344 20.174 3.853 29.638-24.634-19.49-39.287-49.165-39.287-81.481v-75.91c0-57.368 46.672-104.04 104.04-104.04h273.92c16.528 0 32.786 3.938 47.371 11.409l-5.618 22.765c-3.633 14.722 5.389 29.655 20.112 33.288 2.167.535 4.389.806 6.603.806 9.761 0 18.497-5.116 23.392-13.089 7.993 14.949 12.18 31.583 12.18 48.862v75.91c0 20.396-5.897 40.132-17.054 57.075-2.278 3.459-1.32 8.111 2.139 10.389 1.271.837 2.702 1.237 4.118 1.237 2.438 0 4.83-1.188 6.271-3.376 12.774-19.4 19.526-41.989 19.526-65.326v-75.91c0-24.449-7.316-47.781-21.165-67.724zm-55.976 280.572c0 8.618-7.012 15.63-15.63 15.63s-15.63-7.012-15.63-15.63v-18.375c10.746-.963 21.257-3.375 31.26-7.137zm-268.702-185.818c55.539 0 100.723 45.184 100.723 100.723s-45.184 100.723-100.723 100.723-100.723-45.184-100.723-100.723 45.184-100.723 100.723-100.723zm157.855-185.701c-6.79 0-12.314-5.524-12.314-12.315 0-6.79 5.524-12.314 12.314-12.314 4.142 0 7.5-3.358 7.5-7.5s-3.358-7.5-7.5-7.5c-6.79 0-12.314-5.524-12.314-12.314s5.524-12.314 12.314-12.314h68.947c6.79 0 12.314 5.524 12.314 12.314s-5.524 12.314-12.314 12.314c-4.142 0-7.5 3.358-7.5 7.5s3.358 7.5 7.5 7.5c6.79 0 12.314 5.524 12.314 12.314 0 6.791-5.524 12.315-12.314 12.315-4.142 0-7.5 3.358-7.5 7.5s3.358 7.5 7.5 7.5c6.79 0 12.314 5.524 12.314 12.314s-5.524 12.314-12.314 12.314c-.016 0-.032.002-.048.002h-68.85c-.016 0-.032-.002-.048-.002-6.79 0-12.314-5.524-12.314-12.314s5.524-12.314 12.314-12.314c4.142 0 7.5-3.358 7.5-7.5s-3.359-7.5-7.501-7.5zm-22.55-36.559c1.099 1.606 2.36 3.094 3.768 4.43-3.78 3.584-6.53 8.239-7.779 13.47h-27.851v-17.9zm-174.921 76.19v-134.48h85.399c23.523 0 42.66 19.137 42.66 42.66v49.16c0 23.523-19.137 42.66-42.66 42.66zm143.059-42.66v-.63h28.509c1.437 4.291 3.907 8.112 7.121 11.159-5.252 4.981-8.532 12.022-8.532 19.814 0 4.43 1.067 8.613 2.947 12.317h-48.952c11.608-10.555 18.907-25.771 18.907-42.66zm191.828 110.927c-1.005 0-2.018-.124-3.011-.369-6.691-1.651-10.792-8.439-9.141-15.131l20.042-81.216c1.405-5.69 6.525-9.506 12.141-9.506.987 0 1.99.118 2.99.365 6.691 1.651 10.792 8.439 9.14 15.131l-20.042 81.216c-1.381 5.6-6.365 9.51-12.119 9.51z"/><path d="m149.429 47.955h67.167c4.142 0 7.5-3.358 7.5-7.5s-3.358-7.5-7.5-7.5h-67.167c-4.142 0-7.5 3.358-7.5 7.5s3.358 7.5 7.5 7.5z"/><path d="m149.429 89.741h67.167c4.142 0 7.5-3.358 7.5-7.5s-3.358-7.5-7.5-7.5h-67.167c-4.142 0-7.5 3.358-7.5 7.5s3.358 7.5 7.5 7.5z"/><path d="m224.095 124.027c0-4.142-3.358-7.5-7.5-7.5h-67.167c-4.142 0-7.5 3.358-7.5 7.5s3.358 7.5 7.5 7.5h67.167c4.142 0 7.5-3.358 7.5-7.5z"/><path d="m166.157 463.787c37.227 0 67.513-30.286 67.513-67.513s-30.286-67.513-67.513-67.513-67.513 30.286-67.513 67.513 30.286 67.513 67.513 67.513zm0-120.026c28.956 0 52.513 23.557 52.513 52.513s-23.557 52.513-52.513 52.513-52.513-23.557-52.513-52.513 23.557-52.513 52.513-52.513z"/><path d="m427.321 323.301c-10.786 15.411-17.223 23.838-20.68 28.366-4.218 5.522-6.143 8.043-4.86 12.214.752 2.445 2.604 4.321 5.083 5.147.757.252 1.55.382 2.349.385l34.689.107h.023c4.131 0 7.487-3.343 7.5-7.477.013-4.142-3.335-7.51-7.477-7.523l-20.604-.063c3.787-5.061 9.081-12.288 16.266-22.555 4.334-6.193 7.16-12.042 8.399-17.384.057-.246.102-.494.133-.744l.336-2.633c.041-.315.061-.633.061-.951 0-13.74-11.179-24.919-24.919-24.919-11.88 0-22.164 8.452-24.451 20.097-.798 4.064 1.849 8.007 5.914 8.805 4.064.798 8.006-1.849 8.805-5.914.909-4.629 5.002-7.988 9.732-7.988 5.332 0 9.694 4.229 9.911 9.508l-.215 1.686c-.856 3.391-2.871 7.371-5.995 11.836z"/><path d="m349.224 215.079c-25.844 0-46.87 21.026-46.87 46.87v62.963c0 25.845 21.026 46.871 46.87 46.871 25.845 0 46.871-21.026 46.871-46.871v-62.963c0-25.844-21.026-46.87-46.871-46.87zm31.871 109.834c0 17.574-14.297 31.871-31.871 31.871-17.573 0-31.87-14.297-31.87-31.871v-62.963c0-17.573 14.297-31.87 31.87-31.87 17.574 0 31.871 14.297 31.871 31.87z"/></g></svg>