<svg id="Capa_1" enable-background="new 0 0 511.992 511.992" height="512" viewBox="0 0 511.992 511.992" width="512" xmlns="http://www.w3.org/2000/svg"><g><g><path d="m308.523 424.552c-5.409 0-10.818-1.066-15.966-3.199-10.296-4.265-18.315-12.284-22.58-22.58l-4.969-11.998c-5.989.412-12.016.409-18.02-.009l-4.973 12.007c-8.805 21.255-33.259 31.383-54.512 22.579-10.296-4.265-18.315-12.283-22.58-22.58-4.265-10.296-4.265-21.636 0-31.932l4.974-12.006c-4.541-3.95-8.805-8.209-12.749-12.736l-11.998 4.97c-10.296 4.265-21.637 4.264-31.932 0-10.296-4.265-18.314-12.284-22.579-22.58-8.804-21.254 1.325-45.708 22.579-54.512l11.998-4.969c-.412-5.988-.409-12.017.009-18.02l-12.007-4.973c-21.253-8.804-31.383-33.258-22.58-54.512 8.804-21.254 33.257-31.383 54.512-22.58l12.006 4.974c3.95-4.541 8.21-8.805 12.736-12.749l-4.97-11.998c-4.265-10.296-4.265-21.636 0-31.932s12.283-18.315 22.579-22.58 21.636-4.265 31.932 0 18.315 12.284 22.58 22.58l4.969 11.998c5.989-.412 12.016-.409 18.02.009l4.973-12.006c4.265-10.296 12.284-18.315 22.58-22.58 10.295-4.265 21.636-4.264 31.932 0 10.296 4.265 18.315 12.284 22.58 22.58s4.265 21.636 0 31.932l-4.974 12.006c4.54 3.95 8.805 8.21 12.749 12.736l11.998-4.97c10.296-4.265 21.636-4.265 31.932 0s18.315 12.284 22.58 22.58 4.265 21.636 0 31.932-12.284 18.315-22.58 22.58l-11.998 4.969c.412 5.989.409 12.016-.009 18.02l12.006 4.973c10.296 4.265 18.315 12.284 22.58 22.58s4.265 21.636 0 31.932-12.283 18.315-22.58 22.58c-10.295 4.265-21.636 4.264-31.932 0l-12.007-4.973c-3.95 4.541-8.21 8.805-12.735 12.748l4.97 11.998c4.265 10.296 4.265 21.636 0 31.932s-12.284 18.315-22.58 22.58c-5.145 2.132-10.555 3.199-15.964 3.199zm-38.693-53.243c3.004 0 5.755 1.805 6.926 4.63l7.081 17.094c2.731 6.594 7.867 11.73 14.461 14.462 6.594 2.731 13.858 2.731 20.452 0 13.612-5.639 20.1-21.301 14.461-34.914l-7.081-17.094c-1.279-3.089-.359-6.652 2.255-8.736 6.764-5.39 12.938-11.57 18.352-18.369 2.083-2.617 5.647-3.537 8.738-2.258l17.107 7.085c6.594 2.731 13.858 2.731 20.452 0 6.594-2.732 11.73-7.868 14.461-14.462 5.639-13.613-.849-29.274-14.461-34.913l-17.106-7.086c-3.09-1.28-4.959-4.452-4.582-7.775.98-8.635.984-17.371.012-25.966-.375-3.322 1.493-6.492 4.583-7.772l17.094-7.081c6.594-2.731 11.73-7.867 14.462-14.461 2.731-6.594 2.731-13.857 0-20.452s-7.867-11.73-14.461-14.461c-6.593-2.731-13.857-2.731-20.452 0l-17.094 7.081c-3.088 1.279-6.652.36-8.735-2.255-5.391-6.765-11.572-12.94-18.37-18.353-2.617-2.083-3.538-5.647-2.258-8.737l7.086-17.106c2.731-6.594 2.731-13.857 0-20.452-2.732-6.594-7.868-11.73-14.462-14.461s-13.858-2.731-20.452 0-11.73 7.867-14.461 14.461l-7.086 17.106c-1.28 3.09-4.45 4.96-7.775 4.582-8.635-.979-17.372-.984-25.966-.012-3.322.372-6.493-1.493-7.772-4.583l-7.081-17.094c-2.731-6.594-7.867-11.73-14.461-14.461s-13.857-2.731-20.452 0c-6.594 2.731-11.73 7.867-14.461 14.461s-2.731 13.857 0 20.452l7.081 17.094c1.279 3.089.359 6.652-2.256 8.736-6.764 5.39-12.939 11.57-18.352 18.369-2.084 2.616-5.648 3.536-8.738 2.258l-17.106-7.086c-6.594-2.731-13.857-2.731-20.452 0-6.594 2.731-11.73 7.867-14.461 14.461-5.639 13.612.849 29.274 14.461 34.913l17.107 7.086c3.09 1.28 4.959 4.452 4.582 7.775-.98 8.635-.984 17.372-.012 25.966.375 3.322-1.494 6.492-4.583 7.772l-17.095 7.081c-13.612 5.639-20.1 21.301-14.461 34.913 2.731 6.594 7.867 11.73 14.461 14.462 6.594 2.731 13.857 2.732 20.451 0l17.095-7.081c3.089-1.278 6.652-.359 8.736 2.255 5.391 6.766 11.571 12.94 18.369 18.352 2.617 2.083 3.538 5.647 2.258 8.738l-7.086 17.106c-5.639 13.613.849 29.275 14.461 34.914 13.612 5.638 29.274-.849 34.914-14.461l7.086-17.107c1.28-3.09 4.45-4.957 7.775-4.582 8.635.979 17.371.985 25.966.012.282-.03.565-.046.845-.046z"/><path d="m255.996 346.755c-25.137 0-49.366-10.569-66.476-28.997-2.818-3.035-2.643-7.781.393-10.599 3.035-2.819 7.781-2.643 10.599.393 14.281 15.381 34.504 24.203 55.484 24.203 41.769 0 75.75-33.99 75.75-75.77 0-41.769-33.981-75.75-75.75-75.75s-75.75 33.981-75.75 75.75c0 9.961 1.899 19.626 5.645 28.725 1.577 3.83-.25 8.213-4.08 9.79-3.83 1.579-8.213-.25-9.79-4.08-4.496-10.919-6.775-22.504-6.775-34.435 0-50.04 40.71-90.75 90.75-90.75s90.75 40.71 90.75 90.75c0 50.051-40.71 90.77-90.75 90.77z"/><path d="m255.997 311.255c-30.467 0-55.254-24.791-55.254-55.263 0-30.467 24.787-55.254 55.254-55.254s55.253 24.787 55.253 55.254c0 30.472-24.786 55.263-55.253 55.263zm0-95.517c-22.196 0-40.254 18.058-40.254 40.254 0 22.201 18.058 40.263 40.254 40.263s40.253-18.062 40.253-40.263c0-22.196-18.057-40.254-40.253-40.254z"/></g><g><path d="m25.411 203.579c-7.25 0-14.168-3.109-18.982-8.529-4.833-5.442-7.112-12.715-6.251-19.955 4.653-39.118 21.934-74.616 49.976-102.658 23.86-23.86 53.513-40.09 86.085-47.183v-5.569c0-7.178 3.908-13.783 10.199-17.239 6.291-3.457 13.962-3.211 20.021.638l44.779 28.455c5.711 3.629 9.121 9.835 9.121 16.602s-3.41 12.973-9.121 16.602l-44.78 28.455c-6.057 3.85-13.728 4.094-20.02.638-5.926-3.256-9.737-9.307-10.16-15.998-45.961 14.603-79.882 55.095-85.649 103.46-1.515 12.702-12.356 22.281-25.218 22.281zm130.532-188.582c-1.032 0-1.859.363-2.282.596-.728.4-2.421 1.6-2.421 4.093v11.723c0 3.628-2.598 6.737-6.169 7.381-31.97 5.766-61.124 21.069-84.31 44.254-25.637 25.638-41.436 58.082-45.687 93.823-.36 3.03.553 5.95 2.571 8.223 1.999 2.25 4.757 3.49 7.767 3.49 5.27 0 9.708-3.895 10.323-9.059 6.888-57.767 49.603-105.516 106.291-118.817 2.227-.523 4.576 0 6.372 1.424 1.795 1.423 2.842 3.587 2.842 5.878v8.589c0 2.494 1.693 3.693 2.421 4.093.728.401 2.648 1.187 4.752-.151l44.78-28.455c1.955-1.242 2.166-3.17 2.166-3.941s-.211-2.7-2.166-3.941l-44.779-28.455c-.881-.56-1.729-.748-2.471-.748z"/></g><g><path d="m356.084 511.976c-3.673 0-7.338-1.027-10.55-3.068l-44.779-28.455c-5.711-3.629-9.121-9.835-9.121-16.602s3.41-12.973 9.121-16.602l44.78-28.455c6.059-3.85 13.729-4.093 20.02-.638 5.926 3.256 9.737 9.307 10.16 15.998 45.961-14.603 79.882-55.095 85.649-103.46 1.515-12.703 12.356-22.282 25.218-22.282 7.25 0 14.168 3.109 18.982 8.529 4.833 5.442 7.112 12.715 6.251 19.955-4.653 39.118-21.934 74.616-49.976 102.658-23.86 23.86-53.513 40.09-86.085 47.183v5.569c0 7.178-3.908 13.783-10.199 17.239-2.956 1.625-6.217 2.431-9.471 2.431zm-.035-81.267c-.742 0-1.59.188-2.47.747l-44.78 28.455c-1.955 1.242-2.166 3.17-2.166 3.941s.211 2.7 2.166 3.941l44.779 28.455c2.104 1.336 4.024.551 4.753.151.728-.4 2.421-1.6 2.421-4.093v-11.723c0-3.628 2.598-6.737 6.169-7.381 31.97-5.766 61.124-21.069 84.31-44.254 25.637-25.638 41.436-58.082 45.687-93.823.36-3.03-.553-5.95-2.571-8.223-1.999-2.25-4.757-3.49-7.767-3.49-5.27 0-9.708 3.895-10.323 9.059-6.888 57.767-49.603 105.516-106.291 118.817-2.229.521-4.577-.001-6.372-1.424s-2.842-3.587-2.842-5.878v-8.589c0-2.494-1.693-3.693-2.421-4.093-.423-.233-1.25-.595-2.282-.595z"/></g><g><path d="m463.854 220.356c-6.764 0-12.97-3.405-16.604-9.111l-28.455-44.788c-3.85-6.056-4.095-13.728-.639-20.021 3.255-5.927 9.305-9.739 15.995-10.162-5.393-16.925-14.454-32.645-26.521-45.9-2.788-3.063-2.565-7.807.498-10.595 3.064-2.788 7.807-2.565 10.595.497 15.936 17.506 27.197 38.858 32.565 61.747.523 2.229-.001 4.576-1.424 6.371s-3.588 2.841-5.878 2.841h-8.59c-2.493 0-3.692 1.694-4.092 2.422s-1.186 2.65.151 4.753l28.452 44.782c1.242 1.95 3.173 2.162 3.948 2.162h.002c.771 0 2.699-.212 3.939-2.163l28.449-44.779c1.339-2.105.553-4.027.153-4.755s-1.6-2.422-4.092-2.422h-11.72c-3.628 0-6.737-2.598-7.381-6.168-5.766-31.961-21.068-61.115-44.253-84.31-25.648-25.639-58.095-41.437-93.831-45.685-3.024-.362-5.941.553-8.212 2.569-2.252 2-3.492 4.761-3.492 7.773 0 5.269 3.894 9.707 9.058 10.323 22.286 2.657 43.859 10.839 62.39 23.66 3.406 2.356 4.257 7.029 1.9 10.435-2.356 3.405-7.028 4.257-10.435 1.9-16.527-11.435-35.764-18.731-55.631-21.1-12.703-1.515-22.282-12.356-22.282-25.217 0-7.252 3.11-14.174 8.532-18.989 5.439-4.832 12.708-7.105 19.944-6.249 39.111 4.649 74.613 21.93 102.667 49.974 23.861 23.87 40.089 53.521 47.181 86.084h5.567c7.178 0 13.784 3.909 17.24 10.201 3.456 6.293 3.21 13.965-.641 20.022l-28.449 44.778c-3.627 5.707-9.83 9.115-16.592 9.118-.004.002-.009.002-.012.002z"/></g><g><path d="m178.11 511.991c-1.002 0-2.008-.059-3.014-.178-39.118-4.653-74.616-21.934-102.658-49.976-23.86-23.86-40.09-53.513-47.183-86.085h-5.569c-7.178 0-13.783-3.908-17.239-10.199-3.456-6.291-3.212-13.962.638-20.021l28.455-44.779c3.629-5.711 9.835-9.121 16.602-9.121s12.973 3.41 16.602 9.121l28.455 44.78c3.85 6.058 4.094 13.729.638 20.02-3.256 5.926-9.307 9.737-15.998 10.16 14.603 45.961 55.095 79.882 103.46 85.649 12.703 1.515 22.282 12.356 22.282 25.218 0 7.25-3.109 14.168-8.529 18.982-4.687 4.162-10.732 6.429-16.942 6.429zm-129.97-205.358c-.771 0-2.7.211-3.941 2.166l-28.455 44.779c-1.337 2.104-.551 4.025-.151 4.753s1.6 2.421 4.093 2.421h11.723c3.628 0 6.737 2.598 7.381 6.169 5.766 31.97 21.069 61.124 44.254 84.31 25.638 25.637 58.082 41.436 93.823 45.687 3.031.364 5.95-.552 8.223-2.571 2.25-1.999 3.49-4.757 3.49-7.767 0-5.27-3.895-9.708-9.059-10.323-57.767-6.888-105.516-49.603-118.817-106.291-.523-2.23.001-4.577 1.424-6.372s3.587-2.842 5.878-2.842h8.589c2.494 0 3.693-1.693 4.093-2.421s1.186-2.648-.151-4.752l-28.455-44.78c-1.242-1.955-3.171-2.166-3.942-2.166z"/></g></g></svg>