<svg id="Capa_1" enable-background="new 0 0 512 512" height="512" viewBox="0 0 512 512" width="512" xmlns="http://www.w3.org/2000/svg"><g><path d="m484.001 335.528c0-19.097-15.536-34.633-34.634-34.633h-79.674c6.49-7.538 10.426-17.334 10.426-28.038 0-10.703-3.936-20.499-10.425-28.037h48.496c19.095 0 34.63-15.54 34.63-34.64 0-9.245-3.604-17.94-10.147-24.483-3.854-3.854-8.458-6.678-13.477-8.357l-14.023-57.228c-5.129-20.93-23.761-35.548-45.31-35.548h-2.288v-77.064c0-4.142-3.357-7.5-7.5-7.5h-208.151c-4.142 0-7.5 3.358-7.5 7.5v77.064h-2.288c-21.549 0-40.181 14.618-45.31 35.548l-14.026 57.243c-13.712 4.612-23.62 17.579-23.62 32.825 0 9.244 3.598 17.941 10.137 24.493 6.542 6.543 15.241 10.147 24.493 10.147h48.495c-6.489 7.538-10.425 17.334-10.425 28.037 0 10.704 3.937 20.5 10.426 28.038h-79.674c-19.097 0-34.633 15.536-34.633 34.633 0 17.13 12.504 31.386 28.861 34.143l24.767 85.04v49.789c0 4.142 3.358 7.5 7.5 7.5h333.746c4.143 0 7.5-3.358 7.5-7.5v-49.791l6.148-21.123c1.157-3.977-1.128-8.139-5.105-9.297-3.977-1.159-8.139 1.129-9.297 5.105l-4.876 16.753h-322.487l-22.13-75.985h366.749l-9.026 31.002c-1.158 3.977 1.128 8.14 5.104 9.297.7.204 1.406.301 2.1.301 3.25 0 6.244-2.128 7.198-5.406l10.39-35.686c16.357-2.757 28.86-17.013 28.86-34.142zm-324.577-320.528h193.151v69.564h-193.151zm-79.495 209.073c-3.707-3.715-5.749-8.649-5.749-13.893 0-10.824 8.806-19.63 19.63-19.63h30.57c4.142 0 7.5-3.358 7.5-7.5s-3.358-7.5-7.5-7.5h-25.694l12.709-51.869c3.479-14.2 16.121-24.118 30.741-24.118h9.788 208.151 9.788c14.62 0 27.261 9.917 30.741 24.117l12.709 51.869h-258.933c-4.142 0-7.5 3.358-7.5 7.5s3.358 7.5 7.5 7.5h263.81c5.238 0 10.166 2.043 13.877 5.753 3.71 3.71 5.753 8.638 5.753 13.876 0 10.83-8.806 19.64-19.63 19.64l-243.269-.005c-.061 0-81.111.005-81.111.005-5.245.002-10.177-2.041-13.881-5.745zm66.951 48.784c0-15.401 12.481-27.938 27.859-28.037h162.522c15.378.099 27.858 12.636 27.858 28.037 0 15.417-12.506 27.965-27.906 28.038h-162.426c-15.4-.073-27.907-12.621-27.907-28.038zm-50.253 224.143v-35.85h318.746v35.85zm352.74-141.839h-.067c-.035 0-.07-.001-.104 0h-386.403c-.025-.001-.051 0-.077 0h-.084c-10.826 0-19.633-8.807-19.633-19.633s8.808-19.633 19.633-19.633h386.735c10.826 0 19.634 8.807 19.634 19.633s-8.808 19.633-19.634 19.633z"/></g></svg>