<svg id="Capa_1" enable-background="new 0 0 512 512" height="512" viewBox="0 0 512 512" width="512" xmlns="http://www.w3.org/2000/svg"><g><path d="m491.945 239.45v-194.716c0-18.879-15.359-34.238-34.238-34.238-16.379 0-30.101 11.563-33.45 26.953-5.302-3.676-11.73-5.837-18.656-5.837-15.658 0-28.783 11.021-32.046 25.711-21.459 2.364-39.591 15.916-48.426 34.683h-28.282c-1.773 0-3.49.629-4.844 1.774l-21.69 18.35c-1.685 1.425-2.656 3.519-2.656 5.725s.971 4.3 2.654 5.726l21.69 18.36c1.354 1.146 3.071 1.775 4.846 1.775h28.283c8.835 18.765 26.967 32.316 48.425 34.68 3.263 14.69 16.387 25.711 32.046 25.711 6.587 0 12.722-1.957 17.868-5.31v39.655h-217.058v-4.828c0-24.547-19.97-44.517-44.517-44.517h-1.384c-4.143 0-7.5 3.358-7.5 7.5v41.845h-60.9c-13.029 0-23.63-10.6-23.63-23.63v-15.998c5.138 3.336 11.258 5.283 17.827 5.283 15.524 0 28.556-10.832 31.958-25.333h22.643c10.786 0 19.562-8.775 19.562-19.562v-6.979c0-10.786-8.775-19.562-19.562-19.562h-21.769v-29.625h21.769c10.786 0 19.562-8.775 19.562-19.562v-6.979c0-10.786-8.775-19.562-19.562-19.562h-22.643c-3.403-14.5-16.435-25.333-31.958-25.333-6.955 0-13.406 2.18-18.721 5.883-3.461-15.038-16.666-26.56-32.393-26.992-9.318-.248-18.15 3.189-24.831 9.691-6.682 6.507-10.362 15.221-10.362 24.54v30.08c0 4.142 3.357 7.5 7.5 7.5s7.5-3.358 7.5-7.5v-30.08c0-5.235 2.068-10.131 5.823-13.786 3.756-3.655 8.739-5.595 13.961-5.446 10.31.283 18.696 9.162 18.696 19.793v169.53c0 21.301 17.329 38.63 38.63 38.63h6.455v14.577c0 22.898 18.629 41.526 41.526 41.526h231.816c22.897 0 41.526-18.629 41.526-41.526v-14.577l71.011.003c.021 0 .042-.003.063-.003h.131c6.815 0 12.36 5.545 12.36 12.36v176.71c0 6.815-5.545 12.36-12.36 12.36h-457.278c-6.815 0-12.36-5.545-12.36-12.36v-337.71c0-4.142-3.357-7.5-7.5-7.5s-7.5 3.358-7.5 7.5v337.71c0 15.086 12.273 27.36 27.36 27.36h4.711v8.65c0 12.669 10.307 22.976 22.976 22.976h22.139c12.669 0 22.976-10.307 22.976-22.976v-8.65h311.678v8.65c0 12.669 10.307 22.976 22.976 22.976h22.139c12.669 0 22.976-10.307 22.976-22.976v-8.65h4.711c15.087 0 27.36-12.274 27.36-27.36v-176.71c-.002-12.557-8.507-23.158-20.057-26.363zm-351.036-91.777c2.516 0 4.562 2.046 4.562 4.562v6.979c0 2.515-2.046 4.562-4.562 4.562h-21.769v-16.102h21.769zm4.562-71.165v6.979c0 2.515-2.046 4.562-4.562 4.562h-21.769v-16.103h21.769c2.516 0 4.562 2.046 4.562 4.562zm-59.163-29.894c9.833 0 17.833 8 17.833 17.833v31.102 44.625 31.102c0 9.833-8 17.833-17.833 17.833-9.801 0-17.774-7.948-17.827-17.736v-107.023c.052-9.788 8.026-17.736 17.827-17.736zm213.288 82.103-12.828-10.858 12.827-10.852h20.748c-.637 3.525-.988 7.148-.988 10.854 0 3.707.351 7.331.988 10.856zm34.758-10.857c0-22.763 16.653-41.7 38.414-45.292v90.583c-21.76-3.591-38.414-22.528-38.414-45.291zm89.08 53.415c0 9.833-7.999 17.833-17.832 17.833s-17.833-8-17.833-17.833v-106.829c0-9.833 8-17.833 17.833-17.833s17.832 8 17.832 17.833zm15.036-126.541c0-10.608 8.63-19.238 19.237-19.238 10.608 0 19.238 8.63 19.238 19.238v193.718h-38.475zm-270.459 160.01c13.352 2.824 23.4 14.7 23.4 28.879v4.828h-23.4zm-54.446 63.286v-14.574h31.914v41.101h-5.388c-14.626-.001-26.526-11.901-26.526-26.527zm46.914 26.526v-41.101h.031 38.4 11.925v41.101zm237.956-26.526c0 14.627-11.899 26.526-26.526 26.526h-146.073v-41.101h172.599zm-313.274 210.502c0 4.398-3.578 7.976-7.976 7.976h-22.138c-4.397 0-7.976-3.578-7.976-7.976v-8.649h38.09zm379.768 0c0 4.398-3.578 7.976-7.976 7.976h-22.139c-4.397 0-7.976-3.578-7.976-7.976v-8.649h38.09v8.649z"/><path d="m404.34 327.272h-65.23c-18.439 0-33.44 15.001-33.44 33.44v39.59c0 18.444 15.001 33.45 33.44 33.45h115.64c18.439 0 33.44-15.006 33.44-33.45v-39.59c0-18.439-15.001-33.44-33.44-33.44h-20.41c-4.143 0-7.5 3.358-7.5 7.5s3.357 7.5 7.5 7.5h20.41c10.168 0 18.44 8.272 18.44 18.44v39.59c0 10.173-8.272 18.45-18.44 18.45h-115.64c-10.168 0-18.44-8.277-18.44-18.45v-39.59c0-10.168 8.272-18.44 18.44-18.44h65.229c4.143 0 7.5-3.358 7.5-7.5s-3.357-7.5-7.499-7.5z"/><path d="m335.755 380.511c0 15.345 12.484 27.83 27.829 27.83 15.346 0 27.83-12.484 27.83-27.83s-12.484-27.829-27.83-27.829c-15.345-.001-27.829 12.483-27.829 27.829zm40.659 0c0 7.074-5.756 12.83-12.83 12.83s-12.829-5.755-12.829-12.83 5.755-12.829 12.829-12.829 12.83 5.754 12.83 12.829z"/><path d="m430.275 408.34c15.346 0 27.83-12.484 27.83-27.83s-12.484-27.829-27.83-27.829c-15.345 0-27.829 12.484-27.829 27.829s12.485 27.83 27.829 27.83zm0-40.659c7.074 0 12.83 5.755 12.83 12.829s-5.756 12.83-12.83 12.83-12.829-5.755-12.829-12.83 5.755-12.829 12.829-12.829z"/><path d="m96.922 413.425v-65.835c0-11.527-9.378-20.904-20.904-20.904s-20.904 9.378-20.904 20.904v65.835c0 11.527 9.378 20.904 20.904 20.904s20.904-9.378 20.904-20.904zm-26.809 0v-65.835c0-3.256 2.648-5.904 5.904-5.904s5.904 2.649 5.904 5.904v65.835c0 3.256-2.648 5.904-5.904 5.904s-5.904-2.649-5.904-5.904z"/><path d="m149.175 413.425v-65.835c0-11.527-9.378-20.904-20.904-20.904s-20.904 9.378-20.904 20.904v65.835c0 11.527 9.378 20.904 20.904 20.904s20.904-9.378 20.904-20.904zm-26.809 0v-65.835c0-3.256 2.648-5.904 5.904-5.904s5.904 2.649 5.904 5.904v65.835c0 3.256-2.648 5.904-5.904 5.904s-5.904-2.649-5.904-5.904z"/><path d="m201.427 413.425v-65.835c0-11.527-9.378-20.904-20.904-20.904s-20.904 9.378-20.904 20.904v65.835c0 11.527 9.378 20.904 20.904 20.904s20.904-9.378 20.904-20.904zm-26.809 0v-65.835c0-3.256 2.648-5.904 5.904-5.904s5.904 2.649 5.904 5.904v65.835c0 3.256-2.648 5.904-5.904 5.904s-5.904-2.649-5.904-5.904z"/></g></svg>