<svg id="Capa_1" enable-background="new 0 0 511.992 511.992" height="512" viewBox="0 0 511.992 511.992" width="512" xmlns="http://www.w3.org/2000/svg"><g><path d="m487.771 54.126c0-29.845-24.281-54.126-54.126-54.126h-355.299c-29.845 0-54.126 24.281-54.126 54.126l-.004 417.996c0 21.984 17.885 39.87 39.87 39.87h22.58c4.142 0 7.5-3.358 7.5-7.5s-3.358-7.5-7.5-7.5h-22.58c-13.713 0-24.87-11.157-24.87-24.87v-31.896h433.56v31.896c0 13.713-11.156 24.87-24.87 24.87h-67.96c-10.128 0-19.157-6.055-23.001-15.426l-7.92-19.31c-1.155-2.815-3.896-4.654-6.939-4.654h-172.18c-3.043 0-5.784 1.838-6.939 4.654l-7.92 19.31c-3.844 9.372-12.873 15.427-23.001 15.427h-15.38c-4.142 0-7.5 3.358-7.5 7.5s3.358 7.5 7.5 7.5h15.38c16.239 0 30.715-9.708 36.879-24.734l6.011-14.656h162.119l6.012 14.657c6.164 15.025 20.64 24.733 36.879 24.733h67.96c21.984 0 39.87-17.886 39.87-39.87zm-409.425-39.126h355.299c21.574 0 39.126 17.552 39.126 39.126v371.096h-433.551v-371.096c0-21.574 17.552-39.126 39.126-39.126z"/><path d="m61.716 410.222h388.56c4.143 0 7.5-3.358 7.5-7.5v-288.56c0-4.142-3.357-7.5-7.5-7.5s-7.5 3.358-7.5 7.5v281.06h-179.28v-350.22h170.15c5.034 0 9.13 4.091 9.13 9.12v30.04c0 4.142 3.357 7.5 7.5 7.5s7.5-3.358 7.5-7.5v-30.04c0-13.3-10.824-24.12-24.13-24.12h-355.3c-13.305 0-24.13 10.82-24.13 24.12v348.6c0 4.142 3.358 7.5 7.5 7.5zm7.5-356.1c0-5.029 4.096-9.12 9.13-9.12h170.15v350.22h-179.28z"/><path d="m367.255 216.979-60.186-6.811c-7.754-.874-15.529 1.6-21.346 6.795-5.816 5.195-9.152 12.647-9.152 20.446s3.336 15.251 9.151 20.446c5.047 4.508 11.571 6.969 18.271 6.969 1.022 0 2.049-.058 3.075-.173l60.185-6.811c10.404-1.177 18.249-9.96 18.249-20.43.001-10.471-7.844-19.254-18.247-20.431zm-1.687 25.955c-.001 0-.001 0 0 0l-60.187 6.811c-3.55.404-6.993-.689-9.666-3.077-2.673-2.387-4.145-5.675-4.145-9.259s1.472-6.872 4.145-9.259c2.31-2.063 5.187-3.159 8.223-3.159.478 0 .96.027 1.443.082l60.187 6.811c2.812.318 4.935 2.694 4.935 5.525s-2.122 5.207-4.935 5.525z"/><path d="m197.493 65.849h-78.299c-16.603 0-30.111 13.508-30.111 30.111v57.592c0 16.604 13.508 30.111 30.111 30.111h78.299c16.604 0 30.111-13.508 30.111-30.111v-57.592c0-16.604-13.508-30.111-30.111-30.111zm15.111 87.703c0 8.333-6.779 15.111-15.111 15.111h-78.299c-8.332 0-15.111-6.779-15.111-15.111v-57.592c0-8.333 6.779-15.111 15.111-15.111h78.299c8.333 0 15.111 6.779 15.111 15.111z"/><path d="m123.521 192.66c-15.345 0-27.829 12.484-27.829 27.829s12.484 27.829 27.829 27.829 27.829-12.484 27.829-27.829c-.001-15.345-12.485-27.829-27.829-27.829zm0 40.658c-7.074 0-12.829-5.755-12.829-12.829s5.755-12.829 12.829-12.829 12.829 5.755 12.829 12.829c-.001 7.074-5.756 12.829-12.829 12.829z"/><path d="m193.166 192.66c-15.345 0-27.829 12.484-27.829 27.829s12.484 27.829 27.829 27.829 27.829-12.484 27.829-27.829-12.484-27.829-27.829-27.829zm0 40.658c-7.074 0-12.829-5.755-12.829-12.829s5.755-12.829 12.829-12.829 12.829 5.755 12.829 12.829-5.755 12.829-12.829 12.829z"/><path d="m385.747 105.562c-2.07-3.587-6.659-4.816-10.245-2.745l-15.498 8.948v-17.895c0-4.142-3.357-7.5-7.5-7.5s-7.5 3.358-7.5 7.5v17.896l-15.499-8.948c-3.589-2.072-8.175-.842-10.245 2.745-2.071 3.587-.842 8.174 2.745 10.245l15.499 8.948-15.499 8.948c-3.587 2.071-4.816 6.658-2.745 10.245 1.389 2.406 3.91 3.751 6.502 3.751 1.272 0 2.562-.324 3.743-1.006l15.499-8.948v17.896c0 4.142 3.357 7.5 7.5 7.5s7.5-3.358 7.5-7.5v-17.896l15.498 8.948c1.182.682 2.471 1.006 3.743 1.006 2.592 0 5.113-1.346 6.502-3.751 2.071-3.587.842-8.174-2.745-10.245l-15.499-8.948 15.499-8.948c3.587-2.071 4.816-6.658 2.745-10.246z"/></g></svg>