<svg id="Capa_1" enable-background="new 0 0 512 512" height="512" viewBox="0 0 512 512" width="512" xmlns="http://www.w3.org/2000/svg"><g><path d="m441.563 250.582c5.256-6.951 6.909-15.748 4.534-24.133l-18.045-63.728c-3.344-11.809-14.246-20.053-26.521-20.053-.005 0-.011 0-.016 0l-41.611.034c-15.189.009-27.546 12.373-27.546 27.562v63.694c0 15.198 12.364 27.562 27.562 27.562h59.657c8.717 0 16.73-3.987 21.986-10.938zm-11.964-9.047c-2.396 3.168-6.048 4.985-10.021 4.985h-59.657c-6.927 0-12.562-5.635-12.562-12.562v-63.694c0-6.923 5.632-12.558 12.556-12.562l41.612-.034h.007c5.593 0 10.562 3.758 12.087 9.14l18.045 63.728c1.082 3.822.328 7.83-2.067 10.999z"/><path d="m489.893 351.753v-86.952c0-2.566-.357-5.123-1.059-7.586l-34.134-120.558c-4.46-15.74-19-26.734-35.357-26.734h-95.797c-22.217 0-40.291 18.075-40.291 40.291v142.152h-16.44c.18-1.808.256-3.641.201-5.495l-4.609-155.499c-.389-13.148 9.136-24.479 22.151-26.355l24.097-3.469c12.231-1.755 21.455-12.384 21.455-24.724 0-1.006-.063-2.021-.198-3.128-1.682-13.479-13.606-23.061-27.123-21.81l-111.769 10.35c-9.938.917-19.074 4.977-26.421 11.74-7.235 6.662-12.167 15.66-13.885 25.338-2.239 12.63-12.259 22.482-24.93 24.514l-29.069 4.65c-4.09.654-6.876 4.5-6.222 8.59s4.495 6.877 8.591 6.221l29.072-4.65c18.973-3.042 33.974-17.793 37.327-36.704 1.164-6.557 4.371-12.409 9.275-16.923 4.905-4.516 11.005-7.227 17.642-7.839l111.769-10.35c5.434-.494 10.184 3.334 10.854 8.706.058.476.086.9.086 1.295 0 4.928-3.691 9.174-8.589 9.877l-24.102 3.47c-20.57 2.967-35.619 20.87-35.007 41.646l4.609 155.499c.254 8.595-3.491 16.555-10.274 21.84-6.786 5.287-15.428 6.971-23.701 4.624l-170.149-48.27c-9.414-2.672-16.475-10.646-17.987-20.313l-12.831-82.144c-.559-3.569 1.895-6.94 5.466-7.513l47.12-7.54c4.091-.654 6.876-4.5 6.222-8.591-.655-4.09-4.502-6.88-8.592-6.221l-47.124 7.541c-11.71 1.88-19.745 12.937-17.911 24.643l12.83 82.142c2.415 15.433 13.685 28.161 28.713 32.426l43.806 12.427h-61.878c-14.183 0-25.721 11.538-25.721 25.72v21.98c0 7.685 3.392 14.589 8.753 19.306-.028.028-.057.053-.085.081-5.595 5.596-8.677 13.036-8.677 20.95 0 16.326 13.287 29.608 29.619 29.608h28.198c9.499 29.112 36.892 50.213 69.135 50.213 32.246 0 59.641-21.105 69.138-50.222h109.817c9.497 29.116 36.894 50.22 69.142 50.22 10.493 0 20.616-2.185 30.087-6.494 3.77-1.715 5.436-6.163 3.72-9.933-1.715-3.77-6.158-5.437-9.933-3.721-7.506 3.416-15.538 5.147-23.874 5.147-31.827 0-57.72-25.889-57.72-57.71 0-31.827 25.893-57.72 57.72-57.72 31.821 0 57.71 25.893 57.71 57.72 0 13.259-4.609 26.207-12.979 36.457-2.619 3.208-2.143 7.933 1.066 10.553 3.208 2.621 7.934 2.143 10.553-1.065 5.701-6.981 10.003-14.959 12.767-23.45h38.224c7.918 0 15.354-3.083 20.934-8.676 5.595-5.595 8.676-13.029 8.676-20.933 0-13.736-9.402-25.315-22.107-28.645zm-474.883-11.687v-21.98c0-5.911 4.81-10.72 10.721-10.72h114.752l73.47 20.843c3.823 1.084 7.694 1.618 11.526 1.618 9.125 0 18.024-3.026 25.487-8.841 4.836-3.768 8.671-8.414 11.387-13.62h20.901v43.417h-93.582c-12.644-21.51-36.017-35.99-62.721-35.99-26.705 0-50.079 14.48-62.722 35.992l-38.499.001c-5.911 0-10.72-4.809-10.72-10.72zm14.609 54.945c-8.061 0-14.619-6.553-14.619-14.608 0-3.907 1.521-7.581 4.277-10.337 2.769-2.761 6.441-4.281 10.342-4.281h27.934c-2.153 6.863-3.317 14.16-3.317 21.724 0 2.533.132 5.035.386 7.502zm97.333 50.214c-31.824 0-57.716-25.891-57.716-57.716s25.892-57.716 57.716-57.716 57.716 25.891 57.716 57.716-25.892 57.716-57.716 57.716zm72.331-50.222c.253-2.464.385-4.964.385-7.494 0-7.565-1.164-14.862-3.318-21.726h109.298c-2.154 6.865-3.319 14.164-3.319 21.73 0 2.529.131 5.027.385 7.49zm175.767-80.21c-26.705 0-50.078 14.479-62.723 35.99h-14.072v-200.569c0-13.945 11.346-25.291 25.291-25.291h95.797c9.681 0 18.286 6.507 20.925 15.822l34.137 120.567c.324 1.138.488 2.312.488 3.489v85.986h-37.125c-12.643-21.512-36.015-35.994-62.718-35.994zm117.661 75.938c-2.751 2.758-6.416 4.276-10.32 4.276h-35.037c.259-2.483.406-4.983.406-7.494 0-7.564-1.164-14.862-3.317-21.725h37.947c8.056 0 14.609 6.554 14.609 14.61.001 3.897-1.52 7.565-4.288 10.333z"/><path d="m126.952 343.845c-24.076 0-43.664 19.587-43.664 43.664s19.588 43.664 43.664 43.664 43.664-19.587 43.664-43.664-19.588-43.664-43.664-43.664zm0 72.328c-15.806 0-28.664-12.859-28.664-28.664s12.858-28.664 28.664-28.664 28.664 12.859 28.664 28.664-12.858 28.664-28.664 28.664z"/><path d="m375.046 343.845c-24.076 0-43.664 19.587-43.664 43.664s19.588 43.664 43.664 43.664 43.664-19.587 43.664-43.664-19.588-43.664-43.664-43.664zm0 72.328c-15.806 0-28.664-12.859-28.664-28.664s12.858-28.664 28.664-28.664 28.664 12.859 28.664 28.664-12.858 28.664-28.664 28.664z"/><path d="m443.281 331.053c11.145 0 20.211-9.066 20.211-20.211v-14.813c0-11.145-9.066-20.211-20.211-20.211s-20.212 9.067-20.212 20.211v14.813c0 11.145 9.068 20.211 20.212 20.211zm-5.212-35.024c0-2.874 2.338-5.211 5.212-5.211 2.873 0 5.211 2.338 5.211 5.211v14.813c0 2.874-2.338 5.211-5.211 5.211-2.874 0-5.212-2.337-5.212-5.211z"/><path d="m216.906 247.108v-81.929c0-12.309-10.014-22.323-22.323-22.323s-22.324 10.014-22.324 22.323v81.929c0 12.31 10.015 22.324 22.324 22.324s22.323-10.015 22.323-22.324zm-29.647 0v-81.929c0-4.038 3.285-7.323 7.324-7.323 4.038 0 7.323 3.285 7.323 7.323v81.929c0 4.038-3.285 7.324-7.323 7.324-4.039-.001-7.324-3.286-7.324-7.324z"/><path d="m153.951 235.524v-58.762c0-12.31-10.015-22.324-22.324-22.324s-22.323 10.014-22.323 22.324v58.762c0 12.309 10.014 22.323 22.323 22.323s22.324-10.014 22.324-22.323zm-29.647 0v-58.762c0-4.038 3.285-7.324 7.323-7.324 4.039 0 7.324 3.286 7.324 7.324v58.762c0 4.038-3.285 7.323-7.324 7.323-4.038 0-7.323-3.285-7.323-7.323z"/><path d="m46.316 187.251v37.784c0 12.309 10.015 22.323 22.324 22.323s22.323-10.014 22.323-22.323v-37.784c0-12.309-10.015-22.323-22.323-22.323-12.309 0-22.324 10.014-22.324 22.323zm29.648 0v37.784c0 4.038-3.285 7.323-7.323 7.323-4.039 0-7.324-3.285-7.324-7.323v-37.784c0-4.038 3.285-7.323 7.324-7.323 4.038 0 7.323 3.285 7.323 7.323z"/></g></svg>