<svg id="Capa_1" enable-background="new 0 0 512 512" height="512" viewBox="0 0 512 512" width="512" xmlns="http://www.w3.org/2000/svg"><g><path d="m489.89 349.922v-23.161c0-4.142-3.357-7.5-7.5-7.5s-7.5 3.358-7.5 7.5v22.196h-.956c-12.644-21.513-36.018-35.995-62.725-35.995s-50.081 14.482-62.725 35.995h-50.234v-195.296c0-16.856 13.718-30.57 30.58-30.57h57.54c15.745 0 28.822 11.818 30.418 27.487l9.67 95.33c.304 2.996 2.37 5.52 5.248 6.409l21.646 6.688c12.883 3.99 21.538 15.731 21.538 29.216v8.54c0 4.142 3.357 7.5 7.5 7.5s7.5-3.358 7.5-7.5v-8.54c0-20.099-12.9-37.598-32.105-43.546l-16.904-5.224-9.169-90.391c-2.379-23.356-21.871-40.97-45.341-40.97h-57.54c-25.133 0-45.58 20.443-45.58 45.57v136.87h-33.016c15.222-12.34 24.976-31.174 24.976-52.25v-88.06c0-37.082-30.168-67.25-67.25-67.25h-6.011c.774-2.255 1.201-4.67 1.201-7.185 0-12.231-9.951-22.182-22.182-22.182h-86.73c-12.231 0-22.182 9.951-22.182 22.182 0 2.515.427 4.93 1.201 7.185h-6.008c-10.058 0-19.741 2.171-28.78 6.452-3.744 1.773-5.341 6.245-3.568 9.988 1.773 3.744 6.247 5.34 9.988 3.568 7.017-3.323 14.54-5.008 22.36-5.008h140.71c28.811 0 52.25 23.439 52.25 52.25v88.06c0 28.811-23.439 52.25-52.25 52.25h-140.71c-28.811 0-52.25-23.439-52.25-52.25v-88.06c0-10.995 3.376-21.514 9.764-30.418 2.415-3.366 1.643-8.051-1.723-10.466s-8.051-1.643-10.466 1.723c-8.226 11.47-12.575 25.012-12.575 39.162v88.06c0 21.087 9.764 39.929 24.999 52.269-13.85.387-24.999 11.765-24.999 25.707v21.975c0 7.691 3.397 14.6 8.765 19.318-.029.029-.059.055-.088.084-5.595 5.595-8.677 13.03-8.677 20.934 0 15.064 11.31 27.527 25.883 29.367 9.424 29.241 36.885 50.461 69.22 50.461 28.571 0 53.335-16.57 65.217-40.598 11.882 24.029 36.646 40.598 65.217 40.598 32.244 0 59.639-21.103 69.137-50.218h47.398c9.499 29.115 36.893 50.218 69.137 50.218s59.639-21.103 69.137-50.218h2.043c7.917 0 15.354-3.084 20.934-8.677 5.595-5.596 8.677-13.03 8.677-20.933 0-13.737-9.403-25.316-22.11-28.646zm-395.651-281.318h86.729c3.96 0 7.182 3.222 7.182 7.182s-3.222 7.183-7.182 7.183h-86.729c-3.96 0-7.182-3.222-7.182-7.183s3.222-7.182 7.182-7.182zm-79.239 269.628v-21.975c0-5.915 4.812-10.726 10.726-10.726h41.524 140.71 75.29v35.984c-13.302-17.342-34.219-28.553-57.714-28.553-28.571 0-53.335 16.57-65.217 40.598-11.882-24.029-36.646-40.598-65.217-40.598-26.707 0-50.081 14.482-62.725 35.995h-6.652c-5.913.001-10.725-4.811-10.725-10.725zm0 40.336c0-3.897 1.521-7.565 4.29-10.333 1.763-1.767 3.904-3.019 6.24-3.695-2.038 6.693-3.144 13.789-3.144 21.139 0 1.927.098 3.831.246 5.721-4.543-2.481-7.632-7.302-7.632-12.832zm80.103 64.828c-31.825 0-57.717-25.892-57.717-57.717s25.892-57.717 57.717-57.717 57.717 25.892 57.717 57.717-25.892 57.717-57.717 57.717zm130.433 0c-31.825 0-57.717-25.892-57.717-57.717s25.892-57.717 57.717-57.717 57.717 25.892 57.717 57.717-25.892 57.717-57.717 57.717zm72.331-50.219c.254-2.466.386-4.967.386-7.499 0-7.563-1.163-14.859-3.316-21.722h46.871c-2.153 6.863-3.316 14.158-3.316 21.722 0 2.532.132 5.033.386 7.499zm113.342 50.219c-31.825 0-57.717-25.892-57.717-57.717s25.892-57.717 57.717-57.717 57.717 25.892 57.717 57.717-25.892 57.717-57.717 57.717zm81.501-54.495c-2.477 2.483-5.697 3.95-9.163 4.22.25-2.447.378-4.93.378-7.442 0-7.563-1.163-14.859-3.316-21.722h1.78c8.057 0 14.61 6.554 14.61 14.61.001 3.898-1.52 7.565-4.289 10.334z"/><path d="m95.103 342.014c-24.077 0-43.665 19.588-43.665 43.665s19.588 43.665 43.665 43.665 43.665-19.588 43.665-43.665-19.589-43.665-43.665-43.665zm0 72.33c-15.806 0-28.665-12.859-28.665-28.665s12.859-28.665 28.665-28.665 28.665 12.859 28.665 28.665-12.86 28.665-28.665 28.665z"/><path d="m225.536 342.014c-24.077 0-43.665 19.588-43.665 43.665s19.588 43.665 43.665 43.665 43.664-19.588 43.664-43.665-19.587-43.665-43.664-43.665zm0 72.33c-15.806 0-28.665-12.859-28.665-28.665s12.859-28.665 28.665-28.665c15.805 0 28.664 12.859 28.664 28.665s-12.859 28.665-28.664 28.665z"/><path d="m411.209 342.014c-24.076 0-43.664 19.588-43.664 43.665s19.588 43.665 43.664 43.665c24.077 0 43.665-19.588 43.665-43.665s-19.588-43.665-43.665-43.665zm0 72.33c-15.806 0-28.664-12.859-28.664-28.665s12.858-28.665 28.664-28.665 28.665 12.859 28.665 28.665-12.859 28.665-28.665 28.665z"/><path d="m386.37 138.088h-57.54c-8.591 0-15.58 6.989-15.58 15.58v81.487c0 10.952 8.91 19.863 19.863 19.863h57.215c5.607 0 10.979-2.386 14.739-6.547 3.759-4.16 5.589-9.745 5.022-15.322l-8.228-81.06c-.81-7.982-7.47-14.001-15.491-14.001zm7.568 100.326c-.541.599-1.729 1.603-3.609 1.603h-57.215c-2.682 0-4.863-2.182-4.863-4.863v-81.487c0-.32.26-.58.58-.58h57.54c.309 0 .537.208.568.517l8.228 81.06c.189 1.869-.689 3.152-1.229 3.75z"/><path d="m52.911 108.09c-4.142 0-7.5 3.358-7.5 7.5v144.556c0 4.142 3.358 7.5 7.5 7.5s7.5-3.358 7.5-7.5v-21.338h42.783v21.338c0 4.142 3.358 7.5 7.5 7.5s7.5-3.358 7.5-7.5v-144.556c0-4.142-3.358-7.5-7.5-7.5s-7.5 3.358-7.5 7.5v21.338h-42.783v-21.338c0-4.142-3.358-7.5-7.5-7.5zm7.5 115.717v-29.601h42.783v29.601zm42.783-71.88v27.279h-42.783v-27.279z"/><path d="m447.374 267.084h-13.575c-10.559 0-19.148 8.59-19.148 19.149s8.59 19.149 19.148 19.149h13.575c10.559 0 19.148-8.59 19.148-19.149s-8.589-19.149-19.148-19.149zm0 23.298h-13.575c-2.287 0-4.148-1.861-4.148-4.149s1.861-4.149 4.148-4.149h13.575c2.287 0 4.148 1.861 4.148 4.149s-1.861 4.149-4.148 4.149z"/></g></svg>