<svg id="Capa_1" enable-background="new 0 0 511.997 511.997" height="512" viewBox="0 0 511.997 511.997" width="512" xmlns="http://www.w3.org/2000/svg"><g><path d="m475.603 55.05c12.175 0 22.08-9.905 22.08-22.08 0-5.904-2.296-11.453-6.467-15.624-4.17-4.17-9.715-6.467-15.613-6.467h-36.89v-3.379c0-4.142-3.358-7.5-7.5-7.5h-39.84c-4.142 0-7.5 3.358-7.5 7.5v3.38h-249.37c-12.18 0-22.09 9.91-22.09 22.09 0 5.899 2.297 11.444 6.466 15.612 4.169 4.17 9.718 6.467 15.624 6.467h183.5c4.142 0 7.5-3.358 7.5-7.5s-3.358-7.5-7.5-7.5h-183.5c-1.898 0-3.68-.736-5.017-2.074-1.336-1.336-2.073-3.114-2.073-5.006 0-3.91 3.181-7.09 7.09-7.09h249.37v14.17h-35.91c-4.142 0-7.5 3.358-7.5 7.5s3.358 7.5 7.5 7.5h35.91v17.829c-12.839 8.779-21.285 23.534-21.285 40.228v105.234c0 17.702 9.495 33.224 23.656 41.752v57.355c0 16.736 5.035 32.858 14.559 46.624l20.984 30.338c3.7 5.349 5.656 11.612 5.656 18.114v17.53c0 17.558-14.284 31.842-31.842 31.842s-31.842-14.284-31.842-31.842v-69.221c0-37.157-30.23-67.387-67.387-67.387h-1.369v-97.265c0-34.099-27.737-61.84-61.83-61.84h-157.02c-34.099 0-61.84 27.741-61.84 61.84v213.15c0 4.142 3.358 7.5 7.5 7.5s7.5-3.358 7.5-7.5v-213.15c0-25.828 21.012-46.84 46.84-46.84h157.02c25.822 0 46.83 21.013 46.83 46.84v228.15c0 25.822-21.008 46.83-46.83 46.83h-157.02c-20.851 0-39.386-13.989-45.075-34.02-1.132-3.984-5.277-6.297-9.264-5.166-3.984 1.132-6.297 5.279-5.166 9.264 6.822 24.017 27.627 41.455 52.003 44.458.053 14.042 11.491 25.451 25.545 25.451 13.899 0 25.234-11.159 25.534-24.988h69.857c.3 13.829 11.635 24.988 25.534 24.988 14.057 0 25.497-11.412 25.546-25.458 30.569-3.713 54.335-29.805 54.335-61.36v-80.784h1.369c9.532 0 17.287 7.755 17.287 17.288v69.221c0 45.183 36.759 81.942 81.942 81.942 45.188 0 81.952-36.759 81.952-81.942v-17.53c0-16.737-5.035-32.859-14.56-46.625l-20.992-30.337c-3.7-5.348-5.656-11.612-5.656-18.114v-57.356c14.161-8.528 23.655-24.05 23.655-41.751v-105.235c0-16.695-8.446-31.45-21.287-40.229v-17.827zm-381.406 441.098c-5.626 0-10.238-4.429-10.533-9.983h21.066c-.294 5.554-4.906 9.983-10.533 9.983zm120.925 0c-5.627 0-10.239-4.429-10.533-9.983h21.066c-.294 5.554-4.906 9.983-10.533 9.983zm260.481-470.268c1.892 0 3.67.736 5.006 2.073 1.337 1.337 2.074 3.12 2.074 5.018 0 3.904-3.176 7.08-7.08 7.08h-36.89v-14.171zm-45.938 318.218 20.994 30.337c7.781 11.246 11.895 24.417 11.895 38.089v17.53c0 36.912-30.034 66.942-66.952 66.942-36.912 0-66.942-30.03-66.942-66.942v-69.221c0-17.803-14.484-32.288-32.287-32.288h-1.369v-20.1h1.369c28.886 0 52.387 23.501 52.387 52.387v69.221c0 25.829 21.013 46.842 46.842 46.842s46.842-21.013 46.842-46.842v-17.53c0-9.565-2.877-18.781-8.32-26.648l-20.985-30.339c-7.781-11.246-11.895-24.417-11.895-38.089v-51.45c3.244.683 6.605 1.048 10.049 1.048 3.445 0 6.806-.365 10.05-1.048v51.45c.001 9.567 2.878 18.782 8.322 26.651zm15.335-125.757c0 18.585-15.12 33.706-33.706 33.706s-33.706-15.12-33.706-33.706v-105.235c0-18.585 15.12-33.706 33.706-33.706s33.706 15.121 33.706 33.706zm-33.706-153.94c-4.292 0-8.454.563-12.421 1.611v-51.012h24.84v51.011c-3.967-1.047-8.128-1.61-12.419-1.61z"/><path d="m205.913 176.808h-102.507c-19.546 0-35.449 15.902-35.449 35.449v20.101c0 19.546 15.902 35.449 35.449 35.449h102.508c19.546 0 35.449-15.902 35.449-35.449v-20.101c-.001-19.547-15.903-35.449-35.45-35.449zm20.449 55.549c0 11.275-9.173 20.449-20.449 20.449h-102.507c-11.275 0-20.449-9.173-20.449-20.449v-20.101c0-11.275 9.173-20.449 20.449-20.449h102.508c11.275 0 20.449 9.173 20.449 20.449v20.101z"/><path d="m78.103 446.503h22.386c11.766 0 21.339-9.573 21.339-21.339 0-5.28-1.939-10.109-5.127-13.839 3.189-3.73 5.127-8.559 5.127-13.839s-1.939-10.109-5.127-13.839c3.189-3.73 5.127-8.559 5.127-13.839 0-11.766-9.573-21.339-21.339-21.339h-22.386c-11.767 0-21.339 9.573-21.339 21.339 0 5.28 1.939 10.109 5.127 13.839-3.189 3.73-5.127 8.559-5.127 13.839s1.939 10.109 5.127 13.839c-3.189 3.73-5.127 8.559-5.127 13.839 0 11.767 9.573 21.339 21.339 21.339zm22.386-15h-22.386c-3.496 0-6.339-2.844-6.339-6.339 0-3.495 2.844-6.339 6.339-6.339h22.386c3.495 0 6.339 2.844 6.339 6.339 0 3.496-2.844 6.339-6.339 6.339zm-28.725-34.017c0-3.496 2.844-6.339 6.339-6.339h22.386c3.495 0 6.339 2.844 6.339 6.339s-2.844 6.339-6.339 6.339h-22.386c-3.495 0-6.339-2.844-6.339-6.339zm0-27.678c0-3.495 2.844-6.339 6.339-6.339h22.386c3.495 0 6.339 2.844 6.339 6.339s-2.844 6.339-6.339 6.339h-22.386c-3.495 0-6.339-2.844-6.339-6.339z"/><path d="m231.216 348.469h-22.386c-11.766 0-21.339 9.573-21.339 21.339 0 5.28 1.939 10.109 5.127 13.839-3.189 3.73-5.127 8.559-5.127 13.839s1.939 10.109 5.127 13.839c-3.189 3.73-5.127 8.559-5.127 13.839 0 11.766 9.573 21.339 21.339 21.339h22.386c11.766 0 21.339-9.573 21.339-21.339 0-5.28-1.939-10.109-5.127-13.839 3.189-3.73 5.127-8.559 5.127-13.839s-1.939-10.109-5.127-13.839c3.189-3.73 5.127-8.559 5.127-13.839 0-11.766-9.573-21.339-21.339-21.339zm-28.725 21.339c0-3.495 2.844-6.339 6.339-6.339h22.386c3.495 0 6.339 2.844 6.339 6.339s-2.844 6.339-6.339 6.339h-22.386c-3.495 0-6.339-2.844-6.339-6.339zm35.064 27.678c0 3.495-2.844 6.339-6.339 6.339h-22.386c-3.495 0-6.339-2.844-6.339-6.339 0-3.495 2.844-6.339 6.339-6.339h22.386c3.495 0 6.339 2.844 6.339 6.339zm-6.339 34.017h-22.386c-3.495 0-6.339-2.844-6.339-6.339 0-3.495 2.844-6.339 6.339-6.339h22.386c3.495 0 6.339 2.844 6.339 6.339 0 3.496-2.844 6.339-6.339 6.339z"/><path d="m154.659 282.702c-19.293 0-34.99 15.697-34.99 34.99s15.697 34.99 34.99 34.99 34.99-15.697 34.99-34.99-15.696-34.99-34.99-34.99zm0 54.98c-11.022 0-19.99-8.968-19.99-19.99s8.968-19.99 19.99-19.99 19.99 8.968 19.99 19.99-8.967 19.99-19.99 19.99z"/></g></svg>