<svg id="Capa_1" enable-background="new 0 0 511.995 511.995" height="512" viewBox="0 0 511.995 511.995" width="512" xmlns="http://www.w3.org/2000/svg"><g><path d="m54.478 458.999c0 11.026 8.97 19.997 19.996 19.997h246.114c11.026 0 19.996-8.97 19.996-19.997 0-11.025-8.97-19.996-19.996-19.996h-246.114c-11.026 0-19.996 8.971-19.996 19.996zm271.107 0c0 2.755-2.241 4.997-4.996 4.997h-246.115c-2.755 0-4.996-2.242-4.996-4.997 0-2.754 2.241-4.996 4.996-4.996h246.114c2.755 0 4.997 2.242 4.997 4.996z"/><path d="m247.73 351.467h30.396c9.374 0 15.102-5.173 17.682-8.257.004-.004.008-.009.012-.013 2.57-3.087 6.636-9.643 4.977-18.867l-17.101-94.369c-5.298-29.24-30.712-50.462-60.429-50.462h-21.97c-15.252 0-27.66 12.408-27.66 27.66v56.986c0 13.296 10.817 24.113 24.113 24.113h12.526c7.355 0 13.34 5.989 13.34 13.35v25.746c.001 13.295 10.818 24.113 24.114 24.113zm-37.453-78.209h-12.526c-5.025 0-9.113-4.088-9.113-9.113v-56.986c0-6.98 5.68-12.66 12.66-12.66h21.97c22.458 0 41.665 16.039 45.669 38.137l17.099 94.359c.551 3.061-.639 5.275-1.736 6.596-1.102 1.313-3.064 2.875-6.172 2.875h-30.398c-5.025 0-9.113-4.088-9.113-9.113v-25.746c0-15.631-12.713-28.349-28.34-28.349z"/><path d="m510.858 206.595-7.376-23.959c-2.952-9.587-11.675-16.029-21.707-16.029h-10.174v-14.525c0-14.146-11.509-25.655-25.655-25.655h-23.502v-51.427h18.107c20.678 0 37.5-16.822 37.5-37.5s-16.822-37.5-37.5-37.5h-14.35c-4.143 0-7.5 3.358-7.5 7.5s3.357 7.5 7.5 7.5h14.35c12.406 0 22.5 10.093 22.5 22.5s-10.093 22.5-22.5 22.5h-150.17c-2.66 0-5.121 1.409-6.468 3.703l-49.033 83.524c-3.812-.469-7.684-.727-11.609-.727h-40.149l70.688-120.394c4.02-6.851 11.454-11.106 19.402-11.106h122.99c4.143 0 7.5-3.358 7.5-7.5s-3.357-7.5-7.5-7.5h-122.99c-13.246 0-25.638 7.094-32.338 18.513l-75.146 127.987h-16.067c-19.525 0-36.854 13.13-42.141 31.932l-26.391 93.978h-24.987c-30.896 0-56.03 25.135-56.03 56.03 0 14.966 5.83 29.038 16.416 39.623 10.581 10.581 24.649 16.407 39.614 16.407h20.84c4.143 0 7.5-3.358 7.5-7.5s-3.357-7.5-7.5-7.5h-20.84c-10.958 0-21.26-4.267-29.008-12.014-7.753-7.752-12.022-18.057-12.022-29.016 0-22.624 18.406-41.03 41.03-41.03h30.67c3.361 0 6.312-2.236 7.221-5.472l27.929-99.448c3.476-12.359 14.866-20.99 27.7-20.99h73.61c38.419 0 71.281 27.445 78.14 65.256l17.09 94.361c2.177 12.005-1.059 24.261-8.877 33.623-7.816 9.361-19.295 14.73-31.493 14.73h-171.15c-4.143 0-7.5 3.358-7.5 7.5s3.357 7.5 7.5 7.5h12.464v21.533h-44.972c-29.222 0-52.996 23.774-52.996 52.996s23.774 52.996 52.996 52.996h246.114c29.222 0 52.995-23.774 52.995-52.996s-23.773-52.996-52.995-52.996h-44.972v-21.533h2.515c16.657 0 32.333-7.332 43.008-20.116 10.675-12.785 15.094-29.52 12.122-45.911l-17.09-94.362c-6.479-35.718-32.484-63.635-65.804-73.606l44.309-75.475h112.769v51.427h-23.502c-14.146 0-25.655 11.509-25.655 25.655v14.525h-6.041c-10.032 0-18.755 6.442-21.707 16.03l-7.376 23.958c-2.144 6.962-.891 14.315 3.437 20.175 4.327 5.859 10.986 9.22 18.271 9.22h144.281c7.284 0 13.943-3.361 18.271-9.22 4.325-5.859 5.578-13.213 3.434-20.175zm-152.274 252.405c0 20.951-17.045 37.996-37.995 37.996h-246.115c-20.951 0-37.996-17.045-37.996-37.996s17.045-37.996 37.996-37.996h246.114c20.951-.001 37.996 17.044 37.996 37.996zm-97.967-52.997h-126.171v-21.533h126.171zm112.67-253.921c0-5.875 4.78-10.655 10.655-10.655h62.004c5.875 0 10.655 4.78 10.655 10.655v14.525h-83.314zm122.068 65.778c-1.47 1.99-3.73 3.131-6.204 3.131h-144.281c-2.474 0-4.734-1.141-6.204-3.131s-1.895-4.487-1.167-6.852l7.376-23.958c1.002-3.256 3.965-5.443 7.371-5.443h129.529c3.406 0 6.369 2.188 7.371 5.443l7.376 23.958c.728 2.365.303 4.862-1.167 6.852z"/><path d="m417.01 312.301c-11.666 0-21.157-9.491-21.157-21.158s9.491-21.158 21.157-21.158c4.143 0 7.5-3.358 7.5-7.5s-3.357-7.5-7.5-7.5c-19.938 0-36.157 16.22-36.157 36.158s16.22 36.158 36.157 36.158c11.667 0 21.158 9.491 21.158 21.158s-9.491 21.158-21.158 21.158c-4.143 0-7.5 3.358-7.5 7.5s3.357 7.5 7.5 7.5c19.938 0 36.158-16.22 36.158-36.158s-16.22-36.158-36.158-36.158z"/></g></svg>