<svg id="Capa_1" enable-background="new 0 0 511.996 511.996" height="512" viewBox="0 0 511.996 511.996" width="512" xmlns="http://www.w3.org/2000/svg"><g><path d="m495.398 142.126c0-44.694-17.407-86.723-49.016-118.342-1.407-1.407-3.314-2.198-5.304-2.198-.001 0-.001 0-.001 0-1.989 0-3.896.79-5.303 2.196l-12.684 12.683c-26.14-23.569-59.611-36.465-95.061-36.465-35.451 0-68.918 12.895-95.05 36.46l-12.677-12.677c-1.407-1.407-3.314-2.197-5.304-2.197s-3.896.79-5.304 2.197c-31.608 31.609-49.017 73.638-49.017 118.343 0 28.975 7.381 57.062 21.444 82.02h-23.018v-1.781c0-12.202-9.927-22.129-22.129-22.129s-22.129 9.927-22.129 22.129v1.781h-61.337c-20.353 0-36.91 16.558-36.91 36.91 0 9.864 3.843 19.132 10.817 26.094 6.969 6.968 16.235 10.806 26.093 10.806h61.338v1.783c0 12.202 9.927 22.129 22.129 22.129s22.129-9.927 22.129-22.129v-1.78h85.275v12.708c-.004.516.044 1.04.151 1.565l34.62 168.87c3.669 17.901 19.595 30.894 37.867 30.894h22.04c18.267 0 34.188-12.993 37.857-30.893l7.149-34.86c.833-4.058-1.782-8.021-5.84-8.854-4.059-.829-8.021 1.782-8.854 5.84l-7.15 34.86c-2.245 10.955-11.987 18.906-23.163 18.906h-22.04c-11.182 0-20.927-7.951-23.172-18.906l-32.774-159.865h133.923l-19.604 95.645c-.831 4.058 1.784 8.021 5.842 8.853.508.104 1.015.154 1.514.154 3.487 0 6.612-2.446 7.34-5.996l21.438-104.59c.108-.505.167-1.029.167-1.567v-23.63c51.744-29.907 83.708-85.032 83.708-144.967zm-441.89 140.83c-5.851 0-11.351-2.278-15.491-6.418-4.14-4.131-6.419-9.63-6.419-15.482 0-12.082 9.829-21.91 21.91-21.91h61.338v43.81zm90.596 16.783c0 3.931-3.198 7.129-7.129 7.129s-7.129-3.198-7.129-7.129v-77.374c0-3.931 3.198-7.129 7.129-7.129s7.129 3.198 7.129 7.129zm15-16.78v-43.813h85.896c-.394 3.286-.62 6.623-.62 10.014v33.8h-85.276zm100.275 20.266v-54.066c0-37.857 30.799-68.656 68.655-68.656 37.857 0 68.656 30.799 68.656 68.656v54.066zm152.311-33.754v-20.312c0-46.128-37.528-83.656-83.656-83.656-37.418 0-69.173 24.695-79.832 58.642h-48.566c-15.674-24.483-23.958-52.748-23.958-82.02 0-38.19 13.952-74.231 39.447-102.306l30.02 30.02c2.93 2.929 7.678 2.929 10.607 0s2.929-7.678 0-10.606l-12.146-12.146c23.286-20.742 52.981-32.087 84.423-32.087 31.441 0 61.14 11.346 84.436 32.09l-48.747 48.743c-10.174-7.88-22.595-12.165-35.689-12.165-13.091 0-25.51 4.286-35.685 12.168l-15.693-15.693c-2.932-2.93-7.68-2.929-10.607 0-2.929 2.929-2.929 7.678 0 10.606l56.681 56.68c2.93 2.929 7.679 2.929 10.606 0l107.618-107.608c25.497 28.083 39.449 64.125 39.449 102.305 0 51.602-26.034 99.285-68.708 127.345zm-58.694-162.917-24.968 24.966-24.962-24.962c7.256-5.12 15.892-7.89 24.963-7.89 9.074 0 17.711 2.768 24.967 7.886z"/><path d="m356.168 47.335c4.143 0 7.5-3.358 7.5-7.5v-.503c0-4.142-3.357-7.5-7.5-7.5s-7.5 3.358-7.5 7.5v.503c0 4.142 3.357 7.5 7.5 7.5z"/><path d="m375.754 64.461c4.143 0 7.5-3.358 7.5-7.5v-.503c0-4.142-3.357-7.5-7.5-7.5s-7.5 3.358-7.5 7.5v.503c0 4.143 3.357 7.5 7.5 7.5z"/><path d="m353.006 71.286c4.143 0 7.5-3.358 7.5-7.5v-.503c0-4.142-3.357-7.5-7.5-7.5s-7.5 3.358-7.5 7.5v.503c0 4.142 3.357 7.5 7.5 7.5z"/></g></svg>