<svg id="Capa_1" enable-background="new 0 0 511.997 511.997" height="512" viewBox="0 0 511.997 511.997" width="512" xmlns="http://www.w3.org/2000/svg"><g><path d="m471.932 227.296-37.608-6.401v-52.235c0-9.579-5.766-18.018-14.13-21.751v-28.3c0-4.142-3.358-7.5-7.5-7.5s-7.5 3.358-7.5 7.5v26.24h-25v-41.24c0-6.087-4.953-11.04-11.04-11.04h-3.288c1.924-3.753 3.017-8 3.017-12.499 0-4.5-1.094-8.747-3.018-12.501h3.289c15.12 0 28.746 9.571 33.909 23.816 1.105 3.05 3.984 4.946 7.052 4.946.848 0 1.711-.145 2.555-.451 3.895-1.411 5.907-5.712 4.496-9.606-7.306-20.16-26.6-33.705-48.011-33.705h-27.77c-.013 0-.025.002-.038.002-15.147.02-27.463 12.348-27.463 27.499 0 15.163 12.336 27.5 27.5 27.5h.019 23.792v39.351c-8.378 3.745-14.13 12.173-14.13 21.74v38.063l-50.473-8.591-35.029-142.314h8.51c15.39 0 27.91-12.52 27.91-27.91 0-15.389-12.52-27.909-27.909-27.909h-238.408c-15.39 0-27.91 12.52-27.91 27.909 0 15.39 12.52 27.91 27.91 27.91h5.028v231.408c-14.342 10.704-26.927 23.978-37.041 39.473-6.776 10.382-3.844 24.351 6.542 31.14 5.033 3.285 11.046 4.416 16.928 3.181 5.886-1.236 10.935-4.69 14.211-9.721 19.922-30.513 53.53-49.048 89.9-49.581 4.142-.061 7.45-3.467 7.389-7.609s-3.489-7.446-7.609-7.389c-41.366.605-79.586 21.682-102.245 56.386-1.09 1.675-2.77 2.823-4.729 3.234-1.963.412-3.968.034-5.643-1.059-3.463-2.264-4.442-6.922-2.184-10.383 25.828-39.567 69.424-63.189 116.62-63.189 76.733 0 139.16 62.427 139.16 139.16 0 4.136-3.364 7.5-7.5 7.5s-7.5-3.364-7.5-7.5c0-27.959-9.601-55.401-27.035-77.271-17.158-21.524-41.238-36.932-67.804-43.387-4.025-.977-8.081 1.493-9.059 5.518s1.492 8.081 5.518 9.059c23.349 5.673 44.521 19.225 59.616 38.161 15.547 19.503 23.765 42.99 23.765 67.921 0 12.407 10.093 22.5 22.5 22.5 9.972 0 18.445-6.523 21.388-15.525l39.434-3.417c-1.23 5.575-1.898 11.359-1.898 17.299 0 44.261 36.009 80.27 80.27 80.27s80.27-36.009 80.27-80.27c0-11.157-2.293-21.787-6.425-31.45 20.187-5.886 34.461-24.31 34.461-46.177v-79.35c-.001-23.552-16.85-43.509-40.062-47.455zm-449.176-199.387c0-7.118 5.791-12.909 12.91-12.909h238.408c7.119 0 12.91 5.791 12.91 12.909 0 7.119-5.791 12.91-12.91 12.91h-238.408c-7.119 0-12.91-5.791-12.91-12.91zm471.828 234.401h-25.141c-1.931-9.867-10.635-17.339-21.059-17.339-7.739 0-14.513 4.13-18.291 10.288-6.692.762-12.859 3.267-18.039 7.051h-62.812c-11.397 0-20.67-9.272-20.67-20.67v-23.53l140.843 23.974c11.659 1.981 20.978 9.831 25.169 20.226zm-52.665 4.127c0-3.565 2.9-6.466 6.466-6.466s6.466 2.901 6.466 6.466v53.133c0 3.565-2.901 6.466-6.466 6.466s-6.466-2.901-6.466-6.466zm-15 4.823v43.486c-9.01-3.117-15.499-11.687-15.499-21.743s6.489-18.626 15.499-21.743zm-98.036-191.19c0-6.893 5.607-12.5 12.5-12.5s12.5 5.607 12.5 12.5c0 6.889-5.602 12.494-12.49 12.499h-.009c-.002 0-.004 0-.005 0-6.891-.002-12.496-5.608-12.496-12.499zm37.18 88.59c0-4.397 3.275-8.148 7.677-8.733.365-.052.732-.077 1.123-.077h35.65c.392 0 .773.026 1.192.084 4.343.577 7.618 4.328 7.618 8.726v49.682l-53.26-9.066zm37.624 328.337c-35.99 0-65.27-29.28-65.27-65.27s29.28-65.27 65.27-65.27 65.27 29.28 65.27 65.27-29.28 65.27-65.27 65.27zm66.383-110.342c-14.459-21.228-38.818-35.198-66.383-35.198-32.578 0-60.665 19.52-73.233 47.469l-43.677 3.784c-4.257-81.226-71.677-146.001-153.944-146.001-27.595 0-54.075 7.296-77.14 20.624v-221.514h194.422l37.085 150.673c.714 2.9 3.08 5.1 6.024 5.601l20.348 3.464v26.083c0 19.668 16.001 35.67 35.67 35.67h50.583c-2.181 4.788-3.406 10.099-3.406 15.693 0 19.49 14.751 35.591 33.674 37.745 3.778 6.157 10.552 10.287 18.29 10.287 11.836 0 21.466-9.63 21.466-21.466v-42.26h27.143v76.79c.001 16.185-11.356 29.633-26.922 32.556z"/><path d="m246.247 198.404c6.392-8.156 8.638-18.605 6.161-28.668l-15.612-63.427c-3.694-15.008-17.069-25.49-32.525-25.49h-90.08c-18.47 0-33.496 15.026-33.496 33.496v63.427c0 18.47 15.026 33.496 33.496 33.496h105.692c10.362 0 19.972-4.677 26.364-12.834zm-150.552-20.662v-63.427c0-10.199 8.297-18.496 18.496-18.496h90.08c8.535 0 15.92 5.788 17.96 14.075l15.612 63.427c1.368 5.557.128 11.327-3.402 15.831-3.53 4.503-8.836 7.086-14.558 7.086h-105.692c-10.199 0-18.496-8.297-18.496-18.496z"/><path d="m357.726 285.503c-5.099 0-9.772 1.84-13.404 4.884-3.632-3.044-8.306-4.884-13.404-4.884s-9.772 1.84-13.404 4.884c-3.632-3.044-8.306-4.884-13.404-4.884-11.527 0-20.904 9.377-20.904 20.904v21.682c0 11.527 9.377 20.904 20.904 20.904 5.099 0 9.772-1.84 13.404-4.884 3.632 3.044 8.305 4.884 13.404 4.884s9.772-1.84 13.404-4.884c3.632 3.044 8.306 4.884 13.404 4.884 11.527 0 20.904-9.377 20.904-20.904v-21.682c.001-11.527-9.377-20.904-20.904-20.904zm-53.616 48.491c-3.256 0-5.904-2.648-5.904-5.904v-21.682c0-3.256 2.648-5.904 5.904-5.904s5.904 2.648 5.904 5.904v21.682c0 3.255-2.648 5.904-5.904 5.904zm26.808 0c-3.255 0-5.904-2.648-5.904-5.904v-21.682c0-3.256 2.648-5.904 5.904-5.904s5.904 2.648 5.904 5.904v21.682c0 3.255-2.648 5.904-5.904 5.904zm32.713-5.905c0 3.256-2.648 5.904-5.904 5.904s-5.904-2.648-5.904-5.904v-21.682c0-3.256 2.648-5.904 5.904-5.904s5.904 2.648 5.904 5.904z"/><path d="m132.831 309.748c-55.76 0-101.124 45.364-101.124 101.124s45.364 101.124 101.124 101.124 101.124-45.364 101.124-101.124-45.364-101.124-101.124-101.124zm0 187.248c-47.489 0-86.124-38.635-86.124-86.124s38.635-86.124 86.124-86.124 86.124 38.635 86.124 86.124-38.635 86.124-86.124 86.124z"/><path d="m132.831 351.455c-32.763 0-59.417 26.654-59.417 59.417s26.655 59.417 59.417 59.417 59.417-26.655 59.417-59.417-26.654-59.417-59.417-59.417zm0 103.835c-24.492 0-44.417-19.926-44.417-44.417s19.926-44.417 44.417-44.417 44.417 19.925 44.417 44.417-19.925 44.417-44.417 44.417z"/><path d="m403.687 383.875c-26.386 0-47.853 21.467-47.853 47.853s21.467 47.853 47.853 47.853 47.853-21.467 47.853-47.853c0-26.387-21.466-47.853-47.853-47.853zm0 80.705c-18.115 0-32.853-14.738-32.853-32.853s14.738-32.853 32.853-32.853 32.853 14.738 32.853 32.853-14.737 32.853-32.853 32.853z"/><path d="m232.69 222.096h-23.78c-11.415 0-20.702 9.287-20.702 20.701s9.287 20.701 20.702 20.701h23.779c11.415 0 20.702-9.287 20.702-20.701s-9.286-20.701-20.701-20.701zm0 26.402h-23.78c-3.144 0-5.702-2.558-5.702-5.701s2.558-5.701 5.702-5.701h23.779c3.144 0 5.702 2.558 5.702 5.701s-2.557 5.701-5.701 5.701z"/></g></svg>