<svg id="Capa_1" enable-background="new 0 0 512 512" height="512" viewBox="0 0 512 512" width="512" xmlns="http://www.w3.org/2000/svg"><g><path d="m431.3 0h-350.6c-44.498 0-80.7 36.202-80.7 80.7v282.87c0 4.142 3.358 7.5 7.5 7.5s7.5-3.358 7.5-7.5v-282.87c0-36.227 29.473-65.7 65.7-65.7h350.6c36.227 0 65.7 29.473 65.7 65.7v336.787h-482v-23.917c0-4.142-3.358-7.5-7.5-7.5s-7.5 3.358-7.5 7.5v31.417.003 43.651c0 23.908 19.451 43.359 43.359 43.359h75.303c17.664 0 33.41-10.56 40.114-26.902l6.866-16.736h180.715l6.866 16.736c6.705 16.342 22.451 26.902 40.115 26.902h75.303c23.908 0 43.359-19.451 43.359-43.359v-43.651-.003-344.287c0-44.498-36.202-80.7-80.7-80.7zm37.341 497h-75.303c-11.553 0-21.852-6.906-26.236-17.595l-8.776-21.39c-1.155-2.815-3.896-4.653-6.938-4.653h-190.775c-3.042 0-5.784 1.838-6.938 4.653l-8.776 21.39c-4.385 10.689-14.684 17.595-26.237 17.595h-75.303c-15.637 0-28.359-12.722-28.359-28.359v-36.151h482v36.151c0 15.637-12.722 28.359-28.359 28.359z"/><path d="m170.63 358.167c9.236 9.237 21.517 14.324 34.579 14.324h221.866c13.744 0 24.925-11.181 24.925-24.925v-266.866c0-11.414-9.286-20.7-20.7-20.7h-350.6c-11.414 0-20.7 9.286-20.7 20.7v146.573c0 13.06 5.085 25.339 14.32 34.576zm256.445-.677h-16.812c1.762-3.571 2.757-7.586 2.757-11.83 0-7.168-2.791-13.907-7.857-18.973-.154-.154-.309-.305-.465-.455 5.056-4.817 8.238-11.523 8.322-18.929.081-7.284-2.709-14.13-7.864-19.284-5.076-5.062-11.812-7.85-18.966-7.85h-19.81c-4.142 0-7.5 3.358-7.5 7.5s3.358 7.5 7.5 7.5h19.81c3.156 0 6.129 1.232 8.367 3.464 2.269 2.269 3.499 5.289 3.463 8.502-.073 6.448-5.6 11.694-12.32 11.694-4.142 0-7.5 3.358-7.5 7.5s3.358 7.5 7.5 7.5h.49c3.162 0 6.133 1.23 8.367 3.463s3.463 5.205 3.463 8.367c0 6.523-5.307 11.83-11.83 11.83h-146.3c-3.162 0-6.133-1.23-8.367-3.463s-3.463-5.205-3.463-8.367c0-6.523 5.307-11.83 11.83-11.83h94.742c4.142 0 7.5-3.358 7.5-7.5s-3.358-7.5-7.5-7.5h-40.142c-8.288 0-15.03-6.743-15.03-15.03v-36c0-3.162 1.23-6.133 3.457-8.36 2.437-2.431 5.805-3.687 9.245-3.438 6.145.434 10.959 5.819 10.959 12.258v19.41c0 4.142 3.358 7.5 7.5 7.5h25.78c4.142 0 7.5-3.358 7.5-7.5s-3.358-7.5-7.5-7.5h-18.28v-11.91c0-14.277-10.938-26.234-24.896-27.221-7.768-.554-15.387 2.282-20.907 7.788-5.067 5.066-7.857 11.805-7.857 18.973v36c0 5.472 1.472 10.607 4.039 15.03h-28.61c-14.794 0-26.83 12.036-26.83 26.83 0 4.172.951 8.195 2.74 11.83h-10.591c-9.055 0-17.568-3.526-23.971-9.93l-96.31-96.317c-6.402-6.403-9.928-14.915-9.928-23.969v-28.972h12.003c14.531 0 26.409-11.544 26.962-25.941h99.214c1.276 14.516 13.493 25.941 28.336 25.941h25.335v13.718c0 13.477 10.964 24.441 24.441 24.441s24.441-10.964 24.441-24.441v-13.718h25.336c14.842 0 27.059-11.425 28.335-25.941h28.642c.553 14.398 12.432 25.941 26.962 25.941h11.993v149.264c0 5.473-4.452 9.925-9.925 9.925zm-214.013-200.13h-99.07v-26.79h99.07zm-114.07-34.319c0 .01-.001.019-.001.029v41.79c0 .01.001.019.001.029v6.424c0 6.611-5.378 11.989-11.989 11.989h-11.993v-81h11.993c6.611 0 11.989 5.378 11.989 11.989zm182.858 75.26h18.882v13.718c0 5.206-4.235 9.441-9.441 9.441s-9.441-4.235-9.441-9.441zm26.382-15h-33.882-32.835c-7.418 0-13.453-6.035-13.453-13.453v-54.095c0-7.418 6.035-13.453 13.453-13.453h99.554c7.417 0 13.452 6.035 13.452 13.453v54.095c0 7.418-6.035 13.453-13.452 13.453zm61.289-52.731h28.498v26.79h-28.498zm67.479 52.731h-11.993c-6.611 0-11.989-5.378-11.989-11.989v-6.424c0-.01.001-.019.001-.029v-41.79c0-.01-.001-.019-.001-.029v-8.75c0-6.611 5.378-11.989 11.989-11.989h11.993zm-356.3-108.301h350.6c3.143 0 5.7 2.557 5.7 5.7v6.601h-11.993c-14.882 0-26.989 12.107-26.989 26.989v1.279h-28.503c-.1-15.604-12.821-28.269-28.447-28.269h-99.554c-15.627 0-28.348 12.664-28.448 28.269h-99.075v-1.279c0-14.882-12.107-26.989-26.989-26.989h-12.002v-6.601c0-3.143 2.557-5.7 5.7-5.7z"/><path d="m91.535 372.489c17.388 0 31.535-14.146 31.535-31.535 0-17.388-14.146-31.535-31.535-31.535s-31.535 14.147-31.535 31.535c0 17.389 14.146 31.535 31.535 31.535zm0-48.07c9.117 0 16.535 7.417 16.535 16.535s-7.417 16.535-16.535 16.535-16.535-7.417-16.535-16.535c0-9.117 7.417-16.535 16.535-16.535z"/></g></svg>