<svg id="Capa_1" enable-background="new 0 0 511.989 511.989" height="512" viewBox="0 0 511.989 511.989" width="512" xmlns="http://www.w3.org/2000/svg"><g><path d="m74.365 352.051c-11.026 0-19.996 8.97-19.996 19.996s8.97 19.997 19.996 19.997h213.117c11.026 0 19.997-8.97 19.997-19.997 0-11.026-8.97-19.996-19.997-19.996zm218.114 19.996c0 2.755-2.242 4.997-4.997 4.997h-213.117c-2.755 0-4.996-2.242-4.996-4.997s2.241-4.996 4.996-4.996h213.117c2.755 0 4.997 2.242 4.997 4.996z"/><path d="m500.936 251.316c1.595-5.294 2.463-10.901 2.463-16.708s-.868-11.413-2.463-16.707l3.542-3.542c10.015-10.014 10.015-26.309 0-36.323-4.851-4.851-11.301-7.522-18.162-7.522s-13.312 2.671-18.162 7.521l-2.299 2.299c-4.717-1.785-9.722-2.974-14.929-3.47v-1.23c0-14.158-11.522-25.676-25.686-25.676-14.158 0-25.676 11.518-25.676 25.676v.958h-15.932v-.958c0-14.158-11.519-25.676-25.676-25.676-14.164 0-25.686 11.518-25.686 25.676v.958h-17.6v-55.277c0-18.952-15.423-34.37-34.38-34.37h-119.78c-18.952 0-34.37 15.418-34.37 34.37v58.33h-43.32c-16.927 0-33.2 5.07-47.059 14.663-3.406 2.357-4.256 7.03-1.898 10.436s7.028 4.256 10.436 1.898c11.339-7.849 24.659-11.997 38.521-11.997h50.82c4.142 0 7.5-3.358 7.5-7.5v-65.83c0-10.681 8.689-19.37 19.37-19.37h119.78c10.686 0 19.38 8.689 19.38 19.37v178.36c0 10.663-8.658 19.339-19.312 19.376l-247.338.004c-9.937 0-18.02-8.083-18.02-18.02v-38.57c0-12.943 3.664-25.534 10.595-36.41 2.226-3.493 1.199-8.129-2.294-10.355-3.492-2.226-8.129-1.199-10.355 2.294-8.469 13.289-12.946 28.667-12.946 44.471v38.57c0 18.208 14.812 33.02 33.02 33.02h4.451c-9.921 9.636-16.102 23.103-16.102 37.993 0 29.222 23.774 52.996 52.996 52.996h213.118c29.222 0 52.996-23.774 52.996-52.997 0-22.694-14.342-42.094-34.435-49.634 5.362-6.065 8.626-14.026 8.626-22.739v-7.052h17.601v.95c0 14.164 11.522 25.686 25.686 25.686 14.158 0 25.676-11.522 25.676-25.686v-.95h15.932v.95c0 14.164 11.519 25.686 25.676 25.686 14.164 0 25.686-11.522 25.686-25.686v-1.221c5.206-.496 10.211-1.685 14.928-3.47l2.303 2.303c5.006 4.999 11.58 7.499 18.157 7.498 6.576 0 13.155-2.501 18.163-7.502 10.014-10.014 10.014-26.309 0-36.323zm-14.62-65.803c2.854 0 5.538 1.111 7.555 3.128 4.04 4.04 4.15 10.53.354 14.718-3.866-6.022-8.807-11.289-14.562-15.518 1.885-1.505 4.205-2.328 6.653-2.328zm-71.751-9.88c0-5.887 4.79-10.676 10.676-10.676 5.892 0 10.686 4.789 10.686 10.676v.958h-21.362zm-67.294 0c0-5.887 4.794-10.676 10.686-10.676 5.887 0 10.676 4.789 10.676 10.676v.958h-21.362zm-21.792 196.415c0 20.951-17.045 37.996-37.996 37.996h-213.118c-20.951 0-37.996-17.045-37.996-37.997 0-20.906 16.972-37.919 37.861-37.993l213.252-.003c20.952 0 37.997 17.046 37.997 37.997zm-10.809-110.163h77.63c4.142 0 7.5-3.358 7.5-7.5s-3.358-7.5-7.5-7.5h-77.63v-24.56h130.71c6.771 0 12.28 5.509 12.28 12.28s-5.509 12.28-12.28 12.28h-23.55c-4.142 0-7.5 3.358-7.5 7.5s3.358 7.5 7.5 7.5h23.55c15.042 0 27.28-12.238 27.28-27.28s-12.238-27.28-27.28-27.28h-130.71v-15.733h130.713c23.719 0 43.016 19.297 43.016 43.016s-19.297 43.016-43.016 43.016h-130.713zm53.963 31.688c0 5.892-4.79 10.686-10.676 10.686-5.892 0-10.686-4.794-10.686-10.686v-.95h21.362zm56.608 10.686c-5.887 0-10.676-4.794-10.676-10.686v-.95h21.362v.95c0 5.892-4.794 10.686-10.686 10.686zm68.634-23.688c-3.88 3.874-10.022 4.138-14.211.802 5.754-4.229 10.695-9.495 14.561-15.517 3.796 4.189 3.686 10.679-.35 14.715z"/><path d="m264.676 191.597c10.325 0 18.726-8.4 18.726-18.726v-36.811c0-10.326-8.4-18.726-18.726-18.726h-72.526c-10.326 0-18.726 8.4-18.726 18.726v36.811c0 10.326 8.4 18.726 18.726 18.726zm-76.252-18.726v-36.811c0-2.055 1.671-3.726 3.726-3.726h72.526c2.054 0 3.726 1.671 3.726 3.726v36.811c0 2.055-1.671 3.726-3.726 3.726h-72.526c-2.055 0-3.726-1.672-3.726-3.726z"/><path d="m88.389 285.566c3.632 3.044 8.306 4.884 13.404 4.884s9.772-1.84 13.404-4.884c3.632 3.044 8.306 4.884 13.404 4.884 11.526 0 20.904-9.377 20.904-20.904v-21.682c0-11.527-9.377-20.904-20.904-20.904-5.098 0-9.772 1.84-13.404 4.884-3.632-3.044-8.306-4.884-13.404-4.884s-9.772 1.84-13.404 4.884c-3.632-3.044-8.306-4.884-13.404-4.884-11.527 0-20.904 9.377-20.904 20.904v21.682c0 11.527 9.377 20.904 20.904 20.904 5.099-.001 9.772-1.841 13.404-4.884zm40.213-43.607c3.255 0 5.904 2.648 5.904 5.904v21.682c0 3.256-2.648 5.904-5.904 5.904-3.255 0-5.904-2.648-5.904-5.904v-21.682c0-3.256 2.648-5.904 5.904-5.904zm-26.809 0c3.256 0 5.904 2.648 5.904 5.904v21.682c0 3.256-2.648 5.904-5.904 5.904s-5.904-2.648-5.904-5.904v-21.682c0-3.256 2.649-5.904 5.904-5.904zm-32.712 27.586v-21.682c0-3.256 2.648-5.904 5.904-5.904s5.904 2.648 5.904 5.904v21.682c0 3.256-2.648 5.904-5.904 5.904s-5.904-2.648-5.904-5.904z"/></g></svg>