<svg id="Capa_1" enable-background="new 0 0 512 512" height="512" viewBox="0 0 512 512" width="512" xmlns="http://www.w3.org/2000/svg"><g><path d="m54.373 458.99c0 11.026 8.97 19.996 19.995 19.996h246.113c11.025 0 19.996-8.97 19.996-19.996s-8.971-19.996-19.996-19.996h-246.113c-11.025 0-19.995 8.97-19.995 19.996zm271.105 0c0 2.755-2.241 4.996-4.996 4.996h-246.114c-2.754 0-4.995-2.241-4.995-4.996s2.241-4.996 4.995-4.996h246.113c2.755 0 4.997 2.241 4.997 4.996z"/><path d="m278.689 266.75c6.316 0 12.174-2.851 16.07-7.822 3.898-4.972 5.271-11.342 3.763-17.479l-17.57-71.43c-1.938-7.871-8.954-13.367-17.062-13.367h-67.343c-12.768 0-23.155 10.387-23.155 23.155v63.788c0 12.768 10.388 23.155 23.155 23.155zm-90.297-23.155v-63.788c0-4.497 3.658-8.155 8.155-8.155h67.343c1.206 0 2.21.785 2.497 1.952l17.569 71.427c.548 2.231-.392 3.867-1 4.643-.608.775-1.971 2.077-4.267 2.077h-82.143c-4.496-.001-8.154-3.659-8.154-8.156z"/><path d="m509.264 272.416c-1.113-3.989-5.25-6.321-9.24-5.207-3.989 1.114-6.321 5.25-5.207 9.24 1.449 5.19 2.184 10.575 2.184 16.003 0 32.688-26.598 59.28-59.29 59.28s-59.29-26.593-59.29-59.28c0-32.693 26.598-59.29 59.29-59.29 17.044 0 33.284 7.353 44.559 20.173 2.735 3.111 7.474 3.414 10.585.679 3.11-2.735 3.414-7.474.679-10.584-5.853-6.656-12.786-12.113-20.406-16.248v-7.071c0-15.141-12.318-27.459-27.46-27.459h-.456v-104.37l20.205-22.76c13.818-15.57 13.112-39.286-1.605-53.991-14.712-14.712-38.427-15.418-53.992-1.606l-133.377 118.407c-4.016-1.093-8.226-1.68-12.553-1.68h-90.54c-26.229 0-47.569 21.34-47.569 47.57v77.53h-59.421c-36.59 0-66.36 29.765-66.36 66.35 0 11.812 3.148 23.414 9.104 33.55 2.098 3.571 6.695 4.765 10.266 2.667 3.571-2.099 4.765-6.695 2.666-10.266-4.602-7.835-7.036-16.808-7.036-25.951 0-28.314 23.04-51.35 51.36-51.35h66.92c4.143 0 7.5-3.358 7.5-7.5v-85.03c0-17.959 14.61-32.57 32.569-32.57h90.54c15.026 0 28.032 10.191 31.627 24.782l35.602 144.691c3.482 14.144.326 28.831-8.658 40.296-8.985 11.466-22.493 18.042-37.06 18.042h-219.04c-9.149 0-18.127-2.433-25.961-7.037-3.574-2.098-8.168-.905-10.267 2.667-2.098 3.571-.904 8.167 2.667 10.266 10.137 5.956 21.741 9.104 33.561 9.104h52.979v21.532h-44.97c-29.222 0-52.996 23.774-52.996 52.996s23.774 52.995 52.996 52.995h246.112c29.222 0 52.995-23.773 52.995-52.995s-23.773-52.996-52.995-52.996h-44.971v-21.532h9.89c19.207 0 37.019-8.671 48.865-23.789 11.848-15.118 16.009-34.485 11.418-53.133l-20.642-83.894 105.169-118.468v87.472h-.463c-15.142 0-27.46 12.318-27.46 27.459v7.054c-23.134 12.602-38.867 37.141-38.867 65.287 0 40.958 33.326 74.28 74.29 74.28s74.29-33.32 74.29-74.279c0-6.791-.921-13.533-2.736-20.036zm-150.787 186.574c0 20.951-17.045 37.995-37.995 37.995h-246.113c-20.951 0-37.996-17.044-37.996-37.995s17.045-37.996 37.996-37.996h246.112c20.951.001 37.996 17.046 37.996 37.996zm-97.966-52.995h-126.171v-21.532h126.171zm49.571-243.147c-2.838-11.518-9.695-21.151-18.858-27.579l128.551-114.125c9.634-8.55 24.318-8.115 33.43.997 9.111 9.103 9.547 23.785.992 33.424l-133.508 150.391zm107.205 57.263c0-6.87 5.59-12.459 12.46-12.459h15.919c6.87 0 12.46 5.589 12.46 12.459v.934c-6.578-1.883-13.441-2.883-20.416-2.883-7.083 0-13.929 1.017-20.423 2.877z"/><path d="m70.018 352.416h21.682c11.526 0 20.904-9.377 20.904-20.904 0-5.098-1.84-9.772-4.884-13.404 3.044-3.632 4.884-8.306 4.884-13.404 0-11.526-9.378-20.904-20.904-20.904h-21.682c-11.526 0-20.904 9.377-20.904 20.904 0 5.099 1.84 9.772 4.884 13.404-3.044 3.632-4.884 8.305-4.884 13.404-.001 11.526 9.377 20.904 20.904 20.904zm21.681-15h-21.681c-3.256 0-5.904-2.648-5.904-5.904 0-3.255 2.648-5.904 5.904-5.904h21.682c3.256 0 5.904 2.648 5.904 5.904 0 3.255-2.649 5.904-5.905 5.904zm-21.681-38.617h21.682c3.256 0 5.904 2.648 5.904 5.904s-2.648 5.904-5.904 5.904h-21.682c-3.256 0-5.904-2.648-5.904-5.904-.001-3.255 2.648-5.904 5.904-5.904z"/><path d="m435.502 19.139c-10.97 0-19.894 8.924-19.894 19.894s8.924 19.894 19.894 19.894 19.895-8.924 19.895-19.894-8.925-19.894-19.895-19.894zm0 24.788c-2.698 0-4.894-2.195-4.894-4.894s2.195-4.894 4.894-4.894 4.895 2.195 4.895 4.894-2.196 4.894-4.895 4.894z"/></g></svg>