<svg id="Capa_1" enable-background="new 0 0 512 512" height="512" viewBox="0 0 512 512" width="512" xmlns="http://www.w3.org/2000/svg"><g><path d="m441.5 437.607v-65.367c0-14.8-12.036-26.84-26.83-26.84h-26.71c-4.143 0-7.5 3.358-7.5 7.5s3.357 7.5 7.5 7.5h26.71c6.523 0 11.83 5.312 11.83 11.84v64.616h-343.88v-64.616c0-6.529 5.312-11.84 11.84-11.84h80.04c11.468 0 21.669-7.285 25.386-18.13l6.398-18.686c1.641-4.781 6.141-7.994 11.196-7.994h74.159c5.056 0 9.556 3.212 11.195 7.993l6.41 18.688c3.716 10.843 13.913 18.128 25.375 18.128h23.6c4.143 0 7.5-3.358 7.5-7.5s-3.357-7.5-7.5-7.5h-23.6c-5.053 0-9.547-3.211-11.186-7.993l-6.411-18.691c-3.72-10.842-13.921-18.126-25.384-18.126h-74.158c-11.463 0-21.664 7.284-25.386 18.13l-6.399 18.689c-1.638 4.78-6.137 7.991-11.195 7.991h-80.04c-14.8 0-26.84 12.04-26.84 26.84v66.082c-15.69 4.512-27.206 18.985-27.206 36.106 0 20.717 16.854 37.572 37.572 37.572h356.027c20.718 0 37.572-16.855 37.572-37.572.001-18.153-12.942-33.34-30.085-36.82zm-240.091 59.393 29.226-45.144h80.05l-29.226 45.144zm-145.995-22.572c0-11.682 8.921-21.319 20.309-22.458.073-.006.147-.009.22-.017.674-.061 1.354-.097 2.044-.097h65.911l-29.226 45.144h-36.686c-12.446 0-22.572-10.126-22.572-22.572zm77.127 22.572 29.132-45h50.999l-29.132 45zm166.787 0 29.132-45h50.999l-29.132 45zm134.686 0h-65.817l29.226-45.144h36.496c.028 0 .054.004.082.004.02 0 .039-.003.059-.003 12.425.025 22.527 10.14 22.527 22.571-.001 12.446-10.127 22.572-22.573 22.572z"/><path d="m67.616 158.868v92.274c0 19.338 15.732 35.07 35.07 35.07h71.81c11.462 0 21.663-7.284 25.386-18.13l6.397-18.685c1.641-4.781 6.141-7.994 11.196-7.994h74.169c5.056 0 9.556 3.212 11.195 7.993l6.411 18.691c3.72 10.842 13.917 18.126 25.374 18.126h71.81c19.337 0 35.069-15.732 35.069-35.07v-91.561c17.14-3.482 30.08-18.666 30.08-36.818 0-10.032-3.909-19.466-11.007-26.563-7.098-7.098-16.531-11.007-26.563-11.007h-76.883v-26.874h11.319c16.073 0 29.149-13.081 29.149-29.16 0-7.794-3.031-15.118-8.536-20.623-5.503-5.505-12.824-8.537-20.612-8.537h-180.84c-4.143 0-7.5 3.358-7.5 7.5s3.357 7.5 7.5 7.5h180.84c3.781 0 7.335 1.471 10.006 4.143 2.672 2.672 4.144 6.229 4.144 10.017 0 7.808-6.348 14.16-14.149 14.16h-224.9c-3.78 0-7.334-1.471-10.006-4.143s-4.145-6.229-4.145-10.017c0-7.808 6.348-14.16 14.149-14.16h14.061c4.143 0 7.5-3.358 7.5-7.5s-3.357-7.5-7.5-7.5h-14.06c-16.073 0-29.15 13.081-29.15 29.16 0 7.794 3.031 15.118 8.536 20.623 5.506 5.505 12.826 8.537 20.613 8.537h11.319v26.873h-76.882c-20.716 0-37.569 16.854-37.569 37.57 0 10.045 3.91 19.481 11.007 26.563 4.527 4.527 10.124 7.796 16.192 9.542zm338.819 112.344h-71.81c-5.05 0-9.546-3.212-11.186-7.993l-6.411-18.691c-3.72-10.842-13.921-18.126-25.384-18.126h-74.169c-11.463 0-21.664 7.284-25.386 18.13l-6.397 18.685c-1.642 4.782-6.141 7.995-11.196 7.995h-71.81c-11.066 0-20.07-9.003-20.07-20.07v-90.809h114.086v20.944c0 20.336 16.544 36.88 36.88 36.88h44.836c20.336 0 36.88-16.544 36.88-36.88v-20.944h111.206v90.809c0 11.066-9.003 20.07-20.069 20.07zm-106.137-118.437c0 .02-.003.038-.003.058s.003.038.003.058v28.386c0 12.065-9.815 21.88-21.88 21.88h-44.836c-12.064 0-21.88-9.815-21.88-21.88v-28.367c0-.026.004-.051.004-.077s-.004-.051-.004-.077v-7.854c0-12.065 9.815-21.88 21.88-21.88h44.836c12.064 0 21.88 9.815 21.88 21.88zm-130.429-94.455h172.262v26.873h-172.262zm-91.883 41.873h356.027c6.025 0 11.692 2.348 15.957 6.613s6.613 9.932 6.613 15.957c0 12.445-10.125 22.57-22.58 22.57h-118.705v-.432c0-20.336-16.544-36.88-36.88-36.88h-44.836c-20.336 0-36.88 16.544-36.88 36.88v.432h-118.716c-.698 0-1.405-.035-2.171-.107-5.179-.485-10.074-2.795-13.791-6.511-4.261-4.253-6.607-9.918-6.607-15.951 0-12.446 10.125-22.571 22.569-22.571z"/><path d="m389.857 215.14-5.733 5.734v-30.926c0-4.142-3.357-7.5-7.5-7.5s-7.5 3.358-7.5 7.5v30.926l-5.733-5.734c-2.93-2.929-7.678-2.929-10.607 0s-2.929 7.677 0 10.606l18.537 18.537c1.465 1.465 3.385 2.197 5.304 2.197s3.839-.732 5.304-2.197l18.537-18.537c2.929-2.929 2.929-7.677 0-10.606-2.931-2.929-7.679-2.929-10.609 0z"/><path d="m145.732 215.14-5.733 5.734v-30.926c0-4.142-3.357-7.5-7.5-7.5s-7.5 3.358-7.5 7.5v30.926l-5.733-5.734c-2.93-2.929-7.678-2.929-10.607 0s-2.929 7.677 0 10.606l18.537 18.537c1.465 1.465 3.385 2.197 5.304 2.197s3.839-.732 5.304-2.197l18.537-18.537c2.929-2.929 2.929-7.677 0-10.606-2.931-2.929-7.679-2.929-10.609 0z"/><path d="m256 133.668c-15.345 0-27.829 12.484-27.829 27.829s12.484 27.829 27.829 27.829 27.829-12.484 27.829-27.829-12.484-27.829-27.829-27.829zm0 40.659c-7.074 0-12.829-5.755-12.829-12.829s5.755-12.829 12.829-12.829 12.829 5.755 12.829 12.829-5.755 12.829-12.829 12.829z"/></g></svg>