<svg id="Capa_1" enable-background="new 0 0 512 512" height="512" viewBox="0 0 512 512" width="512" xmlns="http://www.w3.org/2000/svg"><g><path d="m472.213 362.489h-54.013c55.336-25.733 93.8-81.849 93.8-146.789 0-43.217-16.829-83.846-47.386-114.402-2.706-2.707-5.572-5.376-8.52-7.933-3.128-2.714-7.864-2.379-10.58.75-2.715 3.128-2.379 7.865.75 10.58 2.68 2.325 5.284 4.75 7.741 7.208 27.726 27.724 42.995 64.587 42.995 103.797 0 80.915-65.808 146.747-146.713 146.789h-188.577c-39.18-.021-76.011-15.287-103.716-42.993-27.725-27.724-42.994-64.586-42.994-103.796 0-80.94 65.85-146.79 146.79-146.79h188.42c25.631 0 50.845 6.696 72.917 19.365 3.592 2.062 8.176.822 10.238-2.771 2.062-3.592.821-8.176-2.771-10.238-20.996-12.051-44.564-19.187-68.773-20.925 2.961-4.738 4.678-10.329 4.678-16.316 0-17.03-13.855-30.886-30.886-30.886h-159.226c-17.03 0-30.886 13.855-30.886 30.886 0 5.983 1.716 11.571 4.673 16.307-83.81 5.974-150.174 76.063-150.174 161.368 0 43.217 16.829 83.846 47.387 114.403 13.615 13.615 29.233 24.496 46.184 32.386h-53.788c-21.935 0-39.78 17.845-39.78 39.78v29.88c0 18.216 12.509 34.008 29.764 38.496 8.192 20.048 27.895 34.217 50.855 34.217 20.204 0 37.882-10.974 47.42-27.266 9.538 16.292 27.216 27.266 47.42 27.266 22.467 0 41.815-13.567 50.312-32.933h60.453c8.497 19.366 27.845 32.933 50.312 32.933 20.204 0 37.882-10.974 47.42-27.266 9.538 16.292 27.216 27.266 47.42 27.266 22.961 0 42.665-14.169 50.856-34.218 17.251-4.495 29.759-20.288 29.759-38.494v-29.88c-.001-21.936-17.847-39.781-39.781-39.781zm-295.826-340.351h159.227c8.76 0 15.886 7.126 15.886 15.886s-7.126 15.886-15.886 15.886h-159.227c-8.76 0-15.886-7.126-15.886-15.886 0-8.759 7.126-15.886 15.886-15.886zm-95.765 467.724c-22.012 0-39.92-17.908-39.92-39.92s17.908-39.92 39.92-39.92 39.92 17.908 39.92 39.92-17.908 39.92-39.92 39.92zm94.84 0c-22.012 0-39.92-17.908-39.92-39.92s17.908-39.92 39.92-39.92 39.92 17.908 39.92 39.92-17.908 39.92-39.92 39.92zm161.076 0c-22.012 0-39.92-17.908-39.92-39.92s17.908-39.92 39.92-39.92 39.92 17.908 39.92 39.92-17.908 39.92-39.92 39.92zm94.84 0c-22.012 0-39.92-17.908-39.92-39.92s17.908-39.92 39.92-39.92 39.92 17.908 39.92 39.92-17.908 39.92-39.92 39.92zm65.615-57.713c0 8.361-4.237 15.898-10.762 20.409.041-.867.066-1.739.066-2.616 0-30.283-24.637-54.92-54.92-54.92-20.204 0-37.882 10.974-47.42 27.266-9.538-16.292-27.216-27.266-47.42-27.266-30.283 0-54.92 24.637-54.92 54.92 0 2.368.168 4.697.46 6.987h-52.156c.292-2.29.46-4.619.46-6.987 0-30.283-24.637-54.92-54.92-54.92-20.204 0-37.882 10.974-47.42 27.266-9.538-16.292-27.216-27.266-47.42-27.266-30.283 0-54.92 24.637-54.92 54.92 0 .88.025 1.753.066 2.623-6.527-4.509-10.766-12.048-10.766-20.415v-29.88c0-13.664 11.116-24.78 24.78-24.78h432.43c13.664 0 24.78 11.116 24.78 24.78v29.879z"/><path d="m80.622 421.606c-15.624 0-28.336 12.711-28.336 28.335s12.712 28.335 28.336 28.335 28.335-12.711 28.335-28.335-12.711-28.335-28.335-28.335zm0 41.671c-7.354 0-13.336-5.982-13.336-13.335s5.982-13.335 13.336-13.335c7.353 0 13.335 5.982 13.335 13.335s-5.982 13.335-13.335 13.335z"/><path d="m175.462 421.606c-15.624 0-28.335 12.711-28.335 28.335s12.711 28.335 28.335 28.335 28.336-12.711 28.336-28.335-12.712-28.335-28.336-28.335zm0 41.671c-7.353 0-13.335-5.982-13.335-13.335s5.982-13.335 13.335-13.335c7.354 0 13.336 5.982 13.336 13.335s-5.983 13.335-13.336 13.335z"/><path d="m336.538 421.606c-15.624 0-28.336 12.711-28.336 28.335s12.712 28.335 28.336 28.335 28.335-12.711 28.335-28.335-12.711-28.335-28.335-28.335zm0 41.671c-7.354 0-13.336-5.982-13.336-13.335s5.982-13.335 13.336-13.335c7.353 0 13.335 5.982 13.335 13.335s-5.982 13.335-13.335 13.335z"/><path d="m431.378 421.606c-15.624 0-28.335 12.711-28.335 28.335s12.711 28.335 28.335 28.335 28.336-12.711 28.336-28.335-12.712-28.335-28.336-28.335zm0 41.671c-7.353 0-13.335-5.982-13.335-13.335s5.982-13.335 13.335-13.335c7.354 0 13.336 5.982 13.336 13.335s-5.983 13.335-13.336 13.335z"/><path d="m369.863 135.35c-13.637-13.635-35.822-13.635-49.459 0l-48.975 48.975c-13.635 13.636-13.635 35.823 0 49.459l48.975 48.974c6.605 6.605 15.388 10.244 24.729 10.244s18.124-3.638 24.73-10.244l48.975-48.974c13.635-13.636 13.635-35.823 0-49.459zm38.368 87.827-48.974 48.974c-3.773 3.772-8.789 5.85-14.124 5.85s-10.351-2.078-14.122-5.85l-48.975-48.974c-7.787-7.788-7.787-20.458 0-28.246l48.975-48.975c3.894-3.894 9.008-5.84 14.122-5.84 5.115 0 10.229 1.947 14.123 5.84l48.975 48.975c7.788 7.788 7.788 20.459 0 28.246z"/><path d="m122.904 204.636h52.727c4.143 0 7.5-3.358 7.5-7.5v-30.53c0-4.142-3.357-7.5-7.5-7.5h-52.727c-4.143 0-7.5 3.358-7.5 7.5v30.53c0 4.142 3.358 7.5 7.5 7.5zm7.5-30.53h37.727v15.53h-37.727z"/><path d="m115.404 260.989c0 4.142 3.357 7.5 7.5 7.5h52.727c4.143 0 7.5-3.358 7.5-7.5v-33.853c0-4.142-3.357-7.5-7.5-7.5h-52.727c-4.143 0-7.5 3.358-7.5 7.5zm15-26.353h37.727v18.853h-37.727z"/><path d="m190.63 339.78c12.406 0 22.5-10.093 22.5-22.5v-206.96c0-12.407-10.094-22.5-22.5-22.5s-22.5 10.093-22.5 22.5v18.79h-37.73v-18.79c0-12.407-10.094-22.5-22.5-22.5s-22.5 10.093-22.5 22.5v140.02c0 4.142 3.357 7.5 7.5 7.5s7.5-3.358 7.5-7.5v-140.02c0-4.136 3.364-7.5 7.5-7.5s7.5 3.364 7.5 7.5v26.29c0 4.142 3.357 7.5 7.5 7.5h52.729c4.143 0 7.5-3.358 7.5-7.5v-26.29c0-4.136 3.364-7.5 7.5-7.5s7.5 3.364 7.5 7.5v206.96c0 4.136-3.364 7.5-7.5 7.5s-7.5-3.364-7.5-7.5v-26.29c0-4.142-3.357-7.5-7.5-7.5h-52.729c-4.143 0-7.5 3.358-7.5 7.5v26.29c0 4.136-3.364 7.5-7.5 7.5s-7.5-3.364-7.5-7.5v-36.94c0-4.142-3.357-7.5-7.5-7.5s-7.5 3.358-7.5 7.5v36.94c0 12.407 10.094 22.5 22.5 22.5s22.5-10.093 22.5-22.5v-18.79h37.729v18.79c.001 12.407 10.095 22.5 22.501 22.5z"/><path d="m377.8 181.686c-2.813-1.157-6.046-.498-8.184 1.665l-7.155 7.238-10.463-23.76c-1.198-2.721-3.891-4.477-6.864-4.477s-5.666 1.756-6.864 4.477l-10.463 23.76-7.155-7.238c-2.138-2.163-5.371-2.821-8.184-1.665s-4.65 3.896-4.65 6.938v29.816c0 20.576 16.74 37.316 37.316 37.316s37.316-16.74 37.316-37.316v-29.816c0-3.042-1.837-5.782-4.65-6.938zm-10.35 36.754c0 12.305-10.011 22.316-22.316 22.316s-22.316-10.011-22.316-22.316v-11.561l2.074 2.098c1.746 1.766 4.253 2.553 6.694 2.103 2.442-.45 4.503-2.08 5.504-4.353l8.044-18.267 8.044 18.267c1.001 2.272 3.062 3.902 5.504 4.353 2.443.451 4.949-.337 6.694-2.103l2.074-2.098z"/></g></svg>