<svg id="Capa_1" enable-background="new 0 0 512 512" height="512" viewBox="0 0 512 512" width="512" xmlns="http://www.w3.org/2000/svg"><g><path d="m512 71.22v-42.62c0-4.142-3.357-7.5-7.5-7.5h-83.1c-4.143 0-7.5 3.358-7.5 7.5s3.357 7.5 7.5 7.5h75.6v27.62h-234.202c-4.418-10.296-10.648-19.638-18.288-27.62h146.89c4.143 0 7.5-3.358 7.5-7.5s-3.357-7.5-7.5-7.5h-165.478c-14.086-8.647-30.646-13.64-48.352-13.64-17.705 0-34.265 4.993-48.351 13.64h-121.719c-4.142 0-7.5 3.358-7.5 7.5v42.62c0 4.142 3.358 7.5 7.5 7.5h28.188l-28.778 42.9c-3.866.301-6.91 3.527-6.91 7.47v42.61c0 4.142 3.358 7.5 7.5 7.5h121.712c4.847 2.976 9.988 5.516 15.368 7.572v20.118h-14.129c-30.402 0-55.136 24.734-55.136 55.136s24.734 55.136 55.136 55.136h12.709v18.502c-33.151 13.251-55.06 45.269-55.06 81.316 0 7.78 1.027 15.496 3.054 22.932.909 3.336 3.933 5.53 7.232 5.53.653 0 1.316-.086 1.976-.266 3.997-1.089 6.354-5.211 5.265-9.208-1.676-6.151-2.526-12.54-2.526-18.988 0-31.395 20.057-59.103 49.909-68.948 3.074-1.014 5.151-3.885 5.151-7.123v-23.748h35v44.758c0 9.65-7.851 17.5-17.5 17.5-20.71 0-37.56 16.849-37.56 37.56s16.85 37.56 37.56 37.56c20.716 0 37.57-16.849 37.57-37.56 0-9.65 7.851-17.5 17.5-17.5s17.5 7.85 17.5 17.5c0 40.01-32.555 72.56-72.57 72.56-22.809 0-44.585-10.97-58.252-29.346-2.472-3.324-7.169-4.014-10.494-1.542-3.324 2.472-4.014 7.17-1.542 10.494 16.484 22.163 42.76 35.394 70.288 35.394 48.286 0 87.569-39.279 87.569-87.56 0-17.921-14.579-32.5-32.5-32.5s-32.5 14.579-32.5 32.5c0 12.44-10.125 22.56-22.57 22.56-12.439 0-22.56-10.12-22.56-22.56s10.121-22.56 22.56-22.56c17.92 0 32.5-14.579 32.5-32.5v-44.758h12.718c30.402 0 55.136-24.734 55.136-55.136s-24.734-55.136-55.136-55.136h-14.128v-18.756c6.771-2.251 13.198-5.263 19.178-8.935h278.572c4.143 0 7.5-3.358 7.5-7.5v-42.61c0-3.943-3.044-7.168-6.909-7.47l-28.778-42.898h28.187c4.143 0 7.5-3.358 7.5-7.5zm-361.301 230.942c-.013 0-.026-.002-.039-.002s-.026.002-.039.002h-.09l25.993-80.272h24.272l-26.002 80.272zm-60.385-40.136c0-18.628 12.757-34.33 29.993-38.835l-20.828 64.335c-5.723-6.938-9.165-15.824-9.165-25.5zm21.658 35.611 24.523-75.747h24.263l-25.993 80.272h-4.314c-6.662 0-12.944-1.641-18.479-4.525zm149.043-35.611c0 18.628-12.757 34.329-29.992 38.835l20.83-64.333c5.721 6.938 9.162 15.824 9.162 25.498zm-21.656-35.61-24.525 75.746h-24.272l26.002-80.272h4.314c6.663 0 12.946 1.641 18.481 4.526zm152.868-104.826h-17.959l28.214-42.869h17.963zm38.112-30.619 20.539 30.619h-40.693zm-93.858 30.619-28.757-42.87h18.067l28.754 42.869h-18.064zm-18.063 0h-40.693l20.154-30.619zm25.434-42.87h40.674l-20.145 30.607zm-55.867 0-17.908 27.206c.118-1.911.185-3.835.185-5.775 0-7.375-.871-14.55-2.506-21.431zm-32.722 21.432c0 42.84-34.853 77.692-77.693 77.692-42.839 0-77.692-34.853-77.692-77.692s34.852-77.692 77.692-77.692 77.693 34.852 77.693 77.692zm-167.878 21.438h-26.263l25.151-37.495c-.915 5.217-1.396 10.581-1.396 16.057.001 7.377.872 14.554 2.508 21.438zm-72.385-85.49h95.631c-7.641 7.982-13.87 17.323-18.288 27.62h-77.343zm56.817 42.62-28.757 42.87h-18.068l28.758-42.87zm-56.817 57.87h77.346c4.417 10.292 10.644 19.631 18.281 27.61h-95.627zm176.75 70.3h-32.17v-15.804c5.822 1.15 11.836 1.758 17.99 1.758 4.821 0 9.556-.371 14.18-1.084zm305.25-42.69h-252.487c7.637-7.979 13.864-17.318 18.282-27.61h234.205zm-9.992-42.61h-18.067l-28.757-42.87h18.066z"/><path d="m177.57 157.894c31.839 0 57.742-25.903 57.742-57.742s-25.903-57.742-57.742-57.742-57.742 25.903-57.742 57.742 25.903 57.742 57.742 57.742zm0-100.484c23.568 0 42.742 19.174 42.742 42.742s-19.174 42.742-42.742 42.742-42.742-19.174-42.742-42.742 19.174-42.742 42.742-42.742z"/></g></svg>