<svg id="Capa_1" enable-background="new 0 0 512 512" height="512" viewBox="0 0 512 512" width="512" xmlns="http://www.w3.org/2000/svg"><g><path d="m349.921 289.092h59.657c8.716 0 16.729-3.987 21.985-10.938s6.909-15.748 4.534-24.133l-18.045-63.728c-3.344-11.809-14.247-20.053-26.521-20.053-.005 0-.011 0-.015 0l-41.611.034c-15.189.009-27.546 12.373-27.546 27.562v63.694c0 15.198 12.365 27.562 27.562 27.562zm-12.562-91.256c0-6.923 5.632-12.558 12.556-12.562l41.611-.034h.007c5.594 0 10.563 3.758 12.088 9.14l18.045 63.728c1.082 3.822.328 7.831-2.067 10.999-2.396 3.168-6.048 4.985-10.021 4.985h-59.657c-6.927 0-12.562-5.635-12.562-12.562z"/><path d="m123.148 371.417c-24.076 0-43.664 19.587-43.664 43.664s19.588 43.664 43.664 43.664 43.664-19.587 43.664-43.664-19.587-43.664-43.664-43.664zm0 72.328c-15.806 0-28.664-12.859-28.664-28.664s12.858-28.664 28.664-28.664 28.664 12.859 28.664 28.664-12.858 28.664-28.664 28.664z"/><path d="m365.046 371.417c-24.076 0-43.664 19.587-43.664 43.664s19.588 43.664 43.664 43.664 43.664-19.587 43.664-43.664-19.588-43.664-43.664-43.664zm0 72.328c-15.806 0-28.664-12.859-28.664-28.664s12.858-28.664 28.664-28.664 28.664 12.859 28.664 28.664-12.858 28.664-28.664 28.664z"/><path d="m421.41 321.586v13.575c0 10.559 8.59 19.149 19.148 19.149s19.149-8.59 19.149-19.149v-13.575c0-10.559-8.591-19.149-19.149-19.149s-19.148 8.59-19.148 19.149zm15 0c0-2.288 1.861-4.149 4.148-4.149 2.288 0 4.149 1.861 4.149 4.149v13.575c0 2.288-1.861 4.149-4.149 4.149-2.287 0-4.148-1.861-4.148-4.149z"/><path d="m124.78 84.291v92.136c0 4.142 3.357 7.5 7.5 7.5h2.787c13.489 0 24.463 10.974 24.463 24.462v4.962c0 20.394 16.591 36.985 36.984 36.985s36.985-16.592 36.985-36.985v-95.555c0-35.063-28.526-63.59-63.59-63.59h-15.046c-16.588.001-30.083 13.497-30.083 30.085zm93.72 33.506v95.555c0 12.123-9.862 21.985-21.985 21.985-12.122 0-21.984-9.863-21.984-21.985v-4.962c0-20.165-15.204-36.845-34.75-39.183v-84.916c0-8.317 6.767-15.084 15.084-15.084h15.046c26.792 0 48.589 21.798 48.589 48.59z"/><path d="m483.477 201.788c-5.419 0-9.828-4.409-9.828-9.828 0-4.142-3.357-7.5-7.5-7.5s-7.5 3.358-7.5 7.5c0 13.69 11.138 24.828 24.828 24.828s24.828-11.138 24.828-24.828c0-11.078-7.292-20.484-17.328-23.671v-4.732c12.1-3.302 21.023-14.383 21.023-27.516 0-13.131-8.922-24.211-21.02-27.515v-15.125c3.72-1.763 7.146-4.173 10.138-7.17 6.869-6.855 10.651-15.978 10.651-25.688 0-20.038-16.297-36.34-36.329-36.34h-388.67c-9.703 0-18.827 3.781-25.688 10.642-6.869 6.855-10.652 15.982-10.652 25.698 0 20.033 16.302 36.33 36.34 36.33h8.011v39.965h-23.029c-39.564 0-71.752 32.188-71.752 71.752 0 33.972 23.739 62.484 55.495 69.871v25.402h-29.765c-14.183 0-25.721 11.542-25.721 25.73v38.04c0 7.689 3.394 14.597 8.756 19.316-.029.029-.06.056-.089.085-5.589 5.589-8.667 13.023-8.667 20.934 0 16.327 13.283 29.61 29.61 29.61h24.391c9.498 29.116 36.892 50.22 69.137 50.22 32.247 0 59.643-21.106 69.139-50.225h103.62c9.496 29.118 36.892 50.225 69.139 50.225 32.244 0 59.638-21.103 69.136-50.218h38.208c7.917 0 15.354-3.083 20.934-8.677 5.595-5.595 8.676-13.029 8.676-20.933 0-13.736-9.402-25.314-22.107-28.645v-86.952c0-2.566-.357-5.123-1.059-7.586l-34.133-120.558c-4.46-15.74-19-26.734-35.357-26.734h-95.797c-22.217 0-40.291 18.075-40.291 40.291v126.077h-65.25v-23.521h15.302c22.163 0 40.193-18.031 40.193-40.193v-122.349c0-7.192-.817-14.196-2.361-20.927h125.17c4.143 0 7.5-3.358 7.5-7.5s-3.357-7.5-7.5-7.5h-129.984c-7.329-17.562-19.859-32.431-35.659-42.67h254.774c11.761 0 21.329 9.573 21.329 21.34 0 5.698-2.219 11.05-6.258 15.082-4.021 4.029-9.374 6.248-15.071 6.248h-59.33c-4.143 0-7.5 3.358-7.5 7.5s3.357 7.5 7.5 7.5h59.33c.181 0 .36-.011.54-.013v11.665c-12.102 3.301-21.027 14.383-21.027 27.517 0 13.132 8.924 24.214 21.023 27.516v11.075c0 4.142 3.357 7.5 7.5 7.5 5.419 0 9.828 4.409 9.828 9.828s-4.408 9.827-9.827 9.827zm-453.857 220.789c-8.057 0-14.61-6.554-14.61-14.61 0-3.903 1.518-7.571 4.274-10.327 2.762-2.762 6.433-4.283 10.336-4.283h24.13c-2.153 6.863-3.317 14.16-3.317 21.724 0 2.531.132 5.031.385 7.496zm93.528 50.22c-31.824 0-57.716-25.892-57.716-57.716s25.892-57.716 57.716-57.716 57.716 25.891 57.716 57.716-25.891 57.716-57.716 57.716zm72.331-50.224c.253-2.463.385-4.962.385-7.492 0-7.565-1.164-14.864-3.318-21.728h103.102c-2.154 6.864-3.318 14.163-3.318 21.728 0 2.529.131 5.028.385 7.492zm169.567 50.224c-31.824 0-57.716-25.892-57.716-57.716s25.892-57.716 57.716-57.716 57.716 25.891 57.716 57.716-25.892 57.716-57.716 57.716zm121.954-64.828c0 3.897-1.521 7.565-4.289 10.333-2.751 2.758-6.416 4.277-10.32 4.277h-35.014c.254-2.466.385-4.967.385-7.499 0-7.563-1.163-14.859-3.316-21.721h37.945c8.055.001 14.609 6.554 14.609 14.61zm-173.454-255.474h95.797c9.681 0 18.286 6.507 20.925 15.822l34.137 120.567c.324 1.138.488 2.312.488 3.489v85.986h-37.123c-12.643-21.513-36.018-35.995-62.724-35.995-26.703 0-50.076 14.479-62.72 35.988h-14.071v-200.566c0-13.945 11.346-25.291 25.291-25.291zm-120.541 151.368h-68.155c-4.143 0-7.5 3.358-7.5 7.5s3.357 7.5 7.5 7.5h148.405v59.49h-87.386c-12.644-21.509-36.017-35.988-62.72-35.988-26.705 0-50.079 14.48-62.722 35.992 0 0-34.264.006-34.696.006-5.911 0-10.721-4.813-10.721-10.73v-38.04c0-5.917 4.81-10.73 10.721-10.73h69.119c4.143 0 7.5-3.358 7.5-7.5s-3.357-7.5-7.5-7.5h-24.355v-23.521h1.257 121.253zm55.495-186.063v122.348c0 13.892-11.302 25.193-25.193 25.193h-22.802-128.753c-31.293 0-56.752-25.459-56.752-56.752s25.459-56.751 56.752-56.751h30.528c4.143 0 7.5-3.358 7.5-7.5v-86.04c0-10.527 8.564-19.092 19.092-19.092h41.034c43.337 0 78.594 35.257 78.594 78.594zm-153.72-59.502v23.575h-8.01c-11.767 0-21.34-9.569-21.34-21.33 0-5.704 2.219-11.06 6.254-15.087 4.032-4.032 9.39-6.253 15.086-6.253h13.875c-3.7 5.451-5.865 12.025-5.865 19.095zm375.173 77.743c0-7.457 6.066-13.524 13.523-13.524s13.524 6.067 13.524 13.524-6.066 13.523-13.523 13.523-13.524-6.066-13.524-13.523z"/></g></svg>