<svg id="Capa_1" enable-background="new 0 0 512 512" height="512" viewBox="0 0 512 512" width="512" xmlns="http://www.w3.org/2000/svg"><g><path d="m414.23 0c-53.916 0-97.78 43.859-97.78 97.77 0 1.443.038 2.877.1 4.305l-32.21 19.312v-27.277c0-51.893-42.217-94.11-94.11-94.11h-96.12c-51.892 0-94.11 42.217-94.11 94.11v323.78c0 51.893 42.218 94.11 94.11 94.11h96.12c51.893 0 94.109-42.217 94.109-94.11v-186.207l81.594-48.918c14.256 8.132 30.742 12.785 48.296 12.785 29.254 0 56.732-12.943 75.39-35.511 2.64-3.192 2.191-7.92-1.002-10.559-3.191-2.639-7.92-2.192-10.559 1.001-15.798 19.109-39.062 30.069-63.829 30.069-45.646 0-82.78-37.135-82.78-82.78 0-45.64 37.135-82.77 82.78-82.77 45.641 0 82.771 37.13 82.771 82.77 0 9.961-1.752 19.704-5.206 28.957-1.448 3.88.522 8.201 4.403 9.649 3.876 1.447 8.2-.522 9.649-4.403 4.084-10.936 6.154-22.444 6.154-34.203 0-53.911-43.859-97.77-97.77-97.77zm-144.89 417.89c0 43.622-35.488 79.11-79.109 79.11h-96.121c-43.622 0-79.11-35.488-79.11-79.11v-323.78c0-43.622 35.488-79.11 79.11-79.11h96.12c43.621 0 79.109 35.488 79.109 79.11v36.271l-39.84 23.887v-31.768c0-14.023-5.461-27.208-15.377-37.123-9.915-9.916-23.099-15.377-37.122-15.377-28.948 0-52.5 23.551-52.5 52.5v217.96c0 4.142 3.357 7.5 7.5 7.5s7.5-3.358 7.5-7.5v-21.942l75-44.965v115.947c0 20.678-16.822 37.5-37.5 37.5-10.017 0-19.434-3.901-26.517-10.983s-10.983-16.5-10.983-26.517v-19.04c0-4.142-3.357-7.5-7.5-7.5s-7.5 3.358-7.5 7.5v19.04c0 14.023 5.461 27.208 15.377 37.123 9.916 9.916 23.1 15.377 37.123 15.377 28.948 0 52.5-23.551 52.5-52.5v-124.939l39.84-23.885zm-54.84-254.629-75 44.958v-85.719c0-20.678 16.822-37.5 37.5-37.5 10.017 0 19.434 3.901 26.517 10.983s10.983 16.5 10.983 26.517zm137.849 10.159-212.849 127.609v-75.32l179.13-107.39c4.727 22.017 16.887 41.307 33.719 55.101z"/></g></svg>