<svg id="Capa_1" enable-background="new 0 0 512 512" height="512" viewBox="0 0 512 512" width="512" xmlns="http://www.w3.org/2000/svg"><g><path d="m89.311 348.722c-21.479 0-38.954 17.475-38.954 38.954s17.475 38.954 38.954 38.954 38.954-17.475 38.954-38.954-17.475-38.954-38.954-38.954zm0 62.907c-13.208 0-23.954-10.746-23.954-23.954s10.746-23.954 23.954-23.954 23.954 10.746 23.954 23.954-10.746 23.954-23.954 23.954z"/><path d="m284.075 323.452c-26.449 0-47.967 21.518-47.967 47.968 0 26.449 21.518 47.967 47.967 47.967s47.968-21.518 47.968-47.967c0-26.45-21.519-47.968-47.968-47.968zm0 80.935c-18.179 0-32.967-14.789-32.967-32.967 0-18.179 14.789-32.968 32.967-32.968s32.968 14.789 32.968 32.968c0 18.178-14.789 32.967-32.968 32.967z"/><path d="m495.341 371.904-71.987-25.958v-257.974c0-14.568-11.852-26.42-26.42-26.42s-26.421 11.852-26.421 26.42v204.291c-12.214-18.769-31.011-32.875-53.093-39.018l-28.845-135.018c-3.502-16.391-12.607-31.226-25.64-41.77-13.035-10.545-29.444-16.353-46.206-16.353h-171.349c-14.083 0-25.54 11.457-25.54 25.54 0 6.827 2.655 13.242 7.477 18.063 4.821 4.822 11.236 7.477 18.063 7.477h12.08v138.976c-32.2 3.114-57.46 30.322-57.46 63.326v65.74c0 16.823 13.045 30.648 29.549 31.915 9.393 23.835 32.631 40.756 59.762 40.756 27.092 0 50.302-16.871 59.721-40.651h65.158c13.878 24.255 39.997 40.647 69.89 40.647 7.247 0 14.438-.969 21.372-2.88 3.993-1.101 6.339-5.229 5.238-9.223-1.101-3.993-5.231-6.338-9.223-5.238-5.637 1.553-11.487 2.341-17.388 2.341-36.106 0-65.48-29.37-65.48-65.47 0-36.106 29.374-65.48 65.48-65.48 36.101 0 65.47 29.374 65.47 65.48 0 20.041-8.997 38.708-24.686 51.216-3.238 2.582-3.771 7.301-1.188 10.54 2.583 3.24 7.301 3.771 10.54 1.189 8.152-6.5 14.828-14.358 19.825-23.122h16.472v14.23c0 14.568 11.853 26.42 26.421 26.42s26.42-11.852 26.42-26.42v-4.644h63.435c13.902 0 25.212-11.31 25.212-25.212 0-10.592-6.694-20.123-16.659-23.716zm-449.961-275.721c-2.82 0-5.468-1.095-7.457-3.083-1.988-1.988-3.083-4.636-3.083-7.457 0-5.812 4.728-10.54 10.54-10.54h171.35c27.405 0 51.451 19.454 57.175 46.257l27.543 128.925c-2.936-.281-5.91-.43-8.918-.43h-8.78c-1.983 0-3.941.158-5.869.462l-26.427-123.733c-3.766-17.616-19.572-30.402-37.584-30.402h-56.67c-4.142 0-7.5 3.358-7.5 7.5s3.358 7.5 7.5 7.5h56.67c10.982 0 20.62 7.796 22.916 18.536l26.905 125.975c-3.194 2.024-6.054 4.505-8.521 7.433-2.912 3.45-6.227 6.44-9.892 8.959l-8.407-13.746c1.827-2.35 3.167-5.07 3.884-8.051 1.328-5.515.428-11.217-2.534-16.055-2.961-4.838-7.629-8.234-13.144-9.561-5.518-1.328-11.217-.427-16.055 2.534-9.987 6.112-13.14 19.211-7.027 29.199 4.001 6.536 10.994 10.145 18.148 10.145 1.312 0 2.63-.13 3.936-.377l7.642 12.494c-4.819 1.499-9.866 2.287-14.92 2.287h-43.045v-60.695c0-21.708-17.661-39.368-39.368-39.368-4.142 0-7.5 3.358-7.5 7.5v91.478c-6.979-2.025-12.932-6.798-16.376-13.297v-155.389h16.69c4.142 0 7.5-3.358 7.5-7.5s-3.358-7.5-7.5-7.5h-24.19c-4.142 0-7.5 3.358-7.5 7.5v146.173h-23.052v-146.173c0-4.142-3.358-7.5-7.5-7.5zm177.983 154.457c-2.933 1.795-6.779.869-8.575-2.063-1.795-2.933-.869-6.78 2.064-8.575 1.423-.873 3.109-1.133 4.714-.744 1.62.39 2.99 1.387 3.86 2.808 1.795 2.933.869 6.779-2.063 8.574zm-81.477 30.316v-83.882c9.779 3.17 16.868 12.366 16.868 23.187v60.695zm-52.575 155.941c-27.141 0-49.221-22.081-49.221-49.221 0-27.141 22.081-49.222 49.221-49.222 27.141 0 49.222 22.081 49.222 49.222 0 27.14-22.081 49.221-49.222 49.221zm0-113.443c-35.412 0-64.221 28.81-64.221 64.222 0 2.46.153 4.883.423 7.272-6.164-2.562-10.513-8.642-10.513-15.722v-59.17h117.444c25.211 0 45.721 20.51 45.721 45.721v30.469h-25.221c.376-2.806.589-5.663.589-8.57 0-35.413-28.81-64.222-64.222-64.222zm281.199 72.792h-9.851c2.552-7.906 3.891-16.262 3.891-24.823 0-44.377-36.099-80.48-80.47-80.48-44.377 0-80.48 36.103-80.48 80.48 0 8.661 1.392 16.999 3.936 24.823h-14.371v-30.469c0-33.482-27.239-60.721-60.721-60.721h-116.698c4.005-22.809 23.945-40.2 47.883-40.2h30.045l1.083 3.066c5.908 16.74 21.793 27.996 39.546 28.032.028 0 .054.004.082.004l82.414-.002c10.142 0 20.276-2.408 29.292-6.956 7.901-3.962 14.812-9.412 20.544-16.202 4.177-5.005 10.592-7.975 17.114-7.943h8.78c42.998 0 77.979 34.986 77.979 77.99v53.401zm37.844 29.23c0 6.297-5.123 11.42-11.42 11.42-6.298 0-11.421-5.123-11.421-11.42v-337.504c0-6.297 5.123-11.42 11.421-11.42 6.297 0 11.42 5.123 11.42 11.42zm78.434-19.644h-63.435v-43.94l66.899 24.123c4.035 1.456 6.747 5.316 6.747 9.606.001 5.63-4.58 10.211-10.211 10.211z"/></g></svg>