<svg id="Capa_1" enable-background="new 0 0 512 512" height="512" viewBox="0 0 512 512" width="512" xmlns="http://www.w3.org/2000/svg"><g><path d="m512 363.65c0-20.738-16.872-37.61-37.61-37.61h-59.56v-48.28c0-10.51-5.448-19.838-14.578-25.011l21.648-13.448c6.238-3.877 10.593-9.951 12.263-17.103 1.671-7.153.455-14.528-3.42-20.763-3.877-6.243-9.951-10.603-17.104-12.274-7.151-1.672-14.528-.457-20.767 3.42l-136.872 85.029-58.522-36.361c-3.518-2.186-8.143-1.105-10.329 2.413s-1.106 8.143 2.413 10.329l62.48 38.82c2.424 1.506 5.492 1.506 7.916 0l140.831-87.491c2.834-1.762 6.182-2.314 9.436-1.554 3.25.76 6.011 2.742 7.775 5.583 3.638 5.852 1.835 13.573-4.018 17.21l-151.396 94.053c-3.946 2.456-9.221 2.46-13.179-.003l-151.388-94.048c-5.854-3.639-7.657-11.359-4.018-17.214 1.763-2.839 4.523-4.821 7.774-5.581 3.249-.758 6.6-.208 9.436 1.555l52.9 32.87c3.52 2.187 8.142 1.105 10.329-2.412 2.186-3.519 1.106-8.143-2.412-10.329l-52.899-32.869c-6.239-3.878-13.616-5.092-20.768-3.421-7.153 1.672-13.227 6.031-17.101 12.271-8.003 12.876-4.038 29.864 8.842 37.87l21.646 13.448c-9.131 5.173-14.579 14.501-14.579 25.011v48.28h-59.559c-20.738 0-37.61 16.872-37.61 37.61l.001 104.991c0 23.908 19.451 43.358 43.358 43.358h75.303c17.664 0 33.41-10.56 40.114-26.901l6.866-16.736h180.714l6.866 16.736c6.704 16.342 22.449 26.901 40.113 26.901h75.304c23.908 0 43.358-19.451 43.358-43.358zm-229.716-37.61 96.525-59.97c4.301-2.674 9.516-2.8 13.944-.338 4.432 2.463 7.077 6.959 7.077 12.027v48.28h-117.546zm-170.114-48.28c0-5.068 2.646-9.564 7.077-12.027 4.428-2.462 9.642-2.335 13.945.338l96.524 59.969h-117.546zm356.471 219.239h-75.304c-11.553 0-21.852-6.906-26.236-17.595l-8.775-21.39c-1.154-2.815-3.896-4.653-6.938-4.653h-190.775c-3.042 0-5.784 1.838-6.939 4.653l-8.775 21.39c-4.385 10.688-14.683 17.595-26.236 17.595h-75.304c-15.637 0-28.358-12.722-28.358-28.358v-36.15h396.709c4.143 0 7.5-3.358 7.5-7.5s-3.357-7.5-7.5-7.5h-396.71v-53.84c0-12.467 10.143-22.61 22.61-22.61h436.78c12.468 0 22.61 10.143 22.61 22.61v53.84h-55.29c-4.143 0-7.5 3.358-7.5 7.5s3.357 7.5 7.5 7.5h55.289v36.15c0 15.636-12.722 28.358-28.358 28.358z"/><path d="m37.61 106.45h89.358v12.003c0 14.574 10.072 26.835 23.62 30.2v35.957c0 2.698 1.449 5.188 3.794 6.521l98.241 55.836c2.298 1.306 5.113 1.306 7.412 0l98.24-55.836c2.345-1.333 3.794-3.823 3.794-6.521v-36.13c13.214-3.594 22.962-15.691 22.962-30.027v-12.003h89.358c20.738 0 37.609-16.872 37.609-37.609v-31.231c0-20.738-16.871-37.609-37.609-37.609h-436.779c-20.738 0-37.609 16.872-37.609 37.609v31.23c0 20.739 16.872 37.61 37.609 37.61zm309.459 70.661h-181.481v-27.538h181.481zm-90.74 54.709-69.867-39.709h139.734zm113.702-113.366c0 8.888-7.231 16.12-16.119 16.12h-195.824c-8.888 0-16.12-7.231-16.12-16.12v-12.004h228.062v12.004zm-355.03-80.844c0-12.467 10.143-22.609 22.609-22.609h436.78c12.467 0 22.609 10.143 22.609 22.609v31.23c0 12.467-10.143 22.609-22.609 22.609h-436.78c-12.467 0-22.609-10.143-22.609-22.609z"/></g></svg>