<svg id="Capa_1" enable-background="new 0 0 512 512" height="512" viewBox="0 0 512 512" width="512" xmlns="http://www.w3.org/2000/svg"><g><path d="m180.78 95.521c-3.066-20.9-21.312-36.661-42.44-36.661h-49.98c-1.989 0-3.896.79-5.304 2.197-1.406 1.406-2.196 3.314-2.196 5.303l.001 83.7c0 4.142 3.358 7.5 7.5 7.5 17.87 0 32.409 14.539 32.409 32.41v34.68c0 4.142 3.357 7.5 7.5 7.5h63.891c2.18 0 4.251-.948 5.676-2.597s2.062-3.836 1.745-5.993zm-45.01 121.629v-27.18c0-23.591-17.319-43.212-39.91-46.818v-69.292h42.48c13.74 0 25.605 10.248 27.599 23.84l17.54 119.45z"/><path d="m99.523 347.339c-28.486 0-51.661 23.175-51.661 51.661s23.175 51.661 51.661 51.661c28.485 0 51.66-23.175 51.66-51.661s-23.174-51.661-51.66-51.661zm0 88.322c-20.215 0-36.661-16.446-36.661-36.661s16.446-36.661 36.661-36.661 36.66 16.446 36.66 36.661-16.445 36.661-36.66 36.661z"/><path d="m476.304 313.493c-18.956-47.841-65.573-79.703-117.323-79.703-14.23 0-27.917 2.371-40.688 6.734-12.107-14.733-30.203-23.373-49.483-23.373h-36.812l-18.568-126.431c-2.646-18.017-11.692-34.496-25.474-46.4-13.781-11.904-31.402-18.46-49.616-18.46h-99.07c-21.654 0-39.27 17.616-39.27 39.27 0 10.484 4.081 20.346 11.496 27.773 7.421 7.42 17.284 11.507 27.773 11.507h8.591v43.68c0 4.142 3.357 7.5 7.5 7.5s7.5-3.358 7.5-7.5v-51.18c0-4.142-3.357-7.5-7.5-7.5h-16.09c-6.483 0-12.579-2.526-17.162-7.109-4.584-4.591-7.108-10.689-7.108-17.171 0-13.382 10.888-24.27 24.27-24.27h99.07c14.615 0 28.754 5.26 39.812 14.812 11.057 9.551 18.315 22.772 20.438 37.228l19.51 132.84c.54 3.682 3.698 6.41 7.42 6.41h43.29c13.196 0 25.666 5.287 34.787 14.464-39.762 19.507-67.818 59.327-70.558 105.847h-13.813c-15.328 0-27.799 12.471-27.799 27.799 0 .945.048 1.878.141 2.799h-6.374c-7.511-40.461-43.067-71.196-85.67-71.196-36.014 0-66.994 21.961-80.254 53.194-2.766-5.046-4.27-10.752-4.27-16.637v-81.63c0-19.101 15.539-34.64 34.64-34.64h5.721c4.143 0 7.5-3.358 7.5-7.5v-46.56c0-4.142-3.357-7.5-7.5-7.5s-7.5 3.358-7.5 7.5v39.091c-26.552.939-47.861 22.832-47.861 49.609v81.63c0 12.902 5.022 25.207 13.894 34.423-.986 5.238-1.508 10.637-1.508 16.157 0 48.048 39.09 87.137 87.138 87.137 48.047 0 87.137-39.09 87.137-87.137 0-.315-.009-.627-.012-.941h11.244c5.104 6.107 12.771 10 21.334 10h23.089c19.358 46.915 65.579 78.08 116.666 78.08 22.8 0 45.133-6.146 64.587-17.772 3.556-2.125 4.715-6.73 2.59-10.285-2.124-3.556-6.731-4.714-10.285-2.59-17.128 10.237-36.801 15.648-56.892 15.648-42.903 0-81.898-24.952-100.231-63.08h22.283c16.63 26.938 46.087 43.5 77.948 43.5 31.859 0 61.317-16.561 77.947-43.5h22.294c-5.378 11.159-12.647 21.478-21.389 30.272-2.921 2.938-2.907 7.686.03 10.606 1.463 1.455 3.376 2.181 5.288 2.181 1.927 0 3.853-.738 5.318-2.212 12.009-12.078 21.571-26.696 27.837-42.478 20.526-5.484 35.693-24.235 35.693-46.467 0-22.234-15.167-40.985-35.696-46.469zm-376.781 157.644c-39.776 0-72.138-32.361-72.138-72.137s32.361-72.137 72.138-72.137 72.137 32.361 72.137 72.137c0 39.777-32.36 72.137-72.137 72.137zm259.457-222.347c42.968 0 81.911 24.931 100.24 63.074h-22.291c-16.634-26.94-46.092-43.504-77.948-43.504-33.907 0-64.599 18.39-80.636 48.132-7.504 4.983-12.464 13.507-12.464 23.171 0 7.057-5.741 12.799-12.799 12.799h-5.014c3.87-57.816 52.133-103.672 110.912-103.672zm59.614 63.073h-119.271c14.363-17.876 36.084-28.504 59.658-28.504 23.376.001 45.212 10.667 59.613 28.504zm-59.614 124.697c-23.38 0-45.216-10.665-59.613-28.5h119.225c-14.396 17.835-36.232 28.5-59.612 28.5zm104.921-43.5h-244.675c-7.058 0-12.799-5.742-12.799-12.799s5.741-12.799 12.799-12.799h33.856c15.328 0 27.799-12.471 27.799-27.799 0-7.057 5.742-12.799 12.8-12.799h170.221c18.251 0 33.099 14.848 33.099 33.098s-14.849 33.098-33.1 33.098z"/><path d="m358.981 333.497c-14.593 0-26.465 11.872-26.465 26.465s11.872 26.465 26.465 26.465 26.465-11.872 26.465-26.465-11.872-26.465-26.465-26.465zm0 37.93c-6.321 0-11.465-5.143-11.465-11.465s5.144-11.465 11.465-11.465 11.465 5.143 11.465 11.465-5.143 11.465-11.465 11.465z"/><path d="m179.16 251.174c-5.099 0-9.772 1.84-13.404 4.884-3.632-3.044-8.306-4.884-13.404-4.884-11.526 0-20.904 9.378-20.904 20.904v21.682c0 11.527 9.378 20.904 20.904 20.904 5.099 0 9.772-1.84 13.404-4.884 3.632 3.044 8.306 4.884 13.404 4.884s9.772-1.84 13.404-4.884c3.632 3.044 8.306 4.884 13.404 4.884 11.526 0 20.904-9.378 20.904-20.904v-21.682c0-11.527-9.378-20.904-20.904-20.904-5.099 0-9.772 1.84-13.404 4.884-3.632-3.044-8.305-4.884-13.404-4.884zm-20.904 42.587c0 3.256-2.648 5.904-5.904 5.904s-5.904-2.649-5.904-5.904v-21.682c0-3.256 2.648-5.904 5.904-5.904s5.904 2.649 5.904 5.904zm26.808 0c0 3.256-2.648 5.904-5.904 5.904s-5.904-2.649-5.904-5.904v-21.682c0-3.256 2.648-5.904 5.904-5.904s5.904 2.649 5.904 5.904zm15-21.683c0-3.256 2.648-5.904 5.904-5.904s5.904 2.649 5.904 5.904v21.682c0 3.256-2.648 5.904-5.904 5.904s-5.904-2.649-5.904-5.904z"/></g></svg>