<svg id="Capa_1" enable-background="new 0 0 512 512" height="512" viewBox="0 0 512 512" width="512" xmlns="http://www.w3.org/2000/svg"><g><path d="m395.57 0h-231.14c-4.142 0-7.5 3.358-7.5 7.5s3.358 7.5 7.5 7.5h231.14c32.169 0 58.34 26.171 58.34 58.34v201.71c0 11.897-4.633 23.088-13.043 31.507-6.616 6.616-14.951 10.895-24.002 12.418l-.005-170.105c0-21.929-17.841-39.77-39.77-39.77h-9.372c.457-3.012.696-6.094.696-9.231 0-33.814-27.51-61.324-61.324-61.324h-102.174c-33.814 0-61.324 27.51-61.324 61.324 0 3.137.239 6.22.696 9.231h-9.377c-21.929 0-39.77 17.841-39.77 39.77l-.005 170.098c-21.006-3.578-37.046-21.909-37.046-43.918v-201.71c0-32.169 26.171-58.34 58.34-58.34h18c4.142 0 7.5-3.358 7.5-7.5s-3.358-7.5-7.5-7.5h-18c-40.44 0-73.34 32.9-73.34 73.34v201.71c0 30.292 22.742 55.356 52.045 59.061v30.722c0 11.446 9.312 20.759 20.759 20.759s20.759-9.312 20.759-20.759v-14.098c5.148 3.349 11.283 5.303 17.869 5.303 8.292 0 15.87-3.093 21.659-8.177v16.629c-28.65 11.746-47.54 39.58-47.54 70.891 0 42.249 34.372 76.62 76.62 76.62s76.62-34.372 76.62-76.62c0-16.035-13.045-29.08-29.08-29.08-16.041 0-29.09 13.045-29.09 29.08 0 10.173-8.276 18.45-18.45 18.45s-18.45-8.277-18.45-18.45 8.277-18.45 18.45-18.45c16.035 0 29.08-13.05 29.08-29.09v-39.978c5.789 5.083 13.367 8.175 21.658 8.175 10.204 0 19.336-4.674 25.369-11.993 6.034 7.32 15.167 11.996 25.372 11.996 10.204 0 19.337-4.675 25.371-11.994 6.034 7.318 15.165 11.991 25.368 11.991 6.586 0 12.72-1.954 17.868-5.303v14.098c0 11.446 9.312 20.759 20.759 20.759s20.759-9.312 20.759-20.759v-30.715c13.067-1.632 25.153-7.499 34.611-16.957 11.243-11.254 17.434-26.209 17.434-42.11v-201.711c0-40.44-32.9-73.34-73.34-73.34zm-42.156 99.869c0 22.109-15.573 40.638-36.322 45.225l24.601-75.978c7.283 8.186 11.721 18.958 11.721 30.753zm-24.26-40.724-28.185 87.048h-29.474l30.011-92.648h5.583c7.984 0 15.501 2.03 22.065 5.6zm-118.118-5.6h29.462l-30.001 92.648h-5.582c-7.982 0-15.498-2.029-22.061-5.599zm45.23 0h29.473l-30.011 92.648h-29.463zm-61.352 1.1-24.599 75.98c-7.285-8.187-11.724-18.961-11.724-30.756.001-22.109 15.574-40.639 36.323-45.224zm-60.004 69.455h13.682c9.413 21.796 31.112 37.093 56.323 37.093h102.175c25.211 0 46.91-15.296 56.323-37.093h13.677c13.658 0 24.77 11.112 24.77 24.77v7.21c-1.83-.529-3.756-.829-5.754-.829-11.446 0-20.759 9.312-20.759 20.759v14.098c-5.148-3.349-11.283-5.303-17.868-5.303-10.198 0-19.325 4.668-25.359 11.979-.671-.811-1.382-1.595-2.137-2.348-6.208-6.208-14.462-9.627-23.243-9.627-10.204 0-19.337 4.673-25.37 11.99-6.033-7.32-15.166-11.995-25.371-11.995-10.204 0-19.336 4.674-25.369 11.993-6.034-7.319-15.166-11.993-25.369-11.993-10.204 0-19.336 4.674-25.37 11.993-6.034-7.319-15.166-11.993-25.369-11.993-6.586 0-12.721 1.955-17.869 5.303v-14.097c0-11.446-9.312-20.759-20.759-20.759-1.998 0-3.924.299-5.754.829v-7.21c0-13.658 11.112-24.77 24.77-24.77zm52.481 199.068v-105.494c0-9.853 8.016-17.869 17.87-17.869 9.853 0 17.869 8.016 17.869 17.869v105.494c0 9.853-8.016 17.869-17.869 17.869-9.854 0-17.87-8.016-17.87-17.869zm-65.738 41.664c0 3.175-2.583 5.759-5.759 5.759s-5.759-2.583-5.759-5.759l.005-188.918c.052-3.131 2.611-5.663 5.754-5.663 3.175 0 5.759 2.583 5.759 5.759zm32.869-23.795c-9.853 0-17.869-8.016-17.869-17.869v-105.494c0-9.853 8.016-17.869 17.869-17.869s17.869 8.016 17.869 17.869v105.494c0 9.853-8.016 17.869-17.869 17.869zm50.739 60.893c-18.444 0-33.45 15.005-33.45 33.45s15.006 33.45 33.45 33.45 33.45-15.006 33.45-33.45c0-7.764 6.321-14.08 14.09-14.08 7.764 0 14.08 6.316 14.08 14.08 0 33.978-27.643 61.62-61.62 61.62s-61.62-27.643-61.62-61.62c0-26.663 17.034-50.191 42.388-58.547 3.075-1.013 5.152-3.885 5.152-7.123v-16.848c4.27 2.033 9.044 3.175 14.08 3.175s9.81-1.142 14.081-3.175v34.978c-.001 7.769-6.317 14.09-14.081 14.09zm68.607-78.762c0 9.853-8.016 17.869-17.869 17.869s-17.869-8.016-17.869-17.869v-105.494c0-9.853 8.016-17.869 17.869-17.869s17.869 8.016 17.869 17.869zm83.611 17.869c-9.853 0-17.869-8.016-17.869-17.869v-48.798c0-4.142-3.358-7.5-7.5-7.5s-7.5 3.358-7.5 7.5v48.8c0 9.854-8.016 17.87-17.87 17.87s-17.87-8.017-17.87-17.87v-105.5c0-9.848 8.017-17.86 17.87-17.86 4.774 0 9.262 1.858 12.643 5.239 3.371 3.363 5.227 7.845 5.227 12.621v26.7c0 4.142 3.358 7.5 7.5 7.5s7.5-3.358 7.5-7.5v-26.696c0-9.853 8.016-17.869 17.869-17.869 9.846 0 17.858 8.006 17.868 17.85v105.532c-.01 9.844-8.021 17.85-17.868 17.85zm38.627 29.554c-3.175 0-5.759-2.583-5.759-5.759v-188.822c0-3.175 2.583-5.759 5.759-5.759 3.143 0 5.702 2.532 5.754 5.663l.005 188.918c0 3.175-2.584 5.759-5.759 5.759z"/></g></svg>