<svg id="Capa_1" enable-background="new 0 0 512 512" height="512" viewBox="0 0 512 512" width="512" xmlns="http://www.w3.org/2000/svg"><g><path d="m512 337.62c0-17.336-6.751-33.629-19.004-45.872-12.248-12.258-28.543-19.008-45.886-19.008h-183.61v-229.88c0-23.633-19.228-42.86-42.86-42.86h-177.78c-23.632 0-42.86 19.227-42.86 42.86v461.64c0 4.142 3.357 7.5 7.5 7.5h248.5c4.143 0 7.5-3.358 7.5-7.5v-101.99h72.4c4.143 0 7.5-3.358 7.5-7.5s-3.357-7.5-7.5-7.5h-72.4v-18h183.456c.052 0 .102.004.154.004v-.004c17.584 0 31.89-14.306 31.89-31.89 0-17.579-14.306-31.88-31.89-31.88v-.004c-.058 0-.115.004-.173.004h-183.437v-18h183.61c13.333 0 25.86 5.189 35.279 14.615 9.422 9.414 14.61 21.937 14.61 35.265 0 27.509-22.381 49.89-49.89 49.89h-81.209c-4.143 0-7.5 3.358-7.5 7.5s3.357 7.5 7.5 7.5h24.852v101.99c0 4.142 3.357 7.5 7.5 7.5h48.859c4.143 0 7.5-3.358 7.5-7.5v-102.438c32.258-3.731 57.389-31.2 57.389-64.442zm-248.5 15.11v-30.213c5.555 2.767 9.39 8.489 9.39 15.102 0 6.618-3.835 12.343-9.39 15.111zm19.534-31.99h137.043c-3.072 4.9-4.855 10.687-4.855 16.885s1.784 11.985 4.855 16.885h-137.046c3.074-4.901 4.858-10.69 4.858-16.89.001-6.196-1.783-11.981-4.855-16.88zm-34.534 176.26h-233.5v-454.14c0-15.362 12.498-27.86 27.86-27.86h177.78c15.362 0 27.86 12.498 27.86 27.86zm215.5-159.38c0 9.313-7.577 16.89-16.89 16.89h-.077c-9.277-.042-16.812-7.599-16.812-16.885 0-9.283 7.53-16.837 16.802-16.885h.087c9.313 0 16.89 7.572 16.89 16.88zm-24.389 159.38h-33.859v-94.486h33.859z"/><path d="m179.31 40h-95.12c-24.366 0-44.19 19.824-44.19 44.19v11.31c0 4.142 3.357 7.5 7.5 7.5s7.5-3.358 7.5-7.5v-11.31c0-16.095 13.095-29.19 29.19-29.19h95.119c16.096 0 29.19 13.095 29.19 29.19v159.36c0 16.096-13.095 29.19-29.19 29.19h-95.119c-16.096 0-29.19-13.095-29.19-29.19v-118.05c0-4.142-3.357-7.5-7.5-7.5s-7.5 3.358-7.5 7.5v118.05c0 24.367 19.824 44.19 44.19 44.19h95.119c24.366 0 44.19-19.824 44.19-44.19v-159.36c.001-24.366-19.823-44.19-44.189-44.19z"/><path d="m195.324 303.303h-127.148c-15.536 0-28.176 12.639-28.176 28.176v32.566c0 15.536 12.64 28.175 28.176 28.175h127.148c15.536 0 28.176-12.639 28.176-28.175v-32.566c0-15.537-12.64-28.176-28.176-28.176zm13.176 28.176v8.783h-25.728v-21.958h12.552c7.266-.001 13.176 5.91 13.176 13.175zm-84.25 23.782v21.958h-28.522v-21.958zm-28.522-15v-21.958h28.522v21.958zm43.522 15h28.522v21.958h-28.522zm0-15v-21.958h28.522v21.958zm-71.074-21.958h12.552v21.958h-25.728v-8.783c0-7.264 5.91-13.175 13.176-13.175zm-13.176 45.741v-8.783h25.728v21.958h-12.552c-7.266.001-13.176-5.91-13.176-13.175zm140.324 13.176h-12.552v-21.958h25.728v8.783c0 7.264-5.91 13.175-13.176 13.175z"/><path d="m73.25 103.002h94.603c4.143 0 7.5-3.358 7.5-7.5s-3.357-7.5-7.5-7.5h-94.603c-4.143 0-7.5 3.358-7.5 7.5s3.357 7.5 7.5 7.5z"/><path d="m73.25 151.859h114.932c4.143 0 7.5-3.358 7.5-7.5s-3.357-7.5-7.5-7.5h-114.932c-4.143 0-7.5 3.358-7.5 7.5s3.357 7.5 7.5 7.5z"/><path d="m73.25 210.653h81.049c4.143 0 7.5-3.358 7.5-7.5s-3.357-7.5-7.5-7.5h-81.049c-4.143 0-7.5 3.358-7.5 7.5s3.357 7.5 7.5 7.5z"/><path d="m73.25 236.297h102.024c4.143 0 7.5-3.358 7.5-7.5s-3.357-7.5-7.5-7.5h-102.024c-4.143 0-7.5 3.358-7.5 7.5s3.357 7.5 7.5 7.5z"/><path d="m73.25 127.431h58.5c4.143 0 7.5-3.358 7.5-7.5s-3.357-7.5-7.5-7.5h-58.5c-4.143 0-7.5 3.358-7.5 7.5s3.357 7.5 7.5 7.5z"/></g></svg>