<svg id="Capa_1" enable-background="new 0 0 511.996 511.996" height="512" viewBox="0 0 511.996 511.996" width="512" xmlns="http://www.w3.org/2000/svg"><g><path d="m433.389 267.547c-5.355-12.927-15.423-22.994-28.346-28.344l-17.306-7.175c.705-8.875.71-17.8.017-26.649l17.288-7.167c12.926-5.357 22.993-15.424 28.347-28.347 5.355-12.926 5.354-27.163-.003-40.089-5.714-13.782-17.066-24.501-31.147-29.408-3.911-1.363-8.186.704-9.549 4.614-1.363 3.911.702 8.187 4.614 9.55 10.047 3.502 18.149 11.152 22.227 20.988 3.822 9.223 3.823 19.381.001 28.605-3.821 9.224-11.006 16.409-20.232 20.232l-22.409 9.289c-3.087 1.279-4.955 4.446-4.581 7.767 1.289 11.445 1.282 23.078-.02 34.575-.376 3.322 1.491 6.491 4.58 7.771l22.432 9.301c9.224 3.819 16.408 11.002 20.229 20.227 3.822 9.226 3.821 19.386-.002 28.612-3.818 9.223-11 16.405-20.225 20.224-9.223 3.82-19.384 3.818-28.611-.006l-22.428-9.289c-3.09-1.279-6.655-.359-8.738 2.259-7.193 9.039-15.415 17.27-24.437 24.465-2.612 2.083-3.531 5.644-2.253 8.731l9.281 22.423c1.896 4.575 2.858 9.382 2.858 14.287 0 15.176-9.064 28.737-23.088 34.548-19.039 7.881-40.949-1.193-48.839-20.229l-5.881-14.201c20.507-8.841 38.952-22.291 53.762-39.475 23.161-26.874 35.916-61.239 35.916-96.764 0-16.378-2.655-32.464-7.892-47.809-.836-2.451-2.878-4.297-5.399-4.882s-5.168.17-7.001 2.001l-24.619 24.619-15.22-56.804c-.693-2.588-2.715-4.61-5.302-5.303l-56.816-15.224 24.628-24.625c1.832-1.832 2.59-4.48 2.002-7.003-.587-2.523-2.435-4.565-4.888-5.4-15.362-5.228-31.449-7.879-47.812-7.879-60.964 0-113.447 36.978-136.218 89.679l-14.202-5.883c-14.026-5.812-23.089-19.373-23.089-34.549 0-4.905.962-9.711 2.86-14.29 3.817-9.222 11-16.405 20.225-20.226 9.226-3.82 19.387-3.822 28.611-.002l22.428 9.289c3.087 1.278 6.651.36 8.736-2.256 7.227-9.073 15.451-17.3 24.442-24.453 2.619-2.083 3.541-5.649 2.26-8.74l-9.29-22.42c-1.896-4.575-2.858-9.381-2.858-14.286 0-15.176 9.064-28.737 23.09-34.549 9.222-3.823 19.381-3.823 28.605-.001s16.409 11.007 20.231 20.23l9.28 22.418c1.279 3.09 4.45 4.958 7.774 4.583 11.436-1.295 23.071-1.293 34.579.01 3.321.37 6.493-1.493 7.772-4.582l9.289-22.427c5.812-14.026 19.374-23.09 34.55-23.09 4.906 0 9.712.961 14.287 2.859 9.226 3.823 16.411 11.008 20.232 20.232 3.822 9.224 3.821 19.382-.002 28.606l-9.288 22.429c-1.28 3.089-.36 6.652 2.255 8.735 9.048 7.209 17.281 15.436 24.468 24.449 2.085 2.613 5.646 3.532 8.736 2.252l22.355-9.267c.676-.274 1.344-.532 2.028-.771 3.91-1.368 5.97-5.646 4.602-9.556-1.367-3.909-5.645-5.97-9.555-4.602-.854.299-1.741.635-2.765 1.051l-17.286 7.166c-5.77-6.754-12.084-13.064-18.858-18.842l7.167-17.302c5.356-12.925 5.357-27.162.002-40.088-5.354-12.923-15.422-22.991-28.346-28.347-6.404-2.655-13.144-4.002-20.031-4.002-21.263 0-40.264 12.697-48.406 32.348l-7.167 17.303c-8.883-.704-17.808-.707-26.655-.009l-7.159-17.294c-5.357-12.926-15.424-22.993-28.348-28.347-12.925-5.356-27.162-5.355-40.087.001-19.654 8.137-32.351 27.138-32.351 48.401 0 6.886 1.347 13.626 4.002 20.029l7.165 17.291c-6.745 5.754-13.054 12.067-18.842 18.853l-17.305-7.166c-12.924-5.351-27.162-5.349-40.088.003-12.928 5.354-22.995 15.421-28.343 28.342-2.656 6.405-4.003 13.145-4.003 20.031 0 21.263 12.696 40.264 32.348 48.406l14.697 6.088c-3.174 10.051-5.297 20.561-6.255 31.401l-8.44 3.499c-12.926 5.351-22.994 15.418-28.349 28.345-5.355 12.928-5.354 27.166 0 40.087 8.129 19.646 27.126 32.341 48.397 32.341 5.798 0 11.487-.965 16.955-2.845 6.138 8.27 13.122 15.924 20.842 22.763v144.591c0 4.142 3.357 7.5 7.5 7.5h113.023c4.142 0 7.5-3.358 7.5-7.5v-110.29c5.033-1.025 9.995-2.312 14.869-3.849l6.091 14.707c8.349 20.146 27.901 32.33 48.467 32.329 6.665 0 13.438-1.28 19.968-3.984 19.65-8.142 32.348-27.143 32.348-48.406 0-6.886-1.347-13.626-4.001-20.027l-7.159-17.297c6.758-5.774 13.067-12.09 18.837-18.859l17.3 7.165c12.926 5.356 27.162 5.36 40.09.007s22.995-15.419 28.345-28.342c5.354-12.923 5.355-27.162 0-40.089zm-153.701-32.503-44.644 44.645-60.986-16.341-16.341-60.986 44.644-44.645 60.986 16.341zm-70.129 145.48c-3.643.577-6.326 3.719-6.326 7.407v109.053h-98.023v-140.52c0-2.209-.975-4.306-2.663-5.731-16.039-13.537-28.807-30.871-36.923-50.128-1.608-3.817-6.008-5.606-9.824-3.998s-5.606 6.006-3.998 9.823c2.553 6.057 5.528 11.938 8.873 17.605-2.705.618-5.466.941-8.262.941-15.181 0-28.737-9.058-34.539-23.08-3.822-9.223-3.823-19.383-.001-28.609 3.821-9.225 11.005-16.408 20.232-20.228l2.147-.89c.184 8.306 1.059 16.615 2.614 24.748.686 3.593 3.83 6.093 7.357 6.093.468 0 .941-.044 1.417-.135 4.068-.778 6.736-4.706 5.958-8.774-1.583-8.284-2.386-16.772-2.386-25.23 0-73.508 59.804-133.312 133.312-133.312 10.554 0 20.976 1.225 31.119 3.651l-75.595 75.608c-1.894 1.894-2.634 4.656-1.94 7.244l18.582 69.35c.693 2.588 2.715 4.61 5.302 5.303l69.351 18.583c.642.172 1.294.255 1.941.255 1.963 0 3.878-.772 5.303-2.197l75.603-75.605c2.429 10.134 3.655 20.557 3.655 31.119 0 31.932-11.463 62.819-32.278 86.972-20.6 23.904-49.015 39.773-80.008 44.682z"/></g></svg>