<svg id="Capa_1" enable-background="new 0 0 511.991 511.991" height="512" viewBox="0 0 511.991 511.991" width="512" xmlns="http://www.w3.org/2000/svg"><g><path d="m401.714 285.989h-6.339v-26.229h21.632c17.866 0 32.4-14.539 32.4-32.41 0-8.645-3.367-16.78-9.487-22.913-6.124-6.125-14.262-9.497-22.914-9.497h-5.876v-22.619c0-31.373-10.027-60.965-29.026-85.756v-22.634c0-19.087-15.528-34.616-34.616-34.616-6.113 0-12.123 1.615-17.379 4.671-3.169 1.842-6.025 4.182-8.457 6.909-11.039-4.355-22.559-7.279-34.385-8.729-1.266-17.948-16.273-32.166-34.539-32.166-9.248 0-17.941 3.6-24.483 10.143-5.951 5.963-9.466 13.708-10.046 22.023-11.833 1.45-23.358 4.375-34.401 8.731-6.506-7.263-15.921-11.583-25.829-11.583-9.234 0-17.925 3.598-24.478 10.137-6.538 6.537-10.138 15.23-10.138 24.479v22.634c-18.999 24.791-29.026 54.383-29.026 85.756v22.636c-17.566.349-31.75 14.74-31.75 32.394 0 8.658 3.369 16.795 9.486 22.913 6.124 6.124 14.261 9.497 22.914 9.497h21.628v26.23h-6.338c-13.339 0-25.868 5.188-35.267 14.6-9.423 9.399-14.613 21.932-14.613 35.29 0 7.472 1.614 14.656 4.796 21.35 1.284 2.702 3.974 4.282 6.779 4.282 1.079 0 2.175-.234 3.215-.729 3.741-1.778 5.332-6.253 3.553-9.994-2.218-4.667-3.343-9.683-3.343-14.91 0-9.344 3.625-18.105 10.216-24.68 6.575-6.583 15.334-10.209 24.664-10.209h6.338v69.75h-6.338c-4.776 0-9.398-.946-13.739-2.811-3.804-1.636-8.217.124-9.852 3.93s.124 8.216 3.93 9.852c6.222 2.674 12.837 4.03 19.661 4.03h6.952c3.011 32.452 17.148 62.529 40.579 85.787 26.313 26.119 61.147 40.464 98.195 40.464.354 0 .709-.001 1.064-.004 71.336-.533 130.227-55.919 137.547-126.249h7.11c13.339 0 25.871-5.187 35.287-14.604 9.417-9.417 14.604-21.938 14.604-35.254-.001-27.511-22.382-49.892-49.891-49.892zm-319.044-46.332c-3.284-3.285-5.093-7.655-5.093-12.307 0-9.6 7.806-17.41 17.4-17.41h229.27c4.142 0 7.5-3.358 7.5-7.5s-3.358-7.5-7.5-7.5h-214.92v-22.619c0-20.5 4.813-40.138 14.024-57.88v1.856c0 4.142 3.358 7.5 7.5 7.5s7.5-3.358 7.5-7.5v-27.128c0-.008.002-.015.002-.023v-25.215c0-5.241 2.04-10.168 5.739-13.867 3.715-3.707 8.644-5.749 13.877-5.749 6.987 0 13.293 3.59 16.87 9.603 1.943 3.266 6.023 4.563 9.495 3.018 10.765-4.791 22.096-8.019 33.779-9.631v85.468c0 4.142 3.358 7.5 7.5 7.5s7.5-3.358 7.5-7.5v-93.8-4.347c0-5.24 2.042-10.172 5.744-13.882 3.704-3.704 8.63-5.744 13.872-5.744 10.822 0 19.626 8.804 19.626 19.626v4.26c0 .029-.004.058-.004.087v93.797c0 4.142 3.358 7.5 7.5 7.5s7.5-3.358 7.5-7.5v-85.466c11.68 1.613 23.008 4.84 33.773 9.631 3.474 1.547 7.553.249 9.495-3.018 1.711-2.877 4.143-5.285 7.03-6.964 2.97-1.727 6.372-2.639 9.84-2.639 10.816 0 19.616 8.8 19.616 19.616v25.215c0 .012.003.023.003.035v27.117c0 4.142 3.358 7.5 7.5 7.5s7.5-3.358 7.5-7.5v-1.854c9.21 17.741 14.023 37.378 14.023 57.878v22.619h-41.884c-4.142 0-7.5 3.358-7.5 7.5s3.358 7.5 7.5 7.5h62.76c4.645 0 9.016 1.812 12.301 5.098 3.288 3.295 5.099 7.668 5.099 12.312 0 9.6-7.806 17.41-17.4 17.41h-322.031c-4.645 0-9.016-1.812-12.306-5.103zm264.349 20.103c-3.795 3.716-10.467 7.806-21.005 11.606-18.589 6.703-43.456 10.394-70.018 10.394-46.73 0-79.835-11.313-90.99-22zm-90.075 237.227c-.318.002-.631.004-.949.004-33.061 0-64.15-12.803-87.63-36.109-23.705-23.53-36.76-54.879-36.76-88.274v-112.848h15.599c3.001 8.26 11.809 17.832 33.679 25.717 20.181 7.276 46.857 11.283 75.114 11.283 28.253 0 54.926-4.007 75.105-11.283 21.87-7.886 30.678-17.457 33.678-25.717h15.595v111.188c-.001 68.99-55.371 125.531-123.431 126.039zm169.45-136.459c-6.584 6.584-15.349 10.21-24.681 10.21h-6.339v-69.749h6.339c19.239 0 34.891 15.652 34.891 34.891 0 9.31-3.626 18.064-10.21 24.648z"/><path d="m217.43 340.72c4.142 0 7.5-3.358 7.5-7.5v-29.854c0-4.142-3.358-7.5-7.5-7.5s-7.5 3.358-7.5 7.5v29.854c0 4.142 3.358 7.5 7.5 7.5z"/><path d="m294.554 340.72c4.142 0 7.5-3.358 7.5-7.5v-29.854c0-4.142-3.358-7.5-7.5-7.5s-7.5 3.358-7.5 7.5v29.854c0 4.142 3.358 7.5 7.5 7.5z"/><path d="m290.037 384.901c-18.771 18.772-49.317 18.773-68.09 0-2.929-2.929-7.678-2.929-10.606 0-2.929 2.929-2.929 7.678 0 10.606 11.927 11.927 27.784 18.495 44.651 18.495 16.868 0 32.725-6.568 44.652-18.495 2.929-2.929 2.929-7.678 0-10.606s-7.678-2.928-10.607 0z"/></g></svg>