<svg id="Capa_1" enable-background="new 0 0 512 512" height="512" viewBox="0 0 512 512" width="512" xmlns="http://www.w3.org/2000/svg"><g><path d="m504.5 146.345h-79.65c-4.143 0-7.5 3.358-7.5 7.5s3.357 7.5 7.5 7.5h79.65c4.143 0 7.5-3.358 7.5-7.5s-3.357-7.5-7.5-7.5z"/><path d="m504.5 60.865c4.143 0 7.5-3.358 7.5-7.5s-3.357-7.5-7.5-7.5h-241.353c-.043 0-.086-.001-.13 0h-.469v-27.61h241.952c4.143 0 7.5-3.358 7.5-7.5s-3.357-7.5-7.5-7.5h-497c-4.142 0-7.5 3.358-7.5 7.5v42.61c0 4.142 3.358 7.5 7.5 7.5h7.049l28.217 42.87h-35.266c-4.142 0-7.5 3.358-7.5 7.5v42.61c0 4.142 3.358 7.5 7.5 7.5h200.52v17.478l-118.338 72.783c-4.488 2.759-7.758 6.883-9.435 11.667h-13.574c-2.915-6.765-9.644-11.516-17.466-11.516h-30.187c-10.483 0-19.012 8.529-19.012 19.012v215.472c0 10.483 8.529 19.012 19.012 19.012h30.187c7.82 0 14.547-4.748 17.463-11.51h13.59c3.095 8.73 11.432 15.002 21.211 15.002s18.115-6.271 21.211-15.002h225.208c3.096 8.73 11.433 15.002 21.211 15.002s18.115-6.271 21.211-15.002h13.59c2.917 6.762 9.644 11.51 17.464 11.51h30.187c10.483 0 19.012-8.529 19.012-19.012v-215.472c0-10.483-8.528-19.012-19.012-19.012h-30.187c-7.822 0-14.552 4.751-17.467 11.516h-13.573c-1.677-4.783-4.947-8.907-9.435-11.666l-118.34-72.785v-17.477h132.299c4.143 0 7.5-3.358 7.5-7.5s-3.357-7.5-7.5-7.5h-132.301v-27.61h241.951c4.143 0 7.5-3.358 7.5-7.5s-3.357-7.5-7.5-7.5h-2.278l-28.757-42.87zm-451.281 425.376c0 2.212-1.8 4.012-4.012 4.012h-30.187c-2.212 0-4.012-1.8-4.012-4.012v-215.472c0-2.212 1.8-4.012 4.012-4.012h30.187c2.212 0 4.012 1.8 4.012 4.012zm15.001-207.968h10.75v200.47h-10.75zm349.131-7.504c0-2.212 1.8-4.012 4.013-4.012h30.187c2.212 0 4.012 1.8 4.012 4.012v215.472c0 2.212-1.8 4.012-4.012 4.012h-30.187c-2.213 0-4.013-1.8-4.013-4.012zm-15.001 207.974h-10.75v-200.47h10.75zm-12.953-375.008h-17.964l28.218-42.87h17.961zm38.103-30.61 20.531 30.61h-40.677zm-300.321-12.26h18.064l-28.754 42.87h-18.067zm-38.6 30.617-20.152-30.617h40.69zm66.502-18.357 20.146 30.61h-40.677zm38.103 30.61-28.215-42.87h17.96l25.092 38.134v4.737h-14.837zm14.836-32.025-7.135-10.844h7.135zm27.265 169.394c9.481 0 17.843-4.867 22.73-12.231l55.94 34.4h-157.345l55.941-34.406c4.886 7.367 13.25 12.237 22.734 12.237zm49.867-180.239-22.603 34.343v-27.287l4.643-7.056zm9.888 12.26 20.531 30.61h-40.677zm9.838-12.26h18.064l28.756 42.87h-18.067zm36.126 0h40.689l-20.152 30.617zm-93.455 152.974c0 6.763-5.502 12.265-12.265 12.265s-12.265-5.502-12.265-12.265v-195.584h24.529v195.584zm-232.549-195.584h193.02v27.61h-193.02zm17.507 42.61h17.962l28.218 42.87h-17.963zm-17.507 85.48v-27.61h193.02v27.61zm93.97 282.16v57.74c0 4.136-3.365 7.5-7.5 7.5-4.136 0-7.5-3.364-7.5-7.5v-215.48c0-2.622 1.334-5.007 3.569-6.382l110.481-67.951v17.407c0 .067.005.134.005.201l-95.484 58.727c-2.219 1.365-3.571 3.783-3.571 6.388v119.35c0 4.142 3.358 7.5 7.5 7.5s7.5-3.358 7.5-7.5v-115.157l8.251-5.075h206.126l8.252 5.075v195.396h-222.629v-50.238c0-4.142-3.358-7.5-7.5-7.5s-7.5 3.357-7.5 7.499zm264.062-164.121c2.233 1.374 3.567 3.759 3.567 6.381v215.48c0 4.136-3.364 7.5-7.5 7.5s-7.5-3.364-7.5-7.5v-207.09c0-2.605-1.353-5.024-3.571-6.389l-95.485-58.717c.001-.071.005-.14.005-.21v-17.407zm111.127-160.649h-18.067l-28.754-42.87h18.064z"/><path d="m144.74 318.756h182.2c4.143 0 7.5-3.358 7.5-7.5s-3.357-7.5-7.5-7.5h-182.2c-4.142 0-7.5 3.358-7.5 7.5s3.358 7.5 7.5 7.5z"/><path d="m144.74 363.589h182.2c4.143 0 7.5-3.358 7.5-7.5s-3.357-7.5-7.5-7.5h-182.2c-4.142 0-7.5 3.358-7.5 7.5s3.358 7.5 7.5 7.5z"/><path d="m144.74 408.421h182.2c4.143 0 7.5-3.358 7.5-7.5s-3.357-7.5-7.5-7.5h-182.2c-4.142 0-7.5 3.358-7.5 7.5s3.358 7.5 7.5 7.5z"/><path d="m144.74 453.254h182.2c4.143 0 7.5-3.358 7.5-7.5s-3.357-7.5-7.5-7.5h-182.2c-4.142 0-7.5 3.358-7.5 7.5s3.358 7.5 7.5 7.5z"/></g></svg>