<svg id="Capa_1" enable-background="new 0 0 512 512" height="512" viewBox="0 0 512 512" width="512" xmlns="http://www.w3.org/2000/svg"><g><path d="m465.436 384.874c8.718-8.237 14.175-19.892 14.175-32.805v-68.418c0-24.897-20.255-45.153-45.153-45.153h-91.416c-24.897 0-45.153 20.255-45.153 45.153v68.418c0 11.58 4.386 22.152 11.578 30.153h-244.578c-35.78 0-64.889 29.109-64.889 64.889s29.109 64.889 64.889 64.889h382.222c35.78 0 64.889-29.109 64.889-64.889 0-29.416-19.682-54.308-46.564-62.237zm-46.835-131.376v65.307c0 6.162-5.013 11.175-11.175 11.175s-11.175-5.013-11.175-11.175c0-4.142-3.358-7.5-7.5-7.5s-7.5 3.358-7.5 7.5c0 6.162-5.013 11.175-11.175 11.175s-11.175-5.013-11.175-11.175v-65.307zm-105.712 98.571v-68.418c0-16.626 13.526-30.153 30.153-30.153h.857v65.307c0 14.433 11.742 26.175 26.175 26.175 7.306 0 13.922-3.009 18.675-7.852 4.753 4.843 11.37 7.852 18.675 7.852 14.433 0 26.175-11.742 26.175-26.175v-65.307h.857c16.626 0 30.153 13.526 30.153 30.153v68.418c0 16.626-13.526 30.153-30.153 30.153h-91.416c-16.624 0-30.151-13.527-30.151-30.153zm134.222 144.931h-382.222c-27.509 0-49.889-22.38-49.889-49.889s22.38-49.889 49.889-49.889h382.222c27.509 0 49.889 22.38 49.889 49.889s-22.38 49.889-49.889 49.889z"/><path d="m447.11 415.22h-382.22c-17.584 0-31.89 14.306-31.89 31.89s14.305 31.889 31.888 31.89h.001s0 0 0 0h271.511c4.142 0 7.5-3.358 7.5-7.5s-3.358-7.5-7.5-7.5h-53.369c3.073-4.901 4.858-10.689 4.858-16.889 0-6.201-1.785-11.989-4.859-16.891h137.05c-3.074 4.902-4.859 10.69-4.859 16.891 0 6.2 1.785 11.988 4.858 16.889h-53.679c-4.142 0-7.5 3.358-7.5 7.5s3.358 7.5 7.5 7.5h80.71s0 0 0 0h.001c17.584-.001 31.889-14.306 31.889-31.89s-14.306-31.89-31.89-31.89zm-399.11 31.89c0-9.308 7.569-16.881 16.875-16.889.005 0 .009.001.014.001 9.312 0 16.889 7.577 16.889 16.889s-7.576 16.889-16.888 16.889c-9.314 0-16.89-7.577-16.89-16.89zm191.111.001c0-9.312 7.577-16.889 16.889-16.889s16.889 7.577 16.889 16.889-7.577 16.889-16.889 16.889-16.889-7.577-16.889-16.889zm-10.142 16.889h-137.049c3.073-4.901 4.858-10.689 4.858-16.889 0-6.201-1.785-11.989-4.859-16.891h137.05c-3.074 4.902-4.859 10.69-4.859 16.891.001 6.2 1.785 11.988 4.859 16.889zm218.141 0c-9.312 0-16.889-7.577-16.889-16.889s7.577-16.889 16.889-16.889c.005 0 .009-.001.014-.001 9.306.008 16.875 7.581 16.875 16.889.001 9.313-7.575 16.89-16.889 16.89z"/><path d="m70.68 260.294c4.644 7.644 12.508 12.431 21.33 13.113v6.803c0 24.896 20.254 45.15 45.15 45.15h91.42c24.896 0 45.15-20.254 45.15-45.15v-6.804c8.813-.684 16.674-5.468 21.327-13.107l51.542-84.713c7.805-12.843 3.77-29.736-8.992-37.656l-28.8-17.89c-3.519-2.186-8.143-1.105-10.329 2.414s-1.105 8.143 2.414 10.329l28.803 17.891c5.802 3.601 7.635 11.282 4.087 17.119l-51.538 84.707c-2.289 3.758-6.291 6.001-10.705 6.001-2.272 0-4.514-.631-6.474-1.818-2.852-1.734-4.857-4.476-5.646-7.721s-.269-6.601 1.468-9.453l41.23-67.78c2.139-3.516 1.045-8.098-2.451-10.27l-40.707-25.279v-29.435l16.474 10.228c1.232.765 2.599 1.129 3.949 1.129 2.508 0 4.959-1.257 6.379-3.545 2.185-3.519 1.103-8.143-2.416-10.328l-24.386-15.14v-12.998c.001-41.957-34.134-76.091-76.091-76.091s-76.091 34.134-76.091 76.091v13l-78.654 48.838c-12.765 7.93-16.793 24.824-8.98 37.659zm157.9 50.066h-91.42c-16.625 0-30.15-13.525-30.15-30.15v-9.895c.492-.259.979-.527 1.457-.817 6.277-3.817 10.691-9.851 12.429-16.991 1.736-7.138.59-14.523-3.228-20.795l-10.657-17.516v-2.406c0-16.625 13.525-30.15 30.15-30.15h.857v65.303c0 14.433 11.742 26.175 26.175 26.175 7.306 0 13.922-3.009 18.675-7.852 4.753 4.843 11.37 7.852 18.675 7.852 14.434 0 26.176-11.742 26.176-26.175v-65.303h.861c16.625 0 30.15 13.525 30.15 30.15v2.401l-10.657 17.519c-3.818 6.273-4.964 13.659-3.228 20.796 1.737 7.141 6.151 13.175 12.437 16.997.475.288.959.554 1.448.812v9.895c0 16.624-13.525 30.15-30.15 30.15zm-15.861-128.72v65.303c0 6.162-5.013 11.175-11.176 11.175-6.162 0-11.175-5.013-11.175-11.175 0-4.142-3.358-7.5-7.5-7.5s-7.5 3.358-7.5 7.5c0 6.162-5.013 11.175-11.175 11.175s-11.175-5.013-11.175-11.175v-65.303zm57.731 13.285c-6.696-16.563-22.935-28.285-41.87-28.285h-91.42c-18.937 0-35.177 11.724-41.872 28.29l-14.997-24.649 36.129-22.432h132.899l36.122 22.432zm-148.673-118.834c0-33.686 27.406-61.091 61.092-61.091s61.091 27.405 61.091 61.091v56.758h-122.183zm-85.74 74.58 70.74-43.924v29.433l-40.713 25.278c-3.497 2.171-4.59 6.754-2.451 10.27l41.241 67.781c1.735 2.851 2.256 6.207 1.466 9.452-.789 3.245-2.794 5.986-5.638 7.715-1.968 1.193-4.213 1.824-6.492 1.824-4.414 0-8.41-2.241-10.693-5.999l-51.541-84.711c-3.552-5.835-1.721-13.515 4.081-17.119z"/><path d="m182.868 39.948c-19.929 0-36.143 16.214-36.143 36.143 0 19.93 16.214 36.144 36.143 36.144 19.93 0 36.144-16.214 36.144-36.144 0-19.929-16.214-36.143-36.144-36.143zm0 57.287c-11.658 0-21.143-9.485-21.143-21.144 0-11.658 9.485-21.143 21.143-21.143 11.659 0 21.144 9.485 21.144 21.143 0 11.659-9.485 21.144-21.144 21.144z"/></g></svg>