<svg id="Capa_1" enable-background="new 0 0 512 512" height="512" viewBox="0 0 512 512" width="512" xmlns="http://www.w3.org/2000/svg"><g><path d="m479.167 0c-18.104 0-32.833 14.729-32.833 32.833v13.157h-33.644c-4.142 0-7.5 3.358-7.5 7.5s3.358 7.5 7.5 7.5h33.03v50.51h-95.755v-50.51h33.025c4.142 0 7.5-3.358 7.5-7.5s-3.358-7.5-7.5-7.5h-33.197c-1.832-20.092-18.766-35.885-39.327-35.885h-108.932c-20.561 0-37.495 15.794-39.327 35.885h-96.542v-13.157c0-18.104-14.728-32.833-32.832-32.833s-32.833 14.729-32.833 32.833v106.829c0 18.104 14.729 32.833 32.833 32.833s32.833-14.729 32.833-32.833v-13.162h96.37v46.162c0 1.78.623 3.412 1.659 4.698l-.003.002 46.332 57.6c.052.065.112.121.166.184v38.315c0 4.142 3.358 7.5 7.5 7.5h11.615v4.599c0 14.72 11.976 26.696 26.696 26.696s26.696-11.976 26.696-26.696v-4.599h11.615c4.142 0 7.5-3.358 7.5-7.5v-38.315c.054-.063.114-.12.166-.184l46.332-57.6-.003-.002c1.036-1.286 1.659-2.919 1.659-4.698v-46.162h96.37v13.161c0 18.104 14.729 32.833 32.833 32.833s32.831-14.729 32.831-32.833v-106.828c0-18.104-14.729-32.833-32.833-32.833zm-302.132 49.604c0-13.509 10.99-24.499 24.499-24.499h108.933c13.509 0 24.499 10.99 24.499 24.499v115.559h-157.931zm-144.202 107.89c-9.833 0-17.833-8-17.833-17.833v-106.828c0-9.833 8-17.833 17.833-17.833s17.833 8 17.833 17.833v106.829c-.001 9.832-8 17.832-17.833 17.832zm32.832-45.994v-50.51h96.37v50.51zm202.031 174.061c0 6.449-5.247 11.696-11.696 11.696s-11.696-5.247-11.696-11.696v-4.599h23.392zm19.115-19.599h-61.623v-28.2h61.623zm5.73-43.2h-73.082l-34.266-42.6h141.614zm204.459-83.101c0 9.833-8 17.833-17.833 17.833s-17.833-8-17.833-17.833v-106.828c0-9.833 8-17.833 17.833-17.833s17.833 8 17.833 17.833z"/><path d="m416.7 402.55h-46.07l15.831-13.068c7.109-5.868 9.862-15.326 7.014-24.093-2.849-8.767-10.635-14.8-19.836-15.368l-32.229-1.99 8.071-31.326c2.299-8.922-1.032-18.188-8.484-23.605-7.454-5.417-17.294-5.726-25.071-.786l-34.954 22.201c-3.497 2.221-4.531 6.855-2.31 10.352 2.222 3.497 6.857 4.53 10.352 2.31l34.954-22.201c3.892-2.47 7.268-.428 8.21.257s3.928 3.267 2.778 7.73l-10.337 40.123c-.559 2.167-.12 4.47 1.196 6.281 1.315 1.81 3.371 2.938 5.604 3.076l41.296 2.551c4.602.284 6.135 3.923 6.495 5.032s1.26 4.954-2.296 7.889l-29.846 24.636h-24.088c-4.142 0-7.5 3.358-7.5 7.5 0 9.093-7.397 16.49-16.49 16.49-6.306 0-11.971-3.514-14.785-9.17-1.268-2.549-3.869-4.16-6.715-4.16-.001 0-.002 0-.003 0-2.848.001-5.449 1.615-6.715 4.166-2.805 5.653-8.465 9.164-14.772 9.164-6.3 0-11.961-3.514-14.775-9.171-1.268-2.548-3.869-4.159-6.715-4.159-2.847 0-5.447 1.611-6.715 4.16-2.813 5.656-8.475 9.17-14.774 9.17-9.098 0-16.5-7.397-16.5-16.49 0-4.142-3.358-7.5-7.5-7.5h-24.087l-29.846-24.636c-3.556-2.935-2.657-6.781-2.296-7.889s1.894-4.748 6.496-5.032l41.296-2.55c2.233-.138 4.289-1.266 5.604-3.076s1.754-4.114 1.196-6.281l-10.337-40.123c-1.149-4.463 1.836-7.045 2.778-7.73.943-.685 4.319-2.728 8.209-.257l34.955 22.201c3.497 2.221 8.131 1.186 10.352-2.31s1.187-8.131-2.31-10.352l-34.955-22.201c-7.777-4.94-17.618-4.632-25.071.785s-10.783 14.683-8.484 23.605l8.071 31.326-32.229 1.99c-9.201.568-16.987 6.601-19.836 15.368s-.096 18.224 7.013 24.093l15.832 13.068h-31.072c-4.142 0-7.5 3.358-7.5 7.5s3.358 7.5 7.5 7.5h72.123c3.374 13.755 15.812 23.99 30.597 23.99 8.167 0 15.77-3.088 21.49-8.446 5.72 5.358 13.323 8.446 21.49 8.446 8.173 0 15.777-3.087 21.494-8.443 5.721 5.356 13.326 8.443 21.496 8.443 14.78 0 27.214-10.235 30.587-23.99h87.123c10.601 0 20.577 4.133 28.086 11.633 7.502 7.501 11.633 17.48 11.633 28.097 0 21.902-17.818 39.72-39.72 39.72h-321.399c-10.61 0-20.584-4.131-28.086-11.634-7.502-7.501-11.633-17.476-11.633-28.086 0-17.195 10.955-32.36 27.259-37.737 3.934-1.297 6.071-5.538 4.773-9.472-1.297-3.934-5.538-6.07-9.472-4.774-22.466 7.409-37.561 28.299-37.561 51.983 0 14.617 5.692 28.359 16.027 38.693 10.334 10.335 24.076 16.027 38.693 16.027h321.4c30.172 0 54.72-24.547 54.72-54.72 0-14.624-5.692-28.369-16.03-38.707-10.345-10.332-24.085-16.023-38.69-16.023z"/><path d="m263.5 410.05v-81.316c0-4.142-3.358-7.5-7.5-7.5s-7.5 3.358-7.5 7.5v81.316c0 4.142 3.358 7.5 7.5 7.5s7.5-3.358 7.5-7.5z"/></g></svg>