<svg id="Capa_1" enable-background="new 0 0 512 512" height="512" viewBox="0 0 512 512" width="512" xmlns="http://www.w3.org/2000/svg"><g><path d="m447.111 338.931h-83.354c1.422-3.017 2.221-6.383 2.221-9.933 0-12.895-10.49-23.385-23.385-23.385h-3.427c-1.007-3.518-1.527-7.169-1.527-10.911 0-21.841 17.765-39.61 39.601-39.61 21.841 0 39.609 17.769 39.609 39.61 0 5.367-1.055 10.576-3.135 15.482-.981 2.316-.732 4.971.657 7.068 1.389 2.098 3.742 3.359 6.258 3.359.75 0 1.496-.112 2.212-.333l39.823-12.294c9.669-3.004 16.165-11.818 16.165-21.933v-22.37c0-4.142-3.357-7.5-7.5-7.5h-21.18c-1.331 0-2.587-.523-3.549-1.485-.936-.932-1.451-2.184-1.451-3.525 0-2.762 2.243-5.01 5-5.01h21.18c4.143 0 7.5-3.358 7.5-7.5v-5.19c0-9.739-6.189-18.419-15.401-21.6l-99.379-34.323 26.344-26.344c2.929-2.929 2.929-7.678 0-10.606-2.93-2.929-7.678-2.929-10.607 0l-31.505 31.505-8.176-2.824-3.049-7.159 73.227-73.236c1.417-1.417 3.302-2.198 5.306-2.198 2.005 0 3.89.781 5.303 2.194 2.923 2.928 2.925 7.687.004 10.608l-19.92 19.92c-2.929 2.929-2.929 7.678 0 10.606 2.93 2.929 7.678 2.929 10.607 0l19.92-19.92c8.764-8.765 8.766-23.035-.001-31.817-4.251-4.25-9.902-6.591-15.913-6.591s-11.662 2.341-15.913 6.592l-68.956 68.964-36.432-85.552c-4.764-11.177-15.695-18.399-27.849-18.399h-127.489c-9.905 0-19.198 4.864-24.862 13.015l-76.84 110.74c-2.668 3.846-4.078 8.353-4.078 13.036v109.24c0 10.977 7.834 20.423 18.636 22.461l21.62 4.06c2.578.487 5.219-.413 6.968-2.364 1.75-1.952 2.354-4.676 1.593-7.185-1.139-3.755-1.717-7.655-1.717-11.592 0-5.109.958-10.073 2.846-14.755 1.549-3.841-.309-8.211-4.15-9.761-3.84-1.548-8.211.309-9.761 4.15-2.611 6.473-3.935 13.325-3.935 20.365 0 1.464.058 2.926.174 4.38l-10.863-2.04c-3.715-.701-6.411-3.948-6.411-7.72v-109.24c0-1.612.485-3.163 1.402-4.485l76.836-110.735c2.859-4.114 7.547-6.57 12.542-6.57h127.49c6.132 0 11.646 3.643 14.049 9.278l47.12 110.65c.831 1.951 2.448 3.458 4.452 4.151l126.472 43.68c2.413.833 4.223 2.761 4.948 5.111h-13.331c-11.028 0-20 8.977-20 20.01 0 5.36 2.084 10.387 5.856 14.144 3.784 3.783 8.807 5.867 14.144 5.867h13.68v14.87c0 3.507-2.256 6.564-5.602 7.604l-26.854 8.29c.316-2.387.475-4.804.475-7.243 0-30.112-24.498-54.61-54.609-54.61-30.106 0-54.601 24.498-54.601 54.61 0 3.704.363 7.348 1.084 10.91h-150.331c.724-3.568 1.088-7.213 1.088-10.91 0-30.112-24.498-54.61-54.61-54.61-10.108 0-19.97 2.781-28.521 8.042-3.528 2.171-4.628 6.791-2.457 10.318 2.17 3.527 6.79 4.627 10.318 2.457 6.185-3.806 13.329-5.818 20.66-5.818 21.841 0 39.61 17.769 39.61 39.61 0 3.729-.521 7.38-1.531 10.911h-2.011c-12.895 0-23.385 10.491-23.385 23.385 0 3.55.799 6.916 2.221 9.933h-69.885c-35.78 0-64.889 29.109-64.889 64.889s29.109 64.889 64.889 64.889h382.222c35.779 0 64.889-29.109 64.889-64.889s-29.109-64.889-64.889-64.889zm-291.173-18.318h186.656c4.623 0 8.385 3.762 8.385 8.385s-3.762 8.385-8.385 8.385h-186.656c-4.624 0-8.385-3.762-8.385-8.385s3.761-8.385 8.385-8.385zm291.173 133.096h-382.222c-27.509 0-49.889-22.381-49.889-49.889s22.38-49.889 49.889-49.889h382.222c27.509 0 49.889 22.38 49.889 49.889s-22.38 49.889-49.889 49.889z"/><path d="m447.111 371.93h-382.222c-17.583 0-31.889 14.306-31.889 31.89s14.306 31.889 31.889 31.889h382.222c17.583 0 31.889-14.306 31.889-31.889s-14.306-31.89-31.889-31.89zm-208 31.89c0-9.312 7.577-16.889 16.889-16.889s16.89 7.577 16.89 16.889-7.577 16.889-16.89 16.889-16.889-7.577-16.889-16.889zm-10.142 16.889h-137.049c3.073-4.901 4.858-10.689 4.858-16.889s-1.785-11.988-4.858-16.889h137.048c-3.073 4.901-4.858 10.689-4.858 16.889s1.785 11.987 4.859 16.889zm54.062-33.779h137.049c-3.073 4.901-4.858 10.689-4.858 16.889s1.785 11.988 4.858 16.889h-137.049c3.073-4.901 4.858-10.689 4.858-16.889s-1.784-11.987-4.858-16.889zm-235.031 16.89c0-9.312 7.577-16.889 16.889-16.889s16.889 7.577 16.889 16.889-7.577 16.889-16.889 16.889-16.889-7.577-16.889-16.889zm399.111 16.889c-9.313 0-16.89-7.577-16.89-16.889s7.576-16.889 16.889-16.889h.001c9.312 0 16.889 7.577 16.889 16.889s-7.576 16.889-16.889 16.889z"/><path d="m160.657 182.775c11.021 0 19.987-8.966 19.987-19.987v-73.514c0-11.021-8.966-19.987-19.987-19.987h-13.481c-6.549 0-12.688 3.212-16.422 8.593l-51.005 73.514c-4.254 6.132-4.747 14.049-1.287 20.661s10.246 10.72 17.709 10.72zm-68.905-17.675c-.421-.804-1.232-2.917.321-5.155l51.005-73.513c.932-1.343 2.464-2.145 4.098-2.145h13.481c2.75 0 4.987 2.237 4.987 4.987v73.513c0 2.75-2.237 4.987-4.987 4.987h-64.487c-2.724.001-3.997-1.87-4.418-2.674z"/><path d="m284.834 300.743c15.948 0 28.924-12.975 28.924-28.924v-92.169c0-3.917-.778-7.731-2.313-11.336l-34.693-81.437c-4.552-10.684-14.996-17.588-26.61-17.588h-29.638c-15.949 0-28.924 12.976-28.924 28.924v173.607c0 15.949 12.975 28.924 28.924 28.924h64.33zm-78.255-28.923v-173.607c0-7.678 6.246-13.924 13.924-13.924h29.638c5.59 0 10.619 3.323 12.809 8.467l34.693 81.437c.739 1.736 1.114 3.572 1.114 5.458v92.169c0 7.678-6.246 13.924-13.924 13.924h-64.331c-7.677-.001-13.923-6.247-13.923-13.924z"/></g></svg>