<svg id="Capa_1" enable-background="new 0 0 511.996 511.996" height="512" viewBox="0 0 511.996 511.996" width="512" xmlns="http://www.w3.org/2000/svg"><g><path d="m61.436 248.507c0 14.772 12.018 26.79 26.79 26.79h65.219c14.772 0 26.79-12.018 26.79-26.79v-84.03c0-14.772-12.018-26.79-26.79-26.79h-65.219c-14.772 0-26.79 12.018-26.79 26.79zm92.008 11.79h-65.218c-6.501 0-11.79-5.289-11.79-11.79v-14.94h88.799v14.94c-.001 6.501-5.29 11.79-11.791 11.79zm-65.218-107.61h65.219c6.501 0 11.79 5.289 11.79 11.79v54.09h-88.799v-54.09c0-6.501 5.289-11.79 11.79-11.79z"/><path d="m490.278 259.733c11.976 0 21.718-9.743 21.718-21.718v-65.305c0-11.975-9.742-21.718-21.718-21.718-2.58 0-5.056.455-7.354 1.284-2.161-8.375-9.757-14.59-18.798-14.59h-28.485c-9.822 0-17.945 7.331-19.234 16.805-5.058-3.28-11.081-5.194-17.546-5.194-15.254 0-28.067 10.617-31.459 24.847h-30.886l36.239-81.499c.433-.974.634-2.012.634-3.047h.013v-56.47c0-4.142-3.357-7.5-7.5-7.5h-123.62c-4.143 0-7.5 3.358-7.5 7.5v56.47h.013c0 1.035.201 2.073.634 3.047l36.239 81.499h-29.998v-1.435c0-11.975-9.742-21.718-21.718-21.718-2.343 0-4.598.378-6.714 1.067v-17.023c0-16.735-13.615-30.35-30.351-30.35h-90.83c-4.143 0-7.5 3.358-7.5 7.5s3.357 7.5 7.5 7.5h90.83c8.465 0 15.351 6.886 15.351 15.35v158.26h-154.8v-158.26c0-8.464 6.882-15.35 15.34-15.35h3.279c4.143 0 7.5-3.358 7.5-7.5s-3.357-7.5-7.5-7.5h-3.279c-16.729 0-30.34 13.615-30.34 30.35v17.025c-2.118-.691-4.375-1.069-6.721-1.069-11.975.002-21.717 9.744-21.717 21.719v65.305c0 11.975 9.742 21.718 21.718 21.718 2.345 0 4.603-.378 6.721-1.069v34.646c-15.728.28-28.439 13.153-28.439 28.946 0 15.792 12.709 28.664 28.436 28.945v127.664c0 4.142 3.357 7.5 7.5 7.5h169.799c4.143 0 7.5-3.358 7.5-7.5v-127.65h85.523v127.653c0 4.142 3.357 7.5 7.5 7.5h169.8c4.143 0 7.5-3.358 7.5-7.5v-39.17c0-4.142-3.357-7.5-7.5-7.5s-7.5 3.358-7.5 7.5v31.67h-154.8v-120.15h154.8v58.48c0 4.142 3.357 7.5 7.5 7.5s7.5-3.358 7.5-7.5v-58.496c15.728-.28 28.438-13.152 28.438-28.946 0-15.792-12.709-28.664-28.436-28.945v-34.646c2.117.69 4.374 1.068 6.718 1.068zm-461.842-21.718c0 3.704-3.014 6.718-6.718 6.718s-6.718-3.014-6.718-6.718v-65.305c0-3.704 3.014-6.718 6.718-6.718s6.718 3.014 6.718 6.718zm461.842-72.022c3.704 0 6.718 3.014 6.718 6.718v65.305c0 3.704-3.014 6.718-6.718 6.718s-6.718-3.014-6.718-6.718v-65.306c.001-3.704 3.014-6.717 6.718-6.717zm-59.07-8.873c0-2.445 1.989-4.434 4.434-4.434h28.485c2.444 0 4.434 1.989 4.434 4.434v136.176h-37.353zm-32.347 7.178c9.565 0 17.347 7.782 17.347 17.347v47.435c0 9.565-7.781 17.347-17.347 17.347s-17.347-7.782-17.347-17.347v-47.435c.001-9.565 7.782-17.347 17.347-17.347zm-40.46-123.669v41.47h-108.619v-41.47zm-104.576 56.47h100.533l-34.258 77.046h-32.016zm112.69 92.046v32.435h-124.845v-32.435zm-146.563-23.152c3.704 0 6.718 3.014 6.718 6.718v8.935 47.435 8.935c0 3.704-3.014 6.718-6.718 6.718-3.678 0-6.672-2.972-6.714-6.641v-65.459c.042-3.669 3.036-6.641 6.714-6.641zm-6.714 92.673c2.116.69 4.371 1.067 6.714 1.067 11.976 0 21.718-9.743 21.718-21.718v-1.435h125.732c3.393 14.23 16.206 24.847 31.459 24.847 6.38 0 12.329-1.864 17.347-5.066v36.936h-202.97zm-15.004 212.699h-154.798v-120.15h154.799v120.15zm298.762-149.109c0 7.697-6.262 13.958-13.959 13.958h-454.078c-7.697 0-13.959-6.262-13.959-13.959s6.262-13.958 13.959-13.958h454.078c7.697 0 13.959 6.262 13.959 13.959z"/><path d="m428.947 363.577h-75.572c-11.526 0-20.904 9.377-20.904 20.904 0 5.098 1.84 9.772 4.884 13.404-3.044 3.632-4.884 8.306-4.884 13.404s1.84 9.772 4.884 13.404c-3.044 3.632-4.884 8.306-4.884 13.404 0 11.526 9.378 20.904 20.904 20.904h75.572c11.526 0 20.904-9.377 20.904-20.904 0-5.098-1.84-9.772-4.884-13.404 3.044-3.632 4.884-8.306 4.884-13.404s-1.84-9.772-4.884-13.404c3.044-3.632 4.884-8.305 4.884-13.404.001-11.527-9.377-20.904-20.904-20.904zm-75.572 15h75.572c3.256 0 5.904 2.648 5.904 5.904 0 3.255-2.648 5.904-5.904 5.904h-75.572c-3.256 0-5.904-2.648-5.904-5.904s2.648-5.904 5.904-5.904zm81.477 32.712c0 3.256-2.648 5.904-5.904 5.904h-75.572c-3.256 0-5.904-2.648-5.904-5.904s2.648-5.904 5.904-5.904h75.572c3.255 0 5.904 2.649 5.904 5.904zm-5.905 32.713h-75.572c-3.256 0-5.904-2.648-5.904-5.904 0-3.255 2.648-5.904 5.904-5.904h75.572c3.256 0 5.904 2.648 5.904 5.904.001 3.255-2.648 5.904-5.904 5.904z"/></g></svg>