<svg id="Capa_1" enable-background="new 0 0 512 512" height="512" viewBox="0 0 512 512" width="512" xmlns="http://www.w3.org/2000/svg"><g><path d="m336.611 94.281c17.635 0 31.982-14.347 31.982-31.982s-14.347-31.982-31.982-31.982-31.982 14.347-31.982 31.982 14.347 31.982 31.982 31.982zm0-48.965c9.364 0 16.982 7.618 16.982 16.982s-7.618 16.982-16.982 16.982-16.982-7.618-16.982-16.982 7.618-16.982 16.982-16.982z"/><path d="m147.697 30.316c-17.635 0-31.982 14.347-31.982 31.982s14.347 31.982 31.982 31.982 31.982-14.347 31.982-31.982-14.347-31.982-31.982-31.982zm0 48.965c-9.364 0-16.982-7.618-16.982-16.982s7.618-16.982 16.982-16.982 16.982 7.618 16.982 16.982-7.618 16.982-16.982 16.982z"/><path d="m372.034 167.408c-12.835 4.326-19.757 18.287-15.432 31.122 2.096 6.218 6.487 11.247 12.365 14.162 3.444 1.708 7.156 2.57 10.89 2.57 2.641 0 5.292-.431 7.867-1.299 6.218-2.095 11.248-6.487 14.162-12.365 2.915-5.878 3.366-12.54 1.271-18.757-4.326-12.836-18.284-19.759-31.123-15.433zm16.908 20.223c.816 2.421.64 5.014-.495 7.303s-3.093 3.999-5.514 4.814c-4.996 1.683-10.434-1.011-12.117-6.009-1.685-4.997 1.011-10.433 6.008-12.117 1.01-.34 2.037-.501 3.047-.501 3.994-.001 7.728 2.522 9.071 6.51z"/><path d="m492.997 396.949c-8.062-8.073-18.12-13.885-29.086-16.808-4-1.067-8.112 1.313-9.178 5.316-1.066 4.002 1.313 8.112 5.316 9.178 8.415 2.242 16.138 6.708 22.34 12.919 9.422 9.413 14.611 21.94 14.611 35.274 0 27.51-22.38 49.89-49.89 49.89h-382.22c-13.334 0-25.861-5.189-35.277-14.613-9.423-9.423-14.613-21.952-14.613-35.277 0-27.51 22.38-49.89 49.89-49.89h367.22c4.142 0 7.5-3.358 7.5-7.5s-3.358-7.5-7.5-7.5h-172.28v-34.124c0-22.938-18.192-41.7-40.905-42.635l-22.559-202.409 92.927-2.967c6.742 9.494 16.253 16.89 27.359 20.972l21.16 51.672c-4.65 8.802-6.555 19.03-5.018 29.278l-40.056 38.398c-5.449 5.23-8.535 12.555-8.466 20.098.068 7.554 3.291 14.827 8.839 19.95l42.732 39.492c5.276 4.873 11.967 7.282 18.644 7.281 7.408 0 14.799-2.967 20.214-8.823 10.288-11.139 9.597-28.571-1.539-38.856l-21.269-19.661 18.95-18.163c2.968.578 5.976.886 8.994.886 5.119 0 10.259-.836 15.252-2.518 8.084-2.724 14.947-7.428 20.257-13.38l26.107 2.997-5.027 28.523c-1.277 7.231.339 14.528 4.551 20.546 4.213 6.019 10.517 10.038 17.755 11.315 4.507.795 9.208.448 13.534-1.019 9.547-3.216 16.567-11.37 18.322-21.284l10.109-57.298c1.314-7.432-.525-15.167-5.045-21.223-4.517-6.049-11.407-10.012-18.905-10.874l-55.124-6.326c-4.981-9.089-12.69-16.077-21.72-20.269l-14.444-53.977c5.794-9.026 9.17-19.745 9.17-31.244 0-31.99-26.026-58.016-58.016-58.016-19.516 0-36.799 9.696-47.321 24.514l-96.61-3.085c-10.647-13.066-26.854-21.429-44.984-21.429-31.99 0-58.016 26.026-58.016 58.016 0 11.925 3.62 23.018 9.814 32.246l-4.808 43.184c-.458 4.117 2.507 7.826 6.624 8.284.282.031.562.047.839.047 3.77 0 7.018-2.836 7.445-6.671l3.409-30.617c9.683 7.247 21.696 11.544 34.693 11.544s25.009-4.296 34.691-11.542l21.44 192.362h-112.256l14.711-132.016c.458-4.117-2.507-7.826-6.624-8.284-4.111-.458-7.825 2.507-8.284 6.623l-14.901 133.723c-22.712.93-40.905 19.694-40.905 42.635v41.154c-21.084 10.729-35.57 32.628-35.57 57.86 0 17.332 6.75 33.627 19.004 45.881 12.246 12.258 28.542 19.009 45.886 19.009h382.22c35.781 0 64.89-29.109 64.89-64.89 0-17.344-6.751-33.639-19.003-45.879zm-157.138-135.737 27.122 25.072c5.062 4.675 5.376 12.598.703 17.658-4.681 5.061-12.605 5.376-17.663.704l-42.732-39.492c-2.523-2.33-3.987-5.635-4.019-9.068-.031-3.429 1.374-6.76 3.851-9.138l34.939-33.493c4.036 7.45 9.967 13.65 17.307 18.043l-19.606 18.791c-1.493 1.431-2.329 3.415-2.31 5.482.018 2.069.89 4.037 2.408 5.441zm147.771-67.251c2.054 2.752 2.891 6.264 2.294 9.64l-10.109 57.296c-.797 4.507-3.993 8.216-8.351 9.684-5.102 1.792-11.157-.203-14.199-4.686-1.915-2.735-2.649-6.051-2.068-9.339l6.41-36.37c.359-2.036-.139-4.13-1.375-5.787s-3.102-2.73-5.156-2.966l-27.003-3.1c3.091-7.724 4.183-16.276 2.871-24.837l48.09 5.518c3.408.393 6.542 2.196 8.596 4.947zm-72.839-13.694c5.744 17.044-3.449 35.585-20.494 41.329-8.255 2.782-17.103 2.183-24.909-1.688s-13.638-10.55-16.42-18.806c-5.744-17.045 3.449-35.585 20.493-41.329 3.443-1.16 6.945-1.711 10.392-1.711 13.62.001 26.354 8.603 30.938 22.205zm-46.12-34.708c-6.154 2.074-11.604 5.294-16.2 9.338l-14.186-34.642c.773.031 1.546.059 2.326.059 14.015 0 26.885-4.996 36.923-13.3l9.68 36.172c-6.104-.436-12.39.3-18.543 2.373zm-28.06-126.277c23.719 0 43.016 19.297 43.016 43.016s-19.297 43.016-43.016 43.016-43.017-19.297-43.017-43.016 19.298-43.016 43.017-43.016zm-54.894 24.28c-2.014 5.882-3.122 12.181-3.122 18.737 0 6.557 1.109 12.856 3.123 18.739l-80.072 2.557c2.614-6.598 4.067-13.779 4.067-21.296 0-7.516-1.452-14.696-4.066-21.293zm-134.02 61.753c-23.719 0-43.016-19.297-43.016-43.016s19.297-43.016 43.016-43.016 43.016 19.297 43.016 43.016-19.297 43.016-43.016 43.016zm-97.127 238.5c0-15.263 12.413-27.68 27.67-27.68h138.91c15.263 0 27.68 12.417 27.68 27.68v34.124h-179.94c-4.921 0-9.71.569-14.32 1.612z"/><path d="m33 442.825c0 17.584 14.306 31.889 31.889 31.889h382.222c17.583 0 31.889-14.305 31.889-31.889s-14.306-31.889-31.889-31.889h-382.222c-17.583 0-31.889 14.306-31.889 31.889zm15 0c0-9.313 7.577-16.889 16.889-16.889s16.889 7.576 16.889 16.889-7.577 16.889-16.889 16.889-16.889-7.576-16.889-16.889zm43.92-16.889h328.16c-3.073 4.901-4.858 10.689-4.858 16.889s1.785 11.988 4.858 16.889h-328.16c3.073-4.901 4.858-10.689 4.858-16.889s-1.784-11.987-4.858-16.889zm372.08 16.889c0 9.313-7.577 16.889-16.889 16.889s-16.889-7.576-16.889-16.889 7.577-16.889 16.889-16.889 16.889 7.577 16.889 16.889z"/></g></svg>