<svg id="Capa_1" enable-background="new 0 0 511.998 511.998" height="512" viewBox="0 0 511.998 511.998" width="512" xmlns="http://www.w3.org/2000/svg"><g><path d="m166.618 242.96c6.804 0 12.34 5.536 12.34 12.34v5c0 4.142 3.358 7.5 7.5 7.5h35.55c8.068 0 15.623-3.583 20.726-9.83 5.101-6.245 7.103-14.356 5.494-22.253l-22.711-111.755c-2.759-13.525-14.773-23.341-28.568-23.341h-57.51c-4.142 0-7.5 3.358-7.5 7.5v46.39c0 4.142 3.358 7.5 7.5 7.5s7.5-3.358 7.5-7.5v-38.89h50.01c6.697 0 12.531 4.769 13.87 11.333l22.71 111.753c.707 3.469-.173 7.031-2.413 9.773-2.242 2.745-5.562 4.319-9.108 4.319h-28.163c-1.267-13.908-12.994-24.84-27.227-24.84-5.258 0-10.2-2.047-13.917-5.763-3.716-3.717-5.763-8.655-5.763-13.907v-23.78c0-4.142-3.358-7.5-7.5-7.5s-7.5 3.358-7.5 7.5v23.78c0 9.258 3.607 17.964 10.157 24.513 6.549 6.551 15.258 10.158 24.523 10.158z"/><path d="m284.338 296.2c2.098 10.477 11.368 18.081 22.042 18.081 1.482 0 2.975-.148 4.434-.441 5.892-1.18 10.971-4.584 14.303-9.584s4.517-10.999 3.337-16.891l-8.513-42.504c-2.436-12.162-14.311-20.074-26.476-17.64-12.162 2.436-20.076 14.313-17.64 26.476zm12.072-54.271c.495-.099.988-.146 1.475-.146 3.498 0 6.635 2.466 7.348 6.024l8.513 42.504c.393 1.963-.001 3.962-1.112 5.628-1.11 1.666-2.803 2.8-4.767 3.194-.492.099-.992.148-1.487.148-3.55 0-6.634-2.535-7.333-6.026l-8.513-42.503c-.812-4.054 1.824-8.012 5.876-8.823z"/><path d="m95.273 379.371c-20.831 0-37.777 16.947-37.777 37.778s16.947 37.778 37.777 37.778 37.778-16.947 37.778-37.778-16.947-37.778-37.778-37.778zm0 60.556c-12.56 0-22.777-10.218-22.777-22.778s10.218-22.778 22.777-22.778 22.778 10.218 22.778 22.778-10.218 22.778-22.778 22.778z"/><path d="m129.161 369.027c20.831 0 37.778-16.947 37.778-37.778s-16.947-37.778-37.778-37.778-37.778 16.947-37.778 37.778 16.948 37.778 37.778 37.778zm0-60.556c12.56 0 22.778 10.218 22.778 22.778s-10.218 22.778-22.778 22.778-22.778-10.218-22.778-22.778 10.219-22.778 22.778-22.778z"/><path d="m207.392 372.09c14.706 0 26.67-11.964 26.67-26.67s-11.964-26.67-26.67-26.67-26.67 11.964-26.67 26.67 11.964 26.67 26.67 26.67zm0-38.34c6.435 0 11.67 5.235 11.67 11.67s-5.235 11.67-11.67 11.67-11.67-5.235-11.67-11.67 5.235-11.67 11.67-11.67z"/><path d="m495.828 405.204c-8.946-8.937-20.415-14.431-32.794-15.816l-24.756-126.928c-2.229-11.396-8.388-21.734-17.342-29.109-8.957-7.378-20.282-11.441-31.889-11.441-4.142 0-7.5 3.358-7.5 7.5v59.004l-21.752 16.475-16.998-84.883c-3.012-15.019-16.312-25.919-31.626-25.919h-37.748l-20.452-100.629c-3.036-14.969-16.327-25.834-31.604-25.834h-17.093v-12.981c0-15.431-12.554-27.986-27.986-27.986-15.431 0-27.985 12.554-27.985 27.986v12.981h-28.046c-22.084 0-40.051 17.967-40.051 40.051v114.235h-31.968c-26.598 0-48.238 21.639-48.238 48.238v85.695c0 19.376 12.002 36.608 29.487 43.684-1.549 5.755-2.345 11.674-2.345 17.678 0 18.192 7.085 35.302 19.954 48.183 12.876 12.864 29.986 19.949 48.178 19.949h208.279c27.293 0 52.167-15.221 64.697-39.168h17.608c2.575 6.537 6.253 12.644 10.953 18.019 2.727 3.118 7.465 3.435 10.583.709 3.118-2.727 3.436-7.464.709-10.583-7.452-8.522-11.556-19.458-11.556-30.793v-185.798c5.419 1.187 10.529 3.646 14.852 7.206 6.276 5.17 10.594 12.418 12.157 20.406l25.87 132.64c.687 3.522 3.773 6.064 7.361 6.064 10.737 0 20.837 4.182 28.434 11.77 7.594 7.603 11.776 17.703 11.776 28.44v26.09h-53.63c-4.662 0-9.254-.681-13.65-2.022-3.96-1.211-8.153 1.021-9.363 4.983-1.21 3.961 1.021 8.153 4.983 9.363 5.816 1.776 11.883 2.677 18.03 2.677h61.13c4.142 0 7.5-3.358 7.5-7.5v-33.59c.001-14.74-5.74-28.605-16.169-39.046zm-114.281-14.024h-8.134c-1.983-6.563-4.867-12.798-8.633-18.599-.363-.557-.737-1.102-1.113-1.647l17.88-13.545zm-29.851-11.176c.17.252.344.5.511.756 2.144 3.303 3.919 6.79 5.341 10.42h-20.604zm29.851-41.434-69.448 52.611h-41.387l110.835-83.949zm-218.244-283.927c0-7.16 5.825-12.986 12.985-12.986 7.161 0 12.986 5.825 12.986 12.986v12.981h-25.971zm-148.303 301.2v-85.695c0-18.328 14.911-33.238 33.238-33.238h39.468c4.142 0 7.5-3.358 7.5-7.5v-121.735c0-13.813 11.238-25.051 25.051-25.051h35.459c.029 0 .058.004.087.004h40.971c.029 0 .058-.004.087-.004h24.506c8.171 0 15.279 5.81 16.903 13.818l21.674 106.639c.71 3.495 3.783 6.006 7.35 6.006h43.877c8.192 0 15.308 5.833 16.919 13.867l18.422 91.996-30.434 23.051-153.85-68.567c-18.662-8.316-39.338-8.595-58.215-.784-18.878 7.811-33.312 22.614-40.642 41.682l-28.853 75.038c-11.6-4.96-19.518-16.533-19.518-29.527zm288.554 114.494h-208.28c-14.188 0-27.533-5.526-37.572-15.555-10.034-10.044-15.561-23.389-15.561-37.577 0-6.542 1.191-12.96 3.54-19.072l31.69-82.417c5.839-15.19 17.337-26.982 32.375-33.204 15.04-6.223 31.51-6.001 46.375.624l146.306 65.205-56.557 42.839h-79.256c-15.16 0-27.494 12.334-27.494 27.494s12.334 27.494 27.494 27.494h184.056c-10.761 14.97-28.207 24.169-47.116 24.169zm-136.94-39.169c-6.889 0-12.494-5.605-12.494-12.494s5.605-12.494 12.494-12.494h214.934v17.34c0 2.57.171 5.123.486 7.648z"/></g></svg>