<svg id="Capa_1" enable-background="new 0 0 511.995 511.995" height="512" viewBox="0 0 511.995 511.995" width="512" xmlns="http://www.w3.org/2000/svg"><g><path d="m356.947 255.969h60.883c8.845 0 16.978-4.046 22.312-11.102s7.013-15.983 4.603-24.494l-18.414-65.036c-3.394-11.986-14.46-20.353-26.919-20.353-.005 0-.011 0-.016 0l-42.466.035c-15.415.009-27.957 12.559-27.957 27.974v65.001c.001 15.425 12.549 27.975 27.974 27.975zm-12.973-92.976c0-7.149 5.816-12.97 12.968-12.974l42.466-.035h.007c5.777 0 10.91 3.881 12.484 9.439l18.414 65.037c1.118 3.947.34 8.087-2.135 11.36-2.474 3.272-6.245 5.148-10.348 5.148h-60.883c-7.153 0-12.974-5.82-12.974-12.974v-65.001z"/><path d="m489.434 348.325v-88.854c0-2.606-.362-5.2-1.074-7.7l-34.835-123.034c-4.533-15.998-19.311-27.17-35.936-27.17h-97.764c-22.588 0-40.964 18.376-40.964 40.964v86.026h-15.366v-139.149c0-19.944-16.222-36.17-36.16-36.17h-172.57c-19.938 0-36.159 16.226-36.159 36.17v25.6c0 4.142 3.357 7.5 7.5 7.5s7.5-3.358 7.5-7.5v-25.6c0-11.673 9.492-21.17 21.159-21.17h172.57c11.668 0 21.16 9.497 21.16 21.17v139.15h-214.89v-83.55c0-4.142-3.357-7.5-7.5-7.5s-7.5 3.358-7.5 7.5v84.652c-10.749 3.229-18.605 13.211-18.605 24.998v81.62c0 7.862 3.499 14.917 9.016 19.706-.069.068-.142.132-.211.201-5.675 5.675-8.8 13.223-8.8 21.254 0 16.577 13.487 30.064 30.064 30.064h25.002c9.64 29.708 37.569 51.251 70.447 51.251 32.876 0 60.803-21.542 70.445-51.247h105.972c9.642 29.707 37.57 51.25 70.449 51.25 32.876 0 60.802-21.544 70.442-51.252h39.105c8.039 0 15.589-3.131 21.254-8.81 5.681-5.681 8.81-13.229 8.81-21.254 0-13.987-9.602-25.775-22.561-29.116zm-474.434-12.048v-81.62c0-6.121 4.979-11.1 11.101-11.1h.005 252.756v103.82h-89.42c-12.866-21.951-36.694-36.734-63.923-36.734-27.228 0-51.055 14.781-63.922 36.731l-35.496.003c-6.122 0-11.101-4.979-11.101-11.1zm15.069 56.225c-8.307 0-15.064-6.758-15.064-15.064 0-4.024 1.565-7.806 4.407-10.647 2.848-2.848 6.633-4.417 10.657-4.417h24.839c-2.233 7.048-3.446 14.546-3.446 22.324 0 2.636.144 5.238.414 7.804zm95.45 51.252c-32.563 0-59.056-26.492-59.056-59.055s26.492-59.055 59.056-59.055c32.562 0 59.055 26.492 59.055 59.055s-26.493 59.055-59.055 59.055zm73.64-51.247c.27-2.567.415-5.171.415-7.809 0-7.776-1.212-15.274-3.445-22.321h105.625c-2.246 7.133-3.428 14.638-3.428 22.32 0 2.638.144 5.242.415 7.81zm173.226 51.25c-32.565 0-59.06-26.494-59.06-59.06 0-15.609 6.031-30.329 16.982-41.447 2.907-2.951 2.871-7.7-.08-10.606-2.949-2.905-7.699-2.871-10.605.08-4.392 4.458-8.144 9.382-11.229 14.653h-14.532v-204.846c0-14.317 11.647-25.964 25.964-25.964h97.764c9.948 0 18.791 6.687 21.503 16.258l34.838 123.043c.334 1.175.504 2.387.504 3.603v87.906h-38.13c-12.865-21.949-36.691-36.73-63.919-36.73-8.535 0-16.896 1.439-24.85 4.276-3.901 1.392-5.937 5.683-4.544 9.584 1.391 3.901 5.684 5.936 9.583 4.544 6.333-2.259 12.998-3.404 19.811-3.404 32.561 0 59.051 26.49 59.051 59.05 0 32.566-26.491 59.06-59.051 59.06zm120.187-55.662c-2.837 2.844-6.615 4.41-10.641 4.41h-35.91c.27-2.566.414-5.17.414-7.807 0-7.776-1.212-15.273-3.445-22.32h38.941c8.306 0 15.063 6.758 15.063 15.064.001 4.017-1.567 7.799-4.422 10.653z"/><path d="m125.519 340.292c-24.486 0-44.407 19.921-44.407 44.407s19.921 44.407 44.407 44.407c24.485 0 44.406-19.921 44.406-44.407s-19.921-44.407-44.406-44.407zm0 73.813c-16.215 0-29.407-13.192-29.407-29.407s13.192-29.407 29.407-29.407 29.406 13.192 29.406 29.407-13.192 29.407-29.406 29.407z"/><path d="m372.383 340.292c-24.485 0-44.406 19.921-44.406 44.407s19.921 44.407 44.406 44.407c24.486 0 44.407-19.921 44.407-44.407s-19.921-44.407-44.407-44.407zm0 73.813c-16.215 0-29.406-13.192-29.406-29.407s13.191-29.407 29.406-29.407 29.407 13.192 29.407 29.407-13.192 29.407-29.407 29.407z"/><path d="m430.059 289.284v13.854c0 10.69 8.697 19.388 19.388 19.388s19.388-8.697 19.388-19.388v-13.854c0-10.691-8.697-19.388-19.388-19.388s-19.388 8.697-19.388 19.388zm15 0c0-2.419 1.969-4.388 4.388-4.388s4.388 1.969 4.388 4.388v13.854c0 2.419-1.969 4.388-4.388 4.388s-4.388-1.968-4.388-4.388z"/><path d="m36.79 272.067h230.38c4.143 0 7.5-3.358 7.5-7.5s-3.357-7.5-7.5-7.5h-230.38c-4.143 0-7.5 3.358-7.5 7.5s3.357 7.5 7.5 7.5z"/><path d="m36.79 303.71h230.38c4.143 0 7.5-3.358 7.5-7.5s-3.357-7.5-7.5-7.5h-230.38c-4.143 0-7.5 3.358-7.5 7.5s3.357 7.5 7.5 7.5z"/></g></svg>