<svg id="Capa_1" enable-background="new 0 0 511.99 511.99" height="512" viewBox="0 0 511.99 511.99" width="512" xmlns="http://www.w3.org/2000/svg"><g><path d="m359.91 271.947h59.66c8.716 0 16.73-3.987 21.985-10.939 5.256-6.952 6.907-15.749 4.531-24.134l-18.041-63.733c-3.347-11.806-14.246-20.044-26.504-20.044-.01 0-.021 0-.031 0h-4.87c-4.142 0-7.5 3.358-7.5 7.5s3.358 7.5 7.5 7.5h4.879.014c5.589 0 10.556 3.755 12.081 9.133l18.041 63.732c1.083 3.823.331 7.833-2.064 11s-6.047 4.985-10.02 4.985h-59.66c-6.926 0-12.56-5.634-12.56-12.56v-63.7c0-6.919 5.633-12.554 12.55-12.56h6.74c4.142 0 7.5-3.358 7.5-7.5s-3.358-7.5-7.5-7.5h-6.747c-15.188.014-27.543 12.377-27.543 27.56v63.7c-.001 15.196 12.362 27.56 27.559 27.56z"/><path d="m489.882 362.179v-86.952c0-2.569-.357-5.125-1.058-7.586l-34.134-120.557c-4.459-15.741-19-26.734-35.358-26.734h-95.797c-22.216 0-40.291 18.074-40.291 40.291v97.126h-16.276v-192.144c0-13.39-10.894-24.284-24.284-24.284h-16.409c-10.894 0-20.134 7.21-23.201 17.109l-149.834 7.846c-13.433.704-23.955 11.792-23.955 25.243 0 10.962 6.99 20.353 16.847 23.834v30.615c-8.575 3.084-14.724 11.296-14.724 20.919s6.149 17.835 14.724 20.919v11.748c0 4.142 3.358 7.5 7.5 7.5 7.915 0 14.354 6.439 14.354 14.354s-6.439 14.354-14.354 14.354-14.354-6.439-14.354-14.354c0-4.142-3.358-7.5-7.5-7.5s-7.5 3.358-7.5 7.5c0 16.186 13.168 29.354 29.354 29.354s29.354-13.168 29.354-29.354c0-13.595-9.29-25.061-21.854-28.383v-5.219c8.575-3.084 14.725-11.295 14.725-20.919s-6.15-17.835-14.725-20.919v-28.793l140.86 7.376v133.198h-176.272c-14.182 0-25.72 11.542-25.72 25.73v18.49c0 4.142 3.358 7.5 7.5 7.5s7.5-3.358 7.5-7.5v-18.49c0-5.917 4.809-10.73 10.72-10.73h257.525v88.44h-97.387c-12.645-21.509-36.017-35.987-62.72-35.987-26.705 0-50.079 14.48-62.722 35.992 0 0-34.264.005-34.696.005-5.911 0-10.72-4.813-10.72-10.73v-18.5c0-4.142-3.358-7.5-7.5-7.5s-7.5 3.358-7.5 7.5v18.5c0 7.689 3.394 14.597 8.757 19.316-.029.029-.06.056-.09.085-5.589 5.589-8.667 13.023-8.667 20.934 0 16.327 13.283 29.61 29.61 29.61h24.391c9.497 29.116 36.892 50.22 69.137 50.22 32.247 0 59.643-21.106 69.139-50.225h113.619c9.496 29.118 36.892 50.225 69.139 50.225 32.244 0 59.638-21.103 69.137-50.217h38.207c7.917 0 15.354-3.083 20.933-8.677 5.595-5.595 8.677-13.029 8.677-20.933.001-13.737-9.401-25.315-22.107-28.646zm-436.25-188.05c-3.983 0-7.224-3.241-7.224-7.225s3.241-7.225 7.224-7.225c3.984 0 7.225 3.241 7.225 7.225s-3.241 7.225-7.225 7.225zm.392-72.329c-5.461-.286-9.739-4.794-9.739-10.263s4.278-9.977 9.739-10.263l147.968-7.748v36.022zm162.969-36.177c0-5.119 4.165-9.284 9.284-9.284h16.409c5.119 0 9.284 4.165 9.284 9.284v192.144h-34.976v-192.144zm81.252 95.017c0-13.945 11.345-25.291 25.291-25.291h95.797c9.681 0 18.287 6.507 20.926 15.822l34.136 120.567c.324 1.136.488 2.31.488 3.489v85.986h-37.123c-12.643-21.513-36.018-35.995-62.724-35.995-26.703 0-50.075 14.478-62.719 35.987h-14.072zm-268.635 244.791c-8.056 0-14.61-6.554-14.61-14.61 0-3.904 1.518-7.571 4.273-10.327 2.762-2.762 6.433-4.283 10.337-4.283h24.13c-2.153 6.863-3.317 14.16-3.317 21.724 0 2.531.132 5.031.385 7.496zm93.529 50.22c-31.825 0-57.716-25.891-57.716-57.716s25.891-57.716 57.716-57.716 57.716 25.891 57.716 57.716-25.892 57.716-57.716 57.716zm72.331-50.224c.253-2.463.385-4.962.385-7.491 0-7.566-1.164-14.864-3.319-21.729h98.112c.033 0 .064.005.097.005s.064-.004.097-.005h14.797c-2.154 6.865-3.318 14.163-3.318 21.729 0 2.529.131 5.028.385 7.491zm179.566 50.224c-31.825 0-57.716-25.891-57.716-57.716s25.891-57.716 57.716-57.716 57.716 25.891 57.716 57.716-25.891 57.716-57.716 57.716zm117.665-54.494c-2.751 2.758-6.417 4.277-10.32 4.277h-35.014c.254-2.466.386-4.967.386-7.499 0-7.563-1.163-14.859-3.316-21.721h37.944c8.056 0 14.61 6.554 14.61 14.61-.001 3.897-1.522 7.564-4.29 10.333z"/><path d="m123.139 354.271c-24.077 0-43.664 19.587-43.664 43.664s19.587 43.664 43.664 43.664 43.665-19.587 43.665-43.664-19.589-43.664-43.665-43.664zm0 72.328c-15.805 0-28.664-12.859-28.664-28.664s12.859-28.664 28.664-28.664c15.806 0 28.665 12.859 28.665 28.664s-12.86 28.664-28.665 28.664z"/><path d="m375.036 354.271c-24.077 0-43.664 19.587-43.664 43.664s19.587 43.664 43.664 43.664 43.665-19.587 43.665-43.664-19.588-43.664-43.665-43.664zm0 72.328c-15.805 0-28.664-12.859-28.664-28.664s12.859-28.664 28.664-28.664c15.806 0 28.665 12.859 28.665 28.664s-12.859 28.664-28.665 28.664z"/><path d="m431.4 304.44v13.575c0 10.559 8.59 19.149 19.149 19.149s19.148-8.59 19.148-19.149v-13.575c0-10.559-8.59-19.149-19.149-19.149s-19.148 8.591-19.148 19.149zm15 0c0-2.288 1.861-4.149 4.149-4.149s4.148 1.861 4.148 4.149v13.575c0 2.288-1.861 4.149-4.148 4.149-2.288 0-4.148-1.861-4.148-4.149v-13.575z"/><path d="m36.785 305.332h230.38c4.142 0 7.5-3.358 7.5-7.5s-3.358-7.5-7.5-7.5h-230.38c-4.142 0-7.5 3.358-7.5 7.5s3.358 7.5 7.5 7.5z"/></g></svg>