<svg id="Capa_1" enable-background="new 0 0 511.982 511.982" height="512" viewBox="0 0 511.982 511.982" width="512" xmlns="http://www.w3.org/2000/svg"><g><path d="m447.094 382.208h-382.206c-35.779 0-64.887 29.108-64.887 64.887s29.108 64.887 64.887 64.887h382.206c35.779 0 64.887-29.108 64.887-64.887s-29.108-64.887-64.887-64.887zm0 114.774h-382.206c-27.508 0-49.887-22.379-49.887-49.887s22.379-49.887 49.887-49.887h382.206c27.508 0 49.887 22.379 49.887 49.887s-22.379 49.887-49.887 49.887z"/><path d="m447.233 415.214c-.047-.001-.092-.007-.139-.007-.045 0-.09.003-.135.003h-52.518c-4.142 0-7.5 3.358-7.5 7.5s3.358 7.5 7.5 7.5h25.62c-3.072 4.9-4.856 10.687-4.856 16.885s1.784 11.985 4.856 16.885h-137.038c3.072-4.9 4.856-10.687 4.856-16.885s-1.784-11.984-4.856-16.885h81.418c4.142 0 7.5-3.358 7.5-7.5s-3.358-7.5-7.5-7.5h-299.418c-.045 0-.09-.003-.135-.003-.047 0-.092.006-.139.007-17.519.077-31.748 14.35-31.748 31.886 0 17.538 14.24 31.811 31.768 31.877.04.001.079.006.12.006.039 0 .077-.003.115-.003h381.975c.039 0 .077.003.115.003.04 0 .079-.005.12-.006 17.528-.067 31.768-14.339 31.768-31.877-.001-17.536-14.23-31.809-31.749-31.886zm-174.354 31.881c0 9.292-7.545 16.854-16.83 16.885h-.116c-9.285-.032-16.83-7.593-16.83-16.885 0-9.289 7.54-16.848 16.821-16.885h.135c9.28.037 16.82 7.596 16.82 16.885zm-43.92 16.885h-137.039c3.072-4.9 4.856-10.687 4.856-16.885s-1.784-11.984-4.856-16.885h137.038c-3.072 4.9-4.856 10.687-4.856 16.885.001 6.198 1.785 11.985 4.857 16.885zm-180.958-16.88c0-9.313 7.577-16.89 16.89-16.89h.065c9.281.037 16.821 7.595 16.821 16.885 0 9.292-7.545 16.854-16.83 16.885h-.055c-9.314 0-16.891-7.572-16.891-16.88zm399.09 16.88h-.055c-9.285-.032-16.83-7.593-16.83-16.885 0-9.289 7.54-16.848 16.821-16.885h.065c9.313 0 16.89 7.577 16.89 16.89-.001 9.308-7.577 16.88-16.891 16.88z"/><path d="m30.841 61.69h34.75c4.142 0 7.5-3.358 7.5-7.5s-3.358-7.5-7.5-7.5h-34.75c-8.734 0-15.84-7.106-15.84-15.84 0-4.239 1.647-8.217 4.65-11.213 2.983-2.99 6.957-4.637 11.19-4.637h450.3c8.734 0 15.84 7.11 15.84 15.85 0 4.233-1.647 8.207-4.65 11.203-2.983 2.99-6.958 4.637-11.19 4.637h-386.76c-4.142 0-7.5 3.358-7.5 7.5s3.358 7.5 7.5 7.5h240.576v69.067h-112.185c-49.613 0-89.977 40.368-89.977 89.987v51.552c0 20.874 16.981 37.855 37.855 37.855h14.536v17.85c0 11.954 9.725 21.678 21.679 21.678h19.044c11.954 0 21.678-9.725 21.678-21.678v-17.85h14.536c20.874 0 37.855-16.981 37.855-37.855v-5.094h42.195c16.208 14.509 37.593 23.346 61.006 23.346 50.49 0 91.567-41.077 91.567-91.567 0-23.413-8.837-44.798-23.345-61.005v-76.286h9.739c8.247 0 15.992-3.212 21.797-9.031 5.832-5.817 9.043-13.563 9.043-21.81 0-17.011-13.835-30.85-30.84-30.85h-450.3c-8.245.001-15.991 3.213-21.796 9.032-5.831 5.817-9.043 13.566-9.043 21.819 0 17.005 13.835 30.84 30.84 30.84zm425.561 62.823c-15.009-10.758-33.388-17.099-53.222-17.099s-38.213 6.341-53.223 17.099v-62.822h106.445zm-308.606 96.231c0-41.348 33.634-74.987 74.977-74.987h105.941c-10.759 15.01-17.1 33.39-17.1 53.224 0 19.833 6.341 38.212 17.098 53.221h-180.916zm84.792 107.257c0 3.683-2.996 6.678-6.678 6.678h-19.044c-3.683 0-6.679-2.996-6.679-6.678v-17.85h32.401zm52.391-55.705c0 12.602-10.253 22.855-22.855 22.855h-91.473c-12.602 0-22.855-10.253-22.855-22.855v-5.093h137.183zm118.201 3.252c-42.219 0-76.567-34.348-76.567-76.567s34.348-76.567 76.567-76.567 76.567 34.348 76.567 76.567-34.348 76.567-76.567 76.567z"/><path d="m403.18 151.554c-26.152 0-47.428 21.276-47.428 47.428 0 26.151 21.276 47.427 47.428 47.427 26.151 0 47.427-21.276 47.427-47.427 0-26.152-21.275-47.428-47.427-47.428zm0 79.855c-17.881 0-32.428-14.547-32.428-32.427 0-17.881 14.547-32.428 32.428-32.428 17.88 0 32.427 14.547 32.427 32.428 0 17.88-14.546 32.427-32.427 32.427z"/></g></svg>