<svg id="Capa_1" enable-background="new 0 0 512 512" height="512" viewBox="0 0 512 512" width="512" xmlns="http://www.w3.org/2000/svg"><g><path d="m410.519 116.196h-.708v-16.047c13.733-3.773 23.854-16.362 23.854-31.277 0-17.886-14.552-32.438-32.438-32.438h-72.616c-17.886 0-32.438 14.552-32.438 32.438 0 14.915 10.122 27.503 23.854 31.277v16.047h-107.708v-30.777c0-43.442-35.348-78.785-78.795-78.785h-26.117c-4.143 0-7.5 3.358-7.5 7.5v61.857c0 4.142 3.357 7.5 7.5 7.5h26.117c1.068 0 1.938.865 1.938 1.928v30.776h-13.707c-55.957 0-101.481 45.524-101.481 101.481v125.615c-12.725 16.938-20.274 37.975-20.274 60.742 0 55.875 45.458 101.333 101.333 101.333 36.879 0 69.216-19.806 86.943-49.337h164.236l-4.558 14.348c-2.622 8.255-1.193 16.999 3.921 23.99s13.015 11 21.677 11h26.173c8.662 0 16.562-4.009 21.677-11s6.543-15.734 3.921-23.989l-4.717-14.849c51.239-5.081 91.394-48.429 91.394-100.982v-136.87c0-55.957-45.524-101.481-101.481-101.481zm-99.345-47.324c0-9.615 7.822-17.438 17.438-17.438h72.616c9.615 0 17.438 7.823 17.438 17.438s-7.822 17.438-17.438 17.438h-72.616c-9.616 0-17.438-7.823-17.438-17.438zm23.854 32.438h59.782v14.885h-59.782zm-201.504-32.819h-18.617v-46.856h18.617c35.177 0 63.795 28.614 63.795 63.785v30.776h-46.857v-30.777c0-9.334-7.598-16.928-16.938-16.928zm-32.191 421.874c-47.604 0-86.333-38.728-86.333-86.332s38.729-86.333 86.333-86.333 86.332 38.729 86.332 86.333-38.728 86.332-86.332 86.332zm307.962-4.856c-2.258 3.086-5.746 4.856-9.57 4.856h-26.173c-3.824 0-7.312-1.77-9.57-4.856s-2.889-6.947-1.73-10.592l5.999-18.885h36.776l5.999 18.885c1.158 3.645.527 7.506-1.731 10.592zm87.705-130.962c0 47.686-38.796 86.481-86.481 86.481h-214.847c2.375-6.037 4.187-12.354 5.37-18.888h209.478c37.27 0 67.591-30.321 67.591-67.59v-136.87c0-7.869-1.345-15.578-3.998-22.912-1.409-3.896-5.714-5.909-9.604-4.501-3.896 1.409-5.911 5.709-4.502 9.604 2.06 5.693 3.104 11.685 3.104 17.809v115.424h-47.169c-4.143 0-7.5 3.358-7.5 7.5s3.357 7.5 7.5 7.5h47.169v6.445c0 28.999-23.592 52.59-52.591 52.59h-207.907c.031-1.032.052-2.067.052-3.107 0-20.66-6.22-39.893-16.879-55.933h130.104c4.143 0 7.5-3.358 7.5-7.5s-3.357-7.5-7.5-7.5h-142.268c-18.4-18.748-44.008-30.399-72.289-30.399-11.241 0-22.06 1.843-32.173 5.238v-90.258c0-28.999 23.592-52.59 52.59-52.59h288.77c12.869 0 25.255 4.714 34.875 13.273 3.096 2.753 7.836 2.476 10.589-.618 2.753-3.095 2.477-7.835-.618-10.589-12.37-11.005-28.297-17.066-44.846-17.066h-288.77c-37.27 0-67.59 30.321-67.59 67.59v96.694c-6.785 3.584-13.119 7.913-18.887 12.882v-109.579c0-47.686 38.796-86.481 86.481-86.481h288.764c47.686 0 86.481 38.795 86.481 86.481v136.87z"/><path d="m101.33 344.5c-32.825 0-59.53 26.705-59.53 59.53 0 32.831 26.705 59.54 59.53 59.54 10.65 0 21.109-2.854 30.245-8.253 3.566-2.107 4.749-6.707 2.642-10.272s-6.705-4.749-10.272-2.641c-6.827 4.034-14.646 6.167-22.614 6.167-24.554 0-44.53-19.98-44.53-44.54 0-24.554 19.977-44.53 44.53-44.53 24.56 0 44.54 19.976 44.54 44.53 0 6.844-1.511 13.413-4.491 19.522-1.815 3.723-.27 8.213 3.453 10.028 3.724 1.817 8.213.27 10.029-3.453 3.987-8.175 6.009-16.956 6.009-26.098-.001-32.825-26.711-59.53-59.541-59.53z"/><path d="m241.226 185.899h-118.754c-18.828 0-34.146 15.317-34.146 34.146v40.662c0 18.828 15.317 34.146 34.146 34.146h118.754c18.828 0 34.146-15.317 34.146-34.146v-40.662c-.001-18.828-15.318-34.146-34.146-34.146zm19.145 74.808c0 10.557-8.589 19.146-19.146 19.146h-118.753c-10.557 0-19.146-8.589-19.146-19.146v-40.662c0-10.557 8.589-19.146 19.146-19.146h118.754c10.557 0 19.146 8.589 19.146 19.146v40.662z"/><path d="m147.603 211.997c-15.648 0-28.379 12.73-28.379 28.378s12.73 28.378 28.379 28.378c15.647 0 28.378-12.73 28.378-28.378s-12.731-28.378-28.378-28.378zm0 41.757c-7.377 0-13.379-6.001-13.379-13.378s6.002-13.378 13.379-13.378 13.378 6.001 13.378 13.378-6.002 13.378-13.378 13.378z"/><path d="m216.095 211.997c-15.647 0-28.378 12.73-28.378 28.378s12.73 28.378 28.378 28.378 28.379-12.73 28.379-28.378-12.731-28.378-28.379-28.378zm0 41.757c-7.377 0-13.378-6.001-13.378-13.378s6.001-13.378 13.378-13.378 13.379 6.001 13.379 13.378-6.002 13.378-13.379 13.378z"/><path d="m398.2 265.933h-22.926c-.072 0-.263 0-.432-.201-.17-.202-.137-.391-.125-.46l11.794-68.281c1.293-7.49-2.776-14.576-9.897-17.232-7.122-2.657-14.838.032-18.767 6.539l-57.932 95.967c-5.357 8.875-5.514 19.565-.418 28.593 5.097 9.028 14.328 14.418 24.695 14.418h18.986c.073 0 .27 0 .438.209.17.209.129.401.113.474l-10.409 48.667c-1.547 7.229 1.909 14.198 8.6 17.342 2.2 1.035 4.495 1.535 6.748 1.535 4.598 0 9.02-2.086 12.092-5.98l59.7-75.668c6.788-8.604 8.035-20.074 3.255-29.935-4.779-9.861-14.557-15.987-25.515-15.987zm10.487 36.631-59.7 75.668c-.191.244-.279.352-.684.162-.406-.19-.377-.328-.312-.629l10.409-48.667c.988-4.617-.148-9.372-3.117-13.043-2.97-3.672-7.381-5.778-12.103-5.778h-18.986c-4.883 0-9.231-2.539-11.632-6.792-2.4-4.253-2.327-9.288.196-13.469l57.932-95.966c.181-.299.24-.402.682-.238.439.164.419.28.359.626l-11.794 68.283c-.782 4.535.469 9.155 3.434 12.675 2.964 3.519 7.303 5.538 11.904 5.538h22.925c5.24 0 9.732 2.815 12.019 7.53s1.713 9.986-1.532 14.1z"/></g></svg>