<svg id="Capa_1" enable-background="new 0 0 511.99 511.99" height="512" viewBox="0 0 511.99 511.99" width="512" xmlns="http://www.w3.org/2000/svg"><g><path d="m492.173 176.008c-3.639-1.979-8.194-.633-10.172 3.006-1.979 3.639-.633 8.193 3.006 10.172 7.392 4.02 11.983 11.741 11.983 20.151v98.75c0 12.649-10.291 22.94-22.94 22.94h-436.1c-12.655 0-22.95-10.291-22.95-22.94v-98.75c0-12.649 10.295-22.94 22.95-22.94h421.1c4.142 0 7.5-3.358 7.5-7.5s-3.358-7.5-7.5-7.5h-39.91l10.873-14.623c1.203-1.618 1.704-3.651 1.39-5.643-.314-1.991-1.416-3.772-3.058-4.942l-22.461-15.995 8.781-26.139c.642-1.912.488-4.001-.429-5.797s-2.518-3.148-4.442-3.75l-26.312-8.227.271-27.566c.02-2.015-.771-3.953-2.196-5.377-1.424-1.425-3.355-2.238-5.377-2.196l-27.566.271-8.227-26.312c-.602-1.924-1.953-3.526-3.75-4.442-1.797-.917-3.887-1.071-5.797-.429l-26.139 8.781-15.994-22.46c-1.169-1.642-2.951-2.744-4.942-3.058-1.991-.312-4.025.188-5.643 1.39l-22.122 16.449-22.122-16.449c-1.618-1.202-3.65-1.702-5.643-1.39-1.991.314-3.772 1.416-4.942 3.058l-15.995 22.461-26.139-8.781c-1.912-.643-4.001-.488-5.797.429s-3.148 2.518-3.75 4.442l-8.228 26.312-27.566-.271c-2.004-.045-3.953.771-5.377 2.196-1.425 1.425-2.216 3.362-2.196 5.377l.271 27.566-26.312 8.227c-1.924.602-3.526 1.953-4.442 3.749-.917 1.796-1.071 3.886-.429 5.797l8.781 26.139-22.459 15.996c-1.642 1.169-2.744 2.951-3.058 4.942-.313 1.991.188 4.025 1.39 5.643l10.873 14.623h-54.91c-20.926 0-37.95 17.02-37.95 37.94v98.75c0 20.92 17.024 37.94 37.95 37.94h18.08v83.78c0 4.142 3.358 7.5 7.5 7.5s7.5-3.358 7.5-7.5v-83.78h39.9v138.06c0 5.238-4.266 9.5-9.51 9.5h-20.88c-5.244 0-9.51-4.262-9.51-9.5v-24.28c0-4.142-3.358-7.5-7.5-7.5s-7.5 3.358-7.5 7.5v24.28c0 13.509 10.995 24.5 24.51 24.5h20.88c13.515 0 24.51-10.991 24.51-24.5v-56.778h260.143v56.777c0 13.511 10.992 24.502 24.503 24.502h20.886c13.511 0 24.503-10.992 24.503-24.502v-138.06h18.084c20.92 0 37.94-17.02 37.94-37.94v-98.75c.001-13.911-7.593-26.681-19.816-33.329zm-263.448-4.611c4.642-10.562 15.201-17.8 27.275-17.8s22.633 7.238 27.275 17.8zm-130.133-17.43 20.755-14.779c2.69-1.916 3.811-5.367 2.759-8.498l-8.112-24.15 24.318-7.604c3.156-.987 5.294-3.925 5.261-7.232l-.251-25.487 25.487.251c3.318.077 6.245-2.105 7.232-5.261l7.604-24.318 24.15 8.112c3.13 1.053 6.581-.067 8.498-2.759l14.78-20.755 20.453 15.208c2.656 1.976 6.294 1.975 8.95 0l20.454-15.208 14.779 20.755c1.916 2.69 5.368 3.812 8.498 2.759l24.15-8.112 7.604 24.318c.979 3.133 3.881 5.262 7.157 5.262h.075l25.487-.251-.251 25.487c-.033 3.307 2.105 6.245 5.261 7.232l24.318 7.604-8.112 24.15c-1.052 3.131.068 6.582 2.759 8.498l20.755 14.78-12.96 17.43h-101.294c-5.285-19.097-22.788-32.8-43.156-32.8s-37.872 13.703-43.156 32.8h-101.292zm27.338 258.342v-24.473h260.143v24.473zm315.035 71.777c0 5.24-4.263 9.502-9.503 9.502h-20.886c-5.24 0-9.503-4.263-9.503-9.502v-138.058h39.892zm-54.892-111.25h-260.143v-26.809h260.143z"/><path d="m68.873 201.251c-19.762 0-35.839 16.077-35.839 35.839v43.247c0 19.762 16.078 35.839 35.839 35.839h126.303c19.762 0 35.839-16.078 35.839-35.839v-43.247c0-19.762-16.078-35.839-35.839-35.839zm147.142 35.839v43.247c0 11.491-9.349 20.839-20.839 20.839h-126.303c-11.491 0-20.839-9.349-20.839-20.839v-43.247c0-11.491 9.349-20.839 20.839-20.839h126.303c11.49 0 20.839 9.348 20.839 20.839z"/><path d="m95.601 229.008c-16.38 0-29.706 13.326-29.706 29.706s13.326 29.706 29.706 29.706 29.706-13.326 29.706-29.706-13.327-29.706-29.706-29.706zm0 44.411c-8.109 0-14.706-6.597-14.706-14.706s6.597-14.706 14.706-14.706 14.706 6.597 14.706 14.706-6.598 14.706-14.706 14.706z"/><path d="m168.447 229.008c-16.38 0-29.706 13.326-29.706 29.706s13.326 29.706 29.706 29.706 29.706-13.326 29.706-29.706-13.326-29.706-29.706-29.706zm0 44.411c-8.109 0-14.706-6.597-14.706-14.706s6.597-14.706 14.706-14.706 14.706 6.597 14.706 14.706-6.597 14.706-14.706 14.706z"/></g></svg>