<svg id="Capa_1" enable-background="new 0 0 512 512" height="512" viewBox="0 0 512 512" width="512" xmlns="http://www.w3.org/2000/svg"><g><path d="m482.984 164.045h-36.004v-7.258c0-16.647-13.543-30.19-30.19-30.19h-9.345c-3.071-12.84-8.692-24.951-16.693-35.779-2.462-3.332-7.158-4.036-10.489-1.575-3.331 2.462-4.036 7.158-1.575 10.489 10.789 14.602 16.492 31.955 16.492 50.183v117.66c0 46.643-37.947 84.59-84.59 84.59h-6.652c-1.389-6.143-4.482-11.781-9.044-16.343-6.369-6.369-14.837-9.877-23.844-9.877h-96.46c-16.016 0-29.46 11.225-32.879 26.22h-14.652v-286.84h14.644c1.389 6.143 4.482 11.781 9.044 16.343 6.369 6.369 14.837 9.877 23.844 9.877h96.46c16.016 0 29.46-11.225 32.879-26.22h6.661c17.398 0 34.113 5.246 48.339 15.171 3.396 2.371 8.071 1.537 10.441-1.859 2.37-3.397 1.538-8.072-1.859-10.442-16.755-11.69-36.438-17.869-56.921-17.869h-13.32c-4.143 0-7.5 3.358-7.5 7.5 0 10.322-8.397 18.72-18.72 18.72h-96.46c-5 0-9.7-1.947-13.236-5.483s-5.483-8.237-5.483-13.237c0-4.142-3.357-7.5-7.5-7.5h-49.085c-54.748-.001-99.287 44.539-99.287 99.285v118.269c0 48.406 34.822 88.824 80.73 97.539v26.556h-32.14c-9.31 0-18.062 3.625-24.644 10.207-6.581 6.582-10.206 15.333-10.206 24.643 0 19.216 15.634 34.85 34.85 34.85h19.27c4.143 0 7.5-3.358 7.5-7.5s-3.357-7.5-7.5-7.5h-19.27c-10.945 0-19.85-8.905-19.85-19.85 0-5.303 2.064-10.288 5.813-14.037 3.748-3.749 8.733-5.813 14.036-5.813h334.521c10.95 0 19.859 8.904 19.859 19.85 0 5.303-2.064 10.289-5.808 14.032-3.76 3.752-8.75 5.818-14.052 5.818h-285.249c-4.143 0-7.5 3.358-7.5 7.5s3.357 7.5 7.5 7.5h285.25c9.303 0 18.056-3.623 24.653-10.207 6.581-6.582 10.206-15.333 10.206-24.644 0-19.216-15.638-34.85-34.859-34.85h-32.13v-33.377c27.944-12.449 49.135-37.396 56.435-67.701h9.375c16.647 0 30.19-13.543 30.19-30.19v-7.257h36.004c15.999 0 29.016-13.017 29.016-29.016v-31.374c0-15.997-13.017-29.014-29.016-29.014zm-467.984 103.835v-118.269c0-46.475 37.811-84.286 84.285-84.286h12.773v286.84h-12.773c-46.474 0-84.285-37.81-84.285-84.285zm320.98 124.088h-240.25v-24.873c1.18.042 2.364.07 3.555.07h49.085c4.143 0 7.5-3.358 7.5-7.5 0-10.322 8.397-18.72 18.72-18.72h96.46c5 0 9.7 1.947 13.236 5.483s5.483 8.237 5.483 13.237c0 4.142 3.357 7.5 7.5 7.5h13.32c8.772 0 17.281-1.145 25.391-3.285zm80.81-116.071h-6.961c.228-2.745.351-5.52.351-8.322v-117.66c0-2.792-.12-5.565-.345-8.318h6.956c8.376 0 15.19 6.814 15.19 15.19v14.661c0 .032-.005.064-.005.097v74.405c0 .033.004.064.005.097v14.66c-.001 8.376-6.815 15.19-15.191 15.19zm80.21-51.462c0 7.728-6.287 14.016-14.016 14.016h-36.004v-59.405h36.004c7.729 0 14.016 6.288 14.016 14.016z"/><path d="m275.651 104.635h-105.667c-16.056 0-29.118 13.062-29.118 29.119s13.062 29.119 29.118 29.119h105.667c16.056 0 29.118-13.062 29.118-29.119s-13.062-29.119-29.118-29.119zm0 43.238h-105.667c-7.785 0-14.118-6.333-14.118-14.119s6.333-14.119 14.118-14.119h105.667c7.785 0 14.118 6.333 14.118 14.119s-6.332 14.119-14.118 14.119z"/><path d="m275.651 179.627h-105.667c-16.056 0-29.118 13.062-29.118 29.119s13.062 29.119 29.118 29.119h105.667c16.056 0 29.118-13.062 29.118-29.119s-13.062-29.119-29.118-29.119zm0 43.237h-105.667c-7.785 0-14.118-6.333-14.118-14.119s6.333-14.119 14.118-14.119h105.667c7.785 0 14.118 6.333 14.118 14.119s-6.332 14.119-14.118 14.119z"/><path d="m275.651 254.618h-105.667c-16.056 0-29.118 13.062-29.118 29.119s13.062 29.119 29.118 29.119h105.667c16.056 0 29.118-13.062 29.118-29.119s-13.062-29.119-29.118-29.119zm0 43.237h-105.667c-7.785 0-14.118-6.333-14.118-14.119s6.333-14.119 14.118-14.119h105.667c7.785 0 14.118 6.333 14.118 14.119s-6.332 14.119-14.118 14.119z"/><path d="m97.672 215.868c-3.717-3.716-8.584-5.68-13.521-5.795v-33.317c0-10.91-8.876-19.787-19.787-19.787-10.91 0-19.786 8.876-19.786 19.787v33.322c-5.108.119-9.894 2.164-13.519 5.79-3.738 3.737-5.797 8.707-5.797 13.992s2.059 10.254 5.796 13.991l19.314 19.315c3.736 3.738 8.705 5.796 13.991 5.796s10.256-2.058 13.992-5.795l19.314-19.315c3.738-3.737 5.797-8.707 5.797-13.991.002-5.287-2.057-10.256-5.794-13.993zm-10.608 17.375-19.315 19.317c-.891.891-2.124 1.401-3.385 1.401-1.278 0-2.48-.498-3.384-1.402l-19.314-19.316h-.001c-.904-.904-1.402-2.106-1.402-3.384s.498-2.48 1.403-3.385c.903-.904 2.105-1.402 3.384-1.402.976 0 1.919.299 2.728.866 2.292 1.603 5.284 1.799 7.765.508 2.48-1.292 4.036-3.856 4.036-6.652v-43.038c0-2.639 2.147-4.787 4.786-4.787 2.64 0 4.787 2.147 4.787 4.787v43.038c0 2.796 1.556 5.361 4.036 6.652s5.474 1.096 7.765-.508c1.901-1.331 4.472-1.105 6.113.537.904.904 1.402 2.106 1.402 3.384s-.498 2.48-1.404 3.384z"/></g></svg>